# Created by Kenney (www.kenney.nl)

mtllib building-s.mtl

g building-s

v -0.87 4.683672E-17 -0.3190351 1 1 1
v -0.87 0.18 -0.3190351 1 1 1
v -0.87 4.683672E-17 -0.1590351 1 1 1
v -0.87 0.18 -0.1590351 1 1 1
v -0.89 4.683672E-17 -0.3390351 1 1 1
v -1.05 4.683672E-17 -0.3390351 1 1 1
v -0.89 0.18 -0.3390351 1 1 1
v -1.05 0.18 -0.3390351 1 1 1
v -1.05 4.683672E-17 -0.1390351 1 1 1
v -0.89 4.683672E-17 -0.1390351 1 1 1
v -1.05 0.18 -0.1390351 1 1 1
v -0.89 0.18 -0.1390351 1 1 1
v -1.07 0.18 -0.3190351 1 1 1
v -1.07 4.683672E-17 -0.3190351 1 1 1
v -1.07 0.18 -0.1590351 1 1 1
v -1.07 4.683672E-17 -0.1590351 1 1 1
v -0.9999999 4.48998E-17 0.42 1 1 1
v -0.6 4.48998E-17 0.42 1 1 1
v -0.9999999 0.05 0.42 1 1 1
v -0.6 0.05 0.42 1 1 1
v -1.02 4.48998E-17 0.4 1 1 1
v -1.02 0.05 0.4 1 1 1
v -1.02 4.48998E-17 4.470348E-08 1 1 1
v -1.02 0.05 4.470348E-08 1 1 1
v -0.6 4.48998E-17 4.470348E-08 1 1 1
v -0.6 0.05 0.4 1 1 1
v -0.9999999 0.05 0.4 1 1 1
v -0.9999999 0.05 4.470348E-08 1 1 1
v 0.2 4.533912E-17 0.4199998 1 1 1
v 0.6 4.533912E-17 0.4199998 1 1 1
v 0.2 4.533912E-17 -1.937151E-07 1 1 1
v 0.6 4.533912E-17 -1.937151E-07 1 1 1
v 0.6 0.05 0.4199998 1 1 1
v 0.2 0.05 0.4199998 1 1 1
v 0.2 0.05 0.3999998 1 1 1
v 0.6 0.05 0.3999998 1 1 1
v 1.02 4.511946E-17 0.4000001 1 1 1
v 1.02 4.511946E-17 4.470348E-08 1 1 1
v 1.02 0.05 0.4000001 1 1 1
v 1.02 0.05 4.470348E-08 1 1 1
v 0.9999999 4.511946E-17 0.4200001 1 1 1
v 0.9999999 0.05 0.4200001 1 1 1
v 0.5999999 4.511946E-17 0.42 1 1 1
v 0.5999999 0.05 0.42 1 1 1
v 0.6 4.511946E-17 -1.490116E-08 1 1 1
v 1 0.05 4.470348E-08 1 1 1
v 0.9999999 0.05 0.4000001 1 1 1
v 0.5999999 0.05 0.4 1 1 1
v 0.2 0.733541 1.937151E-07 1 1 1
v -0.2000001 0.733541 1.043081E-07 1 1 1
v 0.2000001 0.5044721 -0.4581376 1 1 1
v -0.2 0.5044721 -0.4581377 1 1 1
v 0.2 0.6999999 1.937151E-07 1 1 1
v 0.2 0.5 -0.3999999 1 1 1
v -0.2000001 0.6999999 1.043081E-07 1 1 1
v -0.2 0.5 -0.3999999 1 1 1
v -0.2 0.4776393 -0.4447213 1 1 1
v 0.2000001 0.4776393 -0.4447212 1 1 1
v -0.6000001 0.733541 -1.341105E-07 1 1 1
v -0.2 0.733541 -1.639128E-07 1 1 1
v -0.6 0.5044721 0.4581377 1 1 1
v -0.1999999 0.5044721 0.4581376 1 1 1
v -0.6000001 0.6999999 -1.341105E-07 1 1 1
v -0.6 0.5 0.3999999 1 1 1
v -0.2 0.6999999 -1.639128E-07 1 1 1
v -0.2 0.5 0.3999999 1 1 1
v -0.1999999 0.4776393 0.4447212 1 1 1
v -0.6 0.4776393 0.4447213 1 1 1
v 0.6 0.733541 -1.341105E-07 1 1 1
v 1.05 0.733541 -1.341105E-07 1 1 1
v 0.6 0.5044721 0.4581376 1 1 1
v 1 0.5044721 0.4581376 1 1 1
v 1.035355 0.5110214 0.445039 1 1 1
v 1.05 0.5268328 0.4134163 1 1 1
v 0.6 0.5 0.3999999 1 1 1
v 0.6 0.4776393 0.4447212 1 1 1
v 0.6 0.6999999 -1.341105E-07 1 1 1
v 1 0.6999999 -1.341105E-07 1 1 1
v 1 0.4776393 0.4447212 1 1 1
v 1.05 0.6999999 -1.341105E-07 1 1 1
v 1.035355 0.4841886 0.4316226 1 1 1
v 1.05 0.5 0.3999999 1 1 1
v -0.2 0.6999999 1.937151E-07 1 1 1
v -0.2 0.5 -0.3999999 1 1 1
v -0.6000001 0.6999999 1.043081E-07 1 1 1
v -0.6 0.5 -0.3999999 1 1 1
v -0.1999999 0.4776393 -0.4447212 1 1 1
v -0.6 0.4776393 -0.4447213 1 1 1
v -0.2 0.733541 1.937151E-07 1 1 1
v -0.6000001 0.733541 1.043081E-07 1 1 1
v -0.1999999 0.5044721 -0.4581376 1 1 1
v -0.6 0.5044721 -0.4581377 1 1 1
v 0.1999999 0.733541 -1.341105E-07 1 1 1
v 0.6 0.733541 -1.639128E-07 1 1 1
v 0.2 0.5044721 0.4581377 1 1 1
v 0.6000001 0.5044721 0.4581376 1 1 1
v 0.1999999 0.6999999 -1.341105E-07 1 1 1
v 0.2 0.5 0.3999999 1 1 1
v 0.6 0.6999999 -1.639128E-07 1 1 1
v 0.6000001 0.4776393 0.4447212 1 1 1
v 0.2 0.4776393 0.4447213 1 1 1
v 0.6 0.733541 1.937151E-07 1 1 1
v 0.1999999 0.733541 1.043081E-07 1 1 1
v 0.6000001 0.5044721 -0.4581376 1 1 1
v 0.2 0.5044721 -0.4581377 1 1 1
v 0.6 0.6999999 1.937151E-07 1 1 1
v 0.6 0.5 -0.3999999 1 1 1
v 0.1999999 0.6999999 1.043081E-07 1 1 1
v 0.2 0.5 -0.3999999 1 1 1
v 0.2 0.4776393 -0.4447213 1 1 1
v 0.6000001 0.4776393 -0.4447212 1 1 1
v 0.6 0.733541 1.341105E-07 1 1 1
v 1.05 0.733541 1.341105E-07 1 1 1
v 0.6 0.5044721 -0.4581376 1 1 1
v 1 0.5044721 -0.4581376 1 1 1
v 1.035355 0.5110214 -0.445039 1 1 1
v 1.05 0.5268328 -0.4134163 1 1 1
v 0.6 0.4776393 -0.4447212 1 1 1
v 0.6 0.6999999 1.341105E-07 1 1 1
v 1 0.6999999 1.341105E-07 1 1 1
v 1 0.4776393 -0.4447212 1 1 1
v 1.05 0.6999999 1.341105E-07 1 1 1
v 1.035355 0.4841886 -0.4316226 1 1 1
v 1.05 0.5 -0.3999999 1 1 1
v -0.6 0.733541 -1.341105E-07 1 1 1
v -1.05 0.733541 -1.341105E-07 1 1 1
v -0.6 0.5044721 0.4581376 1 1 1
v -1 0.5044721 0.4581376 1 1 1
v -1.035355 0.5110214 0.445039 1 1 1
v -1.05 0.5268328 0.4134163 1 1 1
v -0.6 0.5 0.3999999 1 1 1
v -0.6 0.4776393 0.4447212 1 1 1
v -0.6 0.6999999 -1.341105E-07 1 1 1
v -1 0.6999999 -1.341105E-07 1 1 1
v -1 0.4776393 0.4447212 1 1 1
v -1.05 0.6999999 -1.341105E-07 1 1 1
v -1.035355 0.4841886 0.4316226 1 1 1
v -1.05 0.5 0.3999999 1 1 1
v -0.6 0.733541 1.341105E-07 1 1 1
v -1.05 0.733541 1.341105E-07 1 1 1
v -0.6 0.5044721 -0.4581376 1 1 1
v -1 0.5044721 -0.4581376 1 1 1
v -1.035355 0.5110214 -0.445039 1 1 1
v -1.05 0.5268328 -0.4134163 1 1 1
v -0.6 0.5 -0.3999999 1 1 1
v -0.6 0.4776393 -0.4447212 1 1 1
v -0.6 0.6999999 1.341105E-07 1 1 1
v -1 0.6999999 1.341105E-07 1 1 1
v -1 0.4776393 -0.4447212 1 1 1
v -1.05 0.6999999 1.341105E-07 1 1 1
v -1.035355 0.4841886 -0.4316226 1 1 1
v -1.05 0.5 -0.3999999 1 1 1
v -0.2000001 0.733541 -1.341105E-07 1 1 1
v 0.2 0.733541 -1.639128E-07 1 1 1
v -0.2 0.5044721 0.4581377 1 1 1
v 0.2000001 0.5044721 0.4581376 1 1 1
v -0.2000001 0.6999999 -1.341105E-07 1 1 1
v -0.2 0.5 0.3999999 1 1 1
v 0.2 0.6999999 -1.639128E-07 1 1 1
v 0.2 0.5 0.3999999 1 1 1
v 0.2000001 0.4776393 0.4447212 1 1 1
v -0.2 0.4776393 0.4447213 1 1 1
v -0.6 4.511946E-17 0.4199998 1 1 1
v -0.2 4.511946E-17 0.4199998 1 1 1
v -0.6 4.511946E-17 -1.937151E-07 1 1 1
v -0.2 4.511946E-17 -1.937151E-07 1 1 1
v -0.2 0.05 0.4199998 1 1 1
v -0.6 0.05 0.4199998 1 1 1
v -0.6 0.05 0.3999998 1 1 1
v -0.2 0.05 0.3999998 1 1 1
v 0.2 4.511946E-17 0.4199998 1 1 1
v 0.2 4.511946E-17 -1.937151E-07 1 1 1
v -0.6295 0.777791 -1.804779E-15 1 1 1
v -0.6208597 0.777791 0.02085965 1 1 1
v -0.64425 0.807291 -3.609557E-16 1 1 1
v -0.6312895 0.807291 0.03128947 1 1 1
v -0.5705 0.777791 -1.804779E-15 1 1 1
v -0.55575 0.807291 -3.609557E-16 1 1 1
v -0.5791404 0.777791 0.02085965 1 1 1
v -0.5687106 0.807291 0.03128947 1 1 1
v -0.6208597 0.718791 0.02085965 1 1 1
v -0.6 0.718791 0.0295 1 1 1
v -0.6 0.777791 0.0295 1 1 1
v -0.6312895 0.807291 -0.03128947 1 1 1
v -0.6208597 0.777791 -0.02085965 1 1 1
v -0.6 0.807291 0.04425 1 1 1
v -0.6 0.777791 -0.0295 1 1 1
v -0.6 0.807291 -0.04425 1 1 1
v -0.5791404 0.777791 -0.02085965 1 1 1
v -0.5687106 0.807291 -0.03128947 1 1 1
v -0.6295 0.836791 -1.804779E-15 1 1 1
v -0.6208597 0.836791 0.02085965 1 1 1
v -0.5791404 0.718791 0.02085965 1 1 1
v -0.5791404 0.718791 -0.02085965 1 1 1
v -0.6 0.718791 -0.0295 1 1 1
v -0.5705 0.718791 -1.804779E-15 1 1 1
v -0.5791404 0.836791 -0.02085965 1 1 1
v -0.6 0.836791 -0.0295 1 1 1
v -0.6208597 0.836791 -0.02085965 1 1 1
v -0.6 0.836791 0.0295 1 1 1
v -0.5791404 0.836791 0.02085965 1 1 1
v -0.5705 0.836791 -1.804779E-15 1 1 1
v -0.6208597 0.718791 -0.02085965 1 1 1
v -0.6295 0.718791 -1.804779E-15 1 1 1
v -0.0295 0.777791 -1.804779E-15 1 1 1
v -0.02085965 0.777791 0.02085965 1 1 1
v -0.04425 0.807291 -3.609557E-16 1 1 1
v -0.03128947 0.807291 0.03128947 1 1 1
v 0.0295 0.777791 -1.804779E-15 1 1 1
v 0.04425 0.807291 -3.609557E-16 1 1 1
v 0.02085965 0.777791 0.02085965 1 1 1
v 0.03128947 0.807291 0.03128947 1 1 1
v -0.02085965 0.718791 0.02085965 1 1 1
v 4.331469E-15 0.718791 0.0295 1 1 1
v 4.331469E-15 0.777791 0.0295 1 1 1
v -0.03128947 0.807291 -0.03128947 1 1 1
v -0.02085965 0.777791 -0.02085965 1 1 1
v 4.331469E-15 0.807291 0.04425 1 1 1
v 4.331469E-15 0.777791 -0.0295 1 1 1
v 4.331469E-15 0.807291 -0.04425 1 1 1
v 0.02085965 0.777791 -0.02085965 1 1 1
v 0.03128947 0.807291 -0.03128947 1 1 1
v -0.0295 0.836791 -1.804779E-15 1 1 1
v -0.02085965 0.836791 0.02085965 1 1 1
v 0.02085965 0.718791 0.02085965 1 1 1
v 0.02085965 0.718791 -0.02085965 1 1 1
v 4.331469E-15 0.718791 -0.0295 1 1 1
v 0.0295 0.718791 -1.804779E-15 1 1 1
v 0.02085965 0.836791 -0.02085965 1 1 1
v 4.331469E-15 0.836791 -0.0295 1 1 1
v -0.02085965 0.836791 -0.02085965 1 1 1
v 4.331469E-15 0.836791 0.0295 1 1 1
v 0.02085965 0.836791 0.02085965 1 1 1
v 0.0295 0.836791 -1.804779E-15 1 1 1
v -0.02085965 0.718791 -0.02085965 1 1 1
v -0.0295 0.718791 -1.804779E-15 1 1 1
v 0.5705 0.777791 -1.804779E-15 1 1 1
v 0.5791404 0.777791 0.02085965 1 1 1
v 0.55575 0.807291 -3.609557E-16 1 1 1
v 0.5687106 0.807291 0.03128947 1 1 1
v 0.6295 0.777791 -1.804779E-15 1 1 1
v 0.64425 0.807291 -3.609557E-16 1 1 1
v 0.6208597 0.777791 0.02085965 1 1 1
v 0.6312895 0.807291 0.03128947 1 1 1
v 0.5791404 0.718791 0.02085965 1 1 1
v 0.6 0.718791 0.0295 1 1 1
v 0.6 0.777791 0.0295 1 1 1
v 0.5687106 0.807291 -0.03128947 1 1 1
v 0.5791404 0.777791 -0.02085965 1 1 1
v 0.6 0.807291 0.04425 1 1 1
v 0.6 0.777791 -0.0295 1 1 1
v 0.6 0.807291 -0.04425 1 1 1
v 0.6208597 0.777791 -0.02085965 1 1 1
v 0.6312895 0.807291 -0.03128947 1 1 1
v 0.5705 0.836791 -1.804779E-15 1 1 1
v 0.5791404 0.836791 0.02085965 1 1 1
v 0.6208597 0.718791 0.02085965 1 1 1
v 0.6208597 0.718791 -0.02085965 1 1 1
v 0.6 0.718791 -0.0295 1 1 1
v 0.6295 0.718791 -1.804779E-15 1 1 1
v 0.6208597 0.836791 -0.02085965 1 1 1
v 0.6 0.836791 -0.0295 1 1 1
v 0.5791404 0.836791 -0.02085965 1 1 1
v 0.6 0.836791 0.0295 1 1 1
v 0.6208597 0.836791 0.02085965 1 1 1
v 0.6295 0.836791 -1.804779E-15 1 1 1
v 0.5791404 0.718791 -0.02085965 1 1 1
v 0.5705 0.718791 -1.804779E-15 1 1 1
v -0.8699999 2.25817E-16 -0.42 1 1 1
v -0.8699999 0.27 -0.42 1 1 1
v -0.8699999 2.363436E-16 -0.4 1 1 1
v -0.8699999 0.27 -0.4 1 1 1
v -0.73 0.27 -0.42 1 1 1
v -0.73 2.25817E-16 -0.42 1 1 1
v -0.73 0.27 -0.4 1 1 1
v -0.73 2.363436E-16 -0.4 1 1 1
v -1.02 0.05 -0.4 1 1 1
v -1.02 4.521313E-17 -0.4 1 1 1
v -1.02 5.586575E-17 4.470348E-08 1 1 1
v -0.6999999 0.05 -0.42 1 1 1
v -0.6999999 0.05 -0.4 1 1 1
v -0.6 0.05 -0.42 1 1 1
v -0.6 0.05 -0.4 1 1 1
v -0.6999999 0.28 -0.42 1 1 1
v -0.6999999 0.28 -0.4 1 1 1
v -0.6 4.533912E-17 -0.42 1 1 1
v -0.8999999 0.28 -0.42 1 1 1
v -0.72 0.3 -0.42 1 1 1
v -0.8799999 0.3 -0.42 1 1 1
v -0.8999999 0.05 -0.42 1 1 1
v -0.9999999 0.05 -0.42 1 1 1
v -0.9999999 6.968421E-17 -0.42 1 1 1
v -0.9999999 0.05 -0.4 1 1 1
v -0.8999999 0.05 -0.4 1 1 1
v -0.8799999 0.3 -0.4 1 1 1
v -0.72 0.3 -0.4 1 1 1
v -0.8999999 0.28 -0.4 1 1 1
v -0.6 5.586575E-17 4.470348E-08 1 1 1
v -0.7599999 0.1142649 -0.3999999 1 1 1
v -0.7599999 0.1142649 -0.411 1 1 1
v -0.7407299 0.1142649 -0.3999999 1 1 1
v -0.7407299 0.1142649 -0.411 1 1 1
v -0.7599999 0.1557351 -0.411 1 1 1
v -0.7599999 0.1557351 -0.3999999 1 1 1
v -0.7407299 0.1557351 -0.411 1 1 1
v -0.7407299 0.1557351 -0.3999999 1 1 1
v -0.7473159 0.1332044 -0.4110001 1 1 1
v -0.7473159 0.1463153 -0.4110001 1 1 1
v -0.7782294 0.1332044 -0.4110001 1 1 1
v -0.7782294 0.1463153 -0.4110001 1 1 1
v -0.7473159 0.1332044 -0.4220001 1 1 1
v -0.7782294 0.1332044 -0.4220001 1 1 1
v -0.7473159 0.1463153 -0.4220001 1 1 1
v -0.7782294 0.1463153 -0.4220001 1 1 1
v 0.6949999 2.255973E-16 -0.42 1 1 1
v 0.6949999 0.27 -0.42 1 1 1
v 0.6949999 2.255973E-16 -0.4 1 1 1
v 0.6949999 0.27 -0.4 1 1 1
v 0.905 0.27 -0.42 1 1 1
v 0.905 2.255973E-16 -0.42 1 1 1
v 0.905 0.27 -0.4 1 1 1
v 0.905 2.255973E-16 -0.4 1 1 1
v 0.6 4.511946E-17 -4.470348E-08 1 1 1
v 0.6 4.511946E-17 -0.42 1 1 1
v 1.02 4.511946E-17 -4.470348E-08 1 1 1
v 0.9999999 8.491233E-17 -0.42 1 1 1
v 1.02 4.511946E-17 -0.4 1 1 1
v 0.9349999 0.05 -0.42 1 1 1
v 0.9349999 0.05 -0.4 1 1 1
v 0.9999999 0.05 -0.42 1 1 1
v 0.9999999 0.05 -0.4 1 1 1
v 0.9999999 0.05 -4.470348E-08 1 1 1
v 1.02 0.05 -4.470348E-08 1 1 1
v 1.02 0.05 -0.4 1 1 1
v 0.9349999 0.28 -0.42 1 1 1
v 0.9349999 0.28 -0.4 1 1 1
v 0.6 0.05 -0.42 1 1 1
v 0.6 0.05 -0.4 1 1 1
v 0.665 0.05 -0.42 1 1 1
v 0.665 0.05 -0.4 1 1 1
v 0.665 0.28 -0.42 1 1 1
v 0.665 0.28 -0.4 1 1 1
v 0.6849999 0.3 -0.42 1 1 1
v 0.6849999 0.3 -0.4 1 1 1
v 0.915 0.3 -0.42 1 1 1
v 0.915 0.3 -0.4 1 1 1
v 0.8219486 0.03688905 -0.411 1 1 1
v 0.7780514 0.03688905 -0.411 1 1 1
v 0.8219486 0.05 -0.411 1 1 1
v 0.7780514 0.05 -0.411 1 1 1
v 0.8219486 0.03688905 -0.3999999 1 1 1
v 0.8219486 0.05 -0.3999999 1 1 1
v 0.7780514 0.05 -0.3999999 1 1 1
v 0.7780514 0.03688905 -0.3999999 1 1 1
v -0.105 1.804779E-16 -0.42 1 1 1
v -0.105 0.27 -0.42 1 1 1
v -0.105 1.804779E-16 -0.4 1 1 1
v -0.105 0.27 -0.4 1 1 1
v 0.105 0.27 -0.42 1 1 1
v 0.105 1.804779E-16 -0.42 1 1 1
v 0.105 0.27 -0.4 1 1 1
v 0.105 1.804779E-16 -0.4 1 1 1
v -0.2 0 -4.470348E-08 1 1 1
v -0.2 0 -0.42 1 1 1
v 0.2 3.947953E-17 -4.470348E-08 1 1 1
v 0.2 3.979286E-17 -0.42 1 1 1
v 0.135 0.05 -0.42 1 1 1
v 0.135 0.05 -0.4 1 1 1
v 0.2 0.05 -0.42 1 1 1
v 0.2 0.05 -0.4 1 1 1
v 0.135 0.28 -0.42 1 1 1
v 0.135 0.28 -0.4 1 1 1
v -0.2 0.05 -0.42 1 1 1
v -0.2 0.05 -0.4 1 1 1
v -0.135 0.05 -0.42 1 1 1
v -0.135 0.05 -0.4 1 1 1
v -0.135 0.28 -0.42 1 1 1
v -0.135 0.28 -0.4 1 1 1
v -0.115 0.3 -0.42 1 1 1
v -0.115 0.3 -0.4 1 1 1
v 0.115 0.3 -0.42 1 1 1
v 0.115 0.3 -0.4 1 1 1
v 0.0219486 0.03688905 -0.411 1 1 1
v -0.0219486 0.03688905 -0.411 1 1 1
v 0.0219486 0.05 -0.411 1 1 1
v -0.0219486 0.05 -0.411 1 1 1
v 0.0219486 0.03688905 -0.3999999 1 1 1
v 0.0219486 0.05 -0.3999999 1 1 1
v -0.0219486 0.05 -0.3999999 1 1 1
v -0.0219486 0.03688905 -0.3999999 1 1 1
v -0.5049999 1.804779E-16 -0.42 1 1 1
v -0.5049999 0.27 -0.42 1 1 1
v -0.5049999 1.804779E-16 -0.4 1 1 1
v -0.5049999 0.27 -0.4 1 1 1
v -0.295 0.27 -0.42 1 1 1
v -0.295 1.804779E-16 -0.42 1 1 1
v -0.295 0.27 -0.4 1 1 1
v -0.295 1.804779E-16 -0.4 1 1 1
v -0.6 0 -4.470348E-08 1 1 1
v -0.6 0 -0.42 1 1 1
v -0.2 3.947953E-17 -4.470348E-08 1 1 1
v -0.2 3.979286E-17 -0.42 1 1 1
v -0.265 0.05 -0.42 1 1 1
v -0.265 0.05 -0.4 1 1 1
v -0.2 0.05 -0.42 1 1 1
v -0.2 0.05 -0.4 1 1 1
v -0.265 0.28 -0.42 1 1 1
v -0.265 0.28 -0.4 1 1 1
v -0.6 0.05 -0.42 1 1 1
v -0.6 0.05 -0.4 1 1 1
v -0.535 0.05 -0.42 1 1 1
v -0.535 0.05 -0.4 1 1 1
v -0.535 0.28 -0.42 1 1 1
v -0.535 0.28 -0.4 1 1 1
v -0.515 0.3 -0.42 1 1 1
v -0.515 0.3 -0.4 1 1 1
v -0.285 0.3 -0.42 1 1 1
v -0.285 0.3 -0.4 1 1 1
v -0.3780513 0.03688905 -0.411 1 1 1
v -0.4219486 0.03688905 -0.411 1 1 1
v -0.3780513 0.05 -0.411 1 1 1
v -0.4219486 0.05 -0.411 1 1 1
v -0.3780513 0.03688905 -0.3999999 1 1 1
v -0.3780513 0.05 -0.3999999 1 1 1
v -0.4219486 0.05 -0.3999999 1 1 1
v -0.4219486 0.03688905 -0.3999999 1 1 1
v -1.050728 0.04999998 0.3332723 1 1 1
v -1.038 0.04999998 0.3280002 1 1 1
v -1.050728 0.364 0.3332723 1 1 1
v -1.038 0.364 0.3280002 1 1 1
v -1.02 0.364 0.3460002 1 1 1
v -1.02 0.04999998 0.3460002 1 1 1
v -1.025272 0.364 0.3587281 1 1 1
v -1.025272 0.04999998 0.3587281 1 1 1
v -1.025272 0.04999998 0.3332723 1 1 1
v -1.025272 0.364 0.3332723 1 1 1
v -1.038 0.04999998 0.3640002 1 1 1
v -1.038 0.364 0.3640002 1 1 1
v -1.050728 0.04999998 0.3587281 1 1 1
v -1.050728 0.364 0.3587281 1 1 1
v -1.056 0.04999998 0.3460002 1 1 1
v -1.056 0.364 0.3460002 1 1 1
v -1 0.364 0.3640002 1 1 1
v -1 0.364 0.3280002 1 1 1
v -1.056 0.364 0.3640002 1 1 1
v -1.056 0.364 0.3280002 1 1 1
v -1 0.4 0.3280002 1 1 1
v -1 0.4 0.3640002 1 1 1
v -1.046 0.4 0.3280002 1 1 1
v -1.046 0.4 0.3640002 1 1 1
v -1.056 0.39 0.3640002 1 1 1
v -1.056 0.39 0.3280002 1 1 1
v -1.056093 0.278707 0.3279068 1 1 1
v -1.056093 0.307138 0.3279068 1 1 1
v -1.063588 0.278707 0.3460002 1 1 1
v -1.063588 0.307138 0.3460002 1 1 1
v -1.038 0.278707 0.3204123 1 1 1
v -1.038 0.307138 0.3204123 1 1 1
v -1.012412 0.307138 0.3460002 1 1 1
v -1.012412 0.278707 0.3460002 1 1 1
v -1.019907 0.307138 0.3640936 1 1 1
v -1.019907 0.278707 0.3640936 1 1 1
v -1.019907 0.307138 0.3279068 1 1 1
v -1.019907 0.278707 0.3279068 1 1 1
v -1.056093 0.278707 0.3640936 1 1 1
v -1.056093 0.307138 0.3640936 1 1 1
v -1.038 0.278707 0.3715881 1 1 1
v -1.038 0.307138 0.3715881 1 1 1
v -1.056093 0.1032155 0.3279068 1 1 1
v -1.056093 0.1316465 0.3279068 1 1 1
v -1.063588 0.1032155 0.3460002 1 1 1
v -1.063588 0.1316465 0.3460002 1 1 1
v -1.038 0.1032155 0.3204123 1 1 1
v -1.038 0.1316465 0.3204123 1 1 1
v -1.012412 0.1316465 0.3460002 1 1 1
v -1.012412 0.1032155 0.3460002 1 1 1
v -1.019907 0.1316465 0.3640936 1 1 1
v -1.019907 0.1032155 0.3640936 1 1 1
v -1.019907 0.1316465 0.3279068 1 1 1
v -1.019907 0.1032155 0.3279068 1 1 1
v -1.056093 0.1032155 0.3640936 1 1 1
v -1.056093 0.1316465 0.3640936 1 1 1
v -1.038 0.1032155 0.3715881 1 1 1
v -1.038 0.1316465 0.3715881 1 1 1
v 0.295 1.858045E-16 -0.42 1 1 1
v 0.295 0.27 -0.42 1 1 1
v 0.295 1.858045E-16 -0.4 1 1 1
v 0.295 0.27 -0.4 1 1 1
v 0.505 0.27 -0.42 1 1 1
v 0.505 1.858045E-16 -0.42 1 1 1
v 0.505 0.27 -0.4 1 1 1
v 0.505 1.858045E-16 -0.4 1 1 1
v 0.2 5.326603E-18 -4.470348E-08 1 1 1
v 0.2 5.326603E-18 -0.42 1 1 1
v 0.6 4.480613E-17 -4.470348E-08 1 1 1
v 0.6 4.511946E-17 -0.42 1 1 1
v 0.535 0.05 -0.42 1 1 1
v 0.535 0.05 -0.4 1 1 1
v 0.6 0.05 -0.42 1 1 1
v 0.6 0.05 -0.4 1 1 1
v 0.535 0.28 -0.42 1 1 1
v 0.535 0.28 -0.4 1 1 1
v 0.2 0.05 -0.42 1 1 1
v 0.2 0.05 -0.4 1 1 1
v 0.265 0.05 -0.42 1 1 1
v 0.265 0.05 -0.4 1 1 1
v 0.265 0.28 -0.42 1 1 1
v 0.265 0.28 -0.4 1 1 1
v 0.285 0.3 -0.42 1 1 1
v 0.285 0.3 -0.4 1 1 1
v 0.515 0.3 -0.42 1 1 1
v 0.515 0.3 -0.4 1 1 1
v 0.4219486 0.03688905 -0.411 1 1 1
v 0.3780514 0.03688905 -0.411 1 1 1
v 0.4219486 0.05 -0.411 1 1 1
v 0.3780514 0.05 -0.411 1 1 1
v 0.4219486 0.03688905 -0.3999999 1 1 1
v 0.4219486 0.05 -0.3999999 1 1 1
v 0.3780514 0.05 -0.3999999 1 1 1
v 0.3780514 0.03688905 -0.3999999 1 1 1
v -0.9999999 0.4 0.4 1 1 1
v -0.6 0.4 0.4 1 1 1
v -0.9999999 0.4 4.470348E-08 1 1 1
v 0.6 0.4 0.3999998 1 1 1
v 0.2 0.4 0.3999998 1 1 1
v 0.9999999 0.4 0.4000001 1 1 1
v 1 0.4 4.470348E-08 1 1 1
v 0.5999999 0.4 0.4 1 1 1
v 1 0.5 -1.341105E-07 1 1 1
v 1 0.5 0.3999999 1 1 1
v 1 0.5 1.341105E-07 1 1 1
v 1 0.5 -0.3999999 1 1 1
v -1 0.5 -1.341105E-07 1 1 1
v -1 0.5 0.3999999 1 1 1
v -1 0.5 1.341105E-07 1 1 1
v -1 0.5 -0.3999999 1 1 1
v -0.2 0.4 0.3999998 1 1 1
v -0.6 0.4 0.3999998 1 1 1
v 0.2 0.4 -0.4000001 1 1 1
v 0.6 0.4 -0.4000001 1 1 1
v 0.2 0.5 -0.4000001 1 1 1
v 0.6 0.5 -0.4000001 1 1 1
v -1 0.5 0.3999999 1 1 1
v -1 0.4 0.3999999 1 1 1
v -0.6 0.5 0.3999998 1 1 1
v -1 0.4 -1.937151E-07 1 1 1
v -1 0.5 -1.937151E-07 1 1 1
v -0.2 0.4 -0.4000001 1 1 1
v -0.2 0.5 -0.4000001 1 1 1
v -0.2 0.4 0.4000001 1 1 1
v -0.6 0.4 0.4000001 1 1 1
v -0.2 0.5 0.4000001 1 1 1
v -0.6 0.5 0.4000001 1 1 1
v 1 0.5 -0.3999998 1 1 1
v 1 0.4 -0.3999998 1 1 1
v 1 0.5 1.937151E-07 1 1 1
v 1 0.4 1.937151E-07 1 1 1
v 0.6 0.4 -0.3999998 1 1 1
v 0.6 0.5 -0.3999998 1 1 1
v -0.6 0.4 -0.4000001 1 1 1
v -0.6 0.5 -0.4000001 1 1 1
v 0.2 0.4 0.4000001 1 1 1
v 0.2 0.5 0.4000001 1 1 1
v 0.6 0.4 0.4000001 1 1 1
v 0.6 0.5 0.4000001 1 1 1
v 1 0.5 0.3999999 1 1 1
v 1 0.4 0.3999999 1 1 1
v 0.6 0.5 0.3999998 1 1 1
v 0.6 0.4 0.3999998 1 1 1
v 1 0.4 -1.937151E-07 1 1 1
v 1 0.5 -1.937151E-07 1 1 1
v -1 0.5 -0.3999998 1 1 1
v -1 0.4 -0.3999998 1 1 1
v -1 0.5 1.937151E-07 1 1 1
v -1 0.4 1.937151E-07 1 1 1
v -0.6000001 0.4 -0.3999998 1 1 1
v -0.6000001 0.5 -0.3999998 1 1 1
v -0.9999999 0.4 -0.4 1 1 1
v -0.6 0.4 -0.4 1 1 1
v 0.9999999 0.4 -0.4 1 1 1
v 0.9999999 0.4 -4.470348E-08 1 1 1
v 0.6 0.4 -0.4 1 1 1
v 0.2 0.4 -0.4 1 1 1
v -0.2 0.4 -0.4 1 1 1
v -0.2 0.4 -0.4 1 1 1
v -0.6 0.4 -0.4 1 1 1
v 0.6 0.4 -0.4 1 1 1
v 0.2 0.4 -0.4 1 1 1
v 0.735 0.18 -0.3999999 1 1 1
v 0.735 0.18 -0.3799999 1 1 1
v 0.865 0.18 -0.3999999 1 1 1
v 0.865 0.18 -0.3799999 1 1 1
v 0.865 0.22 -0.3999999 1 1 1
v 0.865 0.22 -0.3799999 1 1 1
v 0.735 0.22 -0.3799999 1 1 1
v 0.735 0.22 -0.3999999 1 1 1
v 0.695 0.27 -0.3999999 1 1 1
v 0.695 2.255973E-16 -0.3999999 1 1 1
v 0.905 0.27 -0.3999999 1 1 1
v 0.905 2.255973E-16 -0.3999999 1 1 1
v -0.065 0.18 -0.3999999 1 1 1
v -0.065 0.18 -0.3799999 1 1 1
v 0.065 0.18 -0.3999999 1 1 1
v 0.065 0.18 -0.3799999 1 1 1
v 0.065 0.22 -0.3999999 1 1 1
v 0.065 0.22 -0.3799999 1 1 1
v -0.065 0.22 -0.3799999 1 1 1
v -0.065 0.22 -0.3999999 1 1 1
v -0.105 0.27 -0.3999999 1 1 1
v -0.105 1.804779E-16 -0.3999999 1 1 1
v 0.105 0.27 -0.3999999 1 1 1
v 0.105 1.804779E-16 -0.3999999 1 1 1
v -0.4649999 0.18 -0.3999999 1 1 1
v -0.4649999 0.18 -0.3799999 1 1 1
v -0.3349999 0.18 -0.3999999 1 1 1
v -0.3349999 0.18 -0.3799999 1 1 1
v -0.3349999 0.22 -0.3999999 1 1 1
v -0.3349999 0.22 -0.3799999 1 1 1
v -0.4649999 0.22 -0.3799999 1 1 1
v -0.4649999 0.22 -0.3999999 1 1 1
v -0.5049999 0.27 -0.3999999 1 1 1
v -0.5049999 1.804779E-16 -0.3999999 1 1 1
v -0.295 0.27 -0.3999999 1 1 1
v -0.295 1.804779E-16 -0.3999999 1 1 1
v 0.335 0.18 -0.3999999 1 1 1
v 0.335 0.18 -0.3799999 1 1 1
v 0.465 0.18 -0.3999999 1 1 1
v 0.465 0.18 -0.3799999 1 1 1
v 0.465 0.22 -0.3999999 1 1 1
v 0.465 0.22 -0.3799999 1 1 1
v 0.335 0.22 -0.3799999 1 1 1
v 0.335 0.22 -0.3999999 1 1 1
v 0.295 0.27 -0.3999999 1 1 1
v 0.295 1.858045E-16 -0.3999999 1 1 1
v 0.5050001 0.27 -0.3999999 1 1 1
v 0.5050001 1.858045E-16 -0.3999999 1 1 1
v 0.735 0.18 -0.3800001 1 1 1
v 0.735 0.22 -0.3800001 1 1 1
v 0.8649999 0.18 -0.3800001 1 1 1
v 0.8649999 0.22 -0.3800001 1 1 1
v -0.06499998 0.18 -0.3800001 1 1 1
v -0.06499998 0.22 -0.3800001 1 1 1
v 0.06500001 0.18 -0.3800001 1 1 1
v 0.06500001 0.22 -0.3800001 1 1 1
v -0.465 0.18 -0.3800001 1 1 1
v -0.465 0.22 -0.3800001 1 1 1
v -0.3349999 0.18 -0.3800001 1 1 1
v -0.3349999 0.22 -0.3800001 1 1 1
v 0.335 0.18 -0.3800001 1 1 1
v 0.335 0.22 -0.3800001 1 1 1
v 0.465 0.18 -0.3800001 1 1 1
v 0.465 0.22 -0.3800001 1 1 1

vn 0.9238795 0 -0.3826834
vn 0.9238795 0 0.3826834
vn 0.3826834 0 -0.9238795
vn -0.3826834 0 -0.9238795
vn -0.3826834 0 0.9238795
vn 0.3826834 0 0.9238795
vn -0.9238795 0 -0.3826834
vn -0.9238795 0 0.3826834
vn 0 1 0
vn 3.689132E-13 0 1
vn -1 0 3.689132E-13
vn 0 -1 0
vn -8.604228E-16 0 1
vn 0.9238796 0 0.3826836
vn 1 0 1.192093E-07
vn 0.3826834 0 0.9238797
vn -1.192093E-07 0 1
vn 5.331201E-08 0.8944272 -0.4472136
vn -5.331201E-08 -0.8944272 0.4472136
vn 5.331201E-08 0.8944272 0.4472136
vn -5.331201E-08 -0.8944272 -0.4472136
vn -6.664566E-09 0.8944272 0.4472136
vn 6.664566E-09 -0.8944272 -0.4472136
vn 6.664729E-09 0.8944272 -0.4472136
vn -6.664729E-09 -0.8944272 0.4472136
vn 0 0.8944272 -0.4472136
vn 0 -0.8944272 0.4472136
vn -0.8944272 -0.4472136 0
vn -0.6324555 -0.4472136 0.6324555
vn -1 0 0
vn -0.7071068 0 0.7071068
vn 0.8944272 -0.4472136 0
vn 1 0 0
vn 0.6324555 -0.4472136 0.6324555
vn 0.7071068 0 0.7071068
vn 0 0 1
vn -0.7071068 0 -0.7071068
vn -0.6324555 -0.4472136 -0.6324555
vn 0 -0.4472136 0.8944272
vn 0 -0.4472136 -0.8944272
vn 0 0 -1
vn 0.6324555 -0.4472136 -0.6324555
vn 0.7071068 0 -0.7071068
vn -0.8944272 0.4472136 0
vn -0.6324555 0.4472136 0.6324555
vn 0.6324555 0.4472136 -0.6324555
vn 0 0.4472136 -0.8944272
vn -0.6324555 0.4472136 -0.6324555
vn 0 0.4472136 0.8944272
vn 0.6324555 0.4472136 0.6324555
vn 0.8944272 0.4472136 0
vn 1 0 2.028239E-13
vn -1 0 -2.028239E-13
vn 0.9238795 0.3826834 1.873848E-13
vn 2.028239E-13 0 -1
vn -0.3826834 0.9238795 -7.761734E-14
vn 0.3826834 0.9238795 7.761734E-14
vn -0.9238795 0.3826834 -1.873848E-13
vn -0.7071068 -0.7071068 -1.434181E-13
vn 0.7071068 -0.7071068 1.434181E-13
vn -0.7071068 0.7071068 -1.434181E-13
vn 0.7071068 0.7071068 1.434181E-13
vn -2.028239E-13 0 1
vn 1 0 -3.26128E-14
vn -1 0 3.26128E-14
vn 0.9238795 0.3826834 -3.01303E-14
vn -0.9238795 0.3826834 3.01303E-14
vn -0.3826834 0.9238795 1.248038E-14
vn 0.3826834 0.9238795 -1.248038E-14
vn -3.26128E-14 0 -1
vn -0.7071068 0 -0.7071068
vn 0.7071068 0 0.7071068
vn 0.7071068 0 -0.7071068
vn -0.7071068 0 0.7071068
vn -0.3662924 0.9304998 0
vn -0.9179972 0.3965869 0
vn 1 0 1.490242E-08
vn 1 0 1.490279E-08
vn -1 0 -1.490242E-08
vn 1.192093E-07 0 1
vn -1 0 1.192093E-07
vn -1 0 1.490042E-08
vn -1.490042E-08 0 -1
vn 1.06624E-07 -0.4472136 -0.8944273
vn 1.06624E-07 -0.4472136 0.8944273
vn 0.9807853 -0.08724705 0.1744941
vn 0.1950903 -0.4386205 0.8772411
vn 0.7071068 -0.3162278 0.6324555
vn -1.332913E-08 -0.4472136 0.8944272
vn 0.9807853 -0.08724705 -0.1744941
vn 0.1950904 -0.4386205 -0.8772411
vn 0.7071068 -0.3162278 -0.6324555
vn 1.332946E-08 -0.4472136 -0.8944272
vn -0.9807853 -0.08724705 0.1744941
vn -0.1950904 -0.4386205 0.8772411
vn -0.7071068 -0.3162278 0.6324555
vn -0.9807853 -0.08724705 -0.1744941
vn -0.1950903 -0.4386205 -0.8772411
vn -0.7071068 -0.3162278 -0.6324555
vn 0.7071068 0.7071068 -2.306073E-14
vn -0.7071068 0.7071068 2.306073E-14
vn -0.7071068 -0.7071068 2.306073E-14
vn 0.7071068 -0.7071068 -2.306073E-14

vt 0.59375 0.275
vt 0.59375 0.475
vt 0.59375 0.3
vt 0.59375 0.2959712
vt 0.59375 0.448786
vt 0.59375 0.292476
vt 0.59375 0.3010898
vt 0.59375 0.3134472
vt 0.59375 0.2801186
vt 0.59375 0.435
vt 0.59375 0.455
vt 0.59375 0.395
vt 0.59375 0.41
vt 0.59375 0.415
vt 0.59375 0.425
vt 0.59375 0.325
vt 0.59375 0.3972222
vt 0.96875 0.3
vt 0.96875 0.475
vt 0.96875 0.292476
vt 0.96875 0.448786
vt 0.96875 0.355
vt 0.96875 0.275
vt 0.96875 0.415
vt 0.96875 0.425
vt 0.71875 0.2959712
vt 0.71875 0.275
vt 0.71875 0.3134472
vt 0.71875 0.475
vt 0.71875 0.292476
vt 0.71875 0.448786
vt 0.71875 0.2801186
vt 0.71875 0.3010898
vt 0.71875 0.41
vt 0.71875 0.5916666
vt 0.71875 0.5620371
vt 0.71875 0.525
vt 0.71875 0.725
vt 0.59375 0.115
vt 0.59375 0.135

usemtl colormap

f 4/2/9 2/2/9 12/2/9
f 2/2/9 7/2/9 12/2/9
f 12/2/9 7/2/9 11/2/9
f 7/2/9 8/2/9 11/2/9
f 11/2/9 8/2/9 15/2/9
f 13/2/9 15/2/9 8/2/9
f 14/1/7 13/2/7 6/1/4
f 8/2/4 6/1/4 13/2/7
f 9/1/5 11/2/5 16/1/8
f 15/2/8 16/1/8 11/2/5
f 12/2/6 10/1/6 4/2/2
f 3/1/2 4/2/2 10/1/6
f 2/2/1 1/1/1 7/2/3
f 5/1/3 7/2/3 1/1/1
f 16/1/8 15/2/8 14/1/7
f 13/2/7 14/1/7 15/2/8
f 12/2/6 11/2/5 10/1/6
f 9/1/5 10/1/6 11/2/5
f 8/2/4 7/2/3 6/1/4
f 5/1/3 6/1/4 7/2/3
f 4/2/2 3/1/2 2/2/1
f 1/1/1 2/2/1 3/1/2
f 24/3/9 22/3/9 28/3/9
f 28/3/9 22/3/9 27/3/9
f 22/3/9 19/3/9 27/3/9
f 27/3/9 19/3/9 26/3/9
f 20/3/9 26/3/9 19/3/9
f 21/1/12 23/1/12 17/1/12
f 17/1/12 23/1/12 18/1/12
f 25/1/12 18/1/12 23/1/12
f 19/3/5 22/3/8 17/1/5
f 21/1/8 17/1/5 22/3/8
f 24/3/11 23/1/11 22/3/8
f 21/1/8 22/3/8 23/1/11
f 20/3/10 19/3/5 18/1/10
f 17/1/5 18/1/10 19/3/5
f 31/1/12 30/1/12 29/1/12
f 30/1/12 31/1/12 32/1/12
f 33/3/13 29/1/13 30/1/13
f 29/1/13 33/3/13 34/3/13
f 33/3/9 35/3/9 34/3/9
f 35/3/9 33/3/9 36/3/9
f 44/3/9 42/3/9 48/3/9
f 48/3/9 42/3/9 47/3/9
f 42/3/9 39/3/9 47/3/9
f 47/3/9 39/3/9 46/3/9
f 40/3/9 46/3/9 39/3/9
f 41/1/12 43/1/12 37/1/12
f 37/1/12 43/1/12 38/1/12
f 45/1/12 38/1/12 43/1/12
f 39/3/14 42/3/16 37/1/14
f 41/1/16 37/1/14 42/3/16
f 44/3/17 43/1/17 42/3/16
f 41/1/16 42/3/16 43/1/17
f 40/3/15 39/3/14 38/1/15
f 37/1/14 38/1/15 39/3/14
f 51/4/18 50/2/18 49/2/18
f 50/2/18 51/4/18 52/4/18
f 55/5/19 54/6/19 53/5/19
f 54/6/19 55/5/19 56/6/19
f 54/6/19 56/6/19 57/1/19
f 54/6/19 57/1/19 58/1/19
f 61/4/20 60/2/20 59/2/20
f 60/2/20 61/4/20 62/4/20
f 65/5/21 64/6/21 63/5/21
f 64/6/21 65/5/21 66/6/21
f 64/6/21 66/6/21 67/1/21
f 64/6/21 67/1/21 68/1/21
f 71/4/22 70/2/22 69/2/22
f 70/2/22 71/4/22 72/4/22
f 70/2/22 72/4/22 73/7/22
f 70/2/22 73/7/22 74/8/22
f 77/5/23 76/1/23 75/6/23
f 76/1/23 77/5/23 78/5/23
f 76/1/23 78/5/23 79/1/23
f 79/1/23 78/5/23 80/5/23
f 79/1/23 80/5/23 81/9/23
f 81/9/23 80/5/23 82/6/23
f 85/5/19 84/6/19 83/5/19
f 84/6/19 85/5/19 86/6/19
f 84/6/19 86/6/19 87/1/19
f 87/1/19 86/6/19 88/1/19
f 91/4/18 90/2/18 89/2/18
f 90/2/18 91/4/18 92/4/18
f 95/4/20 94/2/20 93/2/20
f 94/2/20 95/4/20 96/4/20
f 99/5/21 98/6/21 97/5/21
f 98/6/21 99/5/21 75/6/21
f 98/6/21 75/6/21 100/1/21
f 98/6/21 100/1/21 101/1/21
f 104/4/18 103/2/18 102/2/18
f 103/2/18 104/4/18 105/4/18
f 108/5/19 107/6/19 106/5/19
f 107/6/19 108/5/19 109/6/19
f 107/6/19 109/6/19 110/1/19
f 107/6/19 110/1/19 111/1/19
f 124/6/25 122/5/25 123/9/25
f 123/9/25 122/5/25 121/1/25
f 122/5/25 120/5/25 121/1/25
f 121/1/25 120/5/25 118/1/25
f 120/5/25 119/5/25 118/1/25
f 107/6/25 118/1/25 119/5/25
f 117/8/24 116/7/24 113/2/24
f 116/7/24 115/4/24 113/2/24
f 115/4/24 114/4/24 113/2/24
f 112/2/24 113/2/24 114/4/24
f 138/6/23 136/5/23 137/9/23
f 137/9/23 136/5/23 135/1/23
f 136/5/23 134/5/23 135/1/23
f 135/1/23 134/5/23 132/1/23
f 134/5/23 133/5/23 132/1/23
f 131/6/23 132/1/23 133/5/23
f 130/8/22 129/7/22 126/2/22
f 129/7/22 128/4/22 126/2/22
f 128/4/22 127/4/22 126/2/22
f 125/2/22 126/2/22 127/4/22
f 141/4/26 140/2/26 139/2/26
f 140/2/26 141/4/26 142/4/26
f 140/2/26 142/4/26 143/7/26
f 140/2/26 143/7/26 144/8/26
f 147/5/27 146/1/27 145/6/27
f 146/1/27 147/5/27 148/5/27
f 146/1/27 148/5/27 149/1/27
f 149/1/27 148/5/27 150/5/27
f 149/1/27 150/5/27 151/9/27
f 151/9/27 150/5/27 152/6/27
f 155/4/20 154/2/20 153/2/20
f 154/2/20 155/4/20 156/4/20
f 159/5/21 158/6/21 157/5/21
f 158/6/21 159/5/21 160/6/21
f 158/6/21 160/6/21 161/1/21
f 158/6/21 161/1/21 162/1/21
f 165/1/12 164/1/12 163/1/12
f 164/1/12 165/1/12 166/1/12
f 167/3/13 163/1/13 164/1/13
f 163/1/13 167/3/13 168/3/13
f 167/3/9 169/3/9 168/3/9
f 169/3/9 167/3/9 170/3/9
f 166/1/12 171/1/12 164/1/12
f 171/1/12 166/1/12 172/1/12
f 34/3/13 164/1/13 171/1/13
f 164/1/13 34/3/13 167/3/13
f 34/3/9 170/3/9 167/3/9
f 170/3/9 34/3/9 35/3/9
f 179/10/35 193/12/35 177/10/33
f 196/12/33 177/10/33 193/12/35
f 200/2/49 192/2/45 186/11/36
f 176/11/31 186/11/36 192/2/45
f 181/12/31 174/10/31 204/12/30
f 173/10/30 204/12/30 174/10/31
f 180/11/35 178/11/33 201/2/50
f 202/2/51 201/2/50 178/11/33
f 185/10/37 187/10/41 203/12/37
f 195/12/41 203/12/37 187/10/41
f 204/12/30 173/10/30 203/12/37
f 185/10/37 203/12/37 173/10/30
f 202/2/9 197/2/9 201/2/9
f 201/2/9 197/2/9 200/2/9
f 197/2/9 198/2/9 200/2/9
f 200/2/9 198/2/9 192/2/9
f 198/2/9 199/2/9 192/2/9
f 191/2/9 192/2/9 199/2/9
f 202/2/51 178/11/33 197/2/46
f 190/11/43 197/2/46 178/11/33
f 201/2/50 200/2/49 180/11/35
f 186/11/36 180/11/35 200/2/49
f 177/10/32 189/10/42 178/11/33
f 190/11/43 178/11/33 189/10/42
f 199/2/48 198/2/47 184/11/37
f 188/11/41 184/11/37 198/2/47
f 191/2/44 199/2/48 175/11/30
f 184/11/37 175/11/30 199/2/48
f 198/2/47 197/2/46 188/11/41
f 190/11/43 188/11/41 197/2/46
f 186/11/36 176/11/31 183/10/39
f 174/10/29 183/10/39 176/11/31
f 177/10/33 196/12/33 189/10/43
f 194/12/43 189/10/43 196/12/33
f 187/10/41 189/10/43 195/12/41
f 194/12/43 195/12/41 189/10/43
f 179/10/35 183/10/36 193/12/35
f 182/12/36 193/12/35 183/10/36
f 176/11/31 192/2/45 175/11/30
f 191/2/44 175/11/30 192/2/45
f 188/11/41 190/11/43 187/10/40
f 189/10/42 187/10/40 190/11/43
f 184/11/37 188/11/41 185/10/38
f 187/10/40 185/10/38 188/11/41
f 180/11/35 186/11/36 179/10/34
f 183/10/39 179/10/34 186/11/36
f 173/10/28 175/11/30 185/10/38
f 184/11/37 185/10/38 175/11/30
f 183/10/36 174/10/31 182/12/36
f 181/12/31 182/12/36 174/10/31
f 180/11/35 179/10/34 178/11/33
f 177/10/32 178/11/33 179/10/34
f 176/11/31 175/11/30 174/10/29
f 173/10/28 174/10/29 175/11/30
f 211/10/35 225/12/35 209/10/33
f 228/12/33 209/10/33 225/12/35
f 232/2/49 224/2/45 218/11/36
f 208/11/31 218/11/36 224/2/45
f 213/12/31 206/10/31 236/12/30
f 205/10/30 236/12/30 206/10/31
f 212/11/35 210/11/33 233/2/50
f 234/2/51 233/2/50 210/11/33
f 217/10/37 219/10/41 235/12/37
f 227/12/41 235/12/37 219/10/41
f 236/12/30 205/10/30 235/12/37
f 217/10/37 235/12/37 205/10/30
f 234/2/9 229/2/9 233/2/9
f 233/2/9 229/2/9 232/2/9
f 229/2/9 230/2/9 232/2/9
f 232/2/9 230/2/9 224/2/9
f 230/2/9 231/2/9 224/2/9
f 223/2/9 224/2/9 231/2/9
f 234/2/51 210/11/33 229/2/46
f 222/11/43 229/2/46 210/11/33
f 233/2/50 232/2/49 212/11/35
f 218/11/36 212/11/35 232/2/49
f 209/10/32 221/10/42 210/11/33
f 222/11/43 210/11/33 221/10/42
f 231/2/48 230/2/47 216/11/37
f 220/11/41 216/11/37 230/2/47
f 223/2/44 231/2/48 207/11/30
f 216/11/37 207/11/30 231/2/48
f 230/2/47 229/2/46 220/11/41
f 222/11/43 220/11/41 229/2/46
f 218/11/36 208/11/31 215/10/39
f 206/10/29 215/10/39 208/11/31
f 209/10/33 228/12/33 221/10/43
f 226/12/43 221/10/43 228/12/33
f 219/10/41 221/10/43 227/12/41
f 226/12/43 227/12/41 221/10/43
f 211/10/35 215/10/36 225/12/35
f 214/12/36 225/12/35 215/10/36
f 208/11/31 224/2/45 207/11/30
f 223/2/44 207/11/30 224/2/45
f 220/11/41 222/11/43 219/10/40
f 221/10/42 219/10/40 222/11/43
f 216/11/37 220/11/41 217/10/38
f 219/10/40 217/10/38 220/11/41
f 212/11/35 218/11/36 211/10/34
f 215/10/39 211/10/34 218/11/36
f 205/10/28 207/11/30 217/10/38
f 216/11/37 217/10/38 207/11/30
f 215/10/36 206/10/31 214/12/36
f 213/12/31 214/12/36 206/10/31
f 212/11/35 211/10/34 210/11/33
f 209/10/32 210/11/33 211/10/34
f 208/11/31 207/11/30 206/10/29
f 205/10/28 206/10/29 207/11/30
f 243/10/35 257/12/35 241/10/33
f 260/12/33 241/10/33 257/12/35
f 264/2/49 256/2/45 250/11/36
f 240/11/31 250/11/36 256/2/45
f 245/12/31 238/10/31 268/12/30
f 237/10/30 268/12/30 238/10/31
f 244/11/35 242/11/33 265/2/50
f 266/2/51 265/2/50 242/11/33
f 249/10/37 251/10/41 267/12/37
f 259/12/41 267/12/37 251/10/41
f 268/12/30 237/10/30 267/12/37
f 249/10/37 267/12/37 237/10/30
f 266/2/9 261/2/9 265/2/9
f 265/2/9 261/2/9 264/2/9
f 261/2/9 262/2/9 264/2/9
f 264/2/9 262/2/9 256/2/9
f 262/2/9 263/2/9 256/2/9
f 255/2/9 256/2/9 263/2/9
f 266/2/51 242/11/33 261/2/46
f 254/11/43 261/2/46 242/11/33
f 265/2/50 264/2/49 244/11/35
f 250/11/36 244/11/35 264/2/49
f 241/10/32 253/10/42 242/11/33
f 254/11/43 242/11/33 253/10/42
f 263/2/48 262/2/47 248/11/37
f 252/11/41 248/11/37 262/2/47
f 255/2/44 263/2/48 239/11/30
f 248/11/37 239/11/30 263/2/48
f 262/2/47 261/2/46 252/11/41
f 254/11/43 252/11/41 261/2/46
f 250/11/36 240/11/31 247/10/39
f 238/10/29 247/10/39 240/11/31
f 241/10/33 260/12/33 253/10/43
f 258/12/43 253/10/43 260/12/33
f 251/10/41 253/10/43 259/12/41
f 258/12/43 259/12/41 253/10/43
f 243/10/35 247/10/36 257/12/35
f 246/12/36 257/12/35 247/10/36
f 240/11/31 256/2/45 239/11/30
f 255/2/44 239/11/30 256/2/45
f 252/11/41 254/11/43 251/10/40
f 253/10/42 251/10/40 254/11/43
f 248/11/37 252/11/41 249/10/38
f 251/10/40 249/10/38 252/11/41
f 244/11/35 250/11/36 243/10/34
f 247/10/39 243/10/34 250/11/36
f 237/10/28 239/11/30 249/10/38
f 248/11/37 249/10/38 239/11/30
f 247/10/36 238/10/31 246/12/36
f 245/12/31 246/12/36 238/10/31
f 244/11/35 243/10/34 242/11/33
f 241/10/32 242/11/33 243/10/34
f 240/11/31 239/11/30 238/10/29
f 237/10/28 238/10/29 239/11/30
f 309/16/53 310/15/53 312/16/37
f 314/15/37 312/16/37 310/15/53
f 311/16/12 307/16/12 312/16/12
f 309/16/12 312/16/12 307/16/12
f 308/15/9 313/15/9 310/15/9
f 314/15/9 310/15/9 313/15/9
f 308/15/52 307/16/52 313/15/43
f 311/16/43 313/15/43 307/16/52
f 314/15/37 313/15/43 312/16/37
f 311/16/43 312/16/37 313/15/43
f 310/15/63 309/16/63 308/15/63
f 307/16/63 308/15/63 309/16/63
f 303/2/55 305/2/55 300/1/55
f 302/1/55 300/1/55 305/2/55
f 306/2/62 305/2/62 304/2/61
f 303/2/61 304/2/61 305/2/62
f 306/2/62 301/1/60 305/2/62
f 302/1/60 305/2/62 301/1/60
f 299/1/59 304/2/61 300/1/59
f 303/2/61 300/1/59 304/2/61
f 302/1/60 301/1/60 300/1/59
f 299/1/59 300/1/59 301/1/60
f 286/1/12 298/1/12 274/1/12
f 274/1/12 298/1/12 276/1/12
f 276/1/12 298/1/12 271/1/12
f 271/1/12 292/1/12 269/1/12
f 271/1/12 298/1/12 292/1/12
f 292/1/12 298/1/12 278/1/12
f 279/1/12 278/1/12 298/1/12
f 285/14/54 284/14/54 296/15/57
f 288/15/57 296/15/57 284/14/54
f 297/14/58 295/15/56 287/14/58
f 289/15/56 287/14/58 295/15/56
f 294/3/53 297/14/58 290/3/53
f 287/14/58 290/3/53 297/14/58
f 296/15/57 288/15/57 295/15/56
f 289/15/56 295/15/56 288/15/57
f 294/3/9 290/3/9 293/3/9
f 290/3/9 291/3/9 293/3/9
f 293/3/9 291/3/9 28/3/9
f 291/3/9 277/3/9 28/3/9
f 24/3/9 28/3/9 277/3/9
f 278/1/7 277/3/7 292/1/4
f 291/3/4 292/1/4 277/3/7
f 292/1/4 291/3/4 269/1/55
f 290/3/55 269/1/55 291/3/4
f 269/1/55 290/3/55 270/13/55
f 287/14/55 270/13/55 290/3/55
f 289/15/55 288/15/55 287/14/55
f 288/15/55 284/14/55 287/14/55
f 284/14/55 270/13/55 287/14/55
f 270/13/55 284/14/55 273/13/55
f 284/14/55 280/3/55 273/13/55
f 273/13/55 280/3/55 274/1/55
f 280/3/55 282/3/55 274/1/55
f 286/1/55 274/1/55 282/3/55
f 285/14/54 281/3/52 284/14/54
f 280/3/52 284/14/54 281/3/52
f 283/3/9 282/3/9 281/3/9
f 280/3/9 281/3/9 282/3/9
f 279/1/53 24/3/53 278/1/7
f 277/3/7 278/1/7 24/3/53
f 273/13/12 275/13/12 270/13/12
f 272/13/12 270/13/12 275/13/12
f 276/1/53 275/13/53 274/1/53
f 273/13/53 274/1/53 275/13/53
f 272/13/52 271/1/52 270/13/52
f 269/1/52 270/13/52 271/1/52
f 354/16/65 353/15/65 348/16/37
f 350/15/37 348/16/37 353/15/65
f 347/16/12 351/16/12 348/16/12
f 354/16/12 348/16/12 351/16/12
f 349/15/9 350/15/9 352/15/9
f 353/15/9 352/15/9 350/15/9
f 352/15/64 351/16/64 349/15/43
f 347/16/43 349/15/43 351/16/64
f 350/15/37 349/15/43 348/16/37
f 347/16/43 348/16/37 349/15/43
f 324/1/70 337/3/70 315/1/70
f 339/3/70 315/1/70 337/3/70
f 315/1/70 339/3/70 316/13/70
f 341/14/70 316/13/70 339/3/70
f 343/15/70 345/15/70 341/14/70
f 345/15/70 335/14/70 341/14/70
f 335/14/70 316/13/70 341/14/70
f 316/13/70 335/14/70 319/13/70
f 335/14/70 328/3/70 319/13/70
f 319/13/70 328/3/70 320/1/70
f 328/3/70 330/3/3 320/1/70
f 326/1/3 320/1/70 330/3/3
f 346/15/69 336/14/66 345/15/69
f 335/14/66 345/15/69 336/14/66
f 344/15/68 343/15/68 342/14/67
f 341/14/67 342/14/67 343/15/68
f 346/15/69 345/15/69 344/15/68
f 343/15/68 344/15/68 345/15/69
f 340/3/65 342/14/67 339/3/65
f 341/14/67 339/3/65 342/14/67
f 334/3/1 327/1/1 330/3/3
f 326/1/3 330/3/3 327/1/1
f 333/3/64 325/1/64 334/3/1
f 327/1/1 334/3/1 325/1/64
f 340/3/9 339/3/9 338/3/9
f 337/3/9 338/3/9 339/3/9
f 336/14/66 329/3/64 335/14/66
f 328/3/64 335/14/66 329/3/64
f 334/3/9 330/3/9 333/3/9
f 333/3/9 330/3/9 332/3/9
f 332/3/9 330/3/9 331/3/9
f 331/3/9 330/3/9 329/3/9
f 328/3/9 329/3/9 330/3/9
f 327/1/12 325/1/12 326/1/12
f 326/1/12 325/1/12 320/1/12
f 320/1/12 325/1/12 322/1/12
f 322/1/12 325/1/12 317/1/12
f 317/1/12 324/1/12 315/1/12
f 317/1/12 325/1/12 324/1/12
f 323/1/12 324/1/12 325/1/12
f 319/13/12 321/13/12 316/13/12
f 318/13/12 316/13/12 321/13/12
f 322/1/65 321/13/65 320/1/65
f 319/13/65 320/1/65 321/13/65
f 318/13/64 317/1/64 316/13/64
f 315/1/64 316/13/64 317/1/64
f 390/16/65 389/15/65 384/16/37
f 386/15/37 384/16/37 389/15/65
f 383/16/12 387/16/12 384/16/12
f 390/16/12 384/16/12 387/16/12
f 385/15/9 386/15/9 388/15/9
f 389/15/9 388/15/9 386/15/9
f 388/15/64 387/16/64 385/15/43
f 383/16/43 385/15/43 387/16/64
f 386/15/37 385/15/43 384/16/37
f 383/16/43 384/16/37 385/15/43
f 364/1/70 373/3/70 355/1/70
f 375/3/70 355/1/70 373/3/70
f 355/1/70 375/3/70 356/13/70
f 377/14/70 356/13/70 375/3/70
f 379/15/70 381/15/70 377/14/70
f 381/15/70 371/14/70 377/14/70
f 371/14/70 356/13/70 377/14/70
f 356/13/70 371/14/70 359/13/70
f 371/14/70 367/3/70 359/13/70
f 359/13/70 367/3/70 360/1/70
f 367/3/70 369/3/70 360/1/70
f 366/1/70 360/1/70 369/3/70
f 382/15/69 372/14/66 381/15/69
f 371/14/66 381/15/69 372/14/66
f 380/15/68 379/15/68 378/14/67
f 377/14/67 378/14/67 379/15/68
f 382/15/69 381/15/69 380/15/68
f 379/15/68 380/15/68 381/15/69
f 376/3/65 378/14/67 375/3/65
f 377/14/67 375/3/65 378/14/67
f 376/3/9 375/3/9 374/3/9
f 373/3/9 374/3/9 375/3/9
f 372/14/66 368/3/64 371/14/66
f 367/3/64 371/14/66 368/3/64
f 370/3/9 369/3/9 368/3/9
f 367/3/9 368/3/9 369/3/9
f 366/1/12 365/1/12 360/1/12
f 360/1/12 365/1/12 362/1/12
f 362/1/12 365/1/12 357/1/12
f 357/1/12 364/1/12 355/1/12
f 357/1/12 365/1/12 364/1/12
f 363/1/12 364/1/12 365/1/12
f 359/13/12 361/13/12 356/13/12
f 358/13/12 356/13/12 361/13/12
f 362/1/65 361/13/65 360/1/65
f 359/13/65 360/1/65 361/13/65
f 358/13/64 357/1/64 356/13/64
f 355/1/64 356/13/64 357/1/64
f 426/16/65 425/15/65 420/16/37
f 422/15/37 420/16/37 425/15/65
f 419/16/12 423/16/12 420/16/12
f 426/16/12 420/16/12 423/16/12
f 421/15/9 422/15/9 424/15/9
f 425/15/9 424/15/9 422/15/9
f 424/15/64 423/16/64 421/15/43
f 419/16/43 421/15/43 423/16/64
f 422/15/37 421/15/43 420/16/37
f 419/16/43 420/16/37 421/15/43
f 400/1/70 409/3/70 391/1/70
f 411/3/70 391/1/70 409/3/70
f 391/1/70 411/3/70 392/13/70
f 413/14/70 392/13/70 411/3/70
f 415/15/70 417/15/70 413/14/70
f 417/15/70 407/14/70 413/14/70
f 407/14/70 392/13/70 413/14/70
f 392/13/70 407/14/70 395/13/70
f 407/14/70 403/3/70 395/13/70
f 395/13/70 403/3/70 396/1/70
f 403/3/70 405/3/70 396/1/70
f 402/1/70 396/1/70 405/3/70
f 418/15/69 408/14/66 417/15/69
f 407/14/66 417/15/69 408/14/66
f 416/15/68 415/15/68 414/14/67
f 413/14/67 414/14/67 415/15/68
f 418/15/69 417/15/69 416/15/68
f 415/15/68 416/15/68 417/15/69
f 412/3/65 414/14/67 411/3/65
f 413/14/67 411/3/65 414/14/67
f 412/3/9 411/3/9 410/3/9
f 409/3/9 410/3/9 411/3/9
f 408/14/66 404/3/64 407/14/66
f 403/3/64 407/14/66 404/3/64
f 406/3/9 405/3/9 404/3/9
f 403/3/9 404/3/9 405/3/9
f 402/1/12 401/1/12 396/1/12
f 396/1/12 401/1/12 398/1/12
f 398/1/12 401/1/12 393/1/12
f 393/1/12 400/1/12 391/1/12
f 393/1/12 401/1/12 400/1/12
f 399/1/12 400/1/12 401/1/12
f 395/13/12 397/13/12 392/13/12
f 394/13/12 392/13/12 397/13/12
f 398/1/65 397/13/65 396/1/65
f 395/13/65 396/1/65 397/13/65
f 394/13/64 393/1/64 392/13/64
f 391/1/64 392/13/64 393/1/64
f 429/16/71 428/15/41 427/15/71
f 428/15/41 429/16/71 430/16/41
f 433/16/72 432/15/33 431/16/33
f 432/15/33 433/16/72 434/15/72
f 430/16/41 435/15/73 428/15/41
f 435/15/73 430/16/41 436/16/73
f 431/16/33 435/15/73 436/16/73
f 435/15/73 431/16/33 432/15/33
f 433/16/72 437/15/36 434/15/72
f 437/15/36 433/16/72 438/16/36
f 438/16/36 439/15/74 437/15/36
f 439/15/74 438/16/36 440/16/74
f 439/15/74 442/16/30 441/15/30
f 442/16/30 439/15/74 440/16/74
f 441/15/30 429/16/71 427/15/71
f 429/16/71 441/15/30 442/16/30
f 434/15/12 435/15/12 432/15/12
f 435/15/12 434/15/12 437/15/12
f 435/15/12 437/15/12 428/15/12
f 428/15/12 437/15/12 439/15/12
f 428/15/12 439/15/12 427/15/12
f 427/15/12 439/15/12 441/15/12
f 445/16/12 444/16/12 443/16/12
f 444/16/12 445/16/12 446/16/12
f 449/15/75 448/15/9 447/15/9
f 448/15/9 449/15/75 450/15/75
f 448/15/36 445/16/36 443/16/36
f 445/16/36 448/15/36 451/17/36
f 451/17/36 448/15/36 450/15/36
f 448/15/33 444/16/33 447/15/33
f 444/16/33 448/15/33 443/16/33
f 452/17/41 444/16/41 446/16/41
f 444/16/41 452/17/41 447/15/41
f 447/15/41 452/17/41 449/15/41
f 445/16/30 452/17/76 446/16/30
f 452/17/76 445/16/30 451/17/76
f 451/17/76 449/15/75 452/17/76
f 449/15/75 451/17/76 450/15/75
f 455/16/30 454/15/37 453/16/37
f 454/15/37 455/16/30 456/15/30
f 454/15/37 457/16/41 453/16/37
f 457/16/41 454/15/37 458/15/41
f 461/15/35 460/16/33 459/15/33
f 460/16/33 461/15/35 462/16/35
f 459/15/33 464/16/43 463/15/43
f 464/16/43 459/15/33 460/16/33
f 465/16/31 456/15/30 455/16/30
f 456/15/30 465/16/31 466/15/31
f 468/15/36 465/16/31 467/16/36
f 465/16/31 468/15/36 466/15/31
f 458/15/41 464/16/43 457/16/41
f 464/16/43 458/15/41 463/15/43
f 461/15/35 467/16/36 462/16/35
f 467/16/36 461/15/35 468/15/36
f 463/15/9 461/15/9 459/15/9
f 461/15/9 463/15/9 458/15/9
f 461/15/9 458/15/9 468/15/9
f 468/15/9 458/15/9 454/15/9
f 468/15/9 454/15/9 466/15/9
f 466/15/9 454/15/9 456/15/9
f 462/16/12 464/16/12 460/16/12
f 464/16/12 462/16/12 467/16/12
f 464/16/12 467/16/12 457/16/12
f 457/16/12 467/16/12 465/16/12
f 457/16/12 465/16/12 453/16/12
f 453/16/12 465/16/12 455/16/12
f 471/16/30 470/15/37 469/16/37
f 470/15/37 471/16/30 472/15/30
f 470/15/37 473/16/41 469/16/37
f 473/16/41 470/15/37 474/15/41
f 477/15/35 476/16/33 475/15/33
f 476/16/33 477/15/35 478/16/35
f 475/15/33 480/16/43 479/15/43
f 480/16/43 475/15/33 476/16/33
f 481/16/31 472/15/30 471/16/30
f 472/15/30 481/16/31 482/15/31
f 484/15/36 481/16/31 483/16/36
f 481/16/31 484/15/36 482/15/31
f 474/15/41 480/16/43 473/16/41
f 480/16/43 474/15/41 479/15/43
f 477/15/35 483/16/36 478/16/35
f 483/16/36 477/15/35 484/15/36
f 479/15/9 477/15/9 475/15/9
f 477/15/9 479/15/9 474/15/9
f 477/15/9 474/15/9 484/15/9
f 484/15/9 474/15/9 470/15/9
f 484/15/9 470/15/9 482/15/9
f 482/15/9 470/15/9 472/15/9
f 478/16/12 480/16/12 476/16/12
f 480/16/12 478/16/12 483/16/12
f 480/16/12 483/16/12 473/16/12
f 473/16/12 483/16/12 481/16/12
f 473/16/12 481/16/12 469/16/12
f 469/16/12 481/16/12 471/16/12
f 520/16/65 519/15/65 514/16/37
f 516/15/37 514/16/37 519/15/65
f 513/16/12 517/16/12 514/16/12
f 520/16/12 514/16/12 517/16/12
f 515/15/9 516/15/9 518/15/9
f 519/15/9 518/15/9 516/15/9
f 518/15/64 517/16/64 515/15/43
f 513/16/43 515/15/43 517/16/64
f 516/15/37 515/15/43 514/16/37
f 513/16/43 514/16/37 515/15/43
f 494/1/70 503/3/70 485/1/70
f 505/3/70 485/1/70 503/3/70
f 485/1/70 505/3/70 486/13/70
f 507/14/70 486/13/70 505/3/70
f 509/15/70 511/15/70 507/14/70
f 511/15/70 501/14/70 507/14/70
f 501/14/70 486/13/70 507/14/70
f 486/13/70 501/14/70 489/13/70
f 501/14/70 497/3/70 489/13/70
f 489/13/70 497/3/70 490/1/70
f 497/3/70 499/3/70 490/1/70
f 496/1/70 490/1/70 499/3/70
f 512/15/69 502/14/66 511/15/69
f 501/14/66 511/15/69 502/14/66
f 510/15/68 509/15/68 508/14/67
f 507/14/67 508/14/67 509/15/68
f 512/15/69 511/15/69 510/15/68
f 509/15/68 510/15/68 511/15/69
f 506/3/65 508/14/67 505/3/65
f 507/14/67 505/3/65 508/14/67
f 506/3/9 505/3/9 504/3/9
f 503/3/9 504/3/9 505/3/9
f 502/14/66 498/3/64 501/14/66
f 497/3/64 501/14/66 498/3/64
f 500/3/9 499/3/9 498/3/9
f 497/3/9 498/3/9 499/3/9
f 496/1/12 495/1/12 490/1/12
f 490/1/12 495/1/12 492/1/12
f 492/1/12 495/1/12 487/1/12
f 487/1/12 494/1/12 485/1/12
f 487/1/12 495/1/12 494/1/12
f 493/1/12 494/1/12 495/1/12
f 489/13/12 491/13/12 486/13/12
f 488/13/12 486/13/12 491/13/12
f 492/1/65 491/13/65 490/1/65
f 489/13/65 490/1/65 491/13/65
f 488/13/64 487/1/64 486/13/64
f 485/1/64 486/13/64 487/1/64
f 523/19/11 28/18/11 521/19/11
f 27/18/11 521/19/11 28/18/11
f 522/19/10 521/19/10 26/18/10
f 27/18/10 26/18/10 521/19/10
f 524/19/13 35/18/13 36/18/13
f 35/18/13 524/19/13 525/19/13
f 528/19/17 48/18/17 526/19/17
f 47/18/17 526/19/17 48/18/17
f 527/19/15 526/19/15 46/18/15
f 47/18/15 46/18/15 526/19/15
f 78/21/77 530/20/77 529/20/77
f 531/20/78 532/20/78 120/21/78
f 533/20/79 534/20/79 134/21/79
f 148/21/30 536/20/30 535/20/30
f 537/19/13 169/18/13 170/18/13
f 169/18/13 537/19/13 538/19/13
f 525/19/13 170/18/13 35/18/13
f 170/18/13 525/19/13 537/19/13
f 541/23/41 540/22/41 539/22/41
f 540/22/41 541/23/41 542/23/41
f 543/23/81 547/23/81 544/22/81
f 546/22/81 544/22/81 547/23/81
f 538/22/80 545/23/80 544/22/80
f 543/23/80 544/22/80 545/23/80
f 549/23/41 539/22/41 548/22/41
f 539/22/41 549/23/41 541/23/41
f 552/23/13 551/22/13 550/22/13
f 551/22/13 552/23/13 553/23/13
f 556/23/33 555/22/33 554/23/33
f 555/22/33 556/23/33 557/22/33
f 559/23/41 555/22/41 558/22/41
f 555/22/41 559/23/41 554/23/41
f 561/23/41 548/22/41 560/22/41
f 548/22/41 561/23/41 549/23/41
f 563/23/13 550/22/13 562/22/13
f 550/22/13 563/23/13 552/23/13
f 565/23/13 562/22/13 564/22/13
f 562/22/13 565/23/13 563/23/13
f 568/23/17 567/22/17 566/23/17
f 567/22/17 568/23/17 569/22/17
f 571/23/15 567/22/15 570/22/15
f 567/22/15 571/23/15 566/23/15
f 572/23/83 577/23/83 573/22/83
f 576/22/83 573/22/83 577/23/83
f 575/22/82 574/23/82 573/22/82
f 572/23/82 573/22/82 574/23/82
f 294/18/55 293/18/55 297/24/55
f 578/19/55 297/24/55 293/18/55
f 295/25/55 297/24/55 578/19/55
f 579/19/55 295/25/55 578/19/55
f 295/25/55 579/19/55 296/25/55
f 296/25/55 579/19/55 285/24/55
f 285/24/55 579/19/55 281/18/55
f 283/18/55 281/18/55 579/19/55
f 28/18/53 523/19/53 293/18/53
f 578/19/53 293/18/53 523/19/53
f 340/18/70 338/18/70 342/24/70
f 582/19/70 342/24/70 338/18/70
f 344/25/70 342/24/70 582/19/70
f 580/19/70 344/25/70 582/19/70
f 344/25/70 580/19/70 346/25/70
f 346/25/70 580/19/70 336/24/70
f 336/24/70 580/19/70 329/18/70
f 331/18/70 329/18/70 580/19/70
f 581/19/64 332/18/64 580/19/64
f 331/18/64 580/19/64 332/18/64
f 376/18/70 374/18/70 378/24/70
f 584/19/70 378/24/70 374/18/70
f 380/25/70 378/24/70 584/19/70
f 583/19/70 380/25/70 584/19/70
f 380/25/70 583/19/70 382/25/70
f 382/25/70 583/19/70 372/24/70
f 372/24/70 583/19/70 368/18/70
f 370/18/70 368/18/70 583/19/70
f 412/18/70 410/18/70 414/24/70
f 586/19/70 414/24/70 410/18/70
f 416/25/70 414/24/70 586/19/70
f 585/19/70 416/25/70 586/19/70
f 416/25/70 585/19/70 418/25/70
f 418/25/70 585/19/70 408/24/70
f 408/24/70 585/19/70 404/18/70
f 406/18/70 404/18/70 585/19/70
f 506/18/70 504/18/70 508/24/70
f 588/19/70 508/24/70 504/18/70
f 510/25/70 508/24/70 588/19/70
f 587/19/70 510/25/70 588/19/70
f 510/25/70 587/19/70 512/25/70
f 512/25/70 587/19/70 502/24/70
f 502/24/70 587/19/70 498/18/70
f 500/18/70 498/18/70 587/19/70
f 58/27/84 52/26/84 51/26/84
f 52/26/84 58/27/84 57/27/84
f 68/27/85 62/26/85 61/26/85
f 62/26/85 68/27/85 67/27/85
f 82/30/86 70/29/77 74/28/86
f 70/29/77 82/30/86 80/31/77
f 81/32/88 72/26/87 79/27/87
f 72/26/87 81/32/88 73/33/88
f 81/32/88 74/28/86 73/33/88
f 74/28/86 81/32/88 82/30/86
f 79/27/87 71/26/89 76/27/89
f 71/26/89 79/27/87 72/26/87
f 87/27/84 92/26/84 91/26/84
f 92/26/84 87/27/84 88/27/84
f 101/27/85 96/26/85 95/26/85
f 96/26/85 101/27/85 100/27/85
f 111/27/84 105/26/84 104/26/84
f 105/26/84 111/27/84 110/27/84
f 115/26/91 121/27/91 114/26/93
f 118/27/93 114/26/93 121/27/91
f 124/30/90 123/32/92 117/28/90
f 116/33/92 117/28/90 123/32/92
f 116/33/92 123/32/92 115/26/91
f 121/27/91 115/26/91 123/32/92
f 122/31/78 124/30/90 113/29/78
f 117/28/90 113/29/78 124/30/90
f 128/26/95 135/27/95 127/26/89
f 132/27/89 127/26/89 135/27/95
f 138/30/94 137/32/96 130/28/94
f 129/33/96 130/28/94 137/32/96
f 129/33/96 137/32/96 128/26/95
f 135/27/95 128/26/95 137/32/96
f 136/31/79 138/30/94 126/29/79
f 130/28/94 126/29/79 138/30/94
f 152/30/97 140/29/30 144/28/97
f 140/29/30 152/30/97 150/31/30
f 151/32/99 142/26/98 149/27/98
f 142/26/98 151/32/99 143/33/99
f 151/32/99 144/28/97 143/33/99
f 144/28/97 151/32/99 152/30/97
f 149/27/98 141/26/40 146/27/40
f 141/26/40 149/27/98 142/26/98
f 162/27/85 156/26/85 155/26/85
f 156/26/85 162/27/85 161/27/85
f 272/34/55 275/34/55 271/27/55
f 276/27/55 271/27/55 275/34/55
f 599/37/70 600/38/70 591/35/70
f 598/38/70 591/35/70 600/38/70
f 593/36/70 599/37/70 591/35/70
f 589/35/70 591/35/70 598/38/70
f 599/37/70 593/36/70 597/37/70
f 598/38/70 597/37/70 589/35/70
f 593/36/70 596/36/70 597/37/70
f 596/36/70 589/35/70 597/37/70
f 595/36/103 590/35/100 596/36/103
f 589/35/100 596/36/103 590/35/100
f 593/36/102 594/36/102 596/36/103
f 595/36/103 596/36/103 594/36/102
f 592/35/101 594/36/102 591/35/101
f 593/36/102 591/35/101 594/36/102
f 592/35/101 591/35/101 590/35/100
f 589/35/100 590/35/100 591/35/101
f 611/37/70 612/38/70 603/35/70
f 610/38/70 603/35/70 612/38/70
f 605/36/70 611/37/70 603/35/70
f 601/35/70 603/35/70 610/38/70
f 611/37/70 605/36/70 609/37/70
f 610/38/70 609/37/70 601/35/70
f 605/36/70 608/36/70 609/37/70
f 608/36/70 601/35/70 609/37/70
f 607/36/103 602/35/100 608/36/103
f 601/35/100 608/36/103 602/35/100
f 605/36/102 606/36/102 608/36/103
f 607/36/103 608/36/103 606/36/102
f 604/35/101 606/36/102 603/35/101
f 605/36/102 603/35/101 606/36/102
f 604/35/101 603/35/101 602/35/100
f 601/35/100 602/35/100 603/35/101
f 623/37/70 624/38/70 615/35/70
f 622/38/70 615/35/70 624/38/70
f 617/36/70 623/37/70 615/35/70
f 613/35/70 615/35/70 622/38/70
f 623/37/70 617/36/70 621/37/70
f 622/38/70 621/37/70 613/35/70
f 617/36/70 620/36/70 621/37/70
f 620/36/70 613/35/70 621/37/70
f 619/36/103 614/35/100 620/36/103
f 613/35/100 620/36/103 614/35/100
f 617/36/102 618/36/102 620/36/103
f 619/36/103 620/36/103 618/36/102
f 616/35/101 618/36/102 615/35/101
f 617/36/102 615/35/101 618/36/102
f 616/35/101 615/35/101 614/35/100
f 613/35/100 614/35/100 615/35/101
f 635/37/70 636/38/70 627/35/70
f 634/38/70 627/35/70 636/38/70
f 629/36/70 635/37/70 627/35/70
f 625/35/70 627/35/70 634/38/70
f 635/37/70 629/36/70 633/37/70
f 634/38/70 633/37/70 625/35/70
f 629/36/70 632/36/70 633/37/70
f 632/36/70 625/35/70 633/37/70
f 631/36/103 626/35/100 632/36/103
f 625/35/100 632/36/103 626/35/100
f 629/36/102 630/36/102 632/36/103
f 631/36/103 632/36/103 630/36/102
f 628/35/101 630/36/102 627/35/101
f 629/36/102 627/35/101 630/36/102
f 628/35/101 627/35/101 626/35/100
f 625/35/100 626/35/100 627/35/101

usemtl colormap-specular

f 640/40/70 639/39/70 638/40/70
f 637/39/70 638/40/70 639/39/70
f 644/40/70 643/39/70 642/40/70
f 641/39/70 642/40/70 643/39/70
f 648/40/70 647/39/70 646/40/70
f 645/39/70 646/40/70 647/39/70
f 652/40/70 651/39/70 650/40/70
f 649/39/70 650/40/70 651/39/70

g building-s




usemtl colormap

f 4/2/9 2/2/9 12/2/9
f 2/2/9 7/2/9 12/2/9
f 12/2/9 7/2/9 11/2/9
f 7/2/9 8/2/9 11/2/9
f 11/2/9 8/2/9 15/2/9
f 13/2/9 15/2/9 8/2/9
f 14/1/7 13/2/7 6/1/4
f 8/2/4 6/1/4 13/2/7
f 9/1/5 11/2/5 16/1/8
f 15/2/8 16/1/8 11/2/5
f 12/2/6 10/1/6 4/2/2
f 3/1/2 4/2/2 10/1/6
f 2/2/1 1/1/1 7/2/3
f 5/1/3 7/2/3 1/1/1
f 16/1/8 15/2/8 14/1/7
f 13/2/7 14/1/7 15/2/8
f 12/2/6 11/2/5 10/1/6
f 9/1/5 10/1/6 11/2/5
f 8/2/4 7/2/3 6/1/4
f 5/1/3 6/1/4 7/2/3
f 4/2/2 3/1/2 2/2/1
f 1/1/1 2/2/1 3/1/2
f 24/3/9 22/3/9 28/3/9
f 28/3/9 22/3/9 27/3/9
f 22/3/9 19/3/9 27/3/9
f 27/3/9 19/3/9 26/3/9
f 20/3/9 26/3/9 19/3/9
f 21/1/12 23/1/12 17/1/12
f 17/1/12 23/1/12 18/1/12
f 25/1/12 18/1/12 23/1/12
f 19/3/5 22/3/8 17/1/5
f 21/1/8 17/1/5 22/3/8
f 24/3/11 23/1/11 22/3/8
f 21/1/8 22/3/8 23/1/11
f 20/3/10 19/3/5 18/1/10
f 17/1/5 18/1/10 19/3/5
f 31/1/12 30/1/12 29/1/12
f 30/1/12 31/1/12 32/1/12
f 33/3/13 29/1/13 30/1/13
f 29/1/13 33/3/13 34/3/13
f 33/3/9 35/3/9 34/3/9
f 35/3/9 33/3/9 36/3/9
f 44/3/9 42/3/9 48/3/9
f 48/3/9 42/3/9 47/3/9
f 42/3/9 39/3/9 47/3/9
f 47/3/9 39/3/9 46/3/9
f 40/3/9 46/3/9 39/3/9
f 41/1/12 43/1/12 37/1/12
f 37/1/12 43/1/12 38/1/12
f 45/1/12 38/1/12 43/1/12
f 39/3/14 42/3/16 37/1/14
f 41/1/16 37/1/14 42/3/16
f 44/3/17 43/1/17 42/3/16
f 41/1/16 42/3/16 43/1/17
f 40/3/15 39/3/14 38/1/15
f 37/1/14 38/1/15 39/3/14
f 51/4/18 50/2/18 49/2/18
f 50/2/18 51/4/18 52/4/18
f 55/5/19 54/6/19 53/5/19
f 54/6/19 55/5/19 56/6/19
f 54/6/19 56/6/19 57/1/19
f 54/6/19 57/1/19 58/1/19
f 61/4/20 60/2/20 59/2/20
f 60/2/20 61/4/20 62/4/20
f 65/5/21 64/6/21 63/5/21
f 64/6/21 65/5/21 66/6/21
f 64/6/21 66/6/21 67/1/21
f 64/6/21 67/1/21 68/1/21
f 71/4/22 70/2/22 69/2/22
f 70/2/22 71/4/22 72/4/22
f 70/2/22 72/4/22 73/7/22
f 70/2/22 73/7/22 74/8/22
f 77/5/23 76/1/23 75/6/23
f 76/1/23 77/5/23 78/5/23
f 76/1/23 78/5/23 79/1/23
f 79/1/23 78/5/23 80/5/23
f 79/1/23 80/5/23 81/9/23
f 81/9/23 80/5/23 82/6/23
f 85/5/19 84/6/19 83/5/19
f 84/6/19 85/5/19 86/6/19
f 84/6/19 86/6/19 87/1/19
f 87/1/19 86/6/19 88/1/19
f 91/4/18 90/2/18 89/2/18
f 90/2/18 91/4/18 92/4/18
f 95/4/20 94/2/20 93/2/20
f 94/2/20 95/4/20 96/4/20
f 99/5/21 98/6/21 97/5/21
f 98/6/21 99/5/21 75/6/21
f 98/6/21 75/6/21 100/1/21
f 98/6/21 100/1/21 101/1/21
f 104/4/18 103/2/18 102/2/18
f 103/2/18 104/4/18 105/4/18
f 108/5/19 107/6/19 106/5/19
f 107/6/19 108/5/19 109/6/19
f 107/6/19 109/6/19 110/1/19
f 107/6/19 110/1/19 111/1/19
f 124/6/25 122/5/25 123/9/25
f 123/9/25 122/5/25 121/1/25
f 122/5/25 120/5/25 121/1/25
f 121/1/25 120/5/25 118/1/25
f 120/5/25 119/5/25 118/1/25
f 107/6/25 118/1/25 119/5/25
f 117/8/24 116/7/24 113/2/24
f 116/7/24 115/4/24 113/2/24
f 115/4/24 114/4/24 113/2/24
f 112/2/24 113/2/24 114/4/24
f 138/6/23 136/5/23 137/9/23
f 137/9/23 136/5/23 135/1/23
f 136/5/23 134/5/23 135/1/23
f 135/1/23 134/5/23 132/1/23
f 134/5/23 133/5/23 132/1/23
f 131/6/23 132/1/23 133/5/23
f 130/8/22 129/7/22 126/2/22
f 129/7/22 128/4/22 126/2/22
f 128/4/22 127/4/22 126/2/22
f 125/2/22 126/2/22 127/4/22
f 141/4/26 140/2/26 139/2/26
f 140/2/26 141/4/26 142/4/26
f 140/2/26 142/4/26 143/7/26
f 140/2/26 143/7/26 144/8/26
f 147/5/27 146/1/27 145/6/27
f 146/1/27 147/5/27 148/5/27
f 146/1/27 148/5/27 149/1/27
f 149/1/27 148/5/27 150/5/27
f 149/1/27 150/5/27 151/9/27
f 151/9/27 150/5/27 152/6/27
f 155/4/20 154/2/20 153/2/20
f 154/2/20 155/4/20 156/4/20
f 159/5/21 158/6/21 157/5/21
f 158/6/21 159/5/21 160/6/21
f 158/6/21 160/6/21 161/1/21
f 158/6/21 161/1/21 162/1/21
f 165/1/12 164/1/12 163/1/12
f 164/1/12 165/1/12 166/1/12
f 167/3/13 163/1/13 164/1/13
f 163/1/13 167/3/13 168/3/13
f 167/3/9 169/3/9 168/3/9
f 169/3/9 167/3/9 170/3/9
f 166/1/12 171/1/12 164/1/12
f 171/1/12 166/1/12 172/1/12
f 34/3/13 164/1/13 171/1/13
f 164/1/13 34/3/13 167/3/13
f 34/3/9 170/3/9 167/3/9
f 170/3/9 34/3/9 35/3/9
f 179/10/35 193/12/35 177/10/33
f 196/12/33 177/10/33 193/12/35
f 200/2/49 192/2/45 186/11/36
f 176/11/31 186/11/36 192/2/45
f 181/12/31 174/10/31 204/12/30
f 173/10/30 204/12/30 174/10/31
f 180/11/35 178/11/33 201/2/50
f 202/2/51 201/2/50 178/11/33
f 185/10/37 187/10/41 203/12/37
f 195/12/41 203/12/37 187/10/41
f 204/12/30 173/10/30 203/12/37
f 185/10/37 203/12/37 173/10/30
f 202/2/9 197/2/9 201/2/9
f 201/2/9 197/2/9 200/2/9
f 197/2/9 198/2/9 200/2/9
f 200/2/9 198/2/9 192/2/9
f 198/2/9 199/2/9 192/2/9
f 191/2/9 192/2/9 199/2/9
f 202/2/51 178/11/33 197/2/46
f 190/11/43 197/2/46 178/11/33
f 201/2/50 200/2/49 180/11/35
f 186/11/36 180/11/35 200/2/49
f 177/10/32 189/10/42 178/11/33
f 190/11/43 178/11/33 189/10/42
f 199/2/48 198/2/47 184/11/37
f 188/11/41 184/11/37 198/2/47
f 191/2/44 199/2/48 175/11/30
f 184/11/37 175/11/30 199/2/48
f 198/2/47 197/2/46 188/11/41
f 190/11/43 188/11/41 197/2/46
f 186/11/36 176/11/31 183/10/39
f 174/10/29 183/10/39 176/11/31
f 177/10/33 196/12/33 189/10/43
f 194/12/43 189/10/43 196/12/33
f 187/10/41 189/10/43 195/12/41
f 194/12/43 195/12/41 189/10/43
f 179/10/35 183/10/36 193/12/35
f 182/12/36 193/12/35 183/10/36
f 176/11/31 192/2/45 175/11/30
f 191/2/44 175/11/30 192/2/45
f 188/11/41 190/11/43 187/10/40
f 189/10/42 187/10/40 190/11/43
f 184/11/37 188/11/41 185/10/38
f 187/10/40 185/10/38 188/11/41
f 180/11/35 186/11/36 179/10/34
f 183/10/39 179/10/34 186/11/36
f 173/10/28 175/11/30 185/10/38
f 184/11/37 185/10/38 175/11/30
f 183/10/36 174/10/31 182/12/36
f 181/12/31 182/12/36 174/10/31
f 180/11/35 179/10/34 178/11/33
f 177/10/32 178/11/33 179/10/34
f 176/11/31 175/11/30 174/10/29
f 173/10/28 174/10/29 175/11/30
f 211/10/35 225/12/35 209/10/33
f 228/12/33 209/10/33 225/12/35
f 232/2/49 224/2/45 218/11/36
f 208/11/31 218/11/36 224/2/45
f 213/12/31 206/10/31 236/12/30
f 205/10/30 236/12/30 206/10/31
f 212/11/35 210/11/33 233/2/50
f 234/2/51 233/2/50 210/11/33
f 217/10/37 219/10/41 235/12/37
f 227/12/41 235/12/37 219/10/41
f 236/12/30 205/10/30 235/12/37
f 217/10/37 235/12/37 205/10/30
f 234/2/9 229/2/9 233/2/9
f 233/2/9 229/2/9 232/2/9
f 229/2/9 230/2/9 232/2/9
f 232/2/9 230/2/9 224/2/9
f 230/2/9 231/2/9 224/2/9
f 223/2/9 224/2/9 231/2/9
f 234/2/51 210/11/33 229/2/46
f 222/11/43 229/2/46 210/11/33
f 233/2/50 232/2/49 212/11/35
f 218/11/36 212/11/35 232/2/49
f 209/10/32 221/10/42 210/11/33
f 222/11/43 210/11/33 221/10/42
f 231/2/48 230/2/47 216/11/37
f 220/11/41 216/11/37 230/2/47
f 223/2/44 231/2/48 207/11/30
f 216/11/37 207/11/30 231/2/48
f 230/2/47 229/2/46 220/11/41
f 222/11/43 220/11/41 229/2/46
f 218/11/36 208/11/31 215/10/39
f 206/10/29 215/10/39 208/11/31
f 209/10/33 228/12/33 221/10/43
f 226/12/43 221/10/43 228/12/33
f 219/10/41 221/10/43 227/12/41
f 226/12/43 227/12/41 221/10/43
f 211/10/35 215/10/36 225/12/35
f 214/12/36 225/12/35 215/10/36
f 208/11/31 224/2/45 207/11/30
f 223/2/44 207/11/30 224/2/45
f 220/11/41 222/11/43 219/10/40
f 221/10/42 219/10/40 222/11/43
f 216/11/37 220/11/41 217/10/38
f 219/10/40 217/10/38 220/11/41
f 212/11/35 218/11/36 211/10/34
f 215/10/39 211/10/34 218/11/36
f 205/10/28 207/11/30 217/10/38
f 216/11/37 217/10/38 207/11/30
f 215/10/36 206/10/31 214/12/36
f 213/12/31 214/12/36 206/10/31
f 212/11/35 211/10/34 210/11/33
f 209/10/32 210/11/33 211/10/34
f 208/11/31 207/11/30 206/10/29
f 205/10/28 206/10/29 207/11/30
f 243/10/35 257/12/35 241/10/33
f 260/12/33 241/10/33 257/12/35
f 264/2/49 256/2/45 250/11/36
f 240/11/31 250/11/36 256/2/45
f 245/12/31 238/10/31 268/12/30
f 237/10/30 268/12/30 238/10/31
f 244/11/35 242/11/33 265/2/50
f 266/2/51 265/2/50 242/11/33
f 249/10/37 251/10/41 267/12/37
f 259/12/41 267/12/37 251/10/41
f 268/12/30 237/10/30 267/12/37
f 249/10/37 267/12/37 237/10/30
f 266/2/9 261/2/9 265/2/9
f 265/2/9 261/2/9 264/2/9
f 261/2/9 262/2/9 264/2/9
f 264/2/9 262/2/9 256/2/9
f 262/2/9 263/2/9 256/2/9
f 255/2/9 256/2/9 263/2/9
f 266/2/51 242/11/33 261/2/46
f 254/11/43 261/2/46 242/11/33
f 265/2/50 264/2/49 244/11/35
f 250/11/36 244/11/35 264/2/49
f 241/10/32 253/10/42 242/11/33
f 254/11/43 242/11/33 253/10/42
f 263/2/48 262/2/47 248/11/37
f 252/11/41 248/11/37 262/2/47
f 255/2/44 263/2/48 239/11/30
f 248/11/37 239/11/30 263/2/48
f 262/2/47 261/2/46 252/11/41
f 254/11/43 252/11/41 261/2/46
f 250/11/36 240/11/31 247/10/39
f 238/10/29 247/10/39 240/11/31
f 241/10/33 260/12/33 253/10/43
f 258/12/43 253/10/43 260/12/33
f 251/10/41 253/10/43 259/12/41
f 258/12/43 259/12/41 253/10/43
f 243/10/35 247/10/36 257/12/35
f 246/12/36 257/12/35 247/10/36
f 240/11/31 256/2/45 239/11/30
f 255/2/44 239/11/30 256/2/45
f 252/11/41 254/11/43 251/10/40
f 253/10/42 251/10/40 254/11/43
f 248/11/37 252/11/41 249/10/38
f 251/10/40 249/10/38 252/11/41
f 244/11/35 250/11/36 243/10/34
f 247/10/39 243/10/34 250/11/36
f 237/10/28 239/11/30 249/10/38
f 248/11/37 249/10/38 239/11/30
f 247/10/36 238/10/31 246/12/36
f 245/12/31 246/12/36 238/10/31
f 244/11/35 243/10/34 242/11/33
f 241/10/32 242/11/33 243/10/34
f 240/11/31 239/11/30 238/10/29
f 237/10/28 238/10/29 239/11/30
f 309/16/53 310/15/53 312/16/37
f 314/15/37 312/16/37 310/15/53
f 311/16/12 307/16/12 312/16/12
f 309/16/12 312/16/12 307/16/12
f 308/15/9 313/15/9 310/15/9
f 314/15/9 310/15/9 313/15/9
f 308/15/52 307/16/52 313/15/43
f 311/16/43 313/15/43 307/16/52
f 314/15/37 313/15/43 312/16/37
f 311/16/43 312/16/37 313/15/43
f 310/15/63 309/16/63 308/15/63
f 307/16/63 308/15/63 309/16/63
f 303/2/55 305/2/55 300/1/55
f 302/1/55 300/1/55 305/2/55
f 306/2/62 305/2/62 304/2/61
f 303/2/61 304/2/61 305/2/62
f 306/2/62 301/1/60 305/2/62
f 302/1/60 305/2/62 301/1/60
f 299/1/59 304/2/61 300/1/59
f 303/2/61 300/1/59 304/2/61
f 302/1/60 301/1/60 300/1/59
f 299/1/59 300/1/59 301/1/60
f 286/1/12 298/1/12 274/1/12
f 274/1/12 298/1/12 276/1/12
f 276/1/12 298/1/12 271/1/12
f 271/1/12 292/1/12 269/1/12
f 271/1/12 298/1/12 292/1/12
f 292/1/12 298/1/12 278/1/12
f 279/1/12 278/1/12 298/1/12
f 285/14/54 284/14/54 296/15/57
f 288/15/57 296/15/57 284/14/54
f 297/14/58 295/15/56 287/14/58
f 289/15/56 287/14/58 295/15/56
f 294/3/53 297/14/58 290/3/53
f 287/14/58 290/3/53 297/14/58
f 296/15/57 288/15/57 295/15/56
f 289/15/56 295/15/56 288/15/57
f 294/3/9 290/3/9 293/3/9
f 290/3/9 291/3/9 293/3/9
f 293/3/9 291/3/9 28/3/9
f 291/3/9 277/3/9 28/3/9
f 24/3/9 28/3/9 277/3/9
f 278/1/7 277/3/7 292/1/4
f 291/3/4 292/1/4 277/3/7
f 292/1/4 291/3/4 269/1/55
f 290/3/55 269/1/55 291/3/4
f 269/1/55 290/3/55 270/13/55
f 287/14/55 270/13/55 290/3/55
f 289/15/55 288/15/55 287/14/55
f 288/15/55 284/14/55 287/14/55
f 284/14/55 270/13/55 287/14/55
f 270/13/55 284/14/55 273/13/55
f 284/14/55 280/3/55 273/13/55
f 273/13/55 280/3/55 274/1/55
f 280/3/55 282/3/55 274/1/55
f 286/1/55 274/1/55 282/3/55
f 285/14/54 281/3/52 284/14/54
f 280/3/52 284/14/54 281/3/52
f 283/3/9 282/3/9 281/3/9
f 280/3/9 281/3/9 282/3/9
f 279/1/53 24/3/53 278/1/7
f 277/3/7 278/1/7 24/3/53
f 273/13/12 275/13/12 270/13/12
f 272/13/12 270/13/12 275/13/12
f 276/1/53 275/13/53 274/1/53
f 273/13/53 274/1/53 275/13/53
f 272/13/52 271/1/52 270/13/52
f 269/1/52 270/13/52 271/1/52
f 354/16/65 353/15/65 348/16/37
f 350/15/37 348/16/37 353/15/65
f 347/16/12 351/16/12 348/16/12
f 354/16/12 348/16/12 351/16/12
f 349/15/9 350/15/9 352/15/9
f 353/15/9 352/15/9 350/15/9
f 352/15/64 351/16/64 349/15/43
f 347/16/43 349/15/43 351/16/64
f 350/15/37 349/15/43 348/16/37
f 347/16/43 348/16/37 349/15/43
f 324/1/70 337/3/70 315/1/70
f 339/3/70 315/1/70 337/3/70
f 315/1/70 339/3/70 316/13/70
f 341/14/70 316/13/70 339/3/70
f 343/15/70 345/15/70 341/14/70
f 345/15/70 335/14/70 341/14/70
f 335/14/70 316/13/70 341/14/70
f 316/13/70 335/14/70 319/13/70
f 335/14/70 328/3/70 319/13/70
f 319/13/70 328/3/70 320/1/70
f 328/3/70 330/3/3 320/1/70
f 326/1/3 320/1/70 330/3/3
f 346/15/69 336/14/66 345/15/69
f 335/14/66 345/15/69 336/14/66
f 344/15/68 343/15/68 342/14/67
f 341/14/67 342/14/67 343/15/68
f 346/15/69 345/15/69 344/15/68
f 343/15/68 344/15/68 345/15/69
f 340/3/65 342/14/67 339/3/65
f 341/14/67 339/3/65 342/14/67
f 334/3/1 327/1/1 330/3/3
f 326/1/3 330/3/3 327/1/1
f 333/3/64 325/1/64 334/3/1
f 327/1/1 334/3/1 325/1/64
f 340/3/9 339/3/9 338/3/9
f 337/3/9 338/3/9 339/3/9
f 336/14/66 329/3/64 335/14/66
f 328/3/64 335/14/66 329/3/64
f 334/3/9 330/3/9 333/3/9
f 333/3/9 330/3/9 332/3/9
f 332/3/9 330/3/9 331/3/9
f 331/3/9 330/3/9 329/3/9
f 328/3/9 329/3/9 330/3/9
f 327/1/12 325/1/12 326/1/12
f 326/1/12 325/1/12 320/1/12
f 320/1/12 325/1/12 322/1/12
f 322/1/12 325/1/12 317/1/12
f 317/1/12 324/1/12 315/1/12
f 317/1/12 325/1/12 324/1/12
f 323/1/12 324/1/12 325/1/12
f 319/13/12 321/13/12 316/13/12
f 318/13/12 316/13/12 321/13/12
f 322/1/65 321/13/65 320/1/65
f 319/13/65 320/1/65 321/13/65
f 318/13/64 317/1/64 316/13/64
f 315/1/64 316/13/64 317/1/64
f 390/16/65 389/15/65 384/16/37
f 386/15/37 384/16/37 389/15/65
f 383/16/12 387/16/12 384/16/12
f 390/16/12 384/16/12 387/16/12
f 385/15/9 386/15/9 388/15/9
f 389/15/9 388/15/9 386/15/9
f 388/15/64 387/16/64 385/15/43
f 383/16/43 385/15/43 387/16/64
f 386/15/37 385/15/43 384/16/37
f 383/16/43 384/16/37 385/15/43
f 364/1/70 373/3/70 355/1/70
f 375/3/70 355/1/70 373/3/70
f 355/1/70 375/3/70 356/13/70
f 377/14/70 356/13/70 375/3/70
f 379/15/70 381/15/70 377/14/70
f 381/15/70 371/14/70 377/14/70
f 371/14/70 356/13/70 377/14/70
f 356/13/70 371/14/70 359/13/70
f 371/14/70 367/3/70 359/13/70
f 359/13/70 367/3/70 360/1/70
f 367/3/70 369/3/70 360/1/70
f 366/1/70 360/1/70 369/3/70
f 382/15/69 372/14/66 381/15/69
f 371/14/66 381/15/69 372/14/66
f 380/15/68 379/15/68 378/14/67
f 377/14/67 378/14/67 379/15/68
f 382/15/69 381/15/69 380/15/68
f 379/15/68 380/15/68 381/15/69
f 376/3/65 378/14/67 375/3/65
f 377/14/67 375/3/65 378/14/67
f 376/3/9 375/3/9 374/3/9
f 373/3/9 374/3/9 375/3/9
f 372/14/66 368/3/64 371/14/66
f 367/3/64 371/14/66 368/3/64
f 370/3/9 369/3/9 368/3/9
f 367/3/9 368/3/9 369/3/9
f 366/1/12 365/1/12 360/1/12
f 360/1/12 365/1/12 362/1/12
f 362/1/12 365/1/12 357/1/12
f 357/1/12 364/1/12 355/1/12
f 357/1/12 365/1/12 364/1/12
f 363/1/12 364/1/12 365/1/12
f 359/13/12 361/13/12 356/13/12
f 358/13/12 356/13/12 361/13/12
f 362/1/65 361/13/65 360/1/65
f 359/13/65 360/1/65 361/13/65
f 358/13/64 357/1/64 356/13/64
f 355/1/64 356/13/64 357/1/64
f 426/16/65 425/15/65 420/16/37
f 422/15/37 420/16/37 425/15/65
f 419/16/12 423/16/12 420/16/12
f 426/16/12 420/16/12 423/16/12
f 421/15/9 422/15/9 424/15/9
f 425/15/9 424/15/9 422/15/9
f 424/15/64 423/16/64 421/15/43
f 419/16/43 421/15/43 423/16/64
f 422/15/37 421/15/43 420/16/37
f 419/16/43 420/16/37 421/15/43
f 400/1/70 409/3/70 391/1/70
f 411/3/70 391/1/70 409/3/70
f 391/1/70 411/3/70 392/13/70
f 413/14/70 392/13/70 411/3/70
f 415/15/70 417/15/70 413/14/70
f 417/15/70 407/14/70 413/14/70
f 407/14/70 392/13/70 413/14/70
f 392/13/70 407/14/70 395/13/70
f 407/14/70 403/3/70 395/13/70
f 395/13/70 403/3/70 396/1/70
f 403/3/70 405/3/70 396/1/70
f 402/1/70 396/1/70 405/3/70
f 418/15/69 408/14/66 417/15/69
f 407/14/66 417/15/69 408/14/66
f 416/15/68 415/15/68 414/14/67
f 413/14/67 414/14/67 415/15/68
f 418/15/69 417/15/69 416/15/68
f 415/15/68 416/15/68 417/15/69
f 412/3/65 414/14/67 411/3/65
f 413/14/67 411/3/65 414/14/67
f 412/3/9 411/3/9 410/3/9
f 409/3/9 410/3/9 411/3/9
f 408/14/66 404/3/64 407/14/66
f 403/3/64 407/14/66 404/3/64
f 406/3/9 405/3/9 404/3/9
f 403/3/9 404/3/9 405/3/9
f 402/1/12 401/1/12 396/1/12
f 396/1/12 401/1/12 398/1/12
f 398/1/12 401/1/12 393/1/12
f 393/1/12 400/1/12 391/1/12
f 393/1/12 401/1/12 400/1/12
f 399/1/12 400/1/12 401/1/12
f 395/13/12 397/13/12 392/13/12
f 394/13/12 392/13/12 397/13/12
f 398/1/65 397/13/65 396/1/65
f 395/13/65 396/1/65 397/13/65
f 394/13/64 393/1/64 392/13/64
f 391/1/64 392/13/64 393/1/64
f 429/16/71 428/15/41 427/15/71
f 428/15/41 429/16/71 430/16/41
f 433/16/72 432/15/33 431/16/33
f 432/15/33 433/16/72 434/15/72
f 430/16/41 435/15/73 428/15/41
f 435/15/73 430/16/41 436/16/73
f 431/16/33 435/15/73 436/16/73
f 435/15/73 431/16/33 432/15/33
f 433/16/72 437/15/36 434/15/72
f 437/15/36 433/16/72 438/16/36
f 438/16/36 439/15/74 437/15/36
f 439/15/74 438/16/36 440/16/74
f 439/15/74 442/16/30 441/15/30
f 442/16/30 439/15/74 440/16/74
f 441/15/30 429/16/71 427/15/71
f 429/16/71 441/15/30 442/16/30
f 434/15/12 435/15/12 432/15/12
f 435/15/12 434/15/12 437/15/12
f 435/15/12 437/15/12 428/15/12
f 428/15/12 437/15/12 439/15/12
f 428/15/12 439/15/12 427/15/12
f 427/15/12 439/15/12 441/15/12
f 445/16/12 444/16/12 443/16/12
f 444/16/12 445/16/12 446/16/12
f 449/15/75 448/15/9 447/15/9
f 448/15/9 449/15/75 450/15/75
f 448/15/36 445/16/36 443/16/36
f 445/16/36 448/15/36 451/17/36
f 451/17/36 448/15/36 450/15/36
f 448/15/33 444/16/33 447/15/33
f 444/16/33 448/15/33 443/16/33
f 452/17/41 444/16/41 446/16/41
f 444/16/41 452/17/41 447/15/41
f 447/15/41 452/17/41 449/15/41
f 445/16/30 452/17/76 446/16/30
f 452/17/76 445/16/30 451/17/76
f 451/17/76 449/15/75 452/17/76
f 449/15/75 451/17/76 450/15/75
f 455/16/30 454/15/37 453/16/37
f 454/15/37 455/16/30 456/15/30
f 454/15/37 457/16/41 453/16/37
f 457/16/41 454/15/37 458/15/41
f 461/15/35 460/16/33 459/15/33
f 460/16/33 461/15/35 462/16/35
f 459/15/33 464/16/43 463/15/43
f 464/16/43 459/15/33 460/16/33
f 465/16/31 456/15/30 455/16/30
f 456/15/30 465/16/31 466/15/31
f 468/15/36 465/16/31 467/16/36
f 465/16/31 468/15/36 466/15/31
f 458/15/41 464/16/43 457/16/41
f 464/16/43 458/15/41 463/15/43
f 461/15/35 467/16/36 462/16/35
f 467/16/36 461/15/35 468/15/36
f 463/15/9 461/15/9 459/15/9
f 461/15/9 463/15/9 458/15/9
f 461/15/9 458/15/9 468/15/9
f 468/15/9 458/15/9 454/15/9
f 468/15/9 454/15/9 466/15/9
f 466/15/9 454/15/9 456/15/9
f 462/16/12 464/16/12 460/16/12
f 464/16/12 462/16/12 467/16/12
f 464/16/12 467/16/12 457/16/12
f 457/16/12 467/16/12 465/16/12
f 457/16/12 465/16/12 453/16/12
f 453/16/12 465/16/12 455/16/12
f 471/16/30 470/15/37 469/16/37
f 470/15/37 471/16/30 472/15/30
f 470/15/37 473/16/41 469/16/37
f 473/16/41 470/15/37 474/15/41
f 477/15/35 476/16/33 475/15/33
f 476/16/33 477/15/35 478/16/35
f 475/15/33 480/16/43 479/15/43
f 480/16/43 475/15/33 476/16/33
f 481/16/31 472/15/30 471/16/30
f 472/15/30 481/16/31 482/15/31
f 484/15/36 481/16/31 483/16/36
f 481/16/31 484/15/36 482/15/31
f 474/15/41 480/16/43 473/16/41
f 480/16/43 474/15/41 479/15/43
f 477/15/35 483/16/36 478/16/35
f 483/16/36 477/15/35 484/15/36
f 479/15/9 477/15/9 475/15/9
f 477/15/9 479/15/9 474/15/9
f 477/15/9 474/15/9 484/15/9
f 484/15/9 474/15/9 470/15/9
f 484/15/9 470/15/9 482/15/9
f 482/15/9 470/15/9 472/15/9
f 478/16/12 480/16/12 476/16/12
f 480/16/12 478/16/12 483/16/12
f 480/16/12 483/16/12 473/16/12
f 473/16/12 483/16/12 481/16/12
f 473/16/12 481/16/12 469/16/12
f 469/16/12 481/16/12 471/16/12
f 520/16/65 519/15/65 514/16/37
f 516/15/37 514/16/37 519/15/65
f 513/16/12 517/16/12 514/16/12
f 520/16/12 514/16/12 517/16/12
f 515/15/9 516/15/9 518/15/9
f 519/15/9 518/15/9 516/15/9
f 518/15/64 517/16/64 515/15/43
f 513/16/43 515/15/43 517/16/64
f 516/15/37 515/15/43 514/16/37
f 513/16/43 514/16/37 515/15/43
f 494/1/70 503/3/70 485/1/70
f 505/3/70 485/1/70 503/3/70
f 485/1/70 505/3/70 486/13/70
f 507/14/70 486/13/70 505/3/70
f 509/15/70 511/15/70 507/14/70
f 511/15/70 501/14/70 507/14/70
f 501/14/70 486/13/70 507/14/70
f 486/13/70 501/14/70 489/13/70
f 501/14/70 497/3/70 489/13/70
f 489/13/70 497/3/70 490/1/70
f 497/3/70 499/3/70 490/1/70
f 496/1/70 490/1/70 499/3/70
f 512/15/69 502/14/66 511/15/69
f 501/14/66 511/15/69 502/14/66
f 510/15/68 509/15/68 508/14/67
f 507/14/67 508/14/67 509/15/68
f 512/15/69 511/15/69 510/15/68
f 509/15/68 510/15/68 511/15/69
f 506/3/65 508/14/67 505/3/65
f 507/14/67 505/3/65 508/14/67
f 506/3/9 505/3/9 504/3/9
f 503/3/9 504/3/9 505/3/9
f 502/14/66 498/3/64 501/14/66
f 497/3/64 501/14/66 498/3/64
f 500/3/9 499/3/9 498/3/9
f 497/3/9 498/3/9 499/3/9
f 496/1/12 495/1/12 490/1/12
f 490/1/12 495/1/12 492/1/12
f 492/1/12 495/1/12 487/1/12
f 487/1/12 494/1/12 485/1/12
f 487/1/12 495/1/12 494/1/12
f 493/1/12 494/1/12 495/1/12
f 489/13/12 491/13/12 486/13/12
f 488/13/12 486/13/12 491/13/12
f 492/1/65 491/13/65 490/1/65
f 489/13/65 490/1/65 491/13/65
f 488/13/64 487/1/64 486/13/64
f 485/1/64 486/13/64 487/1/64
f 523/19/11 28/18/11 521/19/11
f 27/18/11 521/19/11 28/18/11
f 522/19/10 521/19/10 26/18/10
f 27/18/10 26/18/10 521/19/10
f 524/19/13 35/18/13 36/18/13
f 35/18/13 524/19/13 525/19/13
f 528/19/17 48/18/17 526/19/17
f 47/18/17 526/19/17 48/18/17
f 527/19/15 526/19/15 46/18/15
f 47/18/15 46/18/15 526/19/15
f 78/21/77 530/20/77 529/20/77
f 531/20/78 532/20/78 120/21/78
f 533/20/79 534/20/79 134/21/79
f 148/21/30 536/20/30 535/20/30
f 537/19/13 169/18/13 170/18/13
f 169/18/13 537/19/13 538/19/13
f 525/19/13 170/18/13 35/18/13
f 170/18/13 525/19/13 537/19/13
f 541/23/41 540/22/41 539/22/41
f 540/22/41 541/23/41 542/23/41
f 543/23/81 547/23/81 544/22/81
f 546/22/81 544/22/81 547/23/81
f 538/22/80 545/23/80 544/22/80
f 543/23/80 544/22/80 545/23/80
f 549/23/41 539/22/41 548/22/41
f 539/22/41 549/23/41 541/23/41
f 552/23/13 551/22/13 550/22/13
f 551/22/13 552/23/13 553/23/13
f 556/23/33 555/22/33 554/23/33
f 555/22/33 556/23/33 557/22/33
f 559/23/41 555/22/41 558/22/41
f 555/22/41 559/23/41 554/23/41
f 561/23/41 548/22/41 560/22/41
f 548/22/41 561/23/41 549/23/41
f 563/23/13 550/22/13 562/22/13
f 550/22/13 563/23/13 552/23/13
f 565/23/13 562/22/13 564/22/13
f 562/22/13 565/23/13 563/23/13
f 568/23/17 567/22/17 566/23/17
f 567/22/17 568/23/17 569/22/17
f 571/23/15 567/22/15 570/22/15
f 567/22/15 571/23/15 566/23/15
f 572/23/83 577/23/83 573/22/83
f 576/22/83 573/22/83 577/23/83
f 575/22/82 574/23/82 573/22/82
f 572/23/82 573/22/82 574/23/82
f 294/18/55 293/18/55 297/24/55
f 578/19/55 297/24/55 293/18/55
f 295/25/55 297/24/55 578/19/55
f 579/19/55 295/25/55 578/19/55
f 295/25/55 579/19/55 296/25/55
f 296/25/55 579/19/55 285/24/55
f 285/24/55 579/19/55 281/18/55
f 283/18/55 281/18/55 579/19/55
f 28/18/53 523/19/53 293/18/53
f 578/19/53 293/18/53 523/19/53
f 340/18/70 338/18/70 342/24/70
f 582/19/70 342/24/70 338/18/70
f 344/25/70 342/24/70 582/19/70
f 580/19/70 344/25/70 582/19/70
f 344/25/70 580/19/70 346/25/70
f 346/25/70 580/19/70 336/24/70
f 336/24/70 580/19/70 329/18/70
f 331/18/70 329/18/70 580/19/70
f 581/19/64 332/18/64 580/19/64
f 331/18/64 580/19/64 332/18/64
f 376/18/70 374/18/70 378/24/70
f 584/19/70 378/24/70 374/18/70
f 380/25/70 378/24/70 584/19/70
f 583/19/70 380/25/70 584/19/70
f 380/25/70 583/19/70 382/25/70
f 382/25/70 583/19/70 372/24/70
f 372/24/70 583/19/70 368/18/70
f 370/18/70 368/18/70 583/19/70
f 412/18/70 410/18/70 414/24/70
f 586/19/70 414/24/70 410/18/70
f 416/25/70 414/24/70 586/19/70
f 585/19/70 416/25/70 586/19/70
f 416/25/70 585/19/70 418/25/70
f 418/25/70 585/19/70 408/24/70
f 408/24/70 585/19/70 404/18/70
f 406/18/70 404/18/70 585/19/70
f 506/18/70 504/18/70 508/24/70
f 588/19/70 508/24/70 504/18/70
f 510/25/70 508/24/70 588/19/70
f 587/19/70 510/25/70 588/19/70
f 510/25/70 587/19/70 512/25/70
f 512/25/70 587/19/70 502/24/70
f 502/24/70 587/19/70 498/18/70
f 500/18/70 498/18/70 587/19/70
f 58/27/84 52/26/84 51/26/84
f 52/26/84 58/27/84 57/27/84
f 68/27/85 62/26/85 61/26/85
f 62/26/85 68/27/85 67/27/85
f 82/30/86 70/29/77 74/28/86
f 70/29/77 82/30/86 80/31/77
f 81/32/88 72/26/87 79/27/87
f 72/26/87 81/32/88 73/33/88
f 81/32/88 74/28/86 73/33/88
f 74/28/86 81/32/88 82/30/86
f 79/27/87 71/26/89 76/27/89
f 71/26/89 79/27/87 72/26/87
f 87/27/84 92/26/84 91/26/84
f 92/26/84 87/27/84 88/27/84
f 101/27/85 96/26/85 95/26/85
f 96/26/85 101/27/85 100/27/85
f 111/27/84 105/26/84 104/26/84
f 105/26/84 111/27/84 110/27/84
f 115/26/91 121/27/91 114/26/93
f 118/27/93 114/26/93 121/27/91
f 124/30/90 123/32/92 117/28/90
f 116/33/92 117/28/90 123/32/92
f 116/33/92 123/32/92 115/26/91
f 121/27/91 115/26/91 123/32/92
f 122/31/78 124/30/90 113/29/78
f 117/28/90 113/29/78 124/30/90
f 128/26/95 135/27/95 127/26/89
f 132/27/89 127/26/89 135/27/95
f 138/30/94 137/32/96 130/28/94
f 129/33/96 130/28/94 137/32/96
f 129/33/96 137/32/96 128/26/95
f 135/27/95 128/26/95 137/32/96
f 136/31/79 138/30/94 126/29/79
f 130/28/94 126/29/79 138/30/94
f 152/30/97 140/29/30 144/28/97
f 140/29/30 152/30/97 150/31/30
f 151/32/99 142/26/98 149/27/98
f 142/26/98 151/32/99 143/33/99
f 151/32/99 144/28/97 143/33/99
f 144/28/97 151/32/99 152/30/97
f 149/27/98 141/26/40 146/27/40
f 141/26/40 149/27/98 142/26/98
f 162/27/85 156/26/85 155/26/85
f 156/26/85 162/27/85 161/27/85
f 272/34/55 275/34/55 271/27/55
f 276/27/55 271/27/55 275/34/55
f 599/37/70 600/38/70 591/35/70
f 598/38/70 591/35/70 600/38/70
f 593/36/70 599/37/70 591/35/70
f 589/35/70 591/35/70 598/38/70
f 599/37/70 593/36/70 597/37/70
f 598/38/70 597/37/70 589/35/70
f 593/36/70 596/36/70 597/37/70
f 596/36/70 589/35/70 597/37/70
f 595/36/103 590/35/100 596/36/103
f 589/35/100 596/36/103 590/35/100
f 593/36/102 594/36/102 596/36/103
f 595/36/103 596/36/103 594/36/102
f 592/35/101 594/36/102 591/35/101
f 593/36/102 591/35/101 594/36/102
f 592/35/101 591/35/101 590/35/100
f 589/35/100 590/35/100 591/35/101
f 611/37/70 612/38/70 603/35/70
f 610/38/70 603/35/70 612/38/70
f 605/36/70 611/37/70 603/35/70
f 601/35/70 603/35/70 610/38/70
f 611/37/70 605/36/70 609/37/70
f 610/38/70 609/37/70 601/35/70
f 605/36/70 608/36/70 609/37/70
f 608/36/70 601/35/70 609/37/70
f 607/36/103 602/35/100 608/36/103
f 601/35/100 608/36/103 602/35/100
f 605/36/102 606/36/102 608/36/103
f 607/36/103 608/36/103 606/36/102
f 604/35/101 606/36/102 603/35/101
f 605/36/102 603/35/101 606/36/102
f 604/35/101 603/35/101 602/35/100
f 601/35/100 602/35/100 603/35/101
f 623/37/70 624/38/70 615/35/70
f 622/38/70 615/35/70 624/38/70
f 617/36/70 623/37/70 615/35/70
f 613/35/70 615/35/70 622/38/70
f 623/37/70 617/36/70 621/37/70
f 622/38/70 621/37/70 613/35/70
f 617/36/70 620/36/70 621/37/70
f 620/36/70 613/35/70 621/37/70
f 619/36/103 614/35/100 620/36/103
f 613/35/100 620/36/103 614/35/100
f 617/36/102 618/36/102 620/36/103
f 619/36/103 620/36/103 618/36/102
f 616/35/101 618/36/102 615/35/101
f 617/36/102 615/35/101 618/36/102
f 616/35/101 615/35/101 614/35/100
f 613/35/100 614/35/100 615/35/101
f 635/37/70 636/38/70 627/35/70
f 634/38/70 627/35/70 636/38/70
f 629/36/70 635/37/70 627/35/70
f 625/35/70 627/35/70 634/38/70
f 635/37/70 629/36/70 633/37/70
f 634/38/70 633/37/70 625/35/70
f 629/36/70 632/36/70 633/37/70
f 632/36/70 625/35/70 633/37/70
f 631/36/103 626/35/100 632/36/103
f 625/35/100 632/36/103 626/35/100
f 629/36/102 630/36/102 632/36/103
f 631/36/103 632/36/103 630/36/102
f 628/35/101 630/36/102 627/35/101
f 629/36/102 627/35/101 630/36/102
f 628/35/101 627/35/101 626/35/100
f 625/35/100 626/35/100 627/35/101

usemtl colormap-specular

f 640/40/70 639/39/70 638/40/70
f 637/39/70 638/40/70 639/39/70
f 644/40/70 643/39/70 642/40/70
f 641/39/70 642/40/70 643/39/70
f 648/40/70 647/39/70 646/40/70
f 645/39/70 646/40/70 647/39/70
f 652/40/70 651/39/70 650/40/70
f 649/39/70 650/40/70 651/39/70

