# Created by Kenney (www.kenney.nl)

mtllib building-d.mtl

g building-d

v -0.3782061 0.05 0.2000001 1 1 1
v -0.3782061 0.05 -0.2 1 1 1
v -0.3782061 0.4 0.2000001 1 1 1
v -0.3782061 0.4 -0.2 1 1 1
v -0.3782061 0.05 0.6000001 1 1 1
v -0.3782061 0.05 0.2000001 1 1 1
v -0.3782061 0.4 0.6000001 1 1 1
v -0.3782061 0.4 0.2000001 1 1 1
v 0.02179398 0.05 0.6000001 1 1 1
v 0.02179398 0.4 0.6000001 1 1 1
v 0.421794 0.05 -0.2 1 1 1
v 0.4217939 0.05 0.2000001 1 1 1
v 0.421794 0.4 -0.2 1 1 1
v 0.4217939 0.4 0.2000001 1 1 1
v 0.02179392 0.05 0.6000001 1 1 1
v -0.3782061 0.05 0.6000001 1 1 1
v 0.02179392 0.4 0.6000001 1 1 1
v -0.3782061 0.4 0.6000001 1 1 1
v 0.4217939 0.05 0.6000001 1 1 1
v 0.421794 0.05 0.2000001 1 1 1
v 0.4217939 0.4 0.6000001 1 1 1
v 0.421794 0.4 0.2000001 1 1 1
v 0.02179389 0.05 0.6000001 1 1 1
v 0.02179389 0.4 0.6000001 1 1 1
v 0.4217939 0.05 -0.6000001 1 1 1
v 0.4217939 0.4 -0.6000001 1 1 1
v 0.4217939 0.05 -0.2000001 1 1 1
v 0.4217939 0.4 -0.2000001 1 1 1
v 0.281794 0.05 -0.6000001 1 1 1
v 0.281794 0.28 -0.6000001 1 1 1
v 0.2617939 0.3 -0.6000001 1 1 1
v -0.218206 0.3 -0.6000001 1 1 1
v -0.3782061 0.4 -0.6000001 1 1 1
v -0.2382061 0.28 -0.6000001 1 1 1
v -0.3782061 0.05 -0.6000001 1 1 1
v -0.2382061 0.05 -0.6000001 1 1 1
v -0.3782061 0.4 -0.2000001 1 1 1
v -0.3782061 0.05 -0.2000001 1 1 1
v -0.3982061 0 -0.2 1 1 1
v -0.3982061 0 0.2000001 1 1 1
v 0.02179392 0 -0.2000001 1 1 1
v 0.02179398 0 0.2 1 1 1
v -0.3982061 0.05 0.2000001 1 1 1
v -0.3982061 0.05 -0.2 1 1 1
v -0.3982061 0 0.6000001 1 1 1
v -0.3982061 0 0.2000001 1 1 1
v -0.3982061 0.05 0.6000001 1 1 1
v -0.3982061 0.05 0.2000001 1 1 1
v -0.3782061 0 0.6200001 1 1 1
v -0.3782061 0.05 0.6200001 1 1 1
v 0.02179398 0 0.6200001 1 1 1
v 0.02179398 0.05 0.6200001 1 1 1
v 0.02179392 0 0.2 1 1 1
v -0.3982061 0.4 0.6000001 1 1 1
v -0.3982061 0.4 0.2000001 1 1 1
v -0.3982061 0.45 0.6000001 1 1 1
v -0.3982061 0.45 0.2000001 1 1 1
v -0.3782061 0.4 0.6200001 1 1 1
v -0.3782061 0.45 0.6200001 1 1 1
v 0.02179398 0.4 0.6200001 1 1 1
v 0.02179398 0.45 0.6200001 1 1 1
v 0.02179392 0.4 0.2 1 1 1
v -0.3782061 0.45 0.2000001 1 1 1
v -0.3782061 0.45 0.6000001 1 1 1
v 0.02179398 0.45 0.6000001 1 1 1
v -0.3982061 0.8 0.6000001 1 1 1
v -0.3982061 0.8 0.2000001 1 1 1
v -0.3982061 0.85 0.6000001 1 1 1
v -0.3982061 0.85 0.2000001 1 1 1
v -0.3782061 0.8 0.6200001 1 1 1
v -0.3782061 0.85 0.6200001 1 1 1
v 0.02179398 0.8 0.6200001 1 1 1
v 0.02179398 0.85 0.6200001 1 1 1
v 0.02179392 0.8 0.2 1 1 1
v -0.3782061 0.85 0.2000001 1 1 1
v -0.3782061 0.85 0.6000001 1 1 1
v 0.02179398 0.85 0.6000001 1 1 1
v -0.3982061 0.4 -0.2 1 1 1
v -0.3982061 0.4 0.2000001 1 1 1
v 0.02179392 0.4 -0.2000001 1 1 1
v 0.02179398 0.4 0.2 1 1 1
v -0.3982061 0.45 0.2000001 1 1 1
v -0.3982061 0.45 -0.2 1 1 1
v -0.3782061 0.45 -0.2 1 1 1
v -0.3782061 0.45 0.2000001 1 1 1
v 0.4417939 2.926624E-17 0.2000001 1 1 1
v 0.441794 2.926624E-17 -0.2 1 1 1
v 0.02179389 2.926624E-17 0.2 1 1 1
v 0.02179395 2.926624E-17 -0.2000001 1 1 1
v 0.441794 0.05 -0.2 1 1 1
v 0.4417939 0.05 0.2000001 1 1 1
v -0.3782061 2.926624E-17 0.6200001 1 1 1
v 0.02179392 2.926624E-17 0.6200001 1 1 1
v -0.3782061 2.926624E-17 0.2000001 1 1 1
v 0.02179392 2.926624E-17 0.2000001 1 1 1
v 0.02179392 0.05 0.6200001 1 1 1
v -0.3782061 0.05 0.6200001 1 1 1
v 0.4417939 2.926624E-17 0.6000001 1 1 1
v 0.441794 2.926624E-17 0.2000001 1 1 1
v 0.4417939 0.05 0.6000001 1 1 1
v 0.441794 0.05 0.2000001 1 1 1
v 0.4217939 2.926624E-17 0.6200001 1 1 1
v 0.4217939 0.05 0.6200001 1 1 1
v 0.02179389 2.926624E-17 0.6200001 1 1 1
v 0.02179389 0.05 0.6200001 1 1 1
v 0.02179395 2.926624E-17 0.2 1 1 1
v 0.4417939 0.4 0.2000001 1 1 1
v 0.441794 0.4 -0.2 1 1 1
v 0.02179389 0.4 0.2 1 1 1
v 0.02179395 0.4 -0.2000001 1 1 1
v 0.441794 0.45 -0.2 1 1 1
v 0.4417939 0.45 0.2000001 1 1 1
v 0.4217939 0.45 0.2000001 1 1 1
v 0.421794 0.45 -0.2 1 1 1
v 0.4417939 0.4 0.6000001 1 1 1
v 0.441794 0.4 0.2000001 1 1 1
v 0.4417939 0.45 0.6000001 1 1 1
v 0.441794 0.45 0.2000001 1 1 1
v 0.4217939 0.4 0.6200001 1 1 1
v 0.4217939 0.45 0.6200001 1 1 1
v 0.02179389 0.4 0.6200001 1 1 1
v 0.02179389 0.45 0.6200001 1 1 1
v 0.02179395 0.4 0.2 1 1 1
v 0.421794 0.45 0.2000001 1 1 1
v 0.4217939 0.45 0.6000001 1 1 1
v 0.02179389 0.45 0.6000001 1 1 1
v -0.3782061 0.4 0.6200001 1 1 1
v 0.02179392 0.4 0.6200001 1 1 1
v -0.3782061 0.4 0.2000001 1 1 1
v 0.02179392 0.4 0.2000001 1 1 1
v 0.02179392 0.45 0.6200001 1 1 1
v -0.3782061 0.45 0.6200001 1 1 1
v -0.3782061 0.45 0.6000001 1 1 1
v 0.02179392 0.45 0.6000001 1 1 1
v -0.3782061 0.8 0.6200001 1 1 1
v 0.02179392 0.8 0.6200001 1 1 1
v -0.3782061 0.8 0.2000001 1 1 1
v 0.02179392 0.8 0.2000001 1 1 1
v 0.02179392 0.85 0.6200001 1 1 1
v -0.3782061 0.85 0.6200001 1 1 1
v -0.3782061 0.85 0.6000001 1 1 1
v 0.02179392 0.85 0.6000001 1 1 1
v 0.4417939 0.8 0.2000001 1 1 1
v 0.441794 0.8 -0.2 1 1 1
v 0.02179389 0.8 0.2 1 1 1
v 0.02179395 0.8 -0.2000001 1 1 1
v 0.441794 0.85 -0.2 1 1 1
v 0.4417939 0.85 0.2000001 1 1 1
v 0.4217939 0.85 0.2000001 1 1 1
v 0.421794 0.85 -0.2 1 1 1
v 0.4417939 0.8 0.6000001 1 1 1
v 0.441794 0.8 0.2000001 1 1 1
v 0.4417939 0.85 0.6000001 1 1 1
v 0.441794 0.85 0.2000001 1 1 1
v 0.4217939 0.8 0.6200001 1 1 1
v 0.4217939 0.85 0.6200001 1 1 1
v 0.02179389 0.8 0.6200001 1 1 1
v 0.02179389 0.85 0.6200001 1 1 1
v 0.02179395 0.8 0.2 1 1 1
v 0.421794 0.85 0.2000001 1 1 1
v 0.4217939 0.85 0.6000001 1 1 1
v 0.02179389 0.85 0.6000001 1 1 1
v -0.178206 1.25 0.4400001 1 1 1
v -0.198206 1.25 0.4200001 1 1 1
v 0.221794 1.25 0.44 1 1 1
v 0.241794 1.25 0.42 1 1 1
v 0.221794 1.25 0.42 1 1 1
v 0.2417939 1.25 0.01999997 1 1 1
v -0.178206 1.25 0.4200001 1 1 1
v 0.221794 1.25 0.01999997 1 1 1
v -0.1782061 1.25 0.02000003 1 1 1
v -0.1982061 1.25 0.02000003 1 1 1
v 0.221794 1.25 -1.490116E-08 1 1 1
v -0.1782061 1.25 4.470348E-08 1 1 1
v -0.178206 1.2 0.4400001 1 1 1
v 0.221794 1.2 0.44 1 1 1
v -0.198206 1.2 0.4200001 1 1 1
v -0.1982061 1.2 0.02000003 1 1 1
v 0.241794 1.2 0.42 1 1 1
v 0.2417939 1.2 0.01999997 1 1 1
v -0.1782061 1.2 4.470348E-08 1 1 1
v 0.221794 1.2 -1.490116E-08 1 1 1
v -0.1382061 1.309701 0.05880573 1 1 1
v -0.138206 1.390299 0.3811944 1 1 1
v -0.1382061 1.329104 0.05395502 1 1 1
v -0.138206 1.409701 0.3763436 1 1 1
v 0.181794 1.329104 0.05395499 1 1 1
v 0.181794 1.309701 0.0588057 1 1 1
v 0.181794 1.390299 0.3811943 1 1 1
v 0.181794 1.409701 0.3763436 1 1 1
v -0.1382061 1.324254 0.03455217 1 1 1
v -0.1382061 1.304851 0.03940287 1 1 1
v 0.181794 1.324254 0.03455214 1 1 1
v 0.181794 1.304851 0.03940284 1 1 1
v -0.1582061 1.309701 0.05880573 1 1 1
v -0.1582061 1.329104 0.05395502 1 1 1
v -0.158206 1.390299 0.3811944 1 1 1
v -0.158206 1.409701 0.3763436 1 1 1
v -0.138206 1.395149 0.4005972 1 1 1
v -0.138206 1.414552 0.3957465 1 1 1
v 0.181794 1.395149 0.4005972 1 1 1
v 0.181794 1.414552 0.3957465 1 1 1
v 0.201794 1.309701 0.0588057 1 1 1
v 0.201794 1.390299 0.3811943 1 1 1
v 0.201794 1.329104 0.05395499 1 1 1
v 0.201794 1.409701 0.3763436 1 1 1
v 0.4217939 0.3 -0.6 1 1 1
v 0.4217939 0.3 -0.77 1 1 1
v -0.3782061 0.3 -0.6 1 1 1
v 0.4130071 0.3 -0.7912133 1 1 1
v 0.391794 0.3 -0.8000001 1 1 1
v -0.348206 0.3 -0.8000001 1 1 1
v -0.3694192 0.3 -0.7912133 1 1 1
v -0.3782061 0.3 -0.77 1 1 1
v 0.391794 0.35 -0.77 1 1 1
v -0.348206 0.35 -0.77 1 1 1
v 0.391794 0.4 -0.77 1 1 1
v -0.348206 0.4 -0.77 1 1 1
v -0.348206 0.4 -0.8000001 1 1 1
v 0.391794 0.4 -0.8000001 1 1 1
v 0.4217939 0.4 -0.77 1 1 1
v 0.4217939 0.4 -0.6 1 1 1
v -0.3694192 0.4 -0.7912133 1 1 1
v -0.3782061 0.4 -0.77 1 1 1
v -0.348206 0.4 -0.6 1 1 1
v -0.348206 0.35 -0.6 1 1 1
v -0.3782061 0.4 -0.6 1 1 1
v 0.391794 0.4 -0.6 1 1 1
v 0.4130071 0.4 -0.7912133 1 1 1
v 0.391794 0.35 -0.6 1 1 1
v -0.3782061 1.2 -0.6000001 1 1 1
v -0.3782061 1.23 -0.6000001 1 1 1
v -0.3782061 1.2 -0.2000001 1 1 1
v -0.3782061 1.23 -0.2000001 1 1 1
v 0.02179392 1.2 -0.6000001 1 1 1
v 0.02179392 1.23 -0.6000001 1 1 1
v -0.3282061 1.28 -0.5500001 1 1 1
v -0.3282061 1.2 -0.5500001 1 1 1
v -0.3282061 1.28 -0.2000001 1 1 1
v -0.3282061 1.2 -0.2000001 1 1 1
v -0.3782061 1.23 -0.6200001 1 1 1
v 0.02179392 1.23 -0.6200001 1 1 1
v -0.3782061 1.28 -0.6200001 1 1 1
v 0.02179392 1.28 -0.6200001 1 1 1
v -0.3982061 1.23 -0.2000001 1 1 1
v -0.3982061 1.23 -0.6000001 1 1 1
v 0.02179392 1.28 -0.5500001 1 1 1
v -0.3982061 1.28 -0.2000001 1 1 1
v -0.3982061 1.28 -0.6000001 1 1 1
v 0.02179392 1.2 -0.5500001 1 1 1
v 0.421794 1.2 -0.6000001 1 1 1
v 0.421794 1.23 -0.6000001 1 1 1
v 0.02179395 1.2 -0.6000001 1 1 1
v 0.02179395 1.23 -0.6000001 1 1 1
v 0.4217939 1.2 -0.2 1 1 1
v 0.4217939 1.23 -0.2 1 1 1
v 0.371794 1.28 -0.5500001 1 1 1
v 0.371794 1.2 -0.5500001 1 1 1
v 0.02179393 1.28 -0.5500001 1 1 1
v 0.02179393 1.2 -0.5500001 1 1 1
v 0.441794 1.23 -0.6000001 1 1 1
v 0.4417939 1.23 -0.2 1 1 1
v 0.441794 1.28 -0.6000001 1 1 1
v 0.4417939 1.28 -0.2 1 1 1
v 0.02179395 1.23 -0.6200001 1 1 1
v 0.421794 1.23 -0.6200001 1 1 1
v 0.3717939 1.28 -0.2 1 1 1
v 0.02179395 1.28 -0.6200001 1 1 1
v 0.421794 1.28 -0.6200001 1 1 1
v 0.3717939 1.2 -0.2 1 1 1
v -0.3782061 1.23 0.2 1 1 1
v -0.3782061 1.23 -0.2 1 1 1
v -0.3982061 1.23 0.2 1 1 1
v -0.3982061 1.23 -0.2 1 1 1
v -0.3782061 1.2 -0.2 1 1 1
v -0.3782061 1.2 0.2 1 1 1
v -0.3282061 1.28 -0.2 1 1 1
v -0.3282061 1.2 -0.2 1 1 1
v -0.3282061 1.28 0.2 1 1 1
v -0.3282061 1.2 0.2 1 1 1
v -0.3982061 1.28 0.2 1 1 1
v -0.3982061 1.28 -0.2 1 1 1
v -0.3782061 1.2 0.6000001 1 1 1
v -0.3782061 1.23 0.6000001 1 1 1
v 0.02179398 1.2 0.6000001 1 1 1
v 0.02179398 1.23 0.6000001 1 1 1
v -0.3782061 1.2 0.2000001 1 1 1
v -0.3782061 1.23 0.2000001 1 1 1
v -0.3282061 1.28 0.5500001 1 1 1
v -0.3282061 1.2 0.5500001 1 1 1
v 0.02179396 1.28 0.5500001 1 1 1
v 0.02179396 1.2 0.5500001 1 1 1
v -0.3982061 1.23 0.6000001 1 1 1
v -0.3982061 1.23 0.2000001 1 1 1
v -0.3982061 1.28 0.6000001 1 1 1
v -0.3982061 1.28 0.2000001 1 1 1
v 0.02179398 1.23 0.6200001 1 1 1
v -0.3782061 1.23 0.6200001 1 1 1
v -0.3282061 1.28 0.2000001 1 1 1
v 0.02179398 1.28 0.6200001 1 1 1
v -0.3782061 1.28 0.6200001 1 1 1
v -0.3282061 1.2 0.2000001 1 1 1
v 0.4217939 1.2 0.6000001 1 1 1
v 0.4217939 1.23 0.6000001 1 1 1
v 0.4217939 1.2 0.2000001 1 1 1
v 0.4217939 1.23 0.2000001 1 1 1
v 0.02179395 1.2 0.6000001 1 1 1
v 0.02179395 1.23 0.6000001 1 1 1
v 0.3717939 1.28 0.5500001 1 1 1
v 0.3717939 1.2 0.5500001 1 1 1
v 0.3717939 1.28 0.2000001 1 1 1
v 0.3717939 1.2 0.2000001 1 1 1
v 0.4217939 1.23 0.6200001 1 1 1
v 0.02179395 1.23 0.6200001 1 1 1
v 0.4217939 1.28 0.6200001 1 1 1
v 0.02179395 1.28 0.6200001 1 1 1
v 0.4417939 1.23 0.2000001 1 1 1
v 0.4417939 1.23 0.6000001 1 1 1
v 0.02179395 1.28 0.5500001 1 1 1
v 0.4417939 1.28 0.2000001 1 1 1
v 0.4417939 1.28 0.6000001 1 1 1
v 0.02179395 1.2 0.5500001 1 1 1
v 0.4217939 1.23 -0.2 1 1 1
v 0.4217939 1.23 0.2 1 1 1
v 0.4417939 1.23 -0.2 1 1 1
v 0.4417939 1.23 0.2 1 1 1
v 0.4217939 1.2 0.2 1 1 1
v 0.4217939 1.2 -0.2 1 1 1
v 0.3717939 1.28 0.2 1 1 1
v 0.3717939 1.2 0.2 1 1 1
v 0.3717939 1.28 -0.2 1 1 1
v 0.3717939 1.2 -0.2 1 1 1
v 0.4417939 1.28 -0.2 1 1 1
v 0.4417939 1.28 0.2 1 1 1
v 0.2827175 1.334 -0.405534 1 1 1
v 0.2740771 1.334 -0.3846744 1 1 1
v 0.2974675 1.3635 -0.405534 1 1 1
v 0.2845069 1.3635 -0.3742446 1 1 1
v 0.2237175 1.334 -0.405534 1 1 1
v 0.2089675 1.3635 -0.405534 1 1 1
v 0.2323578 1.334 -0.3846744 1 1 1
v 0.221928 1.3635 -0.3742446 1 1 1
v 0.2740771 1.2 -0.3846744 1 1 1
v 0.2532175 1.2 -0.376034 1 1 1
v 0.2532175 1.334 -0.376034 1 1 1
v 0.2845069 1.3635 -0.4368235 1 1 1
v 0.2740771 1.334 -0.4263937 1 1 1
v 0.2532175 1.3635 -0.361284 1 1 1
v 0.2532175 1.334 -0.435034 1 1 1
v 0.2532175 1.3635 -0.449784 1 1 1
v 0.2323578 1.334 -0.4263937 1 1 1
v 0.221928 1.3635 -0.4368235 1 1 1
v 0.2827175 1.393 -0.405534 1 1 1
v 0.2740771 1.393 -0.3846744 1 1 1
v 0.2323578 1.2 -0.3846744 1 1 1
v 0.2323578 1.2 -0.4263937 1 1 1
v 0.2532175 1.2 -0.435034 1 1 1
v 0.2237175 1.2 -0.405534 1 1 1
v 0.2323578 1.393 -0.4263937 1 1 1
v 0.2532175 1.393 -0.435034 1 1 1
v 0.2740771 1.393 -0.4263937 1 1 1
v 0.2532175 1.393 -0.376034 1 1 1
v 0.2323578 1.393 -0.3846744 1 1 1
v 0.2237175 1.393 -0.405534 1 1 1
v 0.2740771 1.2 -0.4263937 1 1 1
v 0.2827175 1.2 -0.405534 1 1 1
v 0.1827174 1.334 -0.405534 1 1 1
v 0.1740771 1.334 -0.3846744 1 1 1
v 0.1974674 1.3635 -0.405534 1 1 1
v 0.1845069 1.3635 -0.3742446 1 1 1
v 0.1237174 1.334 -0.405534 1 1 1
v 0.1089674 1.3635 -0.405534 1 1 1
v 0.1323578 1.334 -0.3846744 1 1 1
v 0.121928 1.3635 -0.3742446 1 1 1
v 0.1740771 1.2 -0.3846744 1 1 1
v 0.1532174 1.2 -0.376034 1 1 1
v 0.1532174 1.334 -0.376034 1 1 1
v 0.1845069 1.3635 -0.4368235 1 1 1
v 0.1740771 1.334 -0.4263937 1 1 1
v 0.1532174 1.3635 -0.361284 1 1 1
v 0.1532174 1.334 -0.435034 1 1 1
v 0.1532174 1.3635 -0.449784 1 1 1
v 0.1323578 1.334 -0.4263937 1 1 1
v 0.121928 1.3635 -0.4368235 1 1 1
v 0.1827174 1.393 -0.405534 1 1 1
v 0.1740771 1.393 -0.3846744 1 1 1
v 0.1323578 1.2 -0.3846744 1 1 1
v 0.1323578 1.2 -0.4263937 1 1 1
v 0.1532174 1.2 -0.435034 1 1 1
v 0.1237174 1.2 -0.405534 1 1 1
v 0.1323578 1.393 -0.4263937 1 1 1
v 0.1532174 1.393 -0.435034 1 1 1
v 0.1740771 1.393 -0.4263937 1 1 1
v 0.1532174 1.393 -0.376034 1 1 1
v 0.1323578 1.393 -0.3846744 1 1 1
v 0.1237174 1.393 -0.405534 1 1 1
v 0.1740771 1.2 -0.4263937 1 1 1
v 0.1827174 1.2 -0.405534 1 1 1
v 0.371794 1.08 -0.6200001 1 1 1
v 0.371794 0.92 -0.6200001 1 1 1
v 0.371794 1.08 -0.6000001 1 1 1
v 0.371794 0.92 -0.6000001 1 1 1
v 0.3517939 0.9 -0.6200001 1 1 1
v 0.3517939 0.9 -0.6000001 1 1 1
v 0.341794 0.93 -0.6200001 1 1 1
v 0.341794 1.07 -0.6200001 1 1 1
v 0.341794 0.93 -0.6000001 1 1 1
v 0.341794 1.07 -0.6000001 1 1 1
v 0.3517939 1.1 -0.6200001 1 1 1
v 0.3517939 1.1 -0.6000001 1 1 1
v -0.328206 1.08 -0.6200001 1 1 1
v -0.308206 1.1 -0.6200001 1 1 1
v -0.328206 1.08 -0.6000001 1 1 1
v -0.308206 1.1 -0.6000001 1 1 1
v -0.298206 1.07 -0.6200001 1 1 1
v -0.298206 0.93 -0.6200001 1 1 1
v -0.298206 1.07 -0.6000001 1 1 1
v -0.298206 0.93 -0.6000001 1 1 1
v -0.308206 0.9 -0.6000001 1 1 1
v -0.308206 0.9 -0.6200001 1 1 1
v -0.328206 0.92 -0.6200001 1 1 1
v -0.328206 0.92 -0.6000001 1 1 1
v -0.398206 0.8 -0.6000001 1 1 1
v -0.398206 0.85 -0.6000001 1 1 1
v -0.398206 0.8 -0.2000001 1 1 1
v -0.398206 0.85 -0.2000001 1 1 1
v 0.4417939 0.85 -0.6000001 1 1 1
v 0.4417939 0.8 -0.6000001 1 1 1
v 0.4417939 0.85 -0.2000001 1 1 1
v 0.4417939 0.8 -0.2000001 1 1 1
v -0.378206 0.8 -0.6200001 1 1 1
v 0.421794 0.8 -0.6200001 1 1 1
v -0.378206 0.85 -0.6200001 1 1 1
v 0.421794 0.85 -0.6200001 1 1 1
v -0.378206 0.8 -0.2000001 1 1 1
v -0.378206 0.8 -0.6000001 1 1 1
v 0.421794 0.8 -0.6000001 1 1 1
v 0.421794 0.8 -0.2000001 1 1 1
v -0.378206 0.85 -0.2000001 1 1 1
v -0.378206 0.85 -0.6000001 1 1 1
v 0.421794 0.85 -0.6000001 1 1 1
v 0.421794 0.85 -0.2000001 1 1 1
v 0.321794 0.95 -0.5999999 1 1 1
v 0.321794 1.05 -0.5999999 1 1 1
v 0.321794 0.95 -0.5799999 1 1 1
v 0.321794 1.05 -0.5799999 1 1 1
v 0.231794 0.95 -0.5999999 1 1 1
v -0.2782061 0.95 -0.5799999 1 1 1
v 0.211794 0.95 -0.5999999 1 1 1
v 0.03179396 0.95 -0.5999999 1 1 1
v 0.01179396 0.95 -0.5999999 1 1 1
v -0.168206 0.95 -0.5999999 1 1 1
v -0.188206 0.95 -0.5999999 1 1 1
v -0.2782061 0.95 -0.5999999 1 1 1
v -0.2782061 1.05 -0.5999999 1 1 1
v -0.2782061 1.05 -0.5799999 1 1 1
v 0.231794 1.05 -0.5999999 1 1 1
v 0.211794 1.05 -0.5999999 1 1 1
v 0.03179396 1.05 -0.5999999 1 1 1
v 0.01179396 1.05 -0.5999999 1 1 1
v -0.168206 1.05 -0.5999999 1 1 1
v -0.188206 1.05 -0.5999999 1 1 1
v -0.298206 1.07 -0.5999999 1 1 1
v -0.298206 0.93 -0.5999999 1 1 1
v 0.341794 0.93 -0.5999999 1 1 1
v 0.341794 1.07 -0.5999999 1 1 1
v 0.371794 0.68 -0.6200001 1 1 1
v 0.371794 0.52 -0.6200001 1 1 1
v 0.371794 0.68 -0.6000001 1 1 1
v 0.371794 0.52 -0.6000001 1 1 1
v 0.3517939 0.5 -0.6200001 1 1 1
v 0.3517939 0.5 -0.6000001 1 1 1
v 0.341794 0.53 -0.6200001 1 1 1
v 0.341794 0.67 -0.6200001 1 1 1
v 0.341794 0.53 -0.6000001 1 1 1
v 0.341794 0.67 -0.6000001 1 1 1
v 0.3517939 0.7 -0.6200001 1 1 1
v 0.3517939 0.7 -0.6000001 1 1 1
v -0.328206 0.68 -0.6200001 1 1 1
v -0.308206 0.7 -0.6200001 1 1 1
v -0.328206 0.68 -0.6000001 1 1 1
v -0.308206 0.7 -0.6000001 1 1 1
v -0.298206 0.67 -0.6200001 1 1 1
v -0.298206 0.53 -0.6200001 1 1 1
v -0.298206 0.67 -0.6000001 1 1 1
v -0.298206 0.53 -0.6000001 1 1 1
v -0.308206 0.5 -0.6000001 1 1 1
v -0.308206 0.5 -0.6200001 1 1 1
v -0.328206 0.52 -0.6200001 1 1 1
v -0.328206 0.52 -0.6000001 1 1 1
v -0.398206 0.4 -0.6000001 1 1 1
v -0.398206 0.45 -0.6000001 1 1 1
v -0.398206 0.4 -0.2000001 1 1 1
v -0.398206 0.45 -0.2000001 1 1 1
v 0.4417939 0.45 -0.6000001 1 1 1
v 0.4417939 0.4 -0.6000001 1 1 1
v 0.4417939 0.45 -0.2000001 1 1 1
v 0.4417939 0.4 -0.2000001 1 1 1
v -0.378206 0.4 -0.6200001 1 1 1
v 0.421794 0.4 -0.6200001 1 1 1
v -0.378206 0.45 -0.6200001 1 1 1
v 0.421794 0.45 -0.6200001 1 1 1
v -0.378206 0.4 -0.2000001 1 1 1
v -0.378206 0.4 -0.6000001 1 1 1
v 0.421794 0.4 -0.6000001 1 1 1
v 0.421794 0.4 -0.2000001 1 1 1
v -0.378206 0.45 -0.2000001 1 1 1
v -0.378206 0.45 -0.6000001 1 1 1
v 0.421794 0.45 -0.6000001 1 1 1
v 0.421794 0.45 -0.2000001 1 1 1
v 0.321794 0.55 -0.5999999 1 1 1
v 0.321794 0.65 -0.5999999 1 1 1
v 0.321794 0.55 -0.5799999 1 1 1
v 0.321794 0.65 -0.5799999 1 1 1
v 0.231794 0.55 -0.5999999 1 1 1
v -0.2782061 0.55 -0.5799999 1 1 1
v 0.211794 0.55 -0.5999999 1 1 1
v 0.03179396 0.55 -0.5999999 1 1 1
v 0.01179396 0.55 -0.5999999 1 1 1
v -0.168206 0.55 -0.5999999 1 1 1
v -0.188206 0.55 -0.5999999 1 1 1
v -0.2782061 0.55 -0.5999999 1 1 1
v -0.2782061 0.65 -0.5999999 1 1 1
v -0.2782061 0.65 -0.5799999 1 1 1
v 0.231794 0.65 -0.5999999 1 1 1
v 0.211794 0.65 -0.5999999 1 1 1
v 0.03179396 0.65 -0.5999999 1 1 1
v 0.01179396 0.65 -0.5999999 1 1 1
v -0.168206 0.65 -0.5999999 1 1 1
v -0.188206 0.65 -0.5999999 1 1 1
v -0.298206 0.67 -0.5999999 1 1 1
v -0.298206 0.53 -0.5999999 1 1 1
v 0.341794 0.53 -0.5999999 1 1 1
v 0.341794 0.67 -0.5999999 1 1 1
v -0.4289339 0.05000001 -0.5587279 1 1 1
v -0.416206 0.05000001 -0.564 1 1 1
v -0.4289339 1.164 -0.5587279 1 1 1
v -0.416206 1.164 -0.564 1 1 1
v -0.398206 1.164 -0.546 1 1 1
v -0.398206 0.05000001 -0.546 1 1 1
v -0.4034781 1.164 -0.5332721 1 1 1
v -0.4034781 0.05000001 -0.5332721 1 1 1
v -0.4034781 0.05000001 -0.5587279 1 1 1
v -0.4034781 1.164 -0.5587279 1 1 1
v -0.416206 0.05000001 -0.528 1 1 1
v -0.416206 1.164 -0.528 1 1 1
v -0.4289339 0.05000001 -0.5332721 1 1 1
v -0.4289339 1.164 -0.5332721 1 1 1
v -0.434206 0.05000001 -0.546 1 1 1
v -0.434206 1.164 -0.546 1 1 1
v -0.378206 1.164 -0.528 1 1 1
v -0.378206 1.164 -0.564 1 1 1
v -0.434206 1.164 -0.528 1 1 1
v -0.434206 1.164 -0.564 1 1 1
v -0.378206 1.2 -0.564 1 1 1
v -0.378206 1.2 -0.528 1 1 1
v -0.424206 1.2 -0.564 1 1 1
v -0.424206 1.2 -0.528 1 1 1
v -0.434206 1.19 -0.528 1 1 1
v -0.434206 1.19 -0.564 1 1 1
v -0.4342994 1.078707 -0.5640934 1 1 1
v -0.4342994 1.107138 -0.5640934 1 1 1
v -0.4417939 1.078707 -0.546 1 1 1
v -0.4417939 1.107138 -0.546 1 1 1
v -0.416206 1.078707 -0.5715879 1 1 1
v -0.416206 1.107138 -0.5715879 1 1 1
v -0.3906181 1.107138 -0.546 1 1 1
v -0.3906181 1.078707 -0.546 1 1 1
v -0.3981126 1.107138 -0.5279067 1 1 1
v -0.3981126 1.078707 -0.5279067 1 1 1
v -0.3981126 1.107138 -0.5640934 1 1 1
v -0.3981126 1.078707 -0.5640934 1 1 1
v -0.4342994 1.078707 -0.5279067 1 1 1
v -0.4342994 1.107138 -0.5279067 1 1 1
v -0.416206 1.078707 -0.5204121 1 1 1
v -0.416206 1.107138 -0.5204121 1 1 1
v -0.4342994 0.527724 -0.5640934 1 1 1
v -0.4342994 0.556155 -0.5640934 1 1 1
v -0.4417939 0.527724 -0.546 1 1 1
v -0.4417939 0.556155 -0.546 1 1 1
v -0.416206 0.527724 -0.5715879 1 1 1
v -0.416206 0.556155 -0.5715879 1 1 1
v -0.3906181 0.556155 -0.546 1 1 1
v -0.3906181 0.527724 -0.546 1 1 1
v -0.3981126 0.556155 -0.5279067 1 1 1
v -0.3981126 0.527724 -0.5279067 1 1 1
v -0.3981126 0.556155 -0.5640934 1 1 1
v -0.3981126 0.527724 -0.5640934 1 1 1
v -0.4342994 0.527724 -0.5279067 1 1 1
v -0.4342994 0.556155 -0.5279067 1 1 1
v -0.416206 0.527724 -0.5204121 1 1 1
v -0.416206 0.556155 -0.5204121 1 1 1
v -0.4342994 0.2522325 -0.5640934 1 1 1
v -0.4342994 0.2806635 -0.5640934 1 1 1
v -0.4417939 0.2522325 -0.546 1 1 1
v -0.4417939 0.2806635 -0.546 1 1 1
v -0.416206 0.2522325 -0.5715879 1 1 1
v -0.416206 0.2806635 -0.5715879 1 1 1
v -0.3906181 0.2806635 -0.546 1 1 1
v -0.3906181 0.2522325 -0.546 1 1 1
v -0.3981126 0.2806635 -0.5279067 1 1 1
v -0.3981126 0.2522325 -0.5279067 1 1 1
v -0.3981126 0.2806635 -0.5640934 1 1 1
v -0.3981126 0.2522325 -0.5640934 1 1 1
v -0.4342994 0.2522325 -0.5279067 1 1 1
v -0.4342994 0.2806635 -0.5279067 1 1 1
v -0.416206 0.2522325 -0.5204121 1 1 1
v -0.416206 0.2806635 -0.5204121 1 1 1
v -0.4342994 0.8032155 -0.5640934 1 1 1
v -0.4342994 0.8316465 -0.5640934 1 1 1
v -0.4417939 0.8032155 -0.546 1 1 1
v -0.4417939 0.8316465 -0.546 1 1 1
v -0.416206 0.8032155 -0.5715879 1 1 1
v -0.416206 0.8316465 -0.5715879 1 1 1
v -0.3906181 0.8316465 -0.546 1 1 1
v -0.3906181 0.8032155 -0.546 1 1 1
v -0.3981126 0.8316465 -0.5279067 1 1 1
v -0.3981126 0.8032155 -0.5279067 1 1 1
v -0.3981126 0.8316465 -0.5640934 1 1 1
v -0.3981126 0.8032155 -0.5640934 1 1 1
v -0.4342994 0.8032155 -0.5279067 1 1 1
v -0.4342994 0.8316465 -0.5279067 1 1 1
v -0.416206 0.8032155 -0.5204121 1 1 1
v -0.416206 0.8316465 -0.5204121 1 1 1
v -0.208206 2.097441E-16 -0.6200001 1 1 1
v -0.208206 0.27 -0.6200001 1 1 1
v -0.208206 2.097441E-16 -0.6000001 1 1 1
v -0.208206 0.27 -0.6000001 1 1 1
v 0.251794 0.27 -0.6200001 1 1 1
v 0.251794 2.097441E-16 -0.6200001 1 1 1
v 0.251794 0.27 -0.6000001 1 1 1
v 0.251794 2.097441E-16 -0.6000001 1 1 1
v 0.281794 0.05 -0.6200001 1 1 1
v 0.4217939 0.05 -0.6200001 1 1 1
v 0.4417939 0.05 -0.2000001 1 1 1
v 0.4417939 0.05 -0.6000001 1 1 1
v 0.281794 0.28 -0.6200001 1 1 1
v 0.4417939 2.926624E-17 -0.6000001 1 1 1
v 0.4417939 2.926624E-17 -0.2000001 1 1 1
v 0.4217939 6.90591E-17 -0.6200001 1 1 1
v -0.2382061 0.28 -0.6200001 1 1 1
v -0.2382061 0.05 -0.6200001 1 1 1
v -0.218206 0.3 -0.6200001 1 1 1
v 0.2617939 0.3 -0.6200001 1 1 1
v -0.3782061 0.05 -0.6200001 1 1 1
v -0.3782061 4.810166E-17 -0.6200001 1 1 1
v -0.3982061 0.05 -0.6000001 1 1 1
v -0.3982061 2.873295E-17 -0.6000001 1 1 1
v -0.3982061 0.05 -0.2000001 1 1 1
v -0.3982061 2.926624E-17 -0.2000001 1 1 1
v 0.04374257 0.03688905 -0.6 1 1 1
v 0.04374257 0.05 -0.6 1 1 1
v -0.0001546443 0.03688905 -0.6 1 1 1
v -0.0001546443 0.05 -0.6 1 1 1
v 0.04374257 0.03688905 -0.611 1 1 1
v -0.0001546443 0.03688905 -0.611 1 1 1
v 0.04374257 0.05 -0.611 1 1 1
v -0.0001546443 0.05 -0.611 1 1 1
v -0.378206 1.07 -0.1199999 1 1 1
v -0.398206 1.07 -0.1199999 1 1 1
v -0.3782059 1.07 0.1200002 1 1 1
v -0.3982059 1.07 0.1200002 1 1 1
v -0.398206 0.93 -0.1199999 1 1 1
v -0.378206 0.93 -0.1199999 1 1 1
v -0.3982059 0.93 0.1200002 1 1 1
v -0.3782059 0.93 0.1200002 1 1 1
v -0.378206 0.9 -0.1299999 1 1 1
v -0.398206 0.9 -0.1299999 1 1 1
v -0.3782059 0.9 0.1300002 1 1 1
v -0.3982059 0.9 0.1300002 1 1 1
v -0.3982059 0.92 0.1500002 1 1 1
v -0.3982059 1.08 0.1500002 1 1 1
v -0.3782059 0.92 0.1500002 1 1 1
v -0.3782059 1.08 0.1500002 1 1 1
v -0.398206 1.08 -0.1499999 1 1 1
v -0.398206 0.92 -0.1499999 1 1 1
v -0.378206 1.08 -0.1499999 1 1 1
v -0.378206 0.92 -0.1499999 1 1 1
v -0.398206 1.1 -0.1299999 1 1 1
v -0.378206 1.1 -0.1299999 1 1 1
v -0.3982059 1.1 0.1300002 1 1 1
v -0.3782059 1.1 0.1300002 1 1 1
v -0.378206 0.8 -0.1999999 1 1 1
v -0.398206 0.8 -0.1999999 1 1 1
v -0.3782059 0.8 0.2000002 1 1 1
v -0.3982059 0.8 0.2000002 1 1 1
v -0.3982059 0.85 0.2000002 1 1 1
v -0.398206 0.85 -0.1999999 1 1 1
v -0.378206 0.85 -0.1999999 1 1 1
v -0.3782059 0.85 0.2000002 1 1 1
v -0.378206 0.95 -0.09999989 1 1 1
v -0.378206 1.05 -0.09999989 1 1 1
v -0.3582059 0.95 -0.09999989 1 1 1
v -0.3582059 1.05 -0.09999989 1 1 1
v -0.3582059 1.05 0.1000002 1 1 1
v -0.378206 1.05 -0.009999853 1 1 1
v -0.378206 1.05 0.01000015 1 1 1
v -0.3782059 1.05 0.1000002 1 1 1
v -0.3782059 0.95 0.1000002 1 1 1
v -0.3582059 0.95 0.1000002 1 1 1
v -0.378206 0.95 -0.009999853 1 1 1
v -0.378206 0.95 0.01000015 1 1 1
v -0.3782061 0.8 0.6000001 1 1 1
v -0.3782061 0.8 0.2000001 1 1 1
v 0.02179398 0.8 0.6000001 1 1 1
v -0.3782061 0.8 0.2000001 1 1 1
v -0.3782061 0.8 -0.2 1 1 1
v 0.421794 0.8 -0.2 1 1 1
v 0.4217939 0.8 0.2000001 1 1 1
v 0.4217939 0.8 0.6000001 1 1 1
v 0.421794 0.8 0.2000001 1 1 1
v 0.02179389 0.8 0.6000001 1 1 1
v 0.02179392 0.8 0.6000001 1 1 1
v -0.3782061 0.8 0.6000001 1 1 1
v 0.02179392 1.2 0.6000001 1 1 1
v -0.3782061 1.2 0.6000001 1 1 1
v 0.421794 1.2 -0.2 1 1 1
v 0.4217939 1.2 0.2000001 1 1 1
v 0.4217939 1.2 0.6000001 1 1 1
v 0.421794 1.2 0.2000001 1 1 1
v 0.02179389 1.2 0.6000001 1 1 1
v -0.1782061 1.3 0.02000003 1 1 1
v 0.221794 1.3 0.01999997 1 1 1
v -0.178206 1.4 0.4200001 1 1 1
v 0.221794 1.4 0.42 1 1 1
v -0.118206 1.385448 0.3617915 1 1 1
v -0.118206 1.366045 0.3666422 1 1 1
v 0.161794 1.385448 0.3617915 1 1 1
v 0.161794 1.366045 0.3666422 1 1 1
v 0.161794 1.295149 0.08305927 1 1 1
v 0.161794 1.314552 0.07820855 1 1 1
v 0.161794 1.329851 0.1394029 1 1 1
v 0.161794 1.334701 0.1588057 1 1 1
v 0.161794 1.365299 0.2811943 1 1 1
v 0.161794 1.370149 0.3005972 1 1 1
v -0.1182061 1.295149 0.0830593 1 1 1
v -0.1182061 1.314552 0.07820858 1 1 1
v -0.1182061 1.329851 0.1394029 1 1 1
v -0.1182061 1.334701 0.1588057 1 1 1
v -0.1182061 1.365299 0.2811944 1 1 1
v -0.118206 1.370149 0.3005972 1 1 1
v 0.02179392 1.2 -0.2000001 1 1 1
v 0.02179389 1.2 -0.2000001 1 1 1
v 0.02179392 1.2 0.2 1 1 1
v 0.02179392 1.2 -0.2 1 1 1
v 0.02179392 1.2 0.2 1 1 1
v 0.02179395 1.2 0.2000001 1 1 1
v 0.02179395 1.2 -0.2 1 1 1
v 0.02179395 1.2 0.2 1 1 1
v -0.348206 8.493076E-17 -0.7699999 1 1 1
v -0.3182061 8.493076E-17 -0.7699999 1 1 1
v -0.348206 0.3 -0.7699999 1 1 1
v -0.3182061 0.3 -0.7699999 1 1 1
v -0.3182061 4.511946E-17 -0.7399999 1 1 1
v -0.348206 4.511946E-17 -0.7399999 1 1 1
v -0.3182061 0.3 -0.7399999 1 1 1
v -0.348206 0.3 -0.7399999 1 1 1
v 0.361794 -5.30817E-18 -0.7699999 1 1 1
v 0.391794 -5.30817E-18 -0.7699999 1 1 1
v 0.361794 0.3 -0.7699999 1 1 1
v 0.391794 0.3 -0.7699999 1 1 1
v 0.391794 -4.511946E-17 -0.7399999 1 1 1
v 0.361794 -4.511946E-17 -0.7399999 1 1 1
v 0.391794 0.3 -0.7399999 1 1 1
v 0.361794 0.3 -0.7399999 1 1 1
v -0.378206 1.2 -0.6000001 1 1 1
v -0.378206 1.2 -0.2000001 1 1 1
v 0.421794 1.2 -0.6000001 1 1 1
v 0.421794 1.2 -0.2000001 1 1 1
v 0.251794 2.097441E-16 -0.6000001 1 1 1
v -0.2082061 2.097441E-16 -0.6000001 1 1 1
v 0.251794 0.27 -0.6000001 1 1 1
v -0.2082061 0.27 -0.6000001 1 1 1
v -0.378206 1.2 -0.1999999 1 1 1
v -0.3782059 1.2 0.2000002 1 1 1

vn -1 0 1.192093E-07
vn 1.192093E-07 0 1
vn 1 0 1.192093E-07
vn 2.137179E-14 0 1
vn -1.192093E-07 0 1
vn 1 0 0
vn 0 0 -1
vn -1 0 0
vn 0 -1 0
vn 0 1 0
vn -0.9238796 0 0.3826836
vn -0.3826834 0 0.9238797
vn 0.9238796 0 0.3826836
vn 0.3826834 0 0.9238797
vn 0.3826836 0 0.9238796
vn -0.9238797 0 -0.3826834
vn 0.9238797 0 0.3826834
vn 0.9238796 0 -0.3826836
vn -0.3826836 0 -0.9238796
vn 0.3826834 0 -0.9238797
vn 1 0 -1.192093E-07
vn 1.1565E-07 0.2425356 0.9701427
vn -1.1565E-07 -0.2425356 -0.9701427
vn -0.3826836 -0.2240737 -0.8962949
vn 0.3826834 -0.2240737 -0.896295
vn -0.9238797 -0.09281436 -0.3712574
vn -0.9238796 0.09281436 0.3712576
vn -0.3826834 0.2240737 0.896295
vn 0.3826836 0.2240737 0.8962949
vn 0.9238796 -0.09281436 -0.3712576
vn 0.9238797 0.09281436 0.3712574
vn -2.89125E-08 0.9701425 -0.2425357
vn 0 0 1
vn -0.1950903 0 -0.9807853
vn 0.1950903 0 -0.9807853
vn 0.9807853 0 -0.1950903
vn -0.7071068 0 -0.7071068
vn -0.9807853 0 -0.1950903
vn 0.7071068 0 -0.7071068
vn -0.3826834 0 -0.9238795
vn -0.9238795 0 -0.3826834
vn 1.192093E-07 0 -1
vn 0.9238797 0 -0.3826834
vn 0.3826836 0 -0.9238796
vn -1 0 -1.192093E-07
vn -1.192093E-07 0 -1
vn 1 0 -2.122746E-13
vn 2.122746E-13 0 1
vn -1 0 2.122746E-13
vn 0.3826834 0 0.9238795
vn 0.9238795 0 0.3826834
vn -2.122746E-13 0 -1
vn 1 0 -3.681361E-13
vn -1 0 3.681361E-13
vn 0.8944272 -0.4472136 0
vn 0.6324555 -0.4472136 0.6324555
vn 0.7071068 0 0.7071068
vn -0.8944272 -0.4472136 0
vn -0.6324555 -0.4472136 0.6324555
vn -0.7071068 0 0.7071068
vn 0.6324555 -0.4472136 -0.6324555
vn 0 -0.4472136 0.8944272
vn 0 -0.4472136 -0.8944272
vn -0.6324555 -0.4472136 -0.6324555
vn 0.8944272 0.4472136 0
vn 0.6324555 0.4472136 0.6324555
vn -0.6324555 0.4472136 -0.6324555
vn 0 0.4472136 -0.8944272
vn 0.6324555 0.4472136 -0.6324555
vn 0 0.4472136 0.8944272
vn -0.6324555 0.4472136 0.6324555
vn -0.8944272 0.4472136 0
vn 0.9238795 0.3826834 0
vn 0.9238795 -0.3826834 0
vn 0.3826834 -0.9238795 0
vn -0.7071068 0.7071068 0
vn -0.7071068 -0.7071068 0
vn 0.3826834 0.9238795 0
vn -0.9238795 0.3826834 0
vn -0.3826834 0.9238795 0
vn 0.7071068 -0.7071068 0
vn 0.7071068 0.7071068 0
vn -0.3826834 -0.9238795 0
vn -0.9238795 -0.3826834 0
vn 0.9238795 0 -0.3826834
vn 0.3826834 0 -0.9238795
vn -0.7071068 0 -0.7071068
vn 0.7071068 0 0.7071068
vn 0.7071068 0 -0.7071068
vn -0.7071068 0 0.7071068
vn -0.3662924 0.9304998 0
vn -0.9179972 0.3965869 0
vn 8.429372E-08 -0.7071068 0.707107
vn -8.429372E-08 -0.7071068 -0.707107
vn 8.429372E-08 0.7071068 0.707107
vn -8.429372E-08 0.7071068 -0.707107
vn -4.561943E-08 -0.9238795 -0.3826836
vn 4.561943E-08 -0.9238795 0.3826836
vn 1.10135E-07 -0.3826834 0.9238799
vn 1.10135E-07 0.3826834 0.9238799
vn -1.10135E-07 0.3826834 -0.9238799
vn -1.10135E-07 -0.3826834 -0.9238799
vn -4.561943E-08 0.9238795 -0.3826836
vn 4.561943E-08 0.9238795 0.3826836
vn -1 0 1.192093E-07

vt 0.96875 0.3
vt 0.96875 0.475
vt 0.96875 0.415
vt 0.96875 0.425
vt 0.59375 0.275
vt 0.59375 0.3
vt 0.59375 0.3216087
vt 0.59375 0.3772609
vt 0.59375 0.4523914
vt 0.59375 0.3953477
vt 0.59375 0.4704783
vt 0.59375 0.390826
vt 0.59375 0.3727391
vt 0.59375 0.4569132
vt 0.59375 0.475
vt 0.59375 0.375
vt 0.59375 0.395
vt 0.59375 0.425
vt 0.59375 0.450544
vt 0.59375 0.462772
vt 0.59375 0.415
vt 0.59375 0.335
vt 0.59375 0.325
vt 0.59375 0.34
vt 0.59375 0.41
vt 0.59375 0.2864286
vt 0.59375 0.3435714
vt 0.59375 0.355
vt 0.59375 0.3972222
vt 0.71875 0.3
vt 0.71875 0.475
vt 0.71875 0.3682174
vt 0.71875 0.3216087
vt 0.71875 0.4614349
vt 0.71875 0.4478697
vt 0.71875 0.4297829
vt 0.71875 0.3636957
vt 0.71875 0.3817826
vt 0.71875 0.3960435
vt 0.71875 0.4005652
vt 0.71875 0.4290871
vt 0.71875 0.4336088
vt 0.71875 0.4523914
vt 0.71875 0.3772609
vt 0.71875 0.4569132
vt 0.71875 0.3727391
vt 0.71875 0.375
vt 0.71875 0.395
vt 0.71875 0.275
vt 0.71875 0.415
vt 0.71875 0.335
vt 0.71875 0.425
vt 0.71875 0.325
vt 0.59375 0.1136957
vt 0.59375 0.1797829
vt 0.59375 0.03642857
vt 0.59375 0.09357143

usemtl colormap

f 3/2/1 2/1/1 1/1/1
f 2/1/1 3/2/1 4/2/1
f 7/2/1 6/1/1 5/1/1
f 6/1/1 7/2/1 8/2/1
f 9/1/2 7/2/2 5/1/2
f 7/2/2 9/1/2 10/2/2
f 13/2/3 12/1/3 11/1/3
f 12/1/3 13/2/3 14/2/3
f 17/2/4 16/1/4 15/1/4
f 16/1/4 17/2/4 18/2/4
f 24/2/5 23/1/5 21/2/5
f 19/1/5 21/2/5 23/1/5
f 22/2/3 21/2/3 20/1/3
f 19/1/3 20/1/3 21/2/3
f 38/1/8 37/2/8 35/1/8
f 33/2/8 35/1/8 37/2/8
f 36/1/7 35/1/7 34/3/7
f 33/2/7 34/3/7 35/1/7
f 32/4/7 34/3/7 33/2/7
f 26/2/7 32/4/7 33/2/7
f 32/4/7 26/2/7 31/4/7
f 31/4/7 26/2/7 30/3/7
f 30/3/7 26/2/7 29/1/7
f 25/1/7 29/1/7 26/2/7
f 28/2/6 27/1/6 26/2/6
f 25/1/6 26/2/6 27/1/6
f 41/5/9 40/5/9 39/5/9
f 40/5/9 41/5/9 42/5/9
f 43/6/1 39/5/1 40/5/1
f 39/5/1 43/6/1 44/6/1
f 43/6/10 2/6/10 44/6/10
f 2/6/10 43/6/10 1/6/10
f 47/6/11 46/5/1 45/5/11
f 46/5/1 47/6/11 48/6/1
f 51/5/2 50/6/12 49/5/12
f 50/6/12 51/5/2 52/6/2
f 50/6/12 45/5/11 49/5/12
f 45/5/11 50/6/12 47/6/11
f 51/5/9 46/5/9 53/5/9
f 46/5/9 51/5/9 45/5/9
f 45/5/9 51/5/9 49/5/9
f 47/6/10 6/6/10 48/6/10
f 6/6/10 47/6/10 5/6/10
f 5/6/10 47/6/10 50/6/10
f 5/6/10 50/6/10 9/6/10
f 9/6/10 50/6/10 52/6/10
f 56/6/11 55/5/1 54/5/11
f 55/5/1 56/6/11 57/6/1
f 60/5/2 59/6/12 58/5/12
f 59/6/12 60/5/2 61/6/2
f 59/6/12 54/5/11 58/5/12
f 54/5/11 59/6/12 56/6/11
f 60/5/9 55/5/9 62/5/9
f 55/5/9 60/5/9 54/5/9
f 54/5/9 60/5/9 58/5/9
f 57/6/10 64/6/10 63/6/10
f 64/6/10 57/6/10 56/6/10
f 64/6/10 56/6/10 59/6/10
f 64/6/10 59/6/10 65/6/10
f 65/6/10 59/6/10 61/6/10
f 68/6/11 67/5/1 66/5/11
f 67/5/1 68/6/11 69/6/1
f 72/5/2 71/6/12 70/5/12
f 71/6/12 72/5/2 73/6/2
f 71/6/12 66/5/11 70/5/12
f 66/5/11 71/6/12 68/6/11
f 72/5/9 67/5/9 74/5/9
f 67/5/9 72/5/9 66/5/9
f 66/5/9 72/5/9 70/5/9
f 69/6/10 76/6/10 75/6/10
f 76/6/10 69/6/10 68/6/10
f 76/6/10 68/6/10 71/6/10
f 76/6/10 71/6/10 77/6/10
f 77/6/10 71/6/10 73/6/10
f 80/5/9 79/5/9 78/5/9
f 79/5/9 80/5/9 81/5/9
f 82/6/1 78/5/1 79/5/1
f 78/5/1 82/6/1 83/6/1
f 82/6/10 84/6/10 83/6/10
f 84/6/10 82/6/10 85/6/10
f 88/5/9 87/5/9 86/5/9
f 87/5/9 88/5/9 89/5/9
f 90/6/3 86/5/3 87/5/3
f 86/5/3 90/6/3 91/6/3
f 90/6/10 12/6/10 91/6/10
f 12/6/10 90/6/10 11/6/10
f 94/5/9 93/5/9 92/5/9
f 93/5/9 94/5/9 95/5/9
f 96/6/4 92/5/4 93/5/4
f 92/5/4 96/6/4 97/6/4
f 96/6/10 16/6/10 97/6/10
f 16/6/10 96/6/10 15/6/10
f 19/6/10 23/6/10 105/6/10
f 105/6/10 103/6/10 19/6/10
f 103/6/10 100/6/10 19/6/10
f 19/6/10 100/6/10 20/6/10
f 101/6/10 20/6/10 100/6/10
f 102/5/9 104/5/9 98/5/9
f 98/5/9 104/5/9 99/5/9
f 106/5/9 99/5/9 104/5/9
f 100/6/13 103/6/14 98/5/13
f 102/5/14 98/5/13 103/6/14
f 105/6/5 104/5/5 103/6/14
f 102/5/14 103/6/14 104/5/5
f 101/6/3 100/6/13 99/5/3
f 98/5/13 99/5/3 100/6/13
f 109/5/9 108/5/9 107/5/9
f 108/5/9 109/5/9 110/5/9
f 111/6/3 107/5/3 108/5/3
f 107/5/3 111/6/3 112/6/3
f 111/6/10 113/6/10 112/6/10
f 113/6/10 111/6/10 114/6/10
f 125/6/10 126/6/10 122/6/10
f 122/6/10 120/6/10 125/6/10
f 120/6/10 117/6/10 125/6/10
f 125/6/10 117/6/10 124/6/10
f 118/6/10 124/6/10 117/6/10
f 119/5/9 121/5/9 115/5/9
f 115/5/9 121/5/9 116/5/9
f 123/5/9 116/5/9 121/5/9
f 117/6/13 120/6/14 115/5/13
f 119/5/14 115/5/13 120/6/14
f 122/6/5 121/5/5 120/6/14
f 119/5/14 120/6/14 121/5/5
f 118/6/3 117/6/13 116/5/3
f 115/5/13 116/5/3 117/6/13
f 129/5/9 128/5/9 127/5/9
f 128/5/9 129/5/9 130/5/9
f 131/6/4 127/5/4 128/5/4
f 127/5/4 131/6/4 132/6/4
f 131/6/10 133/6/10 132/6/10
f 133/6/10 131/6/10 134/6/10
f 137/5/9 136/5/9 135/5/9
f 136/5/9 137/5/9 138/5/9
f 139/6/4 135/5/4 136/5/4
f 135/5/4 139/6/4 140/6/4
f 139/6/10 141/6/10 140/6/10
f 141/6/10 139/6/10 142/6/10
f 145/5/9 144/5/9 143/5/9
f 144/5/9 145/5/9 146/5/9
f 147/6/3 143/5/3 144/5/3
f 143/5/3 147/6/3 148/6/3
f 147/6/10 149/6/10 148/6/10
f 149/6/10 147/6/10 150/6/10
f 161/6/10 162/6/10 158/6/10
f 158/6/10 156/6/10 161/6/10
f 156/6/10 153/6/10 161/6/10
f 161/6/10 153/6/10 160/6/10
f 154/6/10 160/6/10 153/6/10
f 155/5/9 157/5/9 151/5/9
f 151/5/9 157/5/9 152/5/9
f 159/5/9 152/5/9 157/5/9
f 153/6/13 156/6/14 151/5/13
f 155/5/14 151/5/13 156/6/14
f 158/6/5 157/5/5 156/6/14
f 155/5/14 156/6/14 157/5/5
f 154/6/3 153/6/13 152/5/3
f 151/5/13 152/5/3 153/6/13
f 165/7/10 164/7/10 163/7/10
f 166/7/10 164/7/10 165/7/10
f 167/7/10 164/7/10 166/7/10
f 168/7/10 167/7/10 166/7/10
f 169/7/10 164/7/10 167/7/10
f 168/7/10 170/7/10 167/7/10
f 171/7/10 164/7/10 169/7/10
f 168/7/10 171/7/10 170/7/10
f 164/7/10 171/7/10 172/7/10
f 168/7/10 172/7/10 171/7/10
f 173/7/10 172/7/10 168/7/10
f 172/7/10 173/7/10 174/7/10
f 176/5/15 163/7/12 175/5/12
f 163/7/12 176/5/15 165/7/15
f 163/7/12 177/5/11 175/5/12
f 177/5/11 163/7/12 164/7/11
f 164/7/11 178/5/16 177/5/11
f 178/5/16 164/7/11 172/7/16
f 180/5/18 166/7/17 179/5/17
f 166/7/17 180/5/18 168/7/18
f 179/5/17 165/7/15 176/5/15
f 165/7/15 179/5/17 166/7/17
f 173/7/20 181/5/19 174/7/19
f 181/5/19 173/7/20 182/5/20
f 168/7/18 182/5/20 173/7/20
f 182/5/20 168/7/18 180/5/18
f 172/7/16 181/5/19 178/5/16
f 181/5/19 172/7/16 174/7/19
f 185/10/21 184/9/21 183/8/21
f 184/9/21 185/10/21 186/11/21
f 183/8/22 187/10/22 185/10/22
f 187/10/22 183/8/22 188/8/22
f 189/9/1 187/10/1 188/8/1
f 187/10/1 189/9/1 190/11/1
f 190/11/23 184/9/23 186/11/23
f 184/9/23 190/11/23 189/9/23
f 193/12/25 192/13/24 191/12/24
f 192/13/24 193/12/25 194/13/25
f 197/9/27 196/10/26 195/8/26
f 196/10/26 197/9/27 198/11/27
f 201/14/29 200/15/28 199/14/28
f 200/15/28 201/14/29 202/15/29
f 205/10/30 204/9/31 203/8/30
f 204/9/31 205/10/30 206/11/31
f 195/8/26 191/12/24 192/13/24
f 191/12/24 195/8/26 196/10/26
f 206/11/31 201/14/29 204/9/31
f 201/14/29 206/11/31 202/15/29
f 199/14/28 198/11/27 197/9/27
f 198/11/27 199/14/28 200/15/28
f 193/12/25 203/8/30 194/13/25
f 203/8/30 193/12/25 205/10/30
f 196/10/32 193/12/32 191/12/32
f 193/12/32 196/10/32 185/10/32
f 193/12/32 185/10/32 205/10/32
f 187/10/32 205/10/32 185/10/32
f 185/10/32 196/10/32 186/11/32
f 186/11/32 196/10/32 198/11/32
f 205/10/32 187/10/32 206/11/32
f 186/11/32 198/11/32 200/15/32
f 206/11/32 200/15/32 202/15/32
f 206/11/32 187/10/32 190/11/32
f 186/11/32 200/15/32 190/11/32
f 190/11/32 200/15/32 206/11/32
f 209/5/9 208/5/9 207/5/9
f 208/5/9 209/5/9 210/5/9
f 210/5/9 209/5/9 211/5/9
f 211/5/9 209/5/9 212/5/9
f 212/5/9 209/5/9 213/5/9
f 213/5/9 209/5/9 214/5/9
f 217/15/33 216/16/33 215/16/33
f 216/16/33 217/15/33 218/15/33
f 219/15/34 211/5/35 212/5/34
f 211/5/35 219/15/34 220/15/35
f 222/15/6 208/5/36 221/15/36
f 208/5/36 222/15/6 207/5/6
f 214/5/38 223/15/37 213/5/37
f 223/15/37 214/5/38 224/15/38
f 225/15/6 216/16/6 218/15/6
f 216/16/6 225/15/6 226/16/6
f 227/15/10 223/15/10 224/15/10
f 225/15/10 223/15/10 227/15/10
f 218/15/10 223/15/10 225/15/10
f 218/15/10 219/15/10 223/15/10
f 217/15/10 219/15/10 218/15/10
f 219/15/10 217/15/10 220/15/10
f 228/15/10 220/15/10 217/15/10
f 228/15/10 229/15/10 220/15/10
f 222/15/10 229/15/10 228/15/10
f 229/15/10 222/15/10 221/15/10
f 209/5/8 224/15/38 214/5/38
f 224/15/38 209/5/8 227/15/8
f 221/15/36 210/5/39 229/15/39
f 210/5/39 221/15/36 208/5/36
f 230/16/8 217/15/8 215/16/8
f 217/15/8 230/16/8 228/15/8
f 230/16/33 222/15/33 228/15/33
f 230/16/33 207/5/33 222/15/33
f 207/5/33 230/16/33 209/5/33
f 226/16/33 209/5/33 230/16/33
f 209/5/33 226/16/33 227/15/33
f 227/15/33 226/16/33 225/15/33
f 220/15/35 210/5/39 211/5/35
f 210/5/39 220/15/35 229/15/39
f 223/15/37 212/5/34 213/5/37
f 212/5/34 223/15/37 219/15/34
f 233/17/8 232/18/8 231/17/8
f 232/18/8 233/17/8 234/18/8
f 232/18/7 235/17/7 231/17/7
f 235/17/7 232/18/7 236/18/7
f 239/15/6 238/17/6 237/15/6
f 238/17/6 239/15/6 240/17/6
f 243/15/40 242/18/7 241/18/40
f 242/18/7 243/15/40 244/15/7
f 245/18/9 232/18/9 234/18/9
f 232/18/9 245/18/9 241/18/9
f 241/18/9 245/18/9 246/18/9
f 242/18/9 232/18/9 241/18/9
f 232/18/9 242/18/9 236/18/9
f 243/15/10 247/15/10 244/15/10
f 247/15/10 243/15/10 237/15/10
f 237/15/10 243/15/10 239/15/10
f 239/15/10 243/15/10 248/15/10
f 248/15/10 243/15/10 249/15/10
f 245/18/8 249/15/41 246/18/41
f 249/15/41 245/18/8 248/15/8
f 246/18/41 243/15/40 241/18/40
f 243/15/40 246/18/41 249/15/41
f 247/15/33 238/17/33 250/17/33
f 238/17/33 247/15/33 237/15/33
f 253/17/42 252/18/42 251/17/42
f 252/18/42 253/17/42 254/18/42
f 252/18/3 255/17/3 251/17/3
f 255/17/3 252/18/3 256/18/3
f 259/15/5 258/17/5 257/15/5
f 258/17/5 259/15/5 260/17/5
f 263/15/43 262/18/3 261/18/43
f 262/18/3 263/15/43 264/15/3
f 265/18/9 252/18/9 254/18/9
f 252/18/9 265/18/9 261/18/9
f 261/18/9 265/18/9 266/18/9
f 262/18/9 252/18/9 261/18/9
f 252/18/9 262/18/9 256/18/9
f 263/15/10 267/15/10 264/15/10
f 267/15/10 263/15/10 257/15/10
f 257/15/10 263/15/10 259/15/10
f 259/15/10 263/15/10 268/15/10
f 268/15/10 263/15/10 269/15/10
f 265/18/42 269/15/44 266/18/44
f 269/15/44 265/18/42 268/15/42
f 266/18/44 263/15/43 261/18/43
f 263/15/43 266/18/44 269/15/44
f 267/15/45 258/17/45 270/17/45
f 258/17/45 267/15/45 257/15/45
f 273/18/9 272/18/9 271/18/9
f 272/18/9 273/18/9 274/18/9
f 276/17/8 272/18/8 275/17/8
f 272/18/8 276/17/8 271/18/8
f 279/15/6 278/17/6 277/15/6
f 278/17/6 279/15/6 280/17/6
f 277/15/10 281/15/10 279/15/10
f 281/15/10 277/15/10 282/15/10
f 273/18/8 282/15/8 274/18/8
f 282/15/8 273/18/8 281/15/8
f 285/17/2 284/18/2 283/17/2
f 284/18/2 285/17/2 286/18/2
f 284/18/1 287/17/1 283/17/1
f 287/17/1 284/18/1 288/18/1
f 291/15/46 290/17/46 289/15/46
f 290/17/46 291/15/46 292/17/46
f 295/15/11 294/18/1 293/18/11
f 294/18/1 295/15/11 296/15/1
f 297/18/9 284/18/9 286/18/9
f 284/18/9 297/18/9 293/18/9
f 293/18/9 297/18/9 298/18/9
f 294/18/9 284/18/9 293/18/9
f 284/18/9 294/18/9 288/18/9
f 295/15/10 299/15/10 296/15/10
f 299/15/10 295/15/10 289/15/10
f 289/15/10 295/15/10 291/15/10
f 291/15/10 295/15/10 300/15/10
f 300/15/10 295/15/10 301/15/10
f 297/18/2 301/15/12 298/18/12
f 301/15/12 297/18/2 300/15/2
f 298/18/12 295/15/11 293/18/11
f 295/15/11 298/18/12 301/15/12
f 299/15/21 290/17/21 302/17/21
f 290/17/21 299/15/21 289/15/21
f 305/17/47 304/18/47 303/17/47
f 304/18/47 305/17/47 306/18/47
f 304/18/48 307/17/48 303/17/48
f 307/17/48 304/18/48 308/18/48
f 311/15/49 310/17/49 309/15/49
f 310/17/49 311/15/49 312/17/49
f 315/15/50 314/18/48 313/18/50
f 314/18/48 315/15/50 316/15/48
f 317/18/9 304/18/9 306/18/9
f 304/18/9 317/18/9 313/18/9
f 313/18/9 317/18/9 318/18/9
f 314/18/9 304/18/9 313/18/9
f 304/18/9 314/18/9 308/18/9
f 315/15/10 319/15/10 316/15/10
f 319/15/10 315/15/10 309/15/10
f 309/15/10 315/15/10 311/15/10
f 311/15/10 315/15/10 320/15/10
f 320/15/10 315/15/10 321/15/10
f 317/18/47 321/15/51 318/18/51
f 321/15/51 317/18/47 320/15/47
f 318/18/51 315/15/50 313/18/50
f 315/15/50 318/18/51 321/15/51
f 319/15/52 310/17/52 322/17/52
f 310/17/52 319/15/52 309/15/52
f 325/18/9 324/18/9 323/18/9
f 324/18/9 325/18/9 326/18/9
f 328/17/53 324/18/53 327/17/53
f 324/18/53 328/17/53 323/18/53
f 331/15/54 330/17/54 329/15/54
f 330/17/54 331/15/54 332/17/54
f 329/15/10 333/15/10 331/15/10
f 333/15/10 329/15/10 334/15/10
f 325/18/53 334/15/53 326/18/53
f 334/15/53 325/18/53 333/15/53
f 337/20/6 336/19/56 335/19/55
f 336/19/56 337/20/6 338/20/57
f 341/19/59 340/20/8 339/19/58
f 340/20/8 341/19/59 342/20/60
f 336/19/57 344/17/33 343/17/57
f 344/17/33 336/19/57 345/19/33
f 337/20/6 347/19/61 346/20/39
f 347/19/61 337/20/6 335/19/55
f 348/20/33 341/19/59 345/19/62
f 341/19/59 348/20/33 342/20/60
f 350/20/7 347/19/61 349/19/63
f 347/19/61 350/20/7 346/20/39
f 352/20/37 349/19/63 351/19/64
f 349/19/63 352/20/37 350/20/7
f 354/15/66 337/20/6 353/15/65
f 337/20/6 354/15/66 338/20/57
f 345/19/33 355/17/60 344/17/33
f 355/17/60 345/19/33 341/19/60
f 351/19/37 357/17/7 356/17/37
f 357/17/7 351/19/37 349/19/7
f 358/17/8 351/19/37 356/17/37
f 351/19/37 358/17/8 339/19/8
f 338/20/57 345/19/62 336/19/56
f 345/19/62 338/20/57 348/20/33
f 359/15/67 350/20/7 352/20/37
f 350/20/7 359/15/67 360/15/68
f 361/15/69 337/20/6 346/20/39
f 337/20/6 361/15/69 353/15/65
f 360/15/68 346/20/39 350/20/7
f 346/20/39 360/15/68 361/15/69
f 351/19/64 340/20/8 352/20/37
f 340/20/8 351/19/64 339/19/58
f 362/15/70 342/20/60 348/20/33
f 342/20/60 362/15/70 363/15/71
f 340/20/8 359/15/67 352/20/37
f 359/15/67 340/20/8 364/15/72
f 361/15/10 354/15/10 353/15/10
f 354/15/10 361/15/10 360/15/10
f 354/15/10 360/15/10 362/15/10
f 362/15/10 360/15/10 359/15/10
f 362/15/10 359/15/10 363/15/10
f 363/15/10 359/15/10 364/15/10
f 335/19/6 365/17/39 347/19/39
f 365/17/39 335/19/6 366/17/6
f 349/19/7 365/17/39 357/17/7
f 365/17/39 349/19/7 347/19/39
f 340/20/8 363/15/71 364/15/72
f 363/15/71 340/20/8 342/20/60
f 336/19/57 366/17/6 335/19/6
f 366/17/6 336/19/57 343/17/57
f 354/15/66 348/20/33 338/20/57
f 348/20/33 354/15/66 362/15/70
f 355/17/60 339/19/8 358/17/8
f 339/19/8 355/17/60 341/19/60
f 369/20/6 368/19/56 367/19/55
f 368/19/56 369/20/6 370/20/57
f 373/19/59 372/20/8 371/19/58
f 372/20/8 373/19/59 374/20/60
f 368/19/57 376/17/33 375/17/57
f 376/17/33 368/19/57 377/19/33
f 369/20/6 379/19/61 378/20/39
f 379/19/61 369/20/6 367/19/55
f 380/20/33 373/19/59 377/19/62
f 373/19/59 380/20/33 374/20/60
f 382/20/7 379/19/61 381/19/63
f 379/19/61 382/20/7 378/20/39
f 384/20/37 381/19/63 383/19/64
f 381/19/63 384/20/37 382/20/7
f 386/15/66 369/20/6 385/15/65
f 369/20/6 386/15/66 370/20/57
f 377/19/33 387/17/60 376/17/33
f 387/17/60 377/19/33 373/19/60
f 383/19/37 389/17/7 388/17/37
f 389/17/7 383/19/37 381/19/7
f 390/17/8 383/19/37 388/17/37
f 383/19/37 390/17/8 371/19/8
f 370/20/57 377/19/62 368/19/56
f 377/19/62 370/20/57 380/20/33
f 391/15/67 382/20/7 384/20/37
f 382/20/7 391/15/67 392/15/68
f 393/15/69 369/20/6 378/20/39
f 369/20/6 393/15/69 385/15/65
f 392/15/68 378/20/39 382/20/7
f 378/20/39 392/15/68 393/15/69
f 383/19/64 372/20/8 384/20/37
f 372/20/8 383/19/64 371/19/58
f 394/15/70 374/20/60 380/20/33
f 374/20/60 394/15/70 395/15/71
f 372/20/8 391/15/67 384/20/37
f 391/15/67 372/20/8 396/15/72
f 393/15/10 386/15/10 385/15/10
f 386/15/10 393/15/10 392/15/10
f 386/15/10 392/15/10 394/15/10
f 394/15/10 392/15/10 391/15/10
f 394/15/10 391/15/10 395/15/10
f 395/15/10 391/15/10 396/15/10
f 367/19/6 397/17/39 379/19/39
f 397/17/39 367/19/6 398/17/6
f 381/19/7 397/17/39 389/17/7
f 397/17/39 381/19/7 379/19/39
f 372/20/8 395/15/71 396/15/72
f 395/15/71 372/20/8 374/20/60
f 368/19/57 398/17/6 367/19/6
f 398/17/6 368/19/57 375/17/57
f 386/15/66 380/20/33 370/20/57
f 380/20/33 386/15/66 394/15/70
f 387/17/60 371/19/8 390/17/8
f 371/19/8 387/17/60 373/19/60
f 401/21/73 400/22/74 399/21/73
f 400/22/74 401/21/73 402/22/74
f 402/22/74 403/23/75 400/22/74
f 403/23/75 402/22/74 404/23/75
f 407/24/76 406/25/77 405/24/76
f 406/25/77 407/24/76 408/25/77
f 410/18/78 399/21/73 409/18/78
f 399/21/73 410/18/78 401/21/73
f 413/21/79 412/18/80 411/21/79
f 412/18/80 413/21/79 414/18/80
f 417/25/81 416/24/82 415/25/81
f 416/24/82 417/25/81 418/24/82
f 419/23/83 403/23/75 404/23/75
f 403/23/75 419/23/83 420/23/83
f 422/22/84 411/21/79 421/22/84
f 411/21/79 422/22/84 413/21/79
f 421/22/7 403/23/7 420/23/7
f 403/23/7 421/22/7 400/22/7
f 400/22/7 421/22/7 416/24/7
f 416/24/7 421/22/7 411/21/7
f 405/24/7 400/22/7 416/24/7
f 416/24/7 411/21/7 415/25/7
f 400/22/7 405/24/7 399/21/7
f 415/25/7 411/21/7 406/25/7
f 399/21/7 405/24/7 406/25/7
f 399/21/7 406/25/7 411/21/7
f 399/21/7 411/21/7 412/18/7
f 399/21/7 412/18/7 409/18/7
f 416/24/82 407/24/76 405/24/76
f 407/24/76 416/24/82 418/24/82
f 417/25/81 406/25/77 408/25/77
f 406/25/77 417/25/81 415/25/81
f 412/18/80 410/18/78 409/18/78
f 410/18/78 412/18/80 414/18/80
f 419/23/83 421/22/84 420/23/83
f 421/22/84 419/23/83 422/22/84
f 425/5/8 424/6/41 423/5/41
f 424/6/41 425/5/8 426/6/8
f 429/6/6 428/5/85 427/6/85
f 428/5/85 429/6/6 430/5/6
f 433/6/40 432/5/86 431/5/40
f 432/5/86 433/6/40 434/6/86
f 423/5/41 433/6/40 431/5/40
f 433/6/40 423/5/41 424/6/41
f 427/6/85 432/5/86 434/6/86
f 432/5/86 427/6/85 428/5/85
f 425/5/9 436/5/9 435/5/9
f 436/5/9 425/5/9 431/5/9
f 431/5/9 425/5/9 423/5/9
f 432/5/9 436/5/9 431/5/9
f 432/5/9 437/5/9 436/5/9
f 432/5/9 438/5/9 437/5/9
f 428/5/9 438/5/9 432/5/9
f 438/5/9 428/5/9 430/5/9
f 439/6/10 424/6/10 426/6/10
f 440/6/10 424/6/10 439/6/10
f 440/6/10 433/6/10 424/6/10
f 441/6/10 433/6/10 440/6/10
f 433/6/10 441/6/10 434/6/10
f 442/6/10 434/6/10 441/6/10
f 429/6/10 434/6/10 442/6/10
f 434/6/10 429/6/10 427/6/10
f 445/26/76 444/27/77 443/26/76
f 444/27/77 445/26/76 446/27/77
f 447/26/10 445/26/76 443/26/76
f 445/26/76 447/26/10 448/26/82
f 448/26/82 447/26/10 449/26/10
f 448/26/82 449/26/10 450/26/10
f 448/26/82 450/26/10 451/26/10
f 448/26/82 451/26/10 452/26/10
f 448/26/82 452/26/10 453/26/10
f 448/26/82 453/26/10 454/26/82
f 456/27/81 454/26/82 455/27/81
f 454/26/82 456/27/81 448/26/82
f 456/27/81 444/27/77 446/27/77
f 444/27/77 456/27/81 457/27/9
f 457/27/9 456/27/81 458/27/9
f 458/27/9 456/27/81 459/27/9
f 459/27/9 456/27/81 460/27/9
f 460/27/9 456/27/81 461/27/9
f 461/27/9 456/27/81 462/27/9
f 462/27/9 456/27/81 455/27/81
f 454/26/7 463/28/7 455/27/7
f 455/27/7 463/28/7 462/27/7
f 454/26/7 464/5/7 463/28/7
f 464/5/7 454/26/7 465/5/7
f 443/26/7 465/5/7 454/26/7
f 443/26/7 454/26/7 453/26/7
f 465/5/7 443/26/7 466/28/7
f 462/27/7 452/26/7 453/26/7
f 443/26/7 453/26/7 452/26/7
f 452/26/7 462/27/7 461/27/7
f 462/27/7 463/28/7 461/27/7
f 443/26/7 452/26/7 451/26/7
f 461/27/7 463/28/7 460/27/7
f 466/28/7 443/26/7 444/27/7
f 466/28/7 444/27/7 463/28/7
f 457/27/7 463/28/7 444/27/7
f 443/26/7 451/26/7 450/26/7
f 460/27/7 450/26/7 451/26/7
f 443/26/7 450/26/7 449/26/7
f 450/26/7 460/27/7 459/27/7
f 460/27/7 463/28/7 459/27/7
f 443/26/7 449/26/7 447/26/7
f 459/27/7 463/28/7 458/27/7
f 458/27/7 463/28/7 457/27/7
f 458/27/7 447/26/7 449/26/7
f 447/26/7 458/27/7 457/27/7
f 469/21/73 468/22/74 467/21/73
f 468/22/74 469/21/73 470/22/74
f 470/22/74 471/23/75 468/22/74
f 471/23/75 470/22/74 472/23/75
f 475/24/76 474/25/77 473/24/76
f 474/25/77 475/24/76 476/25/77
f 478/18/78 467/21/73 477/18/78
f 467/21/73 478/18/78 469/21/73
f 481/21/79 480/18/80 479/21/79
f 480/18/80 481/21/79 482/18/80
f 485/25/81 484/24/82 483/25/81
f 484/24/82 485/25/81 486/24/82
f 487/23/83 471/23/75 472/23/75
f 471/23/75 487/23/83 488/23/83
f 490/22/84 479/21/79 489/22/84
f 479/21/79 490/22/84 481/21/79
f 489/22/7 471/23/7 488/23/7
f 471/23/7 489/22/7 468/22/7
f 468/22/7 489/22/7 484/24/7
f 484/24/7 489/22/7 479/21/7
f 473/24/7 468/22/7 484/24/7
f 484/24/7 479/21/7 483/25/7
f 468/22/7 473/24/7 467/21/7
f 483/25/7 479/21/7 474/25/7
f 467/21/7 473/24/7 474/25/7
f 467/21/7 474/25/7 479/21/7
f 467/21/7 479/21/7 480/18/7
f 467/21/7 480/18/7 477/18/7
f 484/24/82 475/24/76 473/24/76
f 475/24/76 484/24/82 486/24/82
f 485/25/81 474/25/77 476/25/77
f 474/25/77 485/25/81 483/25/81
f 480/18/80 478/18/78 477/18/78
f 478/18/78 480/18/80 482/18/80
f 487/23/83 489/22/84 488/23/83
f 489/22/84 487/23/83 490/22/84
f 493/5/8 492/6/41 491/5/41
f 492/6/41 493/5/8 494/6/8
f 497/6/6 496/5/85 495/6/85
f 496/5/85 497/6/6 498/5/6
f 501/6/40 500/5/86 499/5/40
f 500/5/86 501/6/40 502/6/86
f 491/5/41 501/6/40 499/5/40
f 501/6/40 491/5/41 492/6/41
f 495/6/85 500/5/86 502/6/86
f 500/5/86 495/6/85 496/5/85
f 493/5/9 504/5/9 503/5/9
f 504/5/9 493/5/9 499/5/9
f 499/5/9 493/5/9 491/5/9
f 500/5/9 504/5/9 499/5/9
f 500/5/9 505/5/9 504/5/9
f 500/5/9 506/5/9 505/5/9
f 496/5/9 506/5/9 500/5/9
f 506/5/9 496/5/9 498/5/9
f 507/6/10 492/6/10 494/6/10
f 508/6/10 492/6/10 507/6/10
f 508/6/10 501/6/10 492/6/10
f 509/6/10 501/6/10 508/6/10
f 501/6/10 509/6/10 502/6/10
f 510/6/10 502/6/10 509/6/10
f 497/6/10 502/6/10 510/6/10
f 502/6/10 497/6/10 495/6/10
f 513/26/76 512/27/77 511/26/76
f 512/27/77 513/26/76 514/27/77
f 515/26/10 513/26/76 511/26/76
f 513/26/76 515/26/10 516/26/82
f 516/26/82 515/26/10 517/26/10
f 516/26/82 517/26/10 518/26/10
f 516/26/82 518/26/10 519/26/10
f 516/26/82 519/26/10 520/26/10
f 516/26/82 520/26/10 521/26/10
f 516/26/82 521/26/10 522/26/82
f 524/27/81 522/26/82 523/27/81
f 522/26/82 524/27/81 516/26/82
f 524/27/81 512/27/77 514/27/77
f 512/27/77 524/27/81 525/27/9
f 525/27/9 524/27/81 526/27/9
f 526/27/9 524/27/81 527/27/9
f 527/27/9 524/27/81 528/27/9
f 528/27/9 524/27/81 529/27/9
f 529/27/9 524/27/81 530/27/9
f 530/27/9 524/27/81 523/27/81
f 522/26/7 531/28/7 523/27/7
f 523/27/7 531/28/7 530/27/7
f 522/26/7 532/5/7 531/28/7
f 532/5/7 522/26/7 533/5/7
f 511/26/7 533/5/7 522/26/7
f 511/26/7 522/26/7 521/26/7
f 533/5/7 511/26/7 534/28/7
f 530/27/7 520/26/7 521/26/7
f 511/26/7 521/26/7 520/26/7
f 520/26/7 530/27/7 529/27/7
f 530/27/7 531/28/7 529/27/7
f 511/26/7 520/26/7 519/26/7
f 529/27/7 531/28/7 528/27/7
f 534/28/7 511/26/7 512/27/7
f 534/28/7 512/27/7 531/28/7
f 525/27/7 531/28/7 512/27/7
f 511/26/7 519/26/7 518/26/7
f 528/27/7 518/26/7 519/26/7
f 511/26/7 518/26/7 517/26/7
f 518/26/7 528/27/7 527/27/7
f 528/27/7 531/28/7 527/27/7
f 511/26/7 517/26/7 515/26/7
f 527/27/7 531/28/7 526/27/7
f 526/27/7 531/28/7 525/27/7
f 526/27/7 515/26/7 517/26/7
f 515/26/7 526/27/7 525/27/7
f 537/23/87 536/18/7 535/18/87
f 536/18/7 537/23/87 538/23/7
f 541/23/88 540/18/6 539/23/6
f 540/18/6 541/23/88 542/18/88
f 538/23/7 543/18/89 536/18/7
f 543/18/89 538/23/7 544/23/89
f 539/23/6 543/18/89 544/23/89
f 543/18/89 539/23/6 540/18/6
f 541/23/88 545/18/33 542/18/88
f 545/18/33 541/23/88 546/23/33
f 546/23/33 547/18/90 545/18/33
f 547/18/90 546/23/33 548/23/90
f 547/18/90 550/23/8 549/18/8
f 550/23/8 547/18/90 548/23/90
f 549/18/8 537/23/87 535/18/87
f 537/23/87 549/18/8 550/23/8
f 542/18/9 543/18/9 540/18/9
f 543/18/9 542/18/9 545/18/9
f 543/18/9 545/18/9 536/18/9
f 536/18/9 545/18/9 547/18/9
f 536/18/9 547/18/9 535/18/9
f 535/18/9 547/18/9 549/18/9
f 553/23/9 552/23/9 551/23/9
f 552/23/9 553/23/9 554/23/9
f 557/18/91 556/18/10 555/18/10
f 556/18/10 557/18/91 558/18/91
f 556/18/33 553/23/33 551/23/33
f 553/23/33 556/18/33 559/29/33
f 559/29/33 556/18/33 558/18/33
f 556/18/6 552/23/6 555/18/6
f 552/23/6 556/18/6 551/23/6
f 560/29/7 552/23/7 554/23/7
f 552/23/7 560/29/7 555/18/7
f 555/18/7 560/29/7 557/18/7
f 553/23/8 560/29/92 554/23/8
f 560/29/92 553/23/8 559/29/92
f 559/29/92 557/18/91 560/29/92
f 557/18/91 559/29/92 558/18/91
f 563/23/8 562/18/37 561/23/37
f 562/18/37 563/23/8 564/18/8
f 562/18/37 565/23/7 561/23/37
f 565/23/7 562/18/37 566/18/7
f 569/18/57 568/23/6 567/18/6
f 568/23/6 569/18/57 570/23/57
f 567/18/6 572/23/39 571/18/39
f 572/23/39 567/18/6 568/23/6
f 573/23/60 564/18/8 563/23/8
f 564/18/8 573/23/60 574/18/60
f 576/18/33 573/23/60 575/23/33
f 573/23/60 576/18/33 574/18/60
f 566/18/7 572/23/39 565/23/7
f 572/23/39 566/18/7 571/18/39
f 569/18/57 575/23/33 570/23/57
f 575/23/33 569/18/57 576/18/33
f 571/18/10 569/18/10 567/18/10
f 569/18/10 571/18/10 566/18/10
f 569/18/10 566/18/10 576/18/10
f 576/18/10 566/18/10 562/18/10
f 576/18/10 562/18/10 574/18/10
f 574/18/10 562/18/10 564/18/10
f 570/23/9 572/23/9 568/23/9
f 572/23/9 570/23/9 575/23/9
f 572/23/9 575/23/9 565/23/9
f 565/23/9 575/23/9 573/23/9
f 565/23/9 573/23/9 561/23/9
f 561/23/9 573/23/9 563/23/9
f 579/23/8 578/18/37 577/23/37
f 578/18/37 579/23/8 580/18/8
f 578/18/37 581/23/7 577/23/37
f 581/23/7 578/18/37 582/18/7
f 585/18/57 584/23/6 583/18/6
f 584/23/6 585/18/57 586/23/57
f 583/18/6 588/23/39 587/18/39
f 588/23/39 583/18/6 584/23/6
f 589/23/60 580/18/8 579/23/8
f 580/18/8 589/23/60 590/18/60
f 592/18/33 589/23/60 591/23/33
f 589/23/60 592/18/33 590/18/60
f 582/18/7 588/23/39 581/23/7
f 588/23/39 582/18/7 587/18/39
f 585/18/57 591/23/33 586/23/57
f 591/23/33 585/18/57 592/18/33
f 587/18/10 585/18/10 583/18/10
f 585/18/10 587/18/10 582/18/10
f 585/18/10 582/18/10 592/18/10
f 592/18/10 582/18/10 578/18/10
f 592/18/10 578/18/10 590/18/10
f 590/18/10 578/18/10 580/18/10
f 586/23/9 588/23/9 584/23/9
f 588/23/9 586/23/9 591/23/9
f 588/23/9 591/23/9 581/23/9
f 581/23/9 591/23/9 589/23/9
f 581/23/9 589/23/9 577/23/9
f 577/23/9 589/23/9 579/23/9
f 595/23/8 594/18/37 593/23/37
f 594/18/37 595/23/8 596/18/8
f 594/18/37 597/23/7 593/23/37
f 597/23/7 594/18/37 598/18/7
f 601/18/57 600/23/6 599/18/6
f 600/23/6 601/18/57 602/23/57
f 599/18/6 604/23/39 603/18/39
f 604/23/39 599/18/6 600/23/6
f 605/23/60 596/18/8 595/23/8
f 596/18/8 605/23/60 606/18/60
f 608/18/33 605/23/60 607/23/33
f 605/23/60 608/18/33 606/18/60
f 598/18/7 604/23/39 597/23/7
f 604/23/39 598/18/7 603/18/39
f 601/18/57 607/23/33 602/23/57
f 607/23/33 601/18/57 608/18/33
f 603/18/10 601/18/10 599/18/10
f 601/18/10 603/18/10 598/18/10
f 601/18/10 598/18/10 608/18/10
f 608/18/10 598/18/10 594/18/10
f 608/18/10 594/18/10 606/18/10
f 606/18/10 594/18/10 596/18/10
f 602/23/9 604/23/9 600/23/9
f 604/23/9 602/23/9 607/23/9
f 604/23/9 607/23/9 597/23/9
f 597/23/9 607/23/9 605/23/9
f 597/23/9 605/23/9 593/23/9
f 593/23/9 605/23/9 595/23/9
f 611/23/8 610/18/37 609/23/37
f 610/18/37 611/23/8 612/18/8
f 610/18/37 613/23/7 609/23/37
f 613/23/7 610/18/37 614/18/7
f 617/18/57 616/23/6 615/18/6
f 616/23/6 617/18/57 618/23/57
f 615/18/6 620/23/39 619/18/39
f 620/23/39 615/18/6 616/23/6
f 621/23/60 612/18/8 611/23/8
f 612/18/8 621/23/60 622/18/60
f 624/18/33 621/23/60 623/23/33
f 621/23/60 624/18/33 622/18/60
f 614/18/7 620/23/39 613/23/7
f 620/23/39 614/18/7 619/18/39
f 617/18/57 623/23/33 618/23/57
f 623/23/33 617/18/57 624/18/33
f 619/18/10 617/18/10 615/18/10
f 617/18/10 619/18/10 614/18/10
f 617/18/10 614/18/10 624/18/10
f 624/18/10 614/18/10 610/18/10
f 624/18/10 610/18/10 622/18/10
f 622/18/10 610/18/10 612/18/10
f 618/23/9 620/23/9 616/23/9
f 620/23/9 618/23/9 623/23/9
f 620/23/9 623/23/9 613/23/9
f 613/23/9 623/23/9 621/23/9
f 613/23/9 621/23/9 609/23/9
f 609/23/9 621/23/9 611/23/9
f 653/23/8 654/18/8 656/23/37
f 658/18/37 656/23/37 654/18/8
f 655/23/9 651/23/9 656/23/9
f 653/23/9 656/23/9 651/23/9
f 652/18/10 657/18/10 654/18/10
f 658/18/10 654/18/10 657/18/10
f 652/18/6 651/23/6 657/18/39
f 655/23/39 657/18/39 651/23/6
f 658/18/37 657/18/39 656/23/37
f 655/23/39 656/23/37 657/18/39
f 654/18/33 653/23/33 652/18/33
f 651/23/33 652/18/33 653/23/33
f 638/5/9 639/5/9 640/5/9
f 640/5/9 639/5/9 630/5/9
f 630/5/9 639/5/9 632/5/9
f 632/5/9 639/5/9 627/5/9
f 627/5/9 646/5/9 625/5/9
f 627/5/9 639/5/9 646/5/9
f 646/5/9 639/5/9 648/5/9
f 650/5/9 648/5/9 639/5/9
f 647/6/10 649/6/10 645/6/10
f 38/6/10 645/6/10 649/6/10
f 35/6/10 645/6/10 38/6/10
f 645/6/10 35/6/10 642/6/10
f 36/6/10 642/6/10 35/6/10
f 648/5/41 647/6/41 646/5/40
f 645/6/40 646/5/40 647/6/41
f 650/5/8 649/6/8 648/5/41
f 647/6/41 648/5/41 649/6/8
f 646/5/40 645/6/40 625/5/7
f 642/6/7 625/5/7 645/6/40
f 625/5/7 642/6/7 626/25/7
f 641/21/7 626/25/7 642/6/7
f 643/18/7 644/18/7 641/21/7
f 644/18/7 637/21/7 641/21/7
f 637/21/7 626/25/7 641/21/7
f 626/25/7 637/21/7 629/25/7
f 637/21/7 633/6/7 629/25/7
f 629/25/7 633/6/7 630/5/7
f 633/6/7 634/6/86 630/5/7
f 640/5/86 630/5/7 634/6/86
f 31/18/78 30/21/73 644/18/78
f 637/21/73 644/18/78 30/21/73
f 34/21/79 32/18/80 641/21/79
f 643/18/80 641/21/79 32/18/80
f 31/18/78 644/18/78 32/18/80
f 643/18/80 32/18/80 644/18/78
f 36/6/8 34/21/79 642/6/8
f 641/21/79 642/6/8 34/21/79
f 636/6/85 638/5/85 634/6/86
f 640/5/86 634/6/86 638/5/85
f 635/6/6 639/5/6 636/6/85
f 638/5/85 636/6/85 639/5/6
f 30/21/73 29/6/6 637/21/73
f 633/6/6 637/21/73 29/6/6
f 636/6/10 634/6/10 635/6/10
f 635/6/10 634/6/10 27/6/10
f 27/6/10 634/6/10 25/6/10
f 25/6/10 634/6/10 29/6/10
f 633/6/10 29/6/10 634/6/10
f 629/25/9 631/25/9 626/25/9
f 628/25/9 626/25/9 631/25/9
f 632/5/8 631/25/8 630/5/8
f 629/25/8 630/5/8 631/25/8
f 628/25/6 627/5/6 626/25/6
f 625/5/6 626/25/6 627/5/6
f 661/25/94 660/25/93 659/25/93
f 660/25/93 661/25/94 662/25/94
f 664/24/95 660/25/93 663/24/95
f 660/25/93 664/24/95 659/25/93
f 665/24/96 664/24/95 663/24/95
f 664/24/95 665/24/96 666/24/96
f 661/25/94 665/24/96 662/25/94
f 665/24/96 661/25/94 666/24/96
f 669/23/98 668/23/97 667/23/97
f 668/23/97 669/23/98 670/23/98
f 673/22/99 672/21/100 671/22/99
f 672/21/100 673/22/99 674/21/100
f 677/21/101 676/22/102 675/21/101
f 676/22/102 677/21/101 678/22/102
f 681/18/104 680/18/103 679/18/103
f 680/18/103 681/18/104 682/18/104
f 678/22/102 668/23/97 676/22/102
f 668/23/97 678/22/102 667/23/97
f 669/23/98 671/22/99 670/23/98
f 671/22/99 669/23/98 673/22/99
f 680/18/103 675/21/101 679/18/103
f 675/21/101 680/18/103 677/21/101
f 674/21/100 681/18/104 672/21/100
f 681/18/104 674/21/100 682/18/104
f 671/22/105 668/23/105 670/23/105
f 668/23/105 671/22/105 676/22/105
f 676/22/105 671/22/105 665/24/105
f 665/24/105 671/22/105 672/21/105
f 663/24/105 676/22/105 665/24/105
f 665/24/105 672/21/105 662/25/105
f 676/22/105 663/24/105 675/21/105
f 662/25/105 672/21/105 660/25/105
f 675/21/105 663/24/105 660/25/105
f 675/21/105 660/25/105 672/21/105
f 675/21/105 672/21/105 681/18/105
f 675/21/105 681/18/105 679/18/105
f 685/5/9 684/5/9 683/5/9
f 684/5/9 685/5/9 686/5/9
f 687/6/105 684/5/105 686/5/105
f 684/5/105 687/6/105 688/6/105
f 687/6/10 689/6/10 688/6/10
f 689/6/10 687/6/10 690/6/10
f 693/26/95 692/27/93 691/26/95
f 692/27/93 693/26/95 694/27/93
f 695/27/94 692/27/93 694/27/93
f 692/27/93 695/27/94 696/27/9
f 696/27/9 695/27/94 697/27/9
f 697/27/9 695/27/94 698/27/94
f 695/27/94 699/26/96 698/27/94
f 699/26/96 695/27/94 700/26/96
f 701/26/10 693/26/95 691/26/95
f 693/26/95 701/26/10 700/26/96
f 700/26/96 701/26/10 702/26/10
f 700/26/96 702/26/10 699/26/96
f 699/26/105 661/28/105 698/27/105
f 698/27/105 661/28/105 697/27/105
f 699/26/105 666/5/105 661/28/105
f 666/5/105 699/26/105 664/5/105
f 691/26/105 664/5/105 699/26/105
f 691/26/105 699/26/105 702/26/105
f 664/5/105 691/26/105 659/28/105
f 691/26/105 702/26/105 701/26/105
f 697/27/105 701/26/105 702/26/105
f 659/28/105 691/26/105 692/27/105
f 659/28/105 692/27/105 661/28/105
f 701/26/105 697/27/105 696/27/105
f 697/27/105 661/28/105 696/27/105
f 696/27/105 661/28/105 692/27/105
f 703/31/1 63/30/1 64/30/1
f 63/30/1 703/31/1 704/31/1
f 65/30/2 703/31/2 64/30/2
f 703/31/2 65/30/2 705/31/2
f 283/31/1 75/30/1 76/30/1
f 75/30/1 283/31/1 287/31/1
f 77/30/2 283/31/2 76/30/2
f 283/31/2 77/30/2 285/31/2
f 706/31/1 84/30/1 85/30/1
f 84/30/1 706/31/1 707/31/1
f 708/31/3 113/30/3 114/30/3
f 113/30/3 708/31/3 709/31/3
f 712/31/5 126/30/5 710/31/5
f 125/30/5 710/31/5 126/30/5
f 711/31/3 710/31/3 124/30/3
f 125/30/3 124/30/3 710/31/3
f 713/31/4 133/30/4 134/30/4
f 133/30/4 713/31/4 714/31/4
f 715/31/4 141/30/4 142/30/4
f 141/30/4 715/31/4 716/31/4
f 717/31/3 149/30/3 150/30/3
f 149/30/3 717/31/3 718/31/3
f 721/31/5 162/30/5 719/31/5
f 161/30/5 719/31/5 162/30/5
f 720/31/3 719/31/3 160/30/3
f 161/30/3 160/30/3 719/31/3
f 723/32/46 171/33/46 722/32/46
f 171/33/46 723/32/46 170/33/46
f 724/34/1 171/33/1 169/33/1
f 171/33/1 724/34/1 722/32/1
f 723/32/21 167/33/21 170/33/21
f 167/33/21 723/32/21 725/34/21
f 167/33/2 724/34/2 169/33/2
f 724/34/2 167/33/2 725/34/2
f 728/35/23 727/36/23 726/35/23
f 727/36/23 728/35/23 729/36/23
f 729/36/1 731/38/1 730/37/1
f 731/38/1 729/36/1 732/39/1
f 732/39/1 729/36/1 733/40/1
f 733/40/1 729/36/1 734/41/1
f 734/41/1 729/36/1 735/42/1
f 735/42/1 729/36/1 728/35/1
f 730/37/22 737/38/22 736/37/22
f 737/38/22 730/37/22 731/38/22
f 737/38/21 727/36/21 736/37/21
f 727/36/21 737/38/21 738/39/21
f 727/36/21 738/39/21 739/40/21
f 727/36/21 739/40/21 740/41/21
f 727/36/21 740/41/21 741/42/21
f 727/36/21 741/42/21 726/35/21
f 741/42/32 184/43/32 726/35/32
f 726/35/32 184/43/32 728/35/32
f 189/43/32 728/35/32 184/43/32
f 189/43/32 735/42/32 728/35/32
f 734/41/32 741/42/32 735/42/32
f 189/43/32 734/41/32 735/42/32
f 741/42/32 734/41/32 740/41/32
f 740/41/32 184/43/32 741/42/32
f 189/43/32 733/40/32 734/41/32
f 739/40/32 184/43/32 740/41/32
f 189/43/32 732/39/32 733/40/32
f 732/39/32 739/40/32 733/40/32
f 189/43/32 731/38/32 732/39/32
f 739/40/32 732/39/32 738/39/32
f 738/39/32 184/43/32 739/40/32
f 731/38/32 189/43/32 188/44/32
f 737/38/32 184/43/32 738/39/32
f 188/44/32 737/38/32 731/38/32
f 737/38/32 183/44/32 184/43/32
f 183/44/32 737/38/32 188/44/32
f 725/34/32 203/44/32 204/43/32
f 725/34/32 204/43/32 201/45/32
f 723/32/32 203/44/32 725/34/32
f 203/44/32 723/32/32 194/46/32
f 194/46/32 723/32/32 192/46/32
f 722/32/32 192/46/32 723/32/32
f 192/46/32 722/32/32 195/44/32
f 725/34/32 201/45/32 724/34/32
f 195/44/32 722/32/32 724/34/32
f 199/45/32 724/34/32 201/45/32
f 195/44/32 724/34/32 197/43/32
f 197/43/32 724/34/32 199/45/32
f 216/47/10 230/47/10 215/47/10
f 230/47/10 216/47/10 226/47/10
f 238/48/10 742/48/10 250/48/10
f 742/48/10 238/48/10 240/48/10
f 258/48/10 743/48/10 270/48/10
f 743/48/10 258/48/10 260/48/10
f 745/48/10 280/48/10 744/48/10
f 280/48/10 745/48/10 278/48/10
f 290/48/10 746/48/10 302/48/10
f 746/48/10 290/48/10 292/48/10
f 310/48/10 747/48/10 322/48/10
f 747/48/10 310/48/10 312/48/10
f 749/48/10 332/48/10 748/48/10
f 332/48/10 749/48/10 330/48/10
f 752/49/7 751/31/7 750/31/7
f 751/31/7 752/49/7 753/49/7
f 755/31/9 751/31/9 754/31/9
f 751/31/9 755/31/9 750/31/9
f 756/49/6 751/31/6 753/49/6
f 751/31/6 756/49/6 754/31/6
f 755/31/8 752/49/8 750/31/8
f 752/49/8 755/31/8 757/49/8
f 756/49/33 755/31/33 754/31/33
f 755/31/33 756/49/33 757/49/33
f 760/49/7 759/31/7 758/31/7
f 759/31/7 760/49/7 761/49/7
f 763/31/9 759/31/9 762/31/9
f 759/31/9 763/31/9 758/31/9
f 764/49/6 759/31/6 761/49/6
f 759/31/6 764/49/6 762/31/6
f 763/31/8 760/49/8 758/31/8
f 760/49/8 763/31/8 765/49/8
f 764/49/33 763/31/33 762/31/33
f 763/31/33 764/49/33 765/49/33
f 439/30/8 766/31/8 440/30/8
f 766/31/8 439/30/8 767/31/8
f 769/31/6 441/30/6 768/31/6
f 441/30/6 769/31/6 442/30/6
f 768/31/7 402/51/7 401/50/7
f 768/31/7 401/50/7 410/52/7
f 441/30/7 402/51/7 768/31/7
f 402/51/7 441/30/7 404/53/7
f 404/53/7 441/30/7 419/53/7
f 440/30/7 419/53/7 441/30/7
f 419/53/7 440/30/7 422/51/7
f 768/31/7 410/52/7 766/31/7
f 422/51/7 440/30/7 766/31/7
f 414/52/7 766/31/7 410/52/7
f 422/51/7 766/31/7 413/50/7
f 413/50/7 766/31/7 414/52/7
f 507/30/8 436/31/8 508/30/8
f 436/31/8 507/30/8 435/31/8
f 438/31/6 509/30/6 437/31/6
f 509/30/6 438/31/6 510/30/6
f 437/31/7 470/51/7 469/50/7
f 437/31/7 469/50/7 478/52/7
f 509/30/7 470/51/7 437/31/7
f 470/51/7 509/30/7 472/53/7
f 472/53/7 509/30/7 487/53/7
f 508/30/7 487/53/7 509/30/7
f 487/53/7 508/30/7 490/51/7
f 437/31/7 478/52/7 436/31/7
f 490/51/7 508/30/7 436/31/7
f 482/52/7 436/31/7 478/52/7
f 490/51/7 436/31/7 481/50/7
f 481/50/7 436/31/7 482/52/7
f 773/49/7 772/49/7 771/31/7
f 770/31/7 771/31/7 772/49/7
f 774/31/105 678/51/105 677/50/105
f 774/31/105 677/50/105 680/52/105
f 689/30/105 678/51/105 774/31/105
f 678/51/105 689/30/105 667/53/105
f 667/53/105 689/30/105 669/53/105
f 690/30/105 669/53/105 689/30/105
f 669/53/105 690/30/105 673/51/105
f 774/31/105 680/52/105 775/31/105
f 673/51/105 690/30/105 775/31/105
f 682/52/105 775/31/105 680/52/105
f 673/51/105 775/31/105 674/50/105
f 674/50/105 775/31/105 682/52/105

usemtl colormap-specular

f 736/54/32 729/55/32 730/54/32
f 729/55/32 736/54/32 727/55/32
f 456/57/7 445/56/7 448/56/7
f 445/56/7 456/57/7 446/57/7
f 524/57/7 513/56/7 516/56/7
f 513/56/7 524/57/7 514/57/7
f 695/57/105 693/56/105 700/56/105
f 693/56/105 695/57/105 694/57/105

g building-d




usemtl colormap

f 3/2/1 2/1/1 1/1/1
f 2/1/1 3/2/1 4/2/1
f 7/2/1 6/1/1 5/1/1
f 6/1/1 7/2/1 8/2/1
f 9/1/2 7/2/2 5/1/2
f 7/2/2 9/1/2 10/2/2
f 13/2/3 12/1/3 11/1/3
f 12/1/3 13/2/3 14/2/3
f 17/2/4 16/1/4 15/1/4
f 16/1/4 17/2/4 18/2/4
f 24/2/5 23/1/5 21/2/5
f 19/1/5 21/2/5 23/1/5
f 22/2/3 21/2/3 20/1/3
f 19/1/3 20/1/3 21/2/3
f 38/1/8 37/2/8 35/1/8
f 33/2/8 35/1/8 37/2/8
f 36/1/7 35/1/7 34/3/7
f 33/2/7 34/3/7 35/1/7
f 32/4/7 34/3/7 33/2/7
f 26/2/7 32/4/7 33/2/7
f 32/4/7 26/2/7 31/4/7
f 31/4/7 26/2/7 30/3/7
f 30/3/7 26/2/7 29/1/7
f 25/1/7 29/1/7 26/2/7
f 28/2/6 27/1/6 26/2/6
f 25/1/6 26/2/6 27/1/6
f 41/5/9 40/5/9 39/5/9
f 40/5/9 41/5/9 42/5/9
f 43/6/1 39/5/1 40/5/1
f 39/5/1 43/6/1 44/6/1
f 43/6/10 2/6/10 44/6/10
f 2/6/10 43/6/10 1/6/10
f 47/6/11 46/5/1 45/5/11
f 46/5/1 47/6/11 48/6/1
f 51/5/2 50/6/12 49/5/12
f 50/6/12 51/5/2 52/6/2
f 50/6/12 45/5/11 49/5/12
f 45/5/11 50/6/12 47/6/11
f 51/5/9 46/5/9 53/5/9
f 46/5/9 51/5/9 45/5/9
f 45/5/9 51/5/9 49/5/9
f 47/6/10 6/6/10 48/6/10
f 6/6/10 47/6/10 5/6/10
f 5/6/10 47/6/10 50/6/10
f 5/6/10 50/6/10 9/6/10
f 9/6/10 50/6/10 52/6/10
f 56/6/11 55/5/1 54/5/11
f 55/5/1 56/6/11 57/6/1
f 60/5/2 59/6/12 58/5/12
f 59/6/12 60/5/2 61/6/2
f 59/6/12 54/5/11 58/5/12
f 54/5/11 59/6/12 56/6/11
f 60/5/9 55/5/9 62/5/9
f 55/5/9 60/5/9 54/5/9
f 54/5/9 60/5/9 58/5/9
f 57/6/10 64/6/10 63/6/10
f 64/6/10 57/6/10 56/6/10
f 64/6/10 56/6/10 59/6/10
f 64/6/10 59/6/10 65/6/10
f 65/6/10 59/6/10 61/6/10
f 68/6/11 67/5/1 66/5/11
f 67/5/1 68/6/11 69/6/1
f 72/5/2 71/6/12 70/5/12
f 71/6/12 72/5/2 73/6/2
f 71/6/12 66/5/11 70/5/12
f 66/5/11 71/6/12 68/6/11
f 72/5/9 67/5/9 74/5/9
f 67/5/9 72/5/9 66/5/9
f 66/5/9 72/5/9 70/5/9
f 69/6/10 76/6/10 75/6/10
f 76/6/10 69/6/10 68/6/10
f 76/6/10 68/6/10 71/6/10
f 76/6/10 71/6/10 77/6/10
f 77/6/10 71/6/10 73/6/10
f 80/5/9 79/5/9 78/5/9
f 79/5/9 80/5/9 81/5/9
f 82/6/1 78/5/1 79/5/1
f 78/5/1 82/6/1 83/6/1
f 82/6/10 84/6/10 83/6/10
f 84/6/10 82/6/10 85/6/10
f 88/5/9 87/5/9 86/5/9
f 87/5/9 88/5/9 89/5/9
f 90/6/3 86/5/3 87/5/3
f 86/5/3 90/6/3 91/6/3
f 90/6/10 12/6/10 91/6/10
f 12/6/10 90/6/10 11/6/10
f 94/5/9 93/5/9 92/5/9
f 93/5/9 94/5/9 95/5/9
f 96/6/4 92/5/4 93/5/4
f 92/5/4 96/6/4 97/6/4
f 96/6/10 16/6/10 97/6/10
f 16/6/10 96/6/10 15/6/10
f 19/6/10 23/6/10 105/6/10
f 105/6/10 103/6/10 19/6/10
f 103/6/10 100/6/10 19/6/10
f 19/6/10 100/6/10 20/6/10
f 101/6/10 20/6/10 100/6/10
f 102/5/9 104/5/9 98/5/9
f 98/5/9 104/5/9 99/5/9
f 106/5/9 99/5/9 104/5/9
f 100/6/13 103/6/14 98/5/13
f 102/5/14 98/5/13 103/6/14
f 105/6/5 104/5/5 103/6/14
f 102/5/14 103/6/14 104/5/5
f 101/6/3 100/6/13 99/5/3
f 98/5/13 99/5/3 100/6/13
f 109/5/9 108/5/9 107/5/9
f 108/5/9 109/5/9 110/5/9
f 111/6/3 107/5/3 108/5/3
f 107/5/3 111/6/3 112/6/3
f 111/6/10 113/6/10 112/6/10
f 113/6/10 111/6/10 114/6/10
f 125/6/10 126/6/10 122/6/10
f 122/6/10 120/6/10 125/6/10
f 120/6/10 117/6/10 125/6/10
f 125/6/10 117/6/10 124/6/10
f 118/6/10 124/6/10 117/6/10
f 119/5/9 121/5/9 115/5/9
f 115/5/9 121/5/9 116/5/9
f 123/5/9 116/5/9 121/5/9
f 117/6/13 120/6/14 115/5/13
f 119/5/14 115/5/13 120/6/14
f 122/6/5 121/5/5 120/6/14
f 119/5/14 120/6/14 121/5/5
f 118/6/3 117/6/13 116/5/3
f 115/5/13 116/5/3 117/6/13
f 129/5/9 128/5/9 127/5/9
f 128/5/9 129/5/9 130/5/9
f 131/6/4 127/5/4 128/5/4
f 127/5/4 131/6/4 132/6/4
f 131/6/10 133/6/10 132/6/10
f 133/6/10 131/6/10 134/6/10
f 137/5/9 136/5/9 135/5/9
f 136/5/9 137/5/9 138/5/9
f 139/6/4 135/5/4 136/5/4
f 135/5/4 139/6/4 140/6/4
f 139/6/10 141/6/10 140/6/10
f 141/6/10 139/6/10 142/6/10
f 145/5/9 144/5/9 143/5/9
f 144/5/9 145/5/9 146/5/9
f 147/6/3 143/5/3 144/5/3
f 143/5/3 147/6/3 148/6/3
f 147/6/10 149/6/10 148/6/10
f 149/6/10 147/6/10 150/6/10
f 161/6/10 162/6/10 158/6/10
f 158/6/10 156/6/10 161/6/10
f 156/6/10 153/6/10 161/6/10
f 161/6/10 153/6/10 160/6/10
f 154/6/10 160/6/10 153/6/10
f 155/5/9 157/5/9 151/5/9
f 151/5/9 157/5/9 152/5/9
f 159/5/9 152/5/9 157/5/9
f 153/6/13 156/6/14 151/5/13
f 155/5/14 151/5/13 156/6/14
f 158/6/5 157/5/5 156/6/14
f 155/5/14 156/6/14 157/5/5
f 154/6/3 153/6/13 152/5/3
f 151/5/13 152/5/3 153/6/13
f 165/7/10 164/7/10 163/7/10
f 166/7/10 164/7/10 165/7/10
f 167/7/10 164/7/10 166/7/10
f 168/7/10 167/7/10 166/7/10
f 169/7/10 164/7/10 167/7/10
f 168/7/10 170/7/10 167/7/10
f 171/7/10 164/7/10 169/7/10
f 168/7/10 171/7/10 170/7/10
f 164/7/10 171/7/10 172/7/10
f 168/7/10 172/7/10 171/7/10
f 173/7/10 172/7/10 168/7/10
f 172/7/10 173/7/10 174/7/10
f 176/5/15 163/7/12 175/5/12
f 163/7/12 176/5/15 165/7/15
f 163/7/12 177/5/11 175/5/12
f 177/5/11 163/7/12 164/7/11
f 164/7/11 178/5/16 177/5/11
f 178/5/16 164/7/11 172/7/16
f 180/5/18 166/7/17 179/5/17
f 166/7/17 180/5/18 168/7/18
f 179/5/17 165/7/15 176/5/15
f 165/7/15 179/5/17 166/7/17
f 173/7/20 181/5/19 174/7/19
f 181/5/19 173/7/20 182/5/20
f 168/7/18 182/5/20 173/7/20
f 182/5/20 168/7/18 180/5/18
f 172/7/16 181/5/19 178/5/16
f 181/5/19 172/7/16 174/7/19
f 185/10/21 184/9/21 183/8/21
f 184/9/21 185/10/21 186/11/21
f 183/8/22 187/10/22 185/10/22
f 187/10/22 183/8/22 188/8/22
f 189/9/1 187/10/1 188/8/1
f 187/10/1 189/9/1 190/11/1
f 190/11/23 184/9/23 186/11/23
f 184/9/23 190/11/23 189/9/23
f 193/12/25 192/13/24 191/12/24
f 192/13/24 193/12/25 194/13/25
f 197/9/27 196/10/26 195/8/26
f 196/10/26 197/9/27 198/11/27
f 201/14/29 200/15/28 199/14/28
f 200/15/28 201/14/29 202/15/29
f 205/10/30 204/9/31 203/8/30
f 204/9/31 205/10/30 206/11/31
f 195/8/26 191/12/24 192/13/24
f 191/12/24 195/8/26 196/10/26
f 206/11/31 201/14/29 204/9/31
f 201/14/29 206/11/31 202/15/29
f 199/14/28 198/11/27 197/9/27
f 198/11/27 199/14/28 200/15/28
f 193/12/25 203/8/30 194/13/25
f 203/8/30 193/12/25 205/10/30
f 196/10/32 193/12/32 191/12/32
f 193/12/32 196/10/32 185/10/32
f 193/12/32 185/10/32 205/10/32
f 187/10/32 205/10/32 185/10/32
f 185/10/32 196/10/32 186/11/32
f 186/11/32 196/10/32 198/11/32
f 205/10/32 187/10/32 206/11/32
f 186/11/32 198/11/32 200/15/32
f 206/11/32 200/15/32 202/15/32
f 206/11/32 187/10/32 190/11/32
f 186/11/32 200/15/32 190/11/32
f 190/11/32 200/15/32 206/11/32
f 209/5/9 208/5/9 207/5/9
f 208/5/9 209/5/9 210/5/9
f 210/5/9 209/5/9 211/5/9
f 211/5/9 209/5/9 212/5/9
f 212/5/9 209/5/9 213/5/9
f 213/5/9 209/5/9 214/5/9
f 217/15/33 216/16/33 215/16/33
f 216/16/33 217/15/33 218/15/33
f 219/15/34 211/5/35 212/5/34
f 211/5/35 219/15/34 220/15/35
f 222/15/6 208/5/36 221/15/36
f 208/5/36 222/15/6 207/5/6
f 214/5/38 223/15/37 213/5/37
f 223/15/37 214/5/38 224/15/38
f 225/15/6 216/16/6 218/15/6
f 216/16/6 225/15/6 226/16/6
f 227/15/10 223/15/10 224/15/10
f 225/15/10 223/15/10 227/15/10
f 218/15/10 223/15/10 225/15/10
f 218/15/10 219/15/10 223/15/10
f 217/15/10 219/15/10 218/15/10
f 219/15/10 217/15/10 220/15/10
f 228/15/10 220/15/10 217/15/10
f 228/15/10 229/15/10 220/15/10
f 222/15/10 229/15/10 228/15/10
f 229/15/10 222/15/10 221/15/10
f 209/5/8 224/15/38 214/5/38
f 224/15/38 209/5/8 227/15/8
f 221/15/36 210/5/39 229/15/39
f 210/5/39 221/15/36 208/5/36
f 230/16/8 217/15/8 215/16/8
f 217/15/8 230/16/8 228/15/8
f 230/16/33 222/15/33 228/15/33
f 230/16/33 207/5/33 222/15/33
f 207/5/33 230/16/33 209/5/33
f 226/16/33 209/5/33 230/16/33
f 209/5/33 226/16/33 227/15/33
f 227/15/33 226/16/33 225/15/33
f 220/15/35 210/5/39 211/5/35
f 210/5/39 220/15/35 229/15/39
f 223/15/37 212/5/34 213/5/37
f 212/5/34 223/15/37 219/15/34
f 233/17/8 232/18/8 231/17/8
f 232/18/8 233/17/8 234/18/8
f 232/18/7 235/17/7 231/17/7
f 235/17/7 232/18/7 236/18/7
f 239/15/6 238/17/6 237/15/6
f 238/17/6 239/15/6 240/17/6
f 243/15/40 242/18/7 241/18/40
f 242/18/7 243/15/40 244/15/7
f 245/18/9 232/18/9 234/18/9
f 232/18/9 245/18/9 241/18/9
f 241/18/9 245/18/9 246/18/9
f 242/18/9 232/18/9 241/18/9
f 232/18/9 242/18/9 236/18/9
f 243/15/10 247/15/10 244/15/10
f 247/15/10 243/15/10 237/15/10
f 237/15/10 243/15/10 239/15/10
f 239/15/10 243/15/10 248/15/10
f 248/15/10 243/15/10 249/15/10
f 245/18/8 249/15/41 246/18/41
f 249/15/41 245/18/8 248/15/8
f 246/18/41 243/15/40 241/18/40
f 243/15/40 246/18/41 249/15/41
f 247/15/33 238/17/33 250/17/33
f 238/17/33 247/15/33 237/15/33
f 253/17/42 252/18/42 251/17/42
f 252/18/42 253/17/42 254/18/42
f 252/18/3 255/17/3 251/17/3
f 255/17/3 252/18/3 256/18/3
f 259/15/5 258/17/5 257/15/5
f 258/17/5 259/15/5 260/17/5
f 263/15/43 262/18/3 261/18/43
f 262/18/3 263/15/43 264/15/3
f 265/18/9 252/18/9 254/18/9
f 252/18/9 265/18/9 261/18/9
f 261/18/9 265/18/9 266/18/9
f 262/18/9 252/18/9 261/18/9
f 252/18/9 262/18/9 256/18/9
f 263/15/10 267/15/10 264/15/10
f 267/15/10 263/15/10 257/15/10
f 257/15/10 263/15/10 259/15/10
f 259/15/10 263/15/10 268/15/10
f 268/15/10 263/15/10 269/15/10
f 265/18/42 269/15/44 266/18/44
f 269/15/44 265/18/42 268/15/42
f 266/18/44 263/15/43 261/18/43
f 263/15/43 266/18/44 269/15/44
f 267/15/45 258/17/45 270/17/45
f 258/17/45 267/15/45 257/15/45
f 273/18/9 272/18/9 271/18/9
f 272/18/9 273/18/9 274/18/9
f 276/17/8 272/18/8 275/17/8
f 272/18/8 276/17/8 271/18/8
f 279/15/6 278/17/6 277/15/6
f 278/17/6 279/15/6 280/17/6
f 277/15/10 281/15/10 279/15/10
f 281/15/10 277/15/10 282/15/10
f 273/18/8 282/15/8 274/18/8
f 282/15/8 273/18/8 281/15/8
f 285/17/2 284/18/2 283/17/2
f 284/18/2 285/17/2 286/18/2
f 284/18/1 287/17/1 283/17/1
f 287/17/1 284/18/1 288/18/1
f 291/15/46 290/17/46 289/15/46
f 290/17/46 291/15/46 292/17/46
f 295/15/11 294/18/1 293/18/11
f 294/18/1 295/15/11 296/15/1
f 297/18/9 284/18/9 286/18/9
f 284/18/9 297/18/9 293/18/9
f 293/18/9 297/18/9 298/18/9
f 294/18/9 284/18/9 293/18/9
f 284/18/9 294/18/9 288/18/9
f 295/15/10 299/15/10 296/15/10
f 299/15/10 295/15/10 289/15/10
f 289/15/10 295/15/10 291/15/10
f 291/15/10 295/15/10 300/15/10
f 300/15/10 295/15/10 301/15/10
f 297/18/2 301/15/12 298/18/12
f 301/15/12 297/18/2 300/15/2
f 298/18/12 295/15/11 293/18/11
f 295/15/11 298/18/12 301/15/12
f 299/15/21 290/17/21 302/17/21
f 290/17/21 299/15/21 289/15/21
f 305/17/47 304/18/47 303/17/47
f 304/18/47 305/17/47 306/18/47
f 304/18/48 307/17/48 303/17/48
f 307/17/48 304/18/48 308/18/48
f 311/15/49 310/17/49 309/15/49
f 310/17/49 311/15/49 312/17/49
f 315/15/50 314/18/48 313/18/50
f 314/18/48 315/15/50 316/15/48
f 317/18/9 304/18/9 306/18/9
f 304/18/9 317/18/9 313/18/9
f 313/18/9 317/18/9 318/18/9
f 314/18/9 304/18/9 313/18/9
f 304/18/9 314/18/9 308/18/9
f 315/15/10 319/15/10 316/15/10
f 319/15/10 315/15/10 309/15/10
f 309/15/10 315/15/10 311/15/10
f 311/15/10 315/15/10 320/15/10
f 320/15/10 315/15/10 321/15/10
f 317/18/47 321/15/51 318/18/51
f 321/15/51 317/18/47 320/15/47
f 318/18/51 315/15/50 313/18/50
f 315/15/50 318/18/51 321/15/51
f 319/15/52 310/17/52 322/17/52
f 310/17/52 319/15/52 309/15/52
f 325/18/9 324/18/9 323/18/9
f 324/18/9 325/18/9 326/18/9
f 328/17/53 324/18/53 327/17/53
f 324/18/53 328/17/53 323/18/53
f 331/15/54 330/17/54 329/15/54
f 330/17/54 331/15/54 332/17/54
f 329/15/10 333/15/10 331/15/10
f 333/15/10 329/15/10 334/15/10
f 325/18/53 334/15/53 326/18/53
f 334/15/53 325/18/53 333/15/53
f 337/20/6 336/19/56 335/19/55
f 336/19/56 337/20/6 338/20/57
f 341/19/59 340/20/8 339/19/58
f 340/20/8 341/19/59 342/20/60
f 336/19/57 344/17/33 343/17/57
f 344/17/33 336/19/57 345/19/33
f 337/20/6 347/19/61 346/20/39
f 347/19/61 337/20/6 335/19/55
f 348/20/33 341/19/59 345/19/62
f 341/19/59 348/20/33 342/20/60
f 350/20/7 347/19/61 349/19/63
f 347/19/61 350/20/7 346/20/39
f 352/20/37 349/19/63 351/19/64
f 349/19/63 352/20/37 350/20/7
f 354/15/66 337/20/6 353/15/65
f 337/20/6 354/15/66 338/20/57
f 345/19/33 355/17/60 344/17/33
f 355/17/60 345/19/33 341/19/60
f 351/19/37 357/17/7 356/17/37
f 357/17/7 351/19/37 349/19/7
f 358/17/8 351/19/37 356/17/37
f 351/19/37 358/17/8 339/19/8
f 338/20/57 345/19/62 336/19/56
f 345/19/62 338/20/57 348/20/33
f 359/15/67 350/20/7 352/20/37
f 350/20/7 359/15/67 360/15/68
f 361/15/69 337/20/6 346/20/39
f 337/20/6 361/15/69 353/15/65
f 360/15/68 346/20/39 350/20/7
f 346/20/39 360/15/68 361/15/69
f 351/19/64 340/20/8 352/20/37
f 340/20/8 351/19/64 339/19/58
f 362/15/70 342/20/60 348/20/33
f 342/20/60 362/15/70 363/15/71
f 340/20/8 359/15/67 352/20/37
f 359/15/67 340/20/8 364/15/72
f 361/15/10 354/15/10 353/15/10
f 354/15/10 361/15/10 360/15/10
f 354/15/10 360/15/10 362/15/10
f 362/15/10 360/15/10 359/15/10
f 362/15/10 359/15/10 363/15/10
f 363/15/10 359/15/10 364/15/10
f 335/19/6 365/17/39 347/19/39
f 365/17/39 335/19/6 366/17/6
f 349/19/7 365/17/39 357/17/7
f 365/17/39 349/19/7 347/19/39
f 340/20/8 363/15/71 364/15/72
f 363/15/71 340/20/8 342/20/60
f 336/19/57 366/17/6 335/19/6
f 366/17/6 336/19/57 343/17/57
f 354/15/66 348/20/33 338/20/57
f 348/20/33 354/15/66 362/15/70
f 355/17/60 339/19/8 358/17/8
f 339/19/8 355/17/60 341/19/60
f 369/20/6 368/19/56 367/19/55
f 368/19/56 369/20/6 370/20/57
f 373/19/59 372/20/8 371/19/58
f 372/20/8 373/19/59 374/20/60
f 368/19/57 376/17/33 375/17/57
f 376/17/33 368/19/57 377/19/33
f 369/20/6 379/19/61 378/20/39
f 379/19/61 369/20/6 367/19/55
f 380/20/33 373/19/59 377/19/62
f 373/19/59 380/20/33 374/20/60
f 382/20/7 379/19/61 381/19/63
f 379/19/61 382/20/7 378/20/39
f 384/20/37 381/19/63 383/19/64
f 381/19/63 384/20/37 382/20/7
f 386/15/66 369/20/6 385/15/65
f 369/20/6 386/15/66 370/20/57
f 377/19/33 387/17/60 376/17/33
f 387/17/60 377/19/33 373/19/60
f 383/19/37 389/17/7 388/17/37
f 389/17/7 383/19/37 381/19/7
f 390/17/8 383/19/37 388/17/37
f 383/19/37 390/17/8 371/19/8
f 370/20/57 377/19/62 368/19/56
f 377/19/62 370/20/57 380/20/33
f 391/15/67 382/20/7 384/20/37
f 382/20/7 391/15/67 392/15/68
f 393/15/69 369/20/6 378/20/39
f 369/20/6 393/15/69 385/15/65
f 392/15/68 378/20/39 382/20/7
f 378/20/39 392/15/68 393/15/69
f 383/19/64 372/20/8 384/20/37
f 372/20/8 383/19/64 371/19/58
f 394/15/70 374/20/60 380/20/33
f 374/20/60 394/15/70 395/15/71
f 372/20/8 391/15/67 384/20/37
f 391/15/67 372/20/8 396/15/72
f 393/15/10 386/15/10 385/15/10
f 386/15/10 393/15/10 392/15/10
f 386/15/10 392/15/10 394/15/10
f 394/15/10 392/15/10 391/15/10
f 394/15/10 391/15/10 395/15/10
f 395/15/10 391/15/10 396/15/10
f 367/19/6 397/17/39 379/19/39
f 397/17/39 367/19/6 398/17/6
f 381/19/7 397/17/39 389/17/7
f 397/17/39 381/19/7 379/19/39
f 372/20/8 395/15/71 396/15/72
f 395/15/71 372/20/8 374/20/60
f 368/19/57 398/17/6 367/19/6
f 398/17/6 368/19/57 375/17/57
f 386/15/66 380/20/33 370/20/57
f 380/20/33 386/15/66 394/15/70
f 387/17/60 371/19/8 390/17/8
f 371/19/8 387/17/60 373/19/60
f 401/21/73 400/22/74 399/21/73
f 400/22/74 401/21/73 402/22/74
f 402/22/74 403/23/75 400/22/74
f 403/23/75 402/22/74 404/23/75
f 407/24/76 406/25/77 405/24/76
f 406/25/77 407/24/76 408/25/77
f 410/18/78 399/21/73 409/18/78
f 399/21/73 410/18/78 401/21/73
f 413/21/79 412/18/80 411/21/79
f 412/18/80 413/21/79 414/18/80
f 417/25/81 416/24/82 415/25/81
f 416/24/82 417/25/81 418/24/82
f 419/23/83 403/23/75 404/23/75
f 403/23/75 419/23/83 420/23/83
f 422/22/84 411/21/79 421/22/84
f 411/21/79 422/22/84 413/21/79
f 421/22/7 403/23/7 420/23/7
f 403/23/7 421/22/7 400/22/7
f 400/22/7 421/22/7 416/24/7
f 416/24/7 421/22/7 411/21/7
f 405/24/7 400/22/7 416/24/7
f 416/24/7 411/21/7 415/25/7
f 400/22/7 405/24/7 399/21/7
f 415/25/7 411/21/7 406/25/7
f 399/21/7 405/24/7 406/25/7
f 399/21/7 406/25/7 411/21/7
f 399/21/7 411/21/7 412/18/7
f 399/21/7 412/18/7 409/18/7
f 416/24/82 407/24/76 405/24/76
f 407/24/76 416/24/82 418/24/82
f 417/25/81 406/25/77 408/25/77
f 406/25/77 417/25/81 415/25/81
f 412/18/80 410/18/78 409/18/78
f 410/18/78 412/18/80 414/18/80
f 419/23/83 421/22/84 420/23/83
f 421/22/84 419/23/83 422/22/84
f 425/5/8 424/6/41 423/5/41
f 424/6/41 425/5/8 426/6/8
f 429/6/6 428/5/85 427/6/85
f 428/5/85 429/6/6 430/5/6
f 433/6/40 432/5/86 431/5/40
f 432/5/86 433/6/40 434/6/86
f 423/5/41 433/6/40 431/5/40
f 433/6/40 423/5/41 424/6/41
f 427/6/85 432/5/86 434/6/86
f 432/5/86 427/6/85 428/5/85
f 425/5/9 436/5/9 435/5/9
f 436/5/9 425/5/9 431/5/9
f 431/5/9 425/5/9 423/5/9
f 432/5/9 436/5/9 431/5/9
f 432/5/9 437/5/9 436/5/9
f 432/5/9 438/5/9 437/5/9
f 428/5/9 438/5/9 432/5/9
f 438/5/9 428/5/9 430/5/9
f 439/6/10 424/6/10 426/6/10
f 440/6/10 424/6/10 439/6/10
f 440/6/10 433/6/10 424/6/10
f 441/6/10 433/6/10 440/6/10
f 433/6/10 441/6/10 434/6/10
f 442/6/10 434/6/10 441/6/10
f 429/6/10 434/6/10 442/6/10
f 434/6/10 429/6/10 427/6/10
f 445/26/76 444/27/77 443/26/76
f 444/27/77 445/26/76 446/27/77
f 447/26/10 445/26/76 443/26/76
f 445/26/76 447/26/10 448/26/82
f 448/26/82 447/26/10 449/26/10
f 448/26/82 449/26/10 450/26/10
f 448/26/82 450/26/10 451/26/10
f 448/26/82 451/26/10 452/26/10
f 448/26/82 452/26/10 453/26/10
f 448/26/82 453/26/10 454/26/82
f 456/27/81 454/26/82 455/27/81
f 454/26/82 456/27/81 448/26/82
f 456/27/81 444/27/77 446/27/77
f 444/27/77 456/27/81 457/27/9
f 457/27/9 456/27/81 458/27/9
f 458/27/9 456/27/81 459/27/9
f 459/27/9 456/27/81 460/27/9
f 460/27/9 456/27/81 461/27/9
f 461/27/9 456/27/81 462/27/9
f 462/27/9 456/27/81 455/27/81
f 454/26/7 463/28/7 455/27/7
f 455/27/7 463/28/7 462/27/7
f 454/26/7 464/5/7 463/28/7
f 464/5/7 454/26/7 465/5/7
f 443/26/7 465/5/7 454/26/7
f 443/26/7 454/26/7 453/26/7
f 465/5/7 443/26/7 466/28/7
f 462/27/7 452/26/7 453/26/7
f 443/26/7 453/26/7 452/26/7
f 452/26/7 462/27/7 461/27/7
f 462/27/7 463/28/7 461/27/7
f 443/26/7 452/26/7 451/26/7
f 461/27/7 463/28/7 460/27/7
f 466/28/7 443/26/7 444/27/7
f 466/28/7 444/27/7 463/28/7
f 457/27/7 463/28/7 444/27/7
f 443/26/7 451/26/7 450/26/7
f 460/27/7 450/26/7 451/26/7
f 443/26/7 450/26/7 449/26/7
f 450/26/7 460/27/7 459/27/7
f 460/27/7 463/28/7 459/27/7
f 443/26/7 449/26/7 447/26/7
f 459/27/7 463/28/7 458/27/7
f 458/27/7 463/28/7 457/27/7
f 458/27/7 447/26/7 449/26/7
f 447/26/7 458/27/7 457/27/7
f 469/21/73 468/22/74 467/21/73
f 468/22/74 469/21/73 470/22/74
f 470/22/74 471/23/75 468/22/74
f 471/23/75 470/22/74 472/23/75
f 475/24/76 474/25/77 473/24/76
f 474/25/77 475/24/76 476/25/77
f 478/18/78 467/21/73 477/18/78
f 467/21/73 478/18/78 469/21/73
f 481/21/79 480/18/80 479/21/79
f 480/18/80 481/21/79 482/18/80
f 485/25/81 484/24/82 483/25/81
f 484/24/82 485/25/81 486/24/82
f 487/23/83 471/23/75 472/23/75
f 471/23/75 487/23/83 488/23/83
f 490/22/84 479/21/79 489/22/84
f 479/21/79 490/22/84 481/21/79
f 489/22/7 471/23/7 488/23/7
f 471/23/7 489/22/7 468/22/7
f 468/22/7 489/22/7 484/24/7
f 484/24/7 489/22/7 479/21/7
f 473/24/7 468/22/7 484/24/7
f 484/24/7 479/21/7 483/25/7
f 468/22/7 473/24/7 467/21/7
f 483/25/7 479/21/7 474/25/7
f 467/21/7 473/24/7 474/25/7
f 467/21/7 474/25/7 479/21/7
f 467/21/7 479/21/7 480/18/7
f 467/21/7 480/18/7 477/18/7
f 484/24/82 475/24/76 473/24/76
f 475/24/76 484/24/82 486/24/82
f 485/25/81 474/25/77 476/25/77
f 474/25/77 485/25/81 483/25/81
f 480/18/80 478/18/78 477/18/78
f 478/18/78 480/18/80 482/18/80
f 487/23/83 489/22/84 488/23/83
f 489/22/84 487/23/83 490/22/84
f 493/5/8 492/6/41 491/5/41
f 492/6/41 493/5/8 494/6/8
f 497/6/6 496/5/85 495/6/85
f 496/5/85 497/6/6 498/5/6
f 501/6/40 500/5/86 499/5/40
f 500/5/86 501/6/40 502/6/86
f 491/5/41 501/6/40 499/5/40
f 501/6/40 491/5/41 492/6/41
f 495/6/85 500/5/86 502/6/86
f 500/5/86 495/6/85 496/5/85
f 493/5/9 504/5/9 503/5/9
f 504/5/9 493/5/9 499/5/9
f 499/5/9 493/5/9 491/5/9
f 500/5/9 504/5/9 499/5/9
f 500/5/9 505/5/9 504/5/9
f 500/5/9 506/5/9 505/5/9
f 496/5/9 506/5/9 500/5/9
f 506/5/9 496/5/9 498/5/9
f 507/6/10 492/6/10 494/6/10
f 508/6/10 492/6/10 507/6/10
f 508/6/10 501/6/10 492/6/10
f 509/6/10 501/6/10 508/6/10
f 501/6/10 509/6/10 502/6/10
f 510/6/10 502/6/10 509/6/10
f 497/6/10 502/6/10 510/6/10
f 502/6/10 497/6/10 495/6/10
f 513/26/76 512/27/77 511/26/76
f 512/27/77 513/26/76 514/27/77
f 515/26/10 513/26/76 511/26/76
f 513/26/76 515/26/10 516/26/82
f 516/26/82 515/26/10 517/26/10
f 516/26/82 517/26/10 518/26/10
f 516/26/82 518/26/10 519/26/10
f 516/26/82 519/26/10 520/26/10
f 516/26/82 520/26/10 521/26/10
f 516/26/82 521/26/10 522/26/82
f 524/27/81 522/26/82 523/27/81
f 522/26/82 524/27/81 516/26/82
f 524/27/81 512/27/77 514/27/77
f 512/27/77 524/27/81 525/27/9
f 525/27/9 524/27/81 526/27/9
f 526/27/9 524/27/81 527/27/9
f 527/27/9 524/27/81 528/27/9
f 528/27/9 524/27/81 529/27/9
f 529/27/9 524/27/81 530/27/9
f 530/27/9 524/27/81 523/27/81
f 522/26/7 531/28/7 523/27/7
f 523/27/7 531/28/7 530/27/7
f 522/26/7 532/5/7 531/28/7
f 532/5/7 522/26/7 533/5/7
f 511/26/7 533/5/7 522/26/7
f 511/26/7 522/26/7 521/26/7
f 533/5/7 511/26/7 534/28/7
f 530/27/7 520/26/7 521/26/7
f 511/26/7 521/26/7 520/26/7
f 520/26/7 530/27/7 529/27/7
f 530/27/7 531/28/7 529/27/7
f 511/26/7 520/26/7 519/26/7
f 529/27/7 531/28/7 528/27/7
f 534/28/7 511/26/7 512/27/7
f 534/28/7 512/27/7 531/28/7
f 525/27/7 531/28/7 512/27/7
f 511/26/7 519/26/7 518/26/7
f 528/27/7 518/26/7 519/26/7
f 511/26/7 518/26/7 517/26/7
f 518/26/7 528/27/7 527/27/7
f 528/27/7 531/28/7 527/27/7
f 511/26/7 517/26/7 515/26/7
f 527/27/7 531/28/7 526/27/7
f 526/27/7 531/28/7 525/27/7
f 526/27/7 515/26/7 517/26/7
f 515/26/7 526/27/7 525/27/7
f 537/23/87 536/18/7 535/18/87
f 536/18/7 537/23/87 538/23/7
f 541/23/88 540/18/6 539/23/6
f 540/18/6 541/23/88 542/18/88
f 538/23/7 543/18/89 536/18/7
f 543/18/89 538/23/7 544/23/89
f 539/23/6 543/18/89 544/23/89
f 543/18/89 539/23/6 540/18/6
f 541/23/88 545/18/33 542/18/88
f 545/18/33 541/23/88 546/23/33
f 546/23/33 547/18/90 545/18/33
f 547/18/90 546/23/33 548/23/90
f 547/18/90 550/23/8 549/18/8
f 550/23/8 547/18/90 548/23/90
f 549/18/8 537/23/87 535/18/87
f 537/23/87 549/18/8 550/23/8
f 542/18/9 543/18/9 540/18/9
f 543/18/9 542/18/9 545/18/9
f 543/18/9 545/18/9 536/18/9
f 536/18/9 545/18/9 547/18/9
f 536/18/9 547/18/9 535/18/9
f 535/18/9 547/18/9 549/18/9
f 553/23/9 552/23/9 551/23/9
f 552/23/9 553/23/9 554/23/9
f 557/18/91 556/18/10 555/18/10
f 556/18/10 557/18/91 558/18/91
f 556/18/33 553/23/33 551/23/33
f 553/23/33 556/18/33 559/29/33
f 559/29/33 556/18/33 558/18/33
f 556/18/6 552/23/6 555/18/6
f 552/23/6 556/18/6 551/23/6
f 560/29/7 552/23/7 554/23/7
f 552/23/7 560/29/7 555/18/7
f 555/18/7 560/29/7 557/18/7
f 553/23/8 560/29/92 554/23/8
f 560/29/92 553/23/8 559/29/92
f 559/29/92 557/18/91 560/29/92
f 557/18/91 559/29/92 558/18/91
f 563/23/8 562/18/37 561/23/37
f 562/18/37 563/23/8 564/18/8
f 562/18/37 565/23/7 561/23/37
f 565/23/7 562/18/37 566/18/7
f 569/18/57 568/23/6 567/18/6
f 568/23/6 569/18/57 570/23/57
f 567/18/6 572/23/39 571/18/39
f 572/23/39 567/18/6 568/23/6
f 573/23/60 564/18/8 563/23/8
f 564/18/8 573/23/60 574/18/60
f 576/18/33 573/23/60 575/23/33
f 573/23/60 576/18/33 574/18/60
f 566/18/7 572/23/39 565/23/7
f 572/23/39 566/18/7 571/18/39
f 569/18/57 575/23/33 570/23/57
f 575/23/33 569/18/57 576/18/33
f 571/18/10 569/18/10 567/18/10
f 569/18/10 571/18/10 566/18/10
f 569/18/10 566/18/10 576/18/10
f 576/18/10 566/18/10 562/18/10
f 576/18/10 562/18/10 574/18/10
f 574/18/10 562/18/10 564/18/10
f 570/23/9 572/23/9 568/23/9
f 572/23/9 570/23/9 575/23/9
f 572/23/9 575/23/9 565/23/9
f 565/23/9 575/23/9 573/23/9
f 565/23/9 573/23/9 561/23/9
f 561/23/9 573/23/9 563/23/9
f 579/23/8 578/18/37 577/23/37
f 578/18/37 579/23/8 580/18/8
f 578/18/37 581/23/7 577/23/37
f 581/23/7 578/18/37 582/18/7
f 585/18/57 584/23/6 583/18/6
f 584/23/6 585/18/57 586/23/57
f 583/18/6 588/23/39 587/18/39
f 588/23/39 583/18/6 584/23/6
f 589/23/60 580/18/8 579/23/8
f 580/18/8 589/23/60 590/18/60
f 592/18/33 589/23/60 591/23/33
f 589/23/60 592/18/33 590/18/60
f 582/18/7 588/23/39 581/23/7
f 588/23/39 582/18/7 587/18/39
f 585/18/57 591/23/33 586/23/57
f 591/23/33 585/18/57 592/18/33
f 587/18/10 585/18/10 583/18/10
f 585/18/10 587/18/10 582/18/10
f 585/18/10 582/18/10 592/18/10
f 592/18/10 582/18/10 578/18/10
f 592/18/10 578/18/10 590/18/10
f 590/18/10 578/18/10 580/18/10
f 586/23/9 588/23/9 584/23/9
f 588/23/9 586/23/9 591/23/9
f 588/23/9 591/23/9 581/23/9
f 581/23/9 591/23/9 589/23/9
f 581/23/9 589/23/9 577/23/9
f 577/23/9 589/23/9 579/23/9
f 595/23/8 594/18/37 593/23/37
f 594/18/37 595/23/8 596/18/8
f 594/18/37 597/23/7 593/23/37
f 597/23/7 594/18/37 598/18/7
f 601/18/57 600/23/6 599/18/6
f 600/23/6 601/18/57 602/23/57
f 599/18/6 604/23/39 603/18/39
f 604/23/39 599/18/6 600/23/6
f 605/23/60 596/18/8 595/23/8
f 596/18/8 605/23/60 606/18/60
f 608/18/33 605/23/60 607/23/33
f 605/23/60 608/18/33 606/18/60
f 598/18/7 604/23/39 597/23/7
f 604/23/39 598/18/7 603/18/39
f 601/18/57 607/23/33 602/23/57
f 607/23/33 601/18/57 608/18/33
f 603/18/10 601/18/10 599/18/10
f 601/18/10 603/18/10 598/18/10
f 601/18/10 598/18/10 608/18/10
f 608/18/10 598/18/10 594/18/10
f 608/18/10 594/18/10 606/18/10
f 606/18/10 594/18/10 596/18/10
f 602/23/9 604/23/9 600/23/9
f 604/23/9 602/23/9 607/23/9
f 604/23/9 607/23/9 597/23/9
f 597/23/9 607/23/9 605/23/9
f 597/23/9 605/23/9 593/23/9
f 593/23/9 605/23/9 595/23/9
f 611/23/8 610/18/37 609/23/37
f 610/18/37 611/23/8 612/18/8
f 610/18/37 613/23/7 609/23/37
f 613/23/7 610/18/37 614/18/7
f 617/18/57 616/23/6 615/18/6
f 616/23/6 617/18/57 618/23/57
f 615/18/6 620/23/39 619/18/39
f 620/23/39 615/18/6 616/23/6
f 621/23/60 612/18/8 611/23/8
f 612/18/8 621/23/60 622/18/60
f 624/18/33 621/23/60 623/23/33
f 621/23/60 624/18/33 622/18/60
f 614/18/7 620/23/39 613/23/7
f 620/23/39 614/18/7 619/18/39
f 617/18/57 623/23/33 618/23/57
f 623/23/33 617/18/57 624/18/33
f 619/18/10 617/18/10 615/18/10
f 617/18/10 619/18/10 614/18/10
f 617/18/10 614/18/10 624/18/10
f 624/18/10 614/18/10 610/18/10
f 624/18/10 610/18/10 622/18/10
f 622/18/10 610/18/10 612/18/10
f 618/23/9 620/23/9 616/23/9
f 620/23/9 618/23/9 623/23/9
f 620/23/9 623/23/9 613/23/9
f 613/23/9 623/23/9 621/23/9
f 613/23/9 621/23/9 609/23/9
f 609/23/9 621/23/9 611/23/9
f 653/23/8 654/18/8 656/23/37
f 658/18/37 656/23/37 654/18/8
f 655/23/9 651/23/9 656/23/9
f 653/23/9 656/23/9 651/23/9
f 652/18/10 657/18/10 654/18/10
f 658/18/10 654/18/10 657/18/10
f 652/18/6 651/23/6 657/18/39
f 655/23/39 657/18/39 651/23/6
f 658/18/37 657/18/39 656/23/37
f 655/23/39 656/23/37 657/18/39
f 654/18/33 653/23/33 652/18/33
f 651/23/33 652/18/33 653/23/33
f 638/5/9 639/5/9 640/5/9
f 640/5/9 639/5/9 630/5/9
f 630/5/9 639/5/9 632/5/9
f 632/5/9 639/5/9 627/5/9
f 627/5/9 646/5/9 625/5/9
f 627/5/9 639/5/9 646/5/9
f 646/5/9 639/5/9 648/5/9
f 650/5/9 648/5/9 639/5/9
f 647/6/10 649/6/10 645/6/10
f 38/6/10 645/6/10 649/6/10
f 35/6/10 645/6/10 38/6/10
f 645/6/10 35/6/10 642/6/10
f 36/6/10 642/6/10 35/6/10
f 648/5/41 647/6/41 646/5/40
f 645/6/40 646/5/40 647/6/41
f 650/5/8 649/6/8 648/5/41
f 647/6/41 648/5/41 649/6/8
f 646/5/40 645/6/40 625/5/7
f 642/6/7 625/5/7 645/6/40
f 625/5/7 642/6/7 626/25/7
f 641/21/7 626/25/7 642/6/7
f 643/18/7 644/18/7 641/21/7
f 644/18/7 637/21/7 641/21/7
f 637/21/7 626/25/7 641/21/7
f 626/25/7 637/21/7 629/25/7
f 637/21/7 633/6/7 629/25/7
f 629/25/7 633/6/7 630/5/7
f 633/6/7 634/6/86 630/5/7
f 640/5/86 630/5/7 634/6/86
f 31/18/78 30/21/73 644/18/78
f 637/21/73 644/18/78 30/21/73
f 34/21/79 32/18/80 641/21/79
f 643/18/80 641/21/79 32/18/80
f 31/18/78 644/18/78 32/18/80
f 643/18/80 32/18/80 644/18/78
f 36/6/8 34/21/79 642/6/8
f 641/21/79 642/6/8 34/21/79
f 636/6/85 638/5/85 634/6/86
f 640/5/86 634/6/86 638/5/85
f 635/6/6 639/5/6 636/6/85
f 638/5/85 636/6/85 639/5/6
f 30/21/73 29/6/6 637/21/73
f 633/6/6 637/21/73 29/6/6
f 636/6/10 634/6/10 635/6/10
f 635/6/10 634/6/10 27/6/10
f 27/6/10 634/6/10 25/6/10
f 25/6/10 634/6/10 29/6/10
f 633/6/10 29/6/10 634/6/10
f 629/25/9 631/25/9 626/25/9
f 628/25/9 626/25/9 631/25/9
f 632/5/8 631/25/8 630/5/8
f 629/25/8 630/5/8 631/25/8
f 628/25/6 627/5/6 626/25/6
f 625/5/6 626/25/6 627/5/6
f 661/25/94 660/25/93 659/25/93
f 660/25/93 661/25/94 662/25/94
f 664/24/95 660/25/93 663/24/95
f 660/25/93 664/24/95 659/25/93
f 665/24/96 664/24/95 663/24/95
f 664/24/95 665/24/96 666/24/96
f 661/25/94 665/24/96 662/25/94
f 665/24/96 661/25/94 666/24/96
f 669/23/98 668/23/97 667/23/97
f 668/23/97 669/23/98 670/23/98
f 673/22/99 672/21/100 671/22/99
f 672/21/100 673/22/99 674/21/100
f 677/21/101 676/22/102 675/21/101
f 676/22/102 677/21/101 678/22/102
f 681/18/104 680/18/103 679/18/103
f 680/18/103 681/18/104 682/18/104
f 678/22/102 668/23/97 676/22/102
f 668/23/97 678/22/102 667/23/97
f 669/23/98 671/22/99 670/23/98
f 671/22/99 669/23/98 673/22/99
f 680/18/103 675/21/101 679/18/103
f 675/21/101 680/18/103 677/21/101
f 674/21/100 681/18/104 672/21/100
f 681/18/104 674/21/100 682/18/104
f 671/22/105 668/23/105 670/23/105
f 668/23/105 671/22/105 676/22/105
f 676/22/105 671/22/105 665/24/105
f 665/24/105 671/22/105 672/21/105
f 663/24/105 676/22/105 665/24/105
f 665/24/105 672/21/105 662/25/105
f 676/22/105 663/24/105 675/21/105
f 662/25/105 672/21/105 660/25/105
f 675/21/105 663/24/105 660/25/105
f 675/21/105 660/25/105 672/21/105
f 675/21/105 672/21/105 681/18/105
f 675/21/105 681/18/105 679/18/105
f 685/5/9 684/5/9 683/5/9
f 684/5/9 685/5/9 686/5/9
f 687/6/105 684/5/105 686/5/105
f 684/5/105 687/6/105 688/6/105
f 687/6/10 689/6/10 688/6/10
f 689/6/10 687/6/10 690/6/10
f 693/26/95 692/27/93 691/26/95
f 692/27/93 693/26/95 694/27/93
f 695/27/94 692/27/93 694/27/93
f 692/27/93 695/27/94 696/27/9
f 696/27/9 695/27/94 697/27/9
f 697/27/9 695/27/94 698/27/94
f 695/27/94 699/26/96 698/27/94
f 699/26/96 695/27/94 700/26/96
f 701/26/10 693/26/95 691/26/95
f 693/26/95 701/26/10 700/26/96
f 700/26/96 701/26/10 702/26/10
f 700/26/96 702/26/10 699/26/96
f 699/26/105 661/28/105 698/27/105
f 698/27/105 661/28/105 697/27/105
f 699/26/105 666/5/105 661/28/105
f 666/5/105 699/26/105 664/5/105
f 691/26/105 664/5/105 699/26/105
f 691/26/105 699/26/105 702/26/105
f 664/5/105 691/26/105 659/28/105
f 691/26/105 702/26/105 701/26/105
f 697/27/105 701/26/105 702/26/105
f 659/28/105 691/26/105 692/27/105
f 659/28/105 692/27/105 661/28/105
f 701/26/105 697/27/105 696/27/105
f 697/27/105 661/28/105 696/27/105
f 696/27/105 661/28/105 692/27/105
f 703/31/1 63/30/1 64/30/1
f 63/30/1 703/31/1 704/31/1
f 65/30/2 703/31/2 64/30/2
f 703/31/2 65/30/2 705/31/2
f 283/31/1 75/30/1 76/30/1
f 75/30/1 283/31/1 287/31/1
f 77/30/2 283/31/2 76/30/2
f 283/31/2 77/30/2 285/31/2
f 706/31/1 84/30/1 85/30/1
f 84/30/1 706/31/1 707/31/1
f 708/31/3 113/30/3 114/30/3
f 113/30/3 708/31/3 709/31/3
f 712/31/5 126/30/5 710/31/5
f 125/30/5 710/31/5 126/30/5
f 711/31/3 710/31/3 124/30/3
f 125/30/3 124/30/3 710/31/3
f 713/31/4 133/30/4 134/30/4
f 133/30/4 713/31/4 714/31/4
f 715/31/4 141/30/4 142/30/4
f 141/30/4 715/31/4 716/31/4
f 717/31/3 149/30/3 150/30/3
f 149/30/3 717/31/3 718/31/3
f 721/31/5 162/30/5 719/31/5
f 161/30/5 719/31/5 162/30/5
f 720/31/3 719/31/3 160/30/3
f 161/30/3 160/30/3 719/31/3
f 723/32/46 171/33/46 722/32/46
f 171/33/46 723/32/46 170/33/46
f 724/34/1 171/33/1 169/33/1
f 171/33/1 724/34/1 722/32/1
f 723/32/21 167/33/21 170/33/21
f 167/33/21 723/32/21 725/34/21
f 167/33/2 724/34/2 169/33/2
f 724/34/2 167/33/2 725/34/2
f 728/35/23 727/36/23 726/35/23
f 727/36/23 728/35/23 729/36/23
f 729/36/1 731/38/1 730/37/1
f 731/38/1 729/36/1 732/39/1
f 732/39/1 729/36/1 733/40/1
f 733/40/1 729/36/1 734/41/1
f 734/41/1 729/36/1 735/42/1
f 735/42/1 729/36/1 728/35/1
f 730/37/22 737/38/22 736/37/22
f 737/38/22 730/37/22 731/38/22
f 737/38/21 727/36/21 736/37/21
f 727/36/21 737/38/21 738/39/21
f 727/36/21 738/39/21 739/40/21
f 727/36/21 739/40/21 740/41/21
f 727/36/21 740/41/21 741/42/21
f 727/36/21 741/42/21 726/35/21
f 741/42/32 184/43/32 726/35/32
f 726/35/32 184/43/32 728/35/32
f 189/43/32 728/35/32 184/43/32
f 189/43/32 735/42/32 728/35/32
f 734/41/32 741/42/32 735/42/32
f 189/43/32 734/41/32 735/42/32
f 741/42/32 734/41/32 740/41/32
f 740/41/32 184/43/32 741/42/32
f 189/43/32 733/40/32 734/41/32
f 739/40/32 184/43/32 740/41/32
f 189/43/32 732/39/32 733/40/32
f 732/39/32 739/40/32 733/40/32
f 189/43/32 731/38/32 732/39/32
f 739/40/32 732/39/32 738/39/32
f 738/39/32 184/43/32 739/40/32
f 731/38/32 189/43/32 188/44/32
f 737/38/32 184/43/32 738/39/32
f 188/44/32 737/38/32 731/38/32
f 737/38/32 183/44/32 184/43/32
f 183/44/32 737/38/32 188/44/32
f 725/34/32 203/44/32 204/43/32
f 725/34/32 204/43/32 201/45/32
f 723/32/32 203/44/32 725/34/32
f 203/44/32 723/32/32 194/46/32
f 194/46/32 723/32/32 192/46/32
f 722/32/32 192/46/32 723/32/32
f 192/46/32 722/32/32 195/44/32
f 725/34/32 201/45/32 724/34/32
f 195/44/32 722/32/32 724/34/32
f 199/45/32 724/34/32 201/45/32
f 195/44/32 724/34/32 197/43/32
f 197/43/32 724/34/32 199/45/32
f 216/47/10 230/47/10 215/47/10
f 230/47/10 216/47/10 226/47/10
f 238/48/10 742/48/10 250/48/10
f 742/48/10 238/48/10 240/48/10
f 258/48/10 743/48/10 270/48/10
f 743/48/10 258/48/10 260/48/10
f 745/48/10 280/48/10 744/48/10
f 280/48/10 745/48/10 278/48/10
f 290/48/10 746/48/10 302/48/10
f 746/48/10 290/48/10 292/48/10
f 310/48/10 747/48/10 322/48/10
f 747/48/10 310/48/10 312/48/10
f 749/48/10 332/48/10 748/48/10
f 332/48/10 749/48/10 330/48/10
f 752/49/7 751/31/7 750/31/7
f 751/31/7 752/49/7 753/49/7
f 755/31/9 751/31/9 754/31/9
f 751/31/9 755/31/9 750/31/9
f 756/49/6 751/31/6 753/49/6
f 751/31/6 756/49/6 754/31/6
f 755/31/8 752/49/8 750/31/8
f 752/49/8 755/31/8 757/49/8
f 756/49/33 755/31/33 754/31/33
f 755/31/33 756/49/33 757/49/33
f 760/49/7 759/31/7 758/31/7
f 759/31/7 760/49/7 761/49/7
f 763/31/9 759/31/9 762/31/9
f 759/31/9 763/31/9 758/31/9
f 764/49/6 759/31/6 761/49/6
f 759/31/6 764/49/6 762/31/6
f 763/31/8 760/49/8 758/31/8
f 760/49/8 763/31/8 765/49/8
f 764/49/33 763/31/33 762/31/33
f 763/31/33 764/49/33 765/49/33
f 439/30/8 766/31/8 440/30/8
f 766/31/8 439/30/8 767/31/8
f 769/31/6 441/30/6 768/31/6
f 441/30/6 769/31/6 442/30/6
f 768/31/7 402/51/7 401/50/7
f 768/31/7 401/50/7 410/52/7
f 441/30/7 402/51/7 768/31/7
f 402/51/7 441/30/7 404/53/7
f 404/53/7 441/30/7 419/53/7
f 440/30/7 419/53/7 441/30/7
f 419/53/7 440/30/7 422/51/7
f 768/31/7 410/52/7 766/31/7
f 422/51/7 440/30/7 766/31/7
f 414/52/7 766/31/7 410/52/7
f 422/51/7 766/31/7 413/50/7
f 413/50/7 766/31/7 414/52/7
f 507/30/8 436/31/8 508/30/8
f 436/31/8 507/30/8 435/31/8
f 438/31/6 509/30/6 437/31/6
f 509/30/6 438/31/6 510/30/6
f 437/31/7 470/51/7 469/50/7
f 437/31/7 469/50/7 478/52/7
f 509/30/7 470/51/7 437/31/7
f 470/51/7 509/30/7 472/53/7
f 472/53/7 509/30/7 487/53/7
f 508/30/7 487/53/7 509/30/7
f 487/53/7 508/30/7 490/51/7
f 437/31/7 478/52/7 436/31/7
f 490/51/7 508/30/7 436/31/7
f 482/52/7 436/31/7 478/52/7
f 490/51/7 436/31/7 481/50/7
f 481/50/7 436/31/7 482/52/7
f 773/49/7 772/49/7 771/31/7
f 770/31/7 771/31/7 772/49/7
f 774/31/105 678/51/105 677/50/105
f 774/31/105 677/50/105 680/52/105
f 689/30/105 678/51/105 774/31/105
f 678/51/105 689/30/105 667/53/105
f 667/53/105 689/30/105 669/53/105
f 690/30/105 669/53/105 689/30/105
f 669/53/105 690/30/105 673/51/105
f 774/31/105 680/52/105 775/31/105
f 673/51/105 690/30/105 775/31/105
f 682/52/105 775/31/105 680/52/105
f 673/51/105 775/31/105 674/50/105
f 674/50/105 775/31/105 682/52/105

usemtl colormap-specular

f 736/54/32 729/55/32 730/54/32
f 729/55/32 736/54/32 727/55/32
f 456/57/7 445/56/7 448/56/7
f 445/56/7 456/57/7 446/57/7
f 524/57/7 513/56/7 516/56/7
f 513/56/7 524/57/7 514/57/7
f 695/57/105 693/56/105 700/56/105
f 693/56/105 695/57/105 694/57/105

