# Created by Kenney (www.kenney.nl)

mtllib building-o.mtl

g building-o

v -0.82 0.45 1.22 1 1 1
v -0.8200001 0.45 0.82 1 1 1
v -0.82 0.8 1.22 1 1 1
v -0.8200001 0.8 0.82 1 1 1
v -0.42 0.45 1.22 1 1 1
v -0.42 0.8 1.22 1 1 1
v -0.02000001 0.45 1.22 1 1 1
v -0.01999995 0.45 0.82 1 1 1
v -0.02000001 0.8 1.22 1 1 1
v -0.01999995 0.8 0.82 1 1 1
v -0.4200001 0.45 1.22 1 1 1
v -0.4200001 0.8 1.22 1 1 1
v -0.42 0.8 1.17 1 1 1
v -0.42 0.8 0.82 1 1 1
v -0.07000001 0.8 1.17 1 1 1
v -0.07000001 0.8 0.82 1 1 1
v -0.42 0.8 0.4199999 1 1 1
v -0.07000001 0.8 0.4199999 1 1 1
v -0.42 0.8 0.8199999 1 1 1
v -0.07000001 0.8 0.8199999 1 1 1
v -0.77 0.8 0.8199999 1 1 1
v -0.42 0.8 0.8199999 1 1 1
v -0.77 0.8 1.17 1 1 1
v -0.42 0.8 1.17 1 1 1
v -0.77 0.8 0.8199999 1 1 1
v -0.77 0.8 0.4199999 1 1 1
v -0.42 0.8 0.07000004 1 1 1
v -0.42 0.8 0.42 1 1 1
v -0.77 0.8 0.07000004 1 1 1
v -0.77 0.8 0.42 1 1 1
v -0.07000002 0.8 0.4200001 1 1 1
v -0.4200001 0.8 0.42 1 1 1
v -0.06999998 0.8 0.07000004 1 1 1
v -0.42 0.8 0.06999999 1 1 1
v -0.02000002 0.68 0.77 1 1 1
v -0.02000002 0.52 0.77 1 1 1
v -0.02000003 0.8 0.82 1 1 1
v -0.02000002 0.7 0.7499999 1 1 1
v -0.02000003 0.45 0.82 1 1 1
v -0.02000002 0.5 0.7499999 1 1 1
v -0.01999999 0.5 0.4899999 1 1 1
v -0.01999998 0.45 0.4199998 1 1 1
v -0.01999998 0.52 0.4699998 1 1 1
v -0.01999998 0.8 0.4199998 1 1 1
v -0.01999999 0.7 0.4899999 1 1 1
v -0.01999998 0.68 0.4699998 1 1 1
v -0.19 1.804779E-16 0.01999998 1 1 1
v -0.6500001 1.804779E-16 0.01999998 1 1 1
v -0.19 0.27 0.01999998 1 1 1
v -0.6500001 0.27 0.01999998 1 1 1
v -0.8200001 0.68 0.4699998 1 1 1
v -0.8200001 0.52 0.4699998 1 1 1
v -0.8200001 0.8 0.4199998 1 1 1
v -0.8200001 0.7 0.4899999 1 1 1
v -0.8200001 0.45 0.4199998 1 1 1
v -0.8200001 0.5 0.4899999 1 1 1
v -0.82 0.5 0.7499999 1 1 1
v -0.82 0.45 0.82 1 1 1
v -0.82 0.52 0.77 1 1 1
v -0.82 0.8 0.82 1 1 1
v -0.82 0.7 0.7499999 1 1 1
v -0.82 0.68 0.77 1 1 1
v -0.02 0.45 0.01999998 1 1 1
v -0.02 0.8 0.01999998 1 1 1
v -0.02 0.45 0.42 1 1 1
v -0.02 0.8 0.42 1 1 1
v -0.37 0.68 0.01999998 1 1 1
v -0.37 0.52 0.01999998 1 1 1
v -0.42 0.8 0.01999998 1 1 1
v -0.35 0.7 0.01999998 1 1 1
v -0.42 0.45 0.01999998 1 1 1
v -0.35 0.5 0.01999998 1 1 1
v -0.09 0.5 0.01999998 1 1 1
v -0.06999999 0.52 0.01999998 1 1 1
v -0.09 0.7 0.01999998 1 1 1
v -0.06999999 0.68 0.01999998 1 1 1
v -0.8200001 0.45 0.01999998 1 1 1
v -0.8200001 0.8 0.01999998 1 1 1
v -0.8200001 0.45 0.42 1 1 1
v -0.8200001 0.8 0.42 1 1 1
v -0.4700001 0.68 0.01999998 1 1 1
v -0.4700001 0.52 0.01999998 1 1 1
v -0.4200001 0.8 0.01999998 1 1 1
v -0.4900001 0.7 0.01999998 1 1 1
v -0.4200001 0.45 0.01999998 1 1 1
v -0.4900001 0.5 0.01999998 1 1 1
v -0.7500001 0.5 0.01999998 1 1 1
v -0.7700001 0.52 0.01999998 1 1 1
v -0.7500001 0.7 0.01999998 1 1 1
v -0.7700001 0.68 0.01999998 1 1 1
v -0.84 0.4 1.22 1 1 1
v -0.84 0.4 0.82 1 1 1
v -0.84 0.45 1.22 1 1 1
v -0.84 0.45 0.82 1 1 1
v -0.82 0.4 1.24 1 1 1
v -0.82 0.45 1.24 1 1 1
v -0.42 0.4 1.24 1 1 1
v -0.42 0.45 1.24 1 1 1
v -0.42 0.4 0.8199999 1 1 1
v -1.490116E-08 0.4 1.22 1 1 1
v 4.470348E-08 0.4 0.82 1 1 1
v -1.490116E-08 0.45 1.22 1 1 1
v 4.470348E-08 0.45 0.82 1 1 1
v -0.02000001 0.4 1.24 1 1 1
v -0.02000001 0.45 1.24 1 1 1
v -0.4200001 0.4 1.24 1 1 1
v -0.4200001 0.45 1.24 1 1 1
v -1.490116E-08 1.127987E-17 0.8199999 1 1 1
v 4.470348E-08 1.127987E-17 0.4199999 1 1 1
v -0.4200001 1.127987E-17 0.8199999 1 1 1
v -0.42 1.127987E-17 0.4199998 1 1 1
v 4.470348E-08 0.05 0.4199999 1 1 1
v -1.490116E-08 0.05 0.8199999 1 1 1
v -0.02 0.05 0.8199999 1 1 1
v -0.01999994 0.05 0.4199999 1 1 1
v -0.84 0 1.22 1 1 1
v -0.84 0 0.82 1 1 1
v -0.84 0.05 1.22 1 1 1
v -0.84 0.05 0.82 1 1 1
v -0.82 0 1.24 1 1 1
v -0.82 0.05 1.24 1 1 1
v -0.42 0 1.24 1 1 1
v -0.42 0.05 1.24 1 1 1
v -0.42 0 0.8199999 1 1 1
v -0.8200001 0.05 0.82 1 1 1
v -0.82 0.05 1.22 1 1 1
v -0.42 0.05 1.22 1 1 1
v -0.8400001 1.127987E-17 0.8199999 1 1 1
v -0.8400002 1.127987E-17 0.4199999 1 1 1
v -0.4200001 1.127987E-17 0.4199998 1 1 1
v -0.8400002 0.05 0.4199999 1 1 1
v -0.8400001 0.05 0.8199999 1 1 1
v -0.8200001 0.05 0.8199999 1 1 1
v -0.8200002 0.05 0.4199999 1 1 1
v -1.490116E-08 0 1.22 1 1 1
v 4.470348E-08 0 0.82 1 1 1
v -1.490116E-08 0.05 1.22 1 1 1
v 4.470348E-08 0.05 0.82 1 1 1
v -0.02000001 0 1.24 1 1 1
v -0.02000001 0.05 1.24 1 1 1
v -0.4200001 0 1.24 1 1 1
v -0.4200001 0.05 1.24 1 1 1
v -0.01999995 0.05 0.82 1 1 1
v -0.02000001 0.05 1.22 1 1 1
v -0.4200001 0.05 1.22 1 1 1
v -0.4633424 0.8 0.8900001 1 1 1
v -0.4633424 0.84 0.8900001 1 1 1
v -0.4633424 0.8 1 1 1 1
v -0.4633424 0.84 1 1 1 1
v -0.4433423 0.8 0.8700001 1 1 1
v -0.1833424 0.8 0.8700001 1 1 1
v -0.4433423 0.84 0.8700001 1 1 1
v -0.1833424 0.84 0.8700001 1 1 1
v -0.1833424 0.8 1.02 1 1 1
v -0.4433423 0.8 1.02 1 1 1
v -0.1833424 0.84 1.02 1 1 1
v -0.4433423 0.84 1.02 1 1 1
v -0.1633424 0.84 0.8900001 1 1 1
v -0.1633424 0.8 0.8900001 1 1 1
v -0.1633424 0.84 1 1 1 1
v -0.1633424 0.8 1 1 1 1
v -0.4633424 0.8 0.6900001 1 1 1
v -0.4633424 0.84 0.6900001 1 1 1
v -0.4633424 0.8 0.8 1 1 1
v -0.4633424 0.84 0.8 1 1 1
v -0.4433423 0.8 0.67 1 1 1
v -0.1833424 0.8 0.67 1 1 1
v -0.4433423 0.84 0.67 1 1 1
v -0.1833424 0.84 0.67 1 1 1
v -0.1833424 0.8 0.8200001 1 1 1
v -0.4433423 0.8 0.8200001 1 1 1
v -0.1833424 0.84 0.8200001 1 1 1
v -0.4433423 0.84 0.8200001 1 1 1
v -0.1633424 0.84 0.6900001 1 1 1
v -0.1633424 0.8 0.6900001 1 1 1
v -0.1633424 0.84 0.8 1 1 1
v -0.1633424 0.8 0.8 1 1 1
v -0.02000001 0.83 1.22 1 1 1
v -0.02000001 0.8 0.82 1 1 1
v -0.02000001 0.83 0.82 1 1 1
v -0.42 0.8 1.22 1 1 1
v -0.42 0.83 1.22 1 1 1
v -0.07000001 0.88 1.17 1 1 1
v -0.07000001 0.88 0.82 1 1 1
v -0.02000001 0.83 1.24 1 1 1
v -0.42 0.83 1.24 1 1 1
v -0.02000001 0.88 1.24 1 1 1
v -0.42 0.88 1.24 1 1 1
v -1.490116E-08 0.83 0.82 1 1 1
v -1.490116E-08 0.83 1.22 1 1 1
v -0.42 0.88 1.17 1 1 1
v -1.490116E-08 0.88 0.82 1 1 1
v -1.490116E-08 0.88 1.22 1 1 1
v -0.02000001 0.83 0.4199999 1 1 1
v -0.02000001 0.83 0.8199999 1 1 1
v -1.490116E-08 0.83 0.4199999 1 1 1
v -1.490116E-08 0.83 0.8199999 1 1 1
v -0.02000001 0.8 0.8199999 1 1 1
v -0.02000001 0.8 0.4199999 1 1 1
v -0.07000001 0.88 0.8199999 1 1 1
v -0.07000001 0.88 0.4199999 1 1 1
v -1.490116E-08 0.88 0.4199999 1 1 1
v -1.490116E-08 0.88 0.8199999 1 1 1
v -0.82 0.83 1.22 1 1 1
v -0.42 0.83 1.22 1 1 1
v -0.8200001 0.83 0.82 1 1 1
v -0.77 0.88 1.17 1 1 1
v -0.42 0.88 1.17 1 1 1
v -0.84 0.83 1.22 1 1 1
v -0.84 0.83 0.82 1 1 1
v -0.84 0.88 1.22 1 1 1
v -0.84 0.88 0.82 1 1 1
v -0.42 0.83 1.24 1 1 1
v -0.82 0.83 1.24 1 1 1
v -0.77 0.88 0.8199999 1 1 1
v -0.42 0.88 1.24 1 1 1
v -0.82 0.88 1.24 1 1 1
v -0.82 0.83 0.8199999 1 1 1
v -0.82 0.83 0.4199999 1 1 1
v -0.84 0.83 0.8199999 1 1 1
v -0.84 0.83 0.4199999 1 1 1
v -0.82 0.8 0.4199999 1 1 1
v -0.82 0.8 0.8199999 1 1 1
v -0.77 0.88 0.4199999 1 1 1
v -0.77 0.88 0.8199999 1 1 1
v -0.84 0.88 0.8199999 1 1 1
v -0.84 0.88 0.4199999 1 1 1
v -0.82 0.8 0.02000004 1 1 1
v -0.82 0.83 0.02000004 1 1 1
v -0.82 0.8 0.42 1 1 1
v -0.82 0.83 0.42 1 1 1
v -0.42 0.8 0.02000004 1 1 1
v -0.42 0.83 0.02000004 1 1 1
v -0.77 0.88 0.07000004 1 1 1
v -0.77 0.88 0.42 1 1 1
v -0.82 0.83 4.470348E-08 1 1 1
v -0.42 0.83 4.470348E-08 1 1 1
v -0.82 0.88 4.470348E-08 1 1 1
v -0.42 0.88 4.470348E-08 1 1 1
v -0.84 0.83 0.42 1 1 1
v -0.84 0.83 0.02000004 1 1 1
v -0.42 0.88 0.07000004 1 1 1
v -0.84 0.88 0.42 1 1 1
v -0.84 0.88 0.02000004 1 1 1
v -0.01999995 0.8 0.02000004 1 1 1
v -0.01999995 0.83 0.02000004 1 1 1
v -0.42 0.83 0.01999998 1 1 1
v -0.02000001 0.8 0.4200001 1 1 1
v -0.02000001 0.83 0.4200001 1 1 1
v -0.06999998 0.88 0.07000004 1 1 1
v -0.42 0.88 0.06999999 1 1 1
v 4.470348E-08 0.83 0.02000004 1 1 1
v -1.490116E-08 0.83 0.4200001 1 1 1
v 4.470348E-08 0.88 0.02000004 1 1 1
v -1.490116E-08 0.88 0.4200001 1 1 1
v -0.42 0.83 -1.490116E-08 1 1 1
v -0.01999995 0.83 4.470348E-08 1 1 1
v -0.07000002 0.88 0.4200001 1 1 1
v -0.42 0.88 -1.490116E-08 1 1 1
v -0.01999995 0.88 4.470348E-08 1 1 1
v -0.6481107 0.859 0.2197599 1 1 1
v -0.6394704 0.859 0.2406196 1 1 1
v -0.6628608 0.8885 0.2197599 1 1 1
v -0.6499002 0.8885 0.2510494 1 1 1
v -0.5891107 0.859 0.2197599 1 1 1
v -0.5743607 0.8885 0.2197599 1 1 1
v -0.5977511 0.859 0.2406196 1 1 1
v -0.5873213 0.8885 0.2510494 1 1 1
v -0.6394704 0.8 0.2406196 1 1 1
v -0.6186107 0.8 0.2492599 1 1 1
v -0.6186107 0.859 0.2492599 1 1 1
v -0.6499002 0.8885 0.1884705 1 1 1
v -0.6394704 0.859 0.1989003 1 1 1
v -0.6186107 0.8885 0.26401 1 1 1
v -0.6186107 0.859 0.1902599 1 1 1
v -0.6186107 0.8885 0.1755099 1 1 1
v -0.5977511 0.859 0.1989003 1 1 1
v -0.5873213 0.8885 0.1884705 1 1 1
v -0.6481107 0.918 0.2197599 1 1 1
v -0.6394704 0.918 0.2406196 1 1 1
v -0.5977511 0.8 0.2406196 1 1 1
v -0.5977511 0.8 0.1989003 1 1 1
v -0.6186107 0.8 0.1902599 1 1 1
v -0.5891107 0.8 0.2197599 1 1 1
v -0.5977511 0.918 0.1989003 1 1 1
v -0.6186107 0.918 0.1902599 1 1 1
v -0.6394704 0.918 0.1989003 1 1 1
v -0.6186107 0.918 0.2492599 1 1 1
v -0.5977511 0.918 0.2406196 1 1 1
v -0.5891107 0.918 0.2197599 1 1 1
v -0.6394704 0.8 0.1989003 1 1 1
v -0.6481107 0.8 0.2197599 1 1 1
v -0.02000002 0.67 0.7399999 1 1 1
v -1.117587E-08 0.67 0.7399999 1 1 1
v -0.01999999 0.67 0.4999999 1 1 1
v 1.862645E-08 0.67 0.4999999 1 1 1
v -1.117587E-08 0.53 0.7399999 1 1 1
v -0.02000002 0.53 0.7399999 1 1 1
v 1.862645E-08 0.53 0.4999999 1 1 1
v -0.01999999 0.53 0.4999999 1 1 1
v -1.117587E-08 0.5 0.7499999 1 1 1
v 1.862645E-08 0.5 0.4899999 1 1 1
v 2.235174E-08 0.52 0.4699998 1 1 1
v 2.235174E-08 0.68 0.4699998 1 1 1
v -1.490116E-08 0.68 0.77 1 1 1
v -1.490116E-08 0.52 0.77 1 1 1
v -1.117587E-08 0.7 0.7499999 1 1 1
v 1.862645E-08 0.7 0.4899999 1 1 1
v -0.02000003 0.4 0.82 1 1 1
v -2.04891E-08 0.4 0.82 1 1 1
v -0.01999998 0.4 0.4199998 1 1 1
v 2.793968E-08 0.4 0.4199998 1 1 1
v 2.793968E-08 0.45 0.4199998 1 1 1
v -2.04891E-08 0.45 0.82 1 1 1
v -0.02 0.55 0.7199999 1 1 1
v -0.02 0.65 0.7199999 1 1 1
v -0.04000001 0.55 0.7199999 1 1 1
v -0.04000001 0.65 0.7199999 1 1 1
v -0.03999999 0.65 0.5199999 1 1 1
v -0.01999999 0.65 0.6299999 1 1 1
v -0.01999999 0.65 0.6099999 1 1 1
v -0.01999998 0.65 0.5199999 1 1 1
v -0.01999998 0.55 0.5199999 1 1 1
v -0.03999999 0.55 0.5199999 1 1 1
v -0.01999999 0.55 0.6299999 1 1 1
v -0.01999999 0.55 0.6099999 1 1 1
v -0.01999998 0.67 0.4999999 1 1 1
v -0.01999998 0.53 0.4999999 1 1 1
v -0.02000001 0.53 0.7399999 1 1 1
v -0.02000001 0.67 0.7399999 1 1 1
v -0.65 1.804779E-16 4.470348E-08 1 1 1
v -0.65 0.27 4.470348E-08 1 1 1
v -0.65 1.804779E-16 0.02000004 1 1 1
v -0.65 0.27 0.02000004 1 1 1
v -0.19 0.27 4.470348E-08 1 1 1
v -0.19 1.804779E-16 4.470348E-08 1 1 1
v -0.19 0.27 0.02000004 1 1 1
v -0.19 1.804779E-16 0.02000004 1 1 1
v -0.16 0.05 4.470348E-08 1 1 1
v -0.16 0.05 0.02000004 1 1 1
v -0.02000001 0.05 4.470348E-08 1 1 1
v -0.02000001 0.05 0.02000004 1 1 1
v -0.02000001 0.05 0.42 1 1 1
v -1.490116E-08 0.05 0.42 1 1 1
v -1.490116E-08 0.05 0.02000004 1 1 1
v -0.16 0.28 4.470348E-08 1 1 1
v -0.16 0.28 0.02000004 1 1 1
v -1.490116E-08 0 0.02000004 1 1 1
v -1.490116E-08 0 0.42 1 1 1
v -0.02000001 3.979286E-17 4.470348E-08 1 1 1
v -0.68 0.28 4.470348E-08 1 1 1
v -0.68 0.05 4.470348E-08 1 1 1
v -0.68 0.28 0.02000004 1 1 1
v -0.68 0.05 0.02000004 1 1 1
v -0.66 0.3 4.470348E-08 1 1 1
v -0.66 0.3 0.02000004 1 1 1
v -0.18 0.3 4.470348E-08 1 1 1
v -0.18 0.3 0.02000004 1 1 1
v -0.8200001 0.05 4.470348E-08 1 1 1
v -0.8200001 1.936872E-17 4.470348E-08 1 1 1
v -0.84 0.05 0.02000004 1 1 1
v -0.84 0 0.02000004 1 1 1
v -0.84 0.05 0.42 1 1 1
v -0.84 0 0.42 1 1 1
v -0.8200001 0.05 0.02000004 1 1 1
v -0.8200001 0.05 0.42 1 1 1
v -0.3980514 0.03688905 0.01999991 1 1 1
v -0.3980514 0.05 0.01999991 1 1 1
v -0.4419487 0.03688905 0.01999991 1 1 1
v -0.4419487 0.05 0.01999991 1 1 1
v -0.3980514 0.03688905 0.008999899 1 1 1
v -0.4419487 0.03688905 0.008999899 1 1 1
v -0.3980514 0.05 0.008999899 1 1 1
v -0.4419487 0.05 0.008999899 1 1 1
v -0.8200001 0.67 0.4999999 1 1 1
v -0.84 0.67 0.4999999 1 1 1
v -0.8200001 0.67 0.7399999 1 1 1
v -0.84 0.67 0.7399999 1 1 1
v -0.84 0.53 0.4999999 1 1 1
v -0.8200001 0.53 0.4999999 1 1 1
v -0.84 0.53 0.7399999 1 1 1
v -0.8200001 0.53 0.7399999 1 1 1
v -0.84 0.5 0.4899999 1 1 1
v -0.84 0.5 0.7499999 1 1 1
v -0.84 0.52 0.77 1 1 1
v -0.84 0.68 0.77 1 1 1
v -0.84 0.68 0.4699998 1 1 1
v -0.84 0.52 0.4699998 1 1 1
v -0.84 0.7 0.4899999 1 1 1
v -0.84 0.7 0.7499999 1 1 1
v -0.8200001 0.4 0.4199998 1 1 1
v -0.8400001 0.4 0.4199998 1 1 1
v -0.82 0.4 0.82 1 1 1
v -0.8400001 0.45 0.4199998 1 1 1
v -0.8200001 0.55 0.5199999 1 1 1
v -0.8200001 0.65 0.5199999 1 1 1
v -0.8000001 0.55 0.5199999 1 1 1
v -0.8000001 0.65 0.5199999 1 1 1
v -0.8 0.65 0.72 1 1 1
v -0.8200001 0.65 0.6099999 1 1 1
v -0.8200001 0.65 0.6299999 1 1 1
v -0.8200001 0.65 0.72 1 1 1
v -0.8200001 0.55 0.72 1 1 1
v -0.8 0.55 0.72 1 1 1
v -0.8200001 0.55 0.6099999 1 1 1
v -0.8200001 0.55 0.6299999 1 1 1
v -0.870728 0.05 1.153272 1 1 1
v -0.858 0.05 1.148 1 1 1
v -0.870728 0.764 1.153272 1 1 1
v -0.858 0.764 1.148 1 1 1
v -0.84 0.764 1.166 1 1 1
v -0.84 0.05 1.166 1 1 1
v -0.8452721 0.764 1.178728 1 1 1
v -0.8452721 0.05 1.178728 1 1 1
v -0.8452721 0.05 1.153272 1 1 1
v -0.8452721 0.764 1.153272 1 1 1
v -0.858 0.05 1.184 1 1 1
v -0.858 0.764 1.184 1 1 1
v -0.870728 0.05 1.178728 1 1 1
v -0.870728 0.764 1.178728 1 1 1
v -0.876 0.05 1.166 1 1 1
v -0.876 0.764 1.166 1 1 1
v -0.8200001 0.764 1.184 1 1 1
v -0.8200001 0.764 1.148 1 1 1
v -0.876 0.764 1.184 1 1 1
v -0.876 0.764 1.148 1 1 1
v -0.8200001 0.8 1.148 1 1 1
v -0.8200001 0.8 1.184 1 1 1
v -0.8660001 0.8 1.148 1 1 1
v -0.8660001 0.8 1.184 1 1 1
v -0.876 0.79 1.184 1 1 1
v -0.876 0.79 1.148 1 1 1
v -0.8760934 0.678707 1.147907 1 1 1
v -0.8760934 0.707138 1.147907 1 1 1
v -0.883588 0.678707 1.166 1 1 1
v -0.883588 0.707138 1.166 1 1 1
v -0.858 0.678707 1.140412 1 1 1
v -0.858 0.707138 1.140412 1 1 1
v -0.8324121 0.707138 1.166 1 1 1
v -0.8324121 0.678707 1.166 1 1 1
v -0.8399067 0.707138 1.184093 1 1 1
v -0.8399067 0.678707 1.184093 1 1 1
v -0.8399067 0.707138 1.147907 1 1 1
v -0.8399067 0.678707 1.147907 1 1 1
v -0.8760934 0.678707 1.184093 1 1 1
v -0.8760934 0.707138 1.184093 1 1 1
v -0.858 0.678707 1.191588 1 1 1
v -0.858 0.707138 1.191588 1 1 1
v -0.8760934 0.127724 1.147907 1 1 1
v -0.8760934 0.156155 1.147907 1 1 1
v -0.883588 0.127724 1.166 1 1 1
v -0.883588 0.156155 1.166 1 1 1
v -0.858 0.127724 1.140412 1 1 1
v -0.858 0.156155 1.140412 1 1 1
v -0.8324121 0.156155 1.166 1 1 1
v -0.8324121 0.127724 1.166 1 1 1
v -0.8399067 0.156155 1.184093 1 1 1
v -0.8399067 0.127724 1.184093 1 1 1
v -0.8399067 0.156155 1.147907 1 1 1
v -0.8399067 0.127724 1.147907 1 1 1
v -0.8760934 0.127724 1.184093 1 1 1
v -0.8760934 0.156155 1.184093 1 1 1
v -0.858 0.127724 1.191588 1 1 1
v -0.858 0.156155 1.191588 1 1 1
v -0.8760934 0.4032155 1.147907 1 1 1
v -0.8760934 0.4316465 1.147907 1 1 1
v -0.883588 0.4032155 1.166 1 1 1
v -0.883588 0.4316465 1.166 1 1 1
v -0.858 0.4032155 1.140412 1 1 1
v -0.858 0.4316465 1.140412 1 1 1
v -0.8324121 0.4316465 1.166 1 1 1
v -0.8324121 0.4032155 1.166 1 1 1
v -0.8399067 0.4316465 1.184093 1 1 1
v -0.8399067 0.4032155 1.184093 1 1 1
v -0.8399067 0.4316465 1.147907 1 1 1
v -0.8399067 0.4032155 1.147907 1 1 1
v -0.8760934 0.4032155 1.184093 1 1 1
v -0.8760934 0.4316465 1.184093 1 1 1
v -0.858 0.4032155 1.191588 1 1 1
v -0.858 0.4316465 1.191588 1 1 1
v -0.34 0.67 0.01999998 1 1 1
v -0.34 0.67 -1.862645E-08 1 1 1
v -0.09999999 0.67 0.01999998 1 1 1
v -0.09999999 0.67 -1.862645E-08 1 1 1
v -0.34 0.53 -1.862645E-08 1 1 1
v -0.34 0.53 0.01999998 1 1 1
v -0.09999999 0.53 -1.862645E-08 1 1 1
v -0.09999999 0.53 0.01999998 1 1 1
v -0.35 0.5 -1.862645E-08 1 1 1
v -0.09 0.5 -1.862645E-08 1 1 1
v -0.06999999 0.52 -1.862645E-08 1 1 1
v -0.06999999 0.68 -1.862645E-08 1 1 1
v -0.37 0.68 -1.862645E-08 1 1 1
v -0.37 0.52 -1.862645E-08 1 1 1
v -0.35 0.7 -1.862645E-08 1 1 1
v -0.09 0.7 -1.862645E-08 1 1 1
v -0.02 0.4 0.42 1 1 1
v -0.02 0.4 0.01999998 1 1 1
v -1.490116E-08 0.4 0.42 1 1 1
v -0.02 0.4 -1.862645E-08 1 1 1
v -1.490116E-08 0.4 0.01999998 1 1 1
v -0.42 0.4 -1.862645E-08 1 1 1
v -0.42 0.4 0.01999998 1 1 1
v -1.490116E-08 0.45 0.01999998 1 1 1
v -1.490116E-08 0.45 0.42 1 1 1
v -0.42 0.45 -1.862645E-08 1 1 1
v -0.02 0.45 -1.862645E-08 1 1 1
v -0.32 0.55 0.01999997 1 1 1
v -0.32 0.65 0.01999997 1 1 1
v -0.32 0.55 0.03999997 1 1 1
v -0.32 0.65 0.03999997 1 1 1
v -0.12 0.65 0.03999997 1 1 1
v -0.23 0.65 0.01999997 1 1 1
v -0.21 0.65 0.01999997 1 1 1
v -0.12 0.65 0.01999997 1 1 1
v -0.12 0.55 0.01999997 1 1 1
v -0.12 0.55 0.03999997 1 1 1
v -0.23 0.55 0.01999997 1 1 1
v -0.21 0.55 0.01999997 1 1 1
v -0.09999999 0.67 0.01999997 1 1 1
v -0.09999999 0.53 0.01999997 1 1 1
v -0.34 0.53 0.01999997 1 1 1
v -0.34 0.67 0.01999997 1 1 1
v -0.5000001 0.67 0.01999998 1 1 1
v -0.5000001 0.67 -1.862645E-08 1 1 1
v -0.7400001 0.67 0.01999998 1 1 1
v -0.7400001 0.67 -1.862645E-08 1 1 1
v -0.5000001 0.53 -1.862645E-08 1 1 1
v -0.5000001 0.53 0.01999998 1 1 1
v -0.7400001 0.53 -1.862645E-08 1 1 1
v -0.7400001 0.53 0.01999998 1 1 1
v -0.4900001 0.5 -1.862645E-08 1 1 1
v -0.7500001 0.5 -1.862645E-08 1 1 1
v -0.7700001 0.52 -1.862645E-08 1 1 1
v -0.7700001 0.68 -1.862645E-08 1 1 1
v -0.4700001 0.68 -1.862645E-08 1 1 1
v -0.4700001 0.52 -1.862645E-08 1 1 1
v -0.4900001 0.7 -1.862645E-08 1 1 1
v -0.7500001 0.7 -1.862645E-08 1 1 1
v -0.8200001 0.4 0.42 1 1 1
v -0.8200001 0.4 0.01999998 1 1 1
v -0.8400001 0.4 0.42 1 1 1
v -0.8200001 0.4 -1.862645E-08 1 1 1
v -0.8400001 0.4 0.01999998 1 1 1
v -0.4200001 0.4 -1.862645E-08 1 1 1
v -0.4200001 0.4 0.01999998 1 1 1
v -0.8400001 0.45 0.01999998 1 1 1
v -0.8400001 0.45 0.42 1 1 1
v -0.4200001 0.45 -1.862645E-08 1 1 1
v -0.8200001 0.45 -1.862645E-08 1 1 1
v -0.5200001 0.55 0.01999997 1 1 1
v -0.5200001 0.65 0.01999997 1 1 1
v -0.5200001 0.55 0.03999997 1 1 1
v -0.5200001 0.65 0.03999997 1 1 1
v -0.7200001 0.65 0.03999997 1 1 1
v -0.6100001 0.65 0.01999997 1 1 1
v -0.6300001 0.65 0.01999997 1 1 1
v -0.7200001 0.65 0.01999997 1 1 1
v -0.7200001 0.55 0.01999997 1 1 1
v -0.7200001 0.55 0.03999997 1 1 1
v -0.6100001 0.55 0.01999997 1 1 1
v -0.6300001 0.55 0.01999997 1 1 1
v -0.7400001 0.67 0.01999997 1 1 1
v -0.7400001 0.53 0.01999997 1 1 1
v -0.5000001 0.53 0.01999997 1 1 1
v -0.5000001 0.67 0.01999997 1 1 1
v -0.01999994 0.4 0.4199999 1 1 1
v -0.02 0.4 0.8199999 1 1 1
v -0.82 0.4 1.22 1 1 1
v -0.8200001 0.4 0.82 1 1 1
v -0.42 0.4 1.22 1 1 1
v -0.8200002 0.4 0.4199999 1 1 1
v -0.8200001 0.4 0.8199999 1 1 1
v -0.02000001 0.4 1.22 1 1 1
v -0.01999995 0.4 0.82 1 1 1
v -0.4200001 0.4 1.22 1 1 1
v -0.02000001 0.4 0.02000004 1 1 1
v -0.02000001 0.4 0.42 1 1 1
v -0.8200001 0.4 0.02000004 1 1 1
v -0.8200001 0.4 0.42 1 1 1

vn -1 0 1.192093E-07
vn 1.192093E-07 0 1
vn 1 0 1.192093E-07
vn -1.192093E-07 0 1
vn 0 1 0
vn 1 0 1.192093E-07
vn 0 0 -1
vn -1 0 1.192093E-07
vn 1 0 0
vn -1 0 0
vn -0.9238796 0 0.3826836
vn -0.3826834 0 0.9238797
vn 0 -1 0
vn 0.9238796 0 0.3826836
vn 0.3826834 0 0.9238797
vn -0.9238795 0 -0.3826834
vn -0.9238795 0 0.3826834
vn -0.3826834 0 -0.9238795
vn 0.3826834 0 -0.9238795
vn 0.3826834 0 0.9238795
vn -0.3826834 0 0.9238795
vn 0.9238795 0 -0.3826834
vn 0.9238795 0 0.3826834
vn 1 0 -2.98023E-08
vn 2.98023E-08 0 1
vn -1 0 2.98023E-08
vn 0.3826835 0 0.9238795
vn 0.9238795 0 0.3826834
vn -2.98023E-08 0 -1
vn 1 0 -2.980245E-08
vn -1 0 2.980245E-08
vn -1.192093E-07 0 -1
vn 1 0 -1.192093E-07
vn 0 0 1
vn 1.192093E-07 0 -1
vn 0.9238797 0 -0.3826834
vn 0.3826836 0 -0.9238796
vn -1 0 -1.192093E-07
vn -0.8944272 -0.4472136 0
vn -0.6324555 -0.4472136 0.6324555
vn -0.7071068 0 0.7071068
vn 0.8944272 -0.4472136 0
vn 0.6324555 -0.4472136 0.6324555
vn 0.7071068 0 0.7071068
vn -0.7071068 0 -0.7071068
vn -0.6324555 -0.4472136 -0.6324555
vn 0 -0.4472136 0.8944272
vn 0 -0.4472136 -0.8944272
vn 0.6324555 -0.4472136 -0.6324555
vn 0.7071068 0 -0.7071068
vn -0.8944272 0.4472136 0
vn -0.6324555 0.4472136 0.6324555
vn 0.6324555 0.4472136 -0.6324555
vn 0 0.4472136 -0.8944272
vn -0.6324555 0.4472136 -0.6324555
vn 0 0.4472136 0.8944272
vn 0.6324555 0.4472136 0.6324555
vn 0.8944272 0.4472136 0
vn 8.429372E-08 -0.7071068 -0.707107
vn -8.429372E-08 -0.7071068 0.707107
vn 8.429372E-08 0.7071068 -0.707107
vn -8.429372E-08 0.7071068 0.707107
vn -4.561943E-08 -0.9238795 0.3826836
vn 4.561943E-08 -0.9238795 -0.3826836
vn 1.10135E-07 -0.3826834 -0.9238799
vn 1.10135E-07 0.3826834 -0.9238799
vn -1.10135E-07 0.3826834 0.9238799
vn -1.10135E-07 -0.3826834 0.9238799
vn -4.561943E-08 0.9238795 0.3826836
vn 4.561943E-08 0.9238795 -0.3826836
vn 0.9238795 0.3826834 0
vn -0.9238795 0.3826834 0
vn -0.3826834 0.9238795 0
vn 0.3826834 0.9238795 0
vn 8.429372E-08 -0.7071068 0.707107
vn -8.429372E-08 -0.7071068 -0.707107
vn 8.429372E-08 0.7071068 0.707107
vn -8.429372E-08 0.7071068 -0.707107
vn -4.561943E-08 -0.9238795 -0.3826836
vn 4.561943E-08 -0.9238795 0.3826836
vn 1.10135E-07 -0.3826834 0.9238799
vn 1.10135E-07 0.3826834 0.9238799
vn -1.10135E-07 0.3826834 -0.9238799
vn -1.10135E-07 -0.3826834 -0.9238799
vn -4.561943E-08 0.9238795 -0.3826836
vn 4.561943E-08 0.9238795 0.3826836
vn -0.7071068 0 -0.7071068
vn 0.7071068 0 0.7071068
vn 0.7071068 0 -0.7071068
vn -0.7071068 0 0.7071068
vn -0.3662924 0.9304998 0
vn -0.9179972 0.3965869 0
vn 0.7071068 -0.7071068 0
vn -0.7071068 -0.7071068 0
vn 0.7071068 0.7071068 0
vn -0.7071068 0.7071068 0
vn -0.3826834 -0.9238795 0
vn 0.3826834 -0.9238795 0
vn 0.9238795 -0.3826834 0
vn -0.9238795 -0.3826834 0

vt 0.71875 0.3
vt 0.71875 0.475
vt 0.71875 0.395
vt 0.71875 0.415
vt 0.71875 0.335
vt 0.71875 0.425
vt 0.71875 0.325
vt 0.71875 0.275
vt 0.59375 0.275
vt 0.59375 0.3
vt 0.59375 0.475
vt 0.59375 0.395
vt 0.59375 0.425
vt 0.59375 0.435
vt 0.59375 0.455
vt 0.59375 0.41
vt 0.59375 0.34
vt 0.59375 0.325
vt 0.59375 0.335
vt 0.59375 0.415
vt 0.59375 0.2864286
vt 0.59375 0.3435714
vt 0.59375 0.355
vt 0.59375 0.3972222
vt 0.96875 0.3
vt 0.96875 0.475
vt 0.96875 0.415
vt 0.96875 0.425
vt 0.59375 0.03642857
vt 0.59375 0.09357143

usemtl colormap

f 3/2/1 2/1/1 1/1/1
f 2/1/1 3/2/1 4/2/1
f 5/1/2 3/2/2 1/1/2
f 3/2/2 5/1/2 6/2/2
f 12/2/4 11/1/4 9/2/4
f 7/1/4 9/2/4 11/1/4
f 10/2/3 9/2/3 8/1/3
f 7/1/3 8/1/3 9/2/3
f 15/3/5 14/3/5 13/3/5
f 14/3/5 15/3/5 16/3/5
f 19/3/5 18/3/5 17/3/5
f 18/3/5 19/3/5 20/3/5
f 23/3/5 22/3/5 21/3/5
f 22/3/5 23/3/5 24/3/5
f 17/3/5 25/3/5 19/3/5
f 25/3/5 17/3/5 26/3/5
f 29/3/5 28/3/5 27/3/5
f 28/3/5 29/3/5 30/3/5
f 33/3/5 32/3/5 31/3/5
f 32/3/5 33/3/5 34/3/5
f 37/2/6 36/5/6 35/4/6
f 37/2/6 35/4/6 38/6/6
f 39/1/6 36/5/6 37/2/6
f 36/5/6 39/1/6 40/7/6
f 40/7/6 39/1/6 41/7/6
f 42/1/6 41/7/6 39/1/6
f 41/7/6 42/1/6 43/5/6
f 37/2/6 38/6/6 44/2/6
f 43/5/6 42/1/6 44/2/6
f 45/6/6 44/2/6 38/6/6
f 43/5/6 44/2/6 46/4/6
f 46/4/6 44/2/6 45/6/6
f 50/8/7 49/8/7 48/2/7
f 47/2/7 48/2/7 49/8/7
f 53/2/8 52/5/8 51/4/8
f 53/2/8 51/4/8 54/6/8
f 55/1/8 52/5/8 53/2/8
f 52/5/8 55/1/8 56/7/8
f 56/7/8 55/1/8 57/7/8
f 58/1/8 57/7/8 55/1/8
f 57/7/8 58/1/8 59/5/8
f 53/2/8 54/6/8 60/2/8
f 59/5/8 58/1/8 60/2/8
f 61/6/8 60/2/8 54/6/8
f 59/5/8 60/2/8 62/4/8
f 62/4/8 60/2/8 61/6/8
f 75/6/7 64/2/7 76/4/7
f 76/4/7 64/2/7 74/5/7
f 70/6/7 64/2/7 75/6/7
f 64/2/7 63/1/7 74/5/7
f 64/2/7 70/6/7 69/2/7
f 74/5/7 63/1/7 73/7/7
f 71/1/7 73/7/7 63/1/7
f 73/7/7 71/1/7 72/7/7
f 72/7/7 71/1/7 68/5/7
f 69/2/7 68/5/7 71/1/7
f 70/6/7 67/4/7 69/2/7
f 67/4/7 68/5/7 69/2/7
f 66/2/9 65/1/9 64/2/9
f 63/1/9 64/2/9 65/1/9
f 79/1/10 78/2/10 77/1/10
f 78/2/10 79/1/10 80/2/10
f 83/2/7 82/5/7 81/4/7
f 83/2/7 81/4/7 84/6/7
f 85/1/7 82/5/7 83/2/7
f 82/5/7 85/1/7 86/7/7
f 86/7/7 85/1/7 87/7/7
f 77/1/7 87/7/7 85/1/7
f 87/7/7 77/1/7 88/5/7
f 83/2/7 84/6/7 78/2/7
f 88/5/7 77/1/7 78/2/7
f 89/6/7 78/2/7 84/6/7
f 88/5/7 78/2/7 90/4/7
f 90/4/7 78/2/7 89/6/7
f 93/10/11 92/9/1 91/9/11
f 92/9/1 93/10/11 94/10/1
f 97/9/2 96/10/12 95/9/12
f 96/10/12 97/9/2 98/10/2
f 96/10/12 91/9/11 95/9/12
f 91/9/11 96/10/12 93/10/11
f 97/9/13 92/9/13 99/9/13
f 92/9/13 97/9/13 91/9/13
f 91/9/13 97/9/13 95/9/13
f 93/10/5 2/10/5 94/10/5
f 2/10/5 93/10/5 1/10/5
f 1/10/5 93/10/5 96/10/5
f 1/10/5 96/10/5 98/10/5
f 98/10/5 5/10/5 1/10/5
f 107/10/5 105/10/5 11/10/5
f 11/10/5 105/10/5 7/10/5
f 105/10/5 102/10/5 7/10/5
f 102/10/5 103/10/5 7/10/5
f 8/10/5 7/10/5 103/10/5
f 104/9/13 106/9/13 100/9/13
f 100/9/13 106/9/13 101/9/13
f 99/9/13 101/9/13 106/9/13
f 102/10/14 105/10/15 100/9/14
f 104/9/15 100/9/14 105/10/15
f 107/10/4 106/9/4 105/10/15
f 104/9/15 105/10/15 106/9/4
f 103/10/3 102/10/14 101/9/3
f 100/9/14 101/9/3 102/10/14
f 110/9/13 109/9/13 108/9/13
f 109/9/13 110/9/13 111/9/13
f 112/10/3 108/9/3 109/9/3
f 108/9/3 112/10/3 113/10/3
f 112/10/5 114/10/5 113/10/5
f 114/10/5 112/10/5 115/10/5
f 118/10/11 117/9/1 116/9/11
f 117/9/1 118/10/11 119/10/1
f 122/9/2 121/10/12 120/9/12
f 121/10/12 122/9/2 123/10/2
f 121/10/12 116/9/11 120/9/12
f 116/9/11 121/10/12 118/10/11
f 122/9/13 117/9/13 124/9/13
f 117/9/13 122/9/13 116/9/13
f 116/9/13 122/9/13 120/9/13
f 118/10/5 125/10/5 119/10/5
f 125/10/5 118/10/5 126/10/5
f 126/10/5 118/10/5 121/10/5
f 126/10/5 121/10/5 127/10/5
f 127/10/5 121/10/5 123/10/5
f 134/10/5 131/10/5 133/10/5
f 132/10/5 133/10/5 131/10/5
f 132/10/1 131/10/1 128/9/1
f 129/9/1 128/9/1 131/10/1
f 130/9/13 110/9/13 129/9/13
f 128/9/13 129/9/13 110/9/13
f 142/10/5 140/10/5 145/10/5
f 145/10/5 140/10/5 144/10/5
f 140/10/5 137/10/5 144/10/5
f 144/10/5 137/10/5 143/10/5
f 138/10/5 143/10/5 137/10/5
f 139/9/13 141/9/13 135/9/13
f 135/9/13 141/9/13 136/9/13
f 124/9/13 136/9/13 141/9/13
f 137/10/14 140/10/15 135/9/14
f 139/9/15 135/9/14 140/10/15
f 142/10/4 141/9/4 140/10/15
f 139/9/15 140/10/15 141/9/4
f 138/10/3 137/10/14 136/9/3
f 135/9/14 136/9/3 137/10/14
f 148/9/17 147/11/16 146/9/16
f 147/11/16 148/9/17 149/11/17
f 152/11/18 151/9/19 150/9/18
f 151/9/19 152/11/18 153/11/19
f 156/11/20 155/9/21 154/9/20
f 155/9/21 156/11/20 157/11/21
f 160/11/23 159/9/22 158/11/22
f 159/9/22 160/11/23 161/9/23
f 146/9/16 152/11/18 150/9/18
f 152/11/18 146/9/16 147/11/16
f 155/9/21 149/11/17 148/9/17
f 149/11/17 155/9/21 157/11/21
f 156/11/20 161/9/23 160/11/23
f 161/9/23 156/11/20 154/9/20
f 158/11/22 151/9/19 153/11/19
f 151/9/19 158/11/22 159/9/22
f 153/11/5 160/11/5 158/11/5
f 160/11/5 153/11/5 156/11/5
f 156/11/5 153/11/5 152/11/5
f 156/11/5 152/11/5 157/11/5
f 157/11/5 152/11/5 147/11/5
f 157/11/5 147/11/5 149/11/5
f 164/9/17 163/11/16 162/9/16
f 163/11/16 164/9/17 165/11/17
f 168/11/18 167/9/19 166/9/18
f 167/9/19 168/11/18 169/11/19
f 172/11/20 171/9/21 170/9/20
f 171/9/21 172/11/20 173/11/21
f 176/11/23 175/9/22 174/11/22
f 175/9/22 176/11/23 177/9/23
f 162/9/16 168/11/18 166/9/18
f 168/11/18 162/9/16 163/11/16
f 171/9/21 165/11/17 164/9/17
f 165/11/17 171/9/21 173/11/21
f 172/11/20 177/9/23 176/11/23
f 177/9/23 172/11/20 170/9/20
f 174/11/22 167/9/19 169/11/19
f 167/9/19 174/11/22 175/9/22
f 169/11/5 176/11/5 174/11/5
f 176/11/5 169/11/5 172/11/5
f 172/11/5 169/11/5 168/11/5
f 172/11/5 168/11/5 173/11/5
f 173/11/5 168/11/5 163/11/5
f 173/11/5 163/11/5 165/11/5
f 179/12/24 178/13/24 9/12/24
f 178/13/24 179/12/24 180/13/24
f 178/13/25 181/12/25 9/12/25
f 181/12/25 178/13/25 182/13/25
f 184/11/26 15/12/26 183/11/26
f 15/12/26 184/11/26 16/12/26
f 187/11/27 186/13/25 185/13/27
f 186/13/25 187/11/27 188/11/25
f 189/13/13 178/13/13 180/13/13
f 178/13/13 189/13/13 185/13/13
f 185/13/13 189/13/13 190/13/13
f 186/13/13 178/13/13 185/13/13
f 178/13/13 186/13/13 182/13/13
f 187/11/5 191/11/5 188/11/5
f 191/11/5 187/11/5 183/11/5
f 183/11/5 187/11/5 184/11/5
f 184/11/5 187/11/5 192/11/5
f 192/11/5 187/11/5 193/11/5
f 189/13/24 193/11/28 190/13/28
f 193/11/28 189/13/24 192/11/24
f 190/13/28 187/11/27 185/13/27
f 187/11/27 190/13/28 193/11/28
f 191/11/29 15/12/29 13/12/29
f 15/12/29 191/11/29 183/11/29
f 196/13/13 195/13/13 194/13/13
f 195/13/13 196/13/13 197/13/13
f 199/12/30 195/13/30 198/12/30
f 195/13/30 199/12/30 194/13/30
f 201/11/31 20/12/31 200/11/31
f 20/12/31 201/11/31 18/12/31
f 200/11/5 202/11/5 201/11/5
f 202/11/5 200/11/5 203/11/5
f 196/13/30 203/11/30 197/13/30
f 203/11/30 196/13/30 202/11/30
f 6/12/2 204/13/2 3/12/2
f 204/13/2 6/12/2 205/13/2
f 204/13/1 4/12/1 3/12/1
f 4/12/1 204/13/1 206/13/1
f 208/11/32 23/12/32 207/11/32
f 23/12/32 208/11/32 24/12/32
f 211/11/11 210/13/1 209/13/11
f 210/13/1 211/11/11 212/11/1
f 213/13/13 204/13/13 205/13/13
f 204/13/13 213/13/13 209/13/13
f 209/13/13 213/13/13 214/13/13
f 210/13/13 204/13/13 209/13/13
f 204/13/13 210/13/13 206/13/13
f 211/11/5 215/11/5 212/11/5
f 215/11/5 211/11/5 207/11/5
f 207/11/5 211/11/5 208/11/5
f 208/11/5 211/11/5 216/11/5
f 216/11/5 211/11/5 217/11/5
f 213/13/2 217/11/12 214/13/12
f 217/11/12 213/13/2 216/11/2
f 214/13/12 211/11/11 209/13/11
f 211/11/11 214/13/12 217/11/12
f 215/11/33 23/12/33 21/12/33
f 23/12/33 215/11/33 207/11/33
f 220/13/13 219/13/13 218/13/13
f 219/13/13 220/13/13 221/13/13
f 223/12/10 219/13/10 222/12/10
f 219/13/10 223/12/10 218/13/10
f 225/11/9 26/12/9 224/11/9
f 26/12/9 225/11/9 25/12/9
f 224/11/5 226/11/5 225/11/5
f 226/11/5 224/11/5 227/11/5
f 220/13/10 227/11/10 221/13/10
f 227/11/10 220/13/10 226/11/10
f 230/12/10 229/13/10 228/12/10
f 229/13/10 230/12/10 231/13/10
f 229/13/7 232/12/7 228/12/7
f 232/12/7 229/13/7 233/13/7
f 235/11/9 29/12/9 234/11/9
f 29/12/9 235/11/9 30/12/9
f 238/11/18 237/13/7 236/13/18
f 237/13/7 238/11/18 239/11/7
f 240/13/13 229/13/13 231/13/13
f 229/13/13 240/13/13 236/13/13
f 236/13/13 240/13/13 241/13/13
f 237/13/13 229/13/13 236/13/13
f 229/13/13 237/13/13 233/13/13
f 238/11/5 242/11/5 239/11/5
f 242/11/5 238/11/5 234/11/5
f 234/11/5 238/11/5 235/11/5
f 235/11/5 238/11/5 243/11/5
f 243/11/5 238/11/5 244/11/5
f 240/13/10 244/11/16 241/13/16
f 244/11/16 240/13/10 243/11/10
f 241/13/16 238/11/18 236/13/18
f 238/11/18 241/13/16 244/11/16
f 242/11/34 29/12/34 27/12/34
f 29/12/34 242/11/34 234/11/34
f 69/12/35 246/13/35 245/12/35
f 246/13/35 69/12/35 247/13/35
f 246/13/3 248/12/3 245/12/3
f 248/12/3 246/13/3 249/13/3
f 251/11/4 33/12/4 250/11/4
f 33/12/4 251/11/4 34/12/4
f 254/11/36 253/13/3 252/13/36
f 253/13/3 254/11/36 255/11/3
f 256/13/13 246/13/13 247/13/13
f 246/13/13 256/13/13 252/13/13
f 252/13/13 256/13/13 257/13/13
f 253/13/13 246/13/13 252/13/13
f 246/13/13 253/13/13 249/13/13
f 254/11/5 258/11/5 255/11/5
f 258/11/5 254/11/5 250/11/5
f 250/11/5 254/11/5 251/11/5
f 251/11/5 254/11/5 259/11/5
f 259/11/5 254/11/5 260/11/5
f 256/13/35 260/11/37 257/13/37
f 260/11/37 256/13/35 259/11/35
f 257/13/37 254/11/36 252/13/36
f 254/11/36 257/13/37 260/11/37
f 258/11/38 33/12/38 31/12/38
f 33/12/38 258/11/38 250/11/38
f 267/14/44 281/12/44 265/14/9
f 284/12/9 265/14/9 281/12/44
f 288/11/56 280/11/52 274/15/34
f 264/15/41 274/15/34 280/11/52
f 269/12/41 262/14/41 292/12/10
f 261/14/10 292/12/10 262/14/41
f 268/15/44 266/15/9 289/11/57
f 290/11/58 289/11/57 266/15/9
f 273/14/45 275/14/7 291/12/45
f 283/12/7 291/12/45 275/14/7
f 292/12/10 261/14/10 291/12/45
f 273/14/45 291/12/45 261/14/10
f 290/11/5 285/11/5 289/11/5
f 289/11/5 285/11/5 288/11/5
f 285/11/5 286/11/5 288/11/5
f 288/11/5 286/11/5 280/11/5
f 286/11/5 287/11/5 280/11/5
f 279/11/5 280/11/5 287/11/5
f 290/11/58 266/15/9 285/11/53
f 278/15/50 285/11/53 266/15/9
f 289/11/57 288/11/56 268/15/44
f 274/15/34 268/15/44 288/11/56
f 265/14/42 277/14/49 266/15/9
f 278/15/50 266/15/9 277/14/49
f 287/11/55 286/11/54 272/15/45
f 276/15/7 272/15/45 286/11/54
f 279/11/51 287/11/55 263/15/10
f 272/15/45 263/15/10 287/11/55
f 286/11/54 285/11/53 276/15/7
f 278/15/50 276/15/7 285/11/53
f 274/15/34 264/15/41 271/14/47
f 262/14/40 271/14/47 264/15/41
f 265/14/9 284/12/9 277/14/50
f 282/12/50 277/14/50 284/12/9
f 275/14/7 277/14/50 283/12/7
f 282/12/50 283/12/7 277/14/50
f 267/14/44 271/14/34 281/12/44
f 270/12/34 281/12/44 271/14/34
f 264/15/41 280/11/52 263/15/10
f 279/11/51 263/15/10 280/11/52
f 276/15/7 278/15/50 275/14/48
f 277/14/49 275/14/48 278/15/50
f 272/15/45 276/15/7 273/14/46
f 275/14/48 273/14/46 276/15/7
f 268/15/44 274/15/34 267/14/43
f 271/14/47 267/14/43 274/15/34
f 261/14/39 263/15/10 273/14/46
f 272/15/45 273/14/46 263/15/10
f 271/14/34 262/14/41 270/12/34
f 269/12/41 270/12/34 262/14/41
f 268/15/44 267/14/43 266/15/9
f 265/14/42 266/15/9 267/14/43
f 264/15/41 263/15/10 262/14/40
f 261/14/39 262/14/40 263/15/10
f 295/16/60 294/16/59 293/16/59
f 294/16/59 295/16/60 296/16/60
f 298/17/61 294/16/59 297/17/61
f 294/16/59 298/17/61 293/16/59
f 299/17/62 298/17/61 297/17/61
f 298/17/61 299/17/62 300/17/62
f 295/16/60 299/17/62 296/16/60
f 299/17/62 295/16/60 300/17/62
f 41/18/64 301/18/63 40/18/63
f 301/18/63 41/18/64 302/18/64
f 43/19/65 304/20/66 303/19/65
f 304/20/66 43/19/65 46/20/66
f 35/20/67 306/19/68 305/20/67
f 306/19/68 35/20/67 36/19/68
f 308/13/70 38/13/69 307/13/69
f 38/13/69 308/13/70 45/13/70
f 36/19/68 301/18/63 306/19/68
f 301/18/63 36/19/68 40/18/63
f 41/18/64 303/19/65 302/18/64
f 303/19/65 41/18/64 43/19/65
f 38/13/69 305/20/67 307/13/69
f 305/20/67 38/13/69 35/20/67
f 46/20/66 308/13/70 304/20/66
f 308/13/70 46/20/66 45/13/70
f 303/19/6 301/18/6 302/18/6
f 301/18/6 303/19/6 306/19/6
f 306/19/6 303/19/6 299/17/6
f 299/17/6 303/19/6 304/20/6
f 297/17/6 306/19/6 299/17/6
f 299/17/6 304/20/6 296/16/6
f 306/19/6 297/17/6 305/20/6
f 296/16/6 304/20/6 294/16/6
f 305/20/6 297/17/6 294/16/6
f 305/20/6 294/16/6 304/20/6
f 305/20/6 304/20/6 308/13/6
f 305/20/6 308/13/6 307/13/6
f 311/9/13 310/9/13 309/9/13
f 310/9/13 311/9/13 312/9/13
f 313/10/6 310/9/6 312/9/6
f 310/9/6 313/10/6 314/10/6
f 313/10/5 39/10/5 314/10/5
f 39/10/5 313/10/5 42/10/5
f 317/21/61 316/22/59 315/21/61
f 316/22/59 317/21/61 318/22/59
f 319/22/60 316/22/59 318/22/59
f 316/22/59 319/22/60 320/22/13
f 320/22/13 319/22/60 321/22/13
f 321/22/13 319/22/60 322/22/60
f 319/22/60 323/21/62 322/22/60
f 323/21/62 319/22/60 324/21/62
f 325/21/5 317/21/61 315/21/61
f 317/21/61 325/21/5 324/21/62
f 324/21/62 325/21/5 326/21/5
f 324/21/62 326/21/5 323/21/62
f 323/21/6 327/23/6 322/22/6
f 322/22/6 327/23/6 321/22/6
f 323/21/6 328/9/6 327/23/6
f 328/9/6 323/21/6 329/9/6
f 315/21/6 329/9/6 323/21/6
f 315/21/6 323/21/6 326/21/6
f 329/9/6 315/21/6 330/23/6
f 315/21/6 326/21/6 325/21/6
f 321/22/6 325/21/6 326/21/6
f 330/23/6 315/21/6 316/22/6
f 330/23/6 316/22/6 327/23/6
f 325/21/6 321/22/6 320/22/6
f 321/22/6 327/23/6 320/22/6
f 320/22/6 327/23/6 316/22/6
f 369/18/10 370/13/10 372/18/45
f 374/13/45 372/18/45 370/13/10
f 371/18/13 367/18/13 372/18/13
f 369/18/13 372/18/13 367/18/13
f 368/13/5 373/13/5 370/13/5
f 374/13/5 370/13/5 373/13/5
f 368/13/9 367/18/9 373/13/50
f 371/18/50 373/13/50 367/18/9
f 374/13/45 373/13/50 372/18/45
f 371/18/50 372/18/45 373/13/50
f 370/13/34 369/18/34 368/13/34
f 367/18/34 368/13/34 369/18/34
f 348/9/13 349/9/13 350/9/13
f 350/9/13 349/9/13 336/9/13
f 336/9/13 349/9/13 338/9/13
f 338/9/13 349/9/13 333/9/13
f 333/9/13 360/9/13 331/9/13
f 333/9/13 349/9/13 360/9/13
f 360/9/13 349/9/13 362/9/13
f 364/9/13 362/9/13 349/9/13
f 361/10/5 363/10/5 359/10/5
f 366/10/5 359/10/5 363/10/5
f 365/10/5 359/10/5 366/10/5
f 359/10/5 365/10/5 352/10/5
f 354/10/5 352/10/5 365/10/5
f 362/9/16 361/10/16 360/9/18
f 359/10/18 360/9/18 361/10/16
f 364/9/10 363/10/10 362/9/16
f 361/10/16 362/9/16 363/10/10
f 360/9/18 359/10/18 331/9/7
f 352/10/7 331/9/7 359/10/18
f 331/9/7 352/10/7 332/16/7
f 351/20/7 332/16/7 352/10/7
f 355/13/7 357/13/7 351/20/7
f 357/13/7 346/20/7 351/20/7
f 346/20/7 332/16/7 351/20/7
f 332/16/7 346/20/7 335/16/7
f 346/20/7 339/10/7 335/16/7
f 335/16/7 339/10/7 336/9/7
f 339/10/7 341/10/19 336/9/7
f 350/9/19 336/9/7 341/10/19
f 358/13/74 347/20/71 357/13/74
f 346/20/71 357/13/74 347/20/71
f 353/20/72 356/13/73 351/20/72
f 355/13/73 351/20/72 356/13/73
f 358/13/74 357/13/74 356/13/73
f 355/13/73 356/13/73 357/13/74
f 354/10/10 353/20/72 352/10/10
f 351/20/72 352/10/10 353/20/72
f 345/10/22 348/9/22 341/10/19
f 350/9/19 341/10/19 348/9/22
f 344/10/9 349/9/9 345/10/22
f 348/9/22 345/10/22 349/9/9
f 347/20/71 340/10/9 346/20/71
f 339/10/9 346/20/71 340/10/9
f 345/10/5 341/10/5 344/10/5
f 344/10/5 341/10/5 343/10/5
f 343/10/5 341/10/5 342/10/5
f 342/10/5 341/10/5 340/10/5
f 339/10/5 340/10/5 341/10/5
f 335/16/13 337/16/13 332/16/13
f 334/16/13 332/16/13 337/16/13
f 338/9/10 337/16/10 336/9/10
f 335/16/10 336/9/10 337/16/10
f 334/16/9 333/9/9 332/16/9
f 331/9/9 332/16/9 333/9/9
f 377/16/76 376/16/75 375/16/75
f 376/16/75 377/16/76 378/16/76
f 380/17/77 376/16/75 379/17/77
f 376/16/75 380/17/77 375/16/75
f 381/17/78 380/17/77 379/17/77
f 380/17/77 381/17/78 382/17/78
f 377/16/76 381/17/78 378/16/76
f 381/17/78 377/16/76 382/17/78
f 57/18/80 383/18/79 56/18/79
f 383/18/79 57/18/80 384/18/80
f 59/19/81 386/20/82 385/19/81
f 386/20/82 59/19/81 62/20/82
f 51/20/83 388/19/84 387/20/83
f 388/19/84 51/20/83 52/19/84
f 390/13/86 54/13/85 389/13/85
f 54/13/85 390/13/86 61/13/86
f 52/19/84 383/18/79 388/19/84
f 383/18/79 52/19/84 56/18/79
f 57/18/80 385/19/81 384/18/80
f 385/19/81 57/18/80 59/19/81
f 54/13/85 387/20/83 389/13/85
f 387/20/83 54/13/85 51/20/83
f 62/20/82 390/13/86 386/20/82
f 390/13/86 62/20/82 61/13/86
f 385/19/8 383/18/8 384/18/8
f 383/18/8 385/19/8 388/19/8
f 388/19/8 385/19/8 381/17/8
f 381/17/8 385/19/8 386/20/8
f 379/17/8 388/19/8 381/17/8
f 381/17/8 386/20/8 378/16/8
f 388/19/8 379/17/8 387/20/8
f 378/16/8 386/20/8 376/16/8
f 387/20/8 379/17/8 376/16/8
f 387/20/8 376/16/8 386/20/8
f 387/20/8 386/20/8 390/13/8
f 387/20/8 390/13/8 389/13/8
f 393/9/13 392/9/13 391/9/13
f 392/9/13 393/9/13 92/9/13
f 94/10/8 392/9/8 92/9/8
f 392/9/8 94/10/8 394/10/8
f 94/10/5 55/10/5 394/10/5
f 55/10/5 94/10/5 58/10/5
f 397/21/77 396/22/75 395/21/77
f 396/22/75 397/21/77 398/22/75
f 399/22/76 396/22/75 398/22/75
f 396/22/75 399/22/76 400/22/13
f 400/22/13 399/22/76 401/22/13
f 401/22/13 399/22/76 402/22/76
f 399/22/76 403/21/78 402/22/76
f 403/21/78 399/22/76 404/21/78
f 405/21/5 397/21/77 395/21/77
f 397/21/77 405/21/5 404/21/78
f 404/21/78 405/21/5 406/21/5
f 404/21/78 406/21/5 403/21/78
f 403/21/8 377/23/8 402/22/8
f 402/22/8 377/23/8 401/22/8
f 403/21/8 382/9/8 377/23/8
f 382/9/8 403/21/8 380/9/8
f 395/21/8 380/9/8 403/21/8
f 395/21/8 403/21/8 406/21/8
f 380/9/8 395/21/8 375/23/8
f 395/21/8 406/21/8 405/21/8
f 401/22/8 405/21/8 406/21/8
f 375/23/8 395/21/8 396/22/8
f 375/23/8 396/22/8 377/23/8
f 405/21/8 401/22/8 400/22/8
f 401/22/8 377/23/8 400/22/8
f 400/22/8 377/23/8 396/22/8
f 409/18/87 408/13/7 407/13/87
f 408/13/7 409/18/87 410/18/7
f 413/18/88 412/13/9 411/18/9
f 412/13/9 413/18/88 414/13/88
f 410/18/7 415/13/89 408/13/7
f 415/13/89 410/18/7 416/18/89
f 411/18/9 415/13/89 416/18/89
f 415/13/89 411/18/9 412/13/9
f 413/18/88 417/13/34 414/13/88
f 417/13/34 413/18/88 418/18/34
f 418/18/34 419/13/90 417/13/34
f 419/13/90 418/18/34 420/18/90
f 419/13/90 422/18/10 421/13/10
f 422/18/10 419/13/90 420/18/90
f 421/13/10 409/18/87 407/13/87
f 409/18/87 421/13/10 422/18/10
f 414/13/13 415/13/13 412/13/13
f 415/13/13 414/13/13 417/13/13
f 415/13/13 417/13/13 408/13/13
f 408/13/13 417/13/13 419/13/13
f 408/13/13 419/13/13 407/13/13
f 407/13/13 419/13/13 421/13/13
f 425/18/13 424/18/13 423/18/13
f 424/18/13 425/18/13 426/18/13
f 429/13/91 428/13/5 427/13/5
f 428/13/5 429/13/91 430/13/91
f 428/13/34 425/18/34 423/18/34
f 425/18/34 428/13/34 431/24/34
f 431/24/34 428/13/34 430/13/34
f 428/13/9 424/18/9 427/13/9
f 424/18/9 428/13/9 423/18/9
f 432/24/7 424/18/7 426/18/7
f 424/18/7 432/24/7 427/13/7
f 427/13/7 432/24/7 429/13/7
f 425/18/10 432/24/92 426/18/10
f 432/24/92 425/18/10 431/24/92
f 431/24/92 429/13/91 432/24/92
f 429/13/91 431/24/92 430/13/91
f 435/18/10 434/13/45 433/18/45
f 434/13/45 435/18/10 436/13/10
f 434/13/45 437/18/7 433/18/45
f 437/18/7 434/13/45 438/13/7
f 441/13/44 440/18/9 439/13/9
f 440/18/9 441/13/44 442/18/44
f 439/13/9 444/18/50 443/13/50
f 444/18/50 439/13/9 440/18/9
f 445/18/41 436/13/10 435/18/10
f 436/13/10 445/18/41 446/13/41
f 448/13/34 445/18/41 447/18/34
f 445/18/41 448/13/34 446/13/41
f 438/13/7 444/18/50 437/18/7
f 444/18/50 438/13/7 443/13/50
f 441/13/44 447/18/34 442/18/44
f 447/18/34 441/13/44 448/13/34
f 443/13/5 441/13/5 439/13/5
f 441/13/5 443/13/5 438/13/5
f 441/13/5 438/13/5 448/13/5
f 448/13/5 438/13/5 434/13/5
f 448/13/5 434/13/5 446/13/5
f 446/13/5 434/13/5 436/13/5
f 442/18/13 444/18/13 440/18/13
f 444/18/13 442/18/13 447/18/13
f 444/18/13 447/18/13 437/18/13
f 437/18/13 447/18/13 445/18/13
f 437/18/13 445/18/13 433/18/13
f 433/18/13 445/18/13 435/18/13
f 451/18/10 450/13/45 449/18/45
f 450/13/45 451/18/10 452/13/10
f 450/13/45 453/18/7 449/18/45
f 453/18/7 450/13/45 454/13/7
f 457/13/44 456/18/9 455/13/9
f 456/18/9 457/13/44 458/18/44
f 455/13/9 460/18/50 459/13/50
f 460/18/50 455/13/9 456/18/9
f 461/18/41 452/13/10 451/18/10
f 452/13/10 461/18/41 462/13/41
f 464/13/34 461/18/41 463/18/34
f 461/18/41 464/13/34 462/13/41
f 454/13/7 460/18/50 453/18/7
f 460/18/50 454/13/7 459/13/50
f 457/13/44 463/18/34 458/18/44
f 463/18/34 457/13/44 464/13/34
f 459/13/5 457/13/5 455/13/5
f 457/13/5 459/13/5 454/13/5
f 457/13/5 454/13/5 464/13/5
f 464/13/5 454/13/5 450/13/5
f 464/13/5 450/13/5 462/13/5
f 462/13/5 450/13/5 452/13/5
f 458/18/13 460/18/13 456/18/13
f 460/18/13 458/18/13 463/18/13
f 460/18/13 463/18/13 453/18/13
f 453/18/13 463/18/13 461/18/13
f 453/18/13 461/18/13 449/18/13
f 449/18/13 461/18/13 451/18/13
f 467/18/10 466/13/45 465/18/45
f 466/13/45 467/18/10 468/13/10
f 466/13/45 469/18/7 465/18/45
f 469/18/7 466/13/45 470/13/7
f 473/13/44 472/18/9 471/13/9
f 472/18/9 473/13/44 474/18/44
f 471/13/9 476/18/50 475/13/50
f 476/18/50 471/13/9 472/18/9
f 477/18/41 468/13/10 467/18/10
f 468/13/10 477/18/41 478/13/41
f 480/13/34 477/18/41 479/18/34
f 477/18/41 480/13/34 478/13/41
f 470/13/7 476/18/50 469/18/7
f 476/18/50 470/13/7 475/13/50
f 473/13/44 479/18/34 474/18/44
f 479/18/34 473/13/44 480/13/34
f 475/13/5 473/13/5 471/13/5
f 473/13/5 475/13/5 470/13/5
f 473/13/5 470/13/5 480/13/5
f 480/13/5 470/13/5 466/13/5
f 480/13/5 466/13/5 478/13/5
f 478/13/5 466/13/5 468/13/5
f 474/18/13 476/18/13 472/18/13
f 476/18/13 474/18/13 479/18/13
f 476/18/13 479/18/13 469/18/13
f 469/18/13 479/18/13 477/18/13
f 469/18/13 477/18/13 465/18/13
f 465/18/13 477/18/13 467/18/13
f 509/22/7 520/23/7 513/22/7
f 513/22/7 520/23/7 514/22/7
f 513/22/7 514/22/7 518/21/7
f 520/23/7 509/22/7 523/23/7
f 509/22/7 508/21/7 523/23/7
f 519/21/7 518/21/7 514/22/7
f 518/21/7 519/21/7 508/21/7
f 523/23/7 508/21/7 522/9/7
f 519/21/7 516/21/7 508/21/7
f 516/21/7 522/9/7 508/21/7
f 522/9/7 516/21/7 521/9/7
f 520/23/7 521/9/7 516/21/7
f 514/22/7 520/23/7 515/22/7
f 515/22/7 520/23/7 516/21/7
f 516/21/96 519/21/5 517/21/96
f 519/21/5 518/21/5 517/21/96
f 517/21/96 518/21/5 510/21/95
f 508/21/95 510/21/95 518/21/5
f 517/21/96 512/22/94 516/21/96
f 515/22/94 516/21/96 512/22/94
f 515/22/94 512/22/94 514/22/13
f 514/22/13 512/22/94 513/22/13
f 513/22/13 512/22/94 509/22/93
f 511/22/93 509/22/93 512/22/94
f 511/22/93 510/21/95 509/22/93
f 508/21/95 509/22/93 510/21/95
f 504/10/22 501/9/22 507/10/19
f 500/9/19 507/10/19 501/9/22
f 506/10/7 507/10/19 502/9/7
f 500/9/19 502/9/7 507/10/19
f 505/10/5 504/10/5 65/10/5
f 65/10/5 504/10/5 63/10/5
f 504/10/5 507/10/5 63/10/5
f 63/10/5 507/10/5 71/10/5
f 506/10/5 71/10/5 507/10/5
f 505/10/9 499/9/9 504/10/22
f 501/9/22 504/10/22 499/9/9
f 503/9/13 502/9/13 498/9/13
f 500/9/13 498/9/13 502/9/13
f 501/9/13 499/9/13 500/9/13
f 500/9/13 499/9/13 498/9/13
f 497/9/13 498/9/13 499/9/13
f 495/13/7 496/13/7 493/20/7
f 496/13/7 492/20/7 493/20/7
f 492/20/7 482/16/7 493/20/7
f 482/16/7 485/17/7 493/20/7
f 482/16/7 492/20/7 484/16/7
f 493/20/7 485/17/7 494/19/7
f 484/16/7 492/20/7 487/17/7
f 487/17/7 494/19/7 485/17/7
f 492/20/7 491/19/7 487/17/7
f 487/17/7 491/19/7 494/19/7
f 494/19/7 491/19/7 489/18/7
f 490/18/7 489/18/7 491/19/7
f 75/13/74 76/20/71 496/13/74
f 492/20/71 496/13/74 76/20/71
f 67/20/72 70/13/73 493/20/72
f 495/13/73 493/20/72 70/13/73
f 74/19/99 73/18/98 491/19/99
f 490/18/98 491/19/99 73/18/98
f 72/18/97 68/19/100 489/18/97
f 494/19/100 489/18/97 68/19/100
f 75/13/74 496/13/74 70/13/73
f 495/13/73 70/13/73 496/13/74
f 68/19/100 67/20/72 494/19/100
f 493/20/72 494/19/100 67/20/72
f 76/20/71 74/19/99 492/20/71
f 491/19/99 492/20/71 74/19/99
f 490/18/98 73/18/98 489/18/97
f 72/18/97 489/18/97 73/18/98
f 488/17/96 483/16/94 487/17/96
f 484/16/94 487/17/96 483/16/94
f 488/17/96 487/17/96 486/17/95
f 485/17/95 486/17/95 487/17/96
f 481/16/93 486/17/95 482/16/93
f 485/17/95 482/16/93 486/17/95
f 484/16/94 483/16/94 482/16/93
f 481/16/93 482/16/93 483/16/94
f 526/16/93 525/16/94 524/16/94
f 525/16/94 526/16/93 527/16/93
f 529/17/96 525/16/94 528/17/96
f 525/16/94 529/17/96 524/16/94
f 530/17/95 529/17/96 528/17/96
f 529/17/96 530/17/95 531/17/95
f 526/16/93 530/17/95 527/16/93
f 530/17/95 526/16/93 531/17/95
f 87/18/97 532/18/98 86/18/98
f 532/18/98 87/18/97 533/18/97
f 88/19/100 535/20/72 534/19/100
f 535/20/72 88/19/100 90/20/72
f 81/20/71 537/19/99 536/20/71
f 537/19/99 81/20/71 82/19/99
f 539/13/73 84/13/74 538/13/74
f 84/13/74 539/13/73 89/13/73
f 82/19/99 532/18/98 537/19/99
f 532/18/98 82/19/99 86/18/98
f 87/18/97 534/19/100 533/18/97
f 534/19/100 87/18/97 88/19/100
f 84/13/74 536/20/71 538/13/74
f 536/20/71 84/13/74 81/20/71
f 90/20/72 539/13/73 535/20/72
f 539/13/73 90/20/72 89/13/73
f 534/19/7 532/18/7 533/18/7
f 532/18/7 534/19/7 537/19/7
f 537/19/7 534/19/7 530/17/7
f 530/17/7 534/19/7 535/20/7
f 528/17/7 537/19/7 530/17/7
f 530/17/7 535/20/7 527/16/7
f 537/19/7 528/17/7 536/20/7
f 527/16/7 535/20/7 525/16/7
f 536/20/7 528/17/7 525/16/7
f 536/20/7 525/16/7 535/20/7
f 536/20/7 535/20/7 539/13/7
f 536/20/7 539/13/7 538/13/7
f 542/9/13 541/9/13 540/9/13
f 541/9/13 542/9/13 543/9/13
f 543/9/13 542/9/13 544/9/13
f 545/9/13 541/9/13 543/9/13
f 541/9/13 545/9/13 546/9/13
f 542/9/10 547/10/16 544/9/16
f 547/10/16 542/9/10 548/10/10
f 550/10/5 85/10/5 549/10/5
f 85/10/5 550/10/5 77/10/5
f 77/10/5 550/10/5 547/10/5
f 77/10/5 547/10/5 79/10/5
f 79/10/5 547/10/5 548/10/5
f 550/10/18 545/9/7 543/9/18
f 545/9/7 550/10/18 549/10/7
f 544/9/16 550/10/18 543/9/18
f 550/10/18 544/9/16 547/10/16
f 553/21/96 552/22/94 551/21/96
f 552/22/94 553/21/96 554/22/94
f 555/22/93 552/22/94 554/22/94
f 552/22/94 555/22/93 556/22/13
f 556/22/13 555/22/93 557/22/13
f 557/22/13 555/22/93 558/22/93
f 555/22/93 559/21/95 558/22/93
f 559/21/95 555/22/93 560/21/95
f 561/21/5 553/21/96 551/21/96
f 553/21/96 561/21/5 560/21/95
f 560/21/95 561/21/5 562/21/5
f 560/21/95 562/21/5 559/21/95
f 559/21/7 563/23/7 558/22/7
f 558/22/7 563/23/7 557/22/7
f 559/21/7 564/9/7 563/23/7
f 564/9/7 559/21/7 565/9/7
f 551/21/7 565/9/7 559/21/7
f 551/21/7 559/21/7 562/21/7
f 565/9/7 551/21/7 566/23/7
f 551/21/7 562/21/7 561/21/7
f 557/22/7 561/21/7 562/21/7
f 566/23/7 551/21/7 552/22/7
f 566/23/7 552/22/7 563/23/7
f 561/21/7 557/22/7 556/22/7
f 557/22/7 563/23/7 556/22/7
f 556/22/7 563/23/7 552/22/7
f 567/26/3 114/25/3 115/25/3
f 114/25/3 567/26/3 568/26/3
f 569/26/1 125/25/1 126/25/1
f 125/25/1 569/26/1 570/26/1
f 127/25/2 569/26/2 126/25/2
f 569/26/2 127/25/2 571/26/2
f 573/26/1 572/26/1 133/25/1
f 134/25/1 133/25/1 572/26/1
f 576/26/4 145/25/4 574/26/4
f 144/25/4 574/26/4 145/25/4
f 575/26/3 574/26/3 143/25/3
f 144/25/3 143/25/3 574/26/3
f 366/25/10 580/26/10 365/25/10
f 579/26/10 365/25/10 580/26/10
f 354/25/7 365/25/7 353/27/7
f 579/26/7 353/27/7 365/25/7
f 356/28/7 353/27/7 579/26/7
f 577/26/7 356/28/7 579/26/7
f 356/28/7 577/26/7 358/28/7
f 358/28/7 577/26/7 347/27/7
f 347/27/7 577/26/7 340/25/7
f 342/25/7 340/25/7 577/26/7
f 578/26/9 343/25/9 577/26/9
f 342/25/9 577/26/9 343/25/9

usemtl colormap-specular

f 319/30/6 317/29/6 324/29/6
f 317/29/6 319/30/6 318/30/6
f 399/30/8 397/29/8 404/29/8
f 397/29/8 399/30/8 398/30/8
f 511/30/7 512/30/7 510/29/7
f 517/29/7 510/29/7 512/30/7
f 555/30/7 553/29/7 560/29/7
f 553/29/7 555/30/7 554/30/7

g building-o




usemtl colormap

f 3/2/1 2/1/1 1/1/1
f 2/1/1 3/2/1 4/2/1
f 5/1/2 3/2/2 1/1/2
f 3/2/2 5/1/2 6/2/2
f 12/2/4 11/1/4 9/2/4
f 7/1/4 9/2/4 11/1/4
f 10/2/3 9/2/3 8/1/3
f 7/1/3 8/1/3 9/2/3
f 15/3/5 14/3/5 13/3/5
f 14/3/5 15/3/5 16/3/5
f 19/3/5 18/3/5 17/3/5
f 18/3/5 19/3/5 20/3/5
f 23/3/5 22/3/5 21/3/5
f 22/3/5 23/3/5 24/3/5
f 17/3/5 25/3/5 19/3/5
f 25/3/5 17/3/5 26/3/5
f 29/3/5 28/3/5 27/3/5
f 28/3/5 29/3/5 30/3/5
f 33/3/5 32/3/5 31/3/5
f 32/3/5 33/3/5 34/3/5
f 37/2/6 36/5/6 35/4/6
f 37/2/6 35/4/6 38/6/6
f 39/1/6 36/5/6 37/2/6
f 36/5/6 39/1/6 40/7/6
f 40/7/6 39/1/6 41/7/6
f 42/1/6 41/7/6 39/1/6
f 41/7/6 42/1/6 43/5/6
f 37/2/6 38/6/6 44/2/6
f 43/5/6 42/1/6 44/2/6
f 45/6/6 44/2/6 38/6/6
f 43/5/6 44/2/6 46/4/6
f 46/4/6 44/2/6 45/6/6
f 50/8/7 49/8/7 48/2/7
f 47/2/7 48/2/7 49/8/7
f 53/2/8 52/5/8 51/4/8
f 53/2/8 51/4/8 54/6/8
f 55/1/8 52/5/8 53/2/8
f 52/5/8 55/1/8 56/7/8
f 56/7/8 55/1/8 57/7/8
f 58/1/8 57/7/8 55/1/8
f 57/7/8 58/1/8 59/5/8
f 53/2/8 54/6/8 60/2/8
f 59/5/8 58/1/8 60/2/8
f 61/6/8 60/2/8 54/6/8
f 59/5/8 60/2/8 62/4/8
f 62/4/8 60/2/8 61/6/8
f 75/6/7 64/2/7 76/4/7
f 76/4/7 64/2/7 74/5/7
f 70/6/7 64/2/7 75/6/7
f 64/2/7 63/1/7 74/5/7
f 64/2/7 70/6/7 69/2/7
f 74/5/7 63/1/7 73/7/7
f 71/1/7 73/7/7 63/1/7
f 73/7/7 71/1/7 72/7/7
f 72/7/7 71/1/7 68/5/7
f 69/2/7 68/5/7 71/1/7
f 70/6/7 67/4/7 69/2/7
f 67/4/7 68/5/7 69/2/7
f 66/2/9 65/1/9 64/2/9
f 63/1/9 64/2/9 65/1/9
f 79/1/10 78/2/10 77/1/10
f 78/2/10 79/1/10 80/2/10
f 83/2/7 82/5/7 81/4/7
f 83/2/7 81/4/7 84/6/7
f 85/1/7 82/5/7 83/2/7
f 82/5/7 85/1/7 86/7/7
f 86/7/7 85/1/7 87/7/7
f 77/1/7 87/7/7 85/1/7
f 87/7/7 77/1/7 88/5/7
f 83/2/7 84/6/7 78/2/7
f 88/5/7 77/1/7 78/2/7
f 89/6/7 78/2/7 84/6/7
f 88/5/7 78/2/7 90/4/7
f 90/4/7 78/2/7 89/6/7
f 93/10/11 92/9/1 91/9/11
f 92/9/1 93/10/11 94/10/1
f 97/9/2 96/10/12 95/9/12
f 96/10/12 97/9/2 98/10/2
f 96/10/12 91/9/11 95/9/12
f 91/9/11 96/10/12 93/10/11
f 97/9/13 92/9/13 99/9/13
f 92/9/13 97/9/13 91/9/13
f 91/9/13 97/9/13 95/9/13
f 93/10/5 2/10/5 94/10/5
f 2/10/5 93/10/5 1/10/5
f 1/10/5 93/10/5 96/10/5
f 1/10/5 96/10/5 98/10/5
f 98/10/5 5/10/5 1/10/5
f 107/10/5 105/10/5 11/10/5
f 11/10/5 105/10/5 7/10/5
f 105/10/5 102/10/5 7/10/5
f 102/10/5 103/10/5 7/10/5
f 8/10/5 7/10/5 103/10/5
f 104/9/13 106/9/13 100/9/13
f 100/9/13 106/9/13 101/9/13
f 99/9/13 101/9/13 106/9/13
f 102/10/14 105/10/15 100/9/14
f 104/9/15 100/9/14 105/10/15
f 107/10/4 106/9/4 105/10/15
f 104/9/15 105/10/15 106/9/4
f 103/10/3 102/10/14 101/9/3
f 100/9/14 101/9/3 102/10/14
f 110/9/13 109/9/13 108/9/13
f 109/9/13 110/9/13 111/9/13
f 112/10/3 108/9/3 109/9/3
f 108/9/3 112/10/3 113/10/3
f 112/10/5 114/10/5 113/10/5
f 114/10/5 112/10/5 115/10/5
f 118/10/11 117/9/1 116/9/11
f 117/9/1 118/10/11 119/10/1
f 122/9/2 121/10/12 120/9/12
f 121/10/12 122/9/2 123/10/2
f 121/10/12 116/9/11 120/9/12
f 116/9/11 121/10/12 118/10/11
f 122/9/13 117/9/13 124/9/13
f 117/9/13 122/9/13 116/9/13
f 116/9/13 122/9/13 120/9/13
f 118/10/5 125/10/5 119/10/5
f 125/10/5 118/10/5 126/10/5
f 126/10/5 118/10/5 121/10/5
f 126/10/5 121/10/5 127/10/5
f 127/10/5 121/10/5 123/10/5
f 134/10/5 131/10/5 133/10/5
f 132/10/5 133/10/5 131/10/5
f 132/10/1 131/10/1 128/9/1
f 129/9/1 128/9/1 131/10/1
f 130/9/13 110/9/13 129/9/13
f 128/9/13 129/9/13 110/9/13
f 142/10/5 140/10/5 145/10/5
f 145/10/5 140/10/5 144/10/5
f 140/10/5 137/10/5 144/10/5
f 144/10/5 137/10/5 143/10/5
f 138/10/5 143/10/5 137/10/5
f 139/9/13 141/9/13 135/9/13
f 135/9/13 141/9/13 136/9/13
f 124/9/13 136/9/13 141/9/13
f 137/10/14 140/10/15 135/9/14
f 139/9/15 135/9/14 140/10/15
f 142/10/4 141/9/4 140/10/15
f 139/9/15 140/10/15 141/9/4
f 138/10/3 137/10/14 136/9/3
f 135/9/14 136/9/3 137/10/14
f 148/9/17 147/11/16 146/9/16
f 147/11/16 148/9/17 149/11/17
f 152/11/18 151/9/19 150/9/18
f 151/9/19 152/11/18 153/11/19
f 156/11/20 155/9/21 154/9/20
f 155/9/21 156/11/20 157/11/21
f 160/11/23 159/9/22 158/11/22
f 159/9/22 160/11/23 161/9/23
f 146/9/16 152/11/18 150/9/18
f 152/11/18 146/9/16 147/11/16
f 155/9/21 149/11/17 148/9/17
f 149/11/17 155/9/21 157/11/21
f 156/11/20 161/9/23 160/11/23
f 161/9/23 156/11/20 154/9/20
f 158/11/22 151/9/19 153/11/19
f 151/9/19 158/11/22 159/9/22
f 153/11/5 160/11/5 158/11/5
f 160/11/5 153/11/5 156/11/5
f 156/11/5 153/11/5 152/11/5
f 156/11/5 152/11/5 157/11/5
f 157/11/5 152/11/5 147/11/5
f 157/11/5 147/11/5 149/11/5
f 164/9/17 163/11/16 162/9/16
f 163/11/16 164/9/17 165/11/17
f 168/11/18 167/9/19 166/9/18
f 167/9/19 168/11/18 169/11/19
f 172/11/20 171/9/21 170/9/20
f 171/9/21 172/11/20 173/11/21
f 176/11/23 175/9/22 174/11/22
f 175/9/22 176/11/23 177/9/23
f 162/9/16 168/11/18 166/9/18
f 168/11/18 162/9/16 163/11/16
f 171/9/21 165/11/17 164/9/17
f 165/11/17 171/9/21 173/11/21
f 172/11/20 177/9/23 176/11/23
f 177/9/23 172/11/20 170/9/20
f 174/11/22 167/9/19 169/11/19
f 167/9/19 174/11/22 175/9/22
f 169/11/5 176/11/5 174/11/5
f 176/11/5 169/11/5 172/11/5
f 172/11/5 169/11/5 168/11/5
f 172/11/5 168/11/5 173/11/5
f 173/11/5 168/11/5 163/11/5
f 173/11/5 163/11/5 165/11/5
f 179/12/24 178/13/24 9/12/24
f 178/13/24 179/12/24 180/13/24
f 178/13/25 181/12/25 9/12/25
f 181/12/25 178/13/25 182/13/25
f 184/11/26 15/12/26 183/11/26
f 15/12/26 184/11/26 16/12/26
f 187/11/27 186/13/25 185/13/27
f 186/13/25 187/11/27 188/11/25
f 189/13/13 178/13/13 180/13/13
f 178/13/13 189/13/13 185/13/13
f 185/13/13 189/13/13 190/13/13
f 186/13/13 178/13/13 185/13/13
f 178/13/13 186/13/13 182/13/13
f 187/11/5 191/11/5 188/11/5
f 191/11/5 187/11/5 183/11/5
f 183/11/5 187/11/5 184/11/5
f 184/11/5 187/11/5 192/11/5
f 192/11/5 187/11/5 193/11/5
f 189/13/24 193/11/28 190/13/28
f 193/11/28 189/13/24 192/11/24
f 190/13/28 187/11/27 185/13/27
f 187/11/27 190/13/28 193/11/28
f 191/11/29 15/12/29 13/12/29
f 15/12/29 191/11/29 183/11/29
f 196/13/13 195/13/13 194/13/13
f 195/13/13 196/13/13 197/13/13
f 199/12/30 195/13/30 198/12/30
f 195/13/30 199/12/30 194/13/30
f 201/11/31 20/12/31 200/11/31
f 20/12/31 201/11/31 18/12/31
f 200/11/5 202/11/5 201/11/5
f 202/11/5 200/11/5 203/11/5
f 196/13/30 203/11/30 197/13/30
f 203/11/30 196/13/30 202/11/30
f 6/12/2 204/13/2 3/12/2
f 204/13/2 6/12/2 205/13/2
f 204/13/1 4/12/1 3/12/1
f 4/12/1 204/13/1 206/13/1
f 208/11/32 23/12/32 207/11/32
f 23/12/32 208/11/32 24/12/32
f 211/11/11 210/13/1 209/13/11
f 210/13/1 211/11/11 212/11/1
f 213/13/13 204/13/13 205/13/13
f 204/13/13 213/13/13 209/13/13
f 209/13/13 213/13/13 214/13/13
f 210/13/13 204/13/13 209/13/13
f 204/13/13 210/13/13 206/13/13
f 211/11/5 215/11/5 212/11/5
f 215/11/5 211/11/5 207/11/5
f 207/11/5 211/11/5 208/11/5
f 208/11/5 211/11/5 216/11/5
f 216/11/5 211/11/5 217/11/5
f 213/13/2 217/11/12 214/13/12
f 217/11/12 213/13/2 216/11/2
f 214/13/12 211/11/11 209/13/11
f 211/11/11 214/13/12 217/11/12
f 215/11/33 23/12/33 21/12/33
f 23/12/33 215/11/33 207/11/33
f 220/13/13 219/13/13 218/13/13
f 219/13/13 220/13/13 221/13/13
f 223/12/10 219/13/10 222/12/10
f 219/13/10 223/12/10 218/13/10
f 225/11/9 26/12/9 224/11/9
f 26/12/9 225/11/9 25/12/9
f 224/11/5 226/11/5 225/11/5
f 226/11/5 224/11/5 227/11/5
f 220/13/10 227/11/10 221/13/10
f 227/11/10 220/13/10 226/11/10
f 230/12/10 229/13/10 228/12/10
f 229/13/10 230/12/10 231/13/10
f 229/13/7 232/12/7 228/12/7
f 232/12/7 229/13/7 233/13/7
f 235/11/9 29/12/9 234/11/9
f 29/12/9 235/11/9 30/12/9
f 238/11/18 237/13/7 236/13/18
f 237/13/7 238/11/18 239/11/7
f 240/13/13 229/13/13 231/13/13
f 229/13/13 240/13/13 236/13/13
f 236/13/13 240/13/13 241/13/13
f 237/13/13 229/13/13 236/13/13
f 229/13/13 237/13/13 233/13/13
f 238/11/5 242/11/5 239/11/5
f 242/11/5 238/11/5 234/11/5
f 234/11/5 238/11/5 235/11/5
f 235/11/5 238/11/5 243/11/5
f 243/11/5 238/11/5 244/11/5
f 240/13/10 244/11/16 241/13/16
f 244/11/16 240/13/10 243/11/10
f 241/13/16 238/11/18 236/13/18
f 238/11/18 241/13/16 244/11/16
f 242/11/34 29/12/34 27/12/34
f 29/12/34 242/11/34 234/11/34
f 69/12/35 246/13/35 245/12/35
f 246/13/35 69/12/35 247/13/35
f 246/13/3 248/12/3 245/12/3
f 248/12/3 246/13/3 249/13/3
f 251/11/4 33/12/4 250/11/4
f 33/12/4 251/11/4 34/12/4
f 254/11/36 253/13/3 252/13/36
f 253/13/3 254/11/36 255/11/3
f 256/13/13 246/13/13 247/13/13
f 246/13/13 256/13/13 252/13/13
f 252/13/13 256/13/13 257/13/13
f 253/13/13 246/13/13 252/13/13
f 246/13/13 253/13/13 249/13/13
f 254/11/5 258/11/5 255/11/5
f 258/11/5 254/11/5 250/11/5
f 250/11/5 254/11/5 251/11/5
f 251/11/5 254/11/5 259/11/5
f 259/11/5 254/11/5 260/11/5
f 256/13/35 260/11/37 257/13/37
f 260/11/37 256/13/35 259/11/35
f 257/13/37 254/11/36 252/13/36
f 254/11/36 257/13/37 260/11/37
f 258/11/38 33/12/38 31/12/38
f 33/12/38 258/11/38 250/11/38
f 267/14/44 281/12/44 265/14/9
f 284/12/9 265/14/9 281/12/44
f 288/11/56 280/11/52 274/15/34
f 264/15/41 274/15/34 280/11/52
f 269/12/41 262/14/41 292/12/10
f 261/14/10 292/12/10 262/14/41
f 268/15/44 266/15/9 289/11/57
f 290/11/58 289/11/57 266/15/9
f 273/14/45 275/14/7 291/12/45
f 283/12/7 291/12/45 275/14/7
f 292/12/10 261/14/10 291/12/45
f 273/14/45 291/12/45 261/14/10
f 290/11/5 285/11/5 289/11/5
f 289/11/5 285/11/5 288/11/5
f 285/11/5 286/11/5 288/11/5
f 288/11/5 286/11/5 280/11/5
f 286/11/5 287/11/5 280/11/5
f 279/11/5 280/11/5 287/11/5
f 290/11/58 266/15/9 285/11/53
f 278/15/50 285/11/53 266/15/9
f 289/11/57 288/11/56 268/15/44
f 274/15/34 268/15/44 288/11/56
f 265/14/42 277/14/49 266/15/9
f 278/15/50 266/15/9 277/14/49
f 287/11/55 286/11/54 272/15/45
f 276/15/7 272/15/45 286/11/54
f 279/11/51 287/11/55 263/15/10
f 272/15/45 263/15/10 287/11/55
f 286/11/54 285/11/53 276/15/7
f 278/15/50 276/15/7 285/11/53
f 274/15/34 264/15/41 271/14/47
f 262/14/40 271/14/47 264/15/41
f 265/14/9 284/12/9 277/14/50
f 282/12/50 277/14/50 284/12/9
f 275/14/7 277/14/50 283/12/7
f 282/12/50 283/12/7 277/14/50
f 267/14/44 271/14/34 281/12/44
f 270/12/34 281/12/44 271/14/34
f 264/15/41 280/11/52 263/15/10
f 279/11/51 263/15/10 280/11/52
f 276/15/7 278/15/50 275/14/48
f 277/14/49 275/14/48 278/15/50
f 272/15/45 276/15/7 273/14/46
f 275/14/48 273/14/46 276/15/7
f 268/15/44 274/15/34 267/14/43
f 271/14/47 267/14/43 274/15/34
f 261/14/39 263/15/10 273/14/46
f 272/15/45 273/14/46 263/15/10
f 271/14/34 262/14/41 270/12/34
f 269/12/41 270/12/34 262/14/41
f 268/15/44 267/14/43 266/15/9
f 265/14/42 266/15/9 267/14/43
f 264/15/41 263/15/10 262/14/40
f 261/14/39 262/14/40 263/15/10
f 295/16/60 294/16/59 293/16/59
f 294/16/59 295/16/60 296/16/60
f 298/17/61 294/16/59 297/17/61
f 294/16/59 298/17/61 293/16/59
f 299/17/62 298/17/61 297/17/61
f 298/17/61 299/17/62 300/17/62
f 295/16/60 299/17/62 296/16/60
f 299/17/62 295/16/60 300/17/62
f 41/18/64 301/18/63 40/18/63
f 301/18/63 41/18/64 302/18/64
f 43/19/65 304/20/66 303/19/65
f 304/20/66 43/19/65 46/20/66
f 35/20/67 306/19/68 305/20/67
f 306/19/68 35/20/67 36/19/68
f 308/13/70 38/13/69 307/13/69
f 38/13/69 308/13/70 45/13/70
f 36/19/68 301/18/63 306/19/68
f 301/18/63 36/19/68 40/18/63
f 41/18/64 303/19/65 302/18/64
f 303/19/65 41/18/64 43/19/65
f 38/13/69 305/20/67 307/13/69
f 305/20/67 38/13/69 35/20/67
f 46/20/66 308/13/70 304/20/66
f 308/13/70 46/20/66 45/13/70
f 303/19/6 301/18/6 302/18/6
f 301/18/6 303/19/6 306/19/6
f 306/19/6 303/19/6 299/17/6
f 299/17/6 303/19/6 304/20/6
f 297/17/6 306/19/6 299/17/6
f 299/17/6 304/20/6 296/16/6
f 306/19/6 297/17/6 305/20/6
f 296/16/6 304/20/6 294/16/6
f 305/20/6 297/17/6 294/16/6
f 305/20/6 294/16/6 304/20/6
f 305/20/6 304/20/6 308/13/6
f 305/20/6 308/13/6 307/13/6
f 311/9/13 310/9/13 309/9/13
f 310/9/13 311/9/13 312/9/13
f 313/10/6 310/9/6 312/9/6
f 310/9/6 313/10/6 314/10/6
f 313/10/5 39/10/5 314/10/5
f 39/10/5 313/10/5 42/10/5
f 317/21/61 316/22/59 315/21/61
f 316/22/59 317/21/61 318/22/59
f 319/22/60 316/22/59 318/22/59
f 316/22/59 319/22/60 320/22/13
f 320/22/13 319/22/60 321/22/13
f 321/22/13 319/22/60 322/22/60
f 319/22/60 323/21/62 322/22/60
f 323/21/62 319/22/60 324/21/62
f 325/21/5 317/21/61 315/21/61
f 317/21/61 325/21/5 324/21/62
f 324/21/62 325/21/5 326/21/5
f 324/21/62 326/21/5 323/21/62
f 323/21/6 327/23/6 322/22/6
f 322/22/6 327/23/6 321/22/6
f 323/21/6 328/9/6 327/23/6
f 328/9/6 323/21/6 329/9/6
f 315/21/6 329/9/6 323/21/6
f 315/21/6 323/21/6 326/21/6
f 329/9/6 315/21/6 330/23/6
f 315/21/6 326/21/6 325/21/6
f 321/22/6 325/21/6 326/21/6
f 330/23/6 315/21/6 316/22/6
f 330/23/6 316/22/6 327/23/6
f 325/21/6 321/22/6 320/22/6
f 321/22/6 327/23/6 320/22/6
f 320/22/6 327/23/6 316/22/6
f 369/18/10 370/13/10 372/18/45
f 374/13/45 372/18/45 370/13/10
f 371/18/13 367/18/13 372/18/13
f 369/18/13 372/18/13 367/18/13
f 368/13/5 373/13/5 370/13/5
f 374/13/5 370/13/5 373/13/5
f 368/13/9 367/18/9 373/13/50
f 371/18/50 373/13/50 367/18/9
f 374/13/45 373/13/50 372/18/45
f 371/18/50 372/18/45 373/13/50
f 370/13/34 369/18/34 368/13/34
f 367/18/34 368/13/34 369/18/34
f 348/9/13 349/9/13 350/9/13
f 350/9/13 349/9/13 336/9/13
f 336/9/13 349/9/13 338/9/13
f 338/9/13 349/9/13 333/9/13
f 333/9/13 360/9/13 331/9/13
f 333/9/13 349/9/13 360/9/13
f 360/9/13 349/9/13 362/9/13
f 364/9/13 362/9/13 349/9/13
f 361/10/5 363/10/5 359/10/5
f 366/10/5 359/10/5 363/10/5
f 365/10/5 359/10/5 366/10/5
f 359/10/5 365/10/5 352/10/5
f 354/10/5 352/10/5 365/10/5
f 362/9/16 361/10/16 360/9/18
f 359/10/18 360/9/18 361/10/16
f 364/9/10 363/10/10 362/9/16
f 361/10/16 362/9/16 363/10/10
f 360/9/18 359/10/18 331/9/7
f 352/10/7 331/9/7 359/10/18
f 331/9/7 352/10/7 332/16/7
f 351/20/7 332/16/7 352/10/7
f 355/13/7 357/13/7 351/20/7
f 357/13/7 346/20/7 351/20/7
f 346/20/7 332/16/7 351/20/7
f 332/16/7 346/20/7 335/16/7
f 346/20/7 339/10/7 335/16/7
f 335/16/7 339/10/7 336/9/7
f 339/10/7 341/10/19 336/9/7
f 350/9/19 336/9/7 341/10/19
f 358/13/74 347/20/71 357/13/74
f 346/20/71 357/13/74 347/20/71
f 353/20/72 356/13/73 351/20/72
f 355/13/73 351/20/72 356/13/73
f 358/13/74 357/13/74 356/13/73
f 355/13/73 356/13/73 357/13/74
f 354/10/10 353/20/72 352/10/10
f 351/20/72 352/10/10 353/20/72
f 345/10/22 348/9/22 341/10/19
f 350/9/19 341/10/19 348/9/22
f 344/10/9 349/9/9 345/10/22
f 348/9/22 345/10/22 349/9/9
f 347/20/71 340/10/9 346/20/71
f 339/10/9 346/20/71 340/10/9
f 345/10/5 341/10/5 344/10/5
f 344/10/5 341/10/5 343/10/5
f 343/10/5 341/10/5 342/10/5
f 342/10/5 341/10/5 340/10/5
f 339/10/5 340/10/5 341/10/5
f 335/16/13 337/16/13 332/16/13
f 334/16/13 332/16/13 337/16/13
f 338/9/10 337/16/10 336/9/10
f 335/16/10 336/9/10 337/16/10
f 334/16/9 333/9/9 332/16/9
f 331/9/9 332/16/9 333/9/9
f 377/16/76 376/16/75 375/16/75
f 376/16/75 377/16/76 378/16/76
f 380/17/77 376/16/75 379/17/77
f 376/16/75 380/17/77 375/16/75
f 381/17/78 380/17/77 379/17/77
f 380/17/77 381/17/78 382/17/78
f 377/16/76 381/17/78 378/16/76
f 381/17/78 377/16/76 382/17/78
f 57/18/80 383/18/79 56/18/79
f 383/18/79 57/18/80 384/18/80
f 59/19/81 386/20/82 385/19/81
f 386/20/82 59/19/81 62/20/82
f 51/20/83 388/19/84 387/20/83
f 388/19/84 51/20/83 52/19/84
f 390/13/86 54/13/85 389/13/85
f 54/13/85 390/13/86 61/13/86
f 52/19/84 383/18/79 388/19/84
f 383/18/79 52/19/84 56/18/79
f 57/18/80 385/19/81 384/18/80
f 385/19/81 57/18/80 59/19/81
f 54/13/85 387/20/83 389/13/85
f 387/20/83 54/13/85 51/20/83
f 62/20/82 390/13/86 386/20/82
f 390/13/86 62/20/82 61/13/86
f 385/19/8 383/18/8 384/18/8
f 383/18/8 385/19/8 388/19/8
f 388/19/8 385/19/8 381/17/8
f 381/17/8 385/19/8 386/20/8
f 379/17/8 388/19/8 381/17/8
f 381/17/8 386/20/8 378/16/8
f 388/19/8 379/17/8 387/20/8
f 378/16/8 386/20/8 376/16/8
f 387/20/8 379/17/8 376/16/8
f 387/20/8 376/16/8 386/20/8
f 387/20/8 386/20/8 390/13/8
f 387/20/8 390/13/8 389/13/8
f 393/9/13 392/9/13 391/9/13
f 392/9/13 393/9/13 92/9/13
f 94/10/8 392/9/8 92/9/8
f 392/9/8 94/10/8 394/10/8
f 94/10/5 55/10/5 394/10/5
f 55/10/5 94/10/5 58/10/5
f 397/21/77 396/22/75 395/21/77
f 396/22/75 397/21/77 398/22/75
f 399/22/76 396/22/75 398/22/75
f 396/22/75 399/22/76 400/22/13
f 400/22/13 399/22/76 401/22/13
f 401/22/13 399/22/76 402/22/76
f 399/22/76 403/21/78 402/22/76
f 403/21/78 399/22/76 404/21/78
f 405/21/5 397/21/77 395/21/77
f 397/21/77 405/21/5 404/21/78
f 404/21/78 405/21/5 406/21/5
f 404/21/78 406/21/5 403/21/78
f 403/21/8 377/23/8 402/22/8
f 402/22/8 377/23/8 401/22/8
f 403/21/8 382/9/8 377/23/8
f 382/9/8 403/21/8 380/9/8
f 395/21/8 380/9/8 403/21/8
f 395/21/8 403/21/8 406/21/8
f 380/9/8 395/21/8 375/23/8
f 395/21/8 406/21/8 405/21/8
f 401/22/8 405/21/8 406/21/8
f 375/23/8 395/21/8 396/22/8
f 375/23/8 396/22/8 377/23/8
f 405/21/8 401/22/8 400/22/8
f 401/22/8 377/23/8 400/22/8
f 400/22/8 377/23/8 396/22/8
f 409/18/87 408/13/7 407/13/87
f 408/13/7 409/18/87 410/18/7
f 413/18/88 412/13/9 411/18/9
f 412/13/9 413/18/88 414/13/88
f 410/18/7 415/13/89 408/13/7
f 415/13/89 410/18/7 416/18/89
f 411/18/9 415/13/89 416/18/89
f 415/13/89 411/18/9 412/13/9
f 413/18/88 417/13/34 414/13/88
f 417/13/34 413/18/88 418/18/34
f 418/18/34 419/13/90 417/13/34
f 419/13/90 418/18/34 420/18/90
f 419/13/90 422/18/10 421/13/10
f 422/18/10 419/13/90 420/18/90
f 421/13/10 409/18/87 407/13/87
f 409/18/87 421/13/10 422/18/10
f 414/13/13 415/13/13 412/13/13
f 415/13/13 414/13/13 417/13/13
f 415/13/13 417/13/13 408/13/13
f 408/13/13 417/13/13 419/13/13
f 408/13/13 419/13/13 407/13/13
f 407/13/13 419/13/13 421/13/13
f 425/18/13 424/18/13 423/18/13
f 424/18/13 425/18/13 426/18/13
f 429/13/91 428/13/5 427/13/5
f 428/13/5 429/13/91 430/13/91
f 428/13/34 425/18/34 423/18/34
f 425/18/34 428/13/34 431/24/34
f 431/24/34 428/13/34 430/13/34
f 428/13/9 424/18/9 427/13/9
f 424/18/9 428/13/9 423/18/9
f 432/24/7 424/18/7 426/18/7
f 424/18/7 432/24/7 427/13/7
f 427/13/7 432/24/7 429/13/7
f 425/18/10 432/24/92 426/18/10
f 432/24/92 425/18/10 431/24/92
f 431/24/92 429/13/91 432/24/92
f 429/13/91 431/24/92 430/13/91
f 435/18/10 434/13/45 433/18/45
f 434/13/45 435/18/10 436/13/10
f 434/13/45 437/18/7 433/18/45
f 437/18/7 434/13/45 438/13/7
f 441/13/44 440/18/9 439/13/9
f 440/18/9 441/13/44 442/18/44
f 439/13/9 444/18/50 443/13/50
f 444/18/50 439/13/9 440/18/9
f 445/18/41 436/13/10 435/18/10
f 436/13/10 445/18/41 446/13/41
f 448/13/34 445/18/41 447/18/34
f 445/18/41 448/13/34 446/13/41
f 438/13/7 444/18/50 437/18/7
f 444/18/50 438/13/7 443/13/50
f 441/13/44 447/18/34 442/18/44
f 447/18/34 441/13/44 448/13/34
f 443/13/5 441/13/5 439/13/5
f 441/13/5 443/13/5 438/13/5
f 441/13/5 438/13/5 448/13/5
f 448/13/5 438/13/5 434/13/5
f 448/13/5 434/13/5 446/13/5
f 446/13/5 434/13/5 436/13/5
f 442/18/13 444/18/13 440/18/13
f 444/18/13 442/18/13 447/18/13
f 444/18/13 447/18/13 437/18/13
f 437/18/13 447/18/13 445/18/13
f 437/18/13 445/18/13 433/18/13
f 433/18/13 445/18/13 435/18/13
f 451/18/10 450/13/45 449/18/45
f 450/13/45 451/18/10 452/13/10
f 450/13/45 453/18/7 449/18/45
f 453/18/7 450/13/45 454/13/7
f 457/13/44 456/18/9 455/13/9
f 456/18/9 457/13/44 458/18/44
f 455/13/9 460/18/50 459/13/50
f 460/18/50 455/13/9 456/18/9
f 461/18/41 452/13/10 451/18/10
f 452/13/10 461/18/41 462/13/41
f 464/13/34 461/18/41 463/18/34
f 461/18/41 464/13/34 462/13/41
f 454/13/7 460/18/50 453/18/7
f 460/18/50 454/13/7 459/13/50
f 457/13/44 463/18/34 458/18/44
f 463/18/34 457/13/44 464/13/34
f 459/13/5 457/13/5 455/13/5
f 457/13/5 459/13/5 454/13/5
f 457/13/5 454/13/5 464/13/5
f 464/13/5 454/13/5 450/13/5
f 464/13/5 450/13/5 462/13/5
f 462/13/5 450/13/5 452/13/5
f 458/18/13 460/18/13 456/18/13
f 460/18/13 458/18/13 463/18/13
f 460/18/13 463/18/13 453/18/13
f 453/18/13 463/18/13 461/18/13
f 453/18/13 461/18/13 449/18/13
f 449/18/13 461/18/13 451/18/13
f 467/18/10 466/13/45 465/18/45
f 466/13/45 467/18/10 468/13/10
f 466/13/45 469/18/7 465/18/45
f 469/18/7 466/13/45 470/13/7
f 473/13/44 472/18/9 471/13/9
f 472/18/9 473/13/44 474/18/44
f 471/13/9 476/18/50 475/13/50
f 476/18/50 471/13/9 472/18/9
f 477/18/41 468/13/10 467/18/10
f 468/13/10 477/18/41 478/13/41
f 480/13/34 477/18/41 479/18/34
f 477/18/41 480/13/34 478/13/41
f 470/13/7 476/18/50 469/18/7
f 476/18/50 470/13/7 475/13/50
f 473/13/44 479/18/34 474/18/44
f 479/18/34 473/13/44 480/13/34
f 475/13/5 473/13/5 471/13/5
f 473/13/5 475/13/5 470/13/5
f 473/13/5 470/13/5 480/13/5
f 480/13/5 470/13/5 466/13/5
f 480/13/5 466/13/5 478/13/5
f 478/13/5 466/13/5 468/13/5
f 474/18/13 476/18/13 472/18/13
f 476/18/13 474/18/13 479/18/13
f 476/18/13 479/18/13 469/18/13
f 469/18/13 479/18/13 477/18/13
f 469/18/13 477/18/13 465/18/13
f 465/18/13 477/18/13 467/18/13
f 509/22/7 520/23/7 513/22/7
f 513/22/7 520/23/7 514/22/7
f 513/22/7 514/22/7 518/21/7
f 520/23/7 509/22/7 523/23/7
f 509/22/7 508/21/7 523/23/7
f 519/21/7 518/21/7 514/22/7
f 518/21/7 519/21/7 508/21/7
f 523/23/7 508/21/7 522/9/7
f 519/21/7 516/21/7 508/21/7
f 516/21/7 522/9/7 508/21/7
f 522/9/7 516/21/7 521/9/7
f 520/23/7 521/9/7 516/21/7
f 514/22/7 520/23/7 515/22/7
f 515/22/7 520/23/7 516/21/7
f 516/21/96 519/21/5 517/21/96
f 519/21/5 518/21/5 517/21/96
f 517/21/96 518/21/5 510/21/95
f 508/21/95 510/21/95 518/21/5
f 517/21/96 512/22/94 516/21/96
f 515/22/94 516/21/96 512/22/94
f 515/22/94 512/22/94 514/22/13
f 514/22/13 512/22/94 513/22/13
f 513/22/13 512/22/94 509/22/93
f 511/22/93 509/22/93 512/22/94
f 511/22/93 510/21/95 509/22/93
f 508/21/95 509/22/93 510/21/95
f 504/10/22 501/9/22 507/10/19
f 500/9/19 507/10/19 501/9/22
f 506/10/7 507/10/19 502/9/7
f 500/9/19 502/9/7 507/10/19
f 505/10/5 504/10/5 65/10/5
f 65/10/5 504/10/5 63/10/5
f 504/10/5 507/10/5 63/10/5
f 63/10/5 507/10/5 71/10/5
f 506/10/5 71/10/5 507/10/5
f 505/10/9 499/9/9 504/10/22
f 501/9/22 504/10/22 499/9/9
f 503/9/13 502/9/13 498/9/13
f 500/9/13 498/9/13 502/9/13
f 501/9/13 499/9/13 500/9/13
f 500/9/13 499/9/13 498/9/13
f 497/9/13 498/9/13 499/9/13
f 495/13/7 496/13/7 493/20/7
f 496/13/7 492/20/7 493/20/7
f 492/20/7 482/16/7 493/20/7
f 482/16/7 485/17/7 493/20/7
f 482/16/7 492/20/7 484/16/7
f 493/20/7 485/17/7 494/19/7
f 484/16/7 492/20/7 487/17/7
f 487/17/7 494/19/7 485/17/7
f 492/20/7 491/19/7 487/17/7
f 487/17/7 491/19/7 494/19/7
f 494/19/7 491/19/7 489/18/7
f 490/18/7 489/18/7 491/19/7
f 75/13/74 76/20/71 496/13/74
f 492/20/71 496/13/74 76/20/71
f 67/20/72 70/13/73 493/20/72
f 495/13/73 493/20/72 70/13/73
f 74/19/99 73/18/98 491/19/99
f 490/18/98 491/19/99 73/18/98
f 72/18/97 68/19/100 489/18/97
f 494/19/100 489/18/97 68/19/100
f 75/13/74 496/13/74 70/13/73
f 495/13/73 70/13/73 496/13/74
f 68/19/100 67/20/72 494/19/100
f 493/20/72 494/19/100 67/20/72
f 76/20/71 74/19/99 492/20/71
f 491/19/99 492/20/71 74/19/99
f 490/18/98 73/18/98 489/18/97
f 72/18/97 489/18/97 73/18/98
f 488/17/96 483/16/94 487/17/96
f 484/16/94 487/17/96 483/16/94
f 488/17/96 487/17/96 486/17/95
f 485/17/95 486/17/95 487/17/96
f 481/16/93 486/17/95 482/16/93
f 485/17/95 482/16/93 486/17/95
f 484/16/94 483/16/94 482/16/93
f 481/16/93 482/16/93 483/16/94
f 526/16/93 525/16/94 524/16/94
f 525/16/94 526/16/93 527/16/93
f 529/17/96 525/16/94 528/17/96
f 525/16/94 529/17/96 524/16/94
f 530/17/95 529/17/96 528/17/96
f 529/17/96 530/17/95 531/17/95
f 526/16/93 530/17/95 527/16/93
f 530/17/95 526/16/93 531/17/95
f 87/18/97 532/18/98 86/18/98
f 532/18/98 87/18/97 533/18/97
f 88/19/100 535/20/72 534/19/100
f 535/20/72 88/19/100 90/20/72
f 81/20/71 537/19/99 536/20/71
f 537/19/99 81/20/71 82/19/99
f 539/13/73 84/13/74 538/13/74
f 84/13/74 539/13/73 89/13/73
f 82/19/99 532/18/98 537/19/99
f 532/18/98 82/19/99 86/18/98
f 87/18/97 534/19/100 533/18/97
f 534/19/100 87/18/97 88/19/100
f 84/13/74 536/20/71 538/13/74
f 536/20/71 84/13/74 81/20/71
f 90/20/72 539/13/73 535/20/72
f 539/13/73 90/20/72 89/13/73
f 534/19/7 532/18/7 533/18/7
f 532/18/7 534/19/7 537/19/7
f 537/19/7 534/19/7 530/17/7
f 530/17/7 534/19/7 535/20/7
f 528/17/7 537/19/7 530/17/7
f 530/17/7 535/20/7 527/16/7
f 537/19/7 528/17/7 536/20/7
f 527/16/7 535/20/7 525/16/7
f 536/20/7 528/17/7 525/16/7
f 536/20/7 525/16/7 535/20/7
f 536/20/7 535/20/7 539/13/7
f 536/20/7 539/13/7 538/13/7
f 542/9/13 541/9/13 540/9/13
f 541/9/13 542/9/13 543/9/13
f 543/9/13 542/9/13 544/9/13
f 545/9/13 541/9/13 543/9/13
f 541/9/13 545/9/13 546/9/13
f 542/9/10 547/10/16 544/9/16
f 547/10/16 542/9/10 548/10/10
f 550/10/5 85/10/5 549/10/5
f 85/10/5 550/10/5 77/10/5
f 77/10/5 550/10/5 547/10/5
f 77/10/5 547/10/5 79/10/5
f 79/10/5 547/10/5 548/10/5
f 550/10/18 545/9/7 543/9/18
f 545/9/7 550/10/18 549/10/7
f 544/9/16 550/10/18 543/9/18
f 550/10/18 544/9/16 547/10/16
f 553/21/96 552/22/94 551/21/96
f 552/22/94 553/21/96 554/22/94
f 555/22/93 552/22/94 554/22/94
f 552/22/94 555/22/93 556/22/13
f 556/22/13 555/22/93 557/22/13
f 557/22/13 555/22/93 558/22/93
f 555/22/93 559/21/95 558/22/93
f 559/21/95 555/22/93 560/21/95
f 561/21/5 553/21/96 551/21/96
f 553/21/96 561/21/5 560/21/95
f 560/21/95 561/21/5 562/21/5
f 560/21/95 562/21/5 559/21/95
f 559/21/7 563/23/7 558/22/7
f 558/22/7 563/23/7 557/22/7
f 559/21/7 564/9/7 563/23/7
f 564/9/7 559/21/7 565/9/7
f 551/21/7 565/9/7 559/21/7
f 551/21/7 559/21/7 562/21/7
f 565/9/7 551/21/7 566/23/7
f 551/21/7 562/21/7 561/21/7
f 557/22/7 561/21/7 562/21/7
f 566/23/7 551/21/7 552/22/7
f 566/23/7 552/22/7 563/23/7
f 561/21/7 557/22/7 556/22/7
f 557/22/7 563/23/7 556/22/7
f 556/22/7 563/23/7 552/22/7
f 567/26/3 114/25/3 115/25/3
f 114/25/3 567/26/3 568/26/3
f 569/26/1 125/25/1 126/25/1
f 125/25/1 569/26/1 570/26/1
f 127/25/2 569/26/2 126/25/2
f 569/26/2 127/25/2 571/26/2
f 573/26/1 572/26/1 133/25/1
f 134/25/1 133/25/1 572/26/1
f 576/26/4 145/25/4 574/26/4
f 144/25/4 574/26/4 145/25/4
f 575/26/3 574/26/3 143/25/3
f 144/25/3 143/25/3 574/26/3
f 366/25/10 580/26/10 365/25/10
f 579/26/10 365/25/10 580/26/10
f 354/25/7 365/25/7 353/27/7
f 579/26/7 353/27/7 365/25/7
f 356/28/7 353/27/7 579/26/7
f 577/26/7 356/28/7 579/26/7
f 356/28/7 577/26/7 358/28/7
f 358/28/7 577/26/7 347/27/7
f 347/27/7 577/26/7 340/25/7
f 342/25/7 340/25/7 577/26/7
f 578/26/9 343/25/9 577/26/9
f 342/25/9 577/26/9 343/25/9

usemtl colormap-specular

f 319/30/6 317/29/6 324/29/6
f 317/29/6 319/30/6 318/30/6
f 399/30/8 397/29/8 404/29/8
f 397/29/8 399/30/8 398/30/8
f 511/30/7 512/30/7 510/29/7
f 517/29/7 510/29/7 512/30/7
f 555/30/7 553/29/7 560/29/7
f 553/29/7 555/30/7 554/30/7

