# Created by Kenney (www.kenney.nl)

mtllib building-i.mtl

g building-i

v 0.02179401 0.05 0.07399999 1 1 1
v 0.02179395 0.05 0.474 1 1 1
v 0.02179401 0.4 0.07399999 1 1 1
v 0.02179395 0.4 0.474 1 1 1
v -0.778206 0.05 0.474 1 1 1
v -0.7782061 0.05 0.07399999 1 1 1
v -0.778206 0.4 0.474 1 1 1
v -0.7782061 0.4 0.07399999 1 1 1
v 0.02179395 0.05 0.8740001 1 1 1
v 0.02179401 0.05 0.474 1 1 1
v 0.02179395 0.4 0.8740001 1 1 1
v 0.02179401 0.4 0.474 1 1 1
v -0.3782061 0.05 0.874 1 1 1
v -0.3782061 0.4 0.874 1 1 1
v -0.378206 0.5 -0.326 1 1 1
v -0.7782061 0.5 -0.326 1 1 1
v -0.378206 0.6999999 -0.326 1 1 1
v -0.378206 0.5 0.874 1 1 1
v -0.7782061 0.5 0.874 1 1 1
v -0.378206 0.6999999 0.874 1 1 1
v -0.3782061 0.5 -0.326 1 1 1
v 0.02179398 0.5 -0.326 1 1 1
v -0.3782061 0.6999999 -0.326 1 1 1
v -0.3782061 0.5 0.874 1 1 1
v 0.02179395 0.5 0.874 1 1 1
v -0.3782061 0.6999999 0.874 1 1 1
v 0.02179395 0.5 -0.326 1 1 1
v 0.02179395 0.4 -0.326 1 1 1
v 0.02179395 0.5 0.074 1 1 1
v 0.02179395 0.4 0.074 1 1 1
v -0.3782061 0.4 -0.326 1 1 1
v -0.3782061 0.5 -0.326 1 1 1
v -0.7782061 0.5 -0.326 1 1 1
v -0.7782061 0.4 -0.326 1 1 1
v -0.378206 0.5 -0.3260001 1 1 1
v -0.378206 0.4 -0.3260001 1 1 1
v -0.778206 0.4 0.07400006 1 1 1
v -0.778206 0.5 0.07400006 1 1 1
v 0.02179399 0.4 0.07399996 1 1 1
v 0.02179394 0.4 0.474 1 1 1
v 0.02179399 0.5 0.07399996 1 1 1
v 0.02179394 0.5 0.474 1 1 1
v -0.778206 0.4 0.07399996 1 1 1
v -0.778206 0.5 0.474 1 1 1
v -0.778206 0.5 0.07399996 1 1 1
v 0.02179395 0.5 0.874 1 1 1
v 0.02179395 0.4 0.874 1 1 1
v 0.02179395 0.5 0.474 1 1 1
v 0.02179395 0.4 0.474 1 1 1
v -0.3782061 0.4 0.874 1 1 1
v -0.3782061 0.5 0.874 1 1 1
v -0.778206 0.5 0.874 1 1 1
v -0.778206 0.4 0.874 1 1 1
v -0.378206 0.5 0.874 1 1 1
v -0.378206 0.4 0.874 1 1 1
v -0.7782061 0.4 0.474 1 1 1
v -0.7782061 0.5 0.474 1 1 1
v -0.7782061 0.4 0.8740002 1 1 1
v -0.7782061 0.05 0.8740002 1 1 1
v -0.378206 0.4 0.8740001 1 1 1
v -0.378206 0.05 0.8740001 1 1 1
v -0.7782062 0.05 0.474 1 1 1
v -0.7782062 0.05 0.5740001 1 1 1
v -0.7782062 0.4 0.474 1 1 1
v -0.7782062 0.28 0.5740001 1 1 1
v -0.7782062 0.3 0.594 1 1 1
v -0.7782061 0.3 0.7540001 1 1 1
v -0.7782061 0.28 0.7740001 1 1 1
v -0.7782061 0.05 0.7740001 1 1 1
v 0.02179395 0.05 -0.326 1 1 1
v 0.02179395 0.4 -0.326 1 1 1
v 0.02179395 0.05 0.074 1 1 1
v -0.01820605 0.05 -0.326 1 1 1
v -0.01820605 0.28 -0.326 1 1 1
v -0.03820606 0.3 -0.326 1 1 1
v -0.3182061 0.3 -0.326 1 1 1
v -0.378206 0.4 -0.326 1 1 1
v -0.3382061 0.28 -0.326 1 1 1
v -0.378206 0.05 -0.326 1 1 1
v -0.3382061 0.05 -0.326 1 1 1
v -0.3782061 0.05 -0.326 1 1 1
v -0.4282061 0.05 -0.326 1 1 1
v -0.3782061 0.4 -0.326 1 1 1
v -0.4282061 0.28 -0.326 1 1 1
v -0.4482061 0.3 -0.326 1 1 1
v -0.7082061 0.3 -0.326 1 1 1
v -0.7782061 0.4 -0.326 1 1 1
v -0.728206 0.28 -0.326 1 1 1
v -0.7782061 0.05 -0.326 1 1 1
v -0.728206 0.05 -0.326 1 1 1
v -0.7782061 0.4 0.074 1 1 1
v -0.7782061 0.05 0.074 1 1 1
v 0.04179393 3.106356E-16 0.474 1 1 1
v 0.04179399 3.106356E-16 0.07399999 1 1 1
v -0.3782061 3.106356E-16 0.474 1 1 1
v -0.3782061 3.106356E-16 0.07399993 1 1 1
v 0.04179399 0.05 0.07399999 1 1 1
v 0.04179393 0.05 0.474 1 1 1
v -0.798206 3.106356E-16 0.07399999 1 1 1
v -0.798206 3.106356E-16 0.474 1 1 1
v -0.378206 3.106356E-16 0.07399993 1 1 1
v -0.378206 3.106356E-16 0.474 1 1 1
v -0.798206 0.05 0.474 1 1 1
v -0.798206 0.05 0.07399999 1 1 1
v 0.04179394 3.101963E-16 0.8740001 1 1 1
v 0.041794 3.101963E-16 0.474 1 1 1
v 0.04179394 0.05 0.8740001 1 1 1
v 0.041794 0.05 0.474 1 1 1
v 0.02179395 3.101963E-16 0.8940001 1 1 1
v 0.02179395 0.05 0.8940001 1 1 1
v -0.3782061 3.101963E-16 0.894 1 1 1
v -0.3782061 0.05 0.894 1 1 1
v -0.378206 3.101963E-16 0.474 1 1 1
v -0.378206 0.733541 0.074 1 1 1
v -0.3782061 0.733541 -0.376 1 1 1
v -0.8363438 0.5044721 0.07400006 1 1 1
v -0.8363439 0.5044721 -0.326 1 1 1
v -0.8232453 0.5110214 -0.3613554 1 1 1
v -0.7916225 0.5268328 -0.376 1 1 1
v -0.7782061 0.5 0.07400005 1 1 1
v -0.8229274 0.4776393 0.07400006 1 1 1
v -0.378206 0.6999999 0.074 1 1 1
v -0.8229275 0.4776393 -0.326 1 1 1
v -0.3782061 0.6999999 -0.376 1 1 1
v -0.8098289 0.4841886 -0.3613554 1 1 1
v -0.7782061 0.5 -0.376 1 1 1
v -0.3782061 0.733541 0.4739999 1 1 1
v -0.378206 0.733541 0.924 1 1 1
v -0.8363439 0.5044721 0.474 1 1 1
v -0.8363439 0.5044721 0.8740001 1 1 1
v -0.8232452 0.5110214 0.9093554 1 1 1
v -0.7916225 0.5268328 0.924 1 1 1
v -0.7782061 0.5 0.474 1 1 1
v -0.8229275 0.4776393 0.474 1 1 1
v -0.3782061 0.6999999 0.4739999 1 1 1
v -0.8229275 0.4776393 0.8740001 1 1 1
v -0.378206 0.6999999 0.924 1 1 1
v -0.8098288 0.4841886 0.9093554 1 1 1
v -0.7782061 0.5 0.924 1 1 1
v -0.3782061 0.733541 0.07400002 1 1 1
v -0.3782061 0.733541 0.474 1 1 1
v -0.8363438 0.5044721 0.07400002 1 1 1
v -0.8363438 0.5044721 0.474 1 1 1
v -0.3782061 0.6999999 0.07400002 1 1 1
v -0.7782061 0.5 0.07400003 1 1 1
v -0.3782061 0.6999999 0.474 1 1 1
v -0.7782061 0.5 0.474 1 1 1
v -0.8229274 0.4776393 0.474 1 1 1
v -0.8229274 0.4776393 0.07400002 1 1 1
v -0.378206 0.733541 0.07400002 1 1 1
v 0.07993172 0.5044721 0.474 1 1 1
v 0.07993172 0.5044721 0.07400002 1 1 1
v 0.02179395 0.5 0.474 1 1 1
v -0.378206 0.6999999 0.07400002 1 1 1
v 0.02179395 0.5 0.07400003 1 1 1
v 0.06651531 0.4776393 0.07400002 1 1 1
v 0.06651531 0.4776393 0.474 1 1 1
v -0.3782061 0.733541 0.074 1 1 1
v 0.07993172 0.5044721 0.07400006 1 1 1
v 0.07993177 0.5044721 -0.326 1 1 1
v 0.06683318 0.5110214 -0.3613554 1 1 1
v 0.0352104 0.5268328 -0.376 1 1 1
v 0.02179393 0.5 0.07400005 1 1 1
v 0.06651531 0.4776393 0.07400006 1 1 1
v -0.3782061 0.6999999 0.074 1 1 1
v 0.06651536 0.4776393 -0.326 1 1 1
v 0.05341677 0.4841886 -0.3613554 1 1 1
v 0.02179399 0.5 -0.376 1 1 1
v -0.3782061 0.733541 0.924 1 1 1
v 0.07993178 0.5044721 0.474 1 1 1
v 0.07993174 0.5044721 0.8740001 1 1 1
v 0.06683312 0.5110214 0.9093554 1 1 1
v 0.03521034 0.5268328 0.924 1 1 1
v 0.02179399 0.5 0.474 1 1 1
v 0.06651537 0.4776393 0.474 1 1 1
v 0.06651533 0.4776393 0.8740001 1 1 1
v -0.3782061 0.6999999 0.924 1 1 1
v 0.05341671 0.4841886 0.9093554 1 1 1
v 0.02179393 0.5 0.924 1 1 1
v -0.5691962 0.667546 0.7364238 1 1 1
v -0.5778365 0.667546 0.7572834 1 1 1
v -0.5544462 0.697046 0.7364238 1 1 1
v -0.5674067 0.697046 0.7677132 1 1 1
v -0.6281962 0.667546 0.7364238 1 1 1
v -0.6429462 0.697046 0.7364238 1 1 1
v -0.6195558 0.667546 0.7572834 1 1 1
v -0.6299856 0.697046 0.7677132 1 1 1
v -0.5778365 0.608546 0.7572834 1 1 1
v -0.5986962 0.608546 0.7659238 1 1 1
v -0.5986962 0.667546 0.7659238 1 1 1
v -0.5674067 0.697046 0.7051343 1 1 1
v -0.5778365 0.667546 0.7155641 1 1 1
v -0.5986962 0.697046 0.7806738 1 1 1
v -0.5986962 0.667546 0.7069238 1 1 1
v -0.5986962 0.697046 0.6921738 1 1 1
v -0.6195558 0.667546 0.7155641 1 1 1
v -0.6299856 0.697046 0.7051343 1 1 1
v -0.5691962 0.7265459 0.7364238 1 1 1
v -0.5778365 0.7265459 0.7572834 1 1 1
v -0.6195558 0.608546 0.7572834 1 1 1
v -0.6195558 0.608546 0.7155641 1 1 1
v -0.5986962 0.608546 0.7069238 1 1 1
v -0.6281962 0.608546 0.7364238 1 1 1
v -0.6195558 0.7265459 0.7155641 1 1 1
v -0.5986962 0.7265459 0.7069238 1 1 1
v -0.5778365 0.7265459 0.7155641 1 1 1
v -0.5986962 0.7265459 0.7659238 1 1 1
v -0.6195558 0.7265459 0.7572834 1 1 1
v -0.6281962 0.7265459 0.7364238 1 1 1
v -0.5778365 0.608546 0.7155641 1 1 1
v -0.5691962 0.608546 0.7364238 1 1 1
v -0.5691962 0.667546 0.6364238 1 1 1
v -0.5778365 0.667546 0.6572834 1 1 1
v -0.5544462 0.697046 0.6364238 1 1 1
v -0.5674067 0.697046 0.6677132 1 1 1
v -0.6281962 0.667546 0.6364238 1 1 1
v -0.6429462 0.697046 0.6364238 1 1 1
v -0.6195558 0.667546 0.6572834 1 1 1
v -0.6299856 0.697046 0.6677132 1 1 1
v -0.5778365 0.608546 0.6572834 1 1 1
v -0.5986962 0.608546 0.6659238 1 1 1
v -0.5986962 0.667546 0.6659238 1 1 1
v -0.5674067 0.697046 0.6051343 1 1 1
v -0.5778365 0.667546 0.6155641 1 1 1
v -0.5986962 0.697046 0.6806738 1 1 1
v -0.5986962 0.667546 0.6069238 1 1 1
v -0.5986962 0.697046 0.5921738 1 1 1
v -0.6195558 0.667546 0.6155641 1 1 1
v -0.6299856 0.697046 0.6051343 1 1 1
v -0.5691962 0.7265459 0.6364238 1 1 1
v -0.5778365 0.7265459 0.6572834 1 1 1
v -0.6195558 0.608546 0.6572834 1 1 1
v -0.6195558 0.608546 0.6155641 1 1 1
v -0.5986962 0.608546 0.6069238 1 1 1
v -0.6281962 0.608546 0.6364238 1 1 1
v -0.6195558 0.7265459 0.6155641 1 1 1
v -0.5986962 0.7265459 0.6069238 1 1 1
v -0.5778365 0.7265459 0.6155641 1 1 1
v -0.5986962 0.7265459 0.6659238 1 1 1
v -0.6195558 0.7265459 0.6572834 1 1 1
v -0.6281962 0.7265459 0.6364238 1 1 1
v -0.5778365 0.608546 0.6155641 1 1 1
v -0.5691962 0.608546 0.6364238 1 1 1
v -0.7671538 0.567018 0.124 1 1 1
v -0.7559735 0.5446573 0.124 1 1 1
v -0.4697568 0.7157165 0.124 1 1 1
v -0.4585764 0.6933559 0.124 1 1 1
v -0.4406878 0.7023001 0.404 1 1 1
v -0.4518682 0.7246608 0.404 1 1 1
v -0.4406879 0.7023001 0.144 1 1 1
v -0.4518682 0.7246608 0.144 1 1 1
v -0.7738619 0.5357131 0.404 1 1 1
v -0.773862 0.5357131 0.144 1 1 1
v -0.7850423 0.5580738 0.404 1 1 1
v -0.7850423 0.5580738 0.144 1 1 1
v -0.7671537 0.567018 0.424 1 1 1
v -0.4697567 0.7157165 0.424 1 1 1
v -0.7559734 0.5446573 0.424 1 1 1
v -0.4585764 0.6933559 0.424 1 1 1
v -0.7578917 0.5716491 0.149 1 1 1
v -0.7626817 0.5692541 0.1543554 1 1 1
v -0.4790188 0.7110855 0.149 1 1 1
v -0.4742289 0.7134805 0.1543553 1 1 1
v -0.7626817 0.5692541 0.2615 1 1 1
v -0.4742289 0.7134805 0.2615 1 1 1
v -0.7626817 0.5692541 0.2865 1 1 1
v -0.4742289 0.7134805 0.2865 1 1 1
v -0.7626816 0.5692541 0.3936447 1 1 1
v -0.4742289 0.7134805 0.3936447 1 1 1
v -0.7578917 0.5716491 0.399 1 1 1
v -0.4790188 0.7110855 0.399 1 1 1
v -0.7570915 0.5580738 0.2615 1 1 1
v -0.7570915 0.5580738 0.1543554 1 1 1
v -0.4686387 0.7023001 0.2615 1 1 1
v -0.4686387 0.7023001 0.1543553 1 1 1
v -0.4734287 0.6999052 0.149 1 1 1
v -0.7523015 0.5604687 0.149 1 1 1
v -0.7570915 0.5580738 0.2865 1 1 1
v -0.4686387 0.7023001 0.2865 1 1 1
v -0.7570915 0.5580738 0.3936447 1 1 1
v -0.7523015 0.5604687 0.399 1 1 1
v -0.4734287 0.6999052 0.399 1 1 1
v -0.4686387 0.7023001 0.3936447 1 1 1
v -0.828934 0.05000001 -0.2847279 1 1 1
v -0.8162061 0.05000001 -0.29 1 1 1
v -0.828934 0.4 -0.2847279 1 1 1
v -0.8162061 0.4 -0.29 1 1 1
v -0.7982061 0.4 -0.272 1 1 1
v -0.7982061 0.05000001 -0.272 1 1 1
v -0.8034782 0.4 -0.2592721 1 1 1
v -0.8034782 0.05000001 -0.2592721 1 1 1
v -0.8034782 0.05000001 -0.2847279 1 1 1
v -0.8034782 0.4 -0.2847279 1 1 1
v -0.8162061 0.05000001 -0.254 1 1 1
v -0.8162061 0.4 -0.254 1 1 1
v -0.828934 0.05000001 -0.2592721 1 1 1
v -0.828934 0.4 -0.2592721 1 1 1
v -0.8342061 0.05000001 -0.272 1 1 1
v -0.8342061 0.4 -0.272 1 1 1
v -0.7782061 0.4 -0.254 1 1 1
v -0.7782061 0.4 -0.29 1 1 1
v -0.8342061 0.4 -0.254 1 1 1
v -0.8342061 0.4 -0.29 1 1 1
v -0.7782061 0.436 -0.29 1 1 1
v -0.7782061 0.436 -0.254 1 1 1
v -0.8242061 0.436 -0.29 1 1 1
v -0.8242061 0.436 -0.254 1 1 1
v -0.8342061 0.426 -0.254 1 1 1
v -0.8342061 0.426 -0.29 1 1 1
v -0.8342994 0.1107845 -0.2900934 1 1 1
v -0.8342994 0.1392155 -0.2900934 1 1 1
v -0.841794 0.1107845 -0.272 1 1 1
v -0.841794 0.1392155 -0.272 1 1 1
v -0.8162061 0.1107845 -0.2975879 1 1 1
v -0.8162061 0.1392155 -0.2975879 1 1 1
v -0.7906182 0.1392155 -0.272 1 1 1
v -0.7906182 0.1107845 -0.272 1 1 1
v -0.7981128 0.1392155 -0.2539066 1 1 1
v -0.7981128 0.1107845 -0.2539066 1 1 1
v -0.7981128 0.1392155 -0.2900934 1 1 1
v -0.7981128 0.1107845 -0.2900934 1 1 1
v -0.8342994 0.1107845 -0.2539066 1 1 1
v -0.8342994 0.1392155 -0.2539066 1 1 1
v -0.8162061 0.1107845 -0.2464121 1 1 1
v -0.8162061 0.1392155 -0.2464121 1 1 1
v -0.8342994 0.314707 -0.2900934 1 1 1
v -0.8342994 0.343138 -0.2900934 1 1 1
v -0.841794 0.314707 -0.272 1 1 1
v -0.841794 0.343138 -0.272 1 1 1
v -0.8162061 0.314707 -0.2975879 1 1 1
v -0.8162061 0.343138 -0.2975879 1 1 1
v -0.7906182 0.343138 -0.272 1 1 1
v -0.7906182 0.314707 -0.272 1 1 1
v -0.7981128 0.343138 -0.2539066 1 1 1
v -0.7981128 0.314707 -0.2539066 1 1 1
v -0.7981128 0.343138 -0.2900934 1 1 1
v -0.7981128 0.314707 -0.2900934 1 1 1
v -0.8342994 0.314707 -0.2539066 1 1 1
v -0.8342994 0.343138 -0.2539066 1 1 1
v -0.8162061 0.314707 -0.2464121 1 1 1
v -0.8162061 0.343138 -0.2464121 1 1 1
v -0.7982062 4.911135E-16 0.7440001 1 1 1
v -0.7982062 0.27 0.7440001 1 1 1
v -0.7782061 5.016401E-16 0.7440001 1 1 1
v -0.7782061 0.27 0.7440001 1 1 1
v -0.7982062 0.27 0.604 1 1 1
v -0.7982062 4.911135E-16 0.604 1 1 1
v -0.7782062 0.27 0.604 1 1 1
v -0.7782062 5.016401E-16 0.604 1 1 1
v -0.7782061 0.05 0.8940002 1 1 1
v -0.7782061 3.105097E-16 0.8940002 1 1 1
v -0.378206 0.05 0.8940001 1 1 1
v -0.378206 3.211623E-16 0.8940001 1 1 1
v -0.7982062 0.05 0.5740001 1 1 1
v -0.7982062 0.05 0.474 1 1 1
v -0.7982062 0.28 0.5740001 1 1 1
v -0.7982062 3.106356E-16 0.474 1 1 1
v -0.7982062 0.28 0.7740001 1 1 1
v -0.7982062 0.3 0.594 1 1 1
v -0.7982062 0.3 0.7540001 1 1 1
v -0.7982062 0.05 0.7740001 1 1 1
v -0.7982061 0.05 0.8740002 1 1 1
v -0.7982061 3.349807E-16 0.8740002 1 1 1
v -0.378206 3.211623E-16 0.474 1 1 1
v -0.7782062 0.1142649 0.6340001 1 1 1
v -0.7892061 0.1142649 0.6340001 1 1 1
v -0.7782062 0.1142649 0.61473 1 1 1
v -0.7892062 0.1142649 0.61473 1 1 1
v -0.7892061 0.1557351 0.6340001 1 1 1
v -0.7782062 0.1557351 0.6340001 1 1 1
v -0.7892062 0.1557351 0.61473 1 1 1
v -0.7782062 0.1557351 0.61473 1 1 1
v -0.7892062 0.1332044 0.621316 1 1 1
v -0.7892062 0.1463153 0.621316 1 1 1
v -0.7892062 0.1332044 0.6522295 1 1 1
v -0.7892062 0.1463153 0.6522295 1 1 1
v -0.8002062 0.1332044 0.621316 1 1 1
v -0.8002062 0.1332044 0.6522295 1 1 1
v -0.8002062 0.1463153 0.621316 1 1 1
v -0.8002062 0.1463153 0.6522295 1 1 1
v -0.898206 0.05 -0.177851 1 1 1
v -0.898206 1.300053E-16 -0.177851 1 1 1
v -0.798206 0.05 -0.177851 1 1 1
v -0.798206 1.299381E-16 -0.177851 1 1 1
v -0.9482059 1.300053E-16 0.1721491 1 1 1
v -0.948206 1.300053E-16 -0.127851 1 1 1
v -0.9482059 0.05 0.1721491 1 1 1
v -0.948206 0.05 -0.127851 1 1 1
v -0.9335613 1.299774E-16 -0.1632063 1 1 1
v -0.9335613 0.05 -0.1632063 1 1 1
v -0.8982059 1.300053E-16 0.2221491 1 1 1
v -0.8982059 0.05 0.2221491 1 1 1
v -0.7982059 1.299381E-16 0.2221491 1 1 1
v -0.7982059 0.05 0.2221491 1 1 1
v -0.9335613 1.299774E-16 0.2075045 1 1 1
v -0.9335613 0.05 0.2075045 1 1 1
v -0.7982059 0.05 0.2021491 1 1 1
v -0.8942277 0.05 0.2021491 1 1 1
v -0.918254 0.05 0.1921971 1 1 1
v -0.928206 0.05 0.1681709 1 1 1
v -0.928206 0.05 -0.1238727 1 1 1
v -0.918254 0.05 -0.147899 1 1 1
v -0.8942277 0.05 -0.157851 1 1 1
v -0.798206 0.05 -0.157851 1 1 1
v -0.918254 0.03 0.1921971 1 1 1
v -0.8942277 0.03 0.2021491 1 1 1
v -0.7982059 0.03 0.2021491 1 1 1
v -0.8942277 0.03 -0.157851 1 1 1
v -0.798206 0.03 -0.157851 1 1 1
v -0.918254 0.03 -0.147899 1 1 1
v -0.928206 0.03 -0.1238727 1 1 1
v -0.928206 0.03 0.1681709 1 1 1
v -0.3082061 4.912457E-16 -0.346 1 1 1
v -0.3082061 0.27 -0.346 1 1 1
v -0.3082061 4.912457E-16 -0.326 1 1 1
v -0.3082061 0.27 -0.326 1 1 1
v -0.04820605 0.27 -0.346 1 1 1
v -0.04820605 4.912457E-16 -0.346 1 1 1
v -0.04820605 0.27 -0.326 1 1 1
v -0.04820605 4.912457E-16 -0.326 1 1 1
v -0.378206 3.107678E-16 0.074 1 1 1
v -0.378206 3.107678E-16 -0.346 1 1 1
v 0.04179394 3.107678E-16 0.074 1 1 1
v 0.02179395 3.505607E-16 -0.346 1 1 1
v 0.04179394 3.107678E-16 -0.326 1 1 1
v -0.01820605 0.05 -0.346 1 1 1
v 0.02179395 0.05 -0.346 1 1 1
v 0.04179394 0.05 0.074 1 1 1
v 0.04179394 0.05 -0.326 1 1 1
v -0.378206 0.05 -0.346 1 1 1
v -0.3382061 0.05 -0.346 1 1 1
v -0.3382061 0.28 -0.346 1 1 1
v -0.3182061 0.3 -0.346 1 1 1
v -0.03820606 0.3 -0.346 1 1 1
v -0.01820605 0.28 -0.346 1 1 1
v -0.1562575 0.03688905 -0.337 1 1 1
v -0.1562575 0.05 -0.337 1 1 1
v -0.1562575 0.03688905 -0.326 1 1 1
v -0.1562575 0.05 -0.326 1 1 1
v -0.2001547 0.05 -0.337 1 1 1
v -0.2001547 0.05 -0.326 1 1 1
v -0.2001547 0.03688905 -0.326 1 1 1
v -0.2001547 0.03688905 -0.337 1 1 1
v -0.6982061 3.106356E-16 -0.346 1 1 1
v -0.6982061 0.27 -0.346 1 1 1
v -0.6982061 3.106356E-16 -0.326 1 1 1
v -0.6982061 0.27 -0.326 1 1 1
v -0.4582061 0.27 -0.346 1 1 1
v -0.4582061 3.106356E-16 -0.346 1 1 1
v -0.4582061 0.27 -0.326 1 1 1
v -0.4582061 3.106356E-16 -0.326 1 1 1
v -0.4282061 0.05 -0.346 1 1 1
v -0.4282061 0.28 -0.346 1 1 1
v -0.728206 0.28 -0.346 1 1 1
v -0.728206 0.05 -0.346 1 1 1
v -0.7082061 0.3 -0.346 1 1 1
v -0.4482061 0.3 -0.346 1 1 1
v -0.3782061 0.05 -0.346 1 1 1
v -0.3782061 3.107678E-16 -0.346 1 1 1
v -0.7782061 0.05 -0.346 1 1 1
v -0.7782061 3.104688E-16 -0.346 1 1 1
v -0.7982061 0.05 -0.326 1 1 1
v -0.7982061 3.104789E-16 -0.326 1 1 1
v -0.7982061 0.05 0.074 1 1 1
v -0.7982061 3.106356E-16 0.074 1 1 1
v -0.3782061 3.106356E-16 0.074 1 1 1
v -0.548936 0.1142649 -0.326 1 1 1
v -0.548936 0.1557351 -0.326 1 1 1
v -0.548936 0.1142649 -0.306 1 1 1
v -0.548936 0.1557351 -0.306 1 1 1
v -0.5682061 0.1142649 -0.306 1 1 1
v -0.5682061 0.1142649 -0.326 1 1 1
v -0.5682061 0.1557351 -0.326 1 1 1
v -0.5682061 0.1557351 -0.306 1 1 1
v -0.6074761 0.1142649 -0.306 1 1 1
v -0.6074761 0.1142649 -0.326 1 1 1
v -0.5882061 0.1142649 -0.306 1 1 1
v -0.5882061 0.1142649 -0.326 1 1 1
v -0.6074761 0.1557351 -0.326 1 1 1
v -0.6074761 0.1557351 -0.306 1 1 1
v -0.5882061 0.1557351 -0.326 1 1 1
v -0.5882061 0.1557351 -0.306 1 1 1
v -0.4782061 0.25 -0.326 1 1 1
v -0.4782061 0.02 -0.326 1 1 1
v -0.4782061 0.25 -0.306 1 1 1
v -0.4782061 0.02 -0.306 1 1 1
v -0.6782061 0.02 -0.326 1 1 1
v -0.6782061 0.02 -0.306 1 1 1
v -0.5882061 0.02 -0.326 1 1 1
v -0.5882061 0.02 -0.306 1 1 1
v -0.6782061 0.25 -0.326 1 1 1
v -0.6782061 0.25 -0.306 1 1 1
v -0.5882061 0.25 -0.326 1 1 1
v -0.5882061 0.25 -0.306 1 1 1
v -0.5682061 0.02 -0.326 1 1 1
v -0.5682061 0.25 -0.326 1 1 1
v -0.5682061 0.02 -0.306 1 1 1
v -0.5682061 0.25 -0.306 1 1 1
v -0.4582061 0.27 -0.326 1 1 1
v -0.4582061 3.106356E-16 -0.326 1 1 1
v -0.6982061 3.106356E-16 -0.326 1 1 1
v -0.6982061 0.27 -0.326 1 1 1
v -0.8739076 0.1771095 -0.08055922 1 1 1
v -0.8380408 0.1771095 -0.08055922 1 1 1
v -0.8918409 0.1771095 -0.04949764 1 1 1
v -0.8201073 0.1771095 -0.04949766 1 1 1
v -0.8739076 0.1771095 -0.01843607 1 1 1
v -0.8380408 0.1771095 -0.01843608 1 1 1
v -0.8918409 0.09955978 0.0126255 1 1 1
v -0.8201073 0.09955978 0.01262549 1 1 1
v -0.8798854 0.03 -0.008082222 1 1 1
v -0.832063 0.03 -0.008082228 1 1 1
v -0.8081517 0.03 -0.04949766 1 1 1
v -0.7842405 0.09955978 -0.04949766 1 1 1
v -0.9037966 0.03 -0.04949764 1 1 1
v -0.9277078 0.09955978 -0.04949764 1 1 1
v -0.8798854 0.03 -0.09091308 1 1 1
v -0.8918409 0.09955978 -0.1116208 1 1 1
v -0.832063 0.03 -0.09091308 1 1 1
v -0.8201073 0.09955978 -0.1116208 1 1 1
v -0.8767035 0.1415561 0.06242357 1 1 1
v -0.8374168 0.1415561 0.06242356 1 1 1
v -0.8963469 0.1415561 0.0964469 1 1 1
v -0.8177734 0.1415561 0.09644689 1 1 1
v -0.8767035 0.1415561 0.1304702 1 1 1
v -0.8374168 0.1415561 0.1304702 1 1 1
v -0.8963469 0.08274858 0.1644936 1 1 1
v -0.8177734 0.08274858 0.1644936 1 1 1
v -0.8832513 0.03 0.1418113 1 1 1
v -0.830869 0.03 0.1418113 1 1 1
v -0.8046778 0.03 0.09644689 1 1 1
v -0.7784867 0.08274858 0.09644689 1 1 1
v -0.9094425 0.03 0.0964469 1 1 1
v -0.9356337 0.08274858 0.0964469 1 1 1
v -0.8832513 0.03 0.05108246 1 1 1
v -0.8963469 0.08274858 0.02840024 1 1 1
v -0.830869 0.03 0.05108245 1 1 1
v -0.8177734 0.08274858 0.02840023 1 1 1
v -0.2682061 0.18 -0.326 1 1 1
v -0.2682061 0.18 -0.306 1 1 1
v -0.08820606 0.18 -0.326 1 1 1
v -0.08820606 0.18 -0.306 1 1 1
v -0.08820606 0.22 -0.326 1 1 1
v -0.08820606 0.22 -0.306 1 1 1
v -0.2682061 0.22 -0.306 1 1 1
v -0.2682061 0.22 -0.326 1 1 1
v -0.3082061 0.27 -0.326 1 1 1
v -0.3082061 4.912457E-16 -0.326 1 1 1
v -0.04820606 0.27 -0.326 1 1 1
v -0.04820606 4.912457E-16 -0.326 1 1 1
v -0.08820605 0.18 -0.306 1 1 1
v -0.08820605 0.22 -0.306 1 1 1

vn 1 0 1.192093E-07
vn -1 0 1.192093E-07
vn -1.192093E-07 0 1
vn -1.192093E-07 0 -1
vn 1.192093E-07 0 1
vn 1.192093E-07 0 -1
vn 1 0 0
vn 0 0 -1
vn 1 0 -1.490028E-08
vn 1.490028E-08 0 1
vn 1.192093E-07 0 1
vn -1 0 1.192093E-07
vn -1 0 0
vn 0 -1 0
vn 0 1 0
vn 0.9238796 0 0.3826836
vn 0.3826834 0 0.9238797
vn -0.4472136 0.8944272 5.331201E-08
vn 0.4472136 -0.8944272 -5.331201E-08
vn -0.4472136 0.8944272 0
vn 0.4472136 -0.8944272 0
vn 0.4472136 0.8944272 -1.631894E-13
vn -0.4472136 -0.8944272 1.631894E-13
vn 0.4472136 0.8944272 5.331201E-08
vn -0.4472136 -0.8944272 -5.331201E-08
vn 0.8944272 -0.4472136 0
vn 0.6324555 -0.4472136 0.6324555
vn 0.7071068 0 0.7071068
vn -0.8944272 -0.4472136 0
vn -0.6324555 -0.4472136 0.6324555
vn -0.7071068 0 0.7071068
vn 0 0 1
vn 0.7071068 0 -0.7071068
vn 0.6324555 -0.4472136 -0.6324555
vn 0 -0.4472136 0.8944272
vn 0 -0.4472136 -0.8944272
vn -0.6324555 -0.4472136 -0.6324555
vn -0.7071068 0 -0.7071068
vn 0.8944272 0.4472136 0
vn 0.6324555 0.4472136 0.6324555
vn -0.6324555 0.4472136 -0.6324555
vn 0 0.4472136 -0.8944272
vn 0.6324555 0.4472136 -0.6324555
vn 0 0.4472136 0.8944272
vn -0.6324555 0.4472136 0.6324555
vn -0.8944272 0.4472136 0
vn -0.3422825 -0.1711412 -0.9238794
vn 0.3422823 0.1711412 -0.9238796
vn 0.826343 0.4131715 0.3826833
vn 0.8263429 0.4131715 -0.3826835
vn -0.8263429 -0.4131715 0.3826835
vn -0.826343 -0.4131715 -0.3826833
vn -0.3422823 -0.1711412 0.9238796
vn 0.3422825 0.1711412 0.9238794
vn -0.4472136 0.8944272 6.556511E-08
vn 0.6324555 0.3162278 -0.7071068
vn -0.6324556 -0.3162278 -0.7071067
vn 0.6324556 0.3162278 0.7071067
vn -0.6324555 -0.3162278 0.7071068
vn -0.7071068 0 -0.7071068
vn 0.7071068 0 0.7071068
vn 0.7071068 0 -0.7071068
vn -0.7071068 0 0.7071068
vn -0.3662924 0.9304998 0
vn -0.9179972 0.3965869 0
vn -1.192093E-07 0 -1
vn -0.3826835 0 0.9238799
vn -1.10135E-07 0.3826834 -0.9238799
vn -0.9238798 0 0.3826837
vn 4.561943E-08 0.9238795 0.3826836
vn -4.561943E-08 0.9238795 -0.3826836
vn 1.10135E-07 0.3826834 0.9238799
vn 8.429372E-08 -0.7071068 0.707107
vn -8.429372E-08 -0.7071068 -0.707107
vn 8.429372E-08 0.7071068 0.707107
vn -8.429372E-08 0.7071068 -0.707107
vn 1 0 -1.192093E-07
vn -0.7071071 0 -0.7071069
vn -0.7071069 0 0.7071071
vn -0.1950905 0 -0.9807856
vn -0.9807856 0 0.1950905
vn -0.9807856 0 -0.1950903
vn -0.1950903 0 0.9807856
vn 0.7071069 0 -0.7071071
vn 0.1950903 0 -0.9807856
vn 0.1950905 0 0.9807856
vn 0.7071071 0 0.7071069
vn 0.9807856 0 0.1950903
vn 0.9807856 0 -0.1950905
vn 0.9238795 0 -0.3826834
vn 0.3826834 0 -0.9238795
vn -0.9238795 0.3826834 0
vn -0.3826834 0.9238795 0
vn 0.3826834 0.9238795 0
vn 0.9238795 0.3826834 0
vn -0.3826834 0 -0.9238795
vn -0.9238795 0 -0.3826834
vn 0.7071068 -0.7071068 0
vn 0.7071068 0.7071068 0
vn -0.7071068 -0.7071068 0
vn -0.7071068 0.7071068 0
vn -0.1744942 -0.08724705 -0.9807854
vn -0.8772412 -0.4386205 -0.1950903
vn -0.6324556 -0.3162278 -0.7071068
vn -0.8944273 -0.4472136 1.06624E-07
vn -0.174494 -0.08724705 0.9807854
vn -0.8772412 -0.4386205 0.1950905
vn -0.6324555 -0.3162278 0.7071069
vn 0.8944272 -0.4472136 -3.263788E-13
vn 0.1744942 -0.08724705 -0.9807854
vn 0.8772412 -0.4386205 -0.1950903
vn 0.6324556 -0.3162278 -0.7071068
vn 0.8944273 -0.4472136 1.06624E-07
vn 0.174494 -0.08724705 0.9807854
vn 0.8772412 -0.4386205 0.1950905
vn 0.6324555 -0.3162278 0.7071069
vn -0.3375581 0.7377116 -0.5846676
vn 0.337558 0.7377116 -0.5846677
vn -0.6751161 0.7377115 8.04801E-08
vn 0.6751161 0.7377115 -8.04801E-08
vn -0.337558 0.7377116 0.5846677
vn 0.3375581 0.7377116 0.5846676
vn -0.4995362 0.04306141 0.8652223
vn 0.4995364 0.04306141 0.8652222
vn -0.4728432 -0.3250801 0.8189887
vn 0.4728433 -0.3250801 0.8189886
vn 0.9456866 -0.3250801 -1.127346E-07
vn 0.9990726 0.04306142 -1.190987E-07
vn -0.9456866 -0.3250801 1.127346E-07
vn -0.9990726 0.04306142 1.190987E-07
vn -0.4728433 -0.3250801 -0.8189886
vn -0.4995364 0.04306141 -0.8652222
vn 0.4728432 -0.3250801 -0.8189887
vn 0.4995362 0.04306141 -0.8652223
vn -0.2675959 0.8447307 -0.4634895
vn 0.2675957 0.8447307 -0.4634895
vn -0.5351916 0.8447307 6.37998E-08
vn 0.5351916 0.8447307 -6.37998E-08
vn -0.2675957 0.8447307 0.4634895
vn 0.2675959 0.8447307 0.4634895
vn -0.4990337 0.06213726 0.8643521
vn 0.4990339 0.06213726 0.864352
vn -0.4478337 -0.4447244 0.775671
vn 0.4478339 -0.4447244 0.7756709
vn 0.8956676 -0.4447243 -1.067719E-07
vn 0.9980678 0.06213727 -1.189789E-07
vn -0.8956676 -0.4447243 1.067719E-07
vn -0.9980678 0.06213727 1.189789E-07
vn -0.4478339 -0.4447244 -0.7756709
vn -0.4990339 0.06213726 -0.864352
vn 0.4478337 -0.4447244 -0.775671
vn 0.4990337 0.06213726 -0.8643521

vt 0.96875 0.3
vt 0.96875 0.475
vt 0.96875 0.292476
vt 0.96875 0.448786
vt 0.96875 0.275
vt 0.96875 0.355
vt 0.96875 0.415
vt 0.96875 0.425
vt 0.59375 0.275
vt 0.59375 0.3
vt 0.59375 0.475
vt 0.59375 0.2959712
vt 0.59375 0.3010898
vt 0.59375 0.3134472
vt 0.59375 0.292476
vt 0.59375 0.448786
vt 0.59375 0.2801186
vt 0.59375 0.375
vt 0.59375 0.425
vt 0.59375 0.3012834
vt 0.59375 0.2848563
vt 0.59375 0.4651437
vt 0.59375 0.4487166
vt 0.59375 0.4585729
vt 0.59375 0.2914271
vt 0.59375 0.3063866
vt 0.59375 0.3037474
vt 0.59375 0.4600405
vt 0.59375 0.4626797
vt 0.59375 0.2955339
vt 0.59375 0.4544661
vt 0.59375 0.4518269
vt 0.59375 0.2981731
vt 0.59375 0.325
vt 0.59375 0.3972222
vt 0.59375 0.41
vt 0.59375 0.415
vt 0.59375 0.395
vt 0.71875 0.3134472
vt 0.71875 0.475
vt 0.71875 0.292476
vt 0.71875 0.448786
vt 0.71875 0.275
vt 0.71875 0.2959712
vt 0.71875 0.2801186
vt 0.71875 0.3010898
vt 0.71875 0.2981731
vt 0.71875 0.4518269
vt 0.71875 0.2955339
vt 0.71875 0.4544661
vt 0.71875 0.41
vt 0.71875 0.3490741
vt 0.71875 0.2809259
vt 0.71875 0.355
vt 0.09375 0.645
vt 0.21875 0.225
vt 0.21875 0.1195687
vt 0.21875 0.025
vt 0.71875 0.5916666
vt 0.71875 0.5620371
vt 0.71875 0.525
vt 0.71875 0.725
vt 0.59375 0.115
vt 0.59375 0.135
vt 0.59375 0.03092593
vt 0.59375 0.09907407

usemtl colormap

f 3/2/1 2/1/1 1/1/1
f 2/1/1 3/2/1 4/2/1
f 7/2/2 6/1/2 5/1/2
f 6/1/2 7/2/2 8/2/2
f 14/2/3 13/1/3 11/2/3
f 9/1/3 11/2/3 13/1/3
f 12/2/1 11/2/1 10/1/1
f 9/1/1 10/1/1 11/2/1
f 15/3/4 16/3/4 17/4/4
f 20/4/5 19/3/5 18/3/5
f 23/4/6 22/3/6 21/3/6
f 24/3/3 25/3/3 26/4/3
f 29/5/7 28/6/7 27/5/7
f 28/6/7 29/5/7 30/6/7
f 32/5/8 28/6/8 31/6/8
f 28/6/8 32/5/8 27/5/8
f 35/5/4 34/6/4 33/5/4
f 34/6/4 35/5/4 36/6/4
f 38/5/2 34/6/2 37/6/2
f 34/6/2 38/5/2 33/5/2
f 41/5/1 40/6/1 39/6/1
f 40/6/1 41/5/1 42/5/1
f 44/5/2 43/6/2 7/6/2
f 43/6/2 44/5/2 45/5/2
f 46/5/10 51/5/10 47/6/10
f 50/6/10 47/6/10 51/5/10
f 49/6/9 48/5/9 47/6/9
f 46/5/9 47/6/9 48/5/9
f 52/5/2 57/5/2 53/6/2
f 56/6/2 53/6/2 57/5/2
f 55/6/5 54/5/5 53/6/5
f 52/5/5 53/6/5 54/5/5
f 69/1/12 59/1/12 68/7/12
f 58/2/12 68/7/12 59/1/12
f 67/8/12 68/7/12 58/2/12
f 64/2/12 67/8/12 58/2/12
f 67/8/12 64/2/12 66/8/12
f 66/8/12 64/2/12 65/7/12
f 65/7/12 64/2/12 63/1/12
f 62/1/12 63/1/12 64/2/12
f 61/1/11 60/2/11 59/1/11
f 58/2/11 59/1/11 60/2/11
f 80/1/8 79/1/8 78/7/8
f 77/2/8 78/7/8 79/1/8
f 76/8/8 78/7/8 77/2/8
f 71/2/8 76/8/8 77/2/8
f 76/8/8 71/2/8 75/8/8
f 75/8/8 71/2/8 74/7/8
f 74/7/8 71/2/8 73/1/8
f 70/1/8 73/1/8 71/2/8
f 30/2/7 72/1/7 71/2/7
f 70/1/7 71/2/7 72/1/7
f 92/1/13 91/2/13 89/1/13
f 87/2/13 89/1/13 91/2/13
f 90/1/8 89/1/8 88/7/8
f 87/2/8 88/7/8 89/1/8
f 86/8/8 88/7/8 87/2/8
f 83/2/8 86/8/8 87/2/8
f 86/8/8 83/2/8 85/8/8
f 85/8/8 83/2/8 84/7/8
f 84/7/8 83/2/8 82/1/8
f 81/1/8 82/1/8 83/2/8
f 95/9/14 94/9/14 93/9/14
f 94/9/14 95/9/14 96/9/14
f 97/10/1 93/9/1 94/9/1
f 93/9/1 97/10/1 98/10/1
f 97/10/15 2/10/15 98/10/15
f 2/10/15 97/10/15 1/10/15
f 101/9/14 100/9/14 99/9/14
f 100/9/14 101/9/14 102/9/14
f 103/10/2 99/9/2 100/9/2
f 99/9/2 103/10/2 104/10/2
f 103/10/15 6/10/15 104/10/15
f 6/10/15 103/10/15 5/10/15
f 112/10/15 110/10/15 13/10/15
f 13/10/15 110/10/15 9/10/15
f 110/10/15 107/10/15 9/10/15
f 9/10/15 107/10/15 10/10/15
f 108/10/15 10/10/15 107/10/15
f 109/9/14 111/9/14 105/9/14
f 105/9/14 111/9/14 106/9/14
f 113/9/14 106/9/14 111/9/14
f 107/10/16 110/10/17 105/9/16
f 109/9/17 105/9/16 110/10/17
f 112/10/3 111/9/3 110/10/17
f 109/9/17 110/10/17 111/9/3
f 108/10/1 107/10/16 106/9/1
f 105/9/16 106/9/1 107/10/16
f 126/15/19 124/16/19 125/17/19
f 125/17/19 124/16/19 123/9/19
f 124/16/19 17/16/19 123/9/19
f 123/9/19 17/16/19 121/9/19
f 17/16/19 122/16/19 121/9/19
f 120/15/19 121/9/19 122/16/19
f 119/14/18 118/13/18 115/11/18
f 118/13/18 117/12/18 115/11/18
f 117/12/18 116/12/18 115/11/18
f 114/11/18 115/11/18 116/12/18
f 129/12/18 128/11/18 127/11/18
f 128/11/18 129/12/18 130/12/18
f 128/11/18 130/12/18 131/13/18
f 128/11/18 131/13/18 132/14/18
f 135/16/19 134/9/19 133/15/19
f 134/9/19 135/16/19 20/16/19
f 134/9/19 20/16/19 136/9/19
f 136/9/19 20/16/19 137/16/19
f 136/9/19 137/16/19 138/17/19
f 138/17/19 137/16/19 139/15/19
f 142/12/20 141/11/20 140/11/20
f 141/11/20 142/12/20 143/12/20
f 146/16/21 145/15/21 144/16/21
f 145/15/21 146/16/21 147/15/21
f 145/15/21 147/15/21 148/9/21
f 145/15/21 148/9/21 149/9/21
f 151/12/22 150/11/22 141/11/22
f 150/11/22 151/12/22 152/12/22
f 154/16/23 153/15/23 146/16/23
f 153/15/23 154/16/23 155/15/23
f 153/15/23 155/15/23 156/9/23
f 153/15/23 156/9/23 157/9/23
f 159/12/24 115/11/24 158/11/24
f 115/11/24 159/12/24 160/12/24
f 115/11/24 160/12/24 161/13/24
f 115/11/24 161/13/24 162/14/24
f 165/16/25 164/9/25 163/15/25
f 164/9/25 165/16/25 23/16/25
f 164/9/25 23/16/25 166/9/25
f 166/9/25 23/16/25 124/16/25
f 166/9/25 124/16/25 167/17/25
f 167/17/25 124/16/25 168/15/25
f 179/15/25 177/16/25 178/17/25
f 178/17/25 177/16/25 176/9/25
f 177/16/25 26/16/25 176/9/25
f 176/9/25 26/16/25 175/9/25
f 26/16/25 135/16/25 175/9/25
f 174/15/25 175/9/25 135/16/25
f 173/14/24 172/13/24 169/11/24
f 172/13/24 171/12/24 169/11/24
f 171/12/24 170/12/24 169/11/24
f 127/11/24 169/11/24 170/12/24
f 182/19/7 181/18/27 180/18/26
f 181/18/27 182/19/7 183/19/28
f 186/18/30 185/19/13 184/18/29
f 185/19/13 186/18/30 187/19/31
f 181/18/28 189/9/32 188/9/28
f 189/9/32 181/18/28 190/18/32
f 182/19/7 192/18/34 191/19/33
f 192/18/34 182/19/7 180/18/26
f 193/19/32 186/18/30 190/18/35
f 186/18/30 193/19/32 187/19/31
f 195/19/8 192/18/34 194/18/36
f 192/18/34 195/19/8 191/19/33
f 197/19/38 194/18/36 196/18/37
f 194/18/36 197/19/38 195/19/8
f 199/11/40 182/19/7 198/11/39
f 182/19/7 199/11/40 183/19/28
f 190/18/32 200/9/31 189/9/32
f 200/9/31 190/18/32 186/18/31
f 196/18/38 202/9/8 201/9/38
f 202/9/8 196/18/38 194/18/8
f 203/9/13 196/18/38 201/9/38
f 196/18/38 203/9/13 184/18/13
f 183/19/28 190/18/35 181/18/27
f 190/18/35 183/19/28 193/19/32
f 204/11/41 195/19/8 197/19/38
f 195/19/8 204/11/41 205/11/42
f 206/11/43 182/19/7 191/19/33
f 182/19/7 206/11/43 198/11/39
f 205/11/42 191/19/33 195/19/8
f 191/19/33 205/11/42 206/11/43
f 196/18/37 185/19/13 197/19/38
f 185/19/13 196/18/37 184/18/29
f 207/11/44 187/19/31 193/19/32
f 187/19/31 207/11/44 208/11/45
f 185/19/13 204/11/41 197/19/38
f 204/11/41 185/19/13 209/11/46
f 206/11/15 199/11/15 198/11/15
f 199/11/15 206/11/15 205/11/15
f 199/11/15 205/11/15 207/11/15
f 207/11/15 205/11/15 204/11/15
f 207/11/15 204/11/15 208/11/15
f 208/11/15 204/11/15 209/11/15
f 180/18/7 210/9/33 192/18/33
f 210/9/33 180/18/7 211/9/7
f 194/18/8 210/9/33 202/9/8
f 210/9/33 194/18/8 192/18/33
f 185/19/13 208/11/45 209/11/46
f 208/11/45 185/19/13 187/19/31
f 181/18/28 211/9/7 180/18/7
f 211/9/7 181/18/28 188/9/28
f 199/11/40 193/19/32 183/19/28
f 193/19/32 199/11/40 207/11/44
f 200/9/31 184/18/13 203/9/13
f 184/18/13 200/9/31 186/18/31
f 214/19/7 213/18/27 212/18/26
f 213/18/27 214/19/7 215/19/28
f 218/18/30 217/19/13 216/18/29
f 217/19/13 218/18/30 219/19/31
f 213/18/28 221/9/32 220/9/28
f 221/9/32 213/18/28 222/18/32
f 214/19/7 224/18/34 223/19/33
f 224/18/34 214/19/7 212/18/26
f 225/19/32 218/18/30 222/18/35
f 218/18/30 225/19/32 219/19/31
f 227/19/8 224/18/34 226/18/36
f 224/18/34 227/19/8 223/19/33
f 229/19/38 226/18/36 228/18/37
f 226/18/36 229/19/38 227/19/8
f 231/11/40 214/19/7 230/11/39
f 214/19/7 231/11/40 215/19/28
f 222/18/32 232/9/31 221/9/32
f 232/9/31 222/18/32 218/18/31
f 228/18/38 234/9/8 233/9/38
f 234/9/8 228/18/38 226/18/8
f 235/9/13 228/18/38 233/9/38
f 228/18/38 235/9/13 216/18/13
f 215/19/28 222/18/35 213/18/27
f 222/18/35 215/19/28 225/19/32
f 236/11/41 227/19/8 229/19/38
f 227/19/8 236/11/41 237/11/42
f 238/11/43 214/19/7 223/19/33
f 214/19/7 238/11/43 230/11/39
f 237/11/42 223/19/33 227/19/8
f 223/19/33 237/11/42 238/11/43
f 228/18/37 217/19/13 229/19/38
f 217/19/13 228/18/37 216/18/29
f 239/11/44 219/19/31 225/19/32
f 219/19/31 239/11/44 240/11/45
f 217/19/13 236/11/41 229/19/38
f 236/11/41 217/19/13 241/11/46
f 238/11/15 231/11/15 230/11/15
f 231/11/15 238/11/15 237/11/15
f 231/11/15 237/11/15 239/11/15
f 239/11/15 237/11/15 236/11/15
f 239/11/15 236/11/15 240/11/15
f 240/11/15 236/11/15 241/11/15
f 212/18/7 242/9/33 224/18/33
f 242/9/33 212/18/7 243/9/7
f 226/18/8 242/9/33 234/9/8
f 242/9/33 226/18/8 224/18/33
f 217/19/13 240/11/45 241/11/46
f 240/11/45 217/19/13 219/19/31
f 213/18/28 243/9/7 212/18/7
f 243/9/7 213/18/28 220/9/28
f 231/11/40 225/19/32 215/19/28
f 225/19/32 231/11/40 239/11/44
f 232/9/31 216/18/13 235/9/13
f 216/18/13 232/9/31 218/18/31
f 246/22/48 245/21/47 244/20/47
f 245/21/47 246/22/48 247/23/48
f 250/24/50 249/11/49 248/24/49
f 249/11/49 250/24/50 251/11/50
f 254/25/51 253/9/52 252/9/51
f 253/9/52 254/25/51 255/25/52
f 258/21/53 257/22/54 256/20/53
f 257/22/54 258/21/53 259/23/54
f 251/11/50 247/23/48 246/22/48
f 247/23/48 251/11/50 250/24/50
f 259/23/54 249/11/49 257/22/54
f 249/11/49 259/23/54 248/24/49
f 244/20/47 253/9/52 255/25/52
f 253/9/52 244/20/47 245/21/47
f 252/9/51 256/20/53 254/25/51
f 256/20/53 252/9/51 258/21/53
f 255/25/55 246/22/55 244/20/55
f 246/22/55 255/25/55 251/11/55
f 251/11/55 255/25/55 260/26/55
f 260/26/55 255/25/55 261/27/55
f 261/27/55 255/25/55 254/25/55
f 262/28/55 251/11/55 260/26/55
f 263/29/55 251/11/55 262/28/55
f 251/11/55 263/29/55 249/11/55
f 261/27/55 254/25/55 264/27/55
f 249/11/55 263/29/55 265/29/55
f 264/27/55 266/27/55 265/29/55
f 264/27/55 254/25/55 266/27/55
f 267/29/55 265/29/55 266/27/55
f 249/11/55 265/29/55 267/29/55
f 266/27/55 254/25/55 268/27/55
f 249/11/55 267/29/55 269/29/55
f 268/27/55 254/25/55 270/26/55
f 270/26/55 254/25/55 271/28/55
f 249/11/55 269/29/55 271/28/55
f 249/11/55 271/28/55 254/25/55
f 249/11/55 254/25/55 256/20/55
f 249/11/55 256/20/55 257/22/55
f 273/30/49 264/27/56 272/30/56
f 264/27/56 273/30/49 261/27/49
f 265/29/57 272/30/56 264/27/56
f 272/30/56 265/29/57 274/31/57
f 265/29/57 275/31/51 274/31/57
f 275/31/51 265/29/57 263/29/51
f 276/32/53 263/29/51 262/28/53
f 263/29/51 276/32/53 275/31/51
f 277/33/54 262/28/53 260/26/54
f 262/28/53 277/33/54 276/32/53
f 273/30/49 260/26/54 261/27/49
f 260/26/54 273/30/49 277/33/54
f 278/30/58 267/29/59 266/27/58
f 267/29/59 278/30/58 279/31/59
f 278/30/58 268/27/50 280/30/50
f 268/27/50 278/30/58 266/27/58
f 270/26/48 280/30/50 268/27/50
f 280/30/50 270/26/48 281/33/48
f 271/28/47 281/33/48 270/26/48
f 281/33/48 271/28/47 282/32/47
f 269/29/52 282/32/47 271/28/47
f 282/32/47 269/29/52 283/31/52
f 269/29/52 279/31/59 283/31/52
f 279/31/59 269/29/52 267/29/59
f 286/34/60 285/19/8 284/19/60
f 285/19/8 286/34/60 287/34/8
f 290/34/61 289/19/7 288/34/7
f 289/19/7 290/34/61 291/19/61
f 287/34/8 292/19/62 285/19/8
f 292/19/62 287/34/8 293/34/62
f 288/34/7 292/19/62 293/34/62
f 292/19/62 288/34/7 289/19/7
f 290/34/61 294/19/32 291/19/61
f 294/19/32 290/34/61 295/34/32
f 295/34/32 296/19/63 294/19/32
f 296/19/63 295/34/32 297/34/63
f 296/19/63 299/34/13 298/19/13
f 299/34/13 296/19/63 297/34/63
f 298/19/13 286/34/60 284/19/60
f 286/34/60 298/19/13 299/34/13
f 291/19/14 292/19/14 289/19/14
f 292/19/14 291/19/14 294/19/14
f 292/19/14 294/19/14 285/19/14
f 285/19/14 294/19/14 296/19/14
f 285/19/14 296/19/14 284/19/14
f 284/19/14 296/19/14 298/19/14
f 302/34/14 301/34/14 300/34/14
f 301/34/14 302/34/14 303/34/14
f 306/19/64 305/19/15 304/19/15
f 305/19/15 306/19/64 307/19/64
f 305/19/32 302/34/32 300/34/32
f 302/34/32 305/19/32 308/35/32
f 308/35/32 305/19/32 307/19/32
f 305/19/7 301/34/7 304/19/7
f 301/34/7 305/19/7 300/34/7
f 309/35/8 301/34/8 303/34/8
f 301/34/8 309/35/8 304/19/8
f 304/19/8 309/35/8 306/19/8
f 302/34/13 309/35/65 303/34/13
f 309/35/65 302/34/13 308/35/65
f 308/35/65 306/19/64 309/35/65
f 306/19/64 308/35/65 307/19/64
f 312/34/13 311/19/38 310/34/38
f 311/19/38 312/34/13 313/19/13
f 311/19/38 314/34/8 310/34/38
f 314/34/8 311/19/38 315/19/8
f 318/19/28 317/34/7 316/19/7
f 317/34/7 318/19/28 319/34/28
f 316/19/7 321/34/33 320/19/33
f 321/34/33 316/19/7 317/34/7
f 322/34/31 313/19/13 312/34/13
f 313/19/13 322/34/31 323/19/31
f 325/19/32 322/34/31 324/34/32
f 322/34/31 325/19/32 323/19/31
f 315/19/8 321/34/33 314/34/8
f 321/34/33 315/19/8 320/19/33
f 318/19/28 324/34/32 319/34/28
f 324/34/32 318/19/28 325/19/32
f 320/19/15 318/19/15 316/19/15
f 318/19/15 320/19/15 315/19/15
f 318/19/15 315/19/15 325/19/15
f 325/19/15 315/19/15 311/19/15
f 325/19/15 311/19/15 323/19/15
f 323/19/15 311/19/15 313/19/15
f 319/34/14 321/34/14 317/34/14
f 321/34/14 319/34/14 324/34/14
f 321/34/14 324/34/14 314/34/14
f 314/34/14 324/34/14 322/34/14
f 314/34/14 322/34/14 310/34/14
f 310/34/14 322/34/14 312/34/14
f 328/34/13 327/19/38 326/34/38
f 327/19/38 328/34/13 329/19/13
f 327/19/38 330/34/8 326/34/38
f 330/34/8 327/19/38 331/19/8
f 334/19/28 333/34/7 332/19/7
f 333/34/7 334/19/28 335/34/28
f 332/19/7 337/34/33 336/19/33
f 337/34/33 332/19/7 333/34/7
f 338/34/31 329/19/13 328/34/13
f 329/19/13 338/34/31 339/19/31
f 341/19/32 338/34/31 340/34/32
f 338/34/31 341/19/32 339/19/31
f 331/19/8 337/34/33 330/34/8
f 337/34/33 331/19/8 336/19/33
f 334/19/28 340/34/32 335/34/28
f 340/34/32 334/19/28 341/19/32
f 336/19/15 334/19/15 332/19/15
f 334/19/15 336/19/15 331/19/15
f 334/19/15 331/19/15 341/19/15
f 341/19/15 331/19/15 327/19/15
f 341/19/15 327/19/15 339/19/15
f 339/19/15 327/19/15 329/19/15
f 335/34/14 337/34/14 333/34/14
f 337/34/14 335/34/14 340/34/14
f 337/34/14 340/34/14 330/34/14
f 330/34/14 340/34/14 338/34/14
f 330/34/14 338/34/14 326/34/14
f 326/34/14 338/34/14 328/34/14
f 375/34/11 376/19/11 378/34/79
f 380/19/79 378/34/79 376/19/11
f 377/34/14 373/34/14 378/34/14
f 375/34/14 378/34/14 373/34/14
f 374/19/15 379/19/15 376/19/15
f 380/19/15 376/19/15 379/19/15
f 374/19/66 373/34/66 379/19/78
f 377/34/78 379/19/78 373/34/66
f 380/19/79 379/19/78 378/34/79
f 377/34/78 378/34/79 379/19/78
f 376/19/77 375/34/77 374/19/77
f 373/34/77 374/19/77 375/34/77
f 369/11/12 371/11/12 366/9/12
f 368/9/12 366/9/12 371/11/12
f 372/11/76 371/11/76 370/11/75
f 369/11/75 370/11/75 371/11/76
f 372/11/76 367/9/74 371/11/76
f 368/9/74 371/11/76 367/9/74
f 365/9/73 370/11/75 366/9/73
f 369/11/75 366/9/73 370/11/75
f 368/9/74 367/9/74 366/9/73
f 365/9/73 366/9/73 367/9/74
f 357/9/14 364/9/14 347/9/14
f 347/9/14 364/9/14 349/9/14
f 349/9/14 364/9/14 344/9/14
f 344/9/14 363/9/14 342/9/14
f 344/9/14 364/9/14 363/9/14
f 363/9/14 364/9/14 351/9/14
f 353/9/14 351/9/14 364/9/14
f 65/37/68 356/37/68 66/19/71
f 359/19/71 66/19/71 356/37/68
f 68/37/72 67/19/70 358/37/72
f 360/19/70 358/37/72 67/19/70
f 69/10/11 68/37/72 361/10/11
f 358/37/72 361/10/11 68/37/72
f 66/19/71 359/19/71 67/19/70
f 360/19/70 67/19/70 359/19/71
f 69/10/15 361/10/15 59/10/15
f 361/10/15 362/10/15 59/10/15
f 59/10/15 362/10/15 61/10/15
f 362/10/15 350/10/15 61/10/15
f 352/10/15 61/10/15 350/10/15
f 351/9/67 350/10/67 363/9/69
f 362/10/69 363/9/69 350/10/67
f 363/9/69 362/10/69 342/9/12
f 361/10/12 342/9/12 362/10/69
f 342/9/12 361/10/12 343/36/12
f 358/37/12 343/36/12 361/10/12
f 360/19/12 359/19/12 358/37/12
f 359/19/12 356/37/12 358/37/12
f 356/37/12 343/36/12 358/37/12
f 343/36/12 356/37/12 346/36/12
f 356/37/12 354/10/12 346/36/12
f 346/36/12 354/10/12 347/9/12
f 354/10/12 355/10/12 347/9/12
f 357/9/12 347/9/12 355/10/12
f 65/37/68 63/10/66 356/37/68
f 354/10/66 356/37/68 63/10/66
f 62/10/15 355/10/15 63/10/15
f 354/10/15 63/10/15 355/10/15
f 353/9/11 352/10/11 351/9/67
f 350/10/67 351/9/67 352/10/11
f 346/36/14 348/36/14 343/36/14
f 345/36/14 343/36/14 348/36/14
f 349/9/11 348/36/11 347/9/11
f 346/36/11 347/9/11 348/36/11
f 345/36/66 344/9/66 343/36/66
f 342/9/66 343/36/66 344/9/66
f 383/11/66 382/9/80 381/11/80
f 382/9/80 383/11/66 384/9/66
f 387/11/81 386/9/82 385/9/81
f 386/9/82 387/11/81 388/11/82
f 386/9/82 390/11/78 389/9/78
f 390/11/78 386/9/82 388/11/82
f 381/11/80 389/9/78 390/11/78
f 389/9/78 381/11/80 382/9/80
f 393/9/11 392/11/83 391/9/83
f 392/11/83 393/9/11 394/11/11
f 391/9/83 396/11/79 395/9/79
f 396/11/79 391/9/83 392/11/83
f 396/11/79 385/9/81 395/9/79
f 385/9/81 396/11/79 387/11/81
f 393/9/14 382/9/14 384/9/14
f 382/9/14 393/9/14 389/9/14
f 389/9/14 393/9/14 386/9/14
f 386/9/14 393/9/14 385/9/14
f 385/9/14 393/9/14 395/9/14
f 395/9/14 393/9/14 391/9/14
f 394/11/15 396/11/15 392/11/15
f 397/11/15 396/11/15 394/11/15
f 398/11/15 396/11/15 397/11/15
f 399/11/15 396/11/15 398/11/15
f 399/11/15 387/11/15 396/11/15
f 400/11/15 387/11/15 399/11/15
f 401/11/15 387/11/15 400/11/15
f 401/11/15 388/11/15 387/11/15
f 402/11/15 388/11/15 401/11/15
f 402/11/15 390/11/15 388/11/15
f 390/11/15 402/11/15 403/11/15
f 404/11/15 390/11/15 403/11/15
f 383/11/15 390/11/15 404/11/15
f 390/11/15 383/11/15 381/11/15
f 398/11/85 405/38/84 399/11/84
f 405/38/84 398/11/85 406/38/85
f 397/11/66 406/38/85 398/11/85
f 406/38/85 397/11/66 407/38/66
f 409/38/11 403/11/86 408/38/86
f 403/11/86 409/38/11 404/11/11
f 408/38/86 402/11/87 410/38/87
f 402/11/87 408/38/86 403/11/86
f 402/11/87 411/38/88 410/38/87
f 411/38/88 402/11/87 401/11/88
f 401/11/88 412/38/89 411/38/88
f 412/38/89 401/11/88 400/11/89
f 400/11/89 405/38/84 412/38/89
f 405/38/84 400/11/89 399/11/84
f 440/19/38 437/19/33 443/34/38
f 436/34/33 443/34/38 437/19/33
f 442/34/13 441/19/13 443/34/38
f 440/19/38 443/34/38 441/19/13
f 436/34/14 438/34/14 443/34/14
f 442/34/14 443/34/14 438/34/14
f 439/19/15 437/19/15 441/19/15
f 440/19/15 441/19/15 437/19/15
f 439/19/7 438/34/7 437/19/33
f 436/34/33 437/19/33 438/34/7
f 74/37/95 73/10/7 435/37/95
f 426/10/7 435/37/95 73/10/7
f 422/9/8 430/10/8 413/9/8
f 431/10/8 413/9/8 430/10/8
f 413/9/8 431/10/8 414/36/8
f 432/37/8 414/36/8 431/10/8
f 433/19/8 434/19/8 432/37/8
f 434/19/8 435/37/8 432/37/8
f 435/37/8 414/36/8 432/37/8
f 414/36/8 435/37/8 417/36/8
f 435/37/8 426/10/8 417/36/8
f 417/36/8 426/10/8 418/9/8
f 426/10/8 427/10/91 418/9/8
f 424/9/91 418/9/8 427/10/91
f 417/36/14 419/36/14 414/36/14
f 416/36/14 414/36/14 419/36/14
f 75/19/94 74/37/95 434/19/94
f 435/37/95 434/19/94 74/37/95
f 78/37/92 76/19/93 432/37/92
f 433/19/93 432/37/92 76/19/93
f 75/19/94 434/19/94 76/19/93
f 433/19/93 76/19/93 434/19/94
f 80/10/13 78/37/92 431/10/13
f 432/37/92 431/10/13 78/37/92
f 429/10/90 425/9/90 427/10/91
f 424/9/91 427/10/91 425/9/90
f 428/10/7 423/9/7 429/10/90
f 425/9/90 429/10/90 423/9/7
f 80/10/15 431/10/15 79/10/15
f 430/10/15 79/10/15 431/10/15
f 429/10/15 427/10/15 428/10/15
f 428/10/15 427/10/15 72/10/15
f 72/10/15 427/10/15 70/10/15
f 70/10/15 427/10/15 73/10/15
f 426/10/15 73/10/15 427/10/15
f 425/9/14 423/9/14 424/9/14
f 424/9/14 423/9/14 418/9/14
f 418/9/14 423/9/14 420/9/14
f 420/9/14 423/9/14 415/9/14
f 415/9/14 422/9/14 413/9/14
f 415/9/14 423/9/14 422/9/14
f 421/9/14 422/9/14 423/9/14
f 420/9/13 419/36/13 418/9/13
f 417/36/13 418/9/13 419/36/13
f 416/36/7 415/9/7 414/36/7
f 413/9/7 414/36/7 415/9/7
f 479/11/8 481/11/8 476/9/8
f 478/9/8 476/9/8 481/11/8
f 482/11/15 481/11/15 480/11/101
f 479/11/101 480/11/101 481/11/15
f 475/9/100 480/11/101 476/9/100
f 479/11/101 476/9/100 480/11/101
f 478/9/14 477/9/14 476/9/100
f 475/9/100 476/9/100 477/9/14
f 473/11/8 468/11/8 472/9/8
f 467/9/8 472/9/8 468/11/8
f 470/11/99 468/11/99 474/11/15
f 473/11/15 474/11/15 468/11/99
f 467/9/98 469/9/98 472/9/14
f 471/9/14 472/9/14 469/9/98
f 470/11/99 469/9/98 468/11/99
f 467/9/98 468/11/99 469/9/98
f 459/9/14 466/9/14 449/9/14
f 449/9/14 466/9/14 451/9/14
f 451/9/14 466/9/14 446/9/14
f 446/9/14 461/9/14 444/9/14
f 446/9/14 466/9/14 461/9/14
f 461/9/14 466/9/14 463/9/14
f 465/9/14 463/9/14 466/9/14
f 462/10/15 464/10/15 460/10/15
f 92/10/15 460/10/15 464/10/15
f 89/10/15 460/10/15 92/10/15
f 460/10/15 89/10/15 455/10/15
f 90/10/15 455/10/15 89/10/15
f 463/9/97 462/10/97 461/9/96
f 460/10/96 461/9/96 462/10/97
f 465/9/13 464/10/13 463/9/97
f 462/10/97 463/9/97 464/10/13
f 81/10/15 458/10/15 82/10/15
f 452/10/15 82/10/15 458/10/15
f 461/9/96 460/10/96 444/9/8
f 455/10/8 444/9/8 460/10/96
f 444/9/8 455/10/8 445/36/8
f 454/37/8 445/36/8 455/10/8
f 456/19/8 457/19/8 454/37/8
f 457/19/8 453/37/8 454/37/8
f 453/37/8 445/36/8 454/37/8
f 445/36/8 453/37/8 448/36/8
f 453/37/8 452/10/8 448/36/8
f 448/36/8 452/10/8 449/9/8
f 459/9/8 449/9/8 452/10/8
f 458/10/8 459/9/8 452/10/8
f 88/37/92 86/19/93 454/37/92
f 456/19/93 454/37/92 86/19/93
f 85/19/94 84/37/95 457/19/94
f 453/37/95 457/19/94 84/37/95
f 85/19/94 457/19/94 86/19/93
f 456/19/93 86/19/93 457/19/94
f 90/10/13 88/37/92 455/10/13
f 454/37/92 455/10/13 88/37/92
f 84/37/95 82/10/7 453/37/95
f 452/10/7 453/37/95 82/10/7
f 448/36/14 450/36/14 445/36/14
f 447/36/14 445/36/14 450/36/14
f 451/9/13 450/36/13 449/9/13
f 448/36/13 449/9/13 450/36/13
f 447/36/7 446/9/7 445/36/7
f 444/9/7 445/36/7 446/9/7
f 117/44/103 123/43/103 116/44/105
f 121/43/105 116/44/105 123/43/103
f 126/41/102 125/45/104 119/39/102
f 118/46/104 119/39/102 125/45/104
f 118/46/104 125/45/104 117/44/103
f 123/43/103 117/44/103 125/45/104
f 124/42/4 126/41/102 115/40/4
f 119/39/102 115/40/4 126/41/102
f 139/41/106 128/40/5 132/39/106
f 128/40/5 139/41/106 137/42/5
f 138/45/108 130/44/107 136/43/107
f 130/44/107 138/45/108 131/46/108
f 138/45/108 132/39/106 131/46/108
f 132/39/106 138/45/108 139/41/106
f 136/43/107 129/44/105 134/43/105
f 129/44/105 136/43/107 130/44/107
f 149/43/29 143/44/29 142/44/29
f 143/44/29 149/43/29 148/43/29
f 157/43/109 152/44/109 151/44/109
f 152/44/109 157/43/109 156/43/109
f 168/41/110 115/40/6 162/39/110
f 115/40/6 168/41/110 124/42/6
f 167/45/112 160/44/111 166/43/111
f 160/44/111 167/45/112 161/46/112
f 167/45/112 162/39/110 161/46/112
f 162/39/110 167/45/112 168/41/110
f 166/43/111 159/44/113 164/43/113
f 159/44/113 166/43/111 160/44/111
f 171/44/115 176/43/115 170/44/113
f 175/43/113 170/44/113 176/43/115
f 179/41/114 178/45/116 173/39/114
f 172/46/116 173/39/114 178/45/116
f 172/46/116 178/45/116 171/44/115
f 176/43/115 171/44/115 178/45/116
f 177/42/3 179/41/114 169/40/3
f 173/39/114 169/40/3 179/41/114
f 273/49/55 276/48/55 277/47/55
f 276/48/55 273/49/55 275/50/55
f 275/50/55 273/49/55 272/49/55
f 275/50/55 272/49/55 274/50/55
f 280/49/55 279/50/55 278/49/55
f 279/50/55 280/49/55 283/50/55
f 283/50/55 280/49/55 281/47/55
f 283/50/55 281/47/55 282/48/55
f 345/51/12 348/51/12 344/43/12
f 349/43/12 344/43/12 348/51/12
f 491/52/8 499/54/8 493/52/8
f 493/52/8 499/54/8 496/52/8
f 493/52/8 496/52/8 489/53/8
f 499/54/8 491/52/8 502/54/8
f 491/52/8 487/53/8 502/54/8
f 496/52/8 495/53/8 489/53/8
f 487/53/8 489/53/8 495/53/8
f 501/43/8 502/54/8 487/53/8
f 487/53/8 495/53/8 501/43/8
f 495/53/8 484/53/8 501/43/8
f 501/43/8 484/53/8 500/43/8
f 499/54/8 500/43/8 484/53/8
f 496/52/8 499/54/8 483/52/8
f 483/52/8 499/54/8 484/53/8
f 493/52/100 494/52/100 491/52/98
f 492/52/98 491/52/98 494/52/100
f 483/52/100 485/52/100 496/52/98
f 498/52/98 496/52/98 485/52/100
f 486/53/101 484/53/101 497/53/99
f 495/53/99 497/53/99 484/53/101
f 498/52/98 497/53/99 496/52/98
f 495/53/99 496/52/98 497/53/99
f 490/53/101 494/52/100 489/53/101
f 493/52/100 489/53/101 494/52/100
f 492/52/98 488/53/7 491/52/98
f 487/53/7 491/52/98 488/53/7
f 490/53/101 489/53/101 488/53/15
f 487/53/15 488/53/15 489/53/101
f 486/53/101 485/52/100 484/53/101
f 483/52/100 484/53/101 485/52/100
f 410/55/15 409/55/15 408/55/15
f 409/55/15 410/55/15 407/55/15
f 407/55/15 410/55/15 411/55/15
f 407/55/15 411/55/15 412/55/15
f 407/55/15 412/55/15 405/55/15
f 407/55/15 405/55/15 406/55/15
f 505/56/119 504/56/118 503/56/117
f 504/56/118 505/56/119 506/56/120
f 506/56/120 505/56/119 507/56/121
f 506/56/120 507/56/121 508/56/122
f 511/58/125 510/57/124 509/57/123
f 510/57/124 511/58/125 512/58/126
f 514/57/128 512/58/126 513/58/127
f 512/58/126 514/57/128 510/57/124
f 509/57/123 515/58/129 511/58/125
f 515/58/129 509/57/123 516/57/130
f 516/57/130 517/58/131 515/58/129
f 517/58/131 516/57/130 518/57/132
f 520/57/134 513/58/127 519/58/133
f 513/58/127 520/57/134 514/57/128
f 520/57/134 517/58/131 518/57/132
f 517/58/131 520/57/134 519/58/133
f 510/57/124 507/56/121 509/57/123
f 507/56/121 510/57/124 508/56/122
f 504/56/118 514/57/128 520/57/134
f 514/57/128 504/56/118 506/56/120
f 503/56/117 520/57/134 518/57/132
f 520/57/134 503/56/117 504/56/118
f 506/56/120 510/57/124 514/57/128
f 510/57/124 506/56/120 508/56/122
f 505/56/119 518/57/132 516/57/130
f 518/57/132 505/56/119 503/56/117
f 507/56/121 516/57/130 509/57/123
f 516/57/130 507/56/121 505/56/119
f 523/56/137 522/56/136 521/56/135
f 522/56/136 523/56/137 524/56/138
f 524/56/138 523/56/137 525/56/139
f 524/56/138 525/56/139 526/56/140
f 529/58/143 528/57/142 527/57/141
f 528/57/142 529/58/143 530/58/144
f 532/57/146 530/58/144 531/58/145
f 530/58/144 532/57/146 528/57/142
f 527/57/141 533/58/147 529/58/143
f 533/58/147 527/57/141 534/57/148
f 534/57/148 535/58/149 533/58/147
f 535/58/149 534/57/148 536/57/150
f 538/57/152 531/58/145 537/58/151
f 531/58/145 538/57/152 532/57/146
f 538/57/152 535/58/149 536/57/150
f 535/58/149 538/57/152 537/58/151
f 528/57/142 525/56/139 527/57/141
f 525/56/139 528/57/142 526/56/140
f 522/56/136 532/57/146 538/57/152
f 532/57/146 522/56/136 524/56/138
f 521/56/135 538/57/152 536/57/150
f 538/57/152 521/56/135 522/56/136
f 524/56/138 528/57/142 532/57/146
f 528/57/142 524/56/138 526/56/140
f 523/56/137 536/57/150 534/57/148
f 536/57/150 523/56/137 521/56/135
f 525/56/139 534/57/148 527/57/141
f 534/57/148 525/56/139 523/56/137
f 549/61/8 550/62/8 541/59/8
f 548/62/8 541/59/8 550/62/8
f 543/60/8 549/61/8 541/59/8
f 539/59/8 541/59/8 548/62/8
f 549/61/8 543/60/8 547/61/8
f 548/62/8 547/61/8 539/59/8
f 543/60/8 546/60/8 547/61/8
f 546/60/8 539/59/8 547/61/8
f 545/60/98 540/59/99 546/60/98
f 539/59/99 546/60/98 540/59/99
f 543/60/100 544/60/100 546/60/98
f 545/60/98 546/60/98 544/60/100
f 542/59/101 544/60/100 541/59/101
f 543/60/100 541/59/101 544/60/100
f 542/59/101 541/59/101 540/59/99
f 539/59/99 540/59/99 541/59/101

usemtl colormap-specular

f 552/64/8 551/63/8 545/64/8
f 540/63/8 545/64/8 551/63/8
f 494/66/8 490/65/8 492/66/8
f 488/65/8 492/66/8 490/65/8
f 485/66/8 486/65/8 498/66/8
f 497/65/8 498/66/8 486/65/8

g building-i




usemtl colormap

f 3/2/1 2/1/1 1/1/1
f 2/1/1 3/2/1 4/2/1
f 7/2/2 6/1/2 5/1/2
f 6/1/2 7/2/2 8/2/2
f 14/2/3 13/1/3 11/2/3
f 9/1/3 11/2/3 13/1/3
f 12/2/1 11/2/1 10/1/1
f 9/1/1 10/1/1 11/2/1
f 15/3/4 16/3/4 17/4/4
f 20/4/5 19/3/5 18/3/5
f 23/4/6 22/3/6 21/3/6
f 24/3/3 25/3/3 26/4/3
f 29/5/7 28/6/7 27/5/7
f 28/6/7 29/5/7 30/6/7
f 32/5/8 28/6/8 31/6/8
f 28/6/8 32/5/8 27/5/8
f 35/5/4 34/6/4 33/5/4
f 34/6/4 35/5/4 36/6/4
f 38/5/2 34/6/2 37/6/2
f 34/6/2 38/5/2 33/5/2
f 41/5/1 40/6/1 39/6/1
f 40/6/1 41/5/1 42/5/1
f 44/5/2 43/6/2 7/6/2
f 43/6/2 44/5/2 45/5/2
f 46/5/10 51/5/10 47/6/10
f 50/6/10 47/6/10 51/5/10
f 49/6/9 48/5/9 47/6/9
f 46/5/9 47/6/9 48/5/9
f 52/5/2 57/5/2 53/6/2
f 56/6/2 53/6/2 57/5/2
f 55/6/5 54/5/5 53/6/5
f 52/5/5 53/6/5 54/5/5
f 69/1/12 59/1/12 68/7/12
f 58/2/12 68/7/12 59/1/12
f 67/8/12 68/7/12 58/2/12
f 64/2/12 67/8/12 58/2/12
f 67/8/12 64/2/12 66/8/12
f 66/8/12 64/2/12 65/7/12
f 65/7/12 64/2/12 63/1/12
f 62/1/12 63/1/12 64/2/12
f 61/1/11 60/2/11 59/1/11
f 58/2/11 59/1/11 60/2/11
f 80/1/8 79/1/8 78/7/8
f 77/2/8 78/7/8 79/1/8
f 76/8/8 78/7/8 77/2/8
f 71/2/8 76/8/8 77/2/8
f 76/8/8 71/2/8 75/8/8
f 75/8/8 71/2/8 74/7/8
f 74/7/8 71/2/8 73/1/8
f 70/1/8 73/1/8 71/2/8
f 30/2/7 72/1/7 71/2/7
f 70/1/7 71/2/7 72/1/7
f 92/1/13 91/2/13 89/1/13
f 87/2/13 89/1/13 91/2/13
f 90/1/8 89/1/8 88/7/8
f 87/2/8 88/7/8 89/1/8
f 86/8/8 88/7/8 87/2/8
f 83/2/8 86/8/8 87/2/8
f 86/8/8 83/2/8 85/8/8
f 85/8/8 83/2/8 84/7/8
f 84/7/8 83/2/8 82/1/8
f 81/1/8 82/1/8 83/2/8
f 95/9/14 94/9/14 93/9/14
f 94/9/14 95/9/14 96/9/14
f 97/10/1 93/9/1 94/9/1
f 93/9/1 97/10/1 98/10/1
f 97/10/15 2/10/15 98/10/15
f 2/10/15 97/10/15 1/10/15
f 101/9/14 100/9/14 99/9/14
f 100/9/14 101/9/14 102/9/14
f 103/10/2 99/9/2 100/9/2
f 99/9/2 103/10/2 104/10/2
f 103/10/15 6/10/15 104/10/15
f 6/10/15 103/10/15 5/10/15
f 112/10/15 110/10/15 13/10/15
f 13/10/15 110/10/15 9/10/15
f 110/10/15 107/10/15 9/10/15
f 9/10/15 107/10/15 10/10/15
f 108/10/15 10/10/15 107/10/15
f 109/9/14 111/9/14 105/9/14
f 105/9/14 111/9/14 106/9/14
f 113/9/14 106/9/14 111/9/14
f 107/10/16 110/10/17 105/9/16
f 109/9/17 105/9/16 110/10/17
f 112/10/3 111/9/3 110/10/17
f 109/9/17 110/10/17 111/9/3
f 108/10/1 107/10/16 106/9/1
f 105/9/16 106/9/1 107/10/16
f 126/15/19 124/16/19 125/17/19
f 125/17/19 124/16/19 123/9/19
f 124/16/19 17/16/19 123/9/19
f 123/9/19 17/16/19 121/9/19
f 17/16/19 122/16/19 121/9/19
f 120/15/19 121/9/19 122/16/19
f 119/14/18 118/13/18 115/11/18
f 118/13/18 117/12/18 115/11/18
f 117/12/18 116/12/18 115/11/18
f 114/11/18 115/11/18 116/12/18
f 129/12/18 128/11/18 127/11/18
f 128/11/18 129/12/18 130/12/18
f 128/11/18 130/12/18 131/13/18
f 128/11/18 131/13/18 132/14/18
f 135/16/19 134/9/19 133/15/19
f 134/9/19 135/16/19 20/16/19
f 134/9/19 20/16/19 136/9/19
f 136/9/19 20/16/19 137/16/19
f 136/9/19 137/16/19 138/17/19
f 138/17/19 137/16/19 139/15/19
f 142/12/20 141/11/20 140/11/20
f 141/11/20 142/12/20 143/12/20
f 146/16/21 145/15/21 144/16/21
f 145/15/21 146/16/21 147/15/21
f 145/15/21 147/15/21 148/9/21
f 145/15/21 148/9/21 149/9/21
f 151/12/22 150/11/22 141/11/22
f 150/11/22 151/12/22 152/12/22
f 154/16/23 153/15/23 146/16/23
f 153/15/23 154/16/23 155/15/23
f 153/15/23 155/15/23 156/9/23
f 153/15/23 156/9/23 157/9/23
f 159/12/24 115/11/24 158/11/24
f 115/11/24 159/12/24 160/12/24
f 115/11/24 160/12/24 161/13/24
f 115/11/24 161/13/24 162/14/24
f 165/16/25 164/9/25 163/15/25
f 164/9/25 165/16/25 23/16/25
f 164/9/25 23/16/25 166/9/25
f 166/9/25 23/16/25 124/16/25
f 166/9/25 124/16/25 167/17/25
f 167/17/25 124/16/25 168/15/25
f 179/15/25 177/16/25 178/17/25
f 178/17/25 177/16/25 176/9/25
f 177/16/25 26/16/25 176/9/25
f 176/9/25 26/16/25 175/9/25
f 26/16/25 135/16/25 175/9/25
f 174/15/25 175/9/25 135/16/25
f 173/14/24 172/13/24 169/11/24
f 172/13/24 171/12/24 169/11/24
f 171/12/24 170/12/24 169/11/24
f 127/11/24 169/11/24 170/12/24
f 182/19/7 181/18/27 180/18/26
f 181/18/27 182/19/7 183/19/28
f 186/18/30 185/19/13 184/18/29
f 185/19/13 186/18/30 187/19/31
f 181/18/28 189/9/32 188/9/28
f 189/9/32 181/18/28 190/18/32
f 182/19/7 192/18/34 191/19/33
f 192/18/34 182/19/7 180/18/26
f 193/19/32 186/18/30 190/18/35
f 186/18/30 193/19/32 187/19/31
f 195/19/8 192/18/34 194/18/36
f 192/18/34 195/19/8 191/19/33
f 197/19/38 194/18/36 196/18/37
f 194/18/36 197/19/38 195/19/8
f 199/11/40 182/19/7 198/11/39
f 182/19/7 199/11/40 183/19/28
f 190/18/32 200/9/31 189/9/32
f 200/9/31 190/18/32 186/18/31
f 196/18/38 202/9/8 201/9/38
f 202/9/8 196/18/38 194/18/8
f 203/9/13 196/18/38 201/9/38
f 196/18/38 203/9/13 184/18/13
f 183/19/28 190/18/35 181/18/27
f 190/18/35 183/19/28 193/19/32
f 204/11/41 195/19/8 197/19/38
f 195/19/8 204/11/41 205/11/42
f 206/11/43 182/19/7 191/19/33
f 182/19/7 206/11/43 198/11/39
f 205/11/42 191/19/33 195/19/8
f 191/19/33 205/11/42 206/11/43
f 196/18/37 185/19/13 197/19/38
f 185/19/13 196/18/37 184/18/29
f 207/11/44 187/19/31 193/19/32
f 187/19/31 207/11/44 208/11/45
f 185/19/13 204/11/41 197/19/38
f 204/11/41 185/19/13 209/11/46
f 206/11/15 199/11/15 198/11/15
f 199/11/15 206/11/15 205/11/15
f 199/11/15 205/11/15 207/11/15
f 207/11/15 205/11/15 204/11/15
f 207/11/15 204/11/15 208/11/15
f 208/11/15 204/11/15 209/11/15
f 180/18/7 210/9/33 192/18/33
f 210/9/33 180/18/7 211/9/7
f 194/18/8 210/9/33 202/9/8
f 210/9/33 194/18/8 192/18/33
f 185/19/13 208/11/45 209/11/46
f 208/11/45 185/19/13 187/19/31
f 181/18/28 211/9/7 180/18/7
f 211/9/7 181/18/28 188/9/28
f 199/11/40 193/19/32 183/19/28
f 193/19/32 199/11/40 207/11/44
f 200/9/31 184/18/13 203/9/13
f 184/18/13 200/9/31 186/18/31
f 214/19/7 213/18/27 212/18/26
f 213/18/27 214/19/7 215/19/28
f 218/18/30 217/19/13 216/18/29
f 217/19/13 218/18/30 219/19/31
f 213/18/28 221/9/32 220/9/28
f 221/9/32 213/18/28 222/18/32
f 214/19/7 224/18/34 223/19/33
f 224/18/34 214/19/7 212/18/26
f 225/19/32 218/18/30 222/18/35
f 218/18/30 225/19/32 219/19/31
f 227/19/8 224/18/34 226/18/36
f 224/18/34 227/19/8 223/19/33
f 229/19/38 226/18/36 228/18/37
f 226/18/36 229/19/38 227/19/8
f 231/11/40 214/19/7 230/11/39
f 214/19/7 231/11/40 215/19/28
f 222/18/32 232/9/31 221/9/32
f 232/9/31 222/18/32 218/18/31
f 228/18/38 234/9/8 233/9/38
f 234/9/8 228/18/38 226/18/8
f 235/9/13 228/18/38 233/9/38
f 228/18/38 235/9/13 216/18/13
f 215/19/28 222/18/35 213/18/27
f 222/18/35 215/19/28 225/19/32
f 236/11/41 227/19/8 229/19/38
f 227/19/8 236/11/41 237/11/42
f 238/11/43 214/19/7 223/19/33
f 214/19/7 238/11/43 230/11/39
f 237/11/42 223/19/33 227/19/8
f 223/19/33 237/11/42 238/11/43
f 228/18/37 217/19/13 229/19/38
f 217/19/13 228/18/37 216/18/29
f 239/11/44 219/19/31 225/19/32
f 219/19/31 239/11/44 240/11/45
f 217/19/13 236/11/41 229/19/38
f 236/11/41 217/19/13 241/11/46
f 238/11/15 231/11/15 230/11/15
f 231/11/15 238/11/15 237/11/15
f 231/11/15 237/11/15 239/11/15
f 239/11/15 237/11/15 236/11/15
f 239/11/15 236/11/15 240/11/15
f 240/11/15 236/11/15 241/11/15
f 212/18/7 242/9/33 224/18/33
f 242/9/33 212/18/7 243/9/7
f 226/18/8 242/9/33 234/9/8
f 242/9/33 226/18/8 224/18/33
f 217/19/13 240/11/45 241/11/46
f 240/11/45 217/19/13 219/19/31
f 213/18/28 243/9/7 212/18/7
f 243/9/7 213/18/28 220/9/28
f 231/11/40 225/19/32 215/19/28
f 225/19/32 231/11/40 239/11/44
f 232/9/31 216/18/13 235/9/13
f 216/18/13 232/9/31 218/18/31
f 246/22/48 245/21/47 244/20/47
f 245/21/47 246/22/48 247/23/48
f 250/24/50 249/11/49 248/24/49
f 249/11/49 250/24/50 251/11/50
f 254/25/51 253/9/52 252/9/51
f 253/9/52 254/25/51 255/25/52
f 258/21/53 257/22/54 256/20/53
f 257/22/54 258/21/53 259/23/54
f 251/11/50 247/23/48 246/22/48
f 247/23/48 251/11/50 250/24/50
f 259/23/54 249/11/49 257/22/54
f 249/11/49 259/23/54 248/24/49
f 244/20/47 253/9/52 255/25/52
f 253/9/52 244/20/47 245/21/47
f 252/9/51 256/20/53 254/25/51
f 256/20/53 252/9/51 258/21/53
f 255/25/55 246/22/55 244/20/55
f 246/22/55 255/25/55 251/11/55
f 251/11/55 255/25/55 260/26/55
f 260/26/55 255/25/55 261/27/55
f 261/27/55 255/25/55 254/25/55
f 262/28/55 251/11/55 260/26/55
f 263/29/55 251/11/55 262/28/55
f 251/11/55 263/29/55 249/11/55
f 261/27/55 254/25/55 264/27/55
f 249/11/55 263/29/55 265/29/55
f 264/27/55 266/27/55 265/29/55
f 264/27/55 254/25/55 266/27/55
f 267/29/55 265/29/55 266/27/55
f 249/11/55 265/29/55 267/29/55
f 266/27/55 254/25/55 268/27/55
f 249/11/55 267/29/55 269/29/55
f 268/27/55 254/25/55 270/26/55
f 270/26/55 254/25/55 271/28/55
f 249/11/55 269/29/55 271/28/55
f 249/11/55 271/28/55 254/25/55
f 249/11/55 254/25/55 256/20/55
f 249/11/55 256/20/55 257/22/55
f 273/30/49 264/27/56 272/30/56
f 264/27/56 273/30/49 261/27/49
f 265/29/57 272/30/56 264/27/56
f 272/30/56 265/29/57 274/31/57
f 265/29/57 275/31/51 274/31/57
f 275/31/51 265/29/57 263/29/51
f 276/32/53 263/29/51 262/28/53
f 263/29/51 276/32/53 275/31/51
f 277/33/54 262/28/53 260/26/54
f 262/28/53 277/33/54 276/32/53
f 273/30/49 260/26/54 261/27/49
f 260/26/54 273/30/49 277/33/54
f 278/30/58 267/29/59 266/27/58
f 267/29/59 278/30/58 279/31/59
f 278/30/58 268/27/50 280/30/50
f 268/27/50 278/30/58 266/27/58
f 270/26/48 280/30/50 268/27/50
f 280/30/50 270/26/48 281/33/48
f 271/28/47 281/33/48 270/26/48
f 281/33/48 271/28/47 282/32/47
f 269/29/52 282/32/47 271/28/47
f 282/32/47 269/29/52 283/31/52
f 269/29/52 279/31/59 283/31/52
f 279/31/59 269/29/52 267/29/59
f 286/34/60 285/19/8 284/19/60
f 285/19/8 286/34/60 287/34/8
f 290/34/61 289/19/7 288/34/7
f 289/19/7 290/34/61 291/19/61
f 287/34/8 292/19/62 285/19/8
f 292/19/62 287/34/8 293/34/62
f 288/34/7 292/19/62 293/34/62
f 292/19/62 288/34/7 289/19/7
f 290/34/61 294/19/32 291/19/61
f 294/19/32 290/34/61 295/34/32
f 295/34/32 296/19/63 294/19/32
f 296/19/63 295/34/32 297/34/63
f 296/19/63 299/34/13 298/19/13
f 299/34/13 296/19/63 297/34/63
f 298/19/13 286/34/60 284/19/60
f 286/34/60 298/19/13 299/34/13
f 291/19/14 292/19/14 289/19/14
f 292/19/14 291/19/14 294/19/14
f 292/19/14 294/19/14 285/19/14
f 285/19/14 294/19/14 296/19/14
f 285/19/14 296/19/14 284/19/14
f 284/19/14 296/19/14 298/19/14
f 302/34/14 301/34/14 300/34/14
f 301/34/14 302/34/14 303/34/14
f 306/19/64 305/19/15 304/19/15
f 305/19/15 306/19/64 307/19/64
f 305/19/32 302/34/32 300/34/32
f 302/34/32 305/19/32 308/35/32
f 308/35/32 305/19/32 307/19/32
f 305/19/7 301/34/7 304/19/7
f 301/34/7 305/19/7 300/34/7
f 309/35/8 301/34/8 303/34/8
f 301/34/8 309/35/8 304/19/8
f 304/19/8 309/35/8 306/19/8
f 302/34/13 309/35/65 303/34/13
f 309/35/65 302/34/13 308/35/65
f 308/35/65 306/19/64 309/35/65
f 306/19/64 308/35/65 307/19/64
f 312/34/13 311/19/38 310/34/38
f 311/19/38 312/34/13 313/19/13
f 311/19/38 314/34/8 310/34/38
f 314/34/8 311/19/38 315/19/8
f 318/19/28 317/34/7 316/19/7
f 317/34/7 318/19/28 319/34/28
f 316/19/7 321/34/33 320/19/33
f 321/34/33 316/19/7 317/34/7
f 322/34/31 313/19/13 312/34/13
f 313/19/13 322/34/31 323/19/31
f 325/19/32 322/34/31 324/34/32
f 322/34/31 325/19/32 323/19/31
f 315/19/8 321/34/33 314/34/8
f 321/34/33 315/19/8 320/19/33
f 318/19/28 324/34/32 319/34/28
f 324/34/32 318/19/28 325/19/32
f 320/19/15 318/19/15 316/19/15
f 318/19/15 320/19/15 315/19/15
f 318/19/15 315/19/15 325/19/15
f 325/19/15 315/19/15 311/19/15
f 325/19/15 311/19/15 323/19/15
f 323/19/15 311/19/15 313/19/15
f 319/34/14 321/34/14 317/34/14
f 321/34/14 319/34/14 324/34/14
f 321/34/14 324/34/14 314/34/14
f 314/34/14 324/34/14 322/34/14
f 314/34/14 322/34/14 310/34/14
f 310/34/14 322/34/14 312/34/14
f 328/34/13 327/19/38 326/34/38
f 327/19/38 328/34/13 329/19/13
f 327/19/38 330/34/8 326/34/38
f 330/34/8 327/19/38 331/19/8
f 334/19/28 333/34/7 332/19/7
f 333/34/7 334/19/28 335/34/28
f 332/19/7 337/34/33 336/19/33
f 337/34/33 332/19/7 333/34/7
f 338/34/31 329/19/13 328/34/13
f 329/19/13 338/34/31 339/19/31
f 341/19/32 338/34/31 340/34/32
f 338/34/31 341/19/32 339/19/31
f 331/19/8 337/34/33 330/34/8
f 337/34/33 331/19/8 336/19/33
f 334/19/28 340/34/32 335/34/28
f 340/34/32 334/19/28 341/19/32
f 336/19/15 334/19/15 332/19/15
f 334/19/15 336/19/15 331/19/15
f 334/19/15 331/19/15 341/19/15
f 341/19/15 331/19/15 327/19/15
f 341/19/15 327/19/15 339/19/15
f 339/19/15 327/19/15 329/19/15
f 335/34/14 337/34/14 333/34/14
f 337/34/14 335/34/14 340/34/14
f 337/34/14 340/34/14 330/34/14
f 330/34/14 340/34/14 338/34/14
f 330/34/14 338/34/14 326/34/14
f 326/34/14 338/34/14 328/34/14
f 375/34/11 376/19/11 378/34/79
f 380/19/79 378/34/79 376/19/11
f 377/34/14 373/34/14 378/34/14
f 375/34/14 378/34/14 373/34/14
f 374/19/15 379/19/15 376/19/15
f 380/19/15 376/19/15 379/19/15
f 374/19/66 373/34/66 379/19/78
f 377/34/78 379/19/78 373/34/66
f 380/19/79 379/19/78 378/34/79
f 377/34/78 378/34/79 379/19/78
f 376/19/77 375/34/77 374/19/77
f 373/34/77 374/19/77 375/34/77
f 369/11/12 371/11/12 366/9/12
f 368/9/12 366/9/12 371/11/12
f 372/11/76 371/11/76 370/11/75
f 369/11/75 370/11/75 371/11/76
f 372/11/76 367/9/74 371/11/76
f 368/9/74 371/11/76 367/9/74
f 365/9/73 370/11/75 366/9/73
f 369/11/75 366/9/73 370/11/75
f 368/9/74 367/9/74 366/9/73
f 365/9/73 366/9/73 367/9/74
f 357/9/14 364/9/14 347/9/14
f 347/9/14 364/9/14 349/9/14
f 349/9/14 364/9/14 344/9/14
f 344/9/14 363/9/14 342/9/14
f 344/9/14 364/9/14 363/9/14
f 363/9/14 364/9/14 351/9/14
f 353/9/14 351/9/14 364/9/14
f 65/37/68 356/37/68 66/19/71
f 359/19/71 66/19/71 356/37/68
f 68/37/72 67/19/70 358/37/72
f 360/19/70 358/37/72 67/19/70
f 69/10/11 68/37/72 361/10/11
f 358/37/72 361/10/11 68/37/72
f 66/19/71 359/19/71 67/19/70
f 360/19/70 67/19/70 359/19/71
f 69/10/15 361/10/15 59/10/15
f 361/10/15 362/10/15 59/10/15
f 59/10/15 362/10/15 61/10/15
f 362/10/15 350/10/15 61/10/15
f 352/10/15 61/10/15 350/10/15
f 351/9/67 350/10/67 363/9/69
f 362/10/69 363/9/69 350/10/67
f 363/9/69 362/10/69 342/9/12
f 361/10/12 342/9/12 362/10/69
f 342/9/12 361/10/12 343/36/12
f 358/37/12 343/36/12 361/10/12
f 360/19/12 359/19/12 358/37/12
f 359/19/12 356/37/12 358/37/12
f 356/37/12 343/36/12 358/37/12
f 343/36/12 356/37/12 346/36/12
f 356/37/12 354/10/12 346/36/12
f 346/36/12 354/10/12 347/9/12
f 354/10/12 355/10/12 347/9/12
f 357/9/12 347/9/12 355/10/12
f 65/37/68 63/10/66 356/37/68
f 354/10/66 356/37/68 63/10/66
f 62/10/15 355/10/15 63/10/15
f 354/10/15 63/10/15 355/10/15
f 353/9/11 352/10/11 351/9/67
f 350/10/67 351/9/67 352/10/11
f 346/36/14 348/36/14 343/36/14
f 345/36/14 343/36/14 348/36/14
f 349/9/11 348/36/11 347/9/11
f 346/36/11 347/9/11 348/36/11
f 345/36/66 344/9/66 343/36/66
f 342/9/66 343/36/66 344/9/66
f 383/11/66 382/9/80 381/11/80
f 382/9/80 383/11/66 384/9/66
f 387/11/81 386/9/82 385/9/81
f 386/9/82 387/11/81 388/11/82
f 386/9/82 390/11/78 389/9/78
f 390/11/78 386/9/82 388/11/82
f 381/11/80 389/9/78 390/11/78
f 389/9/78 381/11/80 382/9/80
f 393/9/11 392/11/83 391/9/83
f 392/11/83 393/9/11 394/11/11
f 391/9/83 396/11/79 395/9/79
f 396/11/79 391/9/83 392/11/83
f 396/11/79 385/9/81 395/9/79
f 385/9/81 396/11/79 387/11/81
f 393/9/14 382/9/14 384/9/14
f 382/9/14 393/9/14 389/9/14
f 389/9/14 393/9/14 386/9/14
f 386/9/14 393/9/14 385/9/14
f 385/9/14 393/9/14 395/9/14
f 395/9/14 393/9/14 391/9/14
f 394/11/15 396/11/15 392/11/15
f 397/11/15 396/11/15 394/11/15
f 398/11/15 396/11/15 397/11/15
f 399/11/15 396/11/15 398/11/15
f 399/11/15 387/11/15 396/11/15
f 400/11/15 387/11/15 399/11/15
f 401/11/15 387/11/15 400/11/15
f 401/11/15 388/11/15 387/11/15
f 402/11/15 388/11/15 401/11/15
f 402/11/15 390/11/15 388/11/15
f 390/11/15 402/11/15 403/11/15
f 404/11/15 390/11/15 403/11/15
f 383/11/15 390/11/15 404/11/15
f 390/11/15 383/11/15 381/11/15
f 398/11/85 405/38/84 399/11/84
f 405/38/84 398/11/85 406/38/85
f 397/11/66 406/38/85 398/11/85
f 406/38/85 397/11/66 407/38/66
f 409/38/11 403/11/86 408/38/86
f 403/11/86 409/38/11 404/11/11
f 408/38/86 402/11/87 410/38/87
f 402/11/87 408/38/86 403/11/86
f 402/11/87 411/38/88 410/38/87
f 411/38/88 402/11/87 401/11/88
f 401/11/88 412/38/89 411/38/88
f 412/38/89 401/11/88 400/11/89
f 400/11/89 405/38/84 412/38/89
f 405/38/84 400/11/89 399/11/84
f 440/19/38 437/19/33 443/34/38
f 436/34/33 443/34/38 437/19/33
f 442/34/13 441/19/13 443/34/38
f 440/19/38 443/34/38 441/19/13
f 436/34/14 438/34/14 443/34/14
f 442/34/14 443/34/14 438/34/14
f 439/19/15 437/19/15 441/19/15
f 440/19/15 441/19/15 437/19/15
f 439/19/7 438/34/7 437/19/33
f 436/34/33 437/19/33 438/34/7
f 74/37/95 73/10/7 435/37/95
f 426/10/7 435/37/95 73/10/7
f 422/9/8 430/10/8 413/9/8
f 431/10/8 413/9/8 430/10/8
f 413/9/8 431/10/8 414/36/8
f 432/37/8 414/36/8 431/10/8
f 433/19/8 434/19/8 432/37/8
f 434/19/8 435/37/8 432/37/8
f 435/37/8 414/36/8 432/37/8
f 414/36/8 435/37/8 417/36/8
f 435/37/8 426/10/8 417/36/8
f 417/36/8 426/10/8 418/9/8
f 426/10/8 427/10/91 418/9/8
f 424/9/91 418/9/8 427/10/91
f 417/36/14 419/36/14 414/36/14
f 416/36/14 414/36/14 419/36/14
f 75/19/94 74/37/95 434/19/94
f 435/37/95 434/19/94 74/37/95
f 78/37/92 76/19/93 432/37/92
f 433/19/93 432/37/92 76/19/93
f 75/19/94 434/19/94 76/19/93
f 433/19/93 76/19/93 434/19/94
f 80/10/13 78/37/92 431/10/13
f 432/37/92 431/10/13 78/37/92
f 429/10/90 425/9/90 427/10/91
f 424/9/91 427/10/91 425/9/90
f 428/10/7 423/9/7 429/10/90
f 425/9/90 429/10/90 423/9/7
f 80/10/15 431/10/15 79/10/15
f 430/10/15 79/10/15 431/10/15
f 429/10/15 427/10/15 428/10/15
f 428/10/15 427/10/15 72/10/15
f 72/10/15 427/10/15 70/10/15
f 70/10/15 427/10/15 73/10/15
f 426/10/15 73/10/15 427/10/15
f 425/9/14 423/9/14 424/9/14
f 424/9/14 423/9/14 418/9/14
f 418/9/14 423/9/14 420/9/14
f 420/9/14 423/9/14 415/9/14
f 415/9/14 422/9/14 413/9/14
f 415/9/14 423/9/14 422/9/14
f 421/9/14 422/9/14 423/9/14
f 420/9/13 419/36/13 418/9/13
f 417/36/13 418/9/13 419/36/13
f 416/36/7 415/9/7 414/36/7
f 413/9/7 414/36/7 415/9/7
f 479/11/8 481/11/8 476/9/8
f 478/9/8 476/9/8 481/11/8
f 482/11/15 481/11/15 480/11/101
f 479/11/101 480/11/101 481/11/15
f 475/9/100 480/11/101 476/9/100
f 479/11/101 476/9/100 480/11/101
f 478/9/14 477/9/14 476/9/100
f 475/9/100 476/9/100 477/9/14
f 473/11/8 468/11/8 472/9/8
f 467/9/8 472/9/8 468/11/8
f 470/11/99 468/11/99 474/11/15
f 473/11/15 474/11/15 468/11/99
f 467/9/98 469/9/98 472/9/14
f 471/9/14 472/9/14 469/9/98
f 470/11/99 469/9/98 468/11/99
f 467/9/98 468/11/99 469/9/98
f 459/9/14 466/9/14 449/9/14
f 449/9/14 466/9/14 451/9/14
f 451/9/14 466/9/14 446/9/14
f 446/9/14 461/9/14 444/9/14
f 446/9/14 466/9/14 461/9/14
f 461/9/14 466/9/14 463/9/14
f 465/9/14 463/9/14 466/9/14
f 462/10/15 464/10/15 460/10/15
f 92/10/15 460/10/15 464/10/15
f 89/10/15 460/10/15 92/10/15
f 460/10/15 89/10/15 455/10/15
f 90/10/15 455/10/15 89/10/15
f 463/9/97 462/10/97 461/9/96
f 460/10/96 461/9/96 462/10/97
f 465/9/13 464/10/13 463/9/97
f 462/10/97 463/9/97 464/10/13
f 81/10/15 458/10/15 82/10/15
f 452/10/15 82/10/15 458/10/15
f 461/9/96 460/10/96 444/9/8
f 455/10/8 444/9/8 460/10/96
f 444/9/8 455/10/8 445/36/8
f 454/37/8 445/36/8 455/10/8
f 456/19/8 457/19/8 454/37/8
f 457/19/8 453/37/8 454/37/8
f 453/37/8 445/36/8 454/37/8
f 445/36/8 453/37/8 448/36/8
f 453/37/8 452/10/8 448/36/8
f 448/36/8 452/10/8 449/9/8
f 459/9/8 449/9/8 452/10/8
f 458/10/8 459/9/8 452/10/8
f 88/37/92 86/19/93 454/37/92
f 456/19/93 454/37/92 86/19/93
f 85/19/94 84/37/95 457/19/94
f 453/37/95 457/19/94 84/37/95
f 85/19/94 457/19/94 86/19/93
f 456/19/93 86/19/93 457/19/94
f 90/10/13 88/37/92 455/10/13
f 454/37/92 455/10/13 88/37/92
f 84/37/95 82/10/7 453/37/95
f 452/10/7 453/37/95 82/10/7
f 448/36/14 450/36/14 445/36/14
f 447/36/14 445/36/14 450/36/14
f 451/9/13 450/36/13 449/9/13
f 448/36/13 449/9/13 450/36/13
f 447/36/7 446/9/7 445/36/7
f 444/9/7 445/36/7 446/9/7
f 117/44/103 123/43/103 116/44/105
f 121/43/105 116/44/105 123/43/103
f 126/41/102 125/45/104 119/39/102
f 118/46/104 119/39/102 125/45/104
f 118/46/104 125/45/104 117/44/103
f 123/43/103 117/44/103 125/45/104
f 124/42/4 126/41/102 115/40/4
f 119/39/102 115/40/4 126/41/102
f 139/41/106 128/40/5 132/39/106
f 128/40/5 139/41/106 137/42/5
f 138/45/108 130/44/107 136/43/107
f 130/44/107 138/45/108 131/46/108
f 138/45/108 132/39/106 131/46/108
f 132/39/106 138/45/108 139/41/106
f 136/43/107 129/44/105 134/43/105
f 129/44/105 136/43/107 130/44/107
f 149/43/29 143/44/29 142/44/29
f 143/44/29 149/43/29 148/43/29
f 157/43/109 152/44/109 151/44/109
f 152/44/109 157/43/109 156/43/109
f 168/41/110 115/40/6 162/39/110
f 115/40/6 168/41/110 124/42/6
f 167/45/112 160/44/111 166/43/111
f 160/44/111 167/45/112 161/46/112
f 167/45/112 162/39/110 161/46/112
f 162/39/110 167/45/112 168/41/110
f 166/43/111 159/44/113 164/43/113
f 159/44/113 166/43/111 160/44/111
f 171/44/115 176/43/115 170/44/113
f 175/43/113 170/44/113 176/43/115
f 179/41/114 178/45/116 173/39/114
f 172/46/116 173/39/114 178/45/116
f 172/46/116 178/45/116 171/44/115
f 176/43/115 171/44/115 178/45/116
f 177/42/3 179/41/114 169/40/3
f 173/39/114 169/40/3 179/41/114
f 273/49/55 276/48/55 277/47/55
f 276/48/55 273/49/55 275/50/55
f 275/50/55 273/49/55 272/49/55
f 275/50/55 272/49/55 274/50/55
f 280/49/55 279/50/55 278/49/55
f 279/50/55 280/49/55 283/50/55
f 283/50/55 280/49/55 281/47/55
f 283/50/55 281/47/55 282/48/55
f 345/51/12 348/51/12 344/43/12
f 349/43/12 344/43/12 348/51/12
f 491/52/8 499/54/8 493/52/8
f 493/52/8 499/54/8 496/52/8
f 493/52/8 496/52/8 489/53/8
f 499/54/8 491/52/8 502/54/8
f 491/52/8 487/53/8 502/54/8
f 496/52/8 495/53/8 489/53/8
f 487/53/8 489/53/8 495/53/8
f 501/43/8 502/54/8 487/53/8
f 487/53/8 495/53/8 501/43/8
f 495/53/8 484/53/8 501/43/8
f 501/43/8 484/53/8 500/43/8
f 499/54/8 500/43/8 484/53/8
f 496/52/8 499/54/8 483/52/8
f 483/52/8 499/54/8 484/53/8
f 493/52/100 494/52/100 491/52/98
f 492/52/98 491/52/98 494/52/100
f 483/52/100 485/52/100 496/52/98
f 498/52/98 496/52/98 485/52/100
f 486/53/101 484/53/101 497/53/99
f 495/53/99 497/53/99 484/53/101
f 498/52/98 497/53/99 496/52/98
f 495/53/99 496/52/98 497/53/99
f 490/53/101 494/52/100 489/53/101
f 493/52/100 489/53/101 494/52/100
f 492/52/98 488/53/7 491/52/98
f 487/53/7 491/52/98 488/53/7
f 490/53/101 489/53/101 488/53/15
f 487/53/15 488/53/15 489/53/101
f 486/53/101 485/52/100 484/53/101
f 483/52/100 484/53/101 485/52/100
f 410/55/15 409/55/15 408/55/15
f 409/55/15 410/55/15 407/55/15
f 407/55/15 410/55/15 411/55/15
f 407/55/15 411/55/15 412/55/15
f 407/55/15 412/55/15 405/55/15
f 407/55/15 405/55/15 406/55/15
f 505/56/119 504/56/118 503/56/117
f 504/56/118 505/56/119 506/56/120
f 506/56/120 505/56/119 507/56/121
f 506/56/120 507/56/121 508/56/122
f 511/58/125 510/57/124 509/57/123
f 510/57/124 511/58/125 512/58/126
f 514/57/128 512/58/126 513/58/127
f 512/58/126 514/57/128 510/57/124
f 509/57/123 515/58/129 511/58/125
f 515/58/129 509/57/123 516/57/130
f 516/57/130 517/58/131 515/58/129
f 517/58/131 516/57/130 518/57/132
f 520/57/134 513/58/127 519/58/133
f 513/58/127 520/57/134 514/57/128
f 520/57/134 517/58/131 518/57/132
f 517/58/131 520/57/134 519/58/133
f 510/57/124 507/56/121 509/57/123
f 507/56/121 510/57/124 508/56/122
f 504/56/118 514/57/128 520/57/134
f 514/57/128 504/56/118 506/56/120
f 503/56/117 520/57/134 518/57/132
f 520/57/134 503/56/117 504/56/118
f 506/56/120 510/57/124 514/57/128
f 510/57/124 506/56/120 508/56/122
f 505/56/119 518/57/132 516/57/130
f 518/57/132 505/56/119 503/56/117
f 507/56/121 516/57/130 509/57/123
f 516/57/130 507/56/121 505/56/119
f 523/56/137 522/56/136 521/56/135
f 522/56/136 523/56/137 524/56/138
f 524/56/138 523/56/137 525/56/139
f 524/56/138 525/56/139 526/56/140
f 529/58/143 528/57/142 527/57/141
f 528/57/142 529/58/143 530/58/144
f 532/57/146 530/58/144 531/58/145
f 530/58/144 532/57/146 528/57/142
f 527/57/141 533/58/147 529/58/143
f 533/58/147 527/57/141 534/57/148
f 534/57/148 535/58/149 533/58/147
f 535/58/149 534/57/148 536/57/150
f 538/57/152 531/58/145 537/58/151
f 531/58/145 538/57/152 532/57/146
f 538/57/152 535/58/149 536/57/150
f 535/58/149 538/57/152 537/58/151
f 528/57/142 525/56/139 527/57/141
f 525/56/139 528/57/142 526/56/140
f 522/56/136 532/57/146 538/57/152
f 532/57/146 522/56/136 524/56/138
f 521/56/135 538/57/152 536/57/150
f 538/57/152 521/56/135 522/56/136
f 524/56/138 528/57/142 532/57/146
f 528/57/142 524/56/138 526/56/140
f 523/56/137 536/57/150 534/57/148
f 536/57/150 523/56/137 521/56/135
f 525/56/139 534/57/148 527/57/141
f 534/57/148 525/56/139 523/56/137
f 549/61/8 550/62/8 541/59/8
f 548/62/8 541/59/8 550/62/8
f 543/60/8 549/61/8 541/59/8
f 539/59/8 541/59/8 548/62/8
f 549/61/8 543/60/8 547/61/8
f 548/62/8 547/61/8 539/59/8
f 543/60/8 546/60/8 547/61/8
f 546/60/8 539/59/8 547/61/8
f 545/60/98 540/59/99 546/60/98
f 539/59/99 546/60/98 540/59/99
f 543/60/100 544/60/100 546/60/98
f 545/60/98 546/60/98 544/60/100
f 542/59/101 544/60/100 541/59/101
f 543/60/100 541/59/101 544/60/100
f 542/59/101 541/59/101 540/59/99
f 539/59/99 540/59/99 541/59/101

usemtl colormap-specular

f 552/64/8 551/63/8 545/64/8
f 540/63/8 545/64/8 551/63/8
f 494/66/8 490/65/8 492/66/8
f 488/65/8 492/66/8 490/65/8
f 485/66/8 486/65/8 498/66/8
f 497/65/8 498/66/8 486/65/8

