# Created by Kenney (www.kenney.nl)

mtllib building-j.mtl

g building-j

v 0.02179398 0.05 0.07399999 1 1 1
v 0.02179392 0.05 0.474 1 1 1
v 0.02179398 0.4 0.07399999 1 1 1
v 0.02179392 0.4 0.474 1 1 1
v -0.7782059 0.05 0.474 1 1 1
v -0.778206 0.05 0.07399999 1 1 1
v -0.7782059 0.4 0.474 1 1 1
v -0.778206 0.4 0.07399999 1 1 1
v 0.0217939 0.05 0.8740001 1 1 1
v 0.02179396 0.05 0.474 1 1 1
v 0.0217939 0.4 0.8740001 1 1 1
v 0.02179396 0.4 0.474 1 1 1
v -0.3782061 0.05 0.874 1 1 1
v -0.3782061 0.4 0.874 1 1 1
v 0.02179396 0.5 0.874 1 1 1
v -0.05983727 0.581014 0.874 1 1 1
v -0.378206 0.5 0.874 1 1 1
v -0.378206 0.7 0.874 1 1 1
v -0.1566857 0.6430407 0.874 1 1 1
v -0.2644161 0.6833034 0.874 1 1 1
v 0.02179396 0.5 -0.326 1 1 1
v -0.05983727 0.581014 -0.326 1 1 1
v -0.378206 0.5 -0.326 1 1 1
v -0.378206 0.7 -0.326 1 1 1
v -0.1566857 0.6430407 -0.326 1 1 1
v -0.2644161 0.6833034 -0.326 1 1 1
v -0.778206 0.5 -0.326 1 1 1
v -0.6965747 0.581014 -0.326 1 1 1
v -0.378206 0.5 -0.326 1 1 1
v -0.378206 0.7 -0.326 1 1 1
v -0.5997263 0.6430407 -0.326 1 1 1
v -0.4919959 0.6833034 -0.326 1 1 1
v -0.778206 0.5 0.874 1 1 1
v -0.6965747 0.581014 0.874 1 1 1
v -0.378206 0.5 0.874 1 1 1
v -0.378206 0.7 0.874 1 1 1
v -0.5997263 0.6430407 0.874 1 1 1
v -0.4919959 0.6833034 0.874 1 1 1
v 0.02179392 0.5 -0.326 1 1 1
v 0.02179392 0.4 -0.326 1 1 1
v 0.02179392 0.5 0.074 1 1 1
v 0.02179392 0.4 0.074 1 1 1
v -0.3782061 0.4 -0.326 1 1 1
v -0.3782061 0.5 -0.326 1 1 1
v -0.778206 0.5 -0.326 1 1 1
v -0.778206 0.4 -0.326 1 1 1
v -0.378206 0.5 -0.3260001 1 1 1
v -0.378206 0.4 -0.3260001 1 1 1
v -0.7782059 0.4 0.07400006 1 1 1
v -0.7782059 0.5 0.07400006 1 1 1
v 0.02179399 0.4 0.07399996 1 1 1
v 0.02179394 0.4 0.474 1 1 1
v 0.02179399 0.5 0.07399996 1 1 1
v 0.02179394 0.5 0.474 1 1 1
v -0.778206 0.4 0.474 1 1 1
v -0.778206 0.4 0.07399996 1 1 1
v -0.778206 0.5 0.474 1 1 1
v -0.778206 0.5 0.07399996 1 1 1
v 0.02179392 0.5 0.874 1 1 1
v 0.02179392 0.4 0.874 1 1 1
v 0.02179392 0.5 0.474 1 1 1
v 0.02179392 0.4 0.474 1 1 1
v -0.3782061 0.4 0.874 1 1 1
v -0.3782061 0.5 0.874 1 1 1
v -0.7782059 0.5 0.874 1 1 1
v -0.7782059 0.4 0.874 1 1 1
v -0.3782059 0.5 0.874 1 1 1
v -0.3782059 0.4 0.874 1 1 1
v -0.778206 0.4 0.474 1 1 1
v -0.778206 0.5 0.474 1 1 1
v -0.7782062 0.4 0.8740002 1 1 1
v -0.7782062 0.05 0.8740002 1 1 1
v -0.378206 0.4 0.8740001 1 1 1
v -0.378206 0.05 0.8740001 1 1 1
v -0.7782062 0.05 0.474 1 1 1
v -0.7782062 0.05 0.5740001 1 1 1
v -0.7782062 0.4 0.474 1 1 1
v -0.7782062 0.28 0.5740001 1 1 1
v -0.7782062 0.3 0.594 1 1 1
v -0.7782062 0.3 0.7540001 1 1 1
v -0.7782062 0.28 0.7740001 1 1 1
v -0.7782062 0.05 0.7740001 1 1 1
v -0.7782059 0.5 0.07399999 1 1 1
v -0.378206 0.5 0.07399999 1 1 1
v -0.7782059 0.7303212 0.07399999 1 1 1
v -0.378206 0.7303212 0.07399999 1 1 1
v -0.378206 0.5 0.474 1 1 1
v -0.7782059 0.5 0.474 1 1 1
v -0.378206 0.7303212 0.474 1 1 1
v -0.7782059 0.7303212 0.474 1 1 1
v -0.378206 0.803928 0.1621966 1 1 1
v -0.378206 0.8303212 0.274 1 1 1
v -0.378206 0.803928 0.3858034 1 1 1
v -0.7782059 0.803928 0.3858034 1 1 1
v -0.7782059 0.75 0.404 1 1 1
v -0.7782059 0.8303212 0.274 1 1 1
v -0.7782059 0.803928 0.1621966 1 1 1
v -0.7782059 0.73 0.424 1 1 1
v -0.7782059 0.75 0.144 1 1 1
v -0.7782059 0.73 0.124 1 1 1
v -0.7782059 0.62 0.124 1 1 1
v -0.7782059 0.6 0.144 1 1 1
v -0.7782059 0.62 0.424 1 1 1
v -0.7782059 0.6 0.404 1 1 1
v 0.0217939 0.05 -0.326 1 1 1
v 0.0217939 0.4 -0.326 1 1 1
v 0.0217939 0.05 0.074 1 1 1
v 0.0217939 0.4 0.074 1 1 1
v -0.1182061 0.05 -0.326 1 1 1
v -0.1182061 0.28 -0.326 1 1 1
v -0.1382061 0.3 -0.326 1 1 1
v -0.6182061 0.3 -0.326 1 1 1
v -0.7782061 0.4 -0.326 1 1 1
v -0.6382061 0.28 -0.326 1 1 1
v -0.7782061 0.05 -0.326 1 1 1
v -0.6382061 0.05 -0.326 1 1 1
v -0.7782061 0.4 0.074 1 1 1
v -0.7782061 0.05 0.074 1 1 1
v 0.0417939 3.106357E-16 0.474 1 1 1
v 0.04179396 3.106357E-16 0.07399999 1 1 1
v -0.3782061 3.106357E-16 0.474 1 1 1
v -0.3782061 3.106357E-16 0.07399993 1 1 1
v 0.04179396 0.05 0.07399999 1 1 1
v 0.0417939 0.05 0.474 1 1 1
v -0.798206 3.106357E-16 0.07399999 1 1 1
v -0.7982059 3.106357E-16 0.474 1 1 1
v -0.378206 3.106357E-16 0.07399993 1 1 1
v -0.3782059 3.106357E-16 0.474 1 1 1
v -0.7982059 0.05 0.474 1 1 1
v -0.798206 0.05 0.07399999 1 1 1
v 0.0417939 3.101963E-16 0.8740001 1 1 1
v 0.04179396 3.101963E-16 0.474 1 1 1
v 0.0417939 0.05 0.8740001 1 1 1
v 0.04179396 0.05 0.474 1 1 1
v 0.0217939 3.101963E-16 0.8940001 1 1 1
v 0.0217939 0.05 0.8940001 1 1 1
v -0.3782061 3.101963E-16 0.894 1 1 1
v -0.3782061 0.05 0.894 1 1 1
v -0.3782061 3.101963E-16 0.474 1 1 1
v 0.07841577 0.4860726 0.474 1 1 1
v 0.04292651 0.5212936 0.474 1 1 1
v 0.07841577 0.4860726 0.874 1 1 1
v 0.0680212 0.4963886 0.9093553 1 1 1
v 0.04292651 0.5212936 0.924 1 1 1
v -0.04097001 0.6045557 0.474 1 1 1
v -0.04097001 0.6045557 0.924 1 1 1
v -0.2569031 0.7125223 0.924 1 1 1
v -0.2569031 0.7125223 0.474 1 1 1
v -0.378206 0.7303212 0.924 1 1 1
v -0.378206 0.7303212 0.474 1 1 1
v -0.1431936 0.6700249 0.474 1 1 1
v -0.1431936 0.6700249 0.924 1 1 1
v 0.07841577 0.4860726 0.07400003 1 1 1
v 0.04292651 0.5212936 0.07400003 1 1 1
v 0.07841577 0.4860726 -0.326 1 1 1
v 0.0680212 0.4963886 -0.3613553 1 1 1
v 0.04292651 0.5212936 -0.376 1 1 1
v -0.04097001 0.6045557 0.07400003 1 1 1
v -0.04097001 0.6045557 -0.376 1 1 1
v -0.2569031 0.7125223 0.07400003 1 1 1
v -0.378206 0.7303212 0.07400003 1 1 1
v -0.2569031 0.7125223 -0.376 1 1 1
v -0.378206 0.7303212 -0.376 1 1 1
v -0.1431936 0.6700249 0.07400003 1 1 1
v -0.1431936 0.6700249 -0.376 1 1 1
v -0.3782061 0.7303212 0.07399999 1 1 1
v -0.3782061 0.7303212 0.474 1 1 1
v -0.2569031 0.7125223 0.07399999 1 1 1
v -0.2569031 0.7125223 0.474 1 1 1
v -0.1431936 0.6700249 0.07399999 1 1 1
v -0.1431936 0.6700249 0.474 1 1 1
v -0.04097006 0.6045557 0.07399999 1 1 1
v -0.04097006 0.6045557 0.474 1 1 1
v 0.04292646 0.5212935 0.07399999 1 1 1
v 0.04292646 0.5212935 0.474 1 1 1
v 0.07841571 0.4860726 0.07399999 1 1 1
v 0.07841571 0.4860726 0.474 1 1 1
v -0.499509 0.7125223 0.07399999 1 1 1
v -0.499509 0.7125223 0.474 1 1 1
v -0.6132185 0.6700249 0.07399999 1 1 1
v -0.6132185 0.6700249 0.474 1 1 1
v -0.7154421 0.6045557 0.07399999 1 1 1
v -0.7154421 0.6045557 0.474 1 1 1
v -0.7993386 0.5212935 0.07399999 1 1 1
v -0.7993386 0.5212935 0.474 1 1 1
v -0.8348278 0.4860726 0.07399999 1 1 1
v -0.8348278 0.4860726 0.474 1 1 1
v -0.8348278 0.4860726 0.07400003 1 1 1
v -0.7993385 0.5212936 0.07400003 1 1 1
v -0.8348278 0.4860726 -0.326 1 1 1
v -0.8244332 0.4963886 -0.3613553 1 1 1
v -0.7993385 0.5212936 -0.376 1 1 1
v -0.715442 0.6045557 0.07400003 1 1 1
v -0.715442 0.6045557 -0.376 1 1 1
v -0.4995089 0.7125223 -0.376 1 1 1
v -0.4995089 0.7125223 0.07400003 1 1 1
v -0.378206 0.7303212 -0.376 1 1 1
v -0.378206 0.7303212 0.07400003 1 1 1
v -0.6132184 0.6700249 -0.376 1 1 1
v -0.6132184 0.6700249 0.07400003 1 1 1
v -0.8348278 0.4860726 0.474 1 1 1
v -0.7993385 0.5212936 0.474 1 1 1
v -0.8348278 0.4860726 0.874 1 1 1
v -0.8244332 0.4963886 0.9093553 1 1 1
v -0.7993385 0.5212936 0.924 1 1 1
v -0.715442 0.6045557 0.474 1 1 1
v -0.715442 0.6045557 0.924 1 1 1
v -0.4995089 0.7125223 0.924 1 1 1
v -0.4995089 0.7125223 0.474 1 1 1
v -0.378206 0.7303212 0.924 1 1 1
v -0.378206 0.7303212 0.474 1 1 1
v -0.6132184 0.6700249 0.474 1 1 1
v -0.6132184 0.6700249 0.924 1 1 1
v -0.06559587 0.7198807 -0.2468303 1 1 1
v -0.07423622 0.7198807 -0.2259707 1 1 1
v -0.05084587 0.7493807 -0.2468303 1 1 1
v -0.0638064 0.7493807 -0.2155408 1 1 1
v -0.1245959 0.7198807 -0.2468303 1 1 1
v -0.1393459 0.7493807 -0.2468303 1 1 1
v -0.1159555 0.7198807 -0.2259707 1 1 1
v -0.1263853 0.7493807 -0.2155408 1 1 1
v -0.07423622 0.6108807 -0.2259707 1 1 1
v -0.09509587 0.6108807 -0.2173303 1 1 1
v -0.09509587 0.7198807 -0.2173303 1 1 1
v -0.0638064 0.7493807 -0.2781198 1 1 1
v -0.07423622 0.7198807 -0.2676899 1 1 1
v -0.09509587 0.7493807 -0.2025803 1 1 1
v -0.09509587 0.7198807 -0.2763303 1 1 1
v -0.09509587 0.7493807 -0.2910803 1 1 1
v -0.1159555 0.7198807 -0.2676899 1 1 1
v -0.1263853 0.7493807 -0.2781198 1 1 1
v -0.06559587 0.7788807 -0.2468303 1 1 1
v -0.07423622 0.7788807 -0.2259707 1 1 1
v -0.1159555 0.6108807 -0.2259707 1 1 1
v -0.1159555 0.6108807 -0.2676899 1 1 1
v -0.09509587 0.6108807 -0.2763303 1 1 1
v -0.1245959 0.6108807 -0.2468303 1 1 1
v -0.1159555 0.7788807 -0.2676899 1 1 1
v -0.09509587 0.7788807 -0.2763303 1 1 1
v -0.07423622 0.7788807 -0.2676899 1 1 1
v -0.09509587 0.7788807 -0.2173303 1 1 1
v -0.1159555 0.7788807 -0.2259707 1 1 1
v -0.1245959 0.7788807 -0.2468303 1 1 1
v -0.07423622 0.6108807 -0.2676899 1 1 1
v -0.06559587 0.6108807 -0.2468303 1 1 1
v -0.06559587 0.7198807 -0.1468303 1 1 1
v -0.07423622 0.7198807 -0.1259706 1 1 1
v -0.05084587 0.7493807 -0.1468303 1 1 1
v -0.0638064 0.7493807 -0.1155408 1 1 1
v -0.1245959 0.7198807 -0.1468303 1 1 1
v -0.1393459 0.7493807 -0.1468303 1 1 1
v -0.1159555 0.7198807 -0.1259706 1 1 1
v -0.1263853 0.7493807 -0.1155408 1 1 1
v -0.07423622 0.6108807 -0.1259706 1 1 1
v -0.09509587 0.6108807 -0.1173303 1 1 1
v -0.09509587 0.7198807 -0.1173303 1 1 1
v -0.0638064 0.7493807 -0.1781197 1 1 1
v -0.07423622 0.7198807 -0.1676899 1 1 1
v -0.09509587 0.7493807 -0.1025803 1 1 1
v -0.09509587 0.7198807 -0.1763303 1 1 1
v -0.09509587 0.7493807 -0.1910803 1 1 1
v -0.1159555 0.7198807 -0.1676899 1 1 1
v -0.1263853 0.7493807 -0.1781197 1 1 1
v -0.06559587 0.7788807 -0.1468303 1 1 1
v -0.07423622 0.7788807 -0.1259706 1 1 1
v -0.1159555 0.6108807 -0.1259706 1 1 1
v -0.1159555 0.6108807 -0.1676899 1 1 1
v -0.09509587 0.6108807 -0.1763303 1 1 1
v -0.1245959 0.6108807 -0.1468303 1 1 1
v -0.1159555 0.7788807 -0.1676899 1 1 1
v -0.09509587 0.7788807 -0.1763303 1 1 1
v -0.07423622 0.7788807 -0.1676899 1 1 1
v -0.09509587 0.7788807 -0.1173303 1 1 1
v -0.1159555 0.7788807 -0.1259706 1 1 1
v -0.1245959 0.7788807 -0.1468303 1 1 1
v -0.07423622 0.6108807 -0.1676899 1 1 1
v -0.06559587 0.6108807 -0.1468303 1 1 1
v -0.828934 0.05000001 -0.2847279 1 1 1
v -0.8162061 0.05000001 -0.29 1 1 1
v -0.828934 0.4 -0.2847279 1 1 1
v -0.8162061 0.4 -0.29 1 1 1
v -0.7982061 0.4 -0.272 1 1 1
v -0.7982061 0.05000001 -0.272 1 1 1
v -0.8034782 0.4 -0.2592721 1 1 1
v -0.8034782 0.05000001 -0.2592721 1 1 1
v -0.8034782 0.05000001 -0.2847279 1 1 1
v -0.8034782 0.4 -0.2847279 1 1 1
v -0.8162061 0.05000001 -0.254 1 1 1
v -0.8162061 0.4 -0.254 1 1 1
v -0.828934 0.05000001 -0.2592721 1 1 1
v -0.828934 0.4 -0.2592721 1 1 1
v -0.8342061 0.05000001 -0.272 1 1 1
v -0.8342061 0.4 -0.272 1 1 1
v -0.7782061 0.4 -0.254 1 1 1
v -0.7782061 0.4 -0.29 1 1 1
v -0.8342061 0.4 -0.254 1 1 1
v -0.8342061 0.4 -0.29 1 1 1
v -0.7782061 0.436 -0.29 1 1 1
v -0.7782061 0.436 -0.254 1 1 1
v -0.8242061 0.436 -0.29 1 1 1
v -0.8242061 0.436 -0.254 1 1 1
v -0.8342061 0.426 -0.254 1 1 1
v -0.8342061 0.426 -0.29 1 1 1
v -0.8342994 0.1107845 -0.2900934 1 1 1
v -0.8342994 0.1392155 -0.2900934 1 1 1
v -0.841794 0.1107845 -0.272 1 1 1
v -0.841794 0.1392155 -0.272 1 1 1
v -0.8162061 0.1107845 -0.2975879 1 1 1
v -0.8162061 0.1392155 -0.2975879 1 1 1
v -0.7906182 0.1392155 -0.272 1 1 1
v -0.7906182 0.1107845 -0.272 1 1 1
v -0.7981128 0.1392155 -0.2539066 1 1 1
v -0.7981128 0.1107845 -0.2539066 1 1 1
v -0.7981128 0.1392155 -0.2900934 1 1 1
v -0.7981128 0.1107845 -0.2900934 1 1 1
v -0.8342994 0.1107845 -0.2539066 1 1 1
v -0.8342994 0.1392155 -0.2539066 1 1 1
v -0.8162061 0.1107845 -0.2464121 1 1 1
v -0.8162061 0.1392155 -0.2464121 1 1 1
v -0.8342994 0.314707 -0.2900934 1 1 1
v -0.8342994 0.343138 -0.2900934 1 1 1
v -0.841794 0.314707 -0.272 1 1 1
v -0.841794 0.343138 -0.272 1 1 1
v -0.8162061 0.314707 -0.2975879 1 1 1
v -0.8162061 0.343138 -0.2975879 1 1 1
v -0.7906182 0.343138 -0.272 1 1 1
v -0.7906182 0.314707 -0.272 1 1 1
v -0.7981128 0.343138 -0.2539066 1 1 1
v -0.7981128 0.314707 -0.2539066 1 1 1
v -0.7981128 0.343138 -0.2900934 1 1 1
v -0.7981128 0.314707 -0.2900934 1 1 1
v -0.8342994 0.314707 -0.2539066 1 1 1
v -0.8342994 0.343138 -0.2539066 1 1 1
v -0.8162061 0.314707 -0.2464121 1 1 1
v -0.8162061 0.343138 -0.2464121 1 1 1
v -0.7982062 4.911135E-16 0.7440001 1 1 1
v -0.7982062 0.27 0.7440001 1 1 1
v -0.7782062 5.016401E-16 0.7440001 1 1 1
v -0.7782062 0.27 0.7440001 1 1 1
v -0.7982063 0.27 0.604 1 1 1
v -0.7982063 4.911135E-16 0.604 1 1 1
v -0.7782062 0.27 0.604 1 1 1
v -0.7782062 5.016401E-16 0.604 1 1 1
v -0.7782062 0.05 0.8940002 1 1 1
v -0.7782062 3.105097E-16 0.8940002 1 1 1
v -0.378206 0.05 0.8940001 1 1 1
v -0.378206 3.211623E-16 0.8940001 1 1 1
v -0.7982063 0.05 0.5740001 1 1 1
v -0.7982063 0.05 0.474 1 1 1
v -0.7982063 0.28 0.5740001 1 1 1
v -0.7982063 3.106357E-16 0.474 1 1 1
v -0.7982062 0.28 0.7740001 1 1 1
v -0.7982063 0.3 0.594 1 1 1
v -0.7982062 0.3 0.7540001 1 1 1
v -0.7982062 0.05 0.7740001 1 1 1
v -0.7982062 0.05 0.8740002 1 1 1
v -0.7982062 3.349808E-16 0.8740002 1 1 1
v -0.3782061 3.211623E-16 0.474 1 1 1
v -0.7782062 0.1142649 0.6340001 1 1 1
v -0.7892061 0.1142649 0.6340001 1 1 1
v -0.7782062 0.1142649 0.61473 1 1 1
v -0.7892062 0.1142649 0.61473 1 1 1
v -0.7892061 0.1557351 0.6340001 1 1 1
v -0.7782062 0.1557351 0.6340001 1 1 1
v -0.7892062 0.1557351 0.61473 1 1 1
v -0.7782062 0.1557351 0.61473 1 1 1
v -0.7892061 0.1332044 0.621316 1 1 1
v -0.7892061 0.1463153 0.621316 1 1 1
v -0.7892061 0.1332044 0.6522295 1 1 1
v -0.7892061 0.1463153 0.6522295 1 1 1
v -0.8002061 0.1332044 0.621316 1 1 1
v -0.8002061 0.1332044 0.6522295 1 1 1
v -0.8002061 0.1463153 0.621316 1 1 1
v -0.8002061 0.1463153 0.6522295 1 1 1
v -0.3282059 0.8611458 0.274 1 1 1
v -0.3282059 0.8314984 0.3995886 1 1 1
v -0.8282059 0.8611458 0.274 1 1 1
v -0.8282059 0.8314984 0.3995886 1 1 1
v -0.3282059 0.8314984 0.1484114 1 1 1
v -0.8282059 0.8314984 0.1484114 1 1 1
v -0.3282059 0.7533538 0.4932224 1 1 1
v -0.3428506 0.7307 0.5203665 1 1 1
v -0.378206 0.7213164 0.53161 1 1 1
v -0.7782059 0.7213164 0.53161 1 1 1
v -0.8135613 0.7307 0.5203665 1 1 1
v -0.8282059 0.7533538 0.4932224 1 1 1
v -0.3282059 0.7533538 0.05477756 1 1 1
v -0.3428506 0.7307 0.02763344 1 1 1
v -0.378206 0.7213164 0.01639 1 1 1
v -0.7782059 0.7213164 0.01639 1 1 1
v -0.8135613 0.7307 0.02763344 1 1 1
v -0.8282059 0.7533538 0.05477756 1 1 1
v -0.7982059 0.62 0.124 1 1 1
v -0.7982059 0.73 0.124 1 1 1
v -0.7982059 0.6 0.144 1 1 1
v -0.7982059 0.75 0.144 1 1 1
v -0.7982059 0.63 0.154 1 1 1
v -0.7982059 0.6 0.404 1 1 1
v -0.7982059 0.72 0.154 1 1 1
v -0.7982059 0.63 0.394 1 1 1
v -0.7982059 0.75 0.404 1 1 1
v -0.7982059 0.72 0.394 1 1 1
v -0.7982059 0.62 0.424 1 1 1
v -0.7982059 0.73 0.424 1 1 1
v -0.7782059 0.63 0.394 1 1 1
v -0.7782059 0.72 0.394 1 1 1
v -0.7782059 0.63 0.154 1 1 1
v -0.7782059 0.72 0.154 1 1 1
v -0.778206 0.65 0.174 1 1 1
v -0.778206 0.7 0.174 1 1 1
v -0.758206 0.65 0.174 1 1 1
v -0.758206 0.7 0.174 1 1 1
v -0.778206 0.7 0.264 1 1 1
v -0.758206 0.7 0.374 1 1 1
v -0.778206 0.7 0.284 1 1 1
v -0.778206 0.7 0.374 1 1 1
v -0.778206 0.65 0.374 1 1 1
v -0.758206 0.65 0.374 1 1 1
v -0.778206 0.65 0.264 1 1 1
v -0.778206 0.65 0.284 1 1 1
v -0.778206 0.72 0.394 1 1 1
v -0.778206 0.63 0.394 1 1 1
v -0.778206 0.63 0.154 1 1 1
v -0.778206 0.72 0.154 1 1 1
v -0.608206 4.908938E-16 -0.346 1 1 1
v -0.608206 0.27 -0.346 1 1 1
v -0.608206 4.908938E-16 -0.326 1 1 1
v -0.608206 0.27 -0.326 1 1 1
v -0.1482061 0.27 -0.346 1 1 1
v -0.1482061 4.908938E-16 -0.346 1 1 1
v -0.1482061 0.27 -0.326 1 1 1
v -0.1482061 4.908938E-16 -0.326 1 1 1
v -0.1182061 0.05 -0.346 1 1 1
v 0.0217939 0.05 -0.346 1 1 1
v 0.0417939 0.05 0.074 1 1 1
v 0.0417939 0.05 -0.326 1 1 1
v -0.1182061 0.28 -0.346 1 1 1
v 0.0417939 3.10416E-16 -0.326 1 1 1
v 0.0417939 3.10416E-16 0.074 1 1 1
v 0.0217939 3.502088E-16 -0.346 1 1 1
v -0.6382061 0.28 -0.346 1 1 1
v -0.6382061 0.05 -0.346 1 1 1
v -0.6182061 0.3 -0.346 1 1 1
v -0.1382061 0.3 -0.346 1 1 1
v -0.7782061 0.05 -0.346 1 1 1
v -0.7782061 3.297847E-16 -0.346 1 1 1
v -0.7982061 0.05 -0.326 1 1 1
v -0.7982061 3.10416E-16 -0.326 1 1 1
v -0.7982061 0.05 0.074 1 1 1
v -0.7982061 3.10416E-16 0.074 1 1 1
v -0.3562574 0.03688905 -0.326 1 1 1
v -0.3562574 0.05 -0.326 1 1 1
v -0.4001546 0.03688905 -0.326 1 1 1
v -0.4001546 0.05 -0.326 1 1 1
v -0.3562574 0.03688905 -0.337 1 1 1
v -0.4001546 0.03688905 -0.337 1 1 1
v -0.3562574 0.05 -0.337 1 1 1
v -0.4001546 0.05 -0.337 1 1 1
v -0.8982061 0.05 -0.177851 1 1 1
v -0.8982061 1.300053E-16 -0.177851 1 1 1
v -0.798206 0.05 -0.177851 1 1 1
v -0.798206 1.299381E-16 -0.177851 1 1 1
v -0.948206 1.300053E-16 0.1721491 1 1 1
v -0.9482061 1.300053E-16 -0.127851 1 1 1
v -0.948206 0.05 0.1721491 1 1 1
v -0.9482061 0.05 -0.127851 1 1 1
v -0.9335614 1.299775E-16 -0.1632063 1 1 1
v -0.9335614 0.05 -0.1632063 1 1 1
v -0.898206 1.300053E-16 0.2221491 1 1 1
v -0.898206 0.05 0.2221491 1 1 1
v -0.798206 1.299381E-16 0.2221491 1 1 1
v -0.798206 0.05 0.2221491 1 1 1
v -0.9335613 1.299775E-16 0.2075045 1 1 1
v -0.9335613 0.05 0.2075045 1 1 1
v -0.798206 0.05 0.2021491 1 1 1
v -0.8942277 0.05 0.2021491 1 1 1
v -0.918254 0.05 0.1921971 1 1 1
v -0.928206 0.05 0.1681709 1 1 1
v -0.928206 0.05 -0.1238727 1 1 1
v -0.918254 0.05 -0.147899 1 1 1
v -0.8942278 0.05 -0.157851 1 1 1
v -0.798206 0.05 -0.157851 1 1 1
v -0.918254 0.03 0.1921971 1 1 1
v -0.8942277 0.03 0.2021491 1 1 1
v -0.798206 0.03 0.2021491 1 1 1
v -0.8942278 0.03 -0.157851 1 1 1
v -0.798206 0.03 -0.157851 1 1 1
v -0.918254 0.03 -0.147899 1 1 1
v -0.928206 0.03 -0.1238727 1 1 1
v -0.928206 0.03 0.1681709 1 1 1
v 0.02179396 0.5 0.474 1 1 1
v 0.02179396 0.5 0.924 1 1 1
v -0.05983727 0.581014 0.924 1 1 1
v -0.1566857 0.6430407 0.924 1 1 1
v -0.2644161 0.6833034 0.924 1 1 1
v -0.378206 0.7 0.924 1 1 1
v 0.05728321 0.4647791 0.874 1 1 1
v 0.05728321 0.4647791 0.474 1 1 1
v 0.04688865 0.4750951 0.9093553 1 1 1
v 0.02179396 0.5 0.07400003 1 1 1
v 0.02179396 0.5 -0.376 1 1 1
v -0.05983727 0.581014 -0.376 1 1 1
v -0.1566857 0.6430407 -0.376 1 1 1
v -0.2644161 0.6833034 -0.376 1 1 1
v -0.378206 0.7 -0.376 1 1 1
v 0.05728321 0.4647791 -0.326 1 1 1
v 0.05728321 0.4647791 0.07400003 1 1 1
v 0.04688865 0.4750951 -0.3613553 1 1 1
v 0.05728315 0.4647791 0.07399999 1 1 1
v 0.05728315 0.4647791 0.474 1 1 1
v 0.0217939 0.5 0.07399999 1 1 1
v 0.0217939 0.5 0.474 1 1 1
v -0.8136953 0.4647791 0.07399999 1 1 1
v -0.8136953 0.4647791 0.474 1 1 1
v -0.7782061 0.5 0.07399999 1 1 1
v -0.7782061 0.5 0.474 1 1 1
v -0.778206 0.5 0.07400003 1 1 1
v -0.778206 0.5 -0.376 1 1 1
v -0.6965747 0.581014 -0.376 1 1 1
v -0.5997263 0.6430407 -0.376 1 1 1
v -0.4919959 0.6833034 -0.376 1 1 1
v -0.378206 0.7 -0.376 1 1 1
v -0.8136953 0.4647791 -0.326 1 1 1
v -0.8136953 0.4647791 0.07400003 1 1 1
v -0.8033007 0.4750951 -0.3613553 1 1 1
v -0.778206 0.5 0.474 1 1 1
v -0.778206 0.5 0.924 1 1 1
v -0.6965747 0.581014 0.924 1 1 1
v -0.5997263 0.6430407 0.924 1 1 1
v -0.4919959 0.6833034 0.924 1 1 1
v -0.378206 0.7 0.924 1 1 1
v -0.8136953 0.4647791 0.874 1 1 1
v -0.8136953 0.4647791 0.474 1 1 1
v -0.8033007 0.4750951 0.9093553 1 1 1
v -0.8282059 0.8303212 0.274 1 1 1
v -0.8282059 0.803928 0.1621966 1 1 1
v -0.8282059 0.803928 0.3858034 1 1 1
v -0.3282059 0.8303212 0.274 1 1 1
v -0.3282059 0.803928 0.3858034 1 1 1
v -0.3282059 0.803928 0.1621966 1 1 1
v -0.378206 0.6982839 0.5123876 1 1 1
v -0.7782059 0.6982839 0.5123876 1 1 1
v -0.8282059 0.7303212 0.07399999 1 1 1
v -0.8282059 0.7303212 0.474 1 1 1
v -0.7782059 0.6982839 0.0356124 1 1 1
v -0.378206 0.6982839 0.0356124 1 1 1
v -0.3282059 0.7303212 0.07399999 1 1 1
v -0.3282059 0.7303212 0.474 1 1 1
v -0.8135613 0.7076674 0.5011441 1 1 1
v -0.8135613 0.7076674 0.04685587 1 1 1
v -0.3428506 0.7076674 0.04685587 1 1 1
v -0.3428506 0.7076674 0.5011441 1 1 1
v -0.148206 4.908938E-16 -0.326 1 1 1
v -0.148206 0.27 -0.326 1 1 1
v -0.8739077 0.1771095 -0.08055922 1 1 1
v -0.8380409 0.1771095 -0.08055922 1 1 1
v -0.8918411 0.1771095 -0.04949764 1 1 1
v -0.8201075 0.1771095 -0.04949766 1 1 1
v -0.8739077 0.1771095 -0.01843607 1 1 1
v -0.8380409 0.1771095 -0.01843608 1 1 1
v -0.8918411 0.09955978 0.0126255 1 1 1
v -0.8201075 0.09955978 0.01262549 1 1 1
v -0.8798856 0.03 -0.008082222 1 1 1
v -0.8320631 0.03 -0.008082228 1 1 1
v -0.8081519 0.03 -0.04949766 1 1 1
v -0.7842407 0.09955978 -0.04949766 1 1 1
v -0.9037967 0.03 -0.04949764 1 1 1
v -0.927708 0.09955978 -0.04949764 1 1 1
v -0.8798856 0.03 -0.09091308 1 1 1
v -0.8918412 0.09955978 -0.1116208 1 1 1
v -0.8320631 0.03 -0.09091308 1 1 1
v -0.8201075 0.09955978 -0.1116208 1 1 1
v -0.8767034 0.1415561 0.06242357 1 1 1
v -0.8374167 0.1415561 0.06242356 1 1 1
v -0.8963469 0.1415561 0.0964469 1 1 1
v -0.8177733 0.1415561 0.09644689 1 1 1
v -0.8767034 0.1415561 0.1304702 1 1 1
v -0.8374167 0.1415561 0.1304702 1 1 1
v -0.8963468 0.08274858 0.1644936 1 1 1
v -0.8177733 0.08274858 0.1644936 1 1 1
v -0.8832512 0.03 0.1418113 1 1 1
v -0.8308689 0.03 0.1418113 1 1 1
v -0.8046777 0.03 0.09644689 1 1 1
v -0.7784866 0.08274858 0.09644689 1 1 1
v -0.9094424 0.03 0.0964469 1 1 1
v -0.9356336 0.08274858 0.0964469 1 1 1
v -0.8832512 0.03 0.05108246 1 1 1
v -0.8963469 0.08274858 0.02840024 1 1 1
v -0.8308689 0.03 0.05108245 1 1 1
v -0.8177733 0.08274858 0.02840023 1 1 1

vn 1 0 1.192093E-07
vn -1 0 1.192093E-07
vn -1.192093E-07 0 1
vn -1.210143E-14 0 1
vn 0 0 -1
vn 1.210143E-14 0 1
vn 1 0 0
vn -1.192093E-07 0 -1
vn 1 0 -1.490028E-08
vn 1.490028E-08 0 1
vn 1.192093E-07 0 1
vn 1.192093E-07 0 1
vn -1 0 1.192093E-07
vn 0 0 1
vn -1 0 0
vn 0 -1 0
vn 0 1 0
vn 0.9238796 0 0.3826836
vn 0.3826834 0 0.9238797
vn 0.7044183 0.709785 8.524469E-15
vn 0.6253797 0.7803205 7.567989E-15
vn 0.2490286 0.9684961 3.013603E-15
vn 0.1451771 0.9894057 1.75685E-15
vn 0.4472136 0.8944272 5.411924E-15
vn 0.7044183 0.709785 0
vn 0.6253797 0.7803205 0
vn 0.2490286 0.9684961 0
vn 0.1451771 0.9894057 0
vn 0.4472136 0.8944272 0
vn -0.1451771 0.9894057 0
vn -0.2490286 0.9684961 0
vn -0.4472136 0.8944272 0
vn -0.6253797 0.7803205 0
vn -0.7044183 0.709785 0
vn -0.7044183 0.709785 8.524469E-15
vn -0.6253797 0.7803205 7.567989E-15
vn -0.2490286 0.9684961 3.013603E-15
vn -0.1451771 0.9894057 1.75685E-15
vn -0.4472136 0.8944272 5.411924E-15
vn 0.8944272 -0.4472136 0
vn 0.6324555 -0.4472136 0.6324555
vn 0.7071068 0 0.7071068
vn -0.8944272 -0.4472136 0
vn -0.6324555 -0.4472136 0.6324555
vn -0.7071068 0 0.7071068
vn 0.7071068 0 -0.7071068
vn 0.6324555 -0.4472136 -0.6324555
vn 0 -0.4472136 0.8944272
vn 0 -0.4472136 -0.8944272
vn -0.6324555 -0.4472136 -0.6324555
vn -0.7071068 0 -0.7071068
vn 0.8944272 0.4472136 0
vn 0.6324555 0.4472136 0.6324555
vn -0.6324555 0.4472136 -0.6324555
vn 0 0.4472136 -0.8944272
vn 0.6324555 0.4472136 -0.6324555
vn 0 0.4472136 0.8944272
vn -0.6324555 0.4472136 0.6324555
vn -0.8944272 0.4472136 0
vn -0.7071068 0 -0.7071068
vn 0.7071068 0 0.7071068
vn 0.7071068 0 -0.7071068
vn -0.7071068 0 0.7071068
vn -0.3662924 0.9304998 0
vn -0.9179972 0.3965869 0
vn -1.192093E-07 0 -1
vn -0.3826835 0 0.9238799
vn -1.10135E-07 0.3826834 -0.9238799
vn -0.9238798 0 0.3826837
vn 4.561943E-08 0.9238795 0.3826836
vn -4.561943E-08 0.9238795 -0.3826836
vn 1.10135E-07 0.3826834 0.9238799
vn 8.429372E-08 -0.7071068 0.707107
vn -8.429372E-08 -0.7071068 -0.707107
vn 8.429372E-08 0.7071068 0.707107
vn -8.429372E-08 0.7071068 -0.707107
vn 1 0 -1.192093E-07
vn -0.7071071 0 -0.7071069
vn -0.7071069 0 0.7071071
vn 0 0.8944272 0.4472136
vn 0 0.8944272 -0.4472136
vn 0 0.7677518 0.6407474
vn 0 0.7677518 -0.6407474
vn 0 -0.3826834 0.9238795
vn 0 0.3826834 0.9238795
vn 0 0.9238795 -0.3826834
vn 0 0.9238795 0.3826834
vn 0 -0.3826834 -0.9238795
vn 0 -0.9238795 -0.3826834
vn 0 -0.9238795 0.3826834
vn 0 0.3826834 -0.9238795
vn 8.42937E-08 0.7071068 0.7071068
vn 8.42937E-08 -0.7071068 0.7071068
vn -8.42937E-08 -0.7071068 -0.7071068
vn -8.42937E-08 0.7071068 -0.7071068
vn 0.9238795 0.3826834 0
vn 0.9238795 0 -0.3826834
vn 0.3826834 0 -0.9238795
vn -0.9238795 0.3826834 0
vn -0.3826834 0.9238795 0
vn 0.3826834 0.9238795 0
vn -0.3826834 0 -0.9238795
vn -0.9238795 0 -0.3826834
vn -0.1950905 0 -0.9807856
vn -0.9807856 0 0.1950905
vn -0.9807856 0 -0.1950903
vn -0.1950903 0 0.9807856
vn 0.7071069 0 -0.7071071
vn 0.1950903 0 -0.9807856
vn 0.1950905 0 0.9807856
vn 0.7071071 0 0.7071069
vn 0.9807856 0 0.1950903
vn 0.9807856 0 -0.1950905
vn -0.7044183 -0.709785 -8.524469E-15
vn -0.6253797 -0.7803205 -7.567989E-15
vn -0.4472136 -0.8944272 -5.411924E-15
vn -0.2490286 -0.9684961 -3.013603E-15
vn -0.1451771 -0.9894057 -1.75685E-15
vn 0.6961467 -0.6908831 0.1950903
vn 0.709785 -0.7044183 8.589415E-15
vn 0.1384722 -0.1374252 0.9807853
vn 0.5018938 -0.4980989 0.7071068
vn -0.7044183 -0.709785 0
vn -0.6253797 -0.7803205 0
vn -0.4472136 -0.8944272 0
vn -0.2490286 -0.9684961 0
vn -0.1451771 -0.9894057 0
vn 0.6961467 -0.6908831 -0.1950903
vn 0.709785 -0.7044183 0
vn 0.1384722 -0.1374252 -0.9807853
vn 0.5018938 -0.4980989 -0.7071068
vn -0.709785 -0.7044183 0
vn 0.7044183 -0.709785 0
vn 0.6253797 -0.7803205 0
vn 0.4472136 -0.8944272 0
vn 0.2490286 -0.9684961 0
vn 0.1451771 -0.9894057 0
vn -0.6961467 -0.6908831 -0.1950903
vn -0.1384722 -0.1374252 -0.9807853
vn -0.5018938 -0.4980989 -0.7071068
vn 0.7044183 -0.709785 -8.524469E-15
vn 0.6253797 -0.7803205 -7.567989E-15
vn 0.4472136 -0.8944272 -5.411924E-15
vn 0.2490286 -0.9684961 -3.013603E-15
vn 0.1451771 -0.9894057 -1.75685E-15
vn -0.6961467 -0.6908831 0.1950903
vn -0.709785 -0.7044183 8.589415E-15
vn -0.1384722 -0.1374252 0.9807853
vn -0.5018938 -0.4980989 0.7071068
vn 0 -0.8944272 0.4472136
vn 0 -0.8944272 -0.4472136
vn 0.1950903 -0.6284357 0.7529997
vn -0.1950903 -0.6284357 0.7529997
vn -0.9807853 -0.1250036 -0.1497809
vn -0.9807853 -0.1250036 0.1497809
vn -0.1950903 -0.6284357 -0.7529997
vn 0.1950903 -0.6284357 -0.7529997
vn 0.9807853 -0.1250036 -0.1497809
vn 0.9807853 -0.1250036 0.1497809
vn -0.7071068 -0.4530768 0.5428824
vn -0.7071068 -0.4530768 -0.5428824
vn 0.7071068 -0.4530768 -0.5428824
vn 0.7071068 -0.4530768 0.5428824
vn 0 -0.7677518 -0.6407474
vn 0 -0.7677518 0.6407474
vn -0.3375581 0.7377116 -0.5846676
vn 0.337558 0.7377116 -0.5846677
vn -0.6751161 0.7377115 8.04801E-08
vn 0.6751161 0.7377115 -8.04801E-08
vn -0.337558 0.7377116 0.5846677
vn 0.3375581 0.7377116 0.5846676
vn -0.4995362 0.04306141 0.8652223
vn 0.4995364 0.04306141 0.8652222
vn -0.4728432 -0.3250801 0.8189887
vn 0.4728433 -0.3250801 0.8189886
vn 0.9456866 -0.3250801 -1.127346E-07
vn 0.9990726 0.04306142 -1.190987E-07
vn -0.9456866 -0.3250801 1.127346E-07
vn -0.9990726 0.04306142 1.190987E-07
vn -0.4728433 -0.3250801 -0.8189886
vn -0.4995364 0.04306141 -0.8652222
vn 0.4728432 -0.3250801 -0.8189887
vn 0.4995362 0.04306141 -0.8652223
vn -0.2675959 0.8447307 -0.4634895
vn 0.2675957 0.8447307 -0.4634895
vn -0.5351916 0.8447307 6.37998E-08
vn 0.5351916 0.8447307 -6.37998E-08
vn -0.2675957 0.8447307 0.4634895
vn 0.2675959 0.8447307 0.4634895
vn -0.4990337 0.06213726 0.8643521
vn 0.4990339 0.06213726 0.864352
vn -0.4478337 -0.4447244 0.775671
vn 0.4478339 -0.4447244 0.7756709
vn 0.8956676 -0.4447243 -1.067719E-07
vn 0.9980678 0.06213727 -1.189789E-07
vn -0.8956676 -0.4447243 1.067719E-07
vn -0.9980678 0.06213727 1.189789E-07
vn -0.4478339 -0.4447244 -0.7756709
vn -0.4990339 0.06213726 -0.864352
vn 0.4478337 -0.4447244 -0.775671
vn 0.4990337 0.06213726 -0.8643521

vt 0.96875 0.3
vt 0.96875 0.475
vt 0.96875 0.275
vt 0.96875 0.3453487
vt 0.96875 0.4486705
vt 0.96875 0.3992097
vt 0.96875 0.434172
vt 0.96875 0.355
vt 0.96875 0.415
vt 0.96875 0.425
vt 0.96875 0.4025503
vt 0.96875 0.4433132
vt 0.96875 0.4579296
vt 0.96875 0.4134482
vt 0.96875 0.4023724
vt 0.96875 0.3414552
vt 0.96875 0.3303793
vt 0.59375 0.275
vt 0.59375 0.3
vt 0.59375 0.2934903
vt 0.59375 0.3657912
vt 0.59375 0.4595442
vt 0.59375 0.475
vt 0.59375 0.4226415
vt 0.59375 0.4615942
vt 0.59375 0.4295862
vt 0.59375 0.3802764
vt 0.59375 0.3175654
vt 0.59375 0.2910378
vt 0.59375 0.4469048
vt 0.59375 0.4609524
vt 0.59375 0.395
vt 0.59375 0.425
vt 0.59375 0.325
vt 0.59375 0.3972222
vt 0.59375 0.41
vt 0.59375 0.415
vt 0.59375 0.4585814
vt 0.59375 0.4153056
vt 0.59375 0.40276
vt 0.59375 0.3975635
vt 0.59375 0.3414552
vt 0.59375 0.4023724
vt 0.59375 0.3303793
vt 0.59375 0.4134482
vt 0.59375 0.3469931
vt 0.59375 0.3968344
vt 0.59375 0.315
vt 0.59375 0.3435714
vt 0.59375 0.355
vt 0.59375 0.3035714
vt 0.71875 0.275
vt 0.71875 0.3453487
vt 0.71875 0.3992097
vt 0.71875 0.434172
vt 0.71875 0.4486705
vt 0.71875 0.2934903
vt 0.71875 0.3657912
vt 0.71875 0.4226415
vt 0.71875 0.4595442
vt 0.71875 0.475
vt 0.71875 0.2910378
vt 0.71875 0.3015276
vt 0.71875 0.41
vt 0.71875 0.4579296
vt 0.71875 0.4433132
vt 0.71875 0.3848082
vt 0.71875 0.3975635
vt 0.71875 0.4153056
vt 0.71875 0.4585814
vt 0.71875 0.4025503
vt 0.71875 0.3900048
vt 0.71875 0.40276
vt 0.09375 0.645
vt 0.21875 0.225
vt 0.21875 0.1195687
vt 0.21875 0.025
vt 0.59375 0.065
vt 0.59375 0.09357143

usemtl colormap

f 3/2/1 2/1/1 1/1/1
f 2/1/1 3/2/1 4/2/1
f 7/2/2 6/1/2 5/1/2
f 6/1/2 7/2/2 8/2/2
f 14/2/3 13/1/3 11/2/3
f 9/1/3 11/2/3 13/1/3
f 12/2/1 11/2/1 10/1/1
f 9/1/1 10/1/1 11/2/1
f 20/7/4 18/5/4 19/6/4
f 19/6/4 18/5/4 16/4/4
f 18/5/4 17/3/4 16/4/4
f 15/3/4 16/4/4 17/3/4
f 23/3/5 22/4/5 21/3/5
f 22/4/5 23/3/5 24/5/5
f 22/4/5 24/5/5 25/6/5
f 25/6/5 24/5/5 26/7/5
f 32/7/5 30/5/5 31/6/5
f 31/6/5 30/5/5 28/4/5
f 30/5/5 29/3/5 28/4/5
f 27/3/5 28/4/5 29/3/5
f 35/3/6 34/4/6 33/3/6
f 34/4/6 35/3/6 36/5/6
f 34/4/6 36/5/6 37/6/6
f 37/6/6 36/5/6 38/7/6
f 41/3/7 40/8/7 39/3/7
f 40/8/7 41/3/7 42/8/7
f 44/3/5 40/8/5 43/8/5
f 40/8/5 44/3/5 39/3/5
f 47/3/8 46/8/8 45/3/8
f 46/8/8 47/3/8 48/8/8
f 50/3/2 46/8/2 49/8/2
f 46/8/2 50/3/2 45/3/2
f 53/3/1 52/8/1 51/8/1
f 52/8/1 53/3/1 54/3/1
f 57/3/2 56/8/2 55/8/2
f 56/8/2 57/3/2 58/3/2
f 59/3/10 64/3/10 60/8/10
f 63/8/10 60/8/10 64/3/10
f 62/8/9 61/3/9 60/8/9
f 59/3/9 60/8/9 61/3/9
f 65/3/2 70/3/2 66/8/2
f 69/8/2 66/8/2 70/3/2
f 68/8/11 67/3/11 66/8/11
f 65/3/11 66/8/11 67/3/11
f 82/1/13 72/1/13 81/9/13
f 71/2/13 81/9/13 72/1/13
f 80/10/13 81/9/13 71/2/13
f 77/2/13 80/10/13 71/2/13
f 80/10/13 77/2/13 79/10/13
f 79/10/13 77/2/13 78/9/13
f 78/9/13 77/2/13 76/1/13
f 75/1/13 76/1/13 77/2/13
f 74/1/12 73/2/12 72/1/12
f 71/2/12 72/1/12 73/2/12
f 85/11/5 84/3/5 83/3/5
f 84/3/5 85/11/5 86/11/5
f 89/11/14 88/3/14 87/3/14
f 88/3/14 89/11/14 90/11/14
f 91/12/7 84/3/7 86/11/7
f 84/3/7 91/12/7 87/3/7
f 87/3/7 91/12/7 92/13/7
f 87/3/7 92/13/7 93/12/7
f 87/3/7 93/12/7 89/11/7
f 96/13/15 95/14/15 94/12/15
f 94/12/15 95/14/15 90/11/15
f 97/12/15 95/14/15 96/13/15
f 90/11/15 95/14/15 98/15/15
f 97/12/15 99/14/15 95/14/15
f 97/12/15 100/15/15 99/14/15
f 85/11/15 100/15/15 97/12/15
f 100/15/15 85/11/15 101/16/15
f 83/3/15 101/16/15 85/11/15
f 101/16/15 83/3/15 102/17/15
f 90/11/15 98/15/15 88/3/15
f 102/17/15 83/3/15 88/3/15
f 103/16/15 88/3/15 98/15/15
f 102/17/15 88/3/15 104/17/15
f 104/17/15 88/3/15 103/16/15
f 118/1/15 117/2/15 115/1/15
f 113/2/15 115/1/15 117/2/15
f 116/1/5 115/1/5 114/9/5
f 113/2/5 114/9/5 115/1/5
f 112/10/5 114/9/5 113/2/5
f 106/2/5 112/10/5 113/2/5
f 112/10/5 106/2/5 111/10/5
f 111/10/5 106/2/5 110/9/5
f 110/9/5 106/2/5 109/1/5
f 105/1/5 109/1/5 106/2/5
f 108/2/7 107/1/7 106/2/7
f 105/1/7 106/2/7 107/1/7
f 121/18/16 120/18/16 119/18/16
f 120/18/16 121/18/16 122/18/16
f 123/19/1 119/18/1 120/18/1
f 119/18/1 123/19/1 124/19/1
f 123/19/17 2/19/17 124/19/17
f 2/19/17 123/19/17 1/19/17
f 127/18/16 126/18/16 125/18/16
f 126/18/16 127/18/16 128/18/16
f 129/19/2 125/18/2 126/18/2
f 125/18/2 129/19/2 130/19/2
f 129/19/17 6/19/17 130/19/17
f 6/19/17 129/19/17 5/19/17
f 138/19/17 136/19/17 13/19/17
f 13/19/17 136/19/17 9/19/17
f 136/19/17 133/19/17 9/19/17
f 9/19/17 133/19/17 10/19/17
f 134/19/17 10/19/17 133/19/17
f 135/18/16 137/18/16 131/18/16
f 131/18/16 137/18/16 132/18/16
f 139/18/16 132/18/16 137/18/16
f 133/19/18 136/19/19 131/18/18
f 135/18/19 131/18/18 136/19/19
f 138/19/3 137/18/3 136/19/19
f 135/18/19 136/19/19 137/18/3
f 134/19/1 133/19/18 132/18/1
f 131/18/18 132/18/1 133/19/18
f 152/24/24 146/21/21 151/24/24
f 145/21/21 151/24/24 146/21/21
f 147/22/22 152/24/24 148/22/22
f 151/24/24 148/22/22 152/24/24
f 150/23/23 149/23/23 148/22/22
f 147/22/22 148/22/22 149/23/23
f 146/21/21 144/20/20 145/21/21
f 145/21/21 144/20/20 141/20/20
f 144/20/20 143/18/20 141/20/20
f 143/18/20 142/18/20 141/20/20
f 140/18/20 141/20/20 142/18/20
f 155/18/25 154/20/25 153/18/25
f 154/20/25 155/18/25 156/18/25
f 154/20/25 156/18/25 157/20/25
f 154/20/25 157/20/25 158/21/26
f 158/21/26 157/20/25 159/21/26
f 162/22/27 161/23/28 160/22/27
f 161/23/28 162/22/27 163/23/28
f 165/24/29 160/22/27 164/24/29
f 160/22/27 165/24/29 162/22/27
f 159/21/26 164/24/29 158/21/26
f 164/24/29 159/21/26 165/24/29
f 171/26/29 170/26/29 169/25/27
f 168/25/27 169/25/27 170/26/29
f 177/29/25 176/29/25 175/28/25
f 174/28/25 175/28/25 176/29/25
f 175/28/25 174/28/25 173/27/26
f 172/27/26 173/27/26 174/28/25
f 173/27/26 172/27/26 171/26/29
f 170/26/29 171/26/29 172/27/26
f 169/25/27 168/25/27 167/23/28
f 166/23/28 167/23/28 168/25/27
f 178/25/31 167/23/30 166/23/30
f 167/23/30 178/25/31 179/25/31
f 182/27/33 181/26/32 180/26/32
f 181/26/32 182/27/33 183/27/33
f 184/28/34 183/27/33 182/27/33
f 183/27/33 184/28/34 185/28/34
f 186/29/34 185/28/34 184/28/34
f 185/28/34 186/29/34 187/29/34
f 180/26/32 179/25/31 178/25/31
f 179/25/31 180/26/32 181/26/32
f 199/24/32 194/21/33 200/24/32
f 193/21/33 200/24/32 194/21/33
f 196/22/31 195/22/31 200/24/32
f 199/24/32 200/24/32 195/22/31
f 198/23/30 197/23/30 196/22/31
f 195/22/31 196/22/31 197/23/30
f 194/21/33 192/20/34 193/21/33
f 193/21/33 192/20/34 189/20/34
f 192/20/34 191/18/34 189/20/34
f 191/18/34 190/18/34 189/20/34
f 188/18/34 189/20/34 190/18/34
f 203/18/35 202/20/35 201/18/35
f 202/20/35 203/18/35 204/18/35
f 202/20/35 204/18/35 205/20/35
f 202/20/35 205/20/35 206/21/36
f 206/21/36 205/20/35 207/21/36
f 210/23/38 209/22/37 208/22/37
f 209/22/37 210/23/38 211/23/38
f 213/24/39 209/22/37 212/24/39
f 209/22/37 213/24/39 208/22/37
f 207/21/36 212/24/39 206/21/36
f 212/24/39 207/21/36 213/24/39
f 216/31/7 215/30/41 214/30/40
f 215/30/41 216/31/7 217/31/42
f 220/30/44 219/31/15 218/30/43
f 219/31/15 220/30/44 221/31/45
f 215/30/42 223/32/14 222/32/42
f 223/32/14 215/30/42 224/30/14
f 216/31/7 226/30/47 225/31/46
f 226/30/47 216/31/7 214/30/40
f 227/31/14 220/30/44 224/30/48
f 220/30/44 227/31/14 221/31/45
f 229/31/5 226/30/47 228/30/49
f 226/30/47 229/31/5 225/31/46
f 231/31/51 228/30/49 230/30/50
f 228/30/49 231/31/51 229/31/5
f 233/23/53 216/31/7 232/23/52
f 216/31/7 233/23/53 217/31/42
f 224/30/14 234/32/45 223/32/14
f 234/32/45 224/30/14 220/30/45
f 230/30/51 236/32/5 235/32/51
f 236/32/5 230/30/51 228/30/5
f 237/32/15 230/30/51 235/32/51
f 230/30/51 237/32/15 218/30/15
f 217/31/42 224/30/48 215/30/41
f 224/30/48 217/31/42 227/31/14
f 238/23/54 229/31/5 231/31/51
f 229/31/5 238/23/54 239/23/55
f 240/23/56 216/31/7 225/31/46
f 216/31/7 240/23/56 232/23/52
f 239/23/55 225/31/46 229/31/5
f 225/31/46 239/23/55 240/23/56
f 230/30/50 219/31/15 231/31/51
f 219/31/15 230/30/50 218/30/43
f 241/23/57 221/31/45 227/31/14
f 221/31/45 241/23/57 242/23/58
f 219/31/15 238/23/54 231/31/51
f 238/23/54 219/31/15 243/23/59
f 240/23/17 233/23/17 232/23/17
f 233/23/17 240/23/17 239/23/17
f 233/23/17 239/23/17 241/23/17
f 241/23/17 239/23/17 238/23/17
f 241/23/17 238/23/17 242/23/17
f 242/23/17 238/23/17 243/23/17
f 214/30/7 244/32/46 226/30/46
f 244/32/46 214/30/7 245/32/7
f 228/30/5 244/32/46 236/32/5
f 244/32/46 228/30/5 226/30/46
f 219/31/15 242/23/58 243/23/59
f 242/23/58 219/31/15 221/31/45
f 215/30/42 245/32/7 214/30/7
f 245/32/7 215/30/42 222/32/42
f 233/23/53 227/31/14 217/31/42
f 227/31/14 233/23/53 241/23/57
f 234/32/45 218/30/15 237/32/15
f 218/30/15 234/32/45 220/30/45
f 248/31/7 247/30/41 246/30/40
f 247/30/41 248/31/7 249/31/42
f 252/30/44 251/31/15 250/30/43
f 251/31/15 252/30/44 253/31/45
f 247/30/42 255/32/14 254/32/42
f 255/32/14 247/30/42 256/30/14
f 248/31/7 258/30/47 257/31/46
f 258/30/47 248/31/7 246/30/40
f 259/31/14 252/30/44 256/30/48
f 252/30/44 259/31/14 253/31/45
f 261/31/5 258/30/47 260/30/49
f 258/30/47 261/31/5 257/31/46
f 263/31/51 260/30/49 262/30/50
f 260/30/49 263/31/51 261/31/5
f 265/23/53 248/31/7 264/23/52
f 248/31/7 265/23/53 249/31/42
f 256/30/14 266/32/45 255/32/14
f 266/32/45 256/30/14 252/30/45
f 262/30/51 268/32/5 267/32/51
f 268/32/5 262/30/51 260/30/5
f 269/32/15 262/30/51 267/32/51
f 262/30/51 269/32/15 250/30/15
f 249/31/42 256/30/48 247/30/41
f 256/30/48 249/31/42 259/31/14
f 270/23/54 261/31/5 263/31/51
f 261/31/5 270/23/54 271/23/55
f 272/23/56 248/31/7 257/31/46
f 248/31/7 272/23/56 264/23/52
f 271/23/55 257/31/46 261/31/5
f 257/31/46 271/23/55 272/23/56
f 262/30/50 251/31/15 263/31/51
f 251/31/15 262/30/50 250/30/43
f 273/23/57 253/31/45 259/31/14
f 253/31/45 273/23/57 274/23/58
f 251/31/15 270/23/54 263/31/51
f 270/23/54 251/31/15 275/23/59
f 272/23/17 265/23/17 264/23/17
f 265/23/17 272/23/17 271/23/17
f 265/23/17 271/23/17 273/23/17
f 273/23/17 271/23/17 270/23/17
f 273/23/17 270/23/17 274/23/17
f 274/23/17 270/23/17 275/23/17
f 246/30/7 276/32/46 258/30/46
f 276/32/46 246/30/7 277/32/7
f 260/30/5 276/32/46 268/32/5
f 276/32/46 260/30/5 258/30/46
f 251/31/15 274/23/58 275/23/59
f 274/23/58 251/31/15 253/31/45
f 247/30/42 277/32/7 246/30/7
f 277/32/7 247/30/42 254/32/42
f 265/23/53 259/31/14 249/31/42
f 259/31/14 265/23/53 273/23/57
f 266/32/45 250/30/15 269/32/15
f 250/30/15 266/32/45 252/30/45
f 280/34/60 279/33/5 278/33/60
f 279/33/5 280/34/60 281/34/5
f 284/34/61 283/33/7 282/34/7
f 283/33/7 284/34/61 285/33/61
f 281/34/5 286/33/62 279/33/5
f 286/33/62 281/34/5 287/34/62
f 282/34/7 286/33/62 287/34/62
f 286/33/62 282/34/7 283/33/7
f 284/34/61 288/33/14 285/33/61
f 288/33/14 284/34/61 289/34/14
f 289/34/14 290/33/63 288/33/14
f 290/33/63 289/34/14 291/34/63
f 290/33/63 293/34/15 292/33/15
f 293/34/15 290/33/63 291/34/63
f 292/33/15 280/34/60 278/33/60
f 280/34/60 292/33/15 293/34/15
f 285/33/16 286/33/16 283/33/16
f 286/33/16 285/33/16 288/33/16
f 286/33/16 288/33/16 279/33/16
f 279/33/16 288/33/16 290/33/16
f 279/33/16 290/33/16 278/33/16
f 278/33/16 290/33/16 292/33/16
f 296/34/16 295/34/16 294/34/16
f 295/34/16 296/34/16 297/34/16
f 300/33/64 299/33/17 298/33/17
f 299/33/17 300/33/64 301/33/64
f 299/33/14 296/34/14 294/34/14
f 296/34/14 299/33/14 302/35/14
f 302/35/14 299/33/14 301/33/14
f 299/33/7 295/34/7 298/33/7
f 295/34/7 299/33/7 294/34/7
f 303/35/5 295/34/5 297/34/5
f 295/34/5 303/35/5 298/33/5
f 298/33/5 303/35/5 300/33/5
f 296/34/15 303/35/65 297/34/15
f 303/35/65 296/34/15 302/35/65
f 302/35/65 300/33/64 303/35/65
f 300/33/64 302/35/65 301/33/64
f 306/34/15 305/33/51 304/34/51
f 305/33/51 306/34/15 307/33/15
f 305/33/51 308/34/5 304/34/51
f 308/34/5 305/33/51 309/33/5
f 312/33/42 311/34/7 310/33/7
f 311/34/7 312/33/42 313/34/42
f 310/33/7 315/34/46 314/33/46
f 315/34/46 310/33/7 311/34/7
f 316/34/45 307/33/15 306/34/15
f 307/33/15 316/34/45 317/33/45
f 319/33/14 316/34/45 318/34/14
f 316/34/45 319/33/14 317/33/45
f 309/33/5 315/34/46 308/34/5
f 315/34/46 309/33/5 314/33/46
f 312/33/42 318/34/14 313/34/42
f 318/34/14 312/33/42 319/33/14
f 314/33/17 312/33/17 310/33/17
f 312/33/17 314/33/17 309/33/17
f 312/33/17 309/33/17 319/33/17
f 319/33/17 309/33/17 305/33/17
f 319/33/17 305/33/17 317/33/17
f 317/33/17 305/33/17 307/33/17
f 313/34/16 315/34/16 311/34/16
f 315/34/16 313/34/16 318/34/16
f 315/34/16 318/34/16 308/34/16
f 308/34/16 318/34/16 316/34/16
f 308/34/16 316/34/16 304/34/16
f 304/34/16 316/34/16 306/34/16
f 322/34/15 321/33/51 320/34/51
f 321/33/51 322/34/15 323/33/15
f 321/33/51 324/34/5 320/34/51
f 324/34/5 321/33/51 325/33/5
f 328/33/42 327/34/7 326/33/7
f 327/34/7 328/33/42 329/34/42
f 326/33/7 331/34/46 330/33/46
f 331/34/46 326/33/7 327/34/7
f 332/34/45 323/33/15 322/34/15
f 323/33/15 332/34/45 333/33/45
f 335/33/14 332/34/45 334/34/14
f 332/34/45 335/33/14 333/33/45
f 325/33/5 331/34/46 324/34/5
f 331/34/46 325/33/5 330/33/46
f 328/33/42 334/34/14 329/34/42
f 334/34/14 328/33/42 335/33/14
f 330/33/17 328/33/17 326/33/17
f 328/33/17 330/33/17 325/33/17
f 328/33/17 325/33/17 335/33/17
f 335/33/17 325/33/17 321/33/17
f 335/33/17 321/33/17 333/33/17
f 333/33/17 321/33/17 323/33/17
f 329/34/16 331/34/16 327/34/16
f 331/34/16 329/34/16 334/34/16
f 331/34/16 334/34/16 324/34/16
f 324/34/16 334/34/16 332/34/16
f 324/34/16 332/34/16 320/34/16
f 320/34/16 332/34/16 322/34/16
f 369/34/12 370/33/12 372/34/79
f 374/33/79 372/34/79 370/33/12
f 371/34/16 367/34/16 372/34/16
f 369/34/16 372/34/16 367/34/16
f 368/33/17 373/33/17 370/33/17
f 374/33/17 370/33/17 373/33/17
f 368/33/66 367/34/66 373/33/78
f 371/34/78 373/33/78 367/34/66
f 374/33/79 373/33/78 372/34/79
f 371/34/78 372/34/79 373/33/78
f 370/33/77 369/34/77 368/33/77
f 367/34/77 368/33/77 369/34/77
f 363/23/13 365/23/13 360/18/13
f 362/18/13 360/18/13 365/23/13
f 366/23/76 365/23/76 364/23/75
f 363/23/75 364/23/75 365/23/76
f 366/23/76 361/18/74 365/23/76
f 362/18/74 365/23/76 361/18/74
f 359/18/73 364/23/75 360/18/73
f 363/23/75 360/18/73 364/23/75
f 362/18/74 361/18/74 360/18/73
f 359/18/73 360/18/73 361/18/74
f 351/18/16 358/18/16 341/18/16
f 341/18/16 358/18/16 343/18/16
f 343/18/16 358/18/16 338/18/16
f 338/18/16 357/18/16 336/18/16
f 338/18/16 358/18/16 357/18/16
f 357/18/16 358/18/16 345/18/16
f 347/18/16 345/18/16 358/18/16
f 78/37/68 350/37/68 79/33/71
f 353/33/71 79/33/71 350/37/68
f 81/37/72 80/33/70 352/37/72
f 354/33/70 352/37/72 80/33/70
f 82/19/12 81/37/72 355/19/12
f 352/37/72 355/19/12 81/37/72
f 79/33/71 353/33/71 80/33/70
f 354/33/70 80/33/70 353/33/71
f 82/19/17 355/19/17 72/19/17
f 355/19/17 356/19/17 72/19/17
f 72/19/17 356/19/17 74/19/17
f 356/19/17 344/19/17 74/19/17
f 346/19/17 74/19/17 344/19/17
f 345/18/67 344/19/67 357/18/69
f 356/19/69 357/18/69 344/19/67
f 357/18/69 356/19/69 336/18/13
f 355/19/13 336/18/13 356/19/69
f 336/18/13 355/19/13 337/36/13
f 352/37/13 337/36/13 355/19/13
f 354/33/13 353/33/13 352/37/13
f 353/33/13 350/37/13 352/37/13
f 350/37/13 337/36/13 352/37/13
f 337/36/13 350/37/13 340/36/13
f 350/37/13 348/19/13 340/36/13
f 340/36/13 348/19/13 341/18/13
f 348/19/13 349/19/13 341/18/13
f 351/18/13 341/18/13 349/19/13
f 78/37/68 76/19/66 350/37/68
f 348/19/66 350/37/68 76/19/66
f 75/19/17 349/19/17 76/19/17
f 348/19/17 76/19/17 349/19/17
f 347/18/12 346/19/12 345/18/67
f 344/19/67 345/18/67 346/19/12
f 340/36/16 342/36/16 337/36/16
f 339/36/16 337/36/16 342/36/16
f 343/18/12 342/36/12 341/18/12
f 340/36/12 341/18/12 342/36/12
f 339/36/66 338/18/66 337/36/66
f 336/18/66 337/36/66 338/18/66
f 377/23/17 376/38/80 375/23/17
f 376/38/80 377/23/17 378/38/80
f 380/38/81 375/23/17 379/38/81
f 375/23/17 380/38/81 377/23/17
f 378/38/80 381/39/82 376/38/80
f 381/39/82 378/38/80 382/40/82
f 382/40/82 378/38/80 383/41/82
f 383/41/82 378/38/80 384/41/82
f 384/41/82 378/38/80 385/40/82
f 385/40/82 378/38/80 386/39/82
f 388/40/83 379/38/81 387/39/83
f 379/38/81 388/40/83 380/38/81
f 380/38/81 388/40/83 389/41/83
f 380/38/81 389/41/83 390/41/83
f 380/38/81 390/41/83 391/40/83
f 380/38/81 391/40/83 392/39/83
f 395/44/15 394/43/15 393/42/15
f 394/43/15 395/44/15 396/45/15
f 396/45/15 395/44/15 397/46/15
f 397/46/15 395/44/15 398/44/15
f 399/47/15 396/45/15 397/46/15
f 397/46/15 398/44/15 400/46/15
f 396/45/15 399/47/15 401/45/15
f 400/46/15 398/44/15 402/47/15
f 401/45/15 399/47/15 402/47/15
f 401/45/15 402/47/15 398/44/15
f 401/45/15 398/44/15 403/42/15
f 401/45/15 403/42/15 404/43/15
f 98/43/85 403/42/84 103/42/84
f 403/42/84 98/43/85 404/43/85
f 402/47/5 405/46/5 400/46/5
f 405/46/5 402/47/5 406/47/5
f 396/45/86 95/45/87 99/45/86
f 95/45/87 396/45/86 401/45/87
f 102/44/89 393/42/88 101/42/88
f 393/42/88 102/44/89 395/44/89
f 408/47/14 397/46/14 407/46/14
f 397/46/14 408/47/14 399/47/14
f 397/46/17 405/46/17 407/46/17
f 405/46/17 397/46/17 400/46/17
f 406/47/16 399/47/16 408/47/16
f 399/47/16 406/47/16 402/47/16
f 104/44/90 395/44/89 102/44/89
f 395/44/89 104/44/90 398/44/90
f 394/43/91 101/42/88 393/42/88
f 101/42/88 394/43/91 100/43/91
f 103/42/84 398/44/90 104/44/90
f 398/44/90 103/42/84 403/42/84
f 396/45/86 100/43/91 394/43/91
f 100/43/91 396/45/86 99/45/86
f 95/45/87 404/43/85 98/43/85
f 404/43/85 95/45/87 401/45/87
f 411/48/92 410/49/93 409/48/92
f 410/49/93 411/48/92 412/49/93
f 412/49/93 413/49/16 410/49/93
f 413/49/16 412/49/93 414/49/94
f 413/49/16 414/49/94 415/49/16
f 415/49/16 414/49/94 416/49/94
f 414/49/94 417/48/95 416/49/94
f 417/48/95 414/49/94 418/48/95
f 419/48/17 411/48/92 409/48/92
f 411/48/92 419/48/17 418/48/95
f 418/48/95 419/48/17 420/48/17
f 418/48/95 420/48/17 417/48/95
f 417/48/2 421/50/2 416/49/2
f 416/49/2 421/50/2 415/49/2
f 417/48/2 422/51/2 421/50/2
f 422/51/2 417/48/2 423/51/2
f 409/48/2 423/51/2 417/48/2
f 409/48/2 417/48/2 420/48/2
f 423/51/2 409/48/2 424/50/2
f 409/48/2 420/48/2 419/48/2
f 415/49/2 419/48/2 420/48/2
f 424/50/2 409/48/2 410/49/2
f 424/50/2 410/49/2 421/50/2
f 419/48/2 415/49/2 413/49/2
f 415/49/2 421/50/2 413/49/2
f 413/49/2 421/50/2 410/49/2
f 453/34/15 454/33/15 456/34/51
f 458/33/51 456/34/51 454/33/15
f 455/34/16 451/34/16 456/34/16
f 453/34/16 456/34/16 451/34/16
f 452/33/17 457/33/17 454/33/17
f 458/33/17 454/33/17 457/33/17
f 452/33/7 451/34/7 457/33/46
f 455/34/46 457/33/46 451/34/7
f 458/33/51 457/33/46 456/34/51
f 455/34/46 456/34/51 457/33/46
f 454/33/14 453/34/14 452/33/14
f 451/34/14 452/33/14 453/34/14
f 438/18/16 439/18/16 440/18/16
f 440/18/16 439/18/16 430/18/16
f 430/18/16 439/18/16 432/18/16
f 432/18/16 439/18/16 427/18/16
f 427/18/16 446/18/16 425/18/16
f 427/18/16 439/18/16 446/18/16
f 446/18/16 439/18/16 448/18/16
f 450/18/16 448/18/16 439/18/16
f 447/19/17 449/19/17 445/19/17
f 118/19/17 445/19/17 449/19/17
f 115/19/17 445/19/17 118/19/17
f 445/19/17 115/19/17 442/19/17
f 116/19/17 442/19/17 115/19/17
f 448/18/103 447/19/103 446/18/102
f 445/19/102 446/18/102 447/19/103
f 450/18/15 449/19/15 448/18/103
f 447/19/103 448/18/103 449/19/15
f 446/18/102 445/19/102 425/18/5
f 442/19/5 425/18/5 445/19/102
f 425/18/5 442/19/5 426/36/5
f 441/37/5 426/36/5 442/19/5
f 443/33/5 444/33/5 441/37/5
f 444/33/5 437/37/5 441/37/5
f 437/37/5 426/36/5 441/37/5
f 426/36/5 437/37/5 429/36/5
f 437/37/5 433/19/5 429/36/5
f 429/36/5 433/19/5 430/18/5
f 433/19/5 434/19/98 430/18/5
f 440/18/98 430/18/5 434/19/98
f 111/33/101 110/37/96 444/33/101
f 437/37/96 444/33/101 110/37/96
f 114/37/99 112/33/100 441/37/99
f 443/33/100 441/37/99 112/33/100
f 111/33/101 444/33/101 112/33/100
f 443/33/100 112/33/100 444/33/101
f 116/19/15 114/37/99 442/19/15
f 441/37/99 442/19/15 114/37/99
f 436/19/97 438/18/97 434/19/98
f 440/18/98 434/19/98 438/18/97
f 435/19/7 439/18/7 436/19/97
f 438/18/97 436/19/97 439/18/7
f 110/37/96 109/19/7 437/37/96
f 433/19/7 437/37/96 109/19/7
f 436/19/17 434/19/17 435/19/17
f 435/19/17 434/19/17 107/19/17
f 107/19/17 434/19/17 105/19/17
f 105/19/17 434/19/17 109/19/17
f 433/19/17 109/19/17 434/19/17
f 429/36/16 431/36/16 426/36/16
f 428/36/16 426/36/16 431/36/16
f 432/18/15 431/36/15 430/18/15
f 429/36/15 430/18/15 431/36/15
f 428/36/7 427/18/7 426/36/7
f 425/18/7 426/36/7 427/18/7
f 461/23/66 460/18/104 459/23/104
f 460/18/104 461/23/66 462/18/66
f 465/23/105 464/18/106 463/18/105
f 464/18/106 465/23/105 466/23/106
f 464/18/106 468/23/78 467/18/78
f 468/23/78 464/18/106 466/23/106
f 459/23/104 467/18/78 468/23/78
f 467/18/78 459/23/104 460/18/104
f 471/18/12 470/23/107 469/18/107
f 470/23/107 471/18/12 472/23/12
f 469/18/107 474/23/79 473/18/79
f 474/23/79 469/18/107 470/23/107
f 474/23/79 463/18/105 473/18/79
f 463/18/105 474/23/79 465/23/105
f 471/18/16 460/18/16 462/18/16
f 460/18/16 471/18/16 467/18/16
f 467/18/16 471/18/16 464/18/16
f 464/18/16 471/18/16 463/18/16
f 463/18/16 471/18/16 473/18/16
f 473/18/16 471/18/16 469/18/16
f 472/23/17 474/23/17 470/23/17
f 475/23/17 474/23/17 472/23/17
f 476/23/17 474/23/17 475/23/17
f 477/23/17 474/23/17 476/23/17
f 477/23/17 465/23/17 474/23/17
f 478/23/17 465/23/17 477/23/17
f 479/23/17 465/23/17 478/23/17
f 479/23/17 466/23/17 465/23/17
f 480/23/17 466/23/17 479/23/17
f 480/23/17 468/23/17 466/23/17
f 468/23/17 480/23/17 481/23/17
f 482/23/17 468/23/17 481/23/17
f 461/23/17 468/23/17 482/23/17
f 468/23/17 461/23/17 459/23/17
f 476/23/109 483/32/108 477/23/108
f 483/32/108 476/23/109 484/32/109
f 475/23/66 484/32/109 476/23/109
f 484/32/109 475/23/66 485/32/66
f 487/32/12 481/23/110 486/32/110
f 481/23/110 487/32/12 482/23/12
f 486/32/110 480/23/111 488/32/111
f 480/23/111 486/32/110 481/23/110
f 480/23/111 489/32/112 488/32/111
f 489/32/112 480/23/111 479/23/112
f 479/23/112 490/32/113 489/32/112
f 490/32/113 479/23/112 478/23/113
f 478/23/113 483/32/108 490/32/113
f 483/32/108 478/23/113 477/23/108
f 144/57/121 492/52/121 143/52/122
f 499/52/122 143/52/122 492/52/121
f 142/52/119 143/52/122 497/52/119
f 499/52/122 497/52/119 143/52/122
f 149/61/4 496/56/4 147/60/4
f 496/56/4 495/55/4 147/60/4
f 147/60/4 495/55/4 152/59/4
f 495/55/4 494/54/4 152/59/4
f 152/59/4 494/54/4 146/58/4
f 494/54/4 493/53/4 146/58/4
f 146/58/4 493/53/4 144/57/121
f 492/52/121 144/57/121 493/53/4
f 16/53/115 15/52/114 493/53/115
f 493/53/115 15/52/114 492/52/114
f 492/52/114 491/52/114 499/52/114
f 491/52/114 498/52/114 499/52/114
f 497/52/114 499/52/114 498/52/114
f 140/52/120 142/52/119 498/52/120
f 497/52/119 498/52/120 142/52/119
f 18/56/118 20/55/117 496/56/118
f 495/55/117 496/56/118 20/55/117
f 20/55/117 19/54/116 495/55/117
f 494/54/116 495/55/117 19/54/116
f 19/54/116 16/53/115 494/54/116
f 493/53/115 494/54/116 16/53/115
f 15/52/114 491/52/114 492/52/114
f 501/52/123 500/52/123 21/52/123
f 22/53/124 503/54/125 502/53/124
f 503/54/125 22/53/124 25/54/125
f 25/54/125 504/55/126 503/54/125
f 504/55/126 25/54/125 26/55/126
f 26/55/126 505/56/127 504/55/126
f 505/56/127 26/55/126 24/56/127
f 153/52/129 506/52/128 155/52/128
f 506/52/128 153/52/129 507/52/129
f 507/52/123 508/52/123 506/52/123
f 508/52/123 507/52/123 500/52/123
f 508/52/123 500/52/123 501/52/123
f 501/52/123 21/52/123 502/53/124
f 502/53/124 21/52/123 22/53/124
f 502/53/5 157/57/130 501/52/130
f 157/57/130 502/53/5 159/58/5
f 159/58/5 502/53/5 503/54/5
f 159/58/5 503/54/5 165/59/5
f 165/59/5 503/54/5 504/55/5
f 165/59/5 504/55/5 162/60/5
f 162/60/5 504/55/5 505/56/5
f 162/60/5 505/56/5 163/61/5
f 156/52/131 506/52/128 508/52/131
f 506/52/128 156/52/131 155/52/128
f 501/52/130 156/52/131 508/52/131
f 156/52/131 501/52/130 157/57/130
f 510/52/123 512/63/123 509/52/123
f 511/63/123 509/52/123 512/63/123
f 510/52/129 509/52/129 177/62/129
f 176/62/129 177/62/129 509/52/129
f 513/52/132 187/62/132 186/62/132
f 187/62/132 513/52/132 514/52/132
f 516/63/133 513/52/133 515/63/133
f 513/52/133 516/63/133 514/52/133
f 192/57/139 518/52/139 191/52/140
f 525/52/140 191/52/140 518/52/139
f 190/52/138 191/52/140 523/52/138
f 525/52/140 523/52/138 191/52/140
f 197/61/5 522/56/5 195/60/5
f 522/56/5 521/55/5 195/60/5
f 195/60/5 521/55/5 199/59/5
f 521/55/5 520/54/5 199/59/5
f 199/59/5 520/54/5 194/58/5
f 520/54/5 519/53/5 194/58/5
f 194/58/5 519/53/5 192/57/139
f 518/52/139 192/57/139 519/53/5
f 519/53/134 28/53/134 518/52/133
f 28/53/134 27/52/133 518/52/133
f 518/52/133 517/52/133 525/52/133
f 517/52/133 524/52/133 525/52/133
f 523/52/133 525/52/133 524/52/133
f 524/52/132 188/52/132 523/52/138
f 190/52/138 523/52/138 188/52/132
f 30/56/137 32/55/136 522/56/137
f 521/55/136 522/56/137 32/55/136
f 521/55/136 32/55/136 520/54/135
f 31/54/135 520/54/135 32/55/136
f 31/54/135 28/53/134 520/54/135
f 519/53/134 520/54/135 28/53/134
f 27/52/133 517/52/133 518/52/133
f 527/52/141 526/52/141 33/52/141
f 34/53/142 529/54/143 528/53/142
f 529/54/143 34/53/142 37/54/143
f 37/54/143 530/55/144 529/54/143
f 530/55/144 37/54/143 38/55/144
f 38/55/144 531/56/145 530/55/144
f 531/56/145 38/55/144 36/56/145
f 203/52/146 533/52/147 532/52/146
f 533/52/147 203/52/146 201/52/147
f 533/52/141 534/52/141 532/52/141
f 534/52/141 533/52/141 526/52/141
f 534/52/141 526/52/141 527/52/141
f 527/52/141 33/52/141 528/53/142
f 528/53/142 33/52/141 34/53/142
f 528/53/6 205/57/148 527/52/148
f 205/57/148 528/53/6 207/58/6
f 207/58/6 528/53/6 529/54/6
f 207/58/6 529/54/6 213/59/6
f 213/59/6 529/54/6 530/55/6
f 213/59/6 530/55/6 208/60/6
f 208/60/6 530/55/6 531/56/6
f 208/60/6 531/56/6 210/61/6
f 204/52/149 532/52/146 534/52/149
f 532/52/146 204/52/149 203/52/146
f 527/52/148 204/52/149 534/52/149
f 204/52/149 527/52/148 205/57/148
f 339/64/13 342/64/13 338/52/13
f 343/52/13 338/52/13 342/64/13
f 535/65/16 97/66/150 96/65/16
f 97/66/150 535/65/16 536/66/150
f 537/66/151 96/65/16 94/66/151
f 96/65/16 537/66/151 535/65/16
f 539/66/151 92/65/16 538/65/16
f 92/65/16 539/66/151 93/66/151
f 92/65/16 540/66/150 538/65/16
f 540/66/150 92/65/16 91/66/150
f 383/68/152 542/67/153 541/67/152
f 542/67/153 383/68/152 384/68/153
f 543/71/154 380/70/15 392/69/154
f 380/70/15 543/71/154 536/66/15
f 380/70/15 536/66/15 377/61/15
f 377/61/15 536/66/15 535/65/15
f 377/61/15 535/65/15 537/66/15
f 377/61/15 537/66/15 378/70/15
f 378/70/15 537/66/15 544/71/155
f 378/70/15 544/71/155 386/69/155
f 390/68/156 546/67/157 545/67/156
f 546/67/157 390/68/156 389/68/157
f 379/70/7 547/71/158 387/69/158
f 547/71/158 379/70/7 540/66/7
f 540/66/7 379/70/7 375/61/7
f 540/66/7 375/61/7 538/65/7
f 538/65/7 375/61/7 376/70/7
f 538/65/7 376/70/7 539/66/7
f 539/66/7 376/70/7 548/71/159
f 548/71/159 376/70/7 381/69/159
f 384/68/153 549/72/160 542/67/153
f 549/72/160 384/68/153 385/73/160
f 549/72/160 386/69/155 544/71/155
f 386/69/155 549/72/160 385/73/160
f 550/72/161 390/68/156 545/67/156
f 390/68/156 550/72/161 391/73/161
f 550/72/161 392/69/154 391/73/161
f 392/69/154 550/72/161 543/71/154
f 387/69/158 551/72/162 388/73/162
f 551/72/162 387/69/158 547/71/158
f 389/68/157 551/72/162 546/67/157
f 551/72/162 389/68/157 388/73/162
f 381/69/159 552/72/163 548/71/159
f 552/72/163 381/69/159 382/73/163
f 552/72/163 383/68/152 541/67/152
f 383/68/152 552/72/163 382/73/163
f 537/66/151 549/72/164 544/71/164
f 94/66/151 549/72/164 537/66/151
f 90/71/164 549/72/164 94/66/151
f 90/71/164 542/67/164 549/72/164
f 89/71/164 542/67/164 90/71/164
f 542/67/164 89/71/164 541/67/164
f 93/66/151 541/67/164 89/71/164
f 93/66/151 552/72/164 541/67/164
f 539/66/151 552/72/164 93/66/151
f 552/72/164 539/66/151 548/71/164
f 536/66/150 85/71/165 97/66/150
f 85/71/165 536/66/150 545/67/165
f 545/67/165 536/66/150 550/72/165
f 550/72/165 536/66/150 543/71/165
f 546/67/165 85/71/165 545/67/165
f 546/67/165 86/71/165 85/71/165
f 546/67/165 91/66/150 86/71/165
f 551/72/165 91/66/150 546/67/165
f 547/71/165 91/66/150 551/72/165
f 91/66/150 547/71/165 540/66/150
f 428/52/5 554/52/5 427/61/5
f 553/61/5 427/61/5 554/52/5
f 488/74/17 487/74/17 486/74/17
f 487/74/17 488/74/17 485/74/17
f 485/74/17 488/74/17 489/74/17
f 485/74/17 489/74/17 490/74/17
f 485/74/17 490/74/17 483/74/17
f 485/74/17 483/74/17 484/74/17
f 557/75/168 556/75/167 555/75/166
f 556/75/167 557/75/168 558/75/169
f 558/75/169 557/75/168 559/75/170
f 558/75/169 559/75/170 560/75/171
f 563/77/174 562/76/173 561/76/172
f 562/76/173 563/77/174 564/77/175
f 566/76/177 564/77/175 565/77/176
f 564/77/175 566/76/177 562/76/173
f 561/76/172 567/77/178 563/77/174
f 567/77/178 561/76/172 568/76/179
f 568/76/179 569/77/180 567/77/178
f 569/77/180 568/76/179 570/76/181
f 572/76/183 565/77/176 571/77/182
f 565/77/176 572/76/183 566/76/177
f 572/76/183 569/77/180 570/76/181
f 569/77/180 572/76/183 571/77/182
f 562/76/173 559/75/170 561/76/172
f 559/75/170 562/76/173 560/75/171
f 556/75/167 566/76/177 572/76/183
f 566/76/177 556/75/167 558/75/169
f 555/75/166 572/76/183 570/76/181
f 572/76/183 555/75/166 556/75/167
f 558/75/169 562/76/173 566/76/177
f 562/76/173 558/75/169 560/75/171
f 557/75/168 570/76/181 568/76/179
f 570/76/181 557/75/168 555/75/166
f 559/75/170 568/76/179 561/76/172
f 568/76/179 559/75/170 557/75/168
f 575/75/186 574/75/185 573/75/184
f 574/75/185 575/75/186 576/75/187
f 576/75/187 575/75/186 577/75/188
f 576/75/187 577/75/188 578/75/189
f 581/77/192 580/76/191 579/76/190
f 580/76/191 581/77/192 582/77/193
f 584/76/195 582/77/193 583/77/194
f 582/77/193 584/76/195 580/76/191
f 579/76/190 585/77/196 581/77/192
f 585/77/196 579/76/190 586/76/197
f 586/76/197 587/77/198 585/77/196
f 587/77/198 586/76/197 588/76/199
f 590/76/201 583/77/194 589/77/200
f 583/77/194 590/76/201 584/76/195
f 590/76/201 587/77/198 588/76/199
f 587/77/198 590/76/201 589/77/200
f 580/76/191 577/75/188 579/76/190
f 577/75/188 580/76/191 578/75/189
f 574/75/185 584/76/195 590/76/201
f 584/76/195 574/75/185 576/75/187
f 573/75/184 590/76/201 588/76/199
f 590/76/201 573/75/184 574/75/185
f 576/75/187 580/76/191 584/76/195
f 580/76/191 576/75/187 578/75/189
f 575/75/186 588/76/199 586/76/197
f 588/76/199 575/75/186 573/75/184
f 577/75/188 586/76/197 579/76/190
f 586/76/197 577/75/188 575/75/186

usemtl colormap-specular

f 414/79/2 411/78/2 418/78/2
f 411/78/2 414/79/2 412/79/2

g building-j




usemtl colormap

f 3/2/1 2/1/1 1/1/1
f 2/1/1 3/2/1 4/2/1
f 7/2/2 6/1/2 5/1/2
f 6/1/2 7/2/2 8/2/2
f 14/2/3 13/1/3 11/2/3
f 9/1/3 11/2/3 13/1/3
f 12/2/1 11/2/1 10/1/1
f 9/1/1 10/1/1 11/2/1
f 20/7/4 18/5/4 19/6/4
f 19/6/4 18/5/4 16/4/4
f 18/5/4 17/3/4 16/4/4
f 15/3/4 16/4/4 17/3/4
f 23/3/5 22/4/5 21/3/5
f 22/4/5 23/3/5 24/5/5
f 22/4/5 24/5/5 25/6/5
f 25/6/5 24/5/5 26/7/5
f 32/7/5 30/5/5 31/6/5
f 31/6/5 30/5/5 28/4/5
f 30/5/5 29/3/5 28/4/5
f 27/3/5 28/4/5 29/3/5
f 35/3/6 34/4/6 33/3/6
f 34/4/6 35/3/6 36/5/6
f 34/4/6 36/5/6 37/6/6
f 37/6/6 36/5/6 38/7/6
f 41/3/7 40/8/7 39/3/7
f 40/8/7 41/3/7 42/8/7
f 44/3/5 40/8/5 43/8/5
f 40/8/5 44/3/5 39/3/5
f 47/3/8 46/8/8 45/3/8
f 46/8/8 47/3/8 48/8/8
f 50/3/2 46/8/2 49/8/2
f 46/8/2 50/3/2 45/3/2
f 53/3/1 52/8/1 51/8/1
f 52/8/1 53/3/1 54/3/1
f 57/3/2 56/8/2 55/8/2
f 56/8/2 57/3/2 58/3/2
f 59/3/10 64/3/10 60/8/10
f 63/8/10 60/8/10 64/3/10
f 62/8/9 61/3/9 60/8/9
f 59/3/9 60/8/9 61/3/9
f 65/3/2 70/3/2 66/8/2
f 69/8/2 66/8/2 70/3/2
f 68/8/11 67/3/11 66/8/11
f 65/3/11 66/8/11 67/3/11
f 82/1/13 72/1/13 81/9/13
f 71/2/13 81/9/13 72/1/13
f 80/10/13 81/9/13 71/2/13
f 77/2/13 80/10/13 71/2/13
f 80/10/13 77/2/13 79/10/13
f 79/10/13 77/2/13 78/9/13
f 78/9/13 77/2/13 76/1/13
f 75/1/13 76/1/13 77/2/13
f 74/1/12 73/2/12 72/1/12
f 71/2/12 72/1/12 73/2/12
f 85/11/5 84/3/5 83/3/5
f 84/3/5 85/11/5 86/11/5
f 89/11/14 88/3/14 87/3/14
f 88/3/14 89/11/14 90/11/14
f 91/12/7 84/3/7 86/11/7
f 84/3/7 91/12/7 87/3/7
f 87/3/7 91/12/7 92/13/7
f 87/3/7 92/13/7 93/12/7
f 87/3/7 93/12/7 89/11/7
f 96/13/15 95/14/15 94/12/15
f 94/12/15 95/14/15 90/11/15
f 97/12/15 95/14/15 96/13/15
f 90/11/15 95/14/15 98/15/15
f 97/12/15 99/14/15 95/14/15
f 97/12/15 100/15/15 99/14/15
f 85/11/15 100/15/15 97/12/15
f 100/15/15 85/11/15 101/16/15
f 83/3/15 101/16/15 85/11/15
f 101/16/15 83/3/15 102/17/15
f 90/11/15 98/15/15 88/3/15
f 102/17/15 83/3/15 88/3/15
f 103/16/15 88/3/15 98/15/15
f 102/17/15 88/3/15 104/17/15
f 104/17/15 88/3/15 103/16/15
f 118/1/15 117/2/15 115/1/15
f 113/2/15 115/1/15 117/2/15
f 116/1/5 115/1/5 114/9/5
f 113/2/5 114/9/5 115/1/5
f 112/10/5 114/9/5 113/2/5
f 106/2/5 112/10/5 113/2/5
f 112/10/5 106/2/5 111/10/5
f 111/10/5 106/2/5 110/9/5
f 110/9/5 106/2/5 109/1/5
f 105/1/5 109/1/5 106/2/5
f 108/2/7 107/1/7 106/2/7
f 105/1/7 106/2/7 107/1/7
f 121/18/16 120/18/16 119/18/16
f 120/18/16 121/18/16 122/18/16
f 123/19/1 119/18/1 120/18/1
f 119/18/1 123/19/1 124/19/1
f 123/19/17 2/19/17 124/19/17
f 2/19/17 123/19/17 1/19/17
f 127/18/16 126/18/16 125/18/16
f 126/18/16 127/18/16 128/18/16
f 129/19/2 125/18/2 126/18/2
f 125/18/2 129/19/2 130/19/2
f 129/19/17 6/19/17 130/19/17
f 6/19/17 129/19/17 5/19/17
f 138/19/17 136/19/17 13/19/17
f 13/19/17 136/19/17 9/19/17
f 136/19/17 133/19/17 9/19/17
f 9/19/17 133/19/17 10/19/17
f 134/19/17 10/19/17 133/19/17
f 135/18/16 137/18/16 131/18/16
f 131/18/16 137/18/16 132/18/16
f 139/18/16 132/18/16 137/18/16
f 133/19/18 136/19/19 131/18/18
f 135/18/19 131/18/18 136/19/19
f 138/19/3 137/18/3 136/19/19
f 135/18/19 136/19/19 137/18/3
f 134/19/1 133/19/18 132/18/1
f 131/18/18 132/18/1 133/19/18
f 152/24/24 146/21/21 151/24/24
f 145/21/21 151/24/24 146/21/21
f 147/22/22 152/24/24 148/22/22
f 151/24/24 148/22/22 152/24/24
f 150/23/23 149/23/23 148/22/22
f 147/22/22 148/22/22 149/23/23
f 146/21/21 144/20/20 145/21/21
f 145/21/21 144/20/20 141/20/20
f 144/20/20 143/18/20 141/20/20
f 143/18/20 142/18/20 141/20/20
f 140/18/20 141/20/20 142/18/20
f 155/18/25 154/20/25 153/18/25
f 154/20/25 155/18/25 156/18/25
f 154/20/25 156/18/25 157/20/25
f 154/20/25 157/20/25 158/21/26
f 158/21/26 157/20/25 159/21/26
f 162/22/27 161/23/28 160/22/27
f 161/23/28 162/22/27 163/23/28
f 165/24/29 160/22/27 164/24/29
f 160/22/27 165/24/29 162/22/27
f 159/21/26 164/24/29 158/21/26
f 164/24/29 159/21/26 165/24/29
f 171/26/29 170/26/29 169/25/27
f 168/25/27 169/25/27 170/26/29
f 177/29/25 176/29/25 175/28/25
f 174/28/25 175/28/25 176/29/25
f 175/28/25 174/28/25 173/27/26
f 172/27/26 173/27/26 174/28/25
f 173/27/26 172/27/26 171/26/29
f 170/26/29 171/26/29 172/27/26
f 169/25/27 168/25/27 167/23/28
f 166/23/28 167/23/28 168/25/27
f 178/25/31 167/23/30 166/23/30
f 167/23/30 178/25/31 179/25/31
f 182/27/33 181/26/32 180/26/32
f 181/26/32 182/27/33 183/27/33
f 184/28/34 183/27/33 182/27/33
f 183/27/33 184/28/34 185/28/34
f 186/29/34 185/28/34 184/28/34
f 185/28/34 186/29/34 187/29/34
f 180/26/32 179/25/31 178/25/31
f 179/25/31 180/26/32 181/26/32
f 199/24/32 194/21/33 200/24/32
f 193/21/33 200/24/32 194/21/33
f 196/22/31 195/22/31 200/24/32
f 199/24/32 200/24/32 195/22/31
f 198/23/30 197/23/30 196/22/31
f 195/22/31 196/22/31 197/23/30
f 194/21/33 192/20/34 193/21/33
f 193/21/33 192/20/34 189/20/34
f 192/20/34 191/18/34 189/20/34
f 191/18/34 190/18/34 189/20/34
f 188/18/34 189/20/34 190/18/34
f 203/18/35 202/20/35 201/18/35
f 202/20/35 203/18/35 204/18/35
f 202/20/35 204/18/35 205/20/35
f 202/20/35 205/20/35 206/21/36
f 206/21/36 205/20/35 207/21/36
f 210/23/38 209/22/37 208/22/37
f 209/22/37 210/23/38 211/23/38
f 213/24/39 209/22/37 212/24/39
f 209/22/37 213/24/39 208/22/37
f 207/21/36 212/24/39 206/21/36
f 212/24/39 207/21/36 213/24/39
f 216/31/7 215/30/41 214/30/40
f 215/30/41 216/31/7 217/31/42
f 220/30/44 219/31/15 218/30/43
f 219/31/15 220/30/44 221/31/45
f 215/30/42 223/32/14 222/32/42
f 223/32/14 215/30/42 224/30/14
f 216/31/7 226/30/47 225/31/46
f 226/30/47 216/31/7 214/30/40
f 227/31/14 220/30/44 224/30/48
f 220/30/44 227/31/14 221/31/45
f 229/31/5 226/30/47 228/30/49
f 226/30/47 229/31/5 225/31/46
f 231/31/51 228/30/49 230/30/50
f 228/30/49 231/31/51 229/31/5
f 233/23/53 216/31/7 232/23/52
f 216/31/7 233/23/53 217/31/42
f 224/30/14 234/32/45 223/32/14
f 234/32/45 224/30/14 220/30/45
f 230/30/51 236/32/5 235/32/51
f 236/32/5 230/30/51 228/30/5
f 237/32/15 230/30/51 235/32/51
f 230/30/51 237/32/15 218/30/15
f 217/31/42 224/30/48 215/30/41
f 224/30/48 217/31/42 227/31/14
f 238/23/54 229/31/5 231/31/51
f 229/31/5 238/23/54 239/23/55
f 240/23/56 216/31/7 225/31/46
f 216/31/7 240/23/56 232/23/52
f 239/23/55 225/31/46 229/31/5
f 225/31/46 239/23/55 240/23/56
f 230/30/50 219/31/15 231/31/51
f 219/31/15 230/30/50 218/30/43
f 241/23/57 221/31/45 227/31/14
f 221/31/45 241/23/57 242/23/58
f 219/31/15 238/23/54 231/31/51
f 238/23/54 219/31/15 243/23/59
f 240/23/17 233/23/17 232/23/17
f 233/23/17 240/23/17 239/23/17
f 233/23/17 239/23/17 241/23/17
f 241/23/17 239/23/17 238/23/17
f 241/23/17 238/23/17 242/23/17
f 242/23/17 238/23/17 243/23/17
f 214/30/7 244/32/46 226/30/46
f 244/32/46 214/30/7 245/32/7
f 228/30/5 244/32/46 236/32/5
f 244/32/46 228/30/5 226/30/46
f 219/31/15 242/23/58 243/23/59
f 242/23/58 219/31/15 221/31/45
f 215/30/42 245/32/7 214/30/7
f 245/32/7 215/30/42 222/32/42
f 233/23/53 227/31/14 217/31/42
f 227/31/14 233/23/53 241/23/57
f 234/32/45 218/30/15 237/32/15
f 218/30/15 234/32/45 220/30/45
f 248/31/7 247/30/41 246/30/40
f 247/30/41 248/31/7 249/31/42
f 252/30/44 251/31/15 250/30/43
f 251/31/15 252/30/44 253/31/45
f 247/30/42 255/32/14 254/32/42
f 255/32/14 247/30/42 256/30/14
f 248/31/7 258/30/47 257/31/46
f 258/30/47 248/31/7 246/30/40
f 259/31/14 252/30/44 256/30/48
f 252/30/44 259/31/14 253/31/45
f 261/31/5 258/30/47 260/30/49
f 258/30/47 261/31/5 257/31/46
f 263/31/51 260/30/49 262/30/50
f 260/30/49 263/31/51 261/31/5
f 265/23/53 248/31/7 264/23/52
f 248/31/7 265/23/53 249/31/42
f 256/30/14 266/32/45 255/32/14
f 266/32/45 256/30/14 252/30/45
f 262/30/51 268/32/5 267/32/51
f 268/32/5 262/30/51 260/30/5
f 269/32/15 262/30/51 267/32/51
f 262/30/51 269/32/15 250/30/15
f 249/31/42 256/30/48 247/30/41
f 256/30/48 249/31/42 259/31/14
f 270/23/54 261/31/5 263/31/51
f 261/31/5 270/23/54 271/23/55
f 272/23/56 248/31/7 257/31/46
f 248/31/7 272/23/56 264/23/52
f 271/23/55 257/31/46 261/31/5
f 257/31/46 271/23/55 272/23/56
f 262/30/50 251/31/15 263/31/51
f 251/31/15 262/30/50 250/30/43
f 273/23/57 253/31/45 259/31/14
f 253/31/45 273/23/57 274/23/58
f 251/31/15 270/23/54 263/31/51
f 270/23/54 251/31/15 275/23/59
f 272/23/17 265/23/17 264/23/17
f 265/23/17 272/23/17 271/23/17
f 265/23/17 271/23/17 273/23/17
f 273/23/17 271/23/17 270/23/17
f 273/23/17 270/23/17 274/23/17
f 274/23/17 270/23/17 275/23/17
f 246/30/7 276/32/46 258/30/46
f 276/32/46 246/30/7 277/32/7
f 260/30/5 276/32/46 268/32/5
f 276/32/46 260/30/5 258/30/46
f 251/31/15 274/23/58 275/23/59
f 274/23/58 251/31/15 253/31/45
f 247/30/42 277/32/7 246/30/7
f 277/32/7 247/30/42 254/32/42
f 265/23/53 259/31/14 249/31/42
f 259/31/14 265/23/53 273/23/57
f 266/32/45 250/30/15 269/32/15
f 250/30/15 266/32/45 252/30/45
f 280/34/60 279/33/5 278/33/60
f 279/33/5 280/34/60 281/34/5
f 284/34/61 283/33/7 282/34/7
f 283/33/7 284/34/61 285/33/61
f 281/34/5 286/33/62 279/33/5
f 286/33/62 281/34/5 287/34/62
f 282/34/7 286/33/62 287/34/62
f 286/33/62 282/34/7 283/33/7
f 284/34/61 288/33/14 285/33/61
f 288/33/14 284/34/61 289/34/14
f 289/34/14 290/33/63 288/33/14
f 290/33/63 289/34/14 291/34/63
f 290/33/63 293/34/15 292/33/15
f 293/34/15 290/33/63 291/34/63
f 292/33/15 280/34/60 278/33/60
f 280/34/60 292/33/15 293/34/15
f 285/33/16 286/33/16 283/33/16
f 286/33/16 285/33/16 288/33/16
f 286/33/16 288/33/16 279/33/16
f 279/33/16 288/33/16 290/33/16
f 279/33/16 290/33/16 278/33/16
f 278/33/16 290/33/16 292/33/16
f 296/34/16 295/34/16 294/34/16
f 295/34/16 296/34/16 297/34/16
f 300/33/64 299/33/17 298/33/17
f 299/33/17 300/33/64 301/33/64
f 299/33/14 296/34/14 294/34/14
f 296/34/14 299/33/14 302/35/14
f 302/35/14 299/33/14 301/33/14
f 299/33/7 295/34/7 298/33/7
f 295/34/7 299/33/7 294/34/7
f 303/35/5 295/34/5 297/34/5
f 295/34/5 303/35/5 298/33/5
f 298/33/5 303/35/5 300/33/5
f 296/34/15 303/35/65 297/34/15
f 303/35/65 296/34/15 302/35/65
f 302/35/65 300/33/64 303/35/65
f 300/33/64 302/35/65 301/33/64
f 306/34/15 305/33/51 304/34/51
f 305/33/51 306/34/15 307/33/15
f 305/33/51 308/34/5 304/34/51
f 308/34/5 305/33/51 309/33/5
f 312/33/42 311/34/7 310/33/7
f 311/34/7 312/33/42 313/34/42
f 310/33/7 315/34/46 314/33/46
f 315/34/46 310/33/7 311/34/7
f 316/34/45 307/33/15 306/34/15
f 307/33/15 316/34/45 317/33/45
f 319/33/14 316/34/45 318/34/14
f 316/34/45 319/33/14 317/33/45
f 309/33/5 315/34/46 308/34/5
f 315/34/46 309/33/5 314/33/46
f 312/33/42 318/34/14 313/34/42
f 318/34/14 312/33/42 319/33/14
f 314/33/17 312/33/17 310/33/17
f 312/33/17 314/33/17 309/33/17
f 312/33/17 309/33/17 319/33/17
f 319/33/17 309/33/17 305/33/17
f 319/33/17 305/33/17 317/33/17
f 317/33/17 305/33/17 307/33/17
f 313/34/16 315/34/16 311/34/16
f 315/34/16 313/34/16 318/34/16
f 315/34/16 318/34/16 308/34/16
f 308/34/16 318/34/16 316/34/16
f 308/34/16 316/34/16 304/34/16
f 304/34/16 316/34/16 306/34/16
f 322/34/15 321/33/51 320/34/51
f 321/33/51 322/34/15 323/33/15
f 321/33/51 324/34/5 320/34/51
f 324/34/5 321/33/51 325/33/5
f 328/33/42 327/34/7 326/33/7
f 327/34/7 328/33/42 329/34/42
f 326/33/7 331/34/46 330/33/46
f 331/34/46 326/33/7 327/34/7
f 332/34/45 323/33/15 322/34/15
f 323/33/15 332/34/45 333/33/45
f 335/33/14 332/34/45 334/34/14
f 332/34/45 335/33/14 333/33/45
f 325/33/5 331/34/46 324/34/5
f 331/34/46 325/33/5 330/33/46
f 328/33/42 334/34/14 329/34/42
f 334/34/14 328/33/42 335/33/14
f 330/33/17 328/33/17 326/33/17
f 328/33/17 330/33/17 325/33/17
f 328/33/17 325/33/17 335/33/17
f 335/33/17 325/33/17 321/33/17
f 335/33/17 321/33/17 333/33/17
f 333/33/17 321/33/17 323/33/17
f 329/34/16 331/34/16 327/34/16
f 331/34/16 329/34/16 334/34/16
f 331/34/16 334/34/16 324/34/16
f 324/34/16 334/34/16 332/34/16
f 324/34/16 332/34/16 320/34/16
f 320/34/16 332/34/16 322/34/16
f 369/34/12 370/33/12 372/34/79
f 374/33/79 372/34/79 370/33/12
f 371/34/16 367/34/16 372/34/16
f 369/34/16 372/34/16 367/34/16
f 368/33/17 373/33/17 370/33/17
f 374/33/17 370/33/17 373/33/17
f 368/33/66 367/34/66 373/33/78
f 371/34/78 373/33/78 367/34/66
f 374/33/79 373/33/78 372/34/79
f 371/34/78 372/34/79 373/33/78
f 370/33/77 369/34/77 368/33/77
f 367/34/77 368/33/77 369/34/77
f 363/23/13 365/23/13 360/18/13
f 362/18/13 360/18/13 365/23/13
f 366/23/76 365/23/76 364/23/75
f 363/23/75 364/23/75 365/23/76
f 366/23/76 361/18/74 365/23/76
f 362/18/74 365/23/76 361/18/74
f 359/18/73 364/23/75 360/18/73
f 363/23/75 360/18/73 364/23/75
f 362/18/74 361/18/74 360/18/73
f 359/18/73 360/18/73 361/18/74
f 351/18/16 358/18/16 341/18/16
f 341/18/16 358/18/16 343/18/16
f 343/18/16 358/18/16 338/18/16
f 338/18/16 357/18/16 336/18/16
f 338/18/16 358/18/16 357/18/16
f 357/18/16 358/18/16 345/18/16
f 347/18/16 345/18/16 358/18/16
f 78/37/68 350/37/68 79/33/71
f 353/33/71 79/33/71 350/37/68
f 81/37/72 80/33/70 352/37/72
f 354/33/70 352/37/72 80/33/70
f 82/19/12 81/37/72 355/19/12
f 352/37/72 355/19/12 81/37/72
f 79/33/71 353/33/71 80/33/70
f 354/33/70 80/33/70 353/33/71
f 82/19/17 355/19/17 72/19/17
f 355/19/17 356/19/17 72/19/17
f 72/19/17 356/19/17 74/19/17
f 356/19/17 344/19/17 74/19/17
f 346/19/17 74/19/17 344/19/17
f 345/18/67 344/19/67 357/18/69
f 356/19/69 357/18/69 344/19/67
f 357/18/69 356/19/69 336/18/13
f 355/19/13 336/18/13 356/19/69
f 336/18/13 355/19/13 337/36/13
f 352/37/13 337/36/13 355/19/13
f 354/33/13 353/33/13 352/37/13
f 353/33/13 350/37/13 352/37/13
f 350/37/13 337/36/13 352/37/13
f 337/36/13 350/37/13 340/36/13
f 350/37/13 348/19/13 340/36/13
f 340/36/13 348/19/13 341/18/13
f 348/19/13 349/19/13 341/18/13
f 351/18/13 341/18/13 349/19/13
f 78/37/68 76/19/66 350/37/68
f 348/19/66 350/37/68 76/19/66
f 75/19/17 349/19/17 76/19/17
f 348/19/17 76/19/17 349/19/17
f 347/18/12 346/19/12 345/18/67
f 344/19/67 345/18/67 346/19/12
f 340/36/16 342/36/16 337/36/16
f 339/36/16 337/36/16 342/36/16
f 343/18/12 342/36/12 341/18/12
f 340/36/12 341/18/12 342/36/12
f 339/36/66 338/18/66 337/36/66
f 336/18/66 337/36/66 338/18/66
f 377/23/17 376/38/80 375/23/17
f 376/38/80 377/23/17 378/38/80
f 380/38/81 375/23/17 379/38/81
f 375/23/17 380/38/81 377/23/17
f 378/38/80 381/39/82 376/38/80
f 381/39/82 378/38/80 382/40/82
f 382/40/82 378/38/80 383/41/82
f 383/41/82 378/38/80 384/41/82
f 384/41/82 378/38/80 385/40/82
f 385/40/82 378/38/80 386/39/82
f 388/40/83 379/38/81 387/39/83
f 379/38/81 388/40/83 380/38/81
f 380/38/81 388/40/83 389/41/83
f 380/38/81 389/41/83 390/41/83
f 380/38/81 390/41/83 391/40/83
f 380/38/81 391/40/83 392/39/83
f 395/44/15 394/43/15 393/42/15
f 394/43/15 395/44/15 396/45/15
f 396/45/15 395/44/15 397/46/15
f 397/46/15 395/44/15 398/44/15
f 399/47/15 396/45/15 397/46/15
f 397/46/15 398/44/15 400/46/15
f 396/45/15 399/47/15 401/45/15
f 400/46/15 398/44/15 402/47/15
f 401/45/15 399/47/15 402/47/15
f 401/45/15 402/47/15 398/44/15
f 401/45/15 398/44/15 403/42/15
f 401/45/15 403/42/15 404/43/15
f 98/43/85 403/42/84 103/42/84
f 403/42/84 98/43/85 404/43/85
f 402/47/5 405/46/5 400/46/5
f 405/46/5 402/47/5 406/47/5
f 396/45/86 95/45/87 99/45/86
f 95/45/87 396/45/86 401/45/87
f 102/44/89 393/42/88 101/42/88
f 393/42/88 102/44/89 395/44/89
f 408/47/14 397/46/14 407/46/14
f 397/46/14 408/47/14 399/47/14
f 397/46/17 405/46/17 407/46/17
f 405/46/17 397/46/17 400/46/17
f 406/47/16 399/47/16 408/47/16
f 399/47/16 406/47/16 402/47/16
f 104/44/90 395/44/89 102/44/89
f 395/44/89 104/44/90 398/44/90
f 394/43/91 101/42/88 393/42/88
f 101/42/88 394/43/91 100/43/91
f 103/42/84 398/44/90 104/44/90
f 398/44/90 103/42/84 403/42/84
f 396/45/86 100/43/91 394/43/91
f 100/43/91 396/45/86 99/45/86
f 95/45/87 404/43/85 98/43/85
f 404/43/85 95/45/87 401/45/87
f 411/48/92 410/49/93 409/48/92
f 410/49/93 411/48/92 412/49/93
f 412/49/93 413/49/16 410/49/93
f 413/49/16 412/49/93 414/49/94
f 413/49/16 414/49/94 415/49/16
f 415/49/16 414/49/94 416/49/94
f 414/49/94 417/48/95 416/49/94
f 417/48/95 414/49/94 418/48/95
f 419/48/17 411/48/92 409/48/92
f 411/48/92 419/48/17 418/48/95
f 418/48/95 419/48/17 420/48/17
f 418/48/95 420/48/17 417/48/95
f 417/48/2 421/50/2 416/49/2
f 416/49/2 421/50/2 415/49/2
f 417/48/2 422/51/2 421/50/2
f 422/51/2 417/48/2 423/51/2
f 409/48/2 423/51/2 417/48/2
f 409/48/2 417/48/2 420/48/2
f 423/51/2 409/48/2 424/50/2
f 409/48/2 420/48/2 419/48/2
f 415/49/2 419/48/2 420/48/2
f 424/50/2 409/48/2 410/49/2
f 424/50/2 410/49/2 421/50/2
f 419/48/2 415/49/2 413/49/2
f 415/49/2 421/50/2 413/49/2
f 413/49/2 421/50/2 410/49/2
f 453/34/15 454/33/15 456/34/51
f 458/33/51 456/34/51 454/33/15
f 455/34/16 451/34/16 456/34/16
f 453/34/16 456/34/16 451/34/16
f 452/33/17 457/33/17 454/33/17
f 458/33/17 454/33/17 457/33/17
f 452/33/7 451/34/7 457/33/46
f 455/34/46 457/33/46 451/34/7
f 458/33/51 457/33/46 456/34/51
f 455/34/46 456/34/51 457/33/46
f 454/33/14 453/34/14 452/33/14
f 451/34/14 452/33/14 453/34/14
f 438/18/16 439/18/16 440/18/16
f 440/18/16 439/18/16 430/18/16
f 430/18/16 439/18/16 432/18/16
f 432/18/16 439/18/16 427/18/16
f 427/18/16 446/18/16 425/18/16
f 427/18/16 439/18/16 446/18/16
f 446/18/16 439/18/16 448/18/16
f 450/18/16 448/18/16 439/18/16
f 447/19/17 449/19/17 445/19/17
f 118/19/17 445/19/17 449/19/17
f 115/19/17 445/19/17 118/19/17
f 445/19/17 115/19/17 442/19/17
f 116/19/17 442/19/17 115/19/17
f 448/18/103 447/19/103 446/18/102
f 445/19/102 446/18/102 447/19/103
f 450/18/15 449/19/15 448/18/103
f 447/19/103 448/18/103 449/19/15
f 446/18/102 445/19/102 425/18/5
f 442/19/5 425/18/5 445/19/102
f 425/18/5 442/19/5 426/36/5
f 441/37/5 426/36/5 442/19/5
f 443/33/5 444/33/5 441/37/5
f 444/33/5 437/37/5 441/37/5
f 437/37/5 426/36/5 441/37/5
f 426/36/5 437/37/5 429/36/5
f 437/37/5 433/19/5 429/36/5
f 429/36/5 433/19/5 430/18/5
f 433/19/5 434/19/98 430/18/5
f 440/18/98 430/18/5 434/19/98
f 111/33/101 110/37/96 444/33/101
f 437/37/96 444/33/101 110/37/96
f 114/37/99 112/33/100 441/37/99
f 443/33/100 441/37/99 112/33/100
f 111/33/101 444/33/101 112/33/100
f 443/33/100 112/33/100 444/33/101
f 116/19/15 114/37/99 442/19/15
f 441/37/99 442/19/15 114/37/99
f 436/19/97 438/18/97 434/19/98
f 440/18/98 434/19/98 438/18/97
f 435/19/7 439/18/7 436/19/97
f 438/18/97 436/19/97 439/18/7
f 110/37/96 109/19/7 437/37/96
f 433/19/7 437/37/96 109/19/7
f 436/19/17 434/19/17 435/19/17
f 435/19/17 434/19/17 107/19/17
f 107/19/17 434/19/17 105/19/17
f 105/19/17 434/19/17 109/19/17
f 433/19/17 109/19/17 434/19/17
f 429/36/16 431/36/16 426/36/16
f 428/36/16 426/36/16 431/36/16
f 432/18/15 431/36/15 430/18/15
f 429/36/15 430/18/15 431/36/15
f 428/36/7 427/18/7 426/36/7
f 425/18/7 426/36/7 427/18/7
f 461/23/66 460/18/104 459/23/104
f 460/18/104 461/23/66 462/18/66
f 465/23/105 464/18/106 463/18/105
f 464/18/106 465/23/105 466/23/106
f 464/18/106 468/23/78 467/18/78
f 468/23/78 464/18/106 466/23/106
f 459/23/104 467/18/78 468/23/78
f 467/18/78 459/23/104 460/18/104
f 471/18/12 470/23/107 469/18/107
f 470/23/107 471/18/12 472/23/12
f 469/18/107 474/23/79 473/18/79
f 474/23/79 469/18/107 470/23/107
f 474/23/79 463/18/105 473/18/79
f 463/18/105 474/23/79 465/23/105
f 471/18/16 460/18/16 462/18/16
f 460/18/16 471/18/16 467/18/16
f 467/18/16 471/18/16 464/18/16
f 464/18/16 471/18/16 463/18/16
f 463/18/16 471/18/16 473/18/16
f 473/18/16 471/18/16 469/18/16
f 472/23/17 474/23/17 470/23/17
f 475/23/17 474/23/17 472/23/17
f 476/23/17 474/23/17 475/23/17
f 477/23/17 474/23/17 476/23/17
f 477/23/17 465/23/17 474/23/17
f 478/23/17 465/23/17 477/23/17
f 479/23/17 465/23/17 478/23/17
f 479/23/17 466/23/17 465/23/17
f 480/23/17 466/23/17 479/23/17
f 480/23/17 468/23/17 466/23/17
f 468/23/17 480/23/17 481/23/17
f 482/23/17 468/23/17 481/23/17
f 461/23/17 468/23/17 482/23/17
f 468/23/17 461/23/17 459/23/17
f 476/23/109 483/32/108 477/23/108
f 483/32/108 476/23/109 484/32/109
f 475/23/66 484/32/109 476/23/109
f 484/32/109 475/23/66 485/32/66
f 487/32/12 481/23/110 486/32/110
f 481/23/110 487/32/12 482/23/12
f 486/32/110 480/23/111 488/32/111
f 480/23/111 486/32/110 481/23/110
f 480/23/111 489/32/112 488/32/111
f 489/32/112 480/23/111 479/23/112
f 479/23/112 490/32/113 489/32/112
f 490/32/113 479/23/112 478/23/113
f 478/23/113 483/32/108 490/32/113
f 483/32/108 478/23/113 477/23/108
f 144/57/121 492/52/121 143/52/122
f 499/52/122 143/52/122 492/52/121
f 142/52/119 143/52/122 497/52/119
f 499/52/122 497/52/119 143/52/122
f 149/61/4 496/56/4 147/60/4
f 496/56/4 495/55/4 147/60/4
f 147/60/4 495/55/4 152/59/4
f 495/55/4 494/54/4 152/59/4
f 152/59/4 494/54/4 146/58/4
f 494/54/4 493/53/4 146/58/4
f 146/58/4 493/53/4 144/57/121
f 492/52/121 144/57/121 493/53/4
f 16/53/115 15/52/114 493/53/115
f 493/53/115 15/52/114 492/52/114
f 492/52/114 491/52/114 499/52/114
f 491/52/114 498/52/114 499/52/114
f 497/52/114 499/52/114 498/52/114
f 140/52/120 142/52/119 498/52/120
f 497/52/119 498/52/120 142/52/119
f 18/56/118 20/55/117 496/56/118
f 495/55/117 496/56/118 20/55/117
f 20/55/117 19/54/116 495/55/117
f 494/54/116 495/55/117 19/54/116
f 19/54/116 16/53/115 494/54/116
f 493/53/115 494/54/116 16/53/115
f 15/52/114 491/52/114 492/52/114
f 501/52/123 500/52/123 21/52/123
f 22/53/124 503/54/125 502/53/124
f 503/54/125 22/53/124 25/54/125
f 25/54/125 504/55/126 503/54/125
f 504/55/126 25/54/125 26/55/126
f 26/55/126 505/56/127 504/55/126
f 505/56/127 26/55/126 24/56/127
f 153/52/129 506/52/128 155/52/128
f 506/52/128 153/52/129 507/52/129
f 507/52/123 508/52/123 506/52/123
f 508/52/123 507/52/123 500/52/123
f 508/52/123 500/52/123 501/52/123
f 501/52/123 21/52/123 502/53/124
f 502/53/124 21/52/123 22/53/124
f 502/53/5 157/57/130 501/52/130
f 157/57/130 502/53/5 159/58/5
f 159/58/5 502/53/5 503/54/5
f 159/58/5 503/54/5 165/59/5
f 165/59/5 503/54/5 504/55/5
f 165/59/5 504/55/5 162/60/5
f 162/60/5 504/55/5 505/56/5
f 162/60/5 505/56/5 163/61/5
f 156/52/131 506/52/128 508/52/131
f 506/52/128 156/52/131 155/52/128
f 501/52/130 156/52/131 508/52/131
f 156/52/131 501/52/130 157/57/130
f 510/52/123 512/63/123 509/52/123
f 511/63/123 509/52/123 512/63/123
f 510/52/129 509/52/129 177/62/129
f 176/62/129 177/62/129 509/52/129
f 513/52/132 187/62/132 186/62/132
f 187/62/132 513/52/132 514/52/132
f 516/63/133 513/52/133 515/63/133
f 513/52/133 516/63/133 514/52/133
f 192/57/139 518/52/139 191/52/140
f 525/52/140 191/52/140 518/52/139
f 190/52/138 191/52/140 523/52/138
f 525/52/140 523/52/138 191/52/140
f 197/61/5 522/56/5 195/60/5
f 522/56/5 521/55/5 195/60/5
f 195/60/5 521/55/5 199/59/5
f 521/55/5 520/54/5 199/59/5
f 199/59/5 520/54/5 194/58/5
f 520/54/5 519/53/5 194/58/5
f 194/58/5 519/53/5 192/57/139
f 518/52/139 192/57/139 519/53/5
f 519/53/134 28/53/134 518/52/133
f 28/53/134 27/52/133 518/52/133
f 518/52/133 517/52/133 525/52/133
f 517/52/133 524/52/133 525/52/133
f 523/52/133 525/52/133 524/52/133
f 524/52/132 188/52/132 523/52/138
f 190/52/138 523/52/138 188/52/132
f 30/56/137 32/55/136 522/56/137
f 521/55/136 522/56/137 32/55/136
f 521/55/136 32/55/136 520/54/135
f 31/54/135 520/54/135 32/55/136
f 31/54/135 28/53/134 520/54/135
f 519/53/134 520/54/135 28/53/134
f 27/52/133 517/52/133 518/52/133
f 527/52/141 526/52/141 33/52/141
f 34/53/142 529/54/143 528/53/142
f 529/54/143 34/53/142 37/54/143
f 37/54/143 530/55/144 529/54/143
f 530/55/144 37/54/143 38/55/144
f 38/55/144 531/56/145 530/55/144
f 531/56/145 38/55/144 36/56/145
f 203/52/146 533/52/147 532/52/146
f 533/52/147 203/52/146 201/52/147
f 533/52/141 534/52/141 532/52/141
f 534/52/141 533/52/141 526/52/141
f 534/52/141 526/52/141 527/52/141
f 527/52/141 33/52/141 528/53/142
f 528/53/142 33/52/141 34/53/142
f 528/53/6 205/57/148 527/52/148
f 205/57/148 528/53/6 207/58/6
f 207/58/6 528/53/6 529/54/6
f 207/58/6 529/54/6 213/59/6
f 213/59/6 529/54/6 530/55/6
f 213/59/6 530/55/6 208/60/6
f 208/60/6 530/55/6 531/56/6
f 208/60/6 531/56/6 210/61/6
f 204/52/149 532/52/146 534/52/149
f 532/52/146 204/52/149 203/52/146
f 527/52/148 204/52/149 534/52/149
f 204/52/149 527/52/148 205/57/148
f 339/64/13 342/64/13 338/52/13
f 343/52/13 338/52/13 342/64/13
f 535/65/16 97/66/150 96/65/16
f 97/66/150 535/65/16 536/66/150
f 537/66/151 96/65/16 94/66/151
f 96/65/16 537/66/151 535/65/16
f 539/66/151 92/65/16 538/65/16
f 92/65/16 539/66/151 93/66/151
f 92/65/16 540/66/150 538/65/16
f 540/66/150 92/65/16 91/66/150
f 383/68/152 542/67/153 541/67/152
f 542/67/153 383/68/152 384/68/153
f 543/71/154 380/70/15 392/69/154
f 380/70/15 543/71/154 536/66/15
f 380/70/15 536/66/15 377/61/15
f 377/61/15 536/66/15 535/65/15
f 377/61/15 535/65/15 537/66/15
f 377/61/15 537/66/15 378/70/15
f 378/70/15 537/66/15 544/71/155
f 378/70/15 544/71/155 386/69/155
f 390/68/156 546/67/157 545/67/156
f 546/67/157 390/68/156 389/68/157
f 379/70/7 547/71/158 387/69/158
f 547/71/158 379/70/7 540/66/7
f 540/66/7 379/70/7 375/61/7
f 540/66/7 375/61/7 538/65/7
f 538/65/7 375/61/7 376/70/7
f 538/65/7 376/70/7 539/66/7
f 539/66/7 376/70/7 548/71/159
f 548/71/159 376/70/7 381/69/159
f 384/68/153 549/72/160 542/67/153
f 549/72/160 384/68/153 385/73/160
f 549/72/160 386/69/155 544/71/155
f 386/69/155 549/72/160 385/73/160
f 550/72/161 390/68/156 545/67/156
f 390/68/156 550/72/161 391/73/161
f 550/72/161 392/69/154 391/73/161
f 392/69/154 550/72/161 543/71/154
f 387/69/158 551/72/162 388/73/162
f 551/72/162 387/69/158 547/71/158
f 389/68/157 551/72/162 546/67/157
f 551/72/162 389/68/157 388/73/162
f 381/69/159 552/72/163 548/71/159
f 552/72/163 381/69/159 382/73/163
f 552/72/163 383/68/152 541/67/152
f 383/68/152 552/72/163 382/73/163
f 537/66/151 549/72/164 544/71/164
f 94/66/151 549/72/164 537/66/151
f 90/71/164 549/72/164 94/66/151
f 90/71/164 542/67/164 549/72/164
f 89/71/164 542/67/164 90/71/164
f 542/67/164 89/71/164 541/67/164
f 93/66/151 541/67/164 89/71/164
f 93/66/151 552/72/164 541/67/164
f 539/66/151 552/72/164 93/66/151
f 552/72/164 539/66/151 548/71/164
f 536/66/150 85/71/165 97/66/150
f 85/71/165 536/66/150 545/67/165
f 545/67/165 536/66/150 550/72/165
f 550/72/165 536/66/150 543/71/165
f 546/67/165 85/71/165 545/67/165
f 546/67/165 86/71/165 85/71/165
f 546/67/165 91/66/150 86/71/165
f 551/72/165 91/66/150 546/67/165
f 547/71/165 91/66/150 551/72/165
f 91/66/150 547/71/165 540/66/150
f 428/52/5 554/52/5 427/61/5
f 553/61/5 427/61/5 554/52/5
f 488/74/17 487/74/17 486/74/17
f 487/74/17 488/74/17 485/74/17
f 485/74/17 488/74/17 489/74/17
f 485/74/17 489/74/17 490/74/17
f 485/74/17 490/74/17 483/74/17
f 485/74/17 483/74/17 484/74/17
f 557/75/168 556/75/167 555/75/166
f 556/75/167 557/75/168 558/75/169
f 558/75/169 557/75/168 559/75/170
f 558/75/169 559/75/170 560/75/171
f 563/77/174 562/76/173 561/76/172
f 562/76/173 563/77/174 564/77/175
f 566/76/177 564/77/175 565/77/176
f 564/77/175 566/76/177 562/76/173
f 561/76/172 567/77/178 563/77/174
f 567/77/178 561/76/172 568/76/179
f 568/76/179 569/77/180 567/77/178
f 569/77/180 568/76/179 570/76/181
f 572/76/183 565/77/176 571/77/182
f 565/77/176 572/76/183 566/76/177
f 572/76/183 569/77/180 570/76/181
f 569/77/180 572/76/183 571/77/182
f 562/76/173 559/75/170 561/76/172
f 559/75/170 562/76/173 560/75/171
f 556/75/167 566/76/177 572/76/183
f 566/76/177 556/75/167 558/75/169
f 555/75/166 572/76/183 570/76/181
f 572/76/183 555/75/166 556/75/167
f 558/75/169 562/76/173 566/76/177
f 562/76/173 558/75/169 560/75/171
f 557/75/168 570/76/181 568/76/179
f 570/76/181 557/75/168 555/75/166
f 559/75/170 568/76/179 561/76/172
f 568/76/179 559/75/170 557/75/168
f 575/75/186 574/75/185 573/75/184
f 574/75/185 575/75/186 576/75/187
f 576/75/187 575/75/186 577/75/188
f 576/75/187 577/75/188 578/75/189
f 581/77/192 580/76/191 579/76/190
f 580/76/191 581/77/192 582/77/193
f 584/76/195 582/77/193 583/77/194
f 582/77/193 584/76/195 580/76/191
f 579/76/190 585/77/196 581/77/192
f 585/77/196 579/76/190 586/76/197
f 586/76/197 587/77/198 585/77/196
f 587/77/198 586/76/197 588/76/199
f 590/76/201 583/77/194 589/77/200
f 583/77/194 590/76/201 584/76/195
f 590/76/201 587/77/198 588/76/199
f 587/77/198 590/76/201 589/77/200
f 580/76/191 577/75/188 579/76/190
f 577/75/188 580/76/191 578/75/189
f 574/75/185 584/76/195 590/76/201
f 584/76/195 574/75/185 576/75/187
f 573/75/184 590/76/201 588/76/199
f 590/76/201 573/75/184 574/75/185
f 576/75/187 580/76/191 584/76/195
f 580/76/191 576/75/187 578/75/189
f 575/75/186 588/76/199 586/76/197
f 588/76/199 575/75/186 573/75/184
f 577/75/188 586/76/197 579/76/190
f 586/76/197 577/75/188 575/75/186

usemtl colormap-specular

f 414/79/2 411/78/2 418/78/2
f 411/78/2 414/79/2 412/79/2

