# Created by Kenney (www.kenney.nl)

mtllib chimney-large.mtl

g chimney-large

v 0.3762976 0.6 0.2172555 1 1 1
v 0.2172555 0.6 0.3762976 1 1 1
v 0.3300856 1.1 0.190575 1 1 1
v 0.190575 1.1 0.3300856 1 1 1
v 0.3762976 0.6 -0.2172555 1 1 1
v 0.434511 0.6 0 1 1 1
v 0.3300856 1.1 -0.190575 1 1 1
v 0.38115 1.1 0 1 1 1
v -0.5 0.2 0 1 1 1
v -0.434511 0.6 0 1 1 1
v -0.4330127 0.2 0.25 1 1 1
v -0.3762976 0.6 0.2172555 1 1 1
v 0.5 0.2 0 1 1 1
v 0.4330127 0.2 0.25 1 1 1
v 0 0.6 0.434511 1 1 1
v -0.2172555 0.6 0.3762976 1 1 1
v 0 1.1 0.38115 1 1 1
v -0.190575 1.1 0.3300856 1 1 1
v -0.3300856 1.1 0.190575 1 1 1
v 0 0.2 0.5 1 1 1
v -0.25 0.2 0.4330127 1 1 1
v 0.38115 1.7 0 1 1 1
v 0.3300856 1.7 0.190575 1 1 1
v 0.3300856 1.7 -0.190575 1 1 1
v 0.190575 1.7 -0.3300856 1 1 1
v 0.2776224 1.7 0 1 1 1
v 0.190575 1.7 0.3300856 1 1 1
v 0.240428 1.7 -0.1388112 1 1 1
v 0.240428 1.7 0.1388112 1 1 1
v 0.1388112 1.7 -0.240428 1 1 1
v 0.1388112 1.7 0.240428 1 1 1
v 0 1.7 -0.38115 1 1 1
v 0 1.7 -0.2776224 1 1 1
v 0 1.7 0.38115 1 1 1
v 0 1.7 0.2776224 1 1 1
v -0.1388112 1.7 0.240428 1 1 1
v -0.190575 1.7 0.3300856 1 1 1
v -0.240428 1.7 0.1388112 1 1 1
v -0.190575 1.7 -0.3300856 1 1 1
v -0.1388112 1.7 -0.240428 1 1 1
v -0.240428 1.7 -0.1388112 1 1 1
v -0.3300856 1.7 0.190575 1 1 1
v -0.3300856 1.7 -0.190575 1 1 1
v -0.2776224 1.7 0 1 1 1
v -0.38115 1.7 0 1 1 1
v -0.38115 1.1 0 1 1 1
v 0.25 0.2 0.4330127 1 1 1
v -0.25 0.2 -0.4330127 1 1 1
v 0 0.2 -0.5 1 1 1
v -0.2172555 0.6 -0.3762976 1 1 1
v 0 0.6 -0.434511 1 1 1
v -0.4330127 0.2 -0.25 1 1 1
v -0.3762976 0.6 -0.2172555 1 1 1
v -0.190575 1.1 -0.3300856 1 1 1
v 0 1.1 -0.38115 1 1 1
v -0.3300856 1.1 -0.190575 1 1 1
v 0.2172555 0.6 -0.3762976 1 1 1
v 0.190575 1.1 -0.3300856 1 1 1
v 0.25 0.2 -0.4330127 1 1 1
v 0.4330127 0.2 -0.25 1 1 1
v 0.5 0 0 1 1 1
v 0.4330127 0 -0.25 1 1 1
v 0.4330127 0 0.25 1 1 1
v 0.25 0 -0.4330127 1 1 1
v 0.25 0 0.4330127 1 1 1
v 0 0 -0.5 1 1 1
v 0 0 0.5 1 1 1
v -0.25 0 0.4330127 1 1 1
v -0.25 0 -0.4330127 1 1 1
v -0.4330127 0 0.25 1 1 1
v -0.4330127 0 -0.25 1 1 1
v -0.5 0 0 1 1 1
v -0.27 0.2 -0.4676537 1 1 1
v 0 0.2 -0.54 1 1 1
v 0.27 0.2 -0.4676537 1 1 1
v 0.4676537 0.2 -0.27 1 1 1
v 0 0.2 0.54 1 1 1
v -0.27 0.2 0.4676537 1 1 1
v 0.54 0.2 -1.082867E-15 1 1 1
v 0.4676537 0.2 0.27 1 1 1
v -0.4676537 0.2 -0.27 1 1 1
v -0.4676537 0.2 0.27 1 1 1
v 0.27 0.2 0.4676537 1 1 1
v -0.54 0.2 -1.082867E-15 1 1 1
v -0.2776224 1.5 0 1 1 1
v -0.240428 1.5 0.1388112 1 1 1
v 0.1388112 1.5 -0.240428 1 1 1
v 0 1.5 -0.2776224 1 1 1
v 0.2776224 1.5 0 1 1 1
v 0.240428 1.5 0.1388112 1 1 1
v 0.240428 1.5 -0.1388112 1 1 1
v 0.1388112 1.5 0.240428 1 1 1
v 0 1.5 0.2776224 1 1 1
v -0.1388112 1.5 -0.240428 1 1 1
v -0.1388112 1.5 0.240428 1 1 1
v -0.240428 1.5 -0.1388112 1 1 1
v -1.588205E-15 1.145 0.419265 1 1 1
v -0.2096325 1.145 0.3630942 1 1 1
v -1.588205E-15 1.475 0.419265 1 1 1
v -0.2096325 1.475 0.3630942 1 1 1
v 0.419265 1.475 -7.941025E-16 1 1 1
v 0.419265 1.145 -7.941025E-16 1 1 1
v 0.3630942 1.475 0.2096325 1 1 1
v 0.3630942 1.145 0.2096325 1 1 1
v 0.2096325 1.145 -0.3630942 1 1 1
v 0.2096325 1.475 -0.3630942 1 1 1
v -7.941025E-16 1.145 -0.419265 1 1 1
v -7.941025E-16 1.475 -0.419265 1 1 1
v 0.2096325 1.145 0.3630942 1 1 1
v 0.2096325 1.475 0.3630942 1 1 1
v -0.2096325 1.145 -0.3630942 1 1 1
v -0.2096325 1.475 -0.3630942 1 1 1
v -0.3630942 1.145 -0.2096325 1 1 1
v -0.3630942 1.475 -0.2096325 1 1 1
v 0.3630942 1.145 -0.2096325 1 1 1
v 0.3630942 1.475 -0.2096325 1 1 1
v -0.419265 1.145 7.941025E-16 1 1 1
v -0.419265 1.475 7.941025E-16 1 1 1
v -0.3630942 1.145 0.2096325 1 1 1
v -0.3630942 1.475 0.2096325 1 1 1

vn 0.8581548 0.1345137 0.4954559
vn 0.4954559 0.1345137 0.8581548
vn 0.8647802 0.05360534 0.4992811
vn 0.4992811 0.05360534 0.8647802
vn 0.8581548 0.1345137 -0.4954559
vn 0.9909117 0.1345137 0
vn 0.8647802 0.05360534 -0.4992811
vn 0.9985623 0.05360534 0
vn -0.9868611 0.1615713 0
vn -0.9909117 0.1345137 0
vn -0.8546467 0.1615714 0.4934305
vn -0.8581548 0.1345137 0.4954559
vn 0.9868611 0.1615713 0
vn 0.8546467 0.1615714 0.4934305
vn 0 0.1345137 0.9909117
vn -0.4954559 0.1345137 0.8581548
vn 0 0.05360534 0.9985623
vn -0.4992811 0.05360534 0.8647802
vn -0.8647802 0.05360534 0.4992811
vn 0 0.1615713 0.9868611
vn -0.4934305 0.1615714 0.8546467
vn 0 1 0
vn -0.9985623 0.05360534 0
vn 0.4934305 0.1615714 0.8546467
vn -0.4934305 0.1615714 -0.8546467
vn 0 0.1615713 -0.9868611
vn -0.4954559 0.1345137 -0.8581548
vn 0 0.1345137 -0.9909117
vn -0.8546467 0.1615714 -0.4934305
vn -0.8581548 0.1345137 -0.4954559
vn -0.4992811 0.05360534 -0.8647802
vn 0 0.05360534 -0.9985623
vn -0.8647802 0.05360534 -0.4992811
vn 0.4954559 0.1345137 -0.8581548
vn 0.4992811 0.05360534 -0.8647802
vn 0.4934305 0.1615714 -0.8546467
vn 0.8546467 0.1615714 -0.4934305
vn 0 0 -1
vn 0.5 0 -0.8660254
vn 0.8660254 0 -0.5
vn 1 0 0
vn -1 0 0
vn -0.8660254 0 0.5
vn -0.5 0 -0.8660254
vn -0.5 0 0.8660254
vn 0 0 1
vn 0.8660254 0 0.5
vn 0.5 0 0.8660254
vn -0.8660254 0 -0.5
vn 0 -1 0
vn -0.4902903 -0.1961161 -0.8492078
vn 0 -0.1961161 -0.9805807
vn 0.4902903 -0.1961161 -0.8492078
vn 0.8492078 -0.1961161 -0.4902903
vn 0 -0.1961161 0.9805807
vn -0.4902903 -0.1961161 0.8492078
vn 0.9805807 -0.1961161 0
vn 0.8492078 -0.1961161 0.4902903
vn -0.8492078 -0.1961161 -0.4902903
vn -0.8492078 -0.1961161 0.4902903
vn 0.4902903 -0.1961161 0.8492078
vn -0.9805807 -0.1961161 0
vn 0.7571624 0.6532268 0
vn 0.6557218 0.6532268 -0.3785812
vn -0.3785812 0.6532268 0.6557218
vn 0 0.6532268 0.7571624
vn -0.7571624 0.6532268 0
vn -0.6557218 0.6532268 -0.3785812
vn -0.6557218 0.6532268 0.3785812
vn -0.3785812 0.6532268 -0.6557218
vn 0 0.6532268 -0.7571624
vn 0.3785812 0.6532268 0.6557218
vn 0.3785812 0.6532268 -0.6557218
vn 0.6557218 0.6532268 0.3785812

vt 0.84375 0.3283333
vt 0.84375 0.395
vt 0.84375 0.275
vt 0.84375 0.475
vt 0.84375 0.355
vt 0.59375 0.475
vt 0.59375 0.4483333
vt 0.71875 0.525
vt 0.71875 0.725

usemtl colormap

f 3/2/3 2/1/2 1/1/1
f 2/1/2 3/2/3 4/2/4
f 7/2/7 6/1/6 5/1/5
f 6/1/6 7/2/7 8/2/8
f 11/3/11 10/1/10 9/3/9
f 10/1/10 11/3/11 12/1/12
f 1/1/1 13/3/13 6/1/6
f 13/3/13 1/1/1 14/3/14
f 17/2/17 16/1/16 15/1/15
f 16/1/16 17/2/17 18/2/18
f 18/2/18 12/1/12 16/1/16
f 12/1/12 18/2/18 19/2/19
f 15/1/15 21/3/21 20/3/20
f 21/3/21 15/1/15 16/1/16
f 24/4/22 23/4/22 22/4/22
f 23/4/22 24/4/22 25/4/22
f 23/4/22 25/4/22 26/4/22
f 26/4/22 27/4/22 23/4/22
f 26/4/22 25/4/22 28/4/22
f 27/4/22 26/4/22 29/4/22
f 28/4/22 25/4/22 30/4/22
f 27/4/22 29/4/22 31/4/22
f 30/4/22 25/4/22 32/4/22
f 30/4/22 32/4/22 33/4/22
f 27/4/22 31/4/22 34/4/22
f 34/4/22 31/4/22 35/4/22
f 34/4/22 35/4/22 36/4/22
f 34/4/22 36/4/22 37/4/22
f 37/4/22 36/4/22 38/4/22
f 33/4/22 32/4/22 39/4/22
f 33/4/22 39/4/22 40/4/22
f 40/4/22 39/4/22 41/4/22
f 37/4/22 38/4/22 42/4/22
f 41/4/22 39/4/22 43/4/22
f 42/4/22 38/4/22 44/4/22
f 41/4/22 43/4/22 44/4/22
f 42/4/22 44/4/22 43/4/22
f 42/4/22 43/4/22 45/4/22
f 4/2/4 15/1/15 2/1/2
f 15/1/15 4/2/4 17/2/17
f 12/1/12 46/2/23 10/1/10
f 46/2/23 12/1/12 19/2/19
f 2/1/2 20/3/20 47/3/24
f 20/3/20 2/1/2 15/1/15
f 50/1/27 49/3/26 48/3/25
f 49/3/26 50/1/27 51/1/28
f 1/1/1 47/3/24 14/3/14
f 47/3/24 1/1/1 2/1/2
f 9/3/9 53/1/30 52/3/29
f 53/1/30 9/3/9 10/1/10
f 54/2/31 51/1/28 50/1/27
f 51/1/28 54/2/31 55/2/32
f 10/1/10 56/2/33 53/1/30
f 56/2/33 10/1/10 46/2/23
f 58/2/35 5/1/5 57/1/34
f 5/1/5 58/2/35 7/2/7
f 51/1/28 59/3/36 49/3/26
f 59/3/36 51/1/28 57/1/34
f 5/1/5 13/3/13 60/3/37
f 13/3/13 5/1/5 6/1/6
f 55/2/32 57/1/34 51/1/28
f 57/1/34 55/2/32 58/2/35
f 52/3/29 50/1/27 48/3/25
f 50/1/27 52/3/29 53/1/30
f 57/1/34 60/3/37 59/3/36
f 60/3/37 57/1/34 5/1/5
f 16/1/16 11/3/11 21/3/21
f 11/3/11 16/1/16 12/1/12
f 53/1/30 54/2/31 50/1/27
f 54/2/31 53/1/30 56/2/33
f 3/2/3 6/1/6 8/2/8
f 6/1/6 3/2/3 1/1/1
f 32/4/38 58/2/35 55/2/32
f 58/2/35 32/4/38 25/4/39
f 22/4/41 7/2/7 24/4/40
f 7/2/7 22/4/41 8/2/8
f 19/2/19 45/4/42 46/2/23
f 45/4/42 19/2/19 42/4/43
f 39/4/44 55/2/32 54/2/31
f 55/2/32 39/4/44 32/4/38
f 37/4/45 19/2/19 18/2/18
f 19/2/19 37/4/45 42/4/43
f 34/4/46 18/2/18 17/2/17
f 18/2/18 34/4/46 37/4/45
f 23/4/47 8/2/8 22/4/41
f 8/2/8 23/4/47 3/2/3
f 27/4/48 17/2/17 4/2/4
f 17/2/17 27/4/48 34/4/46
f 56/2/33 39/4/44 54/2/31
f 39/4/44 56/2/33 43/4/49
f 46/2/23 43/4/49 56/2/33
f 43/4/49 46/2/23 45/4/42
f 27/4/48 3/2/3 23/4/47
f 3/2/3 27/4/48 4/2/4
f 25/4/39 7/2/7 58/2/35
f 7/2/7 25/4/39 24/4/40
f 63/3/50 62/3/50 61/3/50
f 62/3/50 63/3/50 64/3/50
f 64/3/50 63/3/50 65/3/50
f 64/3/50 65/3/50 66/3/50
f 66/3/50 65/3/50 67/3/50
f 66/3/50 67/3/50 68/3/50
f 66/3/50 68/3/50 69/3/50
f 69/3/50 68/3/50 70/3/50
f 69/3/50 70/3/50 71/3/50
f 71/3/50 70/3/50 72/3/50
f 73/5/51 66/3/52 69/3/51
f 66/3/52 73/5/51 74/5/52
f 76/5/54 64/3/53 75/5/53
f 64/3/53 76/5/54 62/3/54
f 77/5/55 68/3/56 67/3/55
f 68/3/56 77/5/55 78/5/56
f 74/5/52 64/3/53 66/3/52
f 64/3/53 74/5/52 75/5/53
f 80/5/58 61/3/57 79/5/57
f 61/3/57 80/5/58 63/3/58
f 81/5/59 69/3/51 71/3/59
f 69/3/51 81/5/59 73/5/51
f 78/5/56 70/3/60 68/3/56
f 70/3/60 78/5/56 82/5/60
f 80/5/58 65/3/61 63/3/58
f 65/3/61 80/5/58 83/5/61
f 72/3/62 82/5/60 84/5/62
f 82/5/60 72/3/62 70/3/60
f 83/5/61 67/3/55 65/3/61
f 67/3/55 83/5/61 77/5/55
f 71/3/59 84/5/62 81/5/59
f 84/5/62 71/3/59 72/3/62
f 79/5/57 62/3/54 76/5/54
f 62/3/54 79/5/57 61/3/57
f 76/5/22 80/5/22 79/5/22
f 80/5/22 76/5/22 75/5/22
f 80/5/22 75/5/22 83/5/22
f 83/5/22 75/5/22 74/5/22
f 83/5/22 74/5/22 77/5/22
f 77/5/22 74/5/22 73/5/22
f 77/5/22 73/5/22 78/5/22
f 78/5/22 73/5/22 81/5/22
f 78/5/22 81/5/22 82/5/22
f 82/5/22 81/5/22 84/5/22
f 38/6/40 85/7/63 44/6/41
f 85/7/63 38/6/40 86/7/64
f 30/6/45 88/7/66 87/7/65
f 88/7/66 30/6/45 33/6/46
f 91/7/69 90/7/68 89/7/67
f 90/7/68 91/7/69 87/7/65
f 90/7/68 87/7/65 92/7/70
f 92/7/70 87/7/65 93/7/71
f 93/7/71 87/7/65 88/7/66
f 93/7/71 88/7/66 94/7/72
f 93/7/71 94/7/72 95/7/73
f 95/7/73 94/7/72 96/7/74
f 95/7/73 96/7/74 86/7/64
f 86/7/64 96/7/74 85/7/63
f 91/7/69 30/6/45 87/7/65
f 30/6/45 91/7/69 28/6/43
f 33/6/46 94/7/72 88/7/66
f 94/7/72 33/6/46 40/6/48
f 90/7/68 26/6/42 89/7/67
f 26/6/42 90/7/68 29/6/49
f 44/6/41 96/7/74 41/6/47
f 96/7/74 44/6/41 85/7/63
f 89/7/67 28/6/43 91/7/69
f 28/6/43 89/7/67 26/6/42
f 36/6/39 93/7/71 95/7/73
f 93/7/71 36/6/39 35/6/38
f 38/6/40 95/7/73 86/7/64
f 95/7/73 38/6/40 36/6/39
f 35/6/38 92/7/70 93/7/71
f 92/7/70 35/6/38 31/6/44
f 92/7/70 29/6/49 90/7/68
f 29/6/49 92/7/70 31/6/44
f 41/6/47 94/7/72 40/6/48
f 94/7/72 41/6/47 96/7/74
f 99/9/66 98/8/45 97/8/46
f 98/8/45 99/9/66 100/9/65
f 103/9/74 102/8/41 101/9/63
f 102/8/41 103/9/74 104/8/47
f 107/8/38 106/9/73 105/8/39
f 106/9/73 107/8/38 108/9/71
f 110/9/72 97/8/46 109/8/48
f 97/8/46 110/9/72 99/9/66
f 112/9/70 107/8/38 111/8/44
f 107/8/38 112/9/70 108/9/71
f 113/8/49 112/9/70 111/8/44
f 112/9/70 113/8/49 114/9/68
f 106/9/73 115/8/40 105/8/39
f 115/8/40 106/9/73 116/9/64
f 117/8/42 114/9/68 113/8/49
f 114/9/68 117/8/42 118/9/67
f 110/9/72 104/8/47 103/9/74
f 104/8/47 110/9/72 109/8/48
f 101/9/63 115/8/40 116/9/64
f 115/8/40 101/9/63 102/8/41
f 98/8/45 120/9/69 119/8/43
f 120/9/69 98/8/45 100/9/65
f 119/8/43 118/9/67 117/8/42
f 118/9/67 119/8/43 120/9/69
f 116/9/64 103/9/74 101/9/63
f 103/9/74 116/9/64 110/9/72
f 110/9/72 116/9/64 106/9/73
f 110/9/72 106/9/73 99/9/66
f 99/9/66 106/9/73 108/9/71
f 99/9/66 108/9/71 112/9/70
f 99/9/66 112/9/70 100/9/65
f 100/9/65 112/9/70 120/9/69
f 120/9/69 112/9/70 114/9/68
f 120/9/69 114/9/68 118/9/67
f 104/8/50 115/8/50 102/8/50
f 115/8/50 104/8/50 109/8/50
f 115/8/50 109/8/50 105/8/50
f 105/8/50 109/8/50 97/8/50
f 105/8/50 97/8/50 107/8/50
f 107/8/50 97/8/50 111/8/50
f 111/8/50 97/8/50 98/8/50
f 111/8/50 98/8/50 119/8/50
f 111/8/50 119/8/50 113/8/50
f 113/8/50 119/8/50 117/8/50

g chimney-large




usemtl colormap

f 3/2/3 2/1/2 1/1/1
f 2/1/2 3/2/3 4/2/4
f 7/2/7 6/1/6 5/1/5
f 6/1/6 7/2/7 8/2/8
f 11/3/11 10/1/10 9/3/9
f 10/1/10 11/3/11 12/1/12
f 1/1/1 13/3/13 6/1/6
f 13/3/13 1/1/1 14/3/14
f 17/2/17 16/1/16 15/1/15
f 16/1/16 17/2/17 18/2/18
f 18/2/18 12/1/12 16/1/16
f 12/1/12 18/2/18 19/2/19
f 15/1/15 21/3/21 20/3/20
f 21/3/21 15/1/15 16/1/16
f 24/4/22 23/4/22 22/4/22
f 23/4/22 24/4/22 25/4/22
f 23/4/22 25/4/22 26/4/22
f 26/4/22 27/4/22 23/4/22
f 26/4/22 25/4/22 28/4/22
f 27/4/22 26/4/22 29/4/22
f 28/4/22 25/4/22 30/4/22
f 27/4/22 29/4/22 31/4/22
f 30/4/22 25/4/22 32/4/22
f 30/4/22 32/4/22 33/4/22
f 27/4/22 31/4/22 34/4/22
f 34/4/22 31/4/22 35/4/22
f 34/4/22 35/4/22 36/4/22
f 34/4/22 36/4/22 37/4/22
f 37/4/22 36/4/22 38/4/22
f 33/4/22 32/4/22 39/4/22
f 33/4/22 39/4/22 40/4/22
f 40/4/22 39/4/22 41/4/22
f 37/4/22 38/4/22 42/4/22
f 41/4/22 39/4/22 43/4/22
f 42/4/22 38/4/22 44/4/22
f 41/4/22 43/4/22 44/4/22
f 42/4/22 44/4/22 43/4/22
f 42/4/22 43/4/22 45/4/22
f 4/2/4 15/1/15 2/1/2
f 15/1/15 4/2/4 17/2/17
f 12/1/12 46/2/23 10/1/10
f 46/2/23 12/1/12 19/2/19
f 2/1/2 20/3/20 47/3/24
f 20/3/20 2/1/2 15/1/15
f 50/1/27 49/3/26 48/3/25
f 49/3/26 50/1/27 51/1/28
f 1/1/1 47/3/24 14/3/14
f 47/3/24 1/1/1 2/1/2
f 9/3/9 53/1/30 52/3/29
f 53/1/30 9/3/9 10/1/10
f 54/2/31 51/1/28 50/1/27
f 51/1/28 54/2/31 55/2/32
f 10/1/10 56/2/33 53/1/30
f 56/2/33 10/1/10 46/2/23
f 58/2/35 5/1/5 57/1/34
f 5/1/5 58/2/35 7/2/7
f 51/1/28 59/3/36 49/3/26
f 59/3/36 51/1/28 57/1/34
f 5/1/5 13/3/13 60/3/37
f 13/3/13 5/1/5 6/1/6
f 55/2/32 57/1/34 51/1/28
f 57/1/34 55/2/32 58/2/35
f 52/3/29 50/1/27 48/3/25
f 50/1/27 52/3/29 53/1/30
f 57/1/34 60/3/37 59/3/36
f 60/3/37 57/1/34 5/1/5
f 16/1/16 11/3/11 21/3/21
f 11/3/11 16/1/16 12/1/12
f 53/1/30 54/2/31 50/1/27
f 54/2/31 53/1/30 56/2/33
f 3/2/3 6/1/6 8/2/8
f 6/1/6 3/2/3 1/1/1
f 32/4/38 58/2/35 55/2/32
f 58/2/35 32/4/38 25/4/39
f 22/4/41 7/2/7 24/4/40
f 7/2/7 22/4/41 8/2/8
f 19/2/19 45/4/42 46/2/23
f 45/4/42 19/2/19 42/4/43
f 39/4/44 55/2/32 54/2/31
f 55/2/32 39/4/44 32/4/38
f 37/4/45 19/2/19 18/2/18
f 19/2/19 37/4/45 42/4/43
f 34/4/46 18/2/18 17/2/17
f 18/2/18 34/4/46 37/4/45
f 23/4/47 8/2/8 22/4/41
f 8/2/8 23/4/47 3/2/3
f 27/4/48 17/2/17 4/2/4
f 17/2/17 27/4/48 34/4/46
f 56/2/33 39/4/44 54/2/31
f 39/4/44 56/2/33 43/4/49
f 46/2/23 43/4/49 56/2/33
f 43/4/49 46/2/23 45/4/42
f 27/4/48 3/2/3 23/4/47
f 3/2/3 27/4/48 4/2/4
f 25/4/39 7/2/7 58/2/35
f 7/2/7 25/4/39 24/4/40
f 63/3/50 62/3/50 61/3/50
f 62/3/50 63/3/50 64/3/50
f 64/3/50 63/3/50 65/3/50
f 64/3/50 65/3/50 66/3/50
f 66/3/50 65/3/50 67/3/50
f 66/3/50 67/3/50 68/3/50
f 66/3/50 68/3/50 69/3/50
f 69/3/50 68/3/50 70/3/50
f 69/3/50 70/3/50 71/3/50
f 71/3/50 70/3/50 72/3/50
f 73/5/51 66/3/52 69/3/51
f 66/3/52 73/5/51 74/5/52
f 76/5/54 64/3/53 75/5/53
f 64/3/53 76/5/54 62/3/54
f 77/5/55 68/3/56 67/3/55
f 68/3/56 77/5/55 78/5/56
f 74/5/52 64/3/53 66/3/52
f 64/3/53 74/5/52 75/5/53
f 80/5/58 61/3/57 79/5/57
f 61/3/57 80/5/58 63/3/58
f 81/5/59 69/3/51 71/3/59
f 69/3/51 81/5/59 73/5/51
f 78/5/56 70/3/60 68/3/56
f 70/3/60 78/5/56 82/5/60
f 80/5/58 65/3/61 63/3/58
f 65/3/61 80/5/58 83/5/61
f 72/3/62 82/5/60 84/5/62
f 82/5/60 72/3/62 70/3/60
f 83/5/61 67/3/55 65/3/61
f 67/3/55 83/5/61 77/5/55
f 71/3/59 84/5/62 81/5/59
f 84/5/62 71/3/59 72/3/62
f 79/5/57 62/3/54 76/5/54
f 62/3/54 79/5/57 61/3/57
f 76/5/22 80/5/22 79/5/22
f 80/5/22 76/5/22 75/5/22
f 80/5/22 75/5/22 83/5/22
f 83/5/22 75/5/22 74/5/22
f 83/5/22 74/5/22 77/5/22
f 77/5/22 74/5/22 73/5/22
f 77/5/22 73/5/22 78/5/22
f 78/5/22 73/5/22 81/5/22
f 78/5/22 81/5/22 82/5/22
f 82/5/22 81/5/22 84/5/22
f 38/6/40 85/7/63 44/6/41
f 85/7/63 38/6/40 86/7/64
f 30/6/45 88/7/66 87/7/65
f 88/7/66 30/6/45 33/6/46
f 91/7/69 90/7/68 89/7/67
f 90/7/68 91/7/69 87/7/65
f 90/7/68 87/7/65 92/7/70
f 92/7/70 87/7/65 93/7/71
f 93/7/71 87/7/65 88/7/66
f 93/7/71 88/7/66 94/7/72
f 93/7/71 94/7/72 95/7/73
f 95/7/73 94/7/72 96/7/74
f 95/7/73 96/7/74 86/7/64
f 86/7/64 96/7/74 85/7/63
f 91/7/69 30/6/45 87/7/65
f 30/6/45 91/7/69 28/6/43
f 33/6/46 94/7/72 88/7/66
f 94/7/72 33/6/46 40/6/48
f 90/7/68 26/6/42 89/7/67
f 26/6/42 90/7/68 29/6/49
f 44/6/41 96/7/74 41/6/47
f 96/7/74 44/6/41 85/7/63
f 89/7/67 28/6/43 91/7/69
f 28/6/43 89/7/67 26/6/42
f 36/6/39 93/7/71 95/7/73
f 93/7/71 36/6/39 35/6/38
f 38/6/40 95/7/73 86/7/64
f 95/7/73 38/6/40 36/6/39
f 35/6/38 92/7/70 93/7/71
f 92/7/70 35/6/38 31/6/44
f 92/7/70 29/6/49 90/7/68
f 29/6/49 92/7/70 31/6/44
f 41/6/47 94/7/72 40/6/48
f 94/7/72 41/6/47 96/7/74
f 99/9/66 98/8/45 97/8/46
f 98/8/45 99/9/66 100/9/65
f 103/9/74 102/8/41 101/9/63
f 102/8/41 103/9/74 104/8/47
f 107/8/38 106/9/73 105/8/39
f 106/9/73 107/8/38 108/9/71
f 110/9/72 97/8/46 109/8/48
f 97/8/46 110/9/72 99/9/66
f 112/9/70 107/8/38 111/8/44
f 107/8/38 112/9/70 108/9/71
f 113/8/49 112/9/70 111/8/44
f 112/9/70 113/8/49 114/9/68
f 106/9/73 115/8/40 105/8/39
f 115/8/40 106/9/73 116/9/64
f 117/8/42 114/9/68 113/8/49
f 114/9/68 117/8/42 118/9/67
f 110/9/72 104/8/47 103/9/74
f 104/8/47 110/9/72 109/8/48
f 101/9/63 115/8/40 116/9/64
f 115/8/40 101/9/63 102/8/41
f 98/8/45 120/9/69 119/8/43
f 120/9/69 98/8/45 100/9/65
f 119/8/43 118/9/67 117/8/42
f 118/9/67 119/8/43 120/9/69
f 116/9/64 103/9/74 101/9/63
f 103/9/74 116/9/64 110/9/72
f 110/9/72 116/9/64 106/9/73
f 110/9/72 106/9/73 99/9/66
f 99/9/66 106/9/73 108/9/71
f 99/9/66 108/9/71 112/9/70
f 99/9/66 112/9/70 100/9/65
f 100/9/65 112/9/70 120/9/69
f 120/9/69 112/9/70 114/9/68
f 120/9/69 114/9/68 118/9/67
f 104/8/50 115/8/50 102/8/50
f 115/8/50 104/8/50 109/8/50
f 115/8/50 109/8/50 105/8/50
f 105/8/50 109/8/50 97/8/50
f 105/8/50 97/8/50 107/8/50
f 107/8/50 97/8/50 111/8/50
f 111/8/50 97/8/50 98/8/50
f 111/8/50 98/8/50 119/8/50
f 111/8/50 119/8/50 113/8/50
f 113/8/50 119/8/50 117/8/50

