# Created by Kenney (www.kenney.nl)

mtllib chimney-medium.mtl

g chimney-medium

v 0.1236295 1.8125 0.1236295 1 1 1
v 3.609557E-16 1.8125 0.1748385 1 1 1
v 0.1236295 1.925 0.1236295 1 1 1
v 3.609557E-16 1.925 0.1748385 1 1 1
v 3.609557E-16 1.8125 -0.1748385 1 1 1
v 0.1236295 1.8125 -0.1236295 1 1 1
v 3.609557E-16 1.925 -0.1748385 1 1 1
v 0.1236295 1.925 -0.1236295 1 1 1
v 0.1748385 1.8125 0 1 1 1
v -0.1236295 1.8125 0.1236295 1 1 1
v -0.1236295 1.8125 -0.1236295 1 1 1
v -0.1748385 1.8125 0 1 1 1
v 0.1748385 1.925 0 1 1 1
v -0.1236295 1.925 -0.1236295 1 1 1
v -0.1748385 1.925 0 1 1 1
v -0.1236295 1.925 0.1236295 1 1 1
v -0.1261308 1.925 0 1 1 1
v -0.08918795 1.925 -0.08918795 1 1 1
v -0.08918795 1.925 0.08918795 1 1 1
v 3.609557E-16 1.925 -0.1261308 1 1 1
v 0.08918795 1.925 -0.08918795 1 1 1
v 3.609557E-16 1.925 0.1261308 1 1 1
v 0.08918795 1.925 0.08918795 1 1 1
v 0.1261308 1.925 0 1 1 1
v -0.225 0 0 1 1 1
v -0.225 0.1125 0 1 1 1
v -0.159099 0 0.159099 1 1 1
v -0.159099 0.1125 0.159099 1 1 1
v -3.609557E-16 0 0.225 1 1 1
v -3.609557E-16 0.1125 0.225 1 1 1
v 0.225 0.1125 0 1 1 1
v 0.159099 0.1125 0.159099 1 1 1
v 0.159099 0.1125 -0.159099 1 1 1
v -3.609557E-16 0.1125 -0.225 1 1 1
v -0.159099 0.1125 -0.159099 1 1 1
v -0.159099 0 -0.159099 1 1 1
v 0.225 0 0 1 1 1
v 0.159099 0 0.159099 1 1 1
v 0.159099 0 -0.159099 1 1 1
v -3.609557E-16 0 -0.225 1 1 1
v 0.1261308 1.86875 0 1 1 1
v 0.08918795 1.86875 0.08918795 1 1 1
v 0.08918795 1.86875 -0.08918795 1 1 1
v 3.609557E-16 1.86875 -0.1261308 1 1 1
v 3.609557E-16 1.86875 0.1261308 1 1 1
v -0.08918795 1.86875 -0.08918795 1 1 1
v -0.08918795 1.86875 0.08918795 1 1 1
v -0.1261308 1.86875 0 1 1 1
v -0.1418783 0.1125 -0.1418783 1 1 1
v 0 0.1125 -0.2006462 1 1 1
v -0.1064087 1.8125 -0.1064087 1 1 1
v -0.2006462 0.1125 0 1 1 1
v 0 1.8125 -0.1504846 1 1 1
v -0.1504846 1.8125 0 1 1 1
v 0.1418783 0.1125 -0.1418783 1 1 1
v 0.1064087 1.8125 -0.1064087 1 1 1
v -0.1418783 0.1125 0.1418783 1 1 1
v -0.1064087 1.8125 0.1064087 1 1 1
v 0 1.8125 0.1504846 1 1 1
v 0 0.1125 0.2006462 1 1 1
v 0.2006462 0.1125 0 1 1 1
v 0.1504846 1.8125 0 1 1 1
v 0.1064087 1.8125 0.1064087 1 1 1
v 0.1418783 0.1125 0.1418783 1 1 1
v -0.1299721 1.35954 -0.1299721 1 1 1
v 0 1.35954 -0.1838083 1 1 1
v -0.1229885 1.694252 -0.1229885 1 1 1
v 1.617082E-15 1.694252 -0.173932 1 1 1
v 0.1299721 1.35954 0.1299721 1 1 1
v 0 1.35954 0.1838083 1 1 1
v 0.1229885 1.694252 0.1229885 1 1 1
v 0 1.694252 0.173932 1 1 1
v 0.1299721 1.35954 -0.1299721 1 1 1
v 0.1229885 1.694252 -0.1229885 1 1 1
v 0.1838083 1.35954 1.212811E-15 1 1 1
v 0.173932 1.694252 1.212811E-15 1 1 1
v -0.1838083 1.35954 -4.042704E-16 1 1 1
v -0.173932 1.694252 -4.042704E-16 1 1 1
v -0.1299721 1.35954 0.1299721 1 1 1
v -0.1229885 1.694252 0.1229885 1 1 1
v 0 0.8574725 0.1986227 1 1 1
v -0.1404475 0.8574725 0.1404475 1 1 1
v 0 1.192184 0.1887464 1 1 1
v -0.1334639 1.192184 0.1334639 1 1 1
v 0.1404475 0.8574725 0.1404475 1 1 1
v 0.1334639 1.192184 0.1334639 1 1 1
v -0.1404475 0.8574725 -0.1404475 1 1 1
v 0 0.8574725 -0.1986227 1 1 1
v -0.1334639 1.192184 -0.1334639 1 1 1
v 0 1.192184 -0.1887464 1 1 1
v -0.1986227 0.8574725 -1.212811E-15 1 1 1
v -0.1887464 1.192184 -1.212811E-15 1 1 1
v 0.1404475 0.8574725 -0.1404475 1 1 1
v 0.1986227 0.8574725 4.042704E-16 1 1 1
v 0.1334639 1.192184 -0.1334639 1 1 1
v 0.1887464 1.192184 4.042704E-16 1 1 1

vn 0.7071068 0 0.7071068
vn 0 0 1
vn 0 0 -1
vn 0.7071068 0 -0.7071068
vn 0 -1 0
vn 1 0 0
vn -0.7071068 0 -0.7071068
vn -1 0 0
vn -0.7071068 0 0.7071068
vn 0 1 0
vn -0.7067991 0.02949395 -0.7067991
vn 0 0.02949395 -0.9995649
vn -0.9995649 0.02949395 0
vn 0.7067991 0.02949395 -0.7067991
vn -0.7067991 0.02949395 0.7067991
vn 0 0.02949395 0.9995649
vn 0.9995649 0.02949395 0
vn 0.7067991 0.02949395 0.7067991
vn -0.5425534 0.6413047 -0.5425534
vn 0 0.6413047 -0.7672864
vn 0.5425534 0.6413047 0.5425534
vn 0 0.6413047 0.7672864
vn 0.5425534 0.6413047 -0.5425534
vn 0.7672864 0.6413047 0
vn -0.7672864 0.6413047 0
vn -0.5425534 0.6413047 0.5425534

vt 0.59375 0.275
vt 0.59375 0.475
vt 0.71875 0.375
vt 0.71875 0.475
vt 0.96875 0.275
vt 0.96875 0.475
vt 0.71875 0.575
vt 0.71875 0.675

usemtl colormap

f 3/2/1 2/1/2 1/1/1
f 2/1/2 3/2/1 4/2/2
f 7/2/3 6/1/4 5/1/3
f 6/1/4 7/2/3 8/2/4
f 1/1/5 6/1/5 9/1/5
f 6/1/5 1/1/5 2/1/5
f 6/1/5 2/1/5 5/1/5
f 5/1/5 2/1/5 10/1/5
f 5/1/5 10/1/5 11/1/5
f 11/1/5 10/1/5 12/1/5
f 3/2/1 9/1/6 13/2/6
f 9/1/6 3/2/1 1/1/1
f 14/2/7 5/1/3 11/1/7
f 5/1/3 14/2/7 7/2/3
f 12/1/8 14/2/7 11/1/7
f 14/2/7 12/1/8 15/2/8
f 10/1/9 15/2/8 12/1/8
f 15/2/8 10/1/9 16/2/9
f 4/2/2 10/1/9 2/1/2
f 10/1/9 4/2/2 16/2/9
f 13/2/6 6/1/4 8/2/4
f 6/1/4 13/2/6 9/1/6
f 17/2/10 14/2/10 15/2/10
f 16/2/10 17/2/10 15/2/10
f 18/2/10 14/2/10 17/2/10
f 16/2/10 19/2/10 17/2/10
f 20/2/10 14/2/10 18/2/10
f 20/2/10 7/2/10 14/2/10
f 21/2/10 7/2/10 20/2/10
f 21/2/10 8/2/10 7/2/10
f 4/2/10 19/2/10 16/2/10
f 4/2/10 22/2/10 19/2/10
f 4/2/10 23/2/10 22/2/10
f 3/2/10 23/2/10 4/2/10
f 24/2/10 8/2/10 21/2/10
f 3/2/10 24/2/10 23/2/10
f 8/2/10 24/2/10 13/2/10
f 24/2/10 3/2/10 13/2/10
f 27/1/9 26/2/8 25/1/8
f 26/2/8 27/1/9 28/2/9
f 30/2/2 27/1/9 29/1/2
f 27/1/9 30/2/2 28/2/9
f 33/2/10 32/2/10 31/2/10
f 32/2/10 33/2/10 34/2/10
f 32/2/10 34/2/10 30/2/10
f 30/2/10 34/2/10 35/2/10
f 30/2/10 35/2/10 28/2/10
f 28/2/10 35/2/10 26/2/10
f 25/1/8 35/2/7 36/1/7
f 35/2/7 25/1/8 26/2/8
f 32/2/1 37/1/6 31/2/6
f 37/1/6 32/2/1 38/1/1
f 32/2/1 29/1/2 38/1/1
f 29/1/2 32/2/1 30/2/2
f 31/2/6 39/1/4 33/2/4
f 39/1/4 31/2/6 37/1/6
f 35/2/7 40/1/3 36/1/7
f 40/1/3 35/2/7 34/2/3
f 34/2/3 39/1/4 40/1/3
f 39/1/4 34/2/3 33/2/4
f 38/1/5 39/1/5 37/1/5
f 39/1/5 38/1/5 29/1/5
f 39/1/5 29/1/5 40/1/5
f 40/1/5 29/1/5 27/1/5
f 40/1/5 27/1/5 36/1/5
f 36/1/5 27/1/5 25/1/5
f 43/3/10 42/3/10 41/3/10
f 42/3/10 43/3/10 44/3/10
f 42/3/10 44/3/10 45/3/10
f 45/3/10 44/3/10 46/3/10
f 45/3/10 46/3/10 47/3/10
f 47/3/10 46/3/10 48/3/10
f 19/4/4 45/3/3 47/3/4
f 45/3/3 19/4/4 22/4/3
f 42/3/7 24/4/8 41/3/8
f 24/4/8 42/3/7 23/4/7
f 41/3/8 21/4/9 43/3/9
f 21/4/9 41/3/8 24/4/8
f 19/4/4 48/3/6 17/4/6
f 48/3/6 19/4/4 47/3/4
f 22/4/3 42/3/7 45/3/3
f 42/3/7 22/4/3 23/4/7
f 21/4/9 44/3/2 43/3/9
f 44/3/2 21/4/9 20/4/2
f 17/4/6 46/3/1 18/4/1
f 46/3/1 17/4/6 48/3/6
f 20/4/2 46/3/1 44/3/2
f 46/3/1 20/4/2 18/4/1
f 51/6/11 50/5/12 49/5/11
f 52/5/13 51/6/11 49/5/11
f 50/5/12 51/6/11 53/6/12
f 51/6/11 52/5/13 54/6/13
f 53/6/12 55/5/14 50/5/12
f 55/5/14 53/6/12 56/6/14
f 57/5/15 54/6/13 52/5/13
f 54/6/13 57/5/15 58/6/15
f 57/5/15 59/6/16 58/6/15
f 59/6/16 57/5/15 60/5/16
f 56/6/14 61/5/17 55/5/14
f 61/5/17 56/6/14 62/6/17
f 60/5/16 63/6/18 59/6/16
f 63/6/18 61/5/17 62/6/17
f 63/6/18 60/5/16 64/5/18
f 61/5/17 63/6/18 64/5/18
f 67/8/19 66/7/12 65/7/11
f 66/7/12 67/8/19 68/8/20
f 71/8/21 70/7/16 69/7/18
f 70/7/16 71/8/21 72/8/22
f 68/8/20 73/7/14 66/7/12
f 73/7/14 68/8/20 74/8/23
f 74/8/23 75/7/17 73/7/14
f 75/7/17 74/8/23 76/8/24
f 71/8/21 75/7/17 76/8/24
f 75/7/17 71/8/21 69/7/18
f 77/7/13 67/8/19 65/7/11
f 67/8/19 77/7/13 78/8/25
f 79/7/15 78/8/25 77/7/13
f 78/8/25 79/7/15 80/8/26
f 72/8/22 79/7/15 70/7/16
f 79/7/15 72/8/22 80/8/26
f 74/8/23 71/8/21 76/8/24
f 71/8/21 74/8/23 68/8/20
f 71/8/21 68/8/20 72/8/22
f 72/8/22 68/8/20 67/8/19
f 72/8/22 67/8/19 80/8/26
f 80/8/26 67/8/19 78/8/25
f 69/7/5 73/7/5 75/7/5
f 73/7/5 69/7/5 66/7/5
f 66/7/5 69/7/5 70/7/5
f 66/7/5 70/7/5 79/7/5
f 66/7/5 79/7/5 65/7/5
f 65/7/5 79/7/5 77/7/5
f 83/8/22 82/7/15 81/7/16
f 82/7/15 83/8/22 84/8/26
f 85/7/18 83/8/22 81/7/16
f 83/8/22 85/7/18 86/8/21
f 89/8/19 88/7/12 87/7/11
f 88/7/12 89/8/19 90/8/20
f 91/7/13 89/8/19 87/7/11
f 89/8/19 91/7/13 92/8/25
f 82/7/15 92/8/25 91/7/13
f 92/8/25 82/7/15 84/8/26
f 95/8/23 94/7/17 93/7/14
f 94/7/17 95/8/23 96/8/24
f 86/8/21 94/7/17 96/8/24
f 94/7/17 86/8/21 85/7/18
f 90/8/20 93/7/14 88/7/12
f 93/7/14 90/8/20 95/8/23
f 85/7/5 93/7/5 94/7/5
f 93/7/5 85/7/5 81/7/5
f 93/7/5 81/7/5 88/7/5
f 88/7/5 81/7/5 82/7/5
f 88/7/5 82/7/5 87/7/5
f 87/7/5 82/7/5 91/7/5
f 95/8/23 86/8/21 96/8/24
f 86/8/21 95/8/23 90/8/20
f 86/8/21 90/8/20 83/8/22
f 83/8/22 90/8/20 89/8/19
f 83/8/22 89/8/19 84/8/26
f 84/8/26 89/8/19 92/8/25

g chimney-medium




usemtl colormap

f 3/2/1 2/1/2 1/1/1
f 2/1/2 3/2/1 4/2/2
f 7/2/3 6/1/4 5/1/3
f 6/1/4 7/2/3 8/2/4
f 1/1/5 6/1/5 9/1/5
f 6/1/5 1/1/5 2/1/5
f 6/1/5 2/1/5 5/1/5
f 5/1/5 2/1/5 10/1/5
f 5/1/5 10/1/5 11/1/5
f 11/1/5 10/1/5 12/1/5
f 3/2/1 9/1/6 13/2/6
f 9/1/6 3/2/1 1/1/1
f 14/2/7 5/1/3 11/1/7
f 5/1/3 14/2/7 7/2/3
f 12/1/8 14/2/7 11/1/7
f 14/2/7 12/1/8 15/2/8
f 10/1/9 15/2/8 12/1/8
f 15/2/8 10/1/9 16/2/9
f 4/2/2 10/1/9 2/1/2
f 10/1/9 4/2/2 16/2/9
f 13/2/6 6/1/4 8/2/4
f 6/1/4 13/2/6 9/1/6
f 17/2/10 14/2/10 15/2/10
f 16/2/10 17/2/10 15/2/10
f 18/2/10 14/2/10 17/2/10
f 16/2/10 19/2/10 17/2/10
f 20/2/10 14/2/10 18/2/10
f 20/2/10 7/2/10 14/2/10
f 21/2/10 7/2/10 20/2/10
f 21/2/10 8/2/10 7/2/10
f 4/2/10 19/2/10 16/2/10
f 4/2/10 22/2/10 19/2/10
f 4/2/10 23/2/10 22/2/10
f 3/2/10 23/2/10 4/2/10
f 24/2/10 8/2/10 21/2/10
f 3/2/10 24/2/10 23/2/10
f 8/2/10 24/2/10 13/2/10
f 24/2/10 3/2/10 13/2/10
f 27/1/9 26/2/8 25/1/8
f 26/2/8 27/1/9 28/2/9
f 30/2/2 27/1/9 29/1/2
f 27/1/9 30/2/2 28/2/9
f 33/2/10 32/2/10 31/2/10
f 32/2/10 33/2/10 34/2/10
f 32/2/10 34/2/10 30/2/10
f 30/2/10 34/2/10 35/2/10
f 30/2/10 35/2/10 28/2/10
f 28/2/10 35/2/10 26/2/10
f 25/1/8 35/2/7 36/1/7
f 35/2/7 25/1/8 26/2/8
f 32/2/1 37/1/6 31/2/6
f 37/1/6 32/2/1 38/1/1
f 32/2/1 29/1/2 38/1/1
f 29/1/2 32/2/1 30/2/2
f 31/2/6 39/1/4 33/2/4
f 39/1/4 31/2/6 37/1/6
f 35/2/7 40/1/3 36/1/7
f 40/1/3 35/2/7 34/2/3
f 34/2/3 39/1/4 40/1/3
f 39/1/4 34/2/3 33/2/4
f 38/1/5 39/1/5 37/1/5
f 39/1/5 38/1/5 29/1/5
f 39/1/5 29/1/5 40/1/5
f 40/1/5 29/1/5 27/1/5
f 40/1/5 27/1/5 36/1/5
f 36/1/5 27/1/5 25/1/5
f 43/3/10 42/3/10 41/3/10
f 42/3/10 43/3/10 44/3/10
f 42/3/10 44/3/10 45/3/10
f 45/3/10 44/3/10 46/3/10
f 45/3/10 46/3/10 47/3/10
f 47/3/10 46/3/10 48/3/10
f 19/4/4 45/3/3 47/3/4
f 45/3/3 19/4/4 22/4/3
f 42/3/7 24/4/8 41/3/8
f 24/4/8 42/3/7 23/4/7
f 41/3/8 21/4/9 43/3/9
f 21/4/9 41/3/8 24/4/8
f 19/4/4 48/3/6 17/4/6
f 48/3/6 19/4/4 47/3/4
f 22/4/3 42/3/7 45/3/3
f 42/3/7 22/4/3 23/4/7
f 21/4/9 44/3/2 43/3/9
f 44/3/2 21/4/9 20/4/2
f 17/4/6 46/3/1 18/4/1
f 46/3/1 17/4/6 48/3/6
f 20/4/2 46/3/1 44/3/2
f 46/3/1 20/4/2 18/4/1
f 51/6/11 50/5/12 49/5/11
f 52/5/13 51/6/11 49/5/11
f 50/5/12 51/6/11 53/6/12
f 51/6/11 52/5/13 54/6/13
f 53/6/12 55/5/14 50/5/12
f 55/5/14 53/6/12 56/6/14
f 57/5/15 54/6/13 52/5/13
f 54/6/13 57/5/15 58/6/15
f 57/5/15 59/6/16 58/6/15
f 59/6/16 57/5/15 60/5/16
f 56/6/14 61/5/17 55/5/14
f 61/5/17 56/6/14 62/6/17
f 60/5/16 63/6/18 59/6/16
f 63/6/18 61/5/17 62/6/17
f 63/6/18 60/5/16 64/5/18
f 61/5/17 63/6/18 64/5/18
f 67/8/19 66/7/12 65/7/11
f 66/7/12 67/8/19 68/8/20
f 71/8/21 70/7/16 69/7/18
f 70/7/16 71/8/21 72/8/22
f 68/8/20 73/7/14 66/7/12
f 73/7/14 68/8/20 74/8/23
f 74/8/23 75/7/17 73/7/14
f 75/7/17 74/8/23 76/8/24
f 71/8/21 75/7/17 76/8/24
f 75/7/17 71/8/21 69/7/18
f 77/7/13 67/8/19 65/7/11
f 67/8/19 77/7/13 78/8/25
f 79/7/15 78/8/25 77/7/13
f 78/8/25 79/7/15 80/8/26
f 72/8/22 79/7/15 70/7/16
f 79/7/15 72/8/22 80/8/26
f 74/8/23 71/8/21 76/8/24
f 71/8/21 74/8/23 68/8/20
f 71/8/21 68/8/20 72/8/22
f 72/8/22 68/8/20 67/8/19
f 72/8/22 67/8/19 80/8/26
f 80/8/26 67/8/19 78/8/25
f 69/7/5 73/7/5 75/7/5
f 73/7/5 69/7/5 66/7/5
f 66/7/5 69/7/5 70/7/5
f 66/7/5 70/7/5 79/7/5
f 66/7/5 79/7/5 65/7/5
f 65/7/5 79/7/5 77/7/5
f 83/8/22 82/7/15 81/7/16
f 82/7/15 83/8/22 84/8/26
f 85/7/18 83/8/22 81/7/16
f 83/8/22 85/7/18 86/8/21
f 89/8/19 88/7/12 87/7/11
f 88/7/12 89/8/19 90/8/20
f 91/7/13 89/8/19 87/7/11
f 89/8/19 91/7/13 92/8/25
f 82/7/15 92/8/25 91/7/13
f 92/8/25 82/7/15 84/8/26
f 95/8/23 94/7/17 93/7/14
f 94/7/17 95/8/23 96/8/24
f 86/8/21 94/7/17 96/8/24
f 94/7/17 86/8/21 85/7/18
f 90/8/20 93/7/14 88/7/12
f 93/7/14 90/8/20 95/8/23
f 85/7/5 93/7/5 94/7/5
f 93/7/5 85/7/5 81/7/5
f 93/7/5 81/7/5 88/7/5
f 88/7/5 81/7/5 82/7/5
f 88/7/5 82/7/5 87/7/5
f 87/7/5 82/7/5 91/7/5
f 95/8/23 86/8/21 96/8/24
f 86/8/21 95/8/23 90/8/20
f 86/8/21 90/8/20 83/8/22
f 83/8/22 90/8/20 89/8/19
f 83/8/22 89/8/19 84/8/26
f 84/8/26 89/8/19 92/8/25

