# Created by Kenney (www.kenney.nl)

mtllib chimney-basic.mtl

g chimney-basic

v 0 0 -0.1 1 1 1
v 0.07071068 0 -0.07071068 1 1 1
v 0 1 -0.075 1 1 1
v 0.05303301 1 -0.05303301 1 1 1
v -0.1 0 0 1 1 1
v -0.075 1 3.609557E-16 1 1 1
v -0.07071068 0 0.07071068 1 1 1
v -0.05303301 1 0.05303301 1 1 1
v -0.07071068 0 -0.07071068 1 1 1
v -0.05303301 1 -0.05303301 1 1 1
v 0.1 0 0 1 1 1
v 0.07071068 0 0.07071068 1 1 1
v 0.075 1 3.609557E-16 1 1 1
v 0.05303301 1 0.05303301 1 1 1
v 0 0 0.1 1 1 1
v 0 1 0.075 1 1 1
v 0 1 0.05335216 1 1 1
v 0.03772567 1 0.03772567 1 1 1
v -0.03772567 1 0.03772567 1 1 1
v 0.05335216 1 3.609557E-16 1 1 1
v 0.03772567 1 -0.03772567 1 1 1
v 0 1 -0.05335216 1 1 1
v -0.05335216 1 3.609557E-16 1 1 1
v -0.03772567 1 -0.03772567 1 1 1
v 0.03772567 0.925 -0.03772567 1 1 1
v 0.05335216 0.925 3.609557E-16 1 1 1
v -0.03772567 0.925 -0.03772567 1 1 1
v -0.05335216 0.925 3.609557E-16 1 1 1
v 0.03772567 0.925 0.03772567 1 1 1
v -0.03772567 0.925 0.03772567 1 1 1
v 0 0.925 0.05335216 1 1 1
v 0 0.925 -0.05335216 1 1 1
v -0.09948122 0.7134814 8.870631E-16 1 1 1
v -0.09461529 0.9081185 8.870631E-16 1 1 1
v -0.07034384 0.7134814 0.07034384 1 1 1
v -0.06690311 0.9081185 0.06690311 1 1 1
v -8.870631E-16 0.7134814 0.09948122 1 1 1
v 0 0.9081185 0.09461529 1 1 1
v 0 0.7134814 -0.09948122 1 1 1
v 0.07034384 0.7134814 -0.07034384 1 1 1
v 0 0.9081185 -0.09461529 1 1 1
v 0.06690311 0.9081185 -0.06690311 1 1 1
v -0.07034384 0.7134814 -0.07034384 1 1 1
v -0.06690311 0.9081185 -0.06690311 1 1 1
v 0.07034384 0.7134814 0.07034384 1 1 1
v 0.06690311 0.9081185 0.06690311 1 1 1
v 0.09948122 0.7134814 8.870631E-16 1 1 1
v 0.09461529 0.9081185 8.870631E-16 1 1 1

vn 0.3825814 0.02309083 -0.9236332
vn -0.9236332 0.02309083 0.3825814
vn -0.3825814 0.02309083 -0.9236332
vn -0.9236332 0.02309083 -0.3825814
vn 0.9236332 0.02309083 0.3825814
vn 0 -1 0
vn -0.3825814 0.02309083 0.9236332
vn 0.9236332 0.02309083 -0.3825814
vn 0.3825814 0.02309083 0.9236332
vn 0 1 0
vn -0.9238795 0 0.3826834
vn 0.9238795 0 0.3826834
vn -0.9238795 0 -0.3826834
vn 0.9238795 0 -0.3826834
vn 0.3826834 0 -0.9238795
vn 0.3826834 0 0.9238795
vn -0.3826834 0 0.9238795
vn -0.3826834 0 -0.9238795
vn -0.9996876 0.02499219 0
vn -0.7686886 0.639623 0
vn -0.7068859 0.02499219 0.7068859
vn -0.5435449 0.639623 0.5435449
vn 0 0.02499219 0.9996876
vn 0 0.639623 0.7686886
vn 0 0.02499219 -0.9996876
vn 0.7068859 0.02499219 -0.7068859
vn 0 0.639623 -0.7686886
vn 0.5435449 0.639623 -0.5435449
vn -0.7068859 0.02499219 -0.7068859
vn -0.5435449 0.639623 -0.5435449
vn 0.7068859 0.02499219 0.7068859
vn 0.5435449 0.639623 0.5435449
vn 0.9996876 0.02499219 0
vn 0.7686886 0.639623 0
vn 0 -0.9999999 0

vt 0.96875 0.275
vt 0.96875 0.475
vt 0.71875 0.46
vt 0.71875 0.475
vt 0.71875 0.525
vt 0.71875 0.725

usemtl colormap

f 3/2/1 2/1/1 1/1/1
f 2/1/1 3/2/1 4/2/1
f 7/1/2 6/2/2 5/1/2
f 6/2/2 7/1/2 8/2/2
f 10/2/3 1/1/3 9/1/3
f 1/1/3 10/2/3 3/2/3
f 5/1/4 10/2/4 9/1/4
f 10/2/4 5/1/4 6/2/4
f 13/2/5 12/1/5 11/1/5
f 12/1/5 13/2/5 14/2/5
f 12/1/6 2/1/6 11/1/6
f 2/1/6 12/1/6 15/1/6
f 2/1/6 15/1/6 1/1/6
f 1/1/6 15/1/6 7/1/6
f 1/1/6 7/1/6 9/1/6
f 9/1/6 7/1/6 5/1/6
f 16/2/7 7/1/7 15/1/7
f 7/1/7 16/2/7 8/2/7
f 4/2/8 11/1/8 2/1/8
f 11/1/8 4/2/8 13/2/8
f 14/2/9 15/1/9 12/1/9
f 15/1/9 14/2/9 16/2/9
f 16/2/10 18/2/10 17/2/10
f 16/2/10 17/2/10 19/2/10
f 14/2/10 18/2/10 16/2/10
f 16/2/10 19/2/10 8/2/10
f 14/2/10 20/2/10 18/2/10
f 20/2/10 14/2/10 13/2/10
f 4/2/10 20/2/10 13/2/10
f 20/2/10 4/2/10 21/2/10
f 21/2/10 4/2/10 3/2/10
f 21/2/10 3/2/10 22/2/10
f 8/2/10 19/2/10 23/2/10
f 8/2/10 23/2/10 6/2/10
f 22/2/10 3/2/10 10/2/10
f 23/2/10 10/2/10 6/2/10
f 22/2/10 10/2/10 24/2/10
f 24/2/10 10/2/10 23/2/10
f 26/3/11 21/4/11 25/3/11
f 21/4/11 26/3/11 20/4/11
f 23/4/12 27/3/12 24/4/12
f 27/3/12 23/4/12 28/3/12
f 29/3/13 20/4/13 26/3/13
f 20/4/13 29/3/13 18/4/13
f 19/4/14 28/3/14 23/4/14
f 28/3/14 19/4/14 30/3/14
f 19/4/15 31/3/15 30/3/15
f 31/3/15 19/4/15 17/4/15
f 25/3/10 29/3/10 26/3/10
f 29/3/10 25/3/10 32/3/10
f 29/3/10 32/3/10 31/3/10
f 31/3/10 32/3/10 27/3/10
f 31/3/10 27/3/10 30/3/10
f 30/3/10 27/3/10 28/3/10
f 22/4/16 27/3/16 32/3/16
f 27/3/16 22/4/16 24/4/16
f 21/4/17 32/3/17 25/3/17
f 32/3/17 21/4/17 22/4/17
f 17/4/18 29/3/18 31/3/18
f 29/3/18 17/4/18 18/4/18
f 35/5/21 34/6/20 33/5/19
f 34/6/20 35/5/21 36/6/22
f 38/6/24 35/5/21 37/5/23
f 35/5/21 38/6/24 36/6/22
f 41/6/27 40/5/26 39/5/25
f 40/5/26 41/6/27 42/6/28
f 44/6/30 39/5/25 43/5/29
f 39/5/25 44/6/30 41/6/27
f 46/6/32 37/5/23 45/5/31
f 37/5/23 46/6/32 38/6/24
f 42/6/28 47/5/33 40/5/26
f 47/5/33 42/6/28 48/6/34
f 46/6/32 47/5/33 48/6/34
f 47/5/33 46/6/32 45/5/31
f 33/5/19 44/6/30 43/5/29
f 44/6/30 33/5/19 34/6/20
f 42/6/28 46/6/32 48/6/34
f 46/6/32 42/6/28 41/6/27
f 46/6/32 41/6/27 38/6/24
f 38/6/24 41/6/27 44/6/30
f 38/6/24 44/6/30 36/6/22
f 36/6/22 44/6/30 34/6/20
f 45/5/35 40/5/35 47/5/35
f 40/5/35 45/5/35 37/5/35
f 40/5/35 37/5/35 39/5/35
f 39/5/35 37/5/35 43/5/35
f 43/5/35 37/5/35 35/5/35
f 43/5/35 35/5/35 33/5/35

g chimney-basic




usemtl colormap

f 3/2/1 2/1/1 1/1/1
f 2/1/1 3/2/1 4/2/1
f 7/1/2 6/2/2 5/1/2
f 6/2/2 7/1/2 8/2/2
f 10/2/3 1/1/3 9/1/3
f 1/1/3 10/2/3 3/2/3
f 5/1/4 10/2/4 9/1/4
f 10/2/4 5/1/4 6/2/4
f 13/2/5 12/1/5 11/1/5
f 12/1/5 13/2/5 14/2/5
f 12/1/6 2/1/6 11/1/6
f 2/1/6 12/1/6 15/1/6
f 2/1/6 15/1/6 1/1/6
f 1/1/6 15/1/6 7/1/6
f 1/1/6 7/1/6 9/1/6
f 9/1/6 7/1/6 5/1/6
f 16/2/7 7/1/7 15/1/7
f 7/1/7 16/2/7 8/2/7
f 4/2/8 11/1/8 2/1/8
f 11/1/8 4/2/8 13/2/8
f 14/2/9 15/1/9 12/1/9
f 15/1/9 14/2/9 16/2/9
f 16/2/10 18/2/10 17/2/10
f 16/2/10 17/2/10 19/2/10
f 14/2/10 18/2/10 16/2/10
f 16/2/10 19/2/10 8/2/10
f 14/2/10 20/2/10 18/2/10
f 20/2/10 14/2/10 13/2/10
f 4/2/10 20/2/10 13/2/10
f 20/2/10 4/2/10 21/2/10
f 21/2/10 4/2/10 3/2/10
f 21/2/10 3/2/10 22/2/10
f 8/2/10 19/2/10 23/2/10
f 8/2/10 23/2/10 6/2/10
f 22/2/10 3/2/10 10/2/10
f 23/2/10 10/2/10 6/2/10
f 22/2/10 10/2/10 24/2/10
f 24/2/10 10/2/10 23/2/10
f 26/3/11 21/4/11 25/3/11
f 21/4/11 26/3/11 20/4/11
f 23/4/12 27/3/12 24/4/12
f 27/3/12 23/4/12 28/3/12
f 29/3/13 20/4/13 26/3/13
f 20/4/13 29/3/13 18/4/13
f 19/4/14 28/3/14 23/4/14
f 28/3/14 19/4/14 30/3/14
f 19/4/15 31/3/15 30/3/15
f 31/3/15 19/4/15 17/4/15
f 25/3/10 29/3/10 26/3/10
f 29/3/10 25/3/10 32/3/10
f 29/3/10 32/3/10 31/3/10
f 31/3/10 32/3/10 27/3/10
f 31/3/10 27/3/10 30/3/10
f 30/3/10 27/3/10 28/3/10
f 22/4/16 27/3/16 32/3/16
f 27/3/16 22/4/16 24/4/16
f 21/4/17 32/3/17 25/3/17
f 32/3/17 21/4/17 22/4/17
f 17/4/18 29/3/18 31/3/18
f 29/3/18 17/4/18 18/4/18
f 35/5/21 34/6/20 33/5/19
f 34/6/20 35/5/21 36/6/22
f 38/6/24 35/5/21 37/5/23
f 35/5/21 38/6/24 36/6/22
f 41/6/27 40/5/26 39/5/25
f 40/5/26 41/6/27 42/6/28
f 44/6/30 39/5/25 43/5/29
f 39/5/25 44/6/30 41/6/27
f 46/6/32 37/5/23 45/5/31
f 37/5/23 46/6/32 38/6/24
f 42/6/28 47/5/33 40/5/26
f 47/5/33 42/6/28 48/6/34
f 46/6/32 47/5/33 48/6/34
f 47/5/33 46/6/32 45/5/31
f 33/5/19 44/6/30 43/5/29
f 44/6/30 33/5/19 34/6/20
f 42/6/28 46/6/32 48/6/34
f 46/6/32 42/6/28 41/6/27
f 46/6/32 41/6/27 38/6/24
f 38/6/24 41/6/27 44/6/30
f 38/6/24 44/6/30 36/6/22
f 36/6/22 44/6/30 34/6/20
f 45/5/35 40/5/35 47/5/35
f 40/5/35 45/5/35 37/5/35
f 40/5/35 37/5/35 39/5/35
f 39/5/35 37/5/35 43/5/35
f 43/5/35 37/5/35 35/5/35
f 43/5/35 35/5/35 33/5/35

