# Created by Kenney (www.kenney.nl)

mtllib detail-tank.mtl

g detail-tank

v -0.06399997 0.01623588 2.267724E-07 1 1 1
v -0.06399998 0.07229915 -0.1353485 1 1 1
v -0.06399995 0.07229915 0.135349 1 1 1
v -0.064 0.2076478 -0.1914118 1 1 1
v -0.06399995 0.2076478 0.1914123 1 1 1
v -0.06399998 0.3429965 -0.1353485 1 1 1
v -0.06399995 0.3429965 0.135349 1 1 1
v -0.06399997 0.3990598 2.267724E-07 1 1 1
v -0.07899997 -2.819966E-18 2.285605E-07 1 1 1
v -0.07899995 0.06081865 0.1468295 1 1 1
v -0.07899994 0.2076478 0.2076481 1 1 1
v -0.07899995 0.354477 0.1468295 1 1 1
v -0.07899997 0.4152957 2.285605E-07 1 1 1
v -0.07899999 0.06081865 -0.146829 1 1 1
v -0.079 0.2076478 -0.2076477 1 1 1
v -0.07899999 0.354477 -0.146829 1 1 1
v -0.139 0.06081865 0.1468295 1 1 1
v -0.139 -2.819966E-18 2.35713E-07 1 1 1
v -0.139 0.4152957 2.35713E-07 1 1 1
v -0.139 0.354477 -0.146829 1 1 1
v -0.139 0.2076478 0.2076481 1 1 1
v -0.139 0.354477 0.1468295 1 1 1
v -0.139 0.2076478 -0.2076477 1 1 1
v -0.139 0.06081865 -0.146829 1 1 1
v -0.154 0.01623588 2.375012E-07 1 1 1
v -0.154 0.07229915 0.135349 1 1 1
v -0.154 0.07229915 -0.1353485 1 1 1
v -0.154 0.2076478 -0.1914118 1 1 1
v -0.154 0.2076478 0.1914123 1 1 1
v -0.154 0.3429965 -0.1353485 1 1 1
v -0.154 0.3429965 0.135349 1 1 1
v -0.154 0.3990598 2.375012E-07 1 1 1
v -0.244 0.3026478 2.482654E-07 1 1 1
v -0.244 0.274823 0.0671754 1 1 1
v -0.234 0.3076478 2.48081E-07 1 1 1
v -0.234 0.2783585 0.07071094 1 1 1
v -0.234 0.1369372 0.07071094 1 1 1
v -0.234 0.2076478 0.1000003 1 1 1
v -0.244 0.1404727 0.0671754 1 1 1
v -0.244 0.2076478 0.09500027 1 1 1
v -0.244 0.1404727 -0.06717491 1 1 1
v -0.234 0.1369372 -0.07071045 1 1 1
v -0.244 0.1126478 2.482654E-07 1 1 1
v -0.234 0.1076478 2.48081E-07 1 1 1
v -0.244 0.274823 -0.06717491 1 1 1
v -0.234 0.2783585 -0.07071045 1 1 1
v -0.244 0.2076478 -0.09499978 1 1 1
v -0.234 0.2076478 -0.09999978 1 1 1
v -0.254 0.2076478 -0.07807679 1 1 1
v -0.254 0.152439 -0.05520856 1 1 1
v -0.254 0.2628566 -0.05520856 1 1 1
v -0.254 0.1295708 2.483573E-07 1 1 1
v -0.254 0.2857249 2.483573E-07 1 1 1
v -0.254 0.152439 0.05520906 1 1 1
v -0.254 0.2628566 0.05520906 1 1 1
v -0.254 0.2076478 0.07807729 1 1 1
v 0.3440001 0.01623588 1.78135E-07 1 1 1
v 0.344 0.07229915 -0.1353486 1 1 1
v 0.3440001 0.07229915 0.1353489 1 1 1
v 0.344 0.2076478 -0.1914119 1 1 1
v 0.3440001 0.2076478 0.1914122 1 1 1
v 0.344 0.3429965 -0.1353486 1 1 1
v 0.3440001 0.3429965 0.1353489 1 1 1
v 0.3440001 0.3990598 1.78135E-07 1 1 1
v 0.3290001 0 1.799231E-07 1 1 1
v 0.3290001 0.06081865 0.1468294 1 1 1
v 0.3290001 0.2076478 0.2076481 1 1 1
v 0.3290001 0.354477 0.1468294 1 1 1
v 0.3290001 0.4152957 1.799231E-07 1 1 1
v 0.3290001 0.06081865 -0.1468291 1 1 1
v 0.3290001 0.2076478 -0.2076477 1 1 1
v 0.3290001 0.354477 -0.1468291 1 1 1
v 0.2690001 0.06081865 0.1468294 1 1 1
v 0.2690001 0 1.870757E-07 1 1 1
v 0.2690001 0.4152957 1.870757E-07 1 1 1
v 0.269 0.354477 -0.1468291 1 1 1
v 0.2690001 0.2076478 0.2076481 1 1 1
v 0.2690001 0.354477 0.1468294 1 1 1
v 0.269 0.2076478 -0.2076477 1 1 1
v 0.269 0.06081865 -0.1468291 1 1 1
v 0.254 0.01623588 1.888638E-07 1 1 1
v 0.2540001 0.07229915 0.1353489 1 1 1
v 0.254 0.07229915 -0.1353486 1 1 1
v 0.254 0.2076478 -0.1914119 1 1 1
v 0.2540001 0.2076478 0.1914122 1 1 1
v 0.254 0.3429965 -0.1353486 1 1 1
v 0.2540001 0.3429965 0.1353489 1 1 1
v 0.254 0.3990598 1.888638E-07 1 1 1
v -0.09650001 0.02014784 -0.2076476 1 1 1
v -0.09650001 0.02014784 -0.2576476 1 1 1
v -0.1215 0.02014784 -0.2076476 1 1 1
v -0.1215 0.02014784 -0.2576476 1 1 1
v -0.1215 0.2076478 -0.2076476 1 1 1
v -0.09650001 0.2076478 -0.2076476 1 1 1
v -0.09650001 0.2076478 -0.1576476 1 1 1
v -0.1215 0.2076478 -0.1576476 1 1 1
v -0.1215 0.02014784 0.2076481 1 1 1
v -0.1215 0.02014784 0.2576481 1 1 1
v -0.09649996 0.02014784 0.2076481 1 1 1
v -0.09649996 0.02014784 0.2576481 1 1 1
v -0.09649996 0.2076478 0.2076481 1 1 1
v -0.1215 0.2076478 0.2076481 1 1 1
v -0.1215 0.2076478 0.157648 1 1 1
v -0.09649996 0.2076478 0.157648 1 1 1
v 0.2865001 0.02014784 0.207648 1 1 1
v 0.2865001 0.02014784 0.257648 1 1 1
v 0.3115001 0.02014784 0.207648 1 1 1
v 0.3115001 0.02014784 0.257648 1 1 1
v 0.3115001 0.2076478 0.207648 1 1 1
v 0.2865001 0.2076478 0.207648 1 1 1
v 0.2865001 0.2076478 0.157648 1 1 1
v 0.3115001 0.2076478 0.157648 1 1 1
v 0.3115001 0.02014784 -0.2076476 1 1 1
v 0.3115001 0.02014784 -0.2576476 1 1 1
v 0.2865001 0.02014784 -0.2076476 1 1 1
v 0.2865001 0.02014784 -0.2576476 1 1 1
v 0.2865001 0.2076478 -0.2076476 1 1 1
v 0.3115001 0.2076478 -0.2076476 1 1 1
v 0.3115001 0.2076478 -0.1576476 1 1 1
v 0.2865001 0.2076478 -0.1576476 1 1 1
v -0.4040002 0.1701478 -0.03749955 1 1 1
v -0.4040001 0.1701478 0.03750052 1 1 1
v -0.3852502 0.2263978 -0.03749956 1 1 1
v -0.3852502 0.2263978 0.03750051 1 1 1
v -0.254 0.1701478 0.0375005 1 1 1
v -0.3290001 0.1701478 0.03750051 1 1 1
v -0.254 0.1701478 -0.03749957 1 1 1
v -0.3290001 0.1701478 -0.03749956 1 1 1
v -0.254 0.2451478 0.0375005 1 1 1
v -0.254 0.2451478 -0.03749957 1 1 1
v -0.3290001 0.2451478 0.03750051 1 1 1
v -0.3290001 0.2451478 -0.03749956 1 1 1
v -0.3290001 0.07014784 0.03750051 1 1 1
v -0.3290001 0.07014784 -0.03749956 1 1 1
v -0.4040002 0.07014784 0.03750049 1 1 1
v -0.4040002 0.07014784 -0.03749955 1 1 1
v -0.3290001 0.07014784 0.05750052 1 1 1
v -0.3090001 0.07014784 0.0375005 1 1 1
v -0.4040002 0.07014784 0.05750051 1 1 1
v -0.4240002 0.07014784 0.0375005 1 1 1
v -0.3090001 0.07014784 -0.03749957 1 1 1
v -0.4240002 0.07014784 -0.03749955 1 1 1
v -0.4040002 0.07014784 -0.05749957 1 1 1
v -0.3290001 0.07014784 -0.05749958 1 1 1
v -0.3290001 0.02014784 -0.05749958 1 1 1
v -0.3090001 0.02014785 -0.03749957 1 1 1
v -0.4040002 0.02014784 0.05750053 1 1 1
v -0.3290001 0.02014785 0.05750052 1 1 1
v -0.4240002 0.02014784 -0.03749955 1 1 1
v -0.4240002 0.02014784 0.03750052 1 1 1
v -0.3090001 0.02014785 0.0375005 1 1 1
v -0.4040002 0.02014784 -0.05749957 1 1 1
v -0.184 0.3391697 0.1315221 1 1 1
v -0.184 0.2076478 0.1860003 1 1 1
v 0.3740001 0.3391697 0.1315221 1 1 1
v 0.3740001 0.2076478 0.1860002 1 1 1
v 0.3740001 0.02164784 1.745587E-07 1 1 1
v -0.184 0.02164784 2.410775E-07 1 1 1
v 0.3740001 0.07612598 -0.1315217 1 1 1
v -0.1840001 0.07612598 -0.1315217 1 1 1
v -0.184 0.07612598 0.1315221 1 1 1
v 0.3740001 0.07612598 0.1315221 1 1 1
v -0.184 0.3936478 2.410775E-07 1 1 1
v 0.3740001 0.3936478 1.745587E-07 1 1 1
v -0.1840001 0.2076478 -0.1859998 1 1 1
v 0.3740001 0.2076478 -0.1859999 1 1 1
v 0.3740001 0.3391697 -0.1315217 1 1 1
v 0.4240001 0.3128653 -0.1052174 1 1 1
v 0.4240001 0.2076478 -0.1487999 1 1 1
v 0.4240001 0.3128653 0.1052177 1 1 1
v 0.4240001 0.3564478 1.685982E-07 1 1 1
v -0.2340001 0.3128653 0.1052178 1 1 1
v -0.2340001 0.3564478 2.470379E-07 1 1 1
v -0.2340001 0.2076478 0.1488003 1 1 1
v -0.2340001 0.1024304 0.1052178 1 1 1
v -0.2340001 0.05884784 2.470379E-07 1 1 1
v -0.2340001 0.3128653 -0.1052173 1 1 1
v -0.1840001 0.3391697 -0.1315217 1 1 1
v -0.2340001 0.2076478 -0.1487998 1 1 1
v -0.2340001 0.1024304 -0.1052173 1 1 1
v 0.4240001 0.05884784 1.685982E-07 1 1 1
v 0.4240001 0.1024304 -0.1052174 1 1 1
v 0.4240001 0.1024304 0.1052177 1 1 1
v 0.4240002 0.2076478 0.1488002 1 1 1

vn 0.8991196 -0.4377038 -1.071834E-07
vn 0.8991195 -0.3095033 -0.3095036
vn 0.8991196 -0.3095033 0.3095033
vn 0.8991195 0 -0.4377041
vn 0.8991196 0 0.4377038
vn 0.8991195 0.3095033 -0.3095036
vn 0.8991196 0.3095033 0.3095033
vn 0.8991196 0.4377038 -1.071834E-07
vn 0.3688518 -0.9294882 -4.397056E-08
vn 0.3688519 -0.6572475 0.6572477
vn 0.3688519 0 0.9294885
vn 0.3688519 0.6572475 0.6572477
vn 0.3688518 0.9294882 -4.397056E-08
vn 0.3688517 -0.6572475 -0.6572478
vn 0.3688517 0 -0.9294887
vn 0.3688517 0.6572475 -0.6572478
vn -0.3688517 -0.6572475 0.6572478
vn -0.3688518 -0.9294882 4.397056E-08
vn -0.3688518 0.9294882 4.397056E-08
vn -0.3688519 0.6572475 -0.6572477
vn -0.3688517 0 0.9294887
vn -0.3688517 0.6572475 0.6572478
vn -0.3688519 0 -0.9294885
vn -0.3688519 -0.6572475 -0.6572477
vn -0.8991196 -0.4377038 1.071834E-07
vn -0.8991195 -0.3095033 0.3095036
vn -0.8991196 -0.3095033 -0.3095033
vn -0.8991196 0 -0.4377038
vn -0.8991195 0 0.4377041
vn -0.8991196 0.3095033 -0.3095033
vn -0.8991195 0.3095033 0.3095036
vn -0.8991196 0.4377038 1.071834E-07
vn -0.6489791 0.7608063 0
vn -0.6489791 0.5379713 0.5379715
vn -0.4472137 0.8944272 0
vn -0.4472137 0.6324555 0.6324557
vn -0.4472137 -0.6324555 0.6324557
vn -0.4472137 0 0.8944274
vn -0.6489791 -0.5379713 0.5379715
vn -0.6489791 0 0.7608065
vn -0.6489791 -0.5379713 -0.5379714
vn -0.4472137 -0.6324555 -0.6324557
vn -0.6489791 -0.7608063 0
vn -0.4472137 -0.8944272 0
vn -0.6489791 0.5379713 -0.5379714
vn -0.4472137 0.6324555 -0.6324557
vn -0.6489791 0 -0.7608065
vn -0.4472138 0 -0.8944274
vn -0.9465199 0 -0.3226462
vn -0.9465199 -0.2281453 -0.2281453
vn -0.9465199 0.2281453 -0.2281453
vn -0.9465199 -0.3226461 0
vn -0.9465199 0.3226461 0
vn -0.9465199 -0.2281453 0.2281453
vn -0.9465199 0.2281453 0.2281453
vn -0.9465199 0 0.3226463
vn 0 -1 0
vn 0 0.2576627 -0.9662349
vn 1 0 0
vn 0 -0.2576627 0.9662349
vn -1 0 0
vn -1.439781E-08 0.2576627 0.9662349
vn -1 0 -1.490095E-08
vn 1.439781E-08 -0.2576627 -0.9662349
vn 1 0 1.490095E-08
vn -0.9870883 0.1601824 1.176701E-07
vn -0.7071074 0.7071068 8.429376E-08
vn 0 1 0
vn -0.1601824 0.9870875 1.909522E-08
vn 1.000001 0 -1.192094E-07
vn 1.192094E-07 0 1.000001
vn -1.000001 0 1.192094E-07
vn -1.192094E-07 0 -1.000001
vn 0.3826836 0 -0.9238803
vn 0.3826836 0 -0.9238803
vn 0.9238802 0 -0.3826839
vn 0.9238802 0 -0.3826838
vn -0.3826838 0 0.9238803
vn -0.3826836 0 0.9238803
vn 0.3826838 0 0.9238802
vn 0.3826838 0 0.9238802
vn -0.9238803 -3.469277E-07 -0.3826837
vn -0.9238802 0 0.3826839
vn -0.9238803 -3.469277E-07 -0.3826836
vn -0.9238802 0 0.3826837
vn 0.9238803 0 0.3826837
vn 0.9238803 0 0.3826836
vn -0.3826839 0 -0.9238802
vn -0.3826838 0 -0.9238802
vn -0.2936307 0.6759367 0.675937
vn -0.2936307 0 0.9559194
vn 0.2936308 0.6759367 0.6759369
vn 0.2936309 0 0.9559193
vn 0.2936308 -0.955919 -3.500351E-08
vn -0.2936308 -0.955919 3.500351E-08
vn 0.2936307 -0.6759367 -0.675937
vn -0.2936308 -0.6759367 -0.6759369
vn -0.2936307 -0.6759367 0.675937
vn 0.2936308 -0.6759367 0.6759369
vn -0.2936308 0.955919 3.500351E-08
vn 0.2936308 0.955919 -3.500351E-08
vn -0.2936309 0 -0.9559193
vn 0.2936307 0 -0.9559194
vn 0.2936307 0.6759367 -0.675937
vn 0.5969149 0.5673151 -0.5673153
vn 0.5969149 0 -0.8023051
vn 0.596915 0.5673151 0.5673152
vn 0.596915 0.8023047 -7.11578E-08
vn -0.5969149 0.5673151 0.5673153
vn -0.596915 0.8023047 7.11578E-08
vn -0.5969149 0 0.8023051
vn -0.5969149 -0.5673151 0.5673153
vn -0.596915 -0.8023047 7.11578E-08
vn -0.596915 0.5673151 -0.5673152
vn -0.2936308 0.6759367 -0.6759369
vn -0.5969151 0 -0.802305
vn -0.596915 -0.5673151 -0.5673152
vn 1 0 -1.192093E-07
vn -1 0 1.192093E-07
vn 0.596915 -0.5673151 0.5673152
vn 0.596915 -0.8023047 -7.11578E-08
vn 0.5969149 -0.5673151 -0.5673153
vn 0.5969151 0 0.802305

vt 0.59375 0.2828189
vt 0.59375 0.3098181
vt 0.59375 0.375
vt 0.59375 0.4401819
vt 0.59375 0.4671811
vt 0.59375 0.275
vt 0.59375 0.3042893
vt 0.59375 0.4457107
vt 0.59375 0.475
vt 0.59375 0.47
vt 0.59375 0.4421751
vt 0.59375 0.3078249
vt 0.59375 0.28
vt 0.59375 0.3197912
vt 0.59375 0.4302088
vt 0.59375 0.296923
vt 0.59375 0.453077
vt 0.59375 0.4083334
vt 0.59375 0.4583333
vt 0.59375 0.3194444
vt 0.59375 0.425
vt 0.59375 0.425
vt 0.59375 0.325
vt 0.59375 0.325
vt 0.71875 0.6957107
vt 0.71875 0.625
vt 0.71875 0.525
vt 0.71875 0.5542893
vt 0.71875 0.725
vt 0.71875 0.6815686
vt 0.71875 0.705
vt 0.71875 0.5684314
vt 0.71875 0.545

usemtl colormap

f 1/1/1 2/2/2 3/2/3
f 4/3/4 3/2/3 2/2/2
f 5/3/5 3/2/3 4/3/4
f 6/4/6 5/3/5 4/3/4
f 7/4/7 5/3/5 6/4/6
f 8/5/8 7/4/7 6/4/6
f 9/6/9 1/1/1 10/7/10
f 3/2/3 10/7/10 1/1/1
f 10/7/10 3/2/3 11/3/11
f 5/3/5 11/3/11 3/2/3
f 7/4/7 8/5/8 12/8/12
f 13/9/13 12/8/12 8/5/8
f 14/7/14 15/3/15 2/2/2
f 4/3/4 2/2/2 15/3/15
f 11/3/11 5/3/5 12/8/12
f 7/4/7 12/8/12 5/3/5
f 6/4/6 16/8/16 8/5/8
f 13/9/13 8/5/8 16/8/16
f 9/6/9 14/7/14 1/1/1
f 2/2/2 1/1/1 14/7/14
f 4/3/4 15/3/15 6/4/6
f 16/8/16 6/4/6 15/3/15
f 10/7/10 17/7/17 9/6/9
f 18/6/18 9/6/9 17/7/17
f 13/9/13 16/8/16 19/9/19
f 20/8/20 19/9/19 16/8/16
f 21/3/21 17/7/17 11/3/11
f 10/7/10 11/3/11 17/7/17
f 21/3/21 11/3/11 22/8/22
f 12/8/12 22/8/22 11/3/11
f 20/8/20 16/8/16 23/3/23
f 15/3/15 23/3/23 16/8/16
f 22/8/22 12/8/12 19/9/19
f 13/9/13 19/9/19 12/8/12
f 24/7/24 23/3/23 14/7/14
f 15/3/15 14/7/14 23/3/23
f 25/1/25 26/2/26 27/2/27
f 28/3/28 27/2/27 26/2/26
f 29/3/29 28/3/28 26/2/26
f 30/4/30 28/3/28 29/3/29
f 31/4/31 30/4/30 29/3/29
f 32/5/32 30/4/30 31/4/31
f 18/6/18 24/7/24 9/6/9
f 14/7/14 9/6/9 24/7/24
f 31/4/31 22/8/22 32/5/32
f 19/9/19 32/5/32 22/8/22
f 24/7/24 27/2/27 23/3/23
f 28/3/28 23/3/23 27/2/27
f 29/3/29 21/3/21 31/4/31
f 22/8/22 31/4/31 21/3/21
f 30/4/30 32/5/32 20/8/20
f 19/9/19 20/8/20 32/5/32
f 18/6/18 17/7/17 25/1/25
f 26/2/26 25/1/25 17/7/17
f 17/7/17 21/3/21 26/2/26
f 29/3/29 26/2/26 21/3/21
f 28/3/28 30/4/30 23/3/23
f 20/8/20 23/3/23 30/4/30
f 18/6/18 25/1/25 24/7/24
f 27/2/27 24/7/24 25/1/25
f 33/10/33 34/11/34 35/9/35
f 36/8/36 35/9/35 34/11/34
f 37/7/37 38/3/38 39/12/39
f 40/3/40 39/12/39 38/3/38
f 41/12/41 42/7/42 43/13/43
f 44/6/44 43/13/43 42/7/42
f 45/11/45 33/10/33 46/8/46
f 35/9/35 46/8/46 33/10/33
f 40/3/40 38/3/38 34/11/34
f 36/8/36 34/11/34 38/3/38
f 47/3/47 45/11/45 48/3/48
f 46/8/46 48/3/48 45/11/45
f 42/7/42 41/12/41 48/3/48
f 47/3/47 48/3/48 41/12/41
f 43/13/43 44/6/44 39/12/39
f 37/7/37 39/12/39 44/6/44
f 49/3/49 50/14/50 51/15/51
f 52/16/52 51/15/51 50/14/50
f 53/17/53 51/15/51 52/16/52
f 54/14/54 53/17/53 52/16/52
f 55/15/55 53/17/53 54/14/54
f 56/3/56 55/15/55 54/14/54
f 47/3/47 41/12/41 49/3/49
f 50/14/50 49/3/49 41/12/41
f 41/12/41 43/13/43 50/14/50
f 52/16/52 50/14/50 43/13/43
f 55/15/55 56/3/56 34/11/34
f 40/3/40 34/11/34 56/3/56
f 43/13/43 39/12/39 52/16/52
f 54/14/54 52/16/52 39/12/39
f 47/3/47 49/3/49 45/11/45
f 51/15/51 45/11/45 49/3/49
f 54/14/54 39/12/39 56/3/56
f 40/3/40 56/3/56 39/12/39
f 45/11/45 51/15/51 33/10/33
f 53/17/53 33/10/33 51/15/51
f 33/10/33 53/17/53 34/11/34
f 55/15/55 34/11/34 53/17/53
f 57/1/1 58/2/2 59/2/3
f 60/3/4 59/2/3 58/2/2
f 61/3/5 59/2/3 60/3/4
f 62/4/6 61/3/5 60/3/4
f 63/4/7 61/3/5 62/4/6
f 64/5/8 63/4/7 62/4/6
f 65/6/9 57/1/1 66/7/10
f 59/2/3 66/7/10 57/1/1
f 66/7/10 59/2/3 67/3/11
f 61/3/5 67/3/11 59/2/3
f 63/4/7 64/5/8 68/8/12
f 69/9/13 68/8/12 64/5/8
f 70/7/14 71/3/15 58/2/2
f 60/3/4 58/2/2 71/3/15
f 67/3/11 61/3/5 68/8/12
f 63/4/7 68/8/12 61/3/5
f 62/4/6 72/8/16 64/5/8
f 69/9/13 64/5/8 72/8/16
f 65/6/9 70/7/14 57/1/1
f 58/2/2 57/1/1 70/7/14
f 60/3/4 71/3/15 62/4/6
f 72/8/16 62/4/6 71/3/15
f 66/7/10 73/7/17 65/6/9
f 74/6/18 65/6/9 73/7/17
f 69/9/13 72/8/16 75/9/19
f 76/8/20 75/9/19 72/8/16
f 77/3/21 73/7/17 67/3/11
f 66/7/10 67/3/11 73/7/17
f 77/3/21 67/3/11 78/8/22
f 68/8/12 78/8/22 67/3/11
f 76/8/20 72/8/16 79/3/23
f 71/3/15 79/3/23 72/8/16
f 78/8/22 68/8/12 75/9/19
f 69/9/13 75/9/19 68/8/12
f 80/7/24 79/3/23 70/7/14
f 71/3/15 70/7/14 79/3/23
f 81/1/25 82/2/26 83/2/27
f 84/3/28 83/2/27 82/2/26
f 85/3/29 84/3/28 82/2/26
f 86/4/30 84/3/28 85/3/29
f 87/4/31 86/4/30 85/3/29
f 88/5/32 86/4/30 87/4/31
f 74/6/18 80/7/24 65/6/9
f 70/7/14 65/6/9 80/7/24
f 87/4/31 78/8/22 88/5/32
f 75/9/19 88/5/32 78/8/22
f 80/7/24 83/2/27 79/3/23
f 84/3/28 79/3/23 83/2/27
f 85/3/29 77/3/21 87/4/31
f 78/8/22 87/4/31 77/3/21
f 86/4/30 88/5/32 76/8/20
f 75/9/19 76/8/20 88/5/32
f 74/6/18 73/7/17 81/1/25
f 82/2/26 81/1/25 73/7/17
f 73/7/17 77/3/21 82/2/26
f 85/3/29 82/2/26 77/3/21
f 84/3/28 86/4/30 79/3/23
f 76/8/20 79/3/23 86/4/30
f 74/6/18 81/1/25 80/7/24
f 83/2/27 80/7/24 81/1/25
f 93/6/61 91/9/61 96/6/61
f 91/9/61 93/6/61 92/9/61
f 91/9/60 95/6/60 96/6/60
f 95/6/60 91/9/60 89/9/60
f 89/9/59 94/6/59 95/6/59
f 94/6/59 89/9/59 90/9/59
f 90/9/58 93/6/58 94/6/58
f 93/6/58 90/9/58 92/9/58
f 90/9/57 91/9/57 92/9/57
f 91/9/57 90/9/57 89/9/57
f 101/6/65 99/9/65 104/6/65
f 99/9/65 101/6/65 100/9/65
f 99/9/64 103/6/64 104/6/64
f 103/6/64 99/9/64 97/9/64
f 97/9/63 102/6/63 103/6/63
f 102/6/63 97/9/63 98/9/63
f 98/9/62 101/6/62 102/6/62
f 101/6/62 98/9/62 100/9/62
f 98/9/57 99/9/57 100/9/57
f 99/9/57 98/9/57 97/9/57
f 109/6/65 107/9/65 112/6/65
f 107/9/65 109/6/65 108/9/65
f 107/9/64 111/6/64 112/6/64
f 111/6/64 107/9/64 105/9/64
f 105/9/63 110/6/63 111/6/63
f 110/6/63 105/9/63 106/9/63
f 106/9/62 109/6/62 110/6/62
f 109/6/62 106/9/62 108/9/62
f 106/9/57 107/9/57 108/9/57
f 107/9/57 106/9/57 105/9/57
f 117/6/61 115/9/61 120/6/61
f 115/9/61 117/6/61 116/9/61
f 115/9/60 119/6/60 120/6/60
f 119/6/60 115/9/60 113/9/60
f 113/9/59 118/6/59 119/6/59
f 118/6/59 113/9/59 114/9/59
f 114/9/58 117/6/58 118/6/58
f 117/6/58 114/9/58 116/9/58
f 114/9/57 115/9/57 116/9/57
f 115/9/57 114/9/57 113/9/57
f 121/18/66 122/18/66 123/19/67
f 124/19/67 123/19/67 122/18/66
f 125/18/57 126/18/57 127/18/57
f 128/18/57 127/18/57 126/18/57
f 129/9/68 130/9/68 131/9/69
f 132/9/69 131/9/69 130/9/68
f 131/9/69 132/9/69 124/19/67
f 123/19/67 124/19/67 132/9/69
f 133/20/70 134/20/70 126/18/70
f 128/18/70 126/18/70 134/20/70
f 125/18/71 129/9/71 126/18/71
f 131/9/71 126/18/71 129/9/71
f 126/18/71 131/9/71 133/20/71
f 131/9/71 124/19/71 133/20/71
f 124/19/71 122/18/71 133/20/71
f 135/20/71 133/20/71 122/18/71
f 136/20/72 135/20/72 121/18/66
f 122/18/66 121/18/66 135/20/72
f 136/20/73 121/18/73 134/20/73
f 123/19/73 134/20/73 121/18/73
f 132/9/73 134/20/73 123/19/73
f 128/18/73 134/20/73 132/9/73
f 127/18/73 128/18/73 132/9/73
f 130/9/73 127/18/73 132/9/73
f 137/21/68 138/21/68 139/21/68
f 140/21/68 139/21/68 138/21/68
f 141/21/68 140/21/68 138/21/68
f 142/22/68 140/21/68 141/21/68
f 143/22/68 142/22/68 141/21/68
f 144/21/68 143/22/68 141/21/68
f 145/23/74 144/21/75 146/23/76
f 141/21/77 146/23/76 144/21/75
f 139/21/78 147/24/79 137/21/80
f 148/23/81 137/21/80 147/24/79
f 149/24/82 150/24/83 142/22/84
f 140/21/85 142/22/84 150/24/83
f 137/21/80 148/23/81 138/21/86
f 151/23/87 138/21/86 148/23/81
f 147/24/57 150/24/57 148/23/57
f 151/23/57 148/23/57 150/24/57
f 146/23/57 151/23/57 150/24/57
f 149/24/57 146/23/57 150/24/57
f 145/23/57 146/23/57 149/24/57
f 152/24/57 145/23/57 149/24/57
f 150/24/83 147/24/79 140/21/85
f 139/21/78 140/21/85 147/24/79
f 142/22/84 143/22/88 149/24/82
f 152/24/89 149/24/82 143/22/88
f 143/22/88 144/21/75 152/24/89
f 145/23/74 152/24/89 144/21/75
f 146/23/76 141/21/77 151/23/87
f 138/21/86 151/23/87 141/21/77
f 153/25/90 154/26/91 155/25/92
f 156/26/93 155/25/92 154/26/91
f 157/27/94 158/27/95 159/28/96
f 160/28/97 159/28/96 158/27/95
f 154/26/91 161/28/98 156/26/93
f 162/28/99 156/26/93 161/28/98
f 153/25/90 155/25/92 163/29/100
f 164/29/101 163/29/100 155/25/92
f 165/26/102 166/26/103 160/28/97
f 159/28/96 160/28/97 166/26/103
f 162/28/99 161/28/98 157/27/94
f 158/27/95 157/27/94 161/28/98
f 167/25/104 168/30/105 166/26/103
f 169/26/106 166/26/103 168/30/105
f 155/25/92 170/30/107 164/29/101
f 171/31/108 164/29/101 170/30/107
f 153/25/90 163/29/100 172/30/109
f 173/31/110 172/30/109 163/29/100
f 172/30/109 174/26/111 153/25/90
f 154/26/91 153/25/90 174/26/111
f 161/28/98 175/32/112 158/27/95
f 176/33/113 158/27/95 175/32/112
f 177/30/114 178/25/115 179/26/116
f 165/26/102 179/26/116 178/25/115
f 179/26/116 165/26/102 180/32/117
f 160/28/97 180/32/117 165/26/102
f 163/29/100 164/29/101 178/25/115
f 167/25/104 178/25/115 164/29/101
f 178/25/115 167/25/104 165/26/102
f 166/26/103 165/26/102 167/25/104
f 181/33/118 182/32/118 183/32/118
f 184/26/118 183/32/118 182/32/118
f 169/26/118 184/26/118 182/32/118
f 170/30/118 184/26/118 169/26/118
f 168/30/118 170/30/118 169/26/118
f 171/31/118 170/30/118 168/30/118
f 158/27/95 176/33/113 160/28/97
f 180/32/117 160/28/97 176/33/113
f 174/26/111 175/32/112 154/26/91
f 161/28/98 154/26/91 175/32/112
f 173/31/110 163/29/100 177/30/114
f 178/25/115 177/30/114 163/29/100
f 176/33/119 175/32/119 180/32/119
f 179/26/119 180/32/119 175/32/119
f 174/26/119 179/26/119 175/32/119
f 177/30/119 179/26/119 174/26/119
f 172/30/119 177/30/119 174/26/119
f 173/31/119 177/30/119 172/30/119
f 162/28/99 157/27/94 183/32/120
f 181/33/121 183/32/120 157/27/94
f 164/29/101 171/31/108 167/25/104
f 168/30/105 167/25/104 171/31/108
f 166/26/103 169/26/106 159/28/96
f 182/32/122 159/28/96 169/26/106
f 156/26/93 162/28/99 184/26/123
f 183/32/120 184/26/123 162/28/99
f 155/25/92 156/26/93 170/30/107
f 184/26/123 170/30/107 156/26/93
f 181/33/121 157/27/94 182/32/122
f 159/28/96 182/32/122 157/27/94

g detail-tank




usemtl colormap

f 1/1/1 2/2/2 3/2/3
f 4/3/4 3/2/3 2/2/2
f 5/3/5 3/2/3 4/3/4
f 6/4/6 5/3/5 4/3/4
f 7/4/7 5/3/5 6/4/6
f 8/5/8 7/4/7 6/4/6
f 9/6/9 1/1/1 10/7/10
f 3/2/3 10/7/10 1/1/1
f 10/7/10 3/2/3 11/3/11
f 5/3/5 11/3/11 3/2/3
f 7/4/7 8/5/8 12/8/12
f 13/9/13 12/8/12 8/5/8
f 14/7/14 15/3/15 2/2/2
f 4/3/4 2/2/2 15/3/15
f 11/3/11 5/3/5 12/8/12
f 7/4/7 12/8/12 5/3/5
f 6/4/6 16/8/16 8/5/8
f 13/9/13 8/5/8 16/8/16
f 9/6/9 14/7/14 1/1/1
f 2/2/2 1/1/1 14/7/14
f 4/3/4 15/3/15 6/4/6
f 16/8/16 6/4/6 15/3/15
f 10/7/10 17/7/17 9/6/9
f 18/6/18 9/6/9 17/7/17
f 13/9/13 16/8/16 19/9/19
f 20/8/20 19/9/19 16/8/16
f 21/3/21 17/7/17 11/3/11
f 10/7/10 11/3/11 17/7/17
f 21/3/21 11/3/11 22/8/22
f 12/8/12 22/8/22 11/3/11
f 20/8/20 16/8/16 23/3/23
f 15/3/15 23/3/23 16/8/16
f 22/8/22 12/8/12 19/9/19
f 13/9/13 19/9/19 12/8/12
f 24/7/24 23/3/23 14/7/14
f 15/3/15 14/7/14 23/3/23
f 25/1/25 26/2/26 27/2/27
f 28/3/28 27/2/27 26/2/26
f 29/3/29 28/3/28 26/2/26
f 30/4/30 28/3/28 29/3/29
f 31/4/31 30/4/30 29/3/29
f 32/5/32 30/4/30 31/4/31
f 18/6/18 24/7/24 9/6/9
f 14/7/14 9/6/9 24/7/24
f 31/4/31 22/8/22 32/5/32
f 19/9/19 32/5/32 22/8/22
f 24/7/24 27/2/27 23/3/23
f 28/3/28 23/3/23 27/2/27
f 29/3/29 21/3/21 31/4/31
f 22/8/22 31/4/31 21/3/21
f 30/4/30 32/5/32 20/8/20
f 19/9/19 20/8/20 32/5/32
f 18/6/18 17/7/17 25/1/25
f 26/2/26 25/1/25 17/7/17
f 17/7/17 21/3/21 26/2/26
f 29/3/29 26/2/26 21/3/21
f 28/3/28 30/4/30 23/3/23
f 20/8/20 23/3/23 30/4/30
f 18/6/18 25/1/25 24/7/24
f 27/2/27 24/7/24 25/1/25
f 33/10/33 34/11/34 35/9/35
f 36/8/36 35/9/35 34/11/34
f 37/7/37 38/3/38 39/12/39
f 40/3/40 39/12/39 38/3/38
f 41/12/41 42/7/42 43/13/43
f 44/6/44 43/13/43 42/7/42
f 45/11/45 33/10/33 46/8/46
f 35/9/35 46/8/46 33/10/33
f 40/3/40 38/3/38 34/11/34
f 36/8/36 34/11/34 38/3/38
f 47/3/47 45/11/45 48/3/48
f 46/8/46 48/3/48 45/11/45
f 42/7/42 41/12/41 48/3/48
f 47/3/47 48/3/48 41/12/41
f 43/13/43 44/6/44 39/12/39
f 37/7/37 39/12/39 44/6/44
f 49/3/49 50/14/50 51/15/51
f 52/16/52 51/15/51 50/14/50
f 53/17/53 51/15/51 52/16/52
f 54/14/54 53/17/53 52/16/52
f 55/15/55 53/17/53 54/14/54
f 56/3/56 55/15/55 54/14/54
f 47/3/47 41/12/41 49/3/49
f 50/14/50 49/3/49 41/12/41
f 41/12/41 43/13/43 50/14/50
f 52/16/52 50/14/50 43/13/43
f 55/15/55 56/3/56 34/11/34
f 40/3/40 34/11/34 56/3/56
f 43/13/43 39/12/39 52/16/52
f 54/14/54 52/16/52 39/12/39
f 47/3/47 49/3/49 45/11/45
f 51/15/51 45/11/45 49/3/49
f 54/14/54 39/12/39 56/3/56
f 40/3/40 56/3/56 39/12/39
f 45/11/45 51/15/51 33/10/33
f 53/17/53 33/10/33 51/15/51
f 33/10/33 53/17/53 34/11/34
f 55/15/55 34/11/34 53/17/53
f 57/1/1 58/2/2 59/2/3
f 60/3/4 59/2/3 58/2/2
f 61/3/5 59/2/3 60/3/4
f 62/4/6 61/3/5 60/3/4
f 63/4/7 61/3/5 62/4/6
f 64/5/8 63/4/7 62/4/6
f 65/6/9 57/1/1 66/7/10
f 59/2/3 66/7/10 57/1/1
f 66/7/10 59/2/3 67/3/11
f 61/3/5 67/3/11 59/2/3
f 63/4/7 64/5/8 68/8/12
f 69/9/13 68/8/12 64/5/8
f 70/7/14 71/3/15 58/2/2
f 60/3/4 58/2/2 71/3/15
f 67/3/11 61/3/5 68/8/12
f 63/4/7 68/8/12 61/3/5
f 62/4/6 72/8/16 64/5/8
f 69/9/13 64/5/8 72/8/16
f 65/6/9 70/7/14 57/1/1
f 58/2/2 57/1/1 70/7/14
f 60/3/4 71/3/15 62/4/6
f 72/8/16 62/4/6 71/3/15
f 66/7/10 73/7/17 65/6/9
f 74/6/18 65/6/9 73/7/17
f 69/9/13 72/8/16 75/9/19
f 76/8/20 75/9/19 72/8/16
f 77/3/21 73/7/17 67/3/11
f 66/7/10 67/3/11 73/7/17
f 77/3/21 67/3/11 78/8/22
f 68/8/12 78/8/22 67/3/11
f 76/8/20 72/8/16 79/3/23
f 71/3/15 79/3/23 72/8/16
f 78/8/22 68/8/12 75/9/19
f 69/9/13 75/9/19 68/8/12
f 80/7/24 79/3/23 70/7/14
f 71/3/15 70/7/14 79/3/23
f 81/1/25 82/2/26 83/2/27
f 84/3/28 83/2/27 82/2/26
f 85/3/29 84/3/28 82/2/26
f 86/4/30 84/3/28 85/3/29
f 87/4/31 86/4/30 85/3/29
f 88/5/32 86/4/30 87/4/31
f 74/6/18 80/7/24 65/6/9
f 70/7/14 65/6/9 80/7/24
f 87/4/31 78/8/22 88/5/32
f 75/9/19 88/5/32 78/8/22
f 80/7/24 83/2/27 79/3/23
f 84/3/28 79/3/23 83/2/27
f 85/3/29 77/3/21 87/4/31
f 78/8/22 87/4/31 77/3/21
f 86/4/30 88/5/32 76/8/20
f 75/9/19 76/8/20 88/5/32
f 74/6/18 73/7/17 81/1/25
f 82/2/26 81/1/25 73/7/17
f 73/7/17 77/3/21 82/2/26
f 85/3/29 82/2/26 77/3/21
f 84/3/28 86/4/30 79/3/23
f 76/8/20 79/3/23 86/4/30
f 74/6/18 81/1/25 80/7/24
f 83/2/27 80/7/24 81/1/25
f 93/6/61 91/9/61 96/6/61
f 91/9/61 93/6/61 92/9/61
f 91/9/60 95/6/60 96/6/60
f 95/6/60 91/9/60 89/9/60
f 89/9/59 94/6/59 95/6/59
f 94/6/59 89/9/59 90/9/59
f 90/9/58 93/6/58 94/6/58
f 93/6/58 90/9/58 92/9/58
f 90/9/57 91/9/57 92/9/57
f 91/9/57 90/9/57 89/9/57
f 101/6/65 99/9/65 104/6/65
f 99/9/65 101/6/65 100/9/65
f 99/9/64 103/6/64 104/6/64
f 103/6/64 99/9/64 97/9/64
f 97/9/63 102/6/63 103/6/63
f 102/6/63 97/9/63 98/9/63
f 98/9/62 101/6/62 102/6/62
f 101/6/62 98/9/62 100/9/62
f 98/9/57 99/9/57 100/9/57
f 99/9/57 98/9/57 97/9/57
f 109/6/65 107/9/65 112/6/65
f 107/9/65 109/6/65 108/9/65
f 107/9/64 111/6/64 112/6/64
f 111/6/64 107/9/64 105/9/64
f 105/9/63 110/6/63 111/6/63
f 110/6/63 105/9/63 106/9/63
f 106/9/62 109/6/62 110/6/62
f 109/6/62 106/9/62 108/9/62
f 106/9/57 107/9/57 108/9/57
f 107/9/57 106/9/57 105/9/57
f 117/6/61 115/9/61 120/6/61
f 115/9/61 117/6/61 116/9/61
f 115/9/60 119/6/60 120/6/60
f 119/6/60 115/9/60 113/9/60
f 113/9/59 118/6/59 119/6/59
f 118/6/59 113/9/59 114/9/59
f 114/9/58 117/6/58 118/6/58
f 117/6/58 114/9/58 116/9/58
f 114/9/57 115/9/57 116/9/57
f 115/9/57 114/9/57 113/9/57
f 121/18/66 122/18/66 123/19/67
f 124/19/67 123/19/67 122/18/66
f 125/18/57 126/18/57 127/18/57
f 128/18/57 127/18/57 126/18/57
f 129/9/68 130/9/68 131/9/69
f 132/9/69 131/9/69 130/9/68
f 131/9/69 132/9/69 124/19/67
f 123/19/67 124/19/67 132/9/69
f 133/20/70 134/20/70 126/18/70
f 128/18/70 126/18/70 134/20/70
f 125/18/71 129/9/71 126/18/71
f 131/9/71 126/18/71 129/9/71
f 126/18/71 131/9/71 133/20/71
f 131/9/71 124/19/71 133/20/71
f 124/19/71 122/18/71 133/20/71
f 135/20/71 133/20/71 122/18/71
f 136/20/72 135/20/72 121/18/66
f 122/18/66 121/18/66 135/20/72
f 136/20/73 121/18/73 134/20/73
f 123/19/73 134/20/73 121/18/73
f 132/9/73 134/20/73 123/19/73
f 128/18/73 134/20/73 132/9/73
f 127/18/73 128/18/73 132/9/73
f 130/9/73 127/18/73 132/9/73
f 137/21/68 138/21/68 139/21/68
f 140/21/68 139/21/68 138/21/68
f 141/21/68 140/21/68 138/21/68
f 142/22/68 140/21/68 141/21/68
f 143/22/68 142/22/68 141/21/68
f 144/21/68 143/22/68 141/21/68
f 145/23/74 144/21/75 146/23/76
f 141/21/77 146/23/76 144/21/75
f 139/21/78 147/24/79 137/21/80
f 148/23/81 137/21/80 147/24/79
f 149/24/82 150/24/83 142/22/84
f 140/21/85 142/22/84 150/24/83
f 137/21/80 148/23/81 138/21/86
f 151/23/87 138/21/86 148/23/81
f 147/24/57 150/24/57 148/23/57
f 151/23/57 148/23/57 150/24/57
f 146/23/57 151/23/57 150/24/57
f 149/24/57 146/23/57 150/24/57
f 145/23/57 146/23/57 149/24/57
f 152/24/57 145/23/57 149/24/57
f 150/24/83 147/24/79 140/21/85
f 139/21/78 140/21/85 147/24/79
f 142/22/84 143/22/88 149/24/82
f 152/24/89 149/24/82 143/22/88
f 143/22/88 144/21/75 152/24/89
f 145/23/74 152/24/89 144/21/75
f 146/23/76 141/21/77 151/23/87
f 138/21/86 151/23/87 141/21/77
f 153/25/90 154/26/91 155/25/92
f 156/26/93 155/25/92 154/26/91
f 157/27/94 158/27/95 159/28/96
f 160/28/97 159/28/96 158/27/95
f 154/26/91 161/28/98 156/26/93
f 162/28/99 156/26/93 161/28/98
f 153/25/90 155/25/92 163/29/100
f 164/29/101 163/29/100 155/25/92
f 165/26/102 166/26/103 160/28/97
f 159/28/96 160/28/97 166/26/103
f 162/28/99 161/28/98 157/27/94
f 158/27/95 157/27/94 161/28/98
f 167/25/104 168/30/105 166/26/103
f 169/26/106 166/26/103 168/30/105
f 155/25/92 170/30/107 164/29/101
f 171/31/108 164/29/101 170/30/107
f 153/25/90 163/29/100 172/30/109
f 173/31/110 172/30/109 163/29/100
f 172/30/109 174/26/111 153/25/90
f 154/26/91 153/25/90 174/26/111
f 161/28/98 175/32/112 158/27/95
f 176/33/113 158/27/95 175/32/112
f 177/30/114 178/25/115 179/26/116
f 165/26/102 179/26/116 178/25/115
f 179/26/116 165/26/102 180/32/117
f 160/28/97 180/32/117 165/26/102
f 163/29/100 164/29/101 178/25/115
f 167/25/104 178/25/115 164/29/101
f 178/25/115 167/25/104 165/26/102
f 166/26/103 165/26/102 167/25/104
f 181/33/118 182/32/118 183/32/118
f 184/26/118 183/32/118 182/32/118
f 169/26/118 184/26/118 182/32/118
f 170/30/118 184/26/118 169/26/118
f 168/30/118 170/30/118 169/26/118
f 171/31/118 170/30/118 168/30/118
f 158/27/95 176/33/113 160/28/97
f 180/32/117 160/28/97 176/33/113
f 174/26/111 175/32/112 154/26/91
f 161/28/98 154/26/91 175/32/112
f 173/31/110 163/29/100 177/30/114
f 178/25/115 177/30/114 163/29/100
f 176/33/119 175/32/119 180/32/119
f 179/26/119 180/32/119 175/32/119
f 174/26/119 179/26/119 175/32/119
f 177/30/119 179/26/119 174/26/119
f 172/30/119 177/30/119 174/26/119
f 173/31/119 177/30/119 172/30/119
f 162/28/99 157/27/94 183/32/120
f 181/33/121 183/32/120 157/27/94
f 164/29/101 171/31/108 167/25/104
f 168/30/105 167/25/104 171/31/108
f 166/26/103 169/26/106 159/28/96
f 182/32/122 159/28/96 169/26/106
f 156/26/93 162/28/99 184/26/123
f 183/32/120 184/26/123 162/28/99
f 155/25/92 156/26/93 170/30/107
f 184/26/123 170/30/107 156/26/93
f 181/33/121 157/27/94 182/32/122
f 159/28/96 182/32/122 157/27/94

