# Created by Kenney (www.kenney.nl)

mtllib shipping-container-b.mtl

g shipping-container-b

v -0.05130013 0.054 -0.3996 1 1 1
v -0.05130013 0.29408 -0.3996 1 1 1
v -0.07830012 0.054 -0.3996 1 1 1
v -0.07830012 0.29408 -0.3996 1 1 1
v 0.05129988 0.034 -0.3726 1 1 1
v 0.05129988 0.034 -0.3796 1 1 1
v 0.05129988 0.16054 -0.3726 1 1 1
v 0.05129988 0.054 -0.3996 1 1 1
v 0.05129988 0.29408 -0.3996 1 1 1
v 0.05129988 0.18754 -0.3726 1 1 1
v 0.05129988 0.31408 -0.3726 1 1 1
v 0.05129988 0.31408 -0.3796 1 1 1
v 0.07829989 0.054 -0.3996 1 1 1
v 0.07829989 0.29408 -0.3996 1 1 1
v -0.05130013 0.034 -0.3796 1 1 1
v -0.05130013 0.034 -0.3726 1 1 1
v -0.05130013 0.16054 -0.3726 1 1 1
v -0.05130013 0.18754 -0.3726 1 1 1
v -0.05130013 0.31408 -0.3726 1 1 1
v -0.05130013 0.31408 -0.3796 1 1 1
v 0.07829989 0.034 -0.3796 1 1 1
v 0.07829989 0.034 -0.3726 1 1 1
v 0.07829989 0.16054 -0.3726 1 1 1
v 0.07829989 0.18754 -0.3726 1 1 1
v 0.07829989 0.29408 -0.3726 1 1 1
v 0.07829989 0.31408 -0.3796 1 1 1
v 0.07829989 0.31408 -0.3726 1 1 1
v -0.07830012 0.034 -0.3726 1 1 1
v -0.07830012 0.034 -0.3796 1 1 1
v -0.07830012 0.16054 -0.3726 1 1 1
v -0.07830012 0.18754 -0.3726 1 1 1
v -0.07830012 0.31408 -0.3726 1 1 1
v -0.07830012 0.31408 -0.3796 1 1 1
v 0.0512999 0.054 0.3996 1 1 1
v 0.0512999 0.29408 0.3996 1 1 1
v 0.07829989 0.054 0.3996 1 1 1
v 0.07829989 0.29408 0.3996 1 1 1
v -0.0513001 0.034 0.3726 1 1 1
v -0.0513001 0.034 0.3796 1 1 1
v -0.0513001 0.18754 0.3726 1 1 1
v -0.0513001 0.054 0.3996 1 1 1
v -0.0513001 0.29408 0.3996 1 1 1
v -0.0513001 0.31408 0.3726 1 1 1
v -0.0513001 0.31408 0.3796 1 1 1
v -0.07830011 0.054 0.3996 1 1 1
v -0.07830011 0.29408 0.3996 1 1 1
v 0.0512999 0.034 0.3796 1 1 1
v 0.0512999 0.034 0.3726 1 1 1
v 0.0512999 0.16054 0.3726 1 1 1
v 0.0512999 0.18754 0.3726 1 1 1
v 0.0512999 0.31408 0.3726 1 1 1
v 0.0512999 0.31408 0.3796 1 1 1
v -0.07830011 0.034 0.3796 1 1 1
v -0.07830011 0.034 0.3726 1 1 1
v -0.07830011 0.16054 0.3726 1 1 1
v -0.07830011 0.18754 0.3726 1 1 1
v -0.07830011 0.29408 0.3726 1 1 1
v -0.07830011 0.31408 0.3796 1 1 1
v -0.07830011 0.31408 0.3726 1 1 1
v 0.07829989 0.034 0.3726 1 1 1
v 0.07829989 0.034 0.3796 1 1 1
v 0.07829989 0.18754 0.3726 1 1 1
v 0.07829989 0.31408 0.3726 1 1 1
v 0.07829989 0.31408 0.3796 1 1 1
v -0.0395999 0.18754 -0.4013 1 1 1
v -0.0395999 0.16054 -0.4013 1 1 1
v -0.0395999 0.18754 -0.3591 1 1 1
v -0.0395999 0.16054 -0.3591 1 1 1
v -0.08999989 0.16054 -0.4013 1 1 1
v -0.08999989 0.18754 -0.4013 1 1 1
v -0.08999989 0.16054 -0.3591 1 1 1
v -0.08999989 0.18754 -0.3591 1 1 1
v -0.07999989 0.16054 -0.4113 1 1 1
v -0.0495999 0.16054 -0.4113 1 1 1
v -0.07999989 0.18754 -0.4113 1 1 1
v -0.0495999 0.18754 -0.4113 1 1 1
v 0.08999966 0.18754 -0.4013 1 1 1
v 0.08999966 0.16054 -0.4013 1 1 1
v 0.08999966 0.18754 -0.3591 1 1 1
v 0.08999966 0.16054 -0.3591 1 1 1
v 0.03959967 0.16054 -0.4013 1 1 1
v 0.03959967 0.18754 -0.4013 1 1 1
v 0.03959967 0.16054 -0.3591 1 1 1
v 0.03959967 0.18754 -0.3591 1 1 1
v 0.04959967 0.16054 -0.4113 1 1 1
v 0.07999966 0.16054 -0.4113 1 1 1
v 0.04959967 0.18754 -0.4113 1 1 1
v 0.07999966 0.18754 -0.4113 1 1 1
v -0.07830012 0.16054 -0.3456 1 1 1
v -0.05130012 0.16054 -0.3456 1 1 1
v -0.1323001 0.16054 -0.3456 1 1 1
v 0.05129989 0.16054 -0.3456 1 1 1
v 0.1322999 0.16054 -0.3456 1 1 1
v 0.07829989 0.16054 -0.3456 1 1 1
v -0.1323001 0.16054 -0.3591 1 1 1
v 0.1322999 0.16054 -0.3591 1 1 1
v 0.1322999 0.18754 -0.3591 1 1 1
v -0.1323001 0.18754 -0.3591 1 1 1
v 0.07829989 0.18754 -0.3456 1 1 1
v 0.05129989 0.18754 -0.3456 1 1 1
v 0.1322999 0.18754 -0.3456 1 1 1
v -0.1323001 0.18754 -0.3456 1 1 1
v -0.07830012 0.18754 -0.3456 1 1 1
v -0.05130012 0.18754 -0.3456 1 1 1
v 0.07829989 0.16054 0.3456 1 1 1
v 0.05129989 0.16054 0.3456 1 1 1
v 0.1322999 0.16054 0.3456 1 1 1
v -0.05130012 0.16054 0.3456 1 1 1
v -0.1323001 0.16054 0.3456 1 1 1
v -0.07830012 0.16054 0.3456 1 1 1
v 0.1322999 0.16054 0.3591 1 1 1
v -0.1323001 0.16054 0.3591 1 1 1
v -0.1323001 0.18754 0.3591 1 1 1
v 0.1322999 0.18754 0.3591 1 1 1
v -0.07830012 0.18754 0.3456 1 1 1
v -0.05130012 0.18754 0.3456 1 1 1
v -0.1323001 0.18754 0.3456 1 1 1
v 0.1322999 0.18754 0.3456 1 1 1
v 0.07829989 0.18754 0.3456 1 1 1
v 0.05129989 0.18754 0.3456 1 1 1
v 0.03959967 0.18754 0.4013 1 1 1
v 0.03959967 0.16054 0.4013 1 1 1
v 0.03959967 0.18754 0.3591 1 1 1
v 0.03959967 0.16054 0.3591 1 1 1
v 0.08999966 0.16054 0.4013 1 1 1
v 0.08999966 0.18754 0.4013 1 1 1
v 0.08999966 0.16054 0.3591 1 1 1
v 0.08999966 0.18754 0.3591 1 1 1
v 0.07999966 0.16054 0.4113 1 1 1
v 0.04959967 0.16054 0.4113 1 1 1
v 0.07999966 0.18754 0.4113 1 1 1
v 0.04959967 0.18754 0.4113 1 1 1
v -0.08999989 0.18754 0.4013 1 1 1
v -0.08999989 0.16054 0.4013 1 1 1
v -0.08999989 0.18754 0.3591 1 1 1
v -0.08999989 0.16054 0.3591 1 1 1
v -0.0395999 0.16054 0.4013 1 1 1
v -0.0395999 0.18754 0.4013 1 1 1
v -0.0395999 0.16054 0.3591 1 1 1
v -0.0395999 0.18754 0.3591 1 1 1
v -0.0495999 0.16054 0.4113 1 1 1
v -0.07999989 0.16054 0.4113 1 1 1
v -0.0495999 0.18754 0.4113 1 1 1
v -0.07999989 0.18754 0.4113 1 1 1
v -0.1728002 0.054 0.2190466 1 1 1
v -0.1728002 0.29408 0.2190466 1 1 1
v -0.1593001 0.054 0.2305515 1 1 1
v -0.1593001 0.29408 0.2305515 1 1 1
v -0.1728002 0.29408 0.1540077 1 1 1
v -0.1728002 0.054 0.1540077 1 1 1
v -0.1593002 0.29408 0.1425029 1 1 1
v -0.1593002 0.054 0.1425029 1 1 1
v 0.1728 0.054 -0.03251943 1 1 1
v 0.1728 0.29408 -0.03251943 1 1 1
v 0.1593 0.054 -0.04402429 1 1 1
v 0.1593 0.29408 -0.04402429 1 1 1
v 0.1727999 0.29408 0.03251945 1 1 1
v 0.1727999 0.054 0.03251945 1 1 1
v 0.1592999 0.29408 0.04402431 1 1 1
v 0.1592999 0.054 0.04402431 1 1 1
v -0.1728002 0.054 -0.1540077 1 1 1
v -0.1728002 0.29408 -0.1540077 1 1 1
v -0.1593001 0.054 -0.1425028 1 1 1
v -0.1593001 0.29408 -0.1425028 1 1 1
v -0.1728002 0.054 -0.2190465 1 1 1
v -0.1728002 0.29408 -0.2190465 1 1 1
v -0.1593002 0.29408 -0.2305514 1 1 1
v -0.1593002 0.054 -0.2305514 1 1 1
v -0.1728002 0.054 0.03251947 1 1 1
v -0.1728002 0.29408 0.03251947 1 1 1
v -0.1593001 0.054 0.04402434 1 1 1
v -0.1593001 0.29408 0.04402434 1 1 1
v -0.1728002 0.29408 -0.0325194 1 1 1
v -0.1728002 0.054 -0.0325194 1 1 1
v -0.1593002 0.29408 -0.04402427 1 1 1
v -0.1593002 0.054 -0.04402427 1 1 1
v 0.1728 0.054 -0.2190465 1 1 1
v 0.1728 0.29408 -0.2190465 1 1 1
v 0.1593 0.054 -0.2305514 1 1 1
v 0.1593 0.29408 -0.2305514 1 1 1
v 0.1727999 0.29408 -0.1540077 1 1 1
v 0.1727999 0.054 -0.1540077 1 1 1
v 0.1592999 0.29408 -0.1425028 1 1 1
v 0.1592999 0.054 -0.1425028 1 1 1
v 0.1728 0.054 0.1540077 1 1 1
v 0.1728 0.29408 0.1540077 1 1 1
v 0.1593 0.054 0.1425028 1 1 1
v 0.1593 0.29408 0.1425028 1 1 1
v 0.1727999 0.054 0.2190466 1 1 1
v 0.1727999 0.29408 0.2190466 1 1 1
v 0.1592999 0.29408 0.2305514 1 1 1
v 0.1592999 0.054 0.2305514 1 1 1
v 0.1592999 0.054 -0.3186 1 1 1
v 0.1592999 0.054 0.3186 1 1 1
v 0.1592999 0.29408 -0.3186 1 1 1
v 0.1592999 0.29408 0.3186 1 1 1
v -0.1323002 0.29408 -0.3456 1 1 1
v -0.1323002 0.054 -0.3456 1 1 1
v 0.1322999 0.29408 -0.3456 1 1 1
v 0.1322999 0.054 -0.3456 1 1 1
v -0.1323002 0.054 -0.3726 1 1 1
v -0.1323002 0.29408 -0.3726 1 1 1
v 0.1322999 0.29408 -0.3726 1 1 1
v 0.1322999 0.054 -0.3726 1 1 1
v -0.1593001 0.054 0.3186001 1 1 1
v -0.1593002 0.054 -0.3186 1 1 1
v -0.1593001 0.29408 0.3186001 1 1 1
v -0.1593002 0.29408 -0.3186 1 1 1
v -0.1863002 0.29408 -0.3186 1 1 1
v -0.1863001 0.29408 0.3186001 1 1 1
v -0.1863002 0.054 -0.3186 1 1 1
v -0.1863001 0.054 0.3186001 1 1 1
v -0.1323001 0.054 0.3456001 1 1 1
v -0.1323001 0.29408 0.3456001 1 1 1
v 0.1322999 0.054 0.3456001 1 1 1
v 0.1322999 0.29408 0.3456001 1 1 1
v 0.1322999 0.054 0.3726001 1 1 1
v 0.1322999 0.29408 0.3726001 1 1 1
v -0.1323001 0.054 0.3726001 1 1 1
v -0.1323001 0.29408 0.3726001 1 1 1
v 0.1862999 0.29408 0.3186 1 1 1
v 0.1862999 0.054 0.3186 1 1 1
v 0.1862999 0.29408 -0.3186 1 1 1
v 0.1862999 0.054 -0.3186 1 1 1
v 0.1292512 0.32108 -0.3186 1 1 1
v 0.1307485 0.32108 -0.3186 1 1 1
v -0.1307488 0.32108 -0.3186 1 1 1
v -0.1307487 0.32108 0.3186001 1 1 1
v 0.1307486 0.32108 0.3186001 1 1 1
v -0.1307488 0.34808 -0.3186 1 1 1
v 0.1292512 0.34808 -0.3186 1 1 1
v 0.1307485 0.34808 -0.3186 1 1 1
v -0.1307487 0.34808 0.3186001 1 1 1
v 0.1307486 0.34808 0.3186001 1 1 1
v -0.1663001 6.857304E-10 0.3726001 1 1 1
v -0.1863001 6.857304E-10 0.3526001 1 1 1
v -0.1663001 0.34808 0.3726001 1 1 1
v -0.1863001 0.34808 0.3526001 1 1 1
v 0.1662998 6.857304E-10 -0.3726 1 1 1
v 0.1862999 6.857304E-10 -0.3526 1 1 1
v 0.1662998 0.34808 -0.3726 1 1 1
v 0.1862999 0.34808 -0.3526 1 1 1
v 0.1663 6.857304E-10 0.3726 1 1 1
v 0.1663 0.34808 0.3726 1 1 1
v 0.1863 6.857304E-10 0.3526 1 1 1
v 0.1863 0.34808 0.3526 1 1 1
v -0.1863002 0.34808 -0.3525999 1 1 1
v -0.1863002 6.857304E-10 -0.3525999 1 1 1
v -0.1663002 0.34808 -0.3726 1 1 1
v -0.1663002 6.857304E-10 -0.3726 1 1 1
v -0.1307487 0.32108 -0.1442092 1 1 1
v -0.1307487 0.33458 -0.1557141 1 1 1
v 0.1307485 0.32108 -0.1442092 1 1 1
v 0.1307485 0.33458 -0.1557141 1 1 1
v -0.1307487 0.32108 -0.2322578 1 1 1
v 0.1307485 0.32108 -0.2322578 1 1 1
v -0.1307487 0.33458 -0.220753 1 1 1
v 0.1307485 0.33458 -0.220753 1 1 1
v -0.1307487 0.32108 -0.04573069 1 1 1
v 0.1307485 0.32108 -0.04573069 1 1 1
v -0.1307487 0.33458 -0.03422584 1 1 1
v 0.1307485 0.33458 -0.03422584 1 1 1
v 0.1307485 0.33458 0.03081303 1 1 1
v -0.1307487 0.33458 0.03081303 1 1 1
v -0.1307487 0.32108 0.04231789 1 1 1
v 0.1307485 0.32108 0.04231789 1 1 1
v -0.1307487 0.32108 0.228845 1 1 1
v -0.1307487 0.33458 0.2173402 1 1 1
v 0.1307485 0.32108 0.228845 1 1 1
v 0.1307485 0.33458 0.2173402 1 1 1
v -0.1307487 0.32108 0.1407964 1 1 1
v 0.1307485 0.32108 0.1407964 1 1 1
v -0.1307487 0.33458 0.1523013 1 1 1
v 0.1307485 0.33458 0.1523013 1 1 1
v -0.1291976 0.1300972 -0.3455999 1 1 1
v -0.1291976 0.1185923 -0.3590999 1 1 1
v 0.1322997 0.1300972 -0.3455999 1 1 1
v 0.1322997 0.1185923 -0.3590999 1 1 1
v -0.1291976 0.08204859 -0.3455999 1 1 1
v 0.1322997 0.08204859 -0.3455999 1 1 1
v -0.1291976 0.09355345 -0.3590999 1 1 1
v 0.1322997 0.09355345 -0.3590999 1 1 1
v -0.1291976 0.2660314 -0.3455999 1 1 1
v -0.1291976 0.2545265 -0.3590999 1 1 1
v 0.1322997 0.2660314 -0.3455999 1 1 1
v 0.1322997 0.2545265 -0.3590999 1 1 1
v -0.1291976 0.2179828 -0.3455999 1 1 1
v 0.1322997 0.2179828 -0.3455999 1 1 1
v -0.1291976 0.2294877 -0.3590999 1 1 1
v 0.1322997 0.2294877 -0.3590999 1 1 1
v 0.1291974 0.2660314 0.3456 1 1 1
v 0.1291974 0.2545265 0.3591 1 1 1
v -0.1322999 0.2660314 0.3456 1 1 1
v -0.1322999 0.2545265 0.3591 1 1 1
v 0.1291974 0.2179828 0.3456 1 1 1
v -0.1322999 0.2179828 0.3456 1 1 1
v 0.1291974 0.2294877 0.3591 1 1 1
v -0.1322999 0.2294877 0.3591 1 1 1
v 0.1291974 0.1300972 0.3456 1 1 1
v 0.1291974 0.1185923 0.3591 1 1 1
v -0.1322999 0.1300972 0.3456 1 1 1
v -0.1322999 0.1185923 0.3591 1 1 1
v 0.1291974 0.08204859 0.3456 1 1 1
v -0.1322999 0.08204859 0.3456 1 1 1
v 0.1291974 0.09355345 0.3591 1 1 1
v -0.1322999 0.09355345 0.3591 1 1 1

vn 0.1701709 -0.08021931 -0.1936665
vn 0.1701709 0.08021931 -0.1936665
vn -0.1701709 -0.08021931 -0.1936666
vn -0.1701709 0.08021931 -0.1936666
vn -0.08538153 0 0.2561445
vn -0.27 0 -3.21865E-08
vn -0.1909188 0 0.1909188
vn 0.27 0 3.21865E-08
vn 0.08538147 0 0.2561445
vn 0.1909188 0 0.1909188
vn 1.231724E-08 0.2494474 -0.1033245
vn 0 -0.27 0
vn 1.231724E-08 -0.2494474 -0.1033245
vn 0 0.27 0
vn -0.1701709 -0.08021931 0.1936666
vn -0.1701709 0.08021931 0.1936666
vn 0.1701709 -0.08021931 0.1936665
vn 0.1701709 0.08021931 0.1936665
vn 0.08538147 0 -0.2561445
vn 0.27 0 -3.21865E-08
vn 0.1909188 0 -0.1909188
vn -0.27 0 3.21865E-08
vn -0.08538153 0 -0.2561445
vn -0.1909188 0 -0.1909188
vn 1.231724E-08 0.2494474 0.1033245
vn 1.231724E-08 -0.2494474 0.1033245
vn 0.2494475 0 -0.1033245
vn 0.27 0 0
vn -0.2494475 0 -0.1033245
vn -0.27 0 0
vn -0.1033245 0 -0.2494475
vn 0.1033245 0 -0.2494475
vn 0 -0.27 0
vn 0 0.27 0
vn 2.275929E-08 -0.1909188 -0.1909188
vn 2.275929E-08 0.1909188 -0.1909188
vn 2.275929E-08 -0.1909188 0.1909188
vn 2.275929E-08 0.1909188 0.1909188
vn -0.2494475 0 0.1033245
vn -0.27 0 9.375283E-14
vn 0.2494475 0 0.1033245
vn 0.27 0 -9.375283E-14
vn 0.1033245 0 0.2494475
vn -0.1033245 0 0.2494475
vn -0.08538147 0 -0.2561445
vn -0.1909188 0 -0.1909188
vn 0.08538153 0 -0.2561445
vn 0.1909188 0 -0.1909188
vn 3.21865E-08 0 -0.27
vn 0.08538153 0 0.2561445
vn 0.1909188 0 0.1909188
vn -0.08538147 0 0.2561445
vn -0.1909188 0 0.1909188
vn 3.21865E-08 0 0.27
vn -0.2451375 0 0.1131708
vn -0.1751288 0 0.2054992
vn -0.2451375 0 -0.1131707
vn -0.1751289 0 -0.2054992
vn 0.2451375 0 -0.1131707
vn 0.1751289 0 -0.2054992
vn 0.2451375 0 0.1131708
vn 0.1751288 0 0.2054992
vn 0.27 0 -3.218651E-08
vn -3.218651E-08 0 -0.27
vn 0.1909188 0.1909188 -2.27593E-08
vn 0.1909188 -0.1909188 -2.27593E-08
vn -0.1909188 -0.1909188 2.27593E-08
vn -0.1909188 0.1909188 2.27593E-08
vn -0.27 0 3.218651E-08
vn 2.27593E-08 -0.1909188 0.1909188
vn -2.27593E-08 -0.1909188 -0.1909188
vn 2.27593E-08 0.1909188 0.1909188
vn -2.27593E-08 0.1909188 -0.1909188
vn 3.218651E-08 0 0.27
vn 0 0.27 0
vn 0.1909189 0 0.1909188
vn -0.1909189 0 0.1909188
vn -0.1909188 0 0.1909189
vn 0.1909188 0 -0.1909189
vn -0.1909189 0 -0.1909188
vn -0.1033245 0 0.2494475
vn -0.2494475 0 0.1033246
vn 0.1033245 0 -0.2494475
vn 0.2494475 0 -0.1033246
vn 0.1033246 0 0.2494475
vn 0.2494475 0 0.1033245
vn -0.2494475 0 -0.1033245
vn -0.1033246 0 -0.2494475
vn 0 -0.27 0
vn 0 0.1751288 0.2054991
vn 0 0.2451375 0.1131707
vn 0 0.1751288 -0.2054991
vn 0 0.2451375 -0.1131707
vn 0 0.2054992 -0.1751289
vn 0 0.1131707 -0.2451375
vn 0 -0.2054992 -0.1751288
vn 0 -0.1131708 -0.2451375
vn 6.081044E-14 0.2054991 0.1751288
vn 8.511974E-14 0.1131707 0.2451374
vn 6.081044E-14 -0.2054991 0.1751288
vn 8.511974E-14 -0.1131707 0.2451375

vt 0.84375 0.2892816
vt 0.84375 0.4607184
vt 0.84375 0.275
vt 0.84375 0.3653599
vt 0.84375 0.3846401
vt 0.84375 0.475
vt 0.84375 0.425
vt 0.84375 0.325
vt 0.84375 0.325
vt 0.84375 0.425
vt 0.96875 0.275
vt 0.96875 0.3653599
vt 0.96875 0.3846401
vt 0.96875 0.475
vt 0.96875 0.4607184
vt 0.84375 0.025
vt 0.84375 0.225
vt 0.84375 0.05602735
vt 0.84375 0.1939726
vt 0.84375 0.2094863
vt 0.84375 0.145
vt 0.84375 0.2249999
vt 0.84375 0.145
vt 0.84375 0.145
vt 0.84375 0.225

usemtl colormap

f 3/1/3 2/2/2 1/1/1
f 2/2/2 3/1/3 4/2/4
f 7/4/7 6/3/6 5/3/5
f 6/3/6 7/4/7 8/1/3
f 8/1/3 7/4/7 9/2/4
f 9/2/4 7/4/7 10/5/7
f 9/2/4 10/5/7 11/6/5
f 9/2/4 11/6/5 12/6/6
f 8/1/3 14/2/2 13/1/1
f 14/2/2 8/1/3 9/2/4
f 1/1/1 16/3/9 15/3/8
f 16/3/9 1/1/1 17/4/10
f 17/4/10 1/1/1 2/2/2
f 17/4/10 2/2/2 18/5/10
f 18/5/10 2/2/2 19/6/9
f 19/6/9 2/2/2 20/6/8
f 13/1/1 22/3/9 21/3/8
f 22/3/9 13/1/1 23/4/10
f 23/4/10 13/1/1 14/2/2
f 23/4/10 14/2/2 24/5/10
f 24/5/10 14/2/2 25/2/10
f 25/2/10 14/2/2 26/6/8
f 25/2/10 26/6/8 27/6/8
f 30/4/7 29/3/6 28/3/5
f 29/3/6 30/4/7 3/1/3
f 3/1/3 30/4/7 4/2/4
f 4/2/4 30/4/7 31/5/7
f 4/2/4 31/5/7 32/6/5
f 4/2/4 32/6/5 33/6/6
f 20/6/11 4/2/4 33/6/11
f 4/2/4 20/6/11 2/2/2
f 9/2/4 26/6/11 14/2/2
f 26/6/11 9/2/4 12/6/11
f 28/3/12 15/3/13 16/3/12
f 15/3/13 28/3/12 29/3/13
f 3/1/3 15/3/13 29/3/13
f 15/3/13 3/1/3 1/1/1
f 6/3/13 13/1/1 21/3/13
f 13/1/1 6/3/13 8/1/3
f 5/3/12 21/3/13 22/3/12
f 21/3/13 5/3/12 6/3/13
f 20/6/11 32/6/14 19/6/14
f 32/6/14 20/6/11 33/6/11
f 26/6/11 11/6/14 27/6/14
f 11/6/14 26/6/11 12/6/11
f 36/1/17 35/2/16 34/1/15
f 35/2/16 36/1/17 37/2/18
f 40/5/21 39/3/20 38/3/19
f 39/3/20 40/5/21 41/1/17
f 41/1/17 40/5/21 42/2/18
f 42/2/18 40/5/21 43/6/19
f 42/2/18 43/6/19 44/6/20
f 41/1/17 46/2/16 45/1/15
f 46/2/16 41/1/17 42/2/18
f 34/1/15 48/3/23 47/3/22
f 48/3/23 34/1/15 49/4/24
f 49/4/24 34/1/15 35/2/16
f 49/4/24 35/2/16 50/5/24
f 50/5/24 35/2/16 51/6/23
f 51/6/23 35/2/16 52/6/22
f 45/1/15 54/3/23 53/3/22
f 54/3/23 45/1/15 55/4/24
f 55/4/24 45/1/15 46/2/16
f 55/4/24 46/2/16 56/5/24
f 56/5/24 46/2/16 57/2/24
f 57/2/24 46/2/16 58/6/22
f 57/2/24 58/6/22 59/6/22
f 62/5/21 61/3/20 60/3/19
f 61/3/20 62/5/21 36/1/17
f 36/1/17 62/5/21 37/2/18
f 37/2/18 62/5/21 63/6/19
f 37/2/18 63/6/19 64/6/20
f 52/6/25 37/2/18 64/6/25
f 37/2/18 52/6/25 35/2/16
f 42/2/18 58/6/25 46/2/16
f 58/6/25 42/2/18 44/6/25
f 60/3/12 47/3/26 48/3/12
f 47/3/26 60/3/12 61/3/26
f 36/1/17 47/3/26 61/3/26
f 47/3/26 36/1/17 34/1/15
f 39/3/26 45/1/15 53/3/26
f 45/1/15 39/3/26 41/1/17
f 38/3/12 53/3/26 54/3/12
f 53/3/26 38/3/12 39/3/26
f 52/6/25 63/6/14 51/6/14
f 63/6/14 52/6/25 64/6/25
f 58/6/25 43/6/14 59/6/14
f 43/6/14 58/6/25 44/6/25
f 67/7/28 66/8/27 65/7/27
f 66/8/27 67/7/28 68/8/28
f 71/8/30 70/7/29 69/8/29
f 70/7/29 71/8/30 72/7/30
f 75/7/31 74/8/32 73/8/31
f 74/8/32 75/7/31 76/7/32
f 69/8/29 75/7/31 73/8/31
f 75/7/31 69/8/29 70/7/29
f 65/7/27 74/8/32 76/7/32
f 74/8/32 65/7/27 66/8/27
f 71/8/33 66/8/33 68/8/33
f 66/8/33 71/8/33 74/8/33
f 74/8/33 71/8/33 73/8/33
f 73/8/33 71/8/33 69/8/33
f 76/7/34 67/7/34 65/7/34
f 67/7/34 76/7/34 72/7/34
f 72/7/34 76/7/34 75/7/34
f 72/7/34 75/7/34 70/7/34
f 79/7/28 78/8/27 77/7/27
f 78/8/27 79/7/28 80/8/28
f 83/8/30 82/7/29 81/8/29
f 82/7/29 83/8/30 84/7/30
f 87/7/31 86/8/32 85/8/31
f 86/8/32 87/7/31 88/7/32
f 81/8/29 87/7/31 85/8/31
f 87/7/31 81/8/29 82/7/29
f 77/7/27 86/8/32 88/7/32
f 86/8/32 77/7/27 78/8/27
f 83/8/33 78/8/33 80/8/33
f 78/8/33 83/8/33 86/8/33
f 86/8/33 83/8/33 85/8/33
f 85/8/33 83/8/33 81/8/33
f 88/7/34 79/7/34 77/7/34
f 79/7/34 88/7/34 84/7/34
f 84/7/34 88/7/34 87/7/34
f 84/7/34 87/7/34 82/7/34
f 91/9/12 90/9/12 89/9/12
f 90/9/12 91/9/12 92/9/12
f 93/8/12 92/9/12 91/9/12
f 92/9/12 93/8/12 94/8/12
f 93/8/12 91/9/12 95/9/35
f 93/8/12 95/9/35 96/8/35
f 96/8/35 98/7/36 97/10/36
f 98/7/36 96/8/35 95/9/35
f 101/10/14 100/10/14 99/10/14
f 102/7/14 100/10/14 101/10/14
f 102/7/14 101/10/14 97/10/36
f 102/7/14 97/10/36 98/7/36
f 103/10/14 100/10/14 102/7/14
f 100/10/14 103/10/14 104/10/14
f 107/9/12 106/9/12 105/9/12
f 106/9/12 107/9/12 108/9/12
f 109/8/12 108/9/12 107/9/12
f 108/9/12 109/8/12 110/8/12
f 109/8/12 107/9/12 111/9/37
f 109/8/12 111/9/37 112/8/37
f 112/8/37 114/7/38 113/10/38
f 114/7/38 112/8/37 111/9/37
f 117/10/14 116/10/14 115/10/14
f 118/7/14 116/10/14 117/10/14
f 118/7/14 117/10/14 113/10/38
f 118/7/14 113/10/38 114/7/38
f 119/10/14 116/10/14 118/7/14
f 116/10/14 119/10/14 120/10/14
f 123/7/40 122/8/39 121/7/39
f 122/8/39 123/7/40 124/8/40
f 127/8/42 126/7/41 125/8/41
f 126/7/41 127/8/42 128/7/42
f 131/7/43 130/8/44 129/8/43
f 130/8/44 131/7/43 132/7/44
f 125/8/41 131/7/43 129/8/43
f 131/7/43 125/8/41 126/7/41
f 121/7/39 130/8/44 132/7/44
f 130/8/44 121/7/39 122/8/39
f 127/8/33 122/8/33 124/8/33
f 122/8/33 127/8/33 130/8/33
f 130/8/33 127/8/33 129/8/33
f 129/8/33 127/8/33 125/8/33
f 132/7/34 123/7/34 121/7/34
f 123/7/34 132/7/34 128/7/34
f 128/7/34 132/7/34 131/7/34
f 128/7/34 131/7/34 126/7/34
f 135/7/40 134/8/39 133/7/39
f 134/8/39 135/7/40 136/8/40
f 139/8/42 138/7/41 137/8/41
f 138/7/41 139/8/42 140/7/42
f 143/7/43 142/8/44 141/8/43
f 142/8/44 143/7/43 144/7/44
f 137/8/41 143/7/43 141/8/43
f 143/7/43 137/8/41 138/7/41
f 133/7/39 142/8/44 144/7/44
f 142/8/44 133/7/39 134/8/39
f 139/8/33 134/8/33 136/8/33
f 134/8/33 139/8/33 142/8/33
f 142/8/33 139/8/33 141/8/33
f 141/8/33 139/8/33 137/8/33
f 144/7/34 135/7/34 133/7/34
f 135/7/34 144/7/34 140/7/34
f 140/7/34 144/7/34 143/7/34
f 140/7/34 143/7/34 138/7/34
f 28/11/47 17/12/46 16/11/45
f 17/12/46 28/11/47 18/13/46
f 18/13/46 28/11/47 19/14/45
f 19/14/45 28/11/47 32/14/47
f 32/14/47 28/11/47 30/12/48
f 32/14/47 30/12/48 31/13/48
f 5/11/47 23/12/46 22/11/45
f 23/12/46 5/11/47 24/13/46
f 24/13/46 5/11/47 25/15/46
f 25/15/46 5/11/47 27/14/49
f 27/14/49 5/11/47 11/14/47
f 11/14/47 5/11/47 7/12/48
f 11/14/47 7/12/48 10/13/48
f 60/11/52 49/12/51 48/11/50
f 49/12/51 60/11/52 50/13/51
f 50/13/51 60/11/52 51/14/50
f 51/14/50 60/11/52 63/14/52
f 63/14/52 60/11/52 62/13/53
f 38/11/52 55/12/51 54/11/50
f 55/12/51 38/11/52 56/13/51
f 56/13/51 38/11/52 57/15/51
f 57/15/51 38/11/52 59/14/54
f 59/14/54 38/11/52 43/14/52
f 43/14/52 38/11/52 40/13/53

usemtl colormap-specular

f 147/16/56 146/17/55 145/16/55
f 146/17/55 147/16/56 148/17/56
f 151/17/58 150/16/57 149/17/57
f 150/16/57 151/17/58 152/16/58
f 146/17/55 150/16/57 145/16/55
f 150/16/57 146/17/55 149/17/57
f 155/16/60 154/17/59 153/16/59
f 154/17/59 155/16/60 156/17/60
f 159/17/62 158/16/61 157/17/61
f 158/16/61 159/17/62 160/16/62
f 154/17/59 158/16/61 153/16/59
f 158/16/61 154/17/59 157/17/61
f 163/16/56 162/17/55 161/16/55
f 162/17/55 163/16/56 164/17/56
f 162/17/55 165/16/57 161/16/55
f 165/16/57 162/17/55 166/17/57
f 167/17/58 165/16/57 166/17/57
f 165/16/57 167/17/58 168/16/58
f 171/16/56 170/17/55 169/16/55
f 170/17/55 171/16/56 172/17/56
f 175/17/58 174/16/57 173/17/57
f 174/16/57 175/17/58 176/16/58
f 170/17/55 174/16/57 169/16/55
f 174/16/57 170/17/55 173/17/57
f 179/16/60 178/17/59 177/16/59
f 178/17/59 179/16/60 180/17/60
f 183/17/62 182/16/61 181/17/61
f 182/16/61 183/17/62 184/16/62
f 178/17/59 182/16/61 177/16/59
f 182/16/61 178/17/59 181/17/61
f 187/16/60 186/17/59 185/16/59
f 186/17/59 187/16/60 188/17/60
f 186/17/59 189/16/61 185/16/59
f 189/16/61 186/17/59 190/17/61
f 191/17/62 189/16/61 190/17/61
f 189/16/61 191/17/62 192/16/62
f 195/19/63 194/18/63 193/18/63
f 194/18/63 195/19/63 196/19/63
f 199/19/64 198/18/64 197/19/64
f 198/18/64 199/19/64 200/18/64
f 202/19/66 198/18/65 201/18/65
f 198/18/65 202/19/66 197/19/66
f 203/19/67 197/19/66 202/19/66
f 197/19/66 203/19/67 199/19/67
f 199/19/67 204/18/68 200/18/68
f 204/18/68 199/19/67 203/19/67
f 198/18/65 204/18/68 201/18/65
f 204/18/68 198/18/65 200/18/68
f 207/19/69 206/18/69 205/18/69
f 206/18/69 207/19/69 208/19/69
f 208/19/70 210/19/71 209/19/70
f 210/19/71 208/19/70 207/19/71
f 206/18/72 209/19/70 211/18/72
f 209/19/70 206/18/72 208/19/70
f 207/19/71 212/18/73 210/19/71
f 212/18/73 207/19/71 205/18/73
f 212/18/73 206/18/72 211/18/72
f 206/18/72 212/18/73 205/18/73
f 215/18/74 214/19/74 213/18/74
f 214/19/74 215/18/74 216/19/74
f 218/19/67 215/18/68 217/18/68
f 215/18/68 218/19/67 216/19/67
f 214/19/66 219/18/65 213/18/65
f 219/18/65 214/19/66 220/19/66
f 219/18/65 215/18/68 213/18/65
f 215/18/68 219/18/65 217/18/68
f 216/19/67 220/19/66 214/19/66
f 220/19/66 216/19/67 218/19/67
f 221/19/71 194/18/73 196/19/71
f 194/18/73 221/19/71 222/18/73
f 221/19/71 195/19/70 223/19/70
f 195/19/70 221/19/71 196/19/71
f 193/18/72 222/18/73 224/18/72
f 222/18/73 193/18/72 194/18/73
f 224/18/72 195/19/70 193/18/72
f 195/19/70 224/18/72 223/19/70
f 227/20/75 226/20/75 225/20/75
f 226/20/75 227/20/75 228/20/75
f 226/20/75 228/20/75 229/20/75
f 225/20/74 230/17/76 227/20/76
f 230/17/76 225/20/74 231/17/74
f 226/20/77 231/17/74 225/20/74
f 231/17/74 226/20/77 232/17/78
f 230/17/76 228/20/79 227/20/76
f 228/20/79 230/17/76 233/17/79
f 233/17/79 229/20/80 228/20/79
f 229/20/80 233/17/79 234/17/80
f 229/20/80 232/17/78 226/20/77
f 232/17/78 229/20/80 234/17/80
f 237/17/81 236/16/82 235/16/81
f 236/16/82 237/17/81 238/17/82
f 241/17/83 240/16/84 239/16/83
f 240/16/84 241/17/83 242/17/84
f 245/16/86 244/17/85 243/16/85
f 244/17/85 245/16/86 246/17/86
f 249/17/88 248/16/87 247/17/87
f 248/16/87 249/17/88 250/16/88
f 247/17/75 241/17/75 249/17/75
f 241/17/75 247/17/75 242/17/75
f 242/17/75 247/17/75 230/17/75
f 230/17/75 247/17/75 238/17/75
f 242/17/75 230/17/75 231/17/75
f 232/17/75 242/17/75 231/17/75
f 230/17/75 238/17/75 233/17/75
f 242/17/75 232/17/75 246/17/75
f 246/17/75 232/17/75 234/17/75
f 233/17/75 238/17/75 234/17/75
f 234/17/75 238/17/75 246/17/75
f 246/17/75 238/17/75 244/17/75
f 244/17/75 238/17/75 237/17/75
f 239/16/89 248/16/89 250/16/89
f 248/16/89 239/16/89 240/16/89
f 248/16/89 240/16/89 236/16/89
f 236/16/89 240/16/89 245/16/89
f 236/16/89 245/16/89 243/16/89
f 236/16/89 243/16/89 235/16/89
f 212/18/69 238/17/82 210/19/69
f 210/19/69 238/17/82 209/19/69
f 212/18/69 236/16/82 238/17/82
f 247/17/87 209/19/69 238/17/82
f 236/16/82 212/18/69 248/16/87
f 247/17/87 211/18/69 209/19/69
f 248/16/87 211/18/69 247/17/87
f 211/18/69 248/16/87 212/18/69
f 224/18/63 242/17/84 223/19/63
f 223/19/63 242/17/84 221/19/63
f 224/18/63 240/16/84 242/17/84
f 246/17/86 221/19/63 242/17/84
f 240/16/84 224/18/63 245/16/86
f 246/17/86 222/18/63 221/19/63
f 245/16/86 222/18/63 246/17/86
f 222/18/63 245/16/86 224/18/63
f 202/19/64 241/17/83 203/19/64
f 203/19/64 241/17/83 204/18/64
f 202/19/64 249/17/88 241/17/83
f 239/16/83 204/18/64 241/17/83
f 249/17/88 202/19/64 250/16/88
f 239/16/83 201/18/64 204/18/64
f 250/16/88 201/18/64 239/16/83
f 201/18/64 250/16/88 202/19/64
f 219/18/74 243/16/85 217/18/74
f 217/18/74 243/16/85 218/19/74
f 219/18/74 235/16/81 243/16/85
f 244/17/85 218/19/74 243/16/85
f 235/16/81 219/18/74 237/17/81
f 244/17/85 220/19/74 218/19/74
f 237/17/81 220/19/74 244/17/85
f 220/19/74 237/17/81 219/18/74
f 253/23/90 252/22/91 251/21/90
f 252/22/91 253/23/90 254/17/91
f 257/25/93 256/23/92 255/24/92
f 256/23/92 257/25/93 258/17/93
f 257/25/93 254/17/91 258/17/93
f 254/17/91 257/25/93 252/22/91
f 261/25/93 260/23/92 259/24/92
f 260/23/92 261/25/93 262/17/93
f 261/25/93 263/17/91 262/17/93
f 263/17/91 261/25/93 264/22/91
f 266/23/90 264/22/91 265/21/90
f 264/22/91 266/23/90 263/17/91
f 269/23/90 268/22/91 267/21/90
f 268/22/91 269/23/90 270/17/91
f 273/25/93 272/23/92 271/24/92
f 272/23/92 273/25/93 274/17/93
f 273/25/93 270/17/91 274/17/93
f 270/17/91 273/25/93 268/22/91
f 277/23/94 276/22/95 275/21/94
f 276/22/95 277/23/94 278/17/95
f 281/25/97 280/23/96 279/24/96
f 280/23/96 281/25/97 282/17/97
f 281/25/97 278/17/95 282/17/97
f 278/17/95 281/25/97 276/22/95
f 285/23/94 284/22/95 283/21/94
f 284/22/95 285/23/94 286/17/95
f 289/25/97 288/23/96 287/24/96
f 288/23/96 289/25/97 290/17/97
f 289/25/97 286/17/95 290/17/97
f 286/17/95 289/25/97 284/22/95
f 293/23/98 292/22/99 291/21/98
f 292/22/99 293/23/98 294/17/99
f 297/25/101 296/23/100 295/24/100
f 296/23/100 297/25/101 298/17/101
f 297/25/101 294/17/99 298/17/101
f 294/17/99 297/25/101 292/22/99
f 301/23/98 300/22/99 299/21/98
f 300/22/99 301/23/98 302/17/99
f 305/25/101 304/23/100 303/24/100
f 304/23/100 305/25/101 306/17/101
f 305/25/101 302/17/99 306/17/101
f 302/17/99 305/25/101 300/22/99

g shipping-container-b




usemtl colormap

f 3/1/3 2/2/2 1/1/1
f 2/2/2 3/1/3 4/2/4
f 7/4/7 6/3/6 5/3/5
f 6/3/6 7/4/7 8/1/3
f 8/1/3 7/4/7 9/2/4
f 9/2/4 7/4/7 10/5/7
f 9/2/4 10/5/7 11/6/5
f 9/2/4 11/6/5 12/6/6
f 8/1/3 14/2/2 13/1/1
f 14/2/2 8/1/3 9/2/4
f 1/1/1 16/3/9 15/3/8
f 16/3/9 1/1/1 17/4/10
f 17/4/10 1/1/1 2/2/2
f 17/4/10 2/2/2 18/5/10
f 18/5/10 2/2/2 19/6/9
f 19/6/9 2/2/2 20/6/8
f 13/1/1 22/3/9 21/3/8
f 22/3/9 13/1/1 23/4/10
f 23/4/10 13/1/1 14/2/2
f 23/4/10 14/2/2 24/5/10
f 24/5/10 14/2/2 25/2/10
f 25/2/10 14/2/2 26/6/8
f 25/2/10 26/6/8 27/6/8
f 30/4/7 29/3/6 28/3/5
f 29/3/6 30/4/7 3/1/3
f 3/1/3 30/4/7 4/2/4
f 4/2/4 30/4/7 31/5/7
f 4/2/4 31/5/7 32/6/5
f 4/2/4 32/6/5 33/6/6
f 20/6/11 4/2/4 33/6/11
f 4/2/4 20/6/11 2/2/2
f 9/2/4 26/6/11 14/2/2
f 26/6/11 9/2/4 12/6/11
f 28/3/12 15/3/13 16/3/12
f 15/3/13 28/3/12 29/3/13
f 3/1/3 15/3/13 29/3/13
f 15/3/13 3/1/3 1/1/1
f 6/3/13 13/1/1 21/3/13
f 13/1/1 6/3/13 8/1/3
f 5/3/12 21/3/13 22/3/12
f 21/3/13 5/3/12 6/3/13
f 20/6/11 32/6/14 19/6/14
f 32/6/14 20/6/11 33/6/11
f 26/6/11 11/6/14 27/6/14
f 11/6/14 26/6/11 12/6/11
f 36/1/17 35/2/16 34/1/15
f 35/2/16 36/1/17 37/2/18
f 40/5/21 39/3/20 38/3/19
f 39/3/20 40/5/21 41/1/17
f 41/1/17 40/5/21 42/2/18
f 42/2/18 40/5/21 43/6/19
f 42/2/18 43/6/19 44/6/20
f 41/1/17 46/2/16 45/1/15
f 46/2/16 41/1/17 42/2/18
f 34/1/15 48/3/23 47/3/22
f 48/3/23 34/1/15 49/4/24
f 49/4/24 34/1/15 35/2/16
f 49/4/24 35/2/16 50/5/24
f 50/5/24 35/2/16 51/6/23
f 51/6/23 35/2/16 52/6/22
f 45/1/15 54/3/23 53/3/22
f 54/3/23 45/1/15 55/4/24
f 55/4/24 45/1/15 46/2/16
f 55/4/24 46/2/16 56/5/24
f 56/5/24 46/2/16 57/2/24
f 57/2/24 46/2/16 58/6/22
f 57/2/24 58/6/22 59/6/22
f 62/5/21 61/3/20 60/3/19
f 61/3/20 62/5/21 36/1/17
f 36/1/17 62/5/21 37/2/18
f 37/2/18 62/5/21 63/6/19
f 37/2/18 63/6/19 64/6/20
f 52/6/25 37/2/18 64/6/25
f 37/2/18 52/6/25 35/2/16
f 42/2/18 58/6/25 46/2/16
f 58/6/25 42/2/18 44/6/25
f 60/3/12 47/3/26 48/3/12
f 47/3/26 60/3/12 61/3/26
f 36/1/17 47/3/26 61/3/26
f 47/3/26 36/1/17 34/1/15
f 39/3/26 45/1/15 53/3/26
f 45/1/15 39/3/26 41/1/17
f 38/3/12 53/3/26 54/3/12
f 53/3/26 38/3/12 39/3/26
f 52/6/25 63/6/14 51/6/14
f 63/6/14 52/6/25 64/6/25
f 58/6/25 43/6/14 59/6/14
f 43/6/14 58/6/25 44/6/25
f 67/7/28 66/8/27 65/7/27
f 66/8/27 67/7/28 68/8/28
f 71/8/30 70/7/29 69/8/29
f 70/7/29 71/8/30 72/7/30
f 75/7/31 74/8/32 73/8/31
f 74/8/32 75/7/31 76/7/32
f 69/8/29 75/7/31 73/8/31
f 75/7/31 69/8/29 70/7/29
f 65/7/27 74/8/32 76/7/32
f 74/8/32 65/7/27 66/8/27
f 71/8/33 66/8/33 68/8/33
f 66/8/33 71/8/33 74/8/33
f 74/8/33 71/8/33 73/8/33
f 73/8/33 71/8/33 69/8/33
f 76/7/34 67/7/34 65/7/34
f 67/7/34 76/7/34 72/7/34
f 72/7/34 76/7/34 75/7/34
f 72/7/34 75/7/34 70/7/34
f 79/7/28 78/8/27 77/7/27
f 78/8/27 79/7/28 80/8/28
f 83/8/30 82/7/29 81/8/29
f 82/7/29 83/8/30 84/7/30
f 87/7/31 86/8/32 85/8/31
f 86/8/32 87/7/31 88/7/32
f 81/8/29 87/7/31 85/8/31
f 87/7/31 81/8/29 82/7/29
f 77/7/27 86/8/32 88/7/32
f 86/8/32 77/7/27 78/8/27
f 83/8/33 78/8/33 80/8/33
f 78/8/33 83/8/33 86/8/33
f 86/8/33 83/8/33 85/8/33
f 85/8/33 83/8/33 81/8/33
f 88/7/34 79/7/34 77/7/34
f 79/7/34 88/7/34 84/7/34
f 84/7/34 88/7/34 87/7/34
f 84/7/34 87/7/34 82/7/34
f 91/9/12 90/9/12 89/9/12
f 90/9/12 91/9/12 92/9/12
f 93/8/12 92/9/12 91/9/12
f 92/9/12 93/8/12 94/8/12
f 93/8/12 91/9/12 95/9/35
f 93/8/12 95/9/35 96/8/35
f 96/8/35 98/7/36 97/10/36
f 98/7/36 96/8/35 95/9/35
f 101/10/14 100/10/14 99/10/14
f 102/7/14 100/10/14 101/10/14
f 102/7/14 101/10/14 97/10/36
f 102/7/14 97/10/36 98/7/36
f 103/10/14 100/10/14 102/7/14
f 100/10/14 103/10/14 104/10/14
f 107/9/12 106/9/12 105/9/12
f 106/9/12 107/9/12 108/9/12
f 109/8/12 108/9/12 107/9/12
f 108/9/12 109/8/12 110/8/12
f 109/8/12 107/9/12 111/9/37
f 109/8/12 111/9/37 112/8/37
f 112/8/37 114/7/38 113/10/38
f 114/7/38 112/8/37 111/9/37
f 117/10/14 116/10/14 115/10/14
f 118/7/14 116/10/14 117/10/14
f 118/7/14 117/10/14 113/10/38
f 118/7/14 113/10/38 114/7/38
f 119/10/14 116/10/14 118/7/14
f 116/10/14 119/10/14 120/10/14
f 123/7/40 122/8/39 121/7/39
f 122/8/39 123/7/40 124/8/40
f 127/8/42 126/7/41 125/8/41
f 126/7/41 127/8/42 128/7/42
f 131/7/43 130/8/44 129/8/43
f 130/8/44 131/7/43 132/7/44
f 125/8/41 131/7/43 129/8/43
f 131/7/43 125/8/41 126/7/41
f 121/7/39 130/8/44 132/7/44
f 130/8/44 121/7/39 122/8/39
f 127/8/33 122/8/33 124/8/33
f 122/8/33 127/8/33 130/8/33
f 130/8/33 127/8/33 129/8/33
f 129/8/33 127/8/33 125/8/33
f 132/7/34 123/7/34 121/7/34
f 123/7/34 132/7/34 128/7/34
f 128/7/34 132/7/34 131/7/34
f 128/7/34 131/7/34 126/7/34
f 135/7/40 134/8/39 133/7/39
f 134/8/39 135/7/40 136/8/40
f 139/8/42 138/7/41 137/8/41
f 138/7/41 139/8/42 140/7/42
f 143/7/43 142/8/44 141/8/43
f 142/8/44 143/7/43 144/7/44
f 137/8/41 143/7/43 141/8/43
f 143/7/43 137/8/41 138/7/41
f 133/7/39 142/8/44 144/7/44
f 142/8/44 133/7/39 134/8/39
f 139/8/33 134/8/33 136/8/33
f 134/8/33 139/8/33 142/8/33
f 142/8/33 139/8/33 141/8/33
f 141/8/33 139/8/33 137/8/33
f 144/7/34 135/7/34 133/7/34
f 135/7/34 144/7/34 140/7/34
f 140/7/34 144/7/34 143/7/34
f 140/7/34 143/7/34 138/7/34
f 28/11/47 17/12/46 16/11/45
f 17/12/46 28/11/47 18/13/46
f 18/13/46 28/11/47 19/14/45
f 19/14/45 28/11/47 32/14/47
f 32/14/47 28/11/47 30/12/48
f 32/14/47 30/12/48 31/13/48
f 5/11/47 23/12/46 22/11/45
f 23/12/46 5/11/47 24/13/46
f 24/13/46 5/11/47 25/15/46
f 25/15/46 5/11/47 27/14/49
f 27/14/49 5/11/47 11/14/47
f 11/14/47 5/11/47 7/12/48
f 11/14/47 7/12/48 10/13/48
f 60/11/52 49/12/51 48/11/50
f 49/12/51 60/11/52 50/13/51
f 50/13/51 60/11/52 51/14/50
f 51/14/50 60/11/52 63/14/52
f 63/14/52 60/11/52 62/13/53
f 38/11/52 55/12/51 54/11/50
f 55/12/51 38/11/52 56/13/51
f 56/13/51 38/11/52 57/15/51
f 57/15/51 38/11/52 59/14/54
f 59/14/54 38/11/52 43/14/52
f 43/14/52 38/11/52 40/13/53

usemtl colormap-specular

f 147/16/56 146/17/55 145/16/55
f 146/17/55 147/16/56 148/17/56
f 151/17/58 150/16/57 149/17/57
f 150/16/57 151/17/58 152/16/58
f 146/17/55 150/16/57 145/16/55
f 150/16/57 146/17/55 149/17/57
f 155/16/60 154/17/59 153/16/59
f 154/17/59 155/16/60 156/17/60
f 159/17/62 158/16/61 157/17/61
f 158/16/61 159/17/62 160/16/62
f 154/17/59 158/16/61 153/16/59
f 158/16/61 154/17/59 157/17/61
f 163/16/56 162/17/55 161/16/55
f 162/17/55 163/16/56 164/17/56
f 162/17/55 165/16/57 161/16/55
f 165/16/57 162/17/55 166/17/57
f 167/17/58 165/16/57 166/17/57
f 165/16/57 167/17/58 168/16/58
f 171/16/56 170/17/55 169/16/55
f 170/17/55 171/16/56 172/17/56
f 175/17/58 174/16/57 173/17/57
f 174/16/57 175/17/58 176/16/58
f 170/17/55 174/16/57 169/16/55
f 174/16/57 170/17/55 173/17/57
f 179/16/60 178/17/59 177/16/59
f 178/17/59 179/16/60 180/17/60
f 183/17/62 182/16/61 181/17/61
f 182/16/61 183/17/62 184/16/62
f 178/17/59 182/16/61 177/16/59
f 182/16/61 178/17/59 181/17/61
f 187/16/60 186/17/59 185/16/59
f 186/17/59 187/16/60 188/17/60
f 186/17/59 189/16/61 185/16/59
f 189/16/61 186/17/59 190/17/61
f 191/17/62 189/16/61 190/17/61
f 189/16/61 191/17/62 192/16/62
f 195/19/63 194/18/63 193/18/63
f 194/18/63 195/19/63 196/19/63
f 199/19/64 198/18/64 197/19/64
f 198/18/64 199/19/64 200/18/64
f 202/19/66 198/18/65 201/18/65
f 198/18/65 202/19/66 197/19/66
f 203/19/67 197/19/66 202/19/66
f 197/19/66 203/19/67 199/19/67
f 199/19/67 204/18/68 200/18/68
f 204/18/68 199/19/67 203/19/67
f 198/18/65 204/18/68 201/18/65
f 204/18/68 198/18/65 200/18/68
f 207/19/69 206/18/69 205/18/69
f 206/18/69 207/19/69 208/19/69
f 208/19/70 210/19/71 209/19/70
f 210/19/71 208/19/70 207/19/71
f 206/18/72 209/19/70 211/18/72
f 209/19/70 206/18/72 208/19/70
f 207/19/71 212/18/73 210/19/71
f 212/18/73 207/19/71 205/18/73
f 212/18/73 206/18/72 211/18/72
f 206/18/72 212/18/73 205/18/73
f 215/18/74 214/19/74 213/18/74
f 214/19/74 215/18/74 216/19/74
f 218/19/67 215/18/68 217/18/68
f 215/18/68 218/19/67 216/19/67
f 214/19/66 219/18/65 213/18/65
f 219/18/65 214/19/66 220/19/66
f 219/18/65 215/18/68 213/18/65
f 215/18/68 219/18/65 217/18/68
f 216/19/67 220/19/66 214/19/66
f 220/19/66 216/19/67 218/19/67
f 221/19/71 194/18/73 196/19/71
f 194/18/73 221/19/71 222/18/73
f 221/19/71 195/19/70 223/19/70
f 195/19/70 221/19/71 196/19/71
f 193/18/72 222/18/73 224/18/72
f 222/18/73 193/18/72 194/18/73
f 224/18/72 195/19/70 193/18/72
f 195/19/70 224/18/72 223/19/70
f 227/20/75 226/20/75 225/20/75
f 226/20/75 227/20/75 228/20/75
f 226/20/75 228/20/75 229/20/75
f 225/20/74 230/17/76 227/20/76
f 230/17/76 225/20/74 231/17/74
f 226/20/77 231/17/74 225/20/74
f 231/17/74 226/20/77 232/17/78
f 230/17/76 228/20/79 227/20/76
f 228/20/79 230/17/76 233/17/79
f 233/17/79 229/20/80 228/20/79
f 229/20/80 233/17/79 234/17/80
f 229/20/80 232/17/78 226/20/77
f 232/17/78 229/20/80 234/17/80
f 237/17/81 236/16/82 235/16/81
f 236/16/82 237/17/81 238/17/82
f 241/17/83 240/16/84 239/16/83
f 240/16/84 241/17/83 242/17/84
f 245/16/86 244/17/85 243/16/85
f 244/17/85 245/16/86 246/17/86
f 249/17/88 248/16/87 247/17/87
f 248/16/87 249/17/88 250/16/88
f 247/17/75 241/17/75 249/17/75
f 241/17/75 247/17/75 242/17/75
f 242/17/75 247/17/75 230/17/75
f 230/17/75 247/17/75 238/17/75
f 242/17/75 230/17/75 231/17/75
f 232/17/75 242/17/75 231/17/75
f 230/17/75 238/17/75 233/17/75
f 242/17/75 232/17/75 246/17/75
f 246/17/75 232/17/75 234/17/75
f 233/17/75 238/17/75 234/17/75
f 234/17/75 238/17/75 246/17/75
f 246/17/75 238/17/75 244/17/75
f 244/17/75 238/17/75 237/17/75
f 239/16/89 248/16/89 250/16/89
f 248/16/89 239/16/89 240/16/89
f 248/16/89 240/16/89 236/16/89
f 236/16/89 240/16/89 245/16/89
f 236/16/89 245/16/89 243/16/89
f 236/16/89 243/16/89 235/16/89
f 212/18/69 238/17/82 210/19/69
f 210/19/69 238/17/82 209/19/69
f 212/18/69 236/16/82 238/17/82
f 247/17/87 209/19/69 238/17/82
f 236/16/82 212/18/69 248/16/87
f 247/17/87 211/18/69 209/19/69
f 248/16/87 211/18/69 247/17/87
f 211/18/69 248/16/87 212/18/69
f 224/18/63 242/17/84 223/19/63
f 223/19/63 242/17/84 221/19/63
f 224/18/63 240/16/84 242/17/84
f 246/17/86 221/19/63 242/17/84
f 240/16/84 224/18/63 245/16/86
f 246/17/86 222/18/63 221/19/63
f 245/16/86 222/18/63 246/17/86
f 222/18/63 245/16/86 224/18/63
f 202/19/64 241/17/83 203/19/64
f 203/19/64 241/17/83 204/18/64
f 202/19/64 249/17/88 241/17/83
f 239/16/83 204/18/64 241/17/83
f 249/17/88 202/19/64 250/16/88
f 239/16/83 201/18/64 204/18/64
f 250/16/88 201/18/64 239/16/83
f 201/18/64 250/16/88 202/19/64
f 219/18/74 243/16/85 217/18/74
f 217/18/74 243/16/85 218/19/74
f 219/18/74 235/16/81 243/16/85
f 244/17/85 218/19/74 243/16/85
f 235/16/81 219/18/74 237/17/81
f 244/17/85 220/19/74 218/19/74
f 237/17/81 220/19/74 244/17/85
f 220/19/74 237/17/81 219/18/74
f 253/23/90 252/22/91 251/21/90
f 252/22/91 253/23/90 254/17/91
f 257/25/93 256/23/92 255/24/92
f 256/23/92 257/25/93 258/17/93
f 257/25/93 254/17/91 258/17/93
f 254/17/91 257/25/93 252/22/91
f 261/25/93 260/23/92 259/24/92
f 260/23/92 261/25/93 262/17/93
f 261/25/93 263/17/91 262/17/93
f 263/17/91 261/25/93 264/22/91
f 266/23/90 264/22/91 265/21/90
f 264/22/91 266/23/90 263/17/91
f 269/23/90 268/22/91 267/21/90
f 268/22/91 269/23/90 270/17/91
f 273/25/93 272/23/92 271/24/92
f 272/23/92 273/25/93 274/17/93
f 273/25/93 270/17/91 274/17/93
f 270/17/91 273/25/93 268/22/91
f 277/23/94 276/22/95 275/21/94
f 276/22/95 277/23/94 278/17/95
f 281/25/97 280/23/96 279/24/96
f 280/23/96 281/25/97 282/17/97
f 281/25/97 278/17/95 282/17/97
f 278/17/95 281/25/97 276/22/95
f 285/23/94 284/22/95 283/21/94
f 284/22/95 285/23/94 286/17/95
f 289/25/97 288/23/96 287/24/96
f 288/23/96 289/25/97 290/17/97
f 289/25/97 286/17/95 290/17/97
f 286/17/95 289/25/97 284/22/95
f 293/23/98 292/22/99 291/21/98
f 292/22/99 293/23/98 294/17/99
f 297/25/101 296/23/100 295/24/100
f 296/23/100 297/25/101 298/17/101
f 297/25/101 294/17/99 298/17/101
f 294/17/99 297/25/101 292/22/99
f 301/23/98 300/22/99 299/21/98
f 300/22/99 301/23/98 302/17/99
f 305/25/101 304/23/100 303/24/100
f 304/23/100 305/25/101 306/17/101
f 305/25/101 302/17/99 306/17/101
f 302/17/99 305/25/101 300/22/99

