# Created by Kenney (www.kenney.nl)

mtllib shipping-container-c.mtl

g shipping-container-c

v -0.1728002 0.054 0.2190466 1 1 1
v -0.1728002 0.29408 0.2190466 1 1 1
v -0.1593001 0.054 0.2305515 1 1 1
v -0.1593001 0.29408 0.2305515 1 1 1
v -0.1728002 0.29408 0.1540077 1 1 1
v -0.1728002 0.054 0.1540077 1 1 1
v -0.1593002 0.29408 0.1425029 1 1 1
v -0.1593002 0.054 0.1425029 1 1 1
v 0.1728 0.054 -0.03251943 1 1 1
v 0.1728 0.29408 -0.03251943 1 1 1
v 0.1593 0.054 -0.04402429 1 1 1
v 0.1593 0.29408 -0.04402429 1 1 1
v 0.1728 0.29408 0.03251945 1 1 1
v 0.1728 0.054 0.03251945 1 1 1
v 0.1593 0.29408 0.04402431 1 1 1
v 0.1593 0.054 0.04402431 1 1 1
v -0.1728002 0.054 -0.1540077 1 1 1
v -0.1728002 0.29408 -0.1540077 1 1 1
v -0.1593001 0.054 -0.1425028 1 1 1
v -0.1593001 0.29408 -0.1425028 1 1 1
v -0.1728002 0.054 -0.2190465 1 1 1
v -0.1728002 0.29408 -0.2190465 1 1 1
v -0.1593002 0.29408 -0.2305514 1 1 1
v -0.1593002 0.054 -0.2305514 1 1 1
v -0.1728002 0.054 0.03251947 1 1 1
v -0.1728002 0.29408 0.03251947 1 1 1
v -0.1593001 0.054 0.04402434 1 1 1
v -0.1593001 0.29408 0.04402434 1 1 1
v -0.1728002 0.29408 -0.0325194 1 1 1
v -0.1728002 0.054 -0.0325194 1 1 1
v -0.1593002 0.29408 -0.04402427 1 1 1
v -0.1593002 0.054 -0.04402427 1 1 1
v 0.1728 0.054 -0.2190465 1 1 1
v 0.1728 0.29408 -0.2190465 1 1 1
v 0.1593 0.054 -0.2305514 1 1 1
v 0.1593 0.29408 -0.2305514 1 1 1
v 0.1728 0.29408 -0.1540077 1 1 1
v 0.1728 0.054 -0.1540077 1 1 1
v 0.1593 0.29408 -0.1425028 1 1 1
v 0.1593 0.054 -0.1425028 1 1 1
v 0.1728 0.054 0.1540077 1 1 1
v 0.1728 0.29408 0.1540077 1 1 1
v 0.1593 0.054 0.1425028 1 1 1
v 0.1593 0.29408 0.1425028 1 1 1
v 0.1728 0.054 0.2190466 1 1 1
v 0.1728 0.29408 0.2190466 1 1 1
v 0.1593 0.29408 0.2305514 1 1 1
v 0.1593 0.054 0.2305514 1 1 1
v 0.1592999 0.054 -0.3186 1 1 1
v 0.1593 0.054 0.3186 1 1 1
v 0.1592999 0.29408 -0.3186 1 1 1
v 0.1593 0.29408 0.3186 1 1 1
v -0.1323002 0.29408 -0.3456 1 1 1
v -0.1323002 0.054 -0.3456 1 1 1
v 0.1322999 0.29408 -0.3456 1 1 1
v 0.1322999 0.054 -0.3456 1 1 1
v -0.1323002 0.054 -0.3726 1 1 1
v -0.1323002 0.29408 -0.3726 1 1 1
v 0.1322999 0.29408 -0.3726 1 1 1
v 0.1322999 0.054 -0.3726 1 1 1
v -0.1593001 0.054 0.3186001 1 1 1
v -0.1593001 0.054 -0.3186 1 1 1
v -0.1593001 0.29408 0.3186001 1 1 1
v -0.1593001 0.29408 -0.3186 1 1 1
v -0.1863002 0.29408 -0.3186 1 1 1
v -0.1863001 0.29408 0.3186001 1 1 1
v -0.1863002 0.054 -0.3186 1 1 1
v -0.1863001 0.054 0.3186001 1 1 1
v -0.1323001 0.054 0.3456001 1 1 1
v -0.1323001 0.29408 0.3456001 1 1 1
v 0.1323 0.054 0.3456001 1 1 1
v 0.1323 0.29408 0.3456001 1 1 1
v 0.1323 0.054 0.3726001 1 1 1
v 0.1323 0.29408 0.3726001 1 1 1
v -0.1323001 0.054 0.3726001 1 1 1
v -0.1323001 0.29408 0.3726001 1 1 1
v 0.1863 0.29408 0.3186 1 1 1
v 0.1863 0.054 0.3186 1 1 1
v 0.1862999 0.29408 -0.3186 1 1 1
v 0.1862999 0.054 -0.3186 1 1 1
v 0.1292512 0.32108 -0.3186 1 1 1
v 0.1307485 0.32108 -0.3186 1 1 1
v -0.1307488 0.32108 -0.3186 1 1 1
v -0.1307487 0.32108 0.3186001 1 1 1
v 0.1307486 0.32108 0.3186001 1 1 1
v -0.1307488 0.34808 -0.3186 1 1 1
v 0.1292512 0.34808 -0.3186 1 1 1
v 0.1307485 0.34808 -0.3186 1 1 1
v -0.1307487 0.34808 0.3186001 1 1 1
v 0.1307486 0.34808 0.3186001 1 1 1
v -0.1663001 6.857304E-10 0.3726001 1 1 1
v -0.1863001 6.857304E-10 0.3526001 1 1 1
v -0.1663001 0.34808 0.3726001 1 1 1
v -0.1863001 0.34808 0.3526001 1 1 1
v 0.1662999 6.857304E-10 -0.3726 1 1 1
v 0.1862999 6.857304E-10 -0.3526 1 1 1
v 0.1662999 0.34808 -0.3726 1 1 1
v 0.1862999 0.34808 -0.3526 1 1 1
v 0.1663 6.857304E-10 0.3726 1 1 1
v 0.1663 0.34808 0.3726 1 1 1
v 0.1863 6.857304E-10 0.3526 1 1 1
v 0.1863 0.34808 0.3526 1 1 1
v -0.1863002 0.34808 -0.3525999 1 1 1
v -0.1863002 6.857304E-10 -0.3525999 1 1 1
v -0.1663002 0.34808 -0.3726 1 1 1
v -0.1663002 6.857304E-10 -0.3726 1 1 1
v -0.1307487 0.32108 -0.1442092 1 1 1
v -0.1307487 0.33458 -0.1557141 1 1 1
v 0.1307485 0.32108 -0.1442092 1 1 1
v 0.1307485 0.33458 -0.1557141 1 1 1
v -0.1307487 0.32108 -0.2322578 1 1 1
v 0.1307485 0.32108 -0.2322578 1 1 1
v -0.1307487 0.33458 -0.220753 1 1 1
v 0.1307485 0.33458 -0.220753 1 1 1
v -0.1307487 0.32108 -0.04573069 1 1 1
v 0.1307485 0.32108 -0.04573069 1 1 1
v -0.1307487 0.33458 -0.03422584 1 1 1
v 0.1307485 0.33458 -0.03422584 1 1 1
v 0.1307485 0.33458 0.03081303 1 1 1
v -0.1307487 0.33458 0.03081303 1 1 1
v -0.1307487 0.32108 0.04231789 1 1 1
v 0.1307485 0.32108 0.04231789 1 1 1
v -0.1307487 0.32108 0.228845 1 1 1
v -0.1307487 0.33458 0.2173402 1 1 1
v 0.1307485 0.32108 0.228845 1 1 1
v 0.1307485 0.33458 0.2173402 1 1 1
v -0.1307487 0.32108 0.1407964 1 1 1
v 0.1307485 0.32108 0.1407964 1 1 1
v -0.1307487 0.33458 0.1523013 1 1 1
v 0.1307485 0.33458 0.1523013 1 1 1
v -0.1291976 0.1300972 -0.3455999 1 1 1
v -0.1291976 0.1185923 -0.3590999 1 1 1
v 0.1322997 0.1300972 -0.3455999 1 1 1
v 0.1322997 0.1185923 -0.3590999 1 1 1
v -0.1291976 0.08204859 -0.3455999 1 1 1
v 0.1322997 0.08204859 -0.3455999 1 1 1
v -0.1291976 0.09355345 -0.3590999 1 1 1
v 0.1322997 0.09355345 -0.3590999 1 1 1
v -0.1291976 0.2660314 -0.3455999 1 1 1
v -0.1291976 0.2545265 -0.3590999 1 1 1
v 0.1322997 0.2660314 -0.3455999 1 1 1
v 0.1322997 0.2545265 -0.3590999 1 1 1
v -0.1291976 0.2179828 -0.3455999 1 1 1
v 0.1322997 0.2179828 -0.3455999 1 1 1
v -0.1291976 0.2294877 -0.3590999 1 1 1
v 0.1322997 0.2294877 -0.3590999 1 1 1
v 0.1291974 0.2660314 0.3456 1 1 1
v 0.1291974 0.2545265 0.3591 1 1 1
v -0.1322999 0.2660314 0.3456 1 1 1
v -0.1322999 0.2545265 0.3591 1 1 1
v 0.1291974 0.2179828 0.3456 1 1 1
v -0.1322999 0.2179828 0.3456 1 1 1
v 0.1291974 0.2294877 0.3591 1 1 1
v -0.1322999 0.2294877 0.3591 1 1 1
v 0.1291974 0.1300972 0.3456 1 1 1
v 0.1291974 0.1185923 0.3591 1 1 1
v -0.1322999 0.1300972 0.3456 1 1 1
v -0.1322999 0.1185923 0.3591 1 1 1
v 0.1291974 0.08204859 0.3456 1 1 1
v -0.1322999 0.08204859 0.3456 1 1 1
v 0.1291974 0.09355345 0.3591 1 1 1
v -0.1322999 0.09355345 0.3591 1 1 1
v -0.05130011 0.054 -0.3996 1 1 1
v -0.05130011 0.29408 -0.3996 1 1 1
v -0.07830011 0.054 -0.3996 1 1 1
v -0.07830011 0.29408 -0.3996 1 1 1
v 0.05129989 0.034 -0.3726 1 1 1
v 0.05129989 0.034 -0.3796 1 1 1
v 0.05129989 0.16054 -0.3726 1 1 1
v 0.05129989 0.054 -0.3996 1 1 1
v 0.05129989 0.29408 -0.3996 1 1 1
v 0.05129989 0.18754 -0.3726 1 1 1
v 0.05129989 0.31408 -0.3726 1 1 1
v 0.05129989 0.31408 -0.3796 1 1 1
v 0.07829989 0.054 -0.3996 1 1 1
v 0.07829989 0.29408 -0.3996 1 1 1
v -0.05130011 0.034 -0.3796 1 1 1
v -0.05130011 0.034 -0.3726 1 1 1
v -0.05130011 0.16054 -0.3726 1 1 1
v -0.05130011 0.18754 -0.3726 1 1 1
v -0.05130011 0.31408 -0.3726 1 1 1
v -0.05130011 0.31408 -0.3796 1 1 1
v 0.07829989 0.034 -0.3796 1 1 1
v 0.07829989 0.034 -0.3726 1 1 1
v 0.07829989 0.16054 -0.3726 1 1 1
v 0.07829989 0.18754 -0.3726 1 1 1
v 0.07829989 0.29408 -0.3726 1 1 1
v 0.07829989 0.31408 -0.3796 1 1 1
v 0.07829989 0.31408 -0.3726 1 1 1
v -0.07830011 0.034 -0.3726 1 1 1
v -0.07830011 0.034 -0.3796 1 1 1
v -0.07830011 0.16054 -0.3726 1 1 1
v -0.07830011 0.18754 -0.3726 1 1 1
v -0.07830011 0.31408 -0.3726 1 1 1
v -0.07830011 0.31408 -0.3796 1 1 1
v 0.05129991 0.054 0.3996 1 1 1
v 0.05129991 0.29408 0.3996 1 1 1
v 0.07829991 0.054 0.3996 1 1 1
v 0.07829991 0.29408 0.3996 1 1 1
v -0.05130009 0.034 0.3726 1 1 1
v -0.05130009 0.034 0.3796 1 1 1
v -0.05130009 0.18754 0.3726 1 1 1
v -0.05130009 0.054 0.3996 1 1 1
v -0.05130009 0.29408 0.3996 1 1 1
v -0.05130009 0.31408 0.3726 1 1 1
v -0.05130009 0.31408 0.3796 1 1 1
v -0.0783001 0.054 0.3996 1 1 1
v -0.0783001 0.29408 0.3996 1 1 1
v 0.05129991 0.034 0.3796 1 1 1
v 0.05129991 0.034 0.3726 1 1 1
v 0.05129991 0.16054 0.3726 1 1 1
v 0.05129991 0.18754 0.3726 1 1 1
v 0.05129991 0.31408 0.3726 1 1 1
v 0.05129991 0.31408 0.3796 1 1 1
v -0.0783001 0.034 0.3796 1 1 1
v -0.0783001 0.034 0.3726 1 1 1
v -0.0783001 0.16054 0.3726 1 1 1
v -0.0783001 0.18754 0.3726 1 1 1
v -0.0783001 0.29408 0.3726 1 1 1
v -0.0783001 0.31408 0.3796 1 1 1
v -0.0783001 0.31408 0.3726 1 1 1
v 0.07829991 0.034 0.3726 1 1 1
v 0.07829991 0.034 0.3796 1 1 1
v 0.07829991 0.18754 0.3726 1 1 1
v 0.07829991 0.31408 0.3726 1 1 1
v 0.07829991 0.31408 0.3796 1 1 1
v -0.03959989 0.18754 -0.4013 1 1 1
v -0.03959989 0.16054 -0.4013 1 1 1
v -0.03959989 0.18754 -0.3591 1 1 1
v -0.03959989 0.16054 -0.3591 1 1 1
v -0.08999988 0.16054 -0.4013 1 1 1
v -0.08999988 0.18754 -0.4013 1 1 1
v -0.08999988 0.16054 -0.3591 1 1 1
v -0.08999988 0.18754 -0.3591 1 1 1
v -0.07999989 0.16054 -0.4113 1 1 1
v -0.04959989 0.16054 -0.4113 1 1 1
v -0.07999989 0.18754 -0.4113 1 1 1
v -0.04959989 0.18754 -0.4113 1 1 1
v 0.08999968 0.18754 -0.4013 1 1 1
v 0.08999968 0.16054 -0.4013 1 1 1
v 0.08999968 0.18754 -0.3591 1 1 1
v 0.08999968 0.16054 -0.3591 1 1 1
v 0.03959969 0.16054 -0.4013 1 1 1
v 0.03959969 0.18754 -0.4013 1 1 1
v 0.03959969 0.16054 -0.3591 1 1 1
v 0.03959969 0.18754 -0.3591 1 1 1
v 0.04959968 0.16054 -0.4113 1 1 1
v 0.07999969 0.16054 -0.4113 1 1 1
v 0.04959968 0.18754 -0.4113 1 1 1
v 0.07999969 0.18754 -0.4113 1 1 1
v -0.0783001 0.16054 -0.3456 1 1 1
v -0.0513001 0.16054 -0.3456 1 1 1
v -0.1323001 0.16054 -0.3456 1 1 1
v 0.0512999 0.16054 -0.3456 1 1 1
v 0.1322999 0.16054 -0.3456 1 1 1
v 0.07829991 0.16054 -0.3456 1 1 1
v -0.1323001 0.16054 -0.3591 1 1 1
v 0.1322999 0.16054 -0.3591 1 1 1
v 0.1322999 0.18754 -0.3591 1 1 1
v -0.1323001 0.18754 -0.3591 1 1 1
v 0.07829991 0.18754 -0.3456 1 1 1
v 0.0512999 0.18754 -0.3456 1 1 1
v 0.1322999 0.18754 -0.3456 1 1 1
v -0.1323001 0.18754 -0.3456 1 1 1
v -0.0783001 0.18754 -0.3456 1 1 1
v -0.0513001 0.18754 -0.3456 1 1 1
v 0.07829991 0.16054 0.3456 1 1 1
v 0.0512999 0.16054 0.3456 1 1 1
v 0.1322999 0.16054 0.3456 1 1 1
v -0.0513001 0.16054 0.3456 1 1 1
v -0.1323001 0.16054 0.3456 1 1 1
v -0.0783001 0.16054 0.3456 1 1 1
v 0.1322999 0.16054 0.3591 1 1 1
v -0.1323001 0.16054 0.3591 1 1 1
v -0.1323001 0.18754 0.3591 1 1 1
v 0.1322999 0.18754 0.3591 1 1 1
v -0.0783001 0.18754 0.3456 1 1 1
v -0.0513001 0.18754 0.3456 1 1 1
v -0.1323001 0.18754 0.3456 1 1 1
v 0.1322999 0.18754 0.3456 1 1 1
v 0.07829991 0.18754 0.3456 1 1 1
v 0.0512999 0.18754 0.3456 1 1 1
v 0.03959969 0.18754 0.4013 1 1 1
v 0.03959969 0.16054 0.4013 1 1 1
v 0.03959969 0.18754 0.3591 1 1 1
v 0.03959969 0.16054 0.3591 1 1 1
v 0.08999968 0.16054 0.4013 1 1 1
v 0.08999968 0.18754 0.4013 1 1 1
v 0.08999968 0.16054 0.3591 1 1 1
v 0.08999968 0.18754 0.3591 1 1 1
v 0.07999969 0.16054 0.4113 1 1 1
v 0.04959968 0.16054 0.4113 1 1 1
v 0.07999969 0.18754 0.4113 1 1 1
v 0.04959968 0.18754 0.4113 1 1 1
v -0.08999988 0.18754 0.4013 1 1 1
v -0.08999988 0.16054 0.4013 1 1 1
v -0.08999988 0.18754 0.3591 1 1 1
v -0.08999988 0.16054 0.3591 1 1 1
v -0.03959989 0.16054 0.4013 1 1 1
v -0.03959989 0.18754 0.4013 1 1 1
v -0.03959989 0.16054 0.3591 1 1 1
v -0.03959989 0.18754 0.3591 1 1 1
v -0.04959989 0.16054 0.4113 1 1 1
v -0.07999989 0.16054 0.4113 1 1 1
v -0.04959989 0.18754 0.4113 1 1 1
v -0.07999989 0.18754 0.4113 1 1 1

vn -0.2451375 0 0.1131708
vn -0.1751288 0 0.2054992
vn -0.2451375 0 -0.1131707
vn -0.1751289 0 -0.2054992
vn 0.2451375 0 -0.1131707
vn 0.1751289 0 -0.2054992
vn 0.2451375 0 0.1131708
vn 0.1751288 0 0.2054992
vn 0.27 0 -3.218651E-08
vn -3.218651E-08 0 -0.27
vn 0.1909188 0.1909188 -2.27593E-08
vn 0.1909188 -0.1909188 -2.27593E-08
vn -0.1909188 -0.1909188 2.27593E-08
vn -0.1909188 0.1909188 2.27593E-08
vn -0.27 0 3.218651E-08
vn 2.27593E-08 -0.1909188 0.1909188
vn -2.27593E-08 -0.1909188 -0.1909188
vn 2.27593E-08 0.1909188 0.1909188
vn -2.27593E-08 0.1909188 -0.1909188
vn 3.218651E-08 0 0.27
vn 0 0.27 0
vn 0.1909189 0 0.1909188
vn -0.1909189 0 0.1909188
vn -0.1909188 0 0.1909189
vn 0.1909188 0 -0.1909189
vn -0.1909189 0 -0.1909188
vn -0.1033245 0 0.2494475
vn -0.2494475 0 0.1033246
vn 0.1033245 0 -0.2494475
vn 0.2494475 0 -0.1033246
vn 0.1033246 0 0.2494475
vn 0.2494475 0 0.1033245
vn -0.2494475 0 -0.1033245
vn -0.1033246 0 -0.2494475
vn 0 -0.27 0
vn 0 0.1751288 0.2054991
vn 0 0.2451375 0.1131707
vn 0 0.1751288 -0.2054991
vn 0 0.2451375 -0.1131707
vn 0 0.2054992 -0.1751289
vn 0 0.1131707 -0.2451375
vn 0 -0.2054992 -0.1751288
vn 0 -0.1131708 -0.2451375
vn 6.081044E-14 0.2054991 0.1751288
vn 8.511974E-14 0.1131707 0.2451374
vn 6.081044E-14 -0.2054991 0.1751288
vn 8.511974E-14 -0.1131707 0.2451375
vn 0.1701709 -0.08021931 -0.1936665
vn 0.1701709 0.08021931 -0.1936665
vn -0.1701709 -0.08021931 -0.1936666
vn -0.1701709 0.08021931 -0.1936666
vn -0.08538153 0 0.2561445
vn -0.27 0 -3.21865E-08
vn -0.1909188 0 0.1909188
vn 0.27 0 3.21865E-08
vn 0.08538147 0 0.2561445
vn 0.1909188 0 0.1909188
vn 1.231724E-08 0.2494474 -0.1033245
vn 0 -0.27 0
vn 1.231724E-08 -0.2494474 -0.1033245
vn 0 0.27 0
vn -0.1701709 -0.08021931 0.1936666
vn -0.1701709 0.08021931 0.1936666
vn 0.1701709 -0.08021931 0.1936665
vn 0.1701709 0.08021931 0.1936665
vn 0.08538147 0 -0.2561445
vn 0.27 0 -3.21865E-08
vn 0.1909188 0 -0.1909188
vn -0.27 0 3.21865E-08
vn -0.08538153 0 -0.2561445
vn -0.1909188 0 -0.1909188
vn 1.231724E-08 0.2494474 0.1033245
vn 1.231724E-08 -0.2494474 0.1033245
vn 0.2494475 0 -0.1033245
vn 0.27 0 0
vn -0.2494475 0 -0.1033245
vn -0.27 0 0
vn -0.1033245 0 -0.2494475
vn 0.1033245 0 -0.2494475
vn 0 -0.27 0
vn 0 0.27 0
vn 2.275929E-08 -0.1909188 -0.1909188
vn 2.275929E-08 0.1909188 -0.1909188
vn 2.275929E-08 -0.1909188 0.1909188
vn 2.275929E-08 0.1909188 0.1909188
vn -0.2494475 0 0.1033245
vn -0.27 0 9.375283E-14
vn 0.2494475 0 0.1033245
vn 0.27 0 -9.375283E-14
vn 0.1033245 0 0.2494475
vn -0.1033245 0 0.2494475
vn -0.08538147 0 -0.2561445
vn -0.1909188 0 -0.1909188
vn 0.08538153 0 -0.2561445
vn 0.1909188 0 -0.1909188
vn 3.21865E-08 0 -0.27
vn 0.08538153 0 0.2561445
vn 0.1909188 0 0.1909188
vn -0.08538147 0 0.2561445
vn -0.1909188 0 0.1909188
vn 3.21865E-08 0 0.27

vt 0.59375 0.525
vt 0.59375 0.725
vt 0.59375 0.5560274
vt 0.59375 0.6939726
vt 0.59375 0.7094863
vt 0.59375 0.645
vt 0.59375 0.725
vt 0.59375 0.645
vt 0.84375 0.2892816
vt 0.84375 0.4607184
vt 0.84375 0.275
vt 0.84375 0.3653599
vt 0.84375 0.3846401
vt 0.84375 0.475
vt 0.84375 0.425
vt 0.84375 0.325
vt 0.84375 0.325
vt 0.84375 0.425
vt 0.96875 0.275
vt 0.96875 0.3653599
vt 0.96875 0.3846401
vt 0.96875 0.475
vt 0.96875 0.4607184

usemtl colormap

f 3/1/2 2/2/1 1/1/1
f 2/2/1 3/1/2 4/2/2
f 7/2/4 6/1/3 5/2/3
f 6/1/3 7/2/4 8/1/4
f 2/2/1 6/1/3 1/1/1
f 6/1/3 2/2/1 5/2/3
f 11/1/6 10/2/5 9/1/5
f 10/2/5 11/1/6 12/2/6
f 15/2/8 14/1/7 13/2/7
f 14/1/7 15/2/8 16/1/8
f 10/2/5 14/1/7 9/1/5
f 14/1/7 10/2/5 13/2/7
f 19/1/2 18/2/1 17/1/1
f 18/2/1 19/1/2 20/2/2
f 18/2/1 21/1/3 17/1/1
f 21/1/3 18/2/1 22/2/3
f 23/2/4 21/1/3 22/2/3
f 21/1/3 23/2/4 24/1/4
f 27/1/2 26/2/1 25/1/1
f 26/2/1 27/1/2 28/2/2
f 31/2/4 30/1/3 29/2/3
f 30/1/3 31/2/4 32/1/4
f 26/2/1 30/1/3 25/1/1
f 30/1/3 26/2/1 29/2/3
f 35/1/6 34/2/5 33/1/5
f 34/2/5 35/1/6 36/2/6
f 39/2/8 38/1/7 37/2/7
f 38/1/7 39/2/8 40/1/8
f 34/2/5 38/1/7 33/1/5
f 38/1/7 34/2/5 37/2/7
f 43/1/6 42/2/5 41/1/5
f 42/2/5 43/1/6 44/2/6
f 42/2/5 45/1/7 41/1/5
f 45/1/7 42/2/5 46/2/7
f 47/2/8 45/1/7 46/2/7
f 45/1/7 47/2/8 48/1/8
f 51/4/9 50/3/9 49/3/9
f 50/3/9 51/4/9 52/4/9
f 55/4/10 54/3/10 53/4/10
f 54/3/10 55/4/10 56/3/10
f 58/4/12 54/3/11 57/3/11
f 54/3/11 58/4/12 53/4/12
f 59/4/13 53/4/12 58/4/12
f 53/4/12 59/4/13 55/4/13
f 55/4/13 60/3/14 56/3/14
f 60/3/14 55/4/13 59/4/13
f 54/3/11 60/3/14 57/3/11
f 60/3/14 54/3/11 56/3/14
f 63/4/15 62/3/15 61/3/15
f 62/3/15 63/4/15 64/4/15
f 64/4/16 66/4/17 65/4/16
f 66/4/17 64/4/16 63/4/17
f 62/3/18 65/4/16 67/3/18
f 65/4/16 62/3/18 64/4/16
f 63/4/17 68/3/19 66/4/17
f 68/3/19 63/4/17 61/3/19
f 68/3/19 62/3/18 67/3/18
f 62/3/18 68/3/19 61/3/19
f 71/3/20 70/4/20 69/3/20
f 70/4/20 71/3/20 72/4/20
f 74/4/13 71/3/14 73/3/14
f 71/3/14 74/4/13 72/4/13
f 70/4/12 75/3/11 69/3/11
f 75/3/11 70/4/12 76/4/12
f 75/3/11 71/3/14 69/3/11
f 71/3/14 75/3/11 73/3/14
f 72/4/13 76/4/12 70/4/12
f 76/4/12 72/4/13 74/4/13
f 77/4/17 50/3/19 52/4/17
f 50/3/19 77/4/17 78/3/19
f 77/4/17 51/4/16 79/4/16
f 51/4/16 77/4/17 52/4/17
f 49/3/18 78/3/19 80/3/18
f 78/3/19 49/3/18 50/3/19
f 80/3/18 51/4/16 49/3/18
f 51/4/16 80/3/18 79/4/16
f 83/5/21 82/5/21 81/5/21
f 82/5/21 83/5/21 84/5/21
f 82/5/21 84/5/21 85/5/21
f 81/5/20 86/2/22 83/5/22
f 86/2/22 81/5/20 87/2/20
f 82/5/23 87/2/20 81/5/20
f 87/2/20 82/5/23 88/2/24
f 86/2/22 84/5/25 83/5/22
f 84/5/25 86/2/22 89/2/25
f 89/2/25 85/5/26 84/5/25
f 85/5/26 89/2/25 90/2/26
f 85/5/26 88/2/24 82/5/23
f 88/2/24 85/5/26 90/2/26
f 93/2/27 92/1/28 91/1/27
f 92/1/28 93/2/27 94/2/28
f 97/2/29 96/1/30 95/1/29
f 96/1/30 97/2/29 98/2/30
f 101/1/32 100/2/31 99/1/31
f 100/2/31 101/1/32 102/2/32
f 105/2/34 104/1/33 103/2/33
f 104/1/33 105/2/34 106/1/34
f 103/2/21 97/2/21 105/2/21
f 97/2/21 103/2/21 98/2/21
f 98/2/21 103/2/21 86/2/21
f 86/2/21 103/2/21 94/2/21
f 98/2/21 86/2/21 87/2/21
f 88/2/21 98/2/21 87/2/21
f 86/2/21 94/2/21 89/2/21
f 98/2/21 88/2/21 102/2/21
f 102/2/21 88/2/21 90/2/21
f 89/2/21 94/2/21 90/2/21
f 90/2/21 94/2/21 102/2/21
f 102/2/21 94/2/21 100/2/21
f 100/2/21 94/2/21 93/2/21
f 95/1/35 104/1/35 106/1/35
f 104/1/35 95/1/35 96/1/35
f 104/1/35 96/1/35 92/1/35
f 92/1/35 96/1/35 101/1/35
f 92/1/35 101/1/35 99/1/35
f 92/1/35 99/1/35 91/1/35
f 68/3/15 94/2/28 66/4/15
f 66/4/15 94/2/28 65/4/15
f 68/3/15 92/1/28 94/2/28
f 103/2/33 65/4/15 94/2/28
f 92/1/28 68/3/15 104/1/33
f 103/2/33 67/3/15 65/4/15
f 104/1/33 67/3/15 103/2/33
f 67/3/15 104/1/33 68/3/15
f 80/3/9 98/2/30 79/4/9
f 79/4/9 98/2/30 77/4/9
f 80/3/9 96/1/30 98/2/30
f 102/2/32 77/4/9 98/2/30
f 96/1/30 80/3/9 101/1/32
f 102/2/32 78/3/9 77/4/9
f 101/1/32 78/3/9 102/2/32
f 78/3/9 101/1/32 80/3/9
f 58/4/10 97/2/29 59/4/10
f 59/4/10 97/2/29 60/3/10
f 58/4/10 105/2/34 97/2/29
f 95/1/29 60/3/10 97/2/29
f 105/2/34 58/4/10 106/1/34
f 95/1/29 57/3/10 60/3/10
f 106/1/34 57/3/10 95/1/29
f 57/3/10 106/1/34 58/4/10
f 75/3/20 99/1/31 73/3/20
f 73/3/20 99/1/31 74/4/20
f 75/3/20 91/1/27 99/1/31
f 100/2/31 74/4/20 99/1/31
f 91/1/27 75/3/20 93/2/27
f 100/2/31 76/4/20 74/4/20
f 93/2/27 76/4/20 100/2/31
f 76/4/20 93/2/27 75/3/20
f 109/8/36 108/7/37 107/6/36
f 108/7/37 109/8/36 110/2/37
f 113/7/39 112/8/38 111/6/38
f 112/8/38 113/7/39 114/2/39
f 113/7/39 110/2/37 114/2/39
f 110/2/37 113/7/39 108/7/37
f 117/7/39 116/8/38 115/6/38
f 116/8/38 117/7/39 118/2/39
f 117/7/39 119/2/37 118/2/39
f 119/2/37 117/7/39 120/7/37
f 122/8/36 120/7/37 121/6/36
f 120/7/37 122/8/36 119/2/37
f 125/8/36 124/7/37 123/6/36
f 124/7/37 125/8/36 126/2/37
f 129/7/39 128/8/38 127/6/38
f 128/8/38 129/7/39 130/2/39
f 129/7/39 126/2/37 130/2/39
f 126/2/37 129/7/39 124/7/37
f 133/8/40 132/7/41 131/6/40
f 132/7/41 133/8/40 134/2/41
f 137/7/43 136/8/42 135/6/42
f 136/8/42 137/7/43 138/2/43
f 137/7/43 134/2/41 138/2/43
f 134/2/41 137/7/43 132/7/41
f 141/8/40 140/7/41 139/6/40
f 140/7/41 141/8/40 142/2/41
f 145/7/43 144/8/42 143/6/42
f 144/8/42 145/7/43 146/2/43
f 145/7/43 142/2/41 146/2/43
f 142/2/41 145/7/43 140/7/41
f 149/8/44 148/7/45 147/6/44
f 148/7/45 149/8/44 150/2/45
f 153/7/47 152/8/46 151/6/46
f 152/8/46 153/7/47 154/2/47
f 153/7/47 150/2/45 154/2/47
f 150/2/45 153/7/47 148/7/45
f 157/8/44 156/7/45 155/6/44
f 156/7/45 157/8/44 158/2/45
f 161/7/47 160/8/46 159/6/46
f 160/8/46 161/7/47 162/2/47
f 161/7/47 158/2/45 162/2/47
f 158/2/45 161/7/47 156/7/45
f 165/9/50 164/10/49 163/9/48
f 164/10/49 165/9/50 166/10/51
f 169/12/54 168/11/53 167/11/52
f 168/11/53 169/12/54 170/9/50
f 170/9/50 169/12/54 171/10/51
f 171/10/51 169/12/54 172/13/54
f 171/10/51 172/13/54 173/14/52
f 171/10/51 173/14/52 174/14/53
f 170/9/50 176/10/49 175/9/48
f 176/10/49 170/9/50 171/10/51
f 163/9/48 178/11/56 177/11/55
f 178/11/56 163/9/48 179/12/57
f 179/12/57 163/9/48 164/10/49
f 179/12/57 164/10/49 180/13/57
f 180/13/57 164/10/49 181/14/56
f 181/14/56 164/10/49 182/14/55
f 175/9/48 184/11/56 183/11/55
f 184/11/56 175/9/48 185/12/57
f 185/12/57 175/9/48 176/10/49
f 185/12/57 176/10/49 186/13/57
f 186/13/57 176/10/49 187/10/57
f 187/10/57 176/10/49 188/14/55
f 187/10/57 188/14/55 189/14/55
f 192/12/54 191/11/53 190/11/52
f 191/11/53 192/12/54 165/9/50
f 165/9/50 192/12/54 166/10/51
f 166/10/51 192/12/54 193/13/54
f 166/10/51 193/13/54 194/14/52
f 166/10/51 194/14/52 195/14/53
f 182/14/58 166/10/51 195/14/58
f 166/10/51 182/14/58 164/10/49
f 171/10/51 188/14/58 176/10/49
f 188/14/58 171/10/51 174/14/58
f 190/11/59 177/11/60 178/11/59
f 177/11/60 190/11/59 191/11/60
f 165/9/50 177/11/60 191/11/60
f 177/11/60 165/9/50 163/9/48
f 168/11/60 175/9/48 183/11/60
f 175/9/48 168/11/60 170/9/50
f 167/11/59 183/11/60 184/11/59
f 183/11/60 167/11/59 168/11/60
f 182/14/58 194/14/61 181/14/61
f 194/14/61 182/14/58 195/14/58
f 188/14/58 173/14/61 189/14/61
f 173/14/61 188/14/58 174/14/58
f 198/9/64 197/10/63 196/9/62
f 197/10/63 198/9/64 199/10/65
f 202/13/68 201/11/67 200/11/66
f 201/11/67 202/13/68 203/9/64
f 203/9/64 202/13/68 204/10/65
f 204/10/65 202/13/68 205/14/66
f 204/10/65 205/14/66 206/14/67
f 203/9/64 208/10/63 207/9/62
f 208/10/63 203/9/64 204/10/65
f 196/9/62 210/11/70 209/11/69
f 210/11/70 196/9/62 211/12/71
f 211/12/71 196/9/62 197/10/63
f 211/12/71 197/10/63 212/13/71
f 212/13/71 197/10/63 213/14/70
f 213/14/70 197/10/63 214/14/69
f 207/9/62 216/11/70 215/11/69
f 216/11/70 207/9/62 217/12/71
f 217/12/71 207/9/62 208/10/63
f 217/12/71 208/10/63 218/13/71
f 218/13/71 208/10/63 219/10/71
f 219/10/71 208/10/63 220/14/69
f 219/10/71 220/14/69 221/14/69
f 224/13/68 223/11/67 222/11/66
f 223/11/67 224/13/68 198/9/64
f 198/9/64 224/13/68 199/10/65
f 199/10/65 224/13/68 225/14/66
f 199/10/65 225/14/66 226/14/67
f 214/14/72 199/10/65 226/14/72
f 199/10/65 214/14/72 197/10/63
f 204/10/65 220/14/72 208/10/63
f 220/14/72 204/10/65 206/14/72
f 222/11/59 209/11/73 210/11/59
f 209/11/73 222/11/59 223/11/73
f 198/9/64 209/11/73 223/11/73
f 209/11/73 198/9/64 196/9/62
f 201/11/73 207/9/62 215/11/73
f 207/9/62 201/11/73 203/9/64
f 200/11/59 215/11/73 216/11/59
f 215/11/73 200/11/59 201/11/73
f 214/14/72 225/14/61 213/14/61
f 225/14/61 214/14/72 226/14/72
f 220/14/72 205/14/61 221/14/61
f 205/14/61 220/14/72 206/14/72
f 229/15/75 228/16/74 227/15/74
f 228/16/74 229/15/75 230/16/75
f 233/16/77 232/15/76 231/16/76
f 232/15/76 233/16/77 234/15/77
f 237/15/78 236/16/79 235/16/78
f 236/16/79 237/15/78 238/15/79
f 231/16/76 237/15/78 235/16/78
f 237/15/78 231/16/76 232/15/76
f 227/15/74 236/16/79 238/15/79
f 236/16/79 227/15/74 228/16/74
f 233/16/80 228/16/80 230/16/80
f 228/16/80 233/16/80 236/16/80
f 236/16/80 233/16/80 235/16/80
f 235/16/80 233/16/80 231/16/80
f 238/15/81 229/15/81 227/15/81
f 229/15/81 238/15/81 234/15/81
f 234/15/81 238/15/81 237/15/81
f 234/15/81 237/15/81 232/15/81
f 241/15/75 240/16/74 239/15/74
f 240/16/74 241/15/75 242/16/75
f 245/16/77 244/15/76 243/16/76
f 244/15/76 245/16/77 246/15/77
f 249/15/78 248/16/79 247/16/78
f 248/16/79 249/15/78 250/15/79
f 243/16/76 249/15/78 247/16/78
f 249/15/78 243/16/76 244/15/76
f 239/15/74 248/16/79 250/15/79
f 248/16/79 239/15/74 240/16/74
f 245/16/80 240/16/80 242/16/80
f 240/16/80 245/16/80 248/16/80
f 248/16/80 245/16/80 247/16/80
f 247/16/80 245/16/80 243/16/80
f 250/15/81 241/15/81 239/15/81
f 241/15/81 250/15/81 246/15/81
f 246/15/81 250/15/81 249/15/81
f 246/15/81 249/15/81 244/15/81
f 253/17/59 252/17/59 251/17/59
f 252/17/59 253/17/59 254/17/59
f 255/16/59 254/17/59 253/17/59
f 254/17/59 255/16/59 256/16/59
f 255/16/59 253/17/59 257/17/82
f 255/16/59 257/17/82 258/16/82
f 258/16/82 260/15/83 259/18/83
f 260/15/83 258/16/82 257/17/82
f 263/18/61 262/18/61 261/18/61
f 264/15/61 262/18/61 263/18/61
f 264/15/61 263/18/61 259/18/83
f 264/15/61 259/18/83 260/15/83
f 265/18/61 262/18/61 264/15/61
f 262/18/61 265/18/61 266/18/61
f 269/17/59 268/17/59 267/17/59
f 268/17/59 269/17/59 270/17/59
f 271/16/59 270/17/59 269/17/59
f 270/17/59 271/16/59 272/16/59
f 271/16/59 269/17/59 273/17/84
f 271/16/59 273/17/84 274/16/84
f 274/16/84 276/15/85 275/18/85
f 276/15/85 274/16/84 273/17/84
f 279/18/61 278/18/61 277/18/61
f 280/15/61 278/18/61 279/18/61
f 280/15/61 279/18/61 275/18/85
f 280/15/61 275/18/85 276/15/85
f 281/18/61 278/18/61 280/15/61
f 278/18/61 281/18/61 282/18/61
f 285/15/87 284/16/86 283/15/86
f 284/16/86 285/15/87 286/16/87
f 289/16/89 288/15/88 287/16/88
f 288/15/88 289/16/89 290/15/89
f 293/15/90 292/16/91 291/16/90
f 292/16/91 293/15/90 294/15/91
f 287/16/88 293/15/90 291/16/90
f 293/15/90 287/16/88 288/15/88
f 283/15/86 292/16/91 294/15/91
f 292/16/91 283/15/86 284/16/86
f 289/16/80 284/16/80 286/16/80
f 284/16/80 289/16/80 292/16/80
f 292/16/80 289/16/80 291/16/80
f 291/16/80 289/16/80 287/16/80
f 294/15/81 285/15/81 283/15/81
f 285/15/81 294/15/81 290/15/81
f 290/15/81 294/15/81 293/15/81
f 290/15/81 293/15/81 288/15/81
f 297/15/87 296/16/86 295/15/86
f 296/16/86 297/15/87 298/16/87
f 301/16/89 300/15/88 299/16/88
f 300/15/88 301/16/89 302/15/89
f 305/15/90 304/16/91 303/16/90
f 304/16/91 305/15/90 306/15/91
f 299/16/88 305/15/90 303/16/90
f 305/15/90 299/16/88 300/15/88
f 295/15/86 304/16/91 306/15/91
f 304/16/91 295/15/86 296/16/86
f 301/16/80 296/16/80 298/16/80
f 296/16/80 301/16/80 304/16/80
f 304/16/80 301/16/80 303/16/80
f 303/16/80 301/16/80 299/16/80
f 306/15/81 297/15/81 295/15/81
f 297/15/81 306/15/81 302/15/81
f 302/15/81 306/15/81 305/15/81
f 302/15/81 305/15/81 300/15/81
f 190/19/94 179/20/93 178/19/92
f 179/20/93 190/19/94 180/21/93
f 180/21/93 190/19/94 181/22/92
f 181/22/92 190/19/94 194/22/94
f 194/22/94 190/19/94 192/20/95
f 194/22/94 192/20/95 193/21/95
f 167/19/94 185/20/93 184/19/92
f 185/20/93 167/19/94 186/21/93
f 186/21/93 167/19/94 187/23/93
f 187/23/93 167/19/94 189/22/96
f 189/22/96 167/19/94 173/22/94
f 173/22/94 167/19/94 169/20/95
f 173/22/94 169/20/95 172/21/95
f 222/19/99 211/20/98 210/19/97
f 211/20/98 222/19/99 212/21/98
f 212/21/98 222/19/99 213/22/97
f 213/22/97 222/19/99 225/22/99
f 225/22/99 222/19/99 224/21/100
f 200/19/99 217/20/98 216/19/97
f 217/20/98 200/19/99 218/21/98
f 218/21/98 200/19/99 219/23/98
f 219/23/98 200/19/99 221/22/101
f 221/22/101 200/19/99 205/22/99
f 205/22/99 200/19/99 202/21/100

g shipping-container-c




usemtl colormap

f 3/1/2 2/2/1 1/1/1
f 2/2/1 3/1/2 4/2/2
f 7/2/4 6/1/3 5/2/3
f 6/1/3 7/2/4 8/1/4
f 2/2/1 6/1/3 1/1/1
f 6/1/3 2/2/1 5/2/3
f 11/1/6 10/2/5 9/1/5
f 10/2/5 11/1/6 12/2/6
f 15/2/8 14/1/7 13/2/7
f 14/1/7 15/2/8 16/1/8
f 10/2/5 14/1/7 9/1/5
f 14/1/7 10/2/5 13/2/7
f 19/1/2 18/2/1 17/1/1
f 18/2/1 19/1/2 20/2/2
f 18/2/1 21/1/3 17/1/1
f 21/1/3 18/2/1 22/2/3
f 23/2/4 21/1/3 22/2/3
f 21/1/3 23/2/4 24/1/4
f 27/1/2 26/2/1 25/1/1
f 26/2/1 27/1/2 28/2/2
f 31/2/4 30/1/3 29/2/3
f 30/1/3 31/2/4 32/1/4
f 26/2/1 30/1/3 25/1/1
f 30/1/3 26/2/1 29/2/3
f 35/1/6 34/2/5 33/1/5
f 34/2/5 35/1/6 36/2/6
f 39/2/8 38/1/7 37/2/7
f 38/1/7 39/2/8 40/1/8
f 34/2/5 38/1/7 33/1/5
f 38/1/7 34/2/5 37/2/7
f 43/1/6 42/2/5 41/1/5
f 42/2/5 43/1/6 44/2/6
f 42/2/5 45/1/7 41/1/5
f 45/1/7 42/2/5 46/2/7
f 47/2/8 45/1/7 46/2/7
f 45/1/7 47/2/8 48/1/8
f 51/4/9 50/3/9 49/3/9
f 50/3/9 51/4/9 52/4/9
f 55/4/10 54/3/10 53/4/10
f 54/3/10 55/4/10 56/3/10
f 58/4/12 54/3/11 57/3/11
f 54/3/11 58/4/12 53/4/12
f 59/4/13 53/4/12 58/4/12
f 53/4/12 59/4/13 55/4/13
f 55/4/13 60/3/14 56/3/14
f 60/3/14 55/4/13 59/4/13
f 54/3/11 60/3/14 57/3/11
f 60/3/14 54/3/11 56/3/14
f 63/4/15 62/3/15 61/3/15
f 62/3/15 63/4/15 64/4/15
f 64/4/16 66/4/17 65/4/16
f 66/4/17 64/4/16 63/4/17
f 62/3/18 65/4/16 67/3/18
f 65/4/16 62/3/18 64/4/16
f 63/4/17 68/3/19 66/4/17
f 68/3/19 63/4/17 61/3/19
f 68/3/19 62/3/18 67/3/18
f 62/3/18 68/3/19 61/3/19
f 71/3/20 70/4/20 69/3/20
f 70/4/20 71/3/20 72/4/20
f 74/4/13 71/3/14 73/3/14
f 71/3/14 74/4/13 72/4/13
f 70/4/12 75/3/11 69/3/11
f 75/3/11 70/4/12 76/4/12
f 75/3/11 71/3/14 69/3/11
f 71/3/14 75/3/11 73/3/14
f 72/4/13 76/4/12 70/4/12
f 76/4/12 72/4/13 74/4/13
f 77/4/17 50/3/19 52/4/17
f 50/3/19 77/4/17 78/3/19
f 77/4/17 51/4/16 79/4/16
f 51/4/16 77/4/17 52/4/17
f 49/3/18 78/3/19 80/3/18
f 78/3/19 49/3/18 50/3/19
f 80/3/18 51/4/16 49/3/18
f 51/4/16 80/3/18 79/4/16
f 83/5/21 82/5/21 81/5/21
f 82/5/21 83/5/21 84/5/21
f 82/5/21 84/5/21 85/5/21
f 81/5/20 86/2/22 83/5/22
f 86/2/22 81/5/20 87/2/20
f 82/5/23 87/2/20 81/5/20
f 87/2/20 82/5/23 88/2/24
f 86/2/22 84/5/25 83/5/22
f 84/5/25 86/2/22 89/2/25
f 89/2/25 85/5/26 84/5/25
f 85/5/26 89/2/25 90/2/26
f 85/5/26 88/2/24 82/5/23
f 88/2/24 85/5/26 90/2/26
f 93/2/27 92/1/28 91/1/27
f 92/1/28 93/2/27 94/2/28
f 97/2/29 96/1/30 95/1/29
f 96/1/30 97/2/29 98/2/30
f 101/1/32 100/2/31 99/1/31
f 100/2/31 101/1/32 102/2/32
f 105/2/34 104/1/33 103/2/33
f 104/1/33 105/2/34 106/1/34
f 103/2/21 97/2/21 105/2/21
f 97/2/21 103/2/21 98/2/21
f 98/2/21 103/2/21 86/2/21
f 86/2/21 103/2/21 94/2/21
f 98/2/21 86/2/21 87/2/21
f 88/2/21 98/2/21 87/2/21
f 86/2/21 94/2/21 89/2/21
f 98/2/21 88/2/21 102/2/21
f 102/2/21 88/2/21 90/2/21
f 89/2/21 94/2/21 90/2/21
f 90/2/21 94/2/21 102/2/21
f 102/2/21 94/2/21 100/2/21
f 100/2/21 94/2/21 93/2/21
f 95/1/35 104/1/35 106/1/35
f 104/1/35 95/1/35 96/1/35
f 104/1/35 96/1/35 92/1/35
f 92/1/35 96/1/35 101/1/35
f 92/1/35 101/1/35 99/1/35
f 92/1/35 99/1/35 91/1/35
f 68/3/15 94/2/28 66/4/15
f 66/4/15 94/2/28 65/4/15
f 68/3/15 92/1/28 94/2/28
f 103/2/33 65/4/15 94/2/28
f 92/1/28 68/3/15 104/1/33
f 103/2/33 67/3/15 65/4/15
f 104/1/33 67/3/15 103/2/33
f 67/3/15 104/1/33 68/3/15
f 80/3/9 98/2/30 79/4/9
f 79/4/9 98/2/30 77/4/9
f 80/3/9 96/1/30 98/2/30
f 102/2/32 77/4/9 98/2/30
f 96/1/30 80/3/9 101/1/32
f 102/2/32 78/3/9 77/4/9
f 101/1/32 78/3/9 102/2/32
f 78/3/9 101/1/32 80/3/9
f 58/4/10 97/2/29 59/4/10
f 59/4/10 97/2/29 60/3/10
f 58/4/10 105/2/34 97/2/29
f 95/1/29 60/3/10 97/2/29
f 105/2/34 58/4/10 106/1/34
f 95/1/29 57/3/10 60/3/10
f 106/1/34 57/3/10 95/1/29
f 57/3/10 106/1/34 58/4/10
f 75/3/20 99/1/31 73/3/20
f 73/3/20 99/1/31 74/4/20
f 75/3/20 91/1/27 99/1/31
f 100/2/31 74/4/20 99/1/31
f 91/1/27 75/3/20 93/2/27
f 100/2/31 76/4/20 74/4/20
f 93/2/27 76/4/20 100/2/31
f 76/4/20 93/2/27 75/3/20
f 109/8/36 108/7/37 107/6/36
f 108/7/37 109/8/36 110/2/37
f 113/7/39 112/8/38 111/6/38
f 112/8/38 113/7/39 114/2/39
f 113/7/39 110/2/37 114/2/39
f 110/2/37 113/7/39 108/7/37
f 117/7/39 116/8/38 115/6/38
f 116/8/38 117/7/39 118/2/39
f 117/7/39 119/2/37 118/2/39
f 119/2/37 117/7/39 120/7/37
f 122/8/36 120/7/37 121/6/36
f 120/7/37 122/8/36 119/2/37
f 125/8/36 124/7/37 123/6/36
f 124/7/37 125/8/36 126/2/37
f 129/7/39 128/8/38 127/6/38
f 128/8/38 129/7/39 130/2/39
f 129/7/39 126/2/37 130/2/39
f 126/2/37 129/7/39 124/7/37
f 133/8/40 132/7/41 131/6/40
f 132/7/41 133/8/40 134/2/41
f 137/7/43 136/8/42 135/6/42
f 136/8/42 137/7/43 138/2/43
f 137/7/43 134/2/41 138/2/43
f 134/2/41 137/7/43 132/7/41
f 141/8/40 140/7/41 139/6/40
f 140/7/41 141/8/40 142/2/41
f 145/7/43 144/8/42 143/6/42
f 144/8/42 145/7/43 146/2/43
f 145/7/43 142/2/41 146/2/43
f 142/2/41 145/7/43 140/7/41
f 149/8/44 148/7/45 147/6/44
f 148/7/45 149/8/44 150/2/45
f 153/7/47 152/8/46 151/6/46
f 152/8/46 153/7/47 154/2/47
f 153/7/47 150/2/45 154/2/47
f 150/2/45 153/7/47 148/7/45
f 157/8/44 156/7/45 155/6/44
f 156/7/45 157/8/44 158/2/45
f 161/7/47 160/8/46 159/6/46
f 160/8/46 161/7/47 162/2/47
f 161/7/47 158/2/45 162/2/47
f 158/2/45 161/7/47 156/7/45
f 165/9/50 164/10/49 163/9/48
f 164/10/49 165/9/50 166/10/51
f 169/12/54 168/11/53 167/11/52
f 168/11/53 169/12/54 170/9/50
f 170/9/50 169/12/54 171/10/51
f 171/10/51 169/12/54 172/13/54
f 171/10/51 172/13/54 173/14/52
f 171/10/51 173/14/52 174/14/53
f 170/9/50 176/10/49 175/9/48
f 176/10/49 170/9/50 171/10/51
f 163/9/48 178/11/56 177/11/55
f 178/11/56 163/9/48 179/12/57
f 179/12/57 163/9/48 164/10/49
f 179/12/57 164/10/49 180/13/57
f 180/13/57 164/10/49 181/14/56
f 181/14/56 164/10/49 182/14/55
f 175/9/48 184/11/56 183/11/55
f 184/11/56 175/9/48 185/12/57
f 185/12/57 175/9/48 176/10/49
f 185/12/57 176/10/49 186/13/57
f 186/13/57 176/10/49 187/10/57
f 187/10/57 176/10/49 188/14/55
f 187/10/57 188/14/55 189/14/55
f 192/12/54 191/11/53 190/11/52
f 191/11/53 192/12/54 165/9/50
f 165/9/50 192/12/54 166/10/51
f 166/10/51 192/12/54 193/13/54
f 166/10/51 193/13/54 194/14/52
f 166/10/51 194/14/52 195/14/53
f 182/14/58 166/10/51 195/14/58
f 166/10/51 182/14/58 164/10/49
f 171/10/51 188/14/58 176/10/49
f 188/14/58 171/10/51 174/14/58
f 190/11/59 177/11/60 178/11/59
f 177/11/60 190/11/59 191/11/60
f 165/9/50 177/11/60 191/11/60
f 177/11/60 165/9/50 163/9/48
f 168/11/60 175/9/48 183/11/60
f 175/9/48 168/11/60 170/9/50
f 167/11/59 183/11/60 184/11/59
f 183/11/60 167/11/59 168/11/60
f 182/14/58 194/14/61 181/14/61
f 194/14/61 182/14/58 195/14/58
f 188/14/58 173/14/61 189/14/61
f 173/14/61 188/14/58 174/14/58
f 198/9/64 197/10/63 196/9/62
f 197/10/63 198/9/64 199/10/65
f 202/13/68 201/11/67 200/11/66
f 201/11/67 202/13/68 203/9/64
f 203/9/64 202/13/68 204/10/65
f 204/10/65 202/13/68 205/14/66
f 204/10/65 205/14/66 206/14/67
f 203/9/64 208/10/63 207/9/62
f 208/10/63 203/9/64 204/10/65
f 196/9/62 210/11/70 209/11/69
f 210/11/70 196/9/62 211/12/71
f 211/12/71 196/9/62 197/10/63
f 211/12/71 197/10/63 212/13/71
f 212/13/71 197/10/63 213/14/70
f 213/14/70 197/10/63 214/14/69
f 207/9/62 216/11/70 215/11/69
f 216/11/70 207/9/62 217/12/71
f 217/12/71 207/9/62 208/10/63
f 217/12/71 208/10/63 218/13/71
f 218/13/71 208/10/63 219/10/71
f 219/10/71 208/10/63 220/14/69
f 219/10/71 220/14/69 221/14/69
f 224/13/68 223/11/67 222/11/66
f 223/11/67 224/13/68 198/9/64
f 198/9/64 224/13/68 199/10/65
f 199/10/65 224/13/68 225/14/66
f 199/10/65 225/14/66 226/14/67
f 214/14/72 199/10/65 226/14/72
f 199/10/65 214/14/72 197/10/63
f 204/10/65 220/14/72 208/10/63
f 220/14/72 204/10/65 206/14/72
f 222/11/59 209/11/73 210/11/59
f 209/11/73 222/11/59 223/11/73
f 198/9/64 209/11/73 223/11/73
f 209/11/73 198/9/64 196/9/62
f 201/11/73 207/9/62 215/11/73
f 207/9/62 201/11/73 203/9/64
f 200/11/59 215/11/73 216/11/59
f 215/11/73 200/11/59 201/11/73
f 214/14/72 225/14/61 213/14/61
f 225/14/61 214/14/72 226/14/72
f 220/14/72 205/14/61 221/14/61
f 205/14/61 220/14/72 206/14/72
f 229/15/75 228/16/74 227/15/74
f 228/16/74 229/15/75 230/16/75
f 233/16/77 232/15/76 231/16/76
f 232/15/76 233/16/77 234/15/77
f 237/15/78 236/16/79 235/16/78
f 236/16/79 237/15/78 238/15/79
f 231/16/76 237/15/78 235/16/78
f 237/15/78 231/16/76 232/15/76
f 227/15/74 236/16/79 238/15/79
f 236/16/79 227/15/74 228/16/74
f 233/16/80 228/16/80 230/16/80
f 228/16/80 233/16/80 236/16/80
f 236/16/80 233/16/80 235/16/80
f 235/16/80 233/16/80 231/16/80
f 238/15/81 229/15/81 227/15/81
f 229/15/81 238/15/81 234/15/81
f 234/15/81 238/15/81 237/15/81
f 234/15/81 237/15/81 232/15/81
f 241/15/75 240/16/74 239/15/74
f 240/16/74 241/15/75 242/16/75
f 245/16/77 244/15/76 243/16/76
f 244/15/76 245/16/77 246/15/77
f 249/15/78 248/16/79 247/16/78
f 248/16/79 249/15/78 250/15/79
f 243/16/76 249/15/78 247/16/78
f 249/15/78 243/16/76 244/15/76
f 239/15/74 248/16/79 250/15/79
f 248/16/79 239/15/74 240/16/74
f 245/16/80 240/16/80 242/16/80
f 240/16/80 245/16/80 248/16/80
f 248/16/80 245/16/80 247/16/80
f 247/16/80 245/16/80 243/16/80
f 250/15/81 241/15/81 239/15/81
f 241/15/81 250/15/81 246/15/81
f 246/15/81 250/15/81 249/15/81
f 246/15/81 249/15/81 244/15/81
f 253/17/59 252/17/59 251/17/59
f 252/17/59 253/17/59 254/17/59
f 255/16/59 254/17/59 253/17/59
f 254/17/59 255/16/59 256/16/59
f 255/16/59 253/17/59 257/17/82
f 255/16/59 257/17/82 258/16/82
f 258/16/82 260/15/83 259/18/83
f 260/15/83 258/16/82 257/17/82
f 263/18/61 262/18/61 261/18/61
f 264/15/61 262/18/61 263/18/61
f 264/15/61 263/18/61 259/18/83
f 264/15/61 259/18/83 260/15/83
f 265/18/61 262/18/61 264/15/61
f 262/18/61 265/18/61 266/18/61
f 269/17/59 268/17/59 267/17/59
f 268/17/59 269/17/59 270/17/59
f 271/16/59 270/17/59 269/17/59
f 270/17/59 271/16/59 272/16/59
f 271/16/59 269/17/59 273/17/84
f 271/16/59 273/17/84 274/16/84
f 274/16/84 276/15/85 275/18/85
f 276/15/85 274/16/84 273/17/84
f 279/18/61 278/18/61 277/18/61
f 280/15/61 278/18/61 279/18/61
f 280/15/61 279/18/61 275/18/85
f 280/15/61 275/18/85 276/15/85
f 281/18/61 278/18/61 280/15/61
f 278/18/61 281/18/61 282/18/61
f 285/15/87 284/16/86 283/15/86
f 284/16/86 285/15/87 286/16/87
f 289/16/89 288/15/88 287/16/88
f 288/15/88 289/16/89 290/15/89
f 293/15/90 292/16/91 291/16/90
f 292/16/91 293/15/90 294/15/91
f 287/16/88 293/15/90 291/16/90
f 293/15/90 287/16/88 288/15/88
f 283/15/86 292/16/91 294/15/91
f 292/16/91 283/15/86 284/16/86
f 289/16/80 284/16/80 286/16/80
f 284/16/80 289/16/80 292/16/80
f 292/16/80 289/16/80 291/16/80
f 291/16/80 289/16/80 287/16/80
f 294/15/81 285/15/81 283/15/81
f 285/15/81 294/15/81 290/15/81
f 290/15/81 294/15/81 293/15/81
f 290/15/81 293/15/81 288/15/81
f 297/15/87 296/16/86 295/15/86
f 296/16/86 297/15/87 298/16/87
f 301/16/89 300/15/88 299/16/88
f 300/15/88 301/16/89 302/15/89
f 305/15/90 304/16/91 303/16/90
f 304/16/91 305/15/90 306/15/91
f 299/16/88 305/15/90 303/16/90
f 305/15/90 299/16/88 300/15/88
f 295/15/86 304/16/91 306/15/91
f 304/16/91 295/15/86 296/16/86
f 301/16/80 296/16/80 298/16/80
f 296/16/80 301/16/80 304/16/80
f 304/16/80 301/16/80 303/16/80
f 303/16/80 301/16/80 299/16/80
f 306/15/81 297/15/81 295/15/81
f 297/15/81 306/15/81 302/15/81
f 302/15/81 306/15/81 305/15/81
f 302/15/81 305/15/81 300/15/81
f 190/19/94 179/20/93 178/19/92
f 179/20/93 190/19/94 180/21/93
f 180/21/93 190/19/94 181/22/92
f 181/22/92 190/19/94 194/22/94
f 194/22/94 190/19/94 192/20/95
f 194/22/94 192/20/95 193/21/95
f 167/19/94 185/20/93 184/19/92
f 185/20/93 167/19/94 186/21/93
f 186/21/93 167/19/94 187/23/93
f 187/23/93 167/19/94 189/22/96
f 189/22/96 167/19/94 173/22/94
f 173/22/94 167/19/94 169/20/95
f 173/22/94 169/20/95 172/21/95
f 222/19/99 211/20/98 210/19/97
f 211/20/98 222/19/99 212/21/98
f 212/21/98 222/19/99 213/22/97
f 213/22/97 222/19/99 225/22/99
f 225/22/99 222/19/99 224/21/100
f 200/19/99 217/20/98 216/19/97
f 217/20/98 200/19/99 218/21/98
f 218/21/98 200/19/99 219/23/98
f 219/23/98 200/19/99 221/22/101
f 221/22/101 200/19/99 205/22/99
f 205/22/99 200/19/99 202/21/100

