# Created by Kenney (www.kenney.nl)

mtllib solar-panel-portrait.mtl

g solar-panel-portrait

v -0.1353002 2.996313E-16 0.2107637 1 1 1
v -0.1353002 2.996313E-16 -0.2935364 1 1 1
v -0.1845002 2.996313E-16 0.2107637 1 1 1
v -0.1845002 2.996313E-16 -0.2935364 1 1 1
v -0.1353002 0.0492 -0.2935364 1 1 1
v -0.1353002 0.0492 0.2107637 1 1 1
v -0.1845002 0.0492 -0.2935364 1 1 1
v -0.1845002 0.0492 0.2107637 1 1 1
v 0.1845002 2.996313E-16 0.2107637 1 1 1
v 0.1845002 2.996313E-16 -0.2935364 1 1 1
v 0.1353002 2.996313E-16 0.2107637 1 1 1
v 0.1353002 2.996313E-16 -0.2935364 1 1 1
v 0.1845002 0.0492 -0.2935364 1 1 1
v 0.1845002 0.0492 0.2107637 1 1 1
v 0.1353002 0.0492 -0.2935364 1 1 1
v 0.1353002 0.0492 0.2107637 1 1 1
v 0.1353002 0.2343465 0.1123638 1 1 1
v 0.1353002 0.2627521 0.1615638 1 1 1
v 0.1353002 0.0492 0.1123638 1 1 1
v 0.1353002 0.0492 0.1615638 1 1 1
v 0.1845002 0.0492 0.1615638 1 1 1
v 0.1845002 0.0492 0.1123638 1 1 1
v 0.1845002 0.2343465 0.1123638 1 1 1
v 0.1845002 0.2627521 0.1615638 1 1 1
v -0.1845002 0.2343465 0.1123638 1 1 1
v -0.1845002 0.2627521 0.1615638 1 1 1
v -0.1845002 0.0492 0.1123638 1 1 1
v -0.1845002 0.0492 0.1615638 1 1 1
v -0.1353002 0.0492 0.1615638 1 1 1
v -0.1353002 0.0492 0.1123638 1 1 1
v -0.1353002 0.2343465 0.1123638 1 1 1
v -0.1353002 0.2627521 0.1615638 1 1 1
v 0.1845 0.3567 0.324286 1 1 1
v 0.1845 0.4099606 0.293536 1 1 1
v 0.2091 0.3444 0.3029818 1 1 1
v 0.2091 0.3976606 0.2722318 1 1 1
v 0.1845 -1.490116E-08 -0.2935365 1 1 1
v 0.2091 0.0123 -0.2722323 1 1 1
v 0.1845 0.05326055 -0.3242865 1 1 1
v 0.2091 0.06556056 -0.3029823 1 1 1
v -0.1845 0.3567 0.324286 1 1 1
v -0.2091 0.3444 0.3029818 1 1 1
v -0.1845 0.4099606 0.293536 1 1 1
v -0.2091 0.3976606 0.2722318 1 1 1
v -0.1845 -1.490116E-08 -0.2935365 1 1 1
v -0.1845 0.05326055 -0.3242865 1 1 1
v -0.2091 0.0123 -0.2722323 1 1 1
v -0.2091 0.06556056 -0.3029823 1 1 1
v 0.17835 0.06863554 -0.2976562 1 1 1
v 0.17835 0.3945856 0.2669058 1 1 1
v -0.17835 0.06863554 -0.2976562 1 1 1
v -0.17835 0.3945856 0.2669058 1 1 1
v 0.2009822 2.776334E-16 0.1738638 1 1 1
v 0.2009822 3.283437E-16 0.1000638 1 1 1
v 0.1188182 2.776334E-16 0.1738638 1 1 1
v 0.1188182 3.283437E-16 0.1000638 1 1 1
v 0.1188182 0.053382 0.1000638 1 1 1
v 0.1188182 0.053382 0.1738638 1 1 1
v 0.1886822 0.065682 0.1000638 1 1 1
v 0.1886822 0.065682 0.1738638 1 1 1
v 0.1311182 0.065682 0.1000638 1 1 1
v 0.1311182 0.065682 0.1738638 1 1 1
v 0.2009822 0.053382 0.1000638 1 1 1
v 0.2009822 0.053382 0.1738638 1 1 1
v -0.1188182 2.776334E-16 0.1738638 1 1 1
v -0.1188182 3.283437E-16 0.1000638 1 1 1
v -0.2009822 2.776334E-16 0.1738638 1 1 1
v -0.2009822 3.283437E-16 0.1000638 1 1 1
v -0.2009822 0.053382 0.1000638 1 1 1
v -0.2009822 0.053382 0.1738638 1 1 1
v -0.1311182 0.065682 0.1000638 1 1 1
v -0.1311182 0.065682 0.1738638 1 1 1
v -0.1886822 0.065682 0.1000638 1 1 1
v -0.1886822 0.065682 0.1738638 1 1 1
v -0.1188182 0.053382 0.1000638 1 1 1
v -0.1188182 0.053382 0.1738638 1 1 1
v 0.16605 0.05348133 -0.2747041 1 1 1
v -0.16605 0.05348133 -0.2747041 1 1 1
v -0.16605 0.3671314 0.2685536 1 1 1
v 0.16605 0.3671314 0.2685536 1 1 1
v -0.02459998 0.2732334 0.0813178 1 1 1
v 0.02460001 0.2732334 0.0813178 1 1 1
v -0.04304998 0.2824584 0.09729598 1 1 1
v 0.04305001 0.2824584 0.09729598 1 1 1
v -0.04304998 0.3070584 0.1399045 1 1 1
v 0.04305001 0.3070584 0.1399045 1 1 1
v -0.02459998 0.3162834 0.1558827 1 1 1
v 0.02460001 0.3162834 0.1558827 1 1 1
v -0.02459998 0.1256334 -0.1743329 1 1 1
v 0.02460001 0.1256334 -0.1743329 1 1 1
v -0.04304998 0.1348584 -0.1583548 1 1 1
v 0.04305001 0.1348584 -0.1583548 1 1 1
v -0.04304998 0.1594584 -0.1157463 1 1 1
v 0.04305001 0.1594584 -0.1157463 1 1 1
v -0.02459998 0.1686834 -0.09976814 1 1 1
v 0.02460001 0.1686834 -0.09976814 1 1 1
v -0.02459998 0.2240334 -0.003899094 1 1 1
v 0.02460001 0.2240334 -0.003899094 1 1 1
v -0.04304998 0.2332584 0.01207906 1 1 1
v 0.04305001 0.2332584 0.01207906 1 1 1
v -0.04304998 0.2578584 0.05468751 1 1 1
v 0.04305001 0.2578584 0.05468751 1 1 1
v -0.02459998 0.2670834 0.07066569 1 1 1
v 0.02460001 0.2670834 0.07066569 1 1 1
v 0.07380001 0.2732334 0.0813178 1 1 1
v 0.123 0.2732334 0.0813178 1 1 1
v 0.05535001 0.2824584 0.09729598 1 1 1
v 0.14145 0.2824584 0.09729598 1 1 1
v 0.05535001 0.3070584 0.1399045 1 1 1
v 0.14145 0.3070584 0.1399045 1 1 1
v 0.07380001 0.3162834 0.1558827 1 1 1
v 0.123 0.3162834 0.1558827 1 1 1
v -0.02459998 0.3224334 0.1665348 1 1 1
v 0.02460001 0.3224334 0.1665348 1 1 1
v -0.04304998 0.3316584 0.1825129 1 1 1
v 0.04305001 0.3316584 0.1825129 1 1 1
v -0.04304998 0.3562584 0.2251214 1 1 1
v 0.04305001 0.3562584 0.2251214 1 1 1
v -0.02459998 0.3654834 0.2410996 1 1 1
v 0.02460001 0.3654834 0.2410996 1 1 1
v 0.07380001 0.1748334 -0.08911604 1 1 1
v 0.123 0.1748334 -0.08911604 1 1 1
v 0.05535001 0.1840584 -0.07313786 1 1 1
v 0.14145 0.1840584 -0.07313786 1 1 1
v 0.05535001 0.2086584 -0.03052939 1 1 1
v 0.14145 0.2086584 -0.03052939 1 1 1
v 0.07380001 0.2178834 -0.01455121 1 1 1
v 0.123 0.2178834 -0.01455121 1 1 1
v -0.123 0.3224334 0.1665348 1 1 1
v -0.07379998 0.3224334 0.1665348 1 1 1
v -0.14145 0.3316584 0.1825129 1 1 1
v -0.05534998 0.3316584 0.1825129 1 1 1
v -0.14145 0.3562584 0.2251214 1 1 1
v -0.05534998 0.3562584 0.2251214 1 1 1
v -0.123 0.3654834 0.2410996 1 1 1
v -0.07379998 0.3654834 0.2410996 1 1 1
v -0.123 0.07643344 -0.2595499 1 1 1
v -0.07379998 0.07643344 -0.2595499 1 1 1
v -0.14145 0.08565845 -0.2435717 1 1 1
v -0.05534998 0.08565845 -0.2435717 1 1 1
v -0.14145 0.1102584 -0.2009632 1 1 1
v -0.05534998 0.1102584 -0.2009632 1 1 1
v -0.123 0.1194834 -0.1849851 1 1 1
v -0.07379998 0.1194834 -0.1849851 1 1 1
v -0.02459998 0.07643344 -0.2595499 1 1 1
v 0.02460001 0.07643344 -0.2595499 1 1 1
v -0.04304998 0.08565845 -0.2435717 1 1 1
v 0.04305001 0.08565845 -0.2435717 1 1 1
v -0.04304998 0.1102584 -0.2009632 1 1 1
v 0.04305001 0.1102584 -0.2009632 1 1 1
v -0.02459998 0.1194834 -0.1849851 1 1 1
v 0.02460001 0.1194834 -0.1849851 1 1 1
v 0.07380001 0.07643344 -0.2595499 1 1 1
v 0.123 0.07643344 -0.2595499 1 1 1
v 0.05535001 0.08565845 -0.2435717 1 1 1
v 0.14145 0.08565845 -0.2435717 1 1 1
v 0.05535001 0.1102584 -0.2009632 1 1 1
v 0.14145 0.1102584 -0.2009632 1 1 1
v 0.07380001 0.1194834 -0.1849851 1 1 1
v 0.123 0.1194834 -0.1849851 1 1 1
v 0.07380001 0.1256334 -0.1743329 1 1 1
v 0.123 0.1256334 -0.1743329 1 1 1
v 0.05535001 0.1348584 -0.1583548 1 1 1
v 0.14145 0.1348584 -0.1583548 1 1 1
v 0.05535001 0.1594584 -0.1157463 1 1 1
v 0.14145 0.1594584 -0.1157463 1 1 1
v 0.07380001 0.1686834 -0.09976814 1 1 1
v 0.123 0.1686834 -0.09976814 1 1 1
v -0.02459998 0.1748334 -0.08911604 1 1 1
v 0.02460001 0.1748334 -0.08911604 1 1 1
v -0.04304998 0.1840584 -0.07313786 1 1 1
v 0.04305001 0.1840584 -0.07313786 1 1 1
v -0.04304998 0.2086584 -0.03052939 1 1 1
v 0.04305001 0.2086584 -0.03052939 1 1 1
v -0.02459998 0.2178834 -0.01455121 1 1 1
v 0.02460001 0.2178834 -0.01455121 1 1 1
v -0.123 0.1748334 -0.08911604 1 1 1
v -0.07379998 0.1748334 -0.08911604 1 1 1
v -0.14145 0.1840584 -0.07313786 1 1 1
v -0.05534998 0.1840584 -0.07313786 1 1 1
v -0.14145 0.2086584 -0.03052939 1 1 1
v -0.05534998 0.2086584 -0.03052939 1 1 1
v -0.123 0.2178834 -0.01455121 1 1 1
v -0.07379998 0.2178834 -0.01455121 1 1 1
v -0.123 0.1256334 -0.1743329 1 1 1
v -0.07379998 0.1256334 -0.1743329 1 1 1
v -0.14145 0.1348584 -0.1583548 1 1 1
v -0.05534998 0.1348584 -0.1583548 1 1 1
v -0.14145 0.1594584 -0.1157463 1 1 1
v -0.05534998 0.1594584 -0.1157463 1 1 1
v -0.123 0.1686834 -0.09976814 1 1 1
v -0.07379998 0.1686834 -0.09976814 1 1 1
v 0.07380001 0.2240334 -0.003899094 1 1 1
v 0.123 0.2240334 -0.003899094 1 1 1
v 0.05535001 0.2332584 0.01207906 1 1 1
v 0.14145 0.2332584 0.01207906 1 1 1
v 0.05535001 0.2578584 0.05468751 1 1 1
v 0.14145 0.2578584 0.05468751 1 1 1
v 0.07380001 0.2670834 0.07066569 1 1 1
v 0.123 0.2670834 0.07066569 1 1 1
v -0.123 0.2732334 0.0813178 1 1 1
v -0.07379998 0.2732334 0.0813178 1 1 1
v -0.14145 0.2824584 0.09729598 1 1 1
v -0.05534998 0.2824584 0.09729598 1 1 1
v -0.14145 0.3070584 0.1399045 1 1 1
v -0.05534998 0.3070584 0.1399045 1 1 1
v -0.123 0.3162834 0.1558827 1 1 1
v -0.07379998 0.3162834 0.1558827 1 1 1
v 0.07380001 0.3224334 0.1665348 1 1 1
v 0.123 0.3224334 0.1665348 1 1 1
v 0.05535001 0.3316584 0.1825129 1 1 1
v 0.14145 0.3316584 0.1825129 1 1 1
v 0.05535001 0.3562584 0.2251214 1 1 1
v 0.14145 0.3562584 0.2251214 1 1 1
v 0.07380001 0.3654834 0.2410996 1 1 1
v 0.123 0.3654834 0.2410996 1 1 1
v -0.123 0.2240334 -0.003899094 1 1 1
v -0.07379998 0.2240334 -0.003899094 1 1 1
v -0.14145 0.2332584 0.01207906 1 1 1
v -0.05534998 0.2332584 0.01207906 1 1 1
v -0.14145 0.2578584 0.05468751 1 1 1
v -0.05534998 0.2578584 0.05468751 1 1 1
v -0.123 0.2670834 0.07066569 1 1 1
v -0.07379998 0.2670834 0.07066569 1 1 1

vn 0 -1 0
vn 0 1 0
vn 1 0 0
vn 0 0 1
vn -1 0 0
vn 0 0 -1
vn 0.3826834 0.4619398 0.8001032
vn 0.9238794 0.1913417 0.3314136
vn 0.3826834 -0.4619398 -0.8001032
vn 0.9238794 -0.1913417 -0.3314136
vn -0.3826834 0.4619398 0.8001032
vn -0.9238794 0.1913417 0.3314136
vn -0.3826834 -0.4619398 -0.8001032
vn -0.9238794 -0.1913417 -0.3314136
vn 0 0.8660254 -0.5000001
vn 0 -0.8660254 0.5000001
vn 0 -1 9.775888E-17
vn -0.9238795 0.3826835 -3.741071E-17
vn 0.3826835 0.9238795 -9.031743E-17
vn -0.3826835 0.9238795 -9.031743E-17
vn 0.9238795 0.3826835 -3.741071E-17
vn 0 -9.775888E-17 -1
vn 0 9.775888E-17 1
vn -0.5773502 0.7886752 0.2113248
vn 0.5773502 0.7886752 0.2113248
vn 0.5773502 0.2113248 -0.7886752
vn -0.5773502 0.2113248 -0.7886752
vn 0 0.8660256 -0.5
vn 0 -0.8660256 0.5

vt 0.59375 0.275
vt 0.59375 0.475
vt 0.59375 0.301603
vt 0.71875 0.275
vt 0.71875 0.4375468
vt 0.71875 0.475
vt 0.71875 0.395
vt 0.71875 0.145
vt 0.84375 0.1611702
vt 0.84375 0.1675532
vt 0.84375 0.1845745
vt 0.84375 0.1909575
vt 0.84375 0.05904255
vt 0.84375 0.06542553
vt 0.84375 0.0824468
vt 0.84375 0.08882979
vt 0.84375 0.1271277
vt 0.84375 0.1335106
vt 0.84375 0.1505319
vt 0.84375 0.1569149
vt 0.84375 0.1952128
vt 0.84375 0.2015957
vt 0.84375 0.218617
vt 0.84375 0.225
vt 0.84375 0.0930851
vt 0.84375 0.09946809
vt 0.84375 0.1164894
vt 0.84375 0.1228723
vt 0.84375 0.025
vt 0.84375 0.03138298
vt 0.84375 0.04840425
vt 0.84375 0.05478723
vt 0.59375 0.03138298
vt 0.59375 0.025
vt 0.59375 0.04840425
vt 0.59375 0.05478723
vt 0.59375 0.09946809
vt 0.59375 0.0930851
vt 0.59375 0.1164894
vt 0.59375 0.1228723

usemtl colormap

f 3/1/1 2/1/1 1/1/1
f 2/1/1 3/1/1 4/1/1
f 7/2/2 6/2/2 5/2/2
f 6/2/2 7/2/2 8/2/2
f 6/2/3 2/1/3 5/2/3
f 2/1/3 6/2/3 1/1/3
f 6/2/4 3/1/4 1/1/4
f 3/1/4 6/2/4 8/2/4
f 3/1/5 7/2/5 4/1/5
f 7/2/5 3/1/5 8/2/5
f 11/1/1 10/1/1 9/1/1
f 10/1/1 11/1/1 12/1/1
f 15/2/2 14/2/2 13/2/2
f 14/2/2 15/2/2 16/2/2
f 14/2/3 10/1/3 13/2/3
f 10/1/3 14/2/3 9/1/3
f 14/2/4 11/1/4 9/1/4
f 11/1/4 14/2/4 16/2/4
f 11/1/5 15/2/5 12/1/5
f 15/2/5 11/1/5 16/2/5
f 19/2/5 18/1/5 17/3/5
f 18/1/5 19/2/5 20/2/5
f 20/2/1 22/2/1 21/2/1
f 22/2/1 20/2/1 19/2/1
f 24/1/3 22/2/3 23/3/3
f 22/2/3 24/1/3 21/2/3
f 17/3/6 22/2/6 19/2/6
f 22/2/6 17/3/6 23/3/6
f 24/1/4 20/2/4 21/2/4
f 20/2/4 24/1/4 18/1/4
f 27/2/5 26/1/5 25/3/5
f 26/1/5 27/2/5 28/2/5
f 28/2/1 30/2/1 29/2/1
f 30/2/1 28/2/1 27/2/1
f 32/1/3 30/2/3 31/3/3
f 30/2/3 32/1/3 29/2/3
f 25/3/6 30/2/6 27/2/6
f 30/2/6 25/3/6 31/3/6
f 32/1/4 28/2/4 29/2/4
f 28/2/4 32/1/4 26/1/4
f 35/1/8 34/2/7 33/1/7
f 34/2/7 35/1/8 36/2/8
f 39/2/9 38/1/10 37/1/9
f 38/1/10 39/2/9 40/2/10
f 43/2/11 42/1/12 41/1/11
f 42/1/12 43/2/11 44/2/12
f 47/1/14 46/2/13 45/1/13
f 46/2/13 47/1/14 48/2/14
f 46/2/13 37/1/9 45/1/13
f 37/1/9 46/2/13 39/2/9
f 34/2/7 41/1/11 33/1/7
f 41/1/11 34/2/7 43/2/11
f 42/1/12 48/2/14 47/1/14
f 48/2/14 42/1/12 44/2/12
f 39/2/15 36/2/15 40/2/15
f 36/2/15 39/2/15 34/2/15
f 34/2/15 39/2/15 49/2/15
f 49/2/15 39/2/15 46/2/15
f 50/2/15 34/2/15 49/2/15
f 49/2/15 46/2/15 51/2/15
f 34/2/15 50/2/15 43/2/15
f 51/2/15 46/2/15 52/2/15
f 43/2/15 50/2/15 52/2/15
f 43/2/15 52/2/15 46/2/15
f 43/2/15 46/2/15 48/2/15
f 43/2/15 48/2/15 44/2/15
f 36/2/8 38/1/10 40/2/10
f 38/1/10 36/2/8 35/1/8
f 33/1/16 38/1/16 35/1/16
f 38/1/16 33/1/16 37/1/16
f 37/1/16 33/1/16 41/1/16
f 37/1/16 41/1/16 45/1/16
f 45/1/16 41/1/16 42/1/16
f 45/1/16 42/1/16 47/1/16
f 55/4/17 54/4/17 53/4/17
f 54/4/17 55/4/17 56/4/17
f 55/4/5 57/5/18 56/4/5
f 57/5/18 55/4/5 58/5/18
f 61/6/20 60/6/19 59/6/19
f 60/6/19 61/6/20 62/6/20
f 64/5/21 54/4/3 63/5/21
f 54/4/3 64/5/21 53/4/3
f 57/5/18 62/6/20 61/6/20
f 62/6/20 57/5/18 58/5/18
f 59/6/19 64/5/21 63/5/21
f 64/5/21 59/6/19 60/6/19
f 57/5/22 54/4/22 56/4/22
f 54/4/22 57/5/22 63/5/22
f 63/5/22 57/5/22 61/6/22
f 63/5/22 61/6/22 59/6/22
f 64/5/23 55/4/23 53/4/23
f 55/4/23 64/5/23 58/5/23
f 58/5/23 64/5/23 60/6/23
f 58/5/23 60/6/23 62/6/23
f 67/4/17 66/4/17 65/4/17
f 66/4/17 67/4/17 68/4/17
f 67/4/5 69/5/18 68/4/5
f 69/5/18 67/4/5 70/5/18
f 73/6/20 72/6/19 71/6/19
f 72/6/19 73/6/20 74/6/20
f 76/5/21 66/4/3 75/5/21
f 66/4/3 76/5/21 65/4/3
f 69/5/18 74/6/20 73/6/20
f 74/6/20 69/5/18 70/5/18
f 71/6/19 76/5/21 75/5/21
f 76/5/21 71/6/19 72/6/19
f 69/5/22 66/4/22 68/4/22
f 66/4/22 69/5/22 75/5/22
f 75/5/22 69/5/22 73/6/22
f 75/5/22 73/6/22 71/6/22
f 76/5/23 67/4/23 65/4/23
f 67/4/23 76/5/23 70/5/23
f 70/5/23 76/5/23 72/6/23
f 70/5/23 72/6/23 74/6/23
f 49/6/24 78/7/25 77/7/24
f 78/7/25 49/6/24 51/6/25
f 52/6/26 80/7/27 79/7/26
f 80/7/27 52/6/26 50/6/27
f 52/6/26 78/7/25 51/6/25
f 78/7/25 52/6/26 79/7/26
f 77/7/24 50/6/27 49/6/24
f 50/6/27 77/7/24 80/7/27

usemtl colormap-specular

f 78/8/15 80/8/15 77/8/15
f 80/8/15 78/8/15 79/8/15
f 83/10/28 82/9/28 81/9/28
f 82/9/28 83/10/28 84/10/28
f 84/10/28 83/10/28 85/11/28
f 84/10/28 85/11/28 86/11/28
f 86/11/28 85/11/28 87/12/28
f 86/11/28 87/12/28 88/12/28
f 91/14/28 90/13/28 89/13/28
f 90/13/28 91/14/28 92/14/28
f 92/14/28 91/14/28 93/15/28
f 92/14/28 93/15/28 94/15/28
f 94/15/28 93/15/28 95/16/28
f 94/15/28 95/16/28 96/16/28
f 99/18/28 98/17/28 97/17/28
f 98/17/28 99/18/28 100/18/28
f 100/18/28 99/18/28 101/19/28
f 100/18/28 101/19/28 102/19/28
f 102/19/28 101/19/28 103/20/28
f 102/19/28 103/20/28 104/20/28
f 107/10/28 106/9/28 105/9/28
f 106/9/28 107/10/28 108/10/28
f 108/10/28 107/10/28 109/11/28
f 108/10/28 109/11/28 110/11/28
f 110/11/28 109/11/28 111/12/28
f 110/11/28 111/12/28 112/12/28
f 115/22/28 114/21/28 113/21/28
f 114/21/28 115/22/28 116/22/28
f 116/22/28 115/22/28 117/23/28
f 116/22/28 117/23/28 118/23/28
f 118/23/28 117/23/28 119/24/28
f 118/23/28 119/24/28 120/24/28
f 123/26/28 122/25/28 121/25/28
f 122/25/28 123/26/28 124/26/28
f 124/26/28 123/26/28 125/27/28
f 124/26/28 125/27/28 126/27/28
f 126/27/28 125/27/28 127/28/28
f 126/27/28 127/28/28 128/28/28
f 131/22/28 130/21/28 129/21/28
f 130/21/28 131/22/28 132/22/28
f 132/22/28 131/22/28 133/23/28
f 132/22/28 133/23/28 134/23/28
f 134/23/28 133/23/28 135/24/28
f 134/23/28 135/24/28 136/24/28
f 139/30/28 138/29/28 137/29/28
f 138/29/28 139/30/28 140/30/28
f 140/30/28 139/30/28 141/31/28
f 140/30/28 141/31/28 142/31/28
f 142/31/28 141/31/28 143/32/28
f 142/31/28 143/32/28 144/32/28
f 147/30/28 146/29/28 145/29/28
f 146/29/28 147/30/28 148/30/28
f 148/30/28 147/30/28 149/31/28
f 148/30/28 149/31/28 150/31/28
f 150/31/28 149/31/28 151/32/28
f 150/31/28 151/32/28 152/32/28
f 155/30/28 154/29/28 153/29/28
f 154/29/28 155/30/28 156/30/28
f 156/30/28 155/30/28 157/31/28
f 156/30/28 157/31/28 158/31/28
f 158/31/28 157/31/28 159/32/28
f 158/31/28 159/32/28 160/32/28
f 163/14/28 162/13/28 161/13/28
f 162/13/28 163/14/28 164/14/28
f 164/14/28 163/14/28 165/15/28
f 164/14/28 165/15/28 166/15/28
f 166/15/28 165/15/28 167/16/28
f 166/15/28 167/16/28 168/16/28
f 171/26/28 170/25/28 169/25/28
f 170/25/28 171/26/28 172/26/28
f 172/26/28 171/26/28 173/27/28
f 172/26/28 173/27/28 174/27/28
f 174/27/28 173/27/28 175/28/28
f 174/27/28 175/28/28 176/28/28
f 179/26/28 178/25/28 177/25/28
f 178/25/28 179/26/28 180/26/28
f 180/26/28 179/26/28 181/27/28
f 180/26/28 181/27/28 182/27/28
f 182/27/28 181/27/28 183/28/28
f 182/27/28 183/28/28 184/28/28
f 187/14/28 186/13/28 185/13/28
f 186/13/28 187/14/28 188/14/28
f 188/14/28 187/14/28 189/15/28
f 188/14/28 189/15/28 190/15/28
f 190/15/28 189/15/28 191/16/28
f 190/15/28 191/16/28 192/16/28
f 195/18/28 194/17/28 193/17/28
f 194/17/28 195/18/28 196/18/28
f 196/18/28 195/18/28 197/19/28
f 196/18/28 197/19/28 198/19/28
f 198/19/28 197/19/28 199/20/28
f 198/19/28 199/20/28 200/20/28
f 203/10/28 202/9/28 201/9/28
f 202/9/28 203/10/28 204/10/28
f 204/10/28 203/10/28 205/11/28
f 204/10/28 205/11/28 206/11/28
f 206/11/28 205/11/28 207/12/28
f 206/11/28 207/12/28 208/12/28
f 211/22/28 210/21/28 209/21/28
f 210/21/28 211/22/28 212/22/28
f 212/22/28 211/22/28 213/23/28
f 212/22/28 213/23/28 214/23/28
f 214/23/28 213/23/28 215/24/28
f 214/23/28 215/24/28 216/24/28
f 219/18/28 218/17/28 217/17/28
f 218/17/28 219/18/28 220/18/28
f 220/18/28 219/18/28 221/19/28
f 220/18/28 221/19/28 222/19/28
f 222/19/28 221/19/28 223/20/28
f 222/19/28 223/20/28 224/20/28
f 137/34/29 138/34/29 139/33/29
f 140/33/29 139/33/29 138/34/29
f 141/35/29 139/33/29 140/33/29
f 142/35/29 141/35/29 140/33/29
f 143/36/29 141/35/29 142/35/29
f 144/36/29 143/36/29 142/35/29
f 177/38/29 178/38/29 179/37/29
f 180/37/29 179/37/29 178/38/29
f 181/39/29 179/37/29 180/37/29
f 182/39/29 181/39/29 180/37/29
f 183/40/29 181/39/29 182/39/29
f 184/40/29 183/40/29 182/39/29

g solar-panel-portrait




usemtl colormap

f 3/1/1 2/1/1 1/1/1
f 2/1/1 3/1/1 4/1/1
f 7/2/2 6/2/2 5/2/2
f 6/2/2 7/2/2 8/2/2
f 6/2/3 2/1/3 5/2/3
f 2/1/3 6/2/3 1/1/3
f 6/2/4 3/1/4 1/1/4
f 3/1/4 6/2/4 8/2/4
f 3/1/5 7/2/5 4/1/5
f 7/2/5 3/1/5 8/2/5
f 11/1/1 10/1/1 9/1/1
f 10/1/1 11/1/1 12/1/1
f 15/2/2 14/2/2 13/2/2
f 14/2/2 15/2/2 16/2/2
f 14/2/3 10/1/3 13/2/3
f 10/1/3 14/2/3 9/1/3
f 14/2/4 11/1/4 9/1/4
f 11/1/4 14/2/4 16/2/4
f 11/1/5 15/2/5 12/1/5
f 15/2/5 11/1/5 16/2/5
f 19/2/5 18/1/5 17/3/5
f 18/1/5 19/2/5 20/2/5
f 20/2/1 22/2/1 21/2/1
f 22/2/1 20/2/1 19/2/1
f 24/1/3 22/2/3 23/3/3
f 22/2/3 24/1/3 21/2/3
f 17/3/6 22/2/6 19/2/6
f 22/2/6 17/3/6 23/3/6
f 24/1/4 20/2/4 21/2/4
f 20/2/4 24/1/4 18/1/4
f 27/2/5 26/1/5 25/3/5
f 26/1/5 27/2/5 28/2/5
f 28/2/1 30/2/1 29/2/1
f 30/2/1 28/2/1 27/2/1
f 32/1/3 30/2/3 31/3/3
f 30/2/3 32/1/3 29/2/3
f 25/3/6 30/2/6 27/2/6
f 30/2/6 25/3/6 31/3/6
f 32/1/4 28/2/4 29/2/4
f 28/2/4 32/1/4 26/1/4
f 35/1/8 34/2/7 33/1/7
f 34/2/7 35/1/8 36/2/8
f 39/2/9 38/1/10 37/1/9
f 38/1/10 39/2/9 40/2/10
f 43/2/11 42/1/12 41/1/11
f 42/1/12 43/2/11 44/2/12
f 47/1/14 46/2/13 45/1/13
f 46/2/13 47/1/14 48/2/14
f 46/2/13 37/1/9 45/1/13
f 37/1/9 46/2/13 39/2/9
f 34/2/7 41/1/11 33/1/7
f 41/1/11 34/2/7 43/2/11
f 42/1/12 48/2/14 47/1/14
f 48/2/14 42/1/12 44/2/12
f 39/2/15 36/2/15 40/2/15
f 36/2/15 39/2/15 34/2/15
f 34/2/15 39/2/15 49/2/15
f 49/2/15 39/2/15 46/2/15
f 50/2/15 34/2/15 49/2/15
f 49/2/15 46/2/15 51/2/15
f 34/2/15 50/2/15 43/2/15
f 51/2/15 46/2/15 52/2/15
f 43/2/15 50/2/15 52/2/15
f 43/2/15 52/2/15 46/2/15
f 43/2/15 46/2/15 48/2/15
f 43/2/15 48/2/15 44/2/15
f 36/2/8 38/1/10 40/2/10
f 38/1/10 36/2/8 35/1/8
f 33/1/16 38/1/16 35/1/16
f 38/1/16 33/1/16 37/1/16
f 37/1/16 33/1/16 41/1/16
f 37/1/16 41/1/16 45/1/16
f 45/1/16 41/1/16 42/1/16
f 45/1/16 42/1/16 47/1/16
f 55/4/17 54/4/17 53/4/17
f 54/4/17 55/4/17 56/4/17
f 55/4/5 57/5/18 56/4/5
f 57/5/18 55/4/5 58/5/18
f 61/6/20 60/6/19 59/6/19
f 60/6/19 61/6/20 62/6/20
f 64/5/21 54/4/3 63/5/21
f 54/4/3 64/5/21 53/4/3
f 57/5/18 62/6/20 61/6/20
f 62/6/20 57/5/18 58/5/18
f 59/6/19 64/5/21 63/5/21
f 64/5/21 59/6/19 60/6/19
f 57/5/22 54/4/22 56/4/22
f 54/4/22 57/5/22 63/5/22
f 63/5/22 57/5/22 61/6/22
f 63/5/22 61/6/22 59/6/22
f 64/5/23 55/4/23 53/4/23
f 55/4/23 64/5/23 58/5/23
f 58/5/23 64/5/23 60/6/23
f 58/5/23 60/6/23 62/6/23
f 67/4/17 66/4/17 65/4/17
f 66/4/17 67/4/17 68/4/17
f 67/4/5 69/5/18 68/4/5
f 69/5/18 67/4/5 70/5/18
f 73/6/20 72/6/19 71/6/19
f 72/6/19 73/6/20 74/6/20
f 76/5/21 66/4/3 75/5/21
f 66/4/3 76/5/21 65/4/3
f 69/5/18 74/6/20 73/6/20
f 74/6/20 69/5/18 70/5/18
f 71/6/19 76/5/21 75/5/21
f 76/5/21 71/6/19 72/6/19
f 69/5/22 66/4/22 68/4/22
f 66/4/22 69/5/22 75/5/22
f 75/5/22 69/5/22 73/6/22
f 75/5/22 73/6/22 71/6/22
f 76/5/23 67/4/23 65/4/23
f 67/4/23 76/5/23 70/5/23
f 70/5/23 76/5/23 72/6/23
f 70/5/23 72/6/23 74/6/23
f 49/6/24 78/7/25 77/7/24
f 78/7/25 49/6/24 51/6/25
f 52/6/26 80/7/27 79/7/26
f 80/7/27 52/6/26 50/6/27
f 52/6/26 78/7/25 51/6/25
f 78/7/25 52/6/26 79/7/26
f 77/7/24 50/6/27 49/6/24
f 50/6/27 77/7/24 80/7/27

usemtl colormap-specular

f 78/8/15 80/8/15 77/8/15
f 80/8/15 78/8/15 79/8/15
f 83/10/28 82/9/28 81/9/28
f 82/9/28 83/10/28 84/10/28
f 84/10/28 83/10/28 85/11/28
f 84/10/28 85/11/28 86/11/28
f 86/11/28 85/11/28 87/12/28
f 86/11/28 87/12/28 88/12/28
f 91/14/28 90/13/28 89/13/28
f 90/13/28 91/14/28 92/14/28
f 92/14/28 91/14/28 93/15/28
f 92/14/28 93/15/28 94/15/28
f 94/15/28 93/15/28 95/16/28
f 94/15/28 95/16/28 96/16/28
f 99/18/28 98/17/28 97/17/28
f 98/17/28 99/18/28 100/18/28
f 100/18/28 99/18/28 101/19/28
f 100/18/28 101/19/28 102/19/28
f 102/19/28 101/19/28 103/20/28
f 102/19/28 103/20/28 104/20/28
f 107/10/28 106/9/28 105/9/28
f 106/9/28 107/10/28 108/10/28
f 108/10/28 107/10/28 109/11/28
f 108/10/28 109/11/28 110/11/28
f 110/11/28 109/11/28 111/12/28
f 110/11/28 111/12/28 112/12/28
f 115/22/28 114/21/28 113/21/28
f 114/21/28 115/22/28 116/22/28
f 116/22/28 115/22/28 117/23/28
f 116/22/28 117/23/28 118/23/28
f 118/23/28 117/23/28 119/24/28
f 118/23/28 119/24/28 120/24/28
f 123/26/28 122/25/28 121/25/28
f 122/25/28 123/26/28 124/26/28
f 124/26/28 123/26/28 125/27/28
f 124/26/28 125/27/28 126/27/28
f 126/27/28 125/27/28 127/28/28
f 126/27/28 127/28/28 128/28/28
f 131/22/28 130/21/28 129/21/28
f 130/21/28 131/22/28 132/22/28
f 132/22/28 131/22/28 133/23/28
f 132/22/28 133/23/28 134/23/28
f 134/23/28 133/23/28 135/24/28
f 134/23/28 135/24/28 136/24/28
f 139/30/28 138/29/28 137/29/28
f 138/29/28 139/30/28 140/30/28
f 140/30/28 139/30/28 141/31/28
f 140/30/28 141/31/28 142/31/28
f 142/31/28 141/31/28 143/32/28
f 142/31/28 143/32/28 144/32/28
f 147/30/28 146/29/28 145/29/28
f 146/29/28 147/30/28 148/30/28
f 148/30/28 147/30/28 149/31/28
f 148/30/28 149/31/28 150/31/28
f 150/31/28 149/31/28 151/32/28
f 150/31/28 151/32/28 152/32/28
f 155/30/28 154/29/28 153/29/28
f 154/29/28 155/30/28 156/30/28
f 156/30/28 155/30/28 157/31/28
f 156/30/28 157/31/28 158/31/28
f 158/31/28 157/31/28 159/32/28
f 158/31/28 159/32/28 160/32/28
f 163/14/28 162/13/28 161/13/28
f 162/13/28 163/14/28 164/14/28
f 164/14/28 163/14/28 165/15/28
f 164/14/28 165/15/28 166/15/28
f 166/15/28 165/15/28 167/16/28
f 166/15/28 167/16/28 168/16/28
f 171/26/28 170/25/28 169/25/28
f 170/25/28 171/26/28 172/26/28
f 172/26/28 171/26/28 173/27/28
f 172/26/28 173/27/28 174/27/28
f 174/27/28 173/27/28 175/28/28
f 174/27/28 175/28/28 176/28/28
f 179/26/28 178/25/28 177/25/28
f 178/25/28 179/26/28 180/26/28
f 180/26/28 179/26/28 181/27/28
f 180/26/28 181/27/28 182/27/28
f 182/27/28 181/27/28 183/28/28
f 182/27/28 183/28/28 184/28/28
f 187/14/28 186/13/28 185/13/28
f 186/13/28 187/14/28 188/14/28
f 188/14/28 187/14/28 189/15/28
f 188/14/28 189/15/28 190/15/28
f 190/15/28 189/15/28 191/16/28
f 190/15/28 191/16/28 192/16/28
f 195/18/28 194/17/28 193/17/28
f 194/17/28 195/18/28 196/18/28
f 196/18/28 195/18/28 197/19/28
f 196/18/28 197/19/28 198/19/28
f 198/19/28 197/19/28 199/20/28
f 198/19/28 199/20/28 200/20/28
f 203/10/28 202/9/28 201/9/28
f 202/9/28 203/10/28 204/10/28
f 204/10/28 203/10/28 205/11/28
f 204/10/28 205/11/28 206/11/28
f 206/11/28 205/11/28 207/12/28
f 206/11/28 207/12/28 208/12/28
f 211/22/28 210/21/28 209/21/28
f 210/21/28 211/22/28 212/22/28
f 212/22/28 211/22/28 213/23/28
f 212/22/28 213/23/28 214/23/28
f 214/23/28 213/23/28 215/24/28
f 214/23/28 215/24/28 216/24/28
f 219/18/28 218/17/28 217/17/28
f 218/17/28 219/18/28 220/18/28
f 220/18/28 219/18/28 221/19/28
f 220/18/28 221/19/28 222/19/28
f 222/19/28 221/19/28 223/20/28
f 222/19/28 223/20/28 224/20/28
f 137/34/29 138/34/29 139/33/29
f 140/33/29 139/33/29 138/34/29
f 141/35/29 139/33/29 140/33/29
f 142/35/29 141/35/29 140/33/29
f 143/36/29 141/35/29 142/35/29
f 144/36/29 143/36/29 142/35/29
f 177/38/29 178/38/29 179/37/29
f 180/37/29 179/37/29 178/38/29
f 181/39/29 179/37/29 180/37/29
f 182/39/29 181/39/29 180/37/29
f 183/40/29 181/39/29 182/39/29
f 184/40/29 183/40/29 182/39/29

