# Created by Kenney (www.kenney.nl)

mtllib solar-panel-portrait-group.mtl

g solar-panel-portrait-group

v -0.3853002 2.888408E-16 -0.08923629 1 1 1
v -0.3853002 2.888408E-16 -0.5935364 1 1 1
v -0.4345002 2.888408E-16 -0.08923629 1 1 1
v -0.4345002 2.888408E-16 -0.5935364 1 1 1
v -0.3853002 0.0492 -0.5935364 1 1 1
v -0.3853002 0.0492 -0.08923629 1 1 1
v -0.4345002 0.0492 -0.5935364 1 1 1
v -0.4345002 0.0492 -0.08923629 1 1 1
v -0.06549981 2.888408E-16 -0.08923629 1 1 1
v -0.06549981 2.888408E-16 -0.5935364 1 1 1
v -0.1146998 2.888408E-16 -0.08923629 1 1 1
v -0.1146998 2.888408E-16 -0.5935364 1 1 1
v -0.06549981 0.0492 -0.5935364 1 1 1
v -0.06549981 0.0492 -0.08923629 1 1 1
v -0.1146998 0.0492 -0.5935364 1 1 1
v -0.1146998 0.0492 -0.08923629 1 1 1
v -0.1146998 0.2343465 -0.1876363 1 1 1
v -0.1146998 0.2627521 -0.1384363 1 1 1
v -0.1146998 0.0492 -0.1876363 1 1 1
v -0.1146998 0.0492 -0.1384363 1 1 1
v -0.06549981 0.0492 -0.1384363 1 1 1
v -0.06549981 0.0492 -0.1876363 1 1 1
v -0.06549981 0.2343465 -0.1876363 1 1 1
v -0.06549981 0.2627521 -0.1384363 1 1 1
v -0.4345002 0.2343465 -0.1876363 1 1 1
v -0.4345002 0.2627521 -0.1384363 1 1 1
v -0.4345002 0.0492 -0.1876363 1 1 1
v -0.4345002 0.0492 -0.1384363 1 1 1
v -0.3853002 0.0492 -0.1384363 1 1 1
v -0.3853002 0.0492 -0.1876363 1 1 1
v -0.3853002 0.2343465 -0.1876363 1 1 1
v -0.3853002 0.2627521 -0.1384363 1 1 1
v -0.06550017 0.3566998 0.02428612 1 1 1
v -0.06550017 0.4099604 -0.006463885 1 1 1
v -0.04090017 0.3443998 0.002981871 1 1 1
v -0.04090017 0.3976604 -0.02776814 1 1 1
v -0.06550017 -1.788139E-07 -0.5935364 1 1 1
v -0.04090017 0.01229982 -0.5722322 1 1 1
v -0.06550017 0.05326037 -0.6242864 1 1 1
v -0.04090017 0.06556039 -0.6029822 1 1 1
v -0.4345002 0.3566998 0.02428612 1 1 1
v -0.4591002 0.3443998 0.002981871 1 1 1
v -0.4345002 0.4099604 -0.006463885 1 1 1
v -0.4591002 0.3976604 -0.02776814 1 1 1
v -0.4345002 -1.788139E-07 -0.5935364 1 1 1
v -0.4345002 0.05326037 -0.6242864 1 1 1
v -0.4591002 0.01229982 -0.5722322 1 1 1
v -0.4591002 0.06556039 -0.6029822 1 1 1
v -0.07165019 0.06863537 -0.5976562 1 1 1
v -0.07165019 0.3945854 -0.03309414 1 1 1
v -0.4283502 0.06863537 -0.5976562 1 1 1
v -0.4283502 0.3945854 -0.03309414 1 1 1
v 0.1146998 2.888408E-16 -0.08923629 1 1 1
v 0.1146998 2.888408E-16 -0.5935364 1 1 1
v 0.06549981 2.888408E-16 -0.08923629 1 1 1
v 0.06549981 2.888408E-16 -0.5935364 1 1 1
v 0.1146998 0.0492 -0.5935364 1 1 1
v 0.1146998 0.0492 -0.08923629 1 1 1
v 0.06549981 0.0492 -0.5935364 1 1 1
v 0.06549981 0.0492 -0.08923629 1 1 1
v 0.4345002 2.888408E-16 -0.08923629 1 1 1
v 0.4345002 2.888408E-16 -0.5935364 1 1 1
v 0.3853002 2.888408E-16 -0.08923629 1 1 1
v 0.3853002 2.888408E-16 -0.5935364 1 1 1
v 0.4345002 0.0492 -0.5935364 1 1 1
v 0.4345002 0.0492 -0.08923629 1 1 1
v 0.3853002 0.0492 -0.5935364 1 1 1
v 0.3853002 0.0492 -0.08923629 1 1 1
v 0.3853002 0.2343465 -0.1876363 1 1 1
v 0.3853002 0.2627521 -0.1384363 1 1 1
v 0.3853002 0.0492 -0.1876363 1 1 1
v 0.3853002 0.0492 -0.1384363 1 1 1
v 0.4345002 0.0492 -0.1384363 1 1 1
v 0.4345002 0.0492 -0.1876363 1 1 1
v 0.4345002 0.2343465 -0.1876363 1 1 1
v 0.4345002 0.2627521 -0.1384363 1 1 1
v 0.06549981 0.2343465 -0.1876363 1 1 1
v 0.06549981 0.2627521 -0.1384363 1 1 1
v 0.06549981 0.0492 -0.1876363 1 1 1
v 0.06549981 0.0492 -0.1384363 1 1 1
v 0.1146998 0.0492 -0.1384363 1 1 1
v 0.1146998 0.0492 -0.1876363 1 1 1
v 0.1146998 0.2343465 -0.1876363 1 1 1
v 0.1146998 0.2627521 -0.1384363 1 1 1
v 0.4345003 0.3566998 0.02428612 1 1 1
v 0.4345003 0.4099604 -0.006463885 1 1 1
v 0.4591002 0.3443998 0.002981871 1 1 1
v 0.4591002 0.3976604 -0.02776814 1 1 1
v 0.4345003 -1.788139E-07 -0.5935364 1 1 1
v 0.4591002 0.01229982 -0.5722322 1 1 1
v 0.4345003 0.05326037 -0.6242864 1 1 1
v 0.4591002 0.06556039 -0.6029822 1 1 1
v 0.06550029 0.3566998 0.02428612 1 1 1
v 0.04090029 0.3443998 0.002981871 1 1 1
v 0.06550029 0.4099604 -0.006463885 1 1 1
v 0.04090029 0.3976604 -0.02776814 1 1 1
v 0.06550029 -1.788139E-07 -0.5935364 1 1 1
v 0.06550029 0.05326037 -0.6242864 1 1 1
v 0.04090029 0.01229982 -0.5722322 1 1 1
v 0.04090029 0.06556039 -0.6029822 1 1 1
v 0.4283503 0.06863537 -0.5976562 1 1 1
v 0.4283503 0.3945854 -0.03309414 1 1 1
v 0.0716503 0.06863537 -0.5976562 1 1 1
v 0.0716503 0.3945854 -0.03309414 1 1 1
v -0.3853002 2.888408E-16 0.5107636 1 1 1
v -0.3853002 2.888408E-16 0.006463557 1 1 1
v -0.4345002 2.888408E-16 0.5107636 1 1 1
v -0.4345002 2.888408E-16 0.006463557 1 1 1
v -0.3853002 0.0492 0.006463557 1 1 1
v -0.3853002 0.0492 0.5107636 1 1 1
v -0.4345002 0.0492 0.006463557 1 1 1
v -0.4345002 0.0492 0.5107636 1 1 1
v -0.06549981 2.888408E-16 0.5107636 1 1 1
v -0.06549981 2.888408E-16 0.006463557 1 1 1
v -0.1146998 2.888408E-16 0.5107636 1 1 1
v -0.1146998 2.888408E-16 0.006463557 1 1 1
v -0.06549981 0.0492 0.006463557 1 1 1
v -0.06549981 0.0492 0.5107636 1 1 1
v -0.1146998 0.0492 0.006463557 1 1 1
v -0.1146998 0.0492 0.5107636 1 1 1
v -0.1146998 0.2343465 0.4123636 1 1 1
v -0.1146998 0.2627521 0.4615636 1 1 1
v -0.1146998 0.0492 0.4123636 1 1 1
v -0.1146998 0.0492 0.4615636 1 1 1
v -0.06549981 0.0492 0.4615636 1 1 1
v -0.06549981 0.0492 0.4123636 1 1 1
v -0.06549981 0.2343465 0.4123636 1 1 1
v -0.06549981 0.2627521 0.4615636 1 1 1
v -0.4345002 0.2343465 0.4123636 1 1 1
v -0.4345002 0.2627521 0.4615636 1 1 1
v -0.4345002 0.0492 0.4123636 1 1 1
v -0.4345002 0.0492 0.4615636 1 1 1
v -0.3853002 0.0492 0.4615636 1 1 1
v -0.3853002 0.0492 0.4123636 1 1 1
v -0.3853002 0.2343465 0.4123636 1 1 1
v -0.3853002 0.2627521 0.4615636 1 1 1
v -0.06550017 0.3566999 0.6242857 1 1 1
v -0.06550017 0.4099604 0.5935357 1 1 1
v -0.04090017 0.3443999 0.6029815 1 1 1
v -0.04090017 0.3976604 0.5722315 1 1 1
v -0.06550017 -1.341105E-07 0.00646317 1 1 1
v -0.04090017 0.01229987 0.02776742 1 1 1
v -0.06550017 0.05326043 -0.02428684 1 1 1
v -0.04090017 0.06556043 -0.002982587 1 1 1
v -0.4345002 0.3566999 0.6242857 1 1 1
v -0.4591002 0.3443999 0.6029815 1 1 1
v -0.4345002 0.4099604 0.5935357 1 1 1
v -0.4591002 0.3976604 0.5722315 1 1 1
v -0.4345002 -1.341105E-07 0.00646317 1 1 1
v -0.4345002 0.05326043 -0.02428684 1 1 1
v -0.4591002 0.01229987 0.02776742 1 1 1
v -0.4591002 0.06556043 -0.002982587 1 1 1
v -0.07165019 0.0686354 0.002343416 1 1 1
v -0.07165019 0.3945854 0.5669055 1 1 1
v -0.4283502 0.0686354 0.002343416 1 1 1
v -0.4283502 0.3945854 0.5669055 1 1 1
v 0.1146998 2.888408E-16 0.5107636 1 1 1
v 0.1146998 2.888408E-16 0.006463557 1 1 1
v 0.06549981 2.888408E-16 0.5107636 1 1 1
v 0.06549981 2.888408E-16 0.006463557 1 1 1
v 0.1146998 0.0492 0.006463557 1 1 1
v 0.1146998 0.0492 0.5107636 1 1 1
v 0.06549981 0.0492 0.006463557 1 1 1
v 0.06549981 0.0492 0.5107636 1 1 1
v 0.4345002 2.888408E-16 0.5107636 1 1 1
v 0.4345002 2.888408E-16 0.006463557 1 1 1
v 0.3853002 2.888408E-16 0.5107636 1 1 1
v 0.3853002 2.888408E-16 0.006463557 1 1 1
v 0.4345002 0.0492 0.006463557 1 1 1
v 0.4345002 0.0492 0.5107636 1 1 1
v 0.3853002 0.0492 0.006463557 1 1 1
v 0.3853002 0.0492 0.5107636 1 1 1
v 0.3853002 0.2343465 0.4123636 1 1 1
v 0.3853002 0.2627521 0.4615636 1 1 1
v 0.3853002 0.0492 0.4123636 1 1 1
v 0.3853002 0.0492 0.4615636 1 1 1
v 0.4345002 0.0492 0.4615636 1 1 1
v 0.4345002 0.0492 0.4123636 1 1 1
v 0.4345002 0.2343465 0.4123636 1 1 1
v 0.4345002 0.2627521 0.4615636 1 1 1
v 0.06549981 0.2343465 0.4123636 1 1 1
v 0.06549981 0.2627521 0.4615636 1 1 1
v 0.06549981 0.0492 0.4123636 1 1 1
v 0.06549981 0.0492 0.4615636 1 1 1
v 0.1146998 0.0492 0.4615636 1 1 1
v 0.1146998 0.0492 0.4123636 1 1 1
v 0.1146998 0.2343465 0.4123636 1 1 1
v 0.1146998 0.2627521 0.4615636 1 1 1
v 0.4345003 0.3566999 0.6242857 1 1 1
v 0.4345003 0.4099604 0.5935357 1 1 1
v 0.4591002 0.3443999 0.6029815 1 1 1
v 0.4591002 0.3976604 0.5722315 1 1 1
v 0.4345003 -1.341105E-07 0.00646317 1 1 1
v 0.4591002 0.01229987 0.02776742 1 1 1
v 0.4345003 0.05326043 -0.02428684 1 1 1
v 0.4591002 0.06556043 -0.002982587 1 1 1
v 0.06550029 0.3566999 0.6242857 1 1 1
v 0.04090029 0.3443999 0.6029815 1 1 1
v 0.06550029 0.4099604 0.5935357 1 1 1
v 0.04090029 0.3976604 0.5722315 1 1 1
v 0.06550029 -1.341105E-07 0.00646317 1 1 1
v 0.06550029 0.05326043 -0.02428684 1 1 1
v 0.04090029 0.01229987 0.02776742 1 1 1
v 0.04090029 0.06556043 -0.002982587 1 1 1
v 0.4283503 0.0686354 0.002343416 1 1 1
v 0.4283503 0.3945854 0.5669055 1 1 1
v 0.0716503 0.0686354 0.002343416 1 1 1
v 0.0716503 0.3945854 0.5669055 1 1 1
v -0.04901782 2.668428E-16 -0.1261363 1 1 1
v -0.04901782 3.175531E-16 -0.1999363 1 1 1
v -0.1311818 2.668428E-16 -0.1261363 1 1 1
v -0.1311818 3.175531E-16 -0.1999363 1 1 1
v -0.1311818 0.053382 -0.1999363 1 1 1
v -0.1311818 0.053382 -0.1261363 1 1 1
v -0.06131782 0.065682 -0.1999363 1 1 1
v -0.06131782 0.065682 -0.1261363 1 1 1
v -0.1188818 0.065682 -0.1999363 1 1 1
v -0.1188818 0.065682 -0.1261363 1 1 1
v -0.04901782 0.053382 -0.1999363 1 1 1
v -0.04901782 0.053382 -0.1261363 1 1 1
v -0.3688182 2.668428E-16 -0.1261363 1 1 1
v -0.3688182 3.175531E-16 -0.1999363 1 1 1
v -0.4509822 2.668428E-16 -0.1261363 1 1 1
v -0.4509822 3.175531E-16 -0.1999363 1 1 1
v -0.4509822 0.053382 -0.1999363 1 1 1
v -0.4509822 0.053382 -0.1261363 1 1 1
v -0.3811182 0.065682 -0.1999363 1 1 1
v -0.3811182 0.065682 -0.1261363 1 1 1
v -0.4386822 0.065682 -0.1999363 1 1 1
v -0.4386822 0.065682 -0.1261363 1 1 1
v -0.3688182 0.053382 -0.1999363 1 1 1
v -0.3688182 0.053382 -0.1261363 1 1 1
v -0.08395019 0.05348115 -0.5747041 1 1 1
v -0.4160501 0.05348115 -0.5747041 1 1 1
v -0.4160501 0.3671312 -0.03144631 1 1 1
v -0.08395019 0.3671312 -0.03144631 1 1 1
v 0.4509822 2.668428E-16 -0.1261363 1 1 1
v 0.4509822 3.175531E-16 -0.1999363 1 1 1
v 0.3688182 2.668428E-16 -0.1261363 1 1 1
v 0.3688182 3.175531E-16 -0.1999363 1 1 1
v 0.3688182 0.053382 -0.1999363 1 1 1
v 0.3688182 0.053382 -0.1261363 1 1 1
v 0.4386822 0.065682 -0.1999363 1 1 1
v 0.4386822 0.065682 -0.1261363 1 1 1
v 0.3811182 0.065682 -0.1999363 1 1 1
v 0.3811182 0.065682 -0.1261363 1 1 1
v 0.4509822 0.053382 -0.1999363 1 1 1
v 0.4509822 0.053382 -0.1261363 1 1 1
v 0.1311818 2.668428E-16 -0.1261363 1 1 1
v 0.1311818 3.175531E-16 -0.1999363 1 1 1
v 0.04901782 2.668428E-16 -0.1261363 1 1 1
v 0.04901782 3.175531E-16 -0.1999363 1 1 1
v 0.04901782 0.053382 -0.1999363 1 1 1
v 0.04901782 0.053382 -0.1261363 1 1 1
v 0.1188818 0.065682 -0.1999363 1 1 1
v 0.1188818 0.065682 -0.1261363 1 1 1
v 0.06131782 0.065682 -0.1999363 1 1 1
v 0.06131782 0.065682 -0.1261363 1 1 1
v 0.1311818 0.053382 -0.1999363 1 1 1
v 0.1311818 0.053382 -0.1261363 1 1 1
v 0.4160503 0.05348115 -0.5747041 1 1 1
v 0.0839503 0.05348115 -0.5747041 1 1 1
v 0.0839503 0.3671312 -0.03144631 1 1 1
v 0.4160503 0.3671312 -0.03144631 1 1 1
v -0.04901782 2.668428E-16 0.4738635 1 1 1
v -0.04901782 3.175531E-16 0.4000636 1 1 1
v -0.1311818 2.668428E-16 0.4738635 1 1 1
v -0.1311818 3.175531E-16 0.4000636 1 1 1
v -0.1311818 0.053382 0.4000636 1 1 1
v -0.1311818 0.053382 0.4738635 1 1 1
v -0.06131782 0.065682 0.4000636 1 1 1
v -0.06131782 0.065682 0.4738635 1 1 1
v -0.1188818 0.065682 0.4000636 1 1 1
v -0.1188818 0.065682 0.4738635 1 1 1
v -0.04901782 0.053382 0.4000636 1 1 1
v -0.04901782 0.053382 0.4738635 1 1 1
v -0.3688182 2.668428E-16 0.4738635 1 1 1
v -0.3688182 3.175531E-16 0.4000636 1 1 1
v -0.4509822 2.668428E-16 0.4738635 1 1 1
v -0.4509822 3.175531E-16 0.4000636 1 1 1
v -0.4509822 0.053382 0.4000636 1 1 1
v -0.4509822 0.053382 0.4738635 1 1 1
v -0.3811182 0.065682 0.4000636 1 1 1
v -0.3811182 0.065682 0.4738635 1 1 1
v -0.4386822 0.065682 0.4000636 1 1 1
v -0.4386822 0.065682 0.4738635 1 1 1
v -0.3688182 0.053382 0.4000636 1 1 1
v -0.3688182 0.053382 0.4738635 1 1 1
v -0.08395019 0.0534812 0.02529559 1 1 1
v -0.4160501 0.0534812 0.02529559 1 1 1
v -0.4160501 0.3671312 0.5685533 1 1 1
v -0.08395019 0.3671312 0.5685533 1 1 1
v 0.4509822 2.668428E-16 0.4738635 1 1 1
v 0.4509822 3.175531E-16 0.4000636 1 1 1
v 0.3688182 2.668428E-16 0.4738635 1 1 1
v 0.3688182 3.175531E-16 0.4000636 1 1 1
v 0.3688182 0.053382 0.4000636 1 1 1
v 0.3688182 0.053382 0.4738635 1 1 1
v 0.4386822 0.065682 0.4000636 1 1 1
v 0.4386822 0.065682 0.4738635 1 1 1
v 0.3811182 0.065682 0.4000636 1 1 1
v 0.3811182 0.065682 0.4738635 1 1 1
v 0.4509822 0.053382 0.4000636 1 1 1
v 0.4509822 0.053382 0.4738635 1 1 1
v 0.1311818 2.668428E-16 0.4738635 1 1 1
v 0.1311818 3.175531E-16 0.4000636 1 1 1
v 0.04901782 2.668428E-16 0.4738635 1 1 1
v 0.04901782 3.175531E-16 0.4000636 1 1 1
v 0.04901782 0.053382 0.4000636 1 1 1
v 0.04901782 0.053382 0.4738635 1 1 1
v 0.1188818 0.065682 0.4000636 1 1 1
v 0.1188818 0.065682 0.4738635 1 1 1
v 0.06131782 0.065682 0.4000636 1 1 1
v 0.06131782 0.065682 0.4738635 1 1 1
v 0.1311818 0.053382 0.4000636 1 1 1
v 0.1311818 0.053382 0.4738635 1 1 1
v 0.4160503 0.0534812 0.02529559 1 1 1
v 0.0839503 0.0534812 0.02529559 1 1 1
v 0.0839503 0.3671312 0.5685533 1 1 1
v 0.4160503 0.3671312 0.5685533 1 1 1
v -0.2746002 0.2732332 -0.2186821 1 1 1
v -0.2254002 0.2732332 -0.2186821 1 1 1
v -0.2930502 0.2824582 -0.202704 1 1 1
v -0.2069502 0.2824582 -0.202704 1 1 1
v -0.2930502 0.3070583 -0.1600955 1 1 1
v -0.2069502 0.3070583 -0.1600955 1 1 1
v -0.2746002 0.3162833 -0.1441173 1 1 1
v -0.2254002 0.3162833 -0.1441173 1 1 1
v -0.2746002 0.1256333 -0.4743329 1 1 1
v -0.2254002 0.1256333 -0.4743329 1 1 1
v -0.2930502 0.1348583 -0.4583547 1 1 1
v -0.2069502 0.1348583 -0.4583547 1 1 1
v -0.2930502 0.1594582 -0.4157463 1 1 1
v -0.2069502 0.1594582 -0.4157463 1 1 1
v -0.2746002 0.1686832 -0.3997681 1 1 1
v -0.2254002 0.1686832 -0.3997681 1 1 1
v -0.2746002 0.2240333 -0.303899 1 1 1
v -0.2254002 0.2240333 -0.303899 1 1 1
v -0.2930502 0.2332582 -0.2879209 1 1 1
v -0.2069502 0.2332582 -0.2879209 1 1 1
v -0.2930502 0.2578582 -0.2453124 1 1 1
v -0.2069502 0.2578582 -0.2453124 1 1 1
v -0.2746002 0.2670832 -0.2293342 1 1 1
v -0.2254002 0.2670832 -0.2293342 1 1 1
v -0.1762002 0.2732332 -0.2186821 1 1 1
v -0.1270002 0.2732332 -0.2186821 1 1 1
v -0.1946502 0.2824582 -0.202704 1 1 1
v -0.1085502 0.2824582 -0.202704 1 1 1
v -0.1946502 0.3070583 -0.1600955 1 1 1
v -0.1085502 0.3070583 -0.1600955 1 1 1
v -0.1762002 0.3162833 -0.1441173 1 1 1
v -0.1270002 0.3162833 -0.1441173 1 1 1
v -0.2746002 0.3224332 -0.1334652 1 1 1
v -0.2254002 0.3224332 -0.1334652 1 1 1
v -0.2930502 0.3316582 -0.117487 1 1 1
v -0.2069502 0.3316582 -0.117487 1 1 1
v -0.2930502 0.3562582 -0.07487857 1 1 1
v -0.2069502 0.3562582 -0.07487857 1 1 1
v -0.2746002 0.3654832 -0.05890039 1 1 1
v -0.2254002 0.3654832 -0.05890039 1 1 1
v -0.1762002 0.1748332 -0.389116 1 1 1
v -0.1270002 0.1748332 -0.389116 1 1 1
v -0.1946502 0.1840582 -0.3731378 1 1 1
v -0.1085502 0.1840582 -0.3731378 1 1 1
v -0.1946502 0.2086582 -0.3305293 1 1 1
v -0.1085502 0.2086582 -0.3305293 1 1 1
v -0.1762002 0.2178833 -0.3145511 1 1 1
v -0.1270002 0.2178833 -0.3145511 1 1 1
v -0.3730001 0.3224332 -0.1334652 1 1 1
v -0.3238002 0.3224332 -0.1334652 1 1 1
v -0.3914502 0.3316582 -0.117487 1 1 1
v -0.3053502 0.3316582 -0.117487 1 1 1
v -0.3914502 0.3562582 -0.07487857 1 1 1
v -0.3053502 0.3562582 -0.07487857 1 1 1
v -0.3730001 0.3654832 -0.05890039 1 1 1
v -0.3238002 0.3654832 -0.05890039 1 1 1
v -0.3730001 0.07643326 -0.5595498 1 1 1
v -0.3238002 0.07643326 -0.5595498 1 1 1
v -0.3914502 0.08565825 -0.5435717 1 1 1
v -0.3053502 0.08565825 -0.5435717 1 1 1
v -0.3914502 0.1102583 -0.5009632 1 1 1
v -0.3053502 0.1102583 -0.5009632 1 1 1
v -0.3730001 0.1194832 -0.484985 1 1 1
v -0.3238002 0.1194832 -0.484985 1 1 1
v -0.2746002 0.07643326 -0.5595498 1 1 1
v -0.2254002 0.07643326 -0.5595498 1 1 1
v -0.2930502 0.08565825 -0.5435717 1 1 1
v -0.2069502 0.08565825 -0.5435717 1 1 1
v -0.2930502 0.1102583 -0.5009632 1 1 1
v -0.2069502 0.1102583 -0.5009632 1 1 1
v -0.2746002 0.1194832 -0.484985 1 1 1
v -0.2254002 0.1194832 -0.484985 1 1 1
v -0.1762002 0.07643326 -0.5595498 1 1 1
v -0.1270002 0.07643326 -0.5595498 1 1 1
v -0.1946502 0.08565825 -0.5435717 1 1 1
v -0.1085502 0.08565825 -0.5435717 1 1 1
v -0.1946502 0.1102583 -0.5009632 1 1 1
v -0.1085502 0.1102583 -0.5009632 1 1 1
v -0.1762002 0.1194832 -0.484985 1 1 1
v -0.1270002 0.1194832 -0.484985 1 1 1
v -0.1762002 0.1256333 -0.4743329 1 1 1
v -0.1270002 0.1256333 -0.4743329 1 1 1
v -0.1946502 0.1348583 -0.4583547 1 1 1
v -0.1085502 0.1348583 -0.4583547 1 1 1
v -0.1946502 0.1594582 -0.4157463 1 1 1
v -0.1085502 0.1594582 -0.4157463 1 1 1
v -0.1762002 0.1686832 -0.3997681 1 1 1
v -0.1270002 0.1686832 -0.3997681 1 1 1
v -0.2746002 0.1748332 -0.389116 1 1 1
v -0.2254002 0.1748332 -0.389116 1 1 1
v -0.2930502 0.1840582 -0.3731378 1 1 1
v -0.2069502 0.1840582 -0.3731378 1 1 1
v -0.2930502 0.2086582 -0.3305293 1 1 1
v -0.2069502 0.2086582 -0.3305293 1 1 1
v -0.2746002 0.2178833 -0.3145511 1 1 1
v -0.2254002 0.2178833 -0.3145511 1 1 1
v -0.3730001 0.1748332 -0.389116 1 1 1
v -0.3238002 0.1748332 -0.389116 1 1 1
v -0.3914502 0.1840582 -0.3731378 1 1 1
v -0.3053502 0.1840582 -0.3731378 1 1 1
v -0.3914502 0.2086582 -0.3305293 1 1 1
v -0.3053502 0.2086582 -0.3305293 1 1 1
v -0.3730001 0.2178833 -0.3145511 1 1 1
v -0.3238002 0.2178833 -0.3145511 1 1 1
v -0.3730001 0.1256333 -0.4743329 1 1 1
v -0.3238002 0.1256333 -0.4743329 1 1 1
v -0.3914502 0.1348583 -0.4583547 1 1 1
v -0.3053502 0.1348583 -0.4583547 1 1 1
v -0.3914502 0.1594582 -0.4157463 1 1 1
v -0.3053502 0.1594582 -0.4157463 1 1 1
v -0.3730001 0.1686832 -0.3997681 1 1 1
v -0.3238002 0.1686832 -0.3997681 1 1 1
v -0.1762002 0.2240333 -0.303899 1 1 1
v -0.1270002 0.2240333 -0.303899 1 1 1
v -0.1946502 0.2332582 -0.2879209 1 1 1
v -0.1085502 0.2332582 -0.2879209 1 1 1
v -0.1946502 0.2578582 -0.2453124 1 1 1
v -0.1085502 0.2578582 -0.2453124 1 1 1
v -0.1762002 0.2670832 -0.2293342 1 1 1
v -0.1270002 0.2670832 -0.2293342 1 1 1
v -0.3730001 0.2732332 -0.2186821 1 1 1
v -0.3238002 0.2732332 -0.2186821 1 1 1
v -0.3914502 0.2824582 -0.202704 1 1 1
v -0.3053502 0.2824582 -0.202704 1 1 1
v -0.3914502 0.3070583 -0.1600955 1 1 1
v -0.3053502 0.3070583 -0.1600955 1 1 1
v -0.3730001 0.3162833 -0.1441173 1 1 1
v -0.3238002 0.3162833 -0.1441173 1 1 1
v -0.1762002 0.3224332 -0.1334652 1 1 1
v -0.1270002 0.3224332 -0.1334652 1 1 1
v -0.1946502 0.3316582 -0.117487 1 1 1
v -0.1085502 0.3316582 -0.117487 1 1 1
v -0.1946502 0.3562582 -0.07487857 1 1 1
v -0.1085502 0.3562582 -0.07487857 1 1 1
v -0.1762002 0.3654832 -0.05890039 1 1 1
v -0.1270002 0.3654832 -0.05890039 1 1 1
v -0.3730001 0.2240333 -0.303899 1 1 1
v -0.3238002 0.2240333 -0.303899 1 1 1
v -0.3914502 0.2332582 -0.2879209 1 1 1
v -0.3053502 0.2332582 -0.2879209 1 1 1
v -0.3914502 0.2578582 -0.2453124 1 1 1
v -0.3053502 0.2578582 -0.2453124 1 1 1
v -0.3730001 0.2670832 -0.2293342 1 1 1
v -0.3238002 0.2670832 -0.2293342 1 1 1
v 0.2254003 0.2732332 -0.2186821 1 1 1
v 0.2746003 0.2732332 -0.2186821 1 1 1
v 0.2069503 0.2824582 -0.202704 1 1 1
v 0.2930503 0.2824582 -0.202704 1 1 1
v 0.2069503 0.3070583 -0.1600955 1 1 1
v 0.2930503 0.3070583 -0.1600955 1 1 1
v 0.2254003 0.3162833 -0.1441173 1 1 1
v 0.2746003 0.3162833 -0.1441173 1 1 1
v 0.2254003 0.1256333 -0.4743329 1 1 1
v 0.2746003 0.1256333 -0.4743329 1 1 1
v 0.2069503 0.1348583 -0.4583547 1 1 1
v 0.2930503 0.1348583 -0.4583547 1 1 1
v 0.2069503 0.1594582 -0.4157463 1 1 1
v 0.2930503 0.1594582 -0.4157463 1 1 1
v 0.2254003 0.1686832 -0.3997681 1 1 1
v 0.2746003 0.1686832 -0.3997681 1 1 1
v 0.2254003 0.2240333 -0.303899 1 1 1
v 0.2746003 0.2240333 -0.303899 1 1 1
v 0.2069503 0.2332582 -0.2879209 1 1 1
v 0.2930503 0.2332582 -0.2879209 1 1 1
v 0.2069503 0.2578582 -0.2453124 1 1 1
v 0.2930503 0.2578582 -0.2453124 1 1 1
v 0.2254003 0.2670832 -0.2293342 1 1 1
v 0.2746003 0.2670832 -0.2293342 1 1 1
v 0.3238003 0.2732332 -0.2186821 1 1 1
v 0.3730003 0.2732332 -0.2186821 1 1 1
v 0.3053503 0.2824582 -0.202704 1 1 1
v 0.3914503 0.2824582 -0.202704 1 1 1
v 0.3053503 0.3070583 -0.1600955 1 1 1
v 0.3914503 0.3070583 -0.1600955 1 1 1
v 0.3238003 0.3162833 -0.1441173 1 1 1
v 0.3730003 0.3162833 -0.1441173 1 1 1
v 0.2254003 0.3224332 -0.1334652 1 1 1
v 0.2746003 0.3224332 -0.1334652 1 1 1
v 0.2069503 0.3316582 -0.117487 1 1 1
v 0.2930503 0.3316582 -0.117487 1 1 1
v 0.2069503 0.3562582 -0.07487857 1 1 1
v 0.2930503 0.3562582 -0.07487857 1 1 1
v 0.2254003 0.3654832 -0.05890039 1 1 1
v 0.2746003 0.3654832 -0.05890039 1 1 1
v 0.3238003 0.1748332 -0.389116 1 1 1
v 0.3730003 0.1748332 -0.389116 1 1 1
v 0.3053503 0.1840582 -0.3731378 1 1 1
v 0.3914503 0.1840582 -0.3731378 1 1 1
v 0.3053503 0.2086582 -0.3305293 1 1 1
v 0.3914503 0.2086582 -0.3305293 1 1 1
v 0.3238003 0.2178833 -0.3145511 1 1 1
v 0.3730003 0.2178833 -0.3145511 1 1 1
v 0.1270003 0.3224332 -0.1334652 1 1 1
v 0.1762003 0.3224332 -0.1334652 1 1 1
v 0.1085503 0.3316582 -0.117487 1 1 1
v 0.1946503 0.3316582 -0.117487 1 1 1
v 0.1085503 0.3562582 -0.07487857 1 1 1
v 0.1946503 0.3562582 -0.07487857 1 1 1
v 0.1270003 0.3654832 -0.05890039 1 1 1
v 0.1762003 0.3654832 -0.05890039 1 1 1
v 0.1270003 0.07643326 -0.5595498 1 1 1
v 0.1762003 0.07643326 -0.5595498 1 1 1
v 0.1085503 0.08565825 -0.5435717 1 1 1
v 0.1946503 0.08565825 -0.5435717 1 1 1
v 0.1085503 0.1102583 -0.5009632 1 1 1
v 0.1946503 0.1102583 -0.5009632 1 1 1
v 0.1270003 0.1194832 -0.484985 1 1 1
v 0.1762003 0.1194832 -0.484985 1 1 1
v 0.2254003 0.07643326 -0.5595498 1 1 1
v 0.2746003 0.07643326 -0.5595498 1 1 1
v 0.2069503 0.08565825 -0.5435717 1 1 1
v 0.2930503 0.08565825 -0.5435717 1 1 1
v 0.2069503 0.1102583 -0.5009632 1 1 1
v 0.2930503 0.1102583 -0.5009632 1 1 1
v 0.2254003 0.1194832 -0.484985 1 1 1
v 0.2746003 0.1194832 -0.484985 1 1 1
v 0.3238003 0.07643326 -0.5595498 1 1 1
v 0.3730003 0.07643326 -0.5595498 1 1 1
v 0.3053503 0.08565825 -0.5435717 1 1 1
v 0.3914503 0.08565825 -0.5435717 1 1 1
v 0.3053503 0.1102583 -0.5009632 1 1 1
v 0.3914503 0.1102583 -0.5009632 1 1 1
v 0.3238003 0.1194832 -0.484985 1 1 1
v 0.3730003 0.1194832 -0.484985 1 1 1
v 0.3238003 0.1256333 -0.4743329 1 1 1
v 0.3730003 0.1256333 -0.4743329 1 1 1
v 0.3053503 0.1348583 -0.4583547 1 1 1
v 0.3914503 0.1348583 -0.4583547 1 1 1
v 0.3053503 0.1594582 -0.4157463 1 1 1
v 0.3914503 0.1594582 -0.4157463 1 1 1
v 0.3238003 0.1686832 -0.3997681 1 1 1
v 0.3730003 0.1686832 -0.3997681 1 1 1
v 0.2254003 0.1748332 -0.389116 1 1 1
v 0.2746003 0.1748332 -0.389116 1 1 1
v 0.2069503 0.1840582 -0.3731378 1 1 1
v 0.2930503 0.1840582 -0.3731378 1 1 1
v 0.2069503 0.2086582 -0.3305293 1 1 1
v 0.2930503 0.2086582 -0.3305293 1 1 1
v 0.2254003 0.2178833 -0.3145511 1 1 1
v 0.2746003 0.2178833 -0.3145511 1 1 1
v 0.1270003 0.1748332 -0.389116 1 1 1
v 0.1762003 0.1748332 -0.389116 1 1 1
v 0.1085503 0.1840582 -0.3731378 1 1 1
v 0.1946503 0.1840582 -0.3731378 1 1 1
v 0.1085503 0.2086582 -0.3305293 1 1 1
v 0.1946503 0.2086582 -0.3305293 1 1 1
v 0.1270003 0.2178833 -0.3145511 1 1 1
v 0.1762003 0.2178833 -0.3145511 1 1 1
v 0.1270003 0.1256333 -0.4743329 1 1 1
v 0.1762003 0.1256333 -0.4743329 1 1 1
v 0.1085503 0.1348583 -0.4583547 1 1 1
v 0.1946503 0.1348583 -0.4583547 1 1 1
v 0.1085503 0.1594582 -0.4157463 1 1 1
v 0.1946503 0.1594582 -0.4157463 1 1 1
v 0.1270003 0.1686832 -0.3997681 1 1 1
v 0.1762003 0.1686832 -0.3997681 1 1 1
v 0.3238003 0.2240333 -0.303899 1 1 1
v 0.3730003 0.2240333 -0.303899 1 1 1
v 0.3053503 0.2332582 -0.2879209 1 1 1
v 0.3914503 0.2332582 -0.2879209 1 1 1
v 0.3053503 0.2578582 -0.2453124 1 1 1
v 0.3914503 0.2578582 -0.2453124 1 1 1
v 0.3238003 0.2670832 -0.2293342 1 1 1
v 0.3730003 0.2670832 -0.2293342 1 1 1
v 0.1270003 0.2732332 -0.2186821 1 1 1
v 0.1762003 0.2732332 -0.2186821 1 1 1
v 0.1085503 0.2824582 -0.202704 1 1 1
v 0.1946503 0.2824582 -0.202704 1 1 1
v 0.1085503 0.3070583 -0.1600955 1 1 1
v 0.1946503 0.3070583 -0.1600955 1 1 1
v 0.1270003 0.3162833 -0.1441173 1 1 1
v 0.1762003 0.3162833 -0.1441173 1 1 1
v 0.3238003 0.3224332 -0.1334652 1 1 1
v 0.3730003 0.3224332 -0.1334652 1 1 1
v 0.3053503 0.3316582 -0.117487 1 1 1
v 0.3914503 0.3316582 -0.117487 1 1 1
v 0.3053503 0.3562582 -0.07487857 1 1 1
v 0.3914503 0.3562582 -0.07487857 1 1 1
v 0.3238003 0.3654832 -0.05890039 1 1 1
v 0.3730003 0.3654832 -0.05890039 1 1 1
v 0.1270003 0.2240333 -0.303899 1 1 1
v 0.1762003 0.2240333 -0.303899 1 1 1
v 0.1085503 0.2332582 -0.2879209 1 1 1
v 0.1946503 0.2332582 -0.2879209 1 1 1
v 0.1085503 0.2578582 -0.2453124 1 1 1
v 0.1946503 0.2578582 -0.2453124 1 1 1
v 0.1270003 0.2670832 -0.2293342 1 1 1
v 0.1762003 0.2670832 -0.2293342 1 1 1
v -0.2746002 0.2732333 0.3813175 1 1 1
v -0.2254002 0.2732333 0.3813175 1 1 1
v -0.2930502 0.2824583 0.3972957 1 1 1
v -0.2069502 0.2824583 0.3972957 1 1 1
v -0.2930502 0.3070583 0.4399042 1 1 1
v -0.2069502 0.3070583 0.4399042 1 1 1
v -0.2746002 0.3162833 0.4558824 1 1 1
v -0.2254002 0.3162833 0.4558824 1 1 1
v -0.2746002 0.1256333 0.1256667 1 1 1
v -0.2254002 0.1256333 0.1256667 1 1 1
v -0.2930502 0.1348583 0.1416449 1 1 1
v -0.2069502 0.1348583 0.1416449 1 1 1
v -0.2930502 0.1594583 0.1842534 1 1 1
v -0.2069502 0.1594583 0.1842534 1 1 1
v -0.2746002 0.1686833 0.2002316 1 1 1
v -0.2254002 0.1686833 0.2002316 1 1 1
v -0.2746002 0.2240333 0.2961006 1 1 1
v -0.2254002 0.2240333 0.2961006 1 1 1
v -0.2930502 0.2332583 0.3120787 1 1 1
v -0.2069502 0.2332583 0.3120787 1 1 1
v -0.2930502 0.2578583 0.3546872 1 1 1
v -0.2069502 0.2578583 0.3546872 1 1 1
v -0.2746002 0.2670833 0.3706654 1 1 1
v -0.2254002 0.2670833 0.3706654 1 1 1
v -0.1762002 0.2732333 0.3813175 1 1 1
v -0.1270002 0.2732333 0.3813175 1 1 1
v -0.1946502 0.2824583 0.3972957 1 1 1
v -0.1085502 0.2824583 0.3972957 1 1 1
v -0.1946502 0.3070583 0.4399042 1 1 1
v -0.1085502 0.3070583 0.4399042 1 1 1
v -0.1762002 0.3162833 0.4558824 1 1 1
v -0.1270002 0.3162833 0.4558824 1 1 1
v -0.2746002 0.3224333 0.4665344 1 1 1
v -0.2254002 0.3224333 0.4665344 1 1 1
v -0.2930502 0.3316583 0.4825126 1 1 1
v -0.2069502 0.3316583 0.4825126 1 1 1
v -0.2930502 0.3562583 0.525121 1 1 1
v -0.2069502 0.3562583 0.525121 1 1 1
v -0.2746002 0.3654833 0.5410993 1 1 1
v -0.2254002 0.3654833 0.5410993 1 1 1
v -0.1762002 0.1748333 0.2108836 1 1 1
v -0.1270002 0.1748333 0.2108836 1 1 1
v -0.1946502 0.1840583 0.2268618 1 1 1
v -0.1085502 0.1840583 0.2268618 1 1 1
v -0.1946502 0.2086583 0.2694703 1 1 1
v -0.1085502 0.2086583 0.2694703 1 1 1
v -0.1762002 0.2178833 0.2854485 1 1 1
v -0.1270002 0.2178833 0.2854485 1 1 1
v -0.3730001 0.3224333 0.4665344 1 1 1
v -0.3238002 0.3224333 0.4665344 1 1 1
v -0.3914502 0.3316583 0.4825126 1 1 1
v -0.3053502 0.3316583 0.4825126 1 1 1
v -0.3914502 0.3562583 0.525121 1 1 1
v -0.3053502 0.3562583 0.525121 1 1 1
v -0.3730001 0.3654833 0.5410993 1 1 1
v -0.3238002 0.3654833 0.5410993 1 1 1
v -0.3730001 0.07643329 0.0404498 1 1 1
v -0.3238002 0.07643329 0.0404498 1 1 1
v -0.3914502 0.0856583 0.05642799 1 1 1
v -0.3053502 0.0856583 0.05642799 1 1 1
v -0.3914502 0.1102583 0.09903646 1 1 1
v -0.3053502 0.1102583 0.09903646 1 1 1
v -0.3730001 0.1194833 0.1150146 1 1 1
v -0.3238002 0.1194833 0.1150146 1 1 1
v -0.2746002 0.07643329 0.0404498 1 1 1
v -0.2254002 0.07643329 0.0404498 1 1 1
v -0.2930502 0.0856583 0.05642799 1 1 1
v -0.2069502 0.0856583 0.05642799 1 1 1
v -0.2930502 0.1102583 0.09903646 1 1 1
v -0.2069502 0.1102583 0.09903646 1 1 1
v -0.2746002 0.1194833 0.1150146 1 1 1
v -0.2254002 0.1194833 0.1150146 1 1 1
v -0.1762002 0.07643329 0.0404498 1 1 1
v -0.1270002 0.07643329 0.0404498 1 1 1
v -0.1946502 0.0856583 0.05642799 1 1 1
v -0.1085502 0.0856583 0.05642799 1 1 1
v -0.1946502 0.1102583 0.09903646 1 1 1
v -0.1085502 0.1102583 0.09903646 1 1 1
v -0.1762002 0.1194833 0.1150146 1 1 1
v -0.1270002 0.1194833 0.1150146 1 1 1
v -0.1762002 0.1256333 0.1256667 1 1 1
v -0.1270002 0.1256333 0.1256667 1 1 1
v -0.1946502 0.1348583 0.1416449 1 1 1
v -0.1085502 0.1348583 0.1416449 1 1 1
v -0.1946502 0.1594583 0.1842534 1 1 1
v -0.1085502 0.1594583 0.1842534 1 1 1
v -0.1762002 0.1686833 0.2002316 1 1 1
v -0.1270002 0.1686833 0.2002316 1 1 1
v -0.2746002 0.1748333 0.2108836 1 1 1
v -0.2254002 0.1748333 0.2108836 1 1 1
v -0.2930502 0.1840583 0.2268618 1 1 1
v -0.2069502 0.1840583 0.2268618 1 1 1
v -0.2930502 0.2086583 0.2694703 1 1 1
v -0.2069502 0.2086583 0.2694703 1 1 1
v -0.2746002 0.2178833 0.2854485 1 1 1
v -0.2254002 0.2178833 0.2854485 1 1 1
v -0.3730001 0.1748333 0.2108836 1 1 1
v -0.3238002 0.1748333 0.2108836 1 1 1
v -0.3914502 0.1840583 0.2268618 1 1 1
v -0.3053502 0.1840583 0.2268618 1 1 1
v -0.3914502 0.2086583 0.2694703 1 1 1
v -0.3053502 0.2086583 0.2694703 1 1 1
v -0.3730001 0.2178833 0.2854485 1 1 1
v -0.3238002 0.2178833 0.2854485 1 1 1
v -0.3730001 0.1256333 0.1256667 1 1 1
v -0.3238002 0.1256333 0.1256667 1 1 1
v -0.3914502 0.1348583 0.1416449 1 1 1
v -0.3053502 0.1348583 0.1416449 1 1 1
v -0.3914502 0.1594583 0.1842534 1 1 1
v -0.3053502 0.1594583 0.1842534 1 1 1
v -0.3730001 0.1686833 0.2002316 1 1 1
v -0.3238002 0.1686833 0.2002316 1 1 1
v -0.1762002 0.2240333 0.2961006 1 1 1
v -0.1270002 0.2240333 0.2961006 1 1 1
v -0.1946502 0.2332583 0.3120787 1 1 1
v -0.1085502 0.2332583 0.3120787 1 1 1
v -0.1946502 0.2578583 0.3546872 1 1 1
v -0.1085502 0.2578583 0.3546872 1 1 1
v -0.1762002 0.2670833 0.3706654 1 1 1
v -0.1270002 0.2670833 0.3706654 1 1 1
v -0.3730001 0.2732333 0.3813175 1 1 1
v -0.3238002 0.2732333 0.3813175 1 1 1
v -0.3914502 0.2824583 0.3972957 1 1 1
v -0.3053502 0.2824583 0.3972957 1 1 1
v -0.3914502 0.3070583 0.4399042 1 1 1
v -0.3053502 0.3070583 0.4399042 1 1 1
v -0.3730001 0.3162833 0.4558824 1 1 1
v -0.3238002 0.3162833 0.4558824 1 1 1
v -0.1762002 0.3224333 0.4665344 1 1 1
v -0.1270002 0.3224333 0.4665344 1 1 1
v -0.1946502 0.3316583 0.4825126 1 1 1
v -0.1085502 0.3316583 0.4825126 1 1 1
v -0.1946502 0.3562583 0.525121 1 1 1
v -0.1085502 0.3562583 0.525121 1 1 1
v -0.1762002 0.3654833 0.5410993 1 1 1
v -0.1270002 0.3654833 0.5410993 1 1 1
v -0.3730001 0.2240333 0.2961006 1 1 1
v -0.3238002 0.2240333 0.2961006 1 1 1
v -0.3914502 0.2332583 0.3120787 1 1 1
v -0.3053502 0.2332583 0.3120787 1 1 1
v -0.3914502 0.2578583 0.3546872 1 1 1
v -0.3053502 0.2578583 0.3546872 1 1 1
v -0.3730001 0.2670833 0.3706654 1 1 1
v -0.3238002 0.2670833 0.3706654 1 1 1
v 0.2254003 0.2732333 0.3813175 1 1 1
v 0.2746003 0.2732333 0.3813175 1 1 1
v 0.2069503 0.2824583 0.3972957 1 1 1
v 0.2930503 0.2824583 0.3972957 1 1 1
v 0.2069503 0.3070583 0.4399042 1 1 1
v 0.2930503 0.3070583 0.4399042 1 1 1
v 0.2254003 0.3162833 0.4558824 1 1 1
v 0.2746003 0.3162833 0.4558824 1 1 1
v 0.2254003 0.1256333 0.1256667 1 1 1
v 0.2746003 0.1256333 0.1256667 1 1 1
v 0.2069503 0.1348583 0.1416449 1 1 1
v 0.2930503 0.1348583 0.1416449 1 1 1
v 0.2069503 0.1594583 0.1842534 1 1 1
v 0.2930503 0.1594583 0.1842534 1 1 1
v 0.2254003 0.1686833 0.2002316 1 1 1
v 0.2746003 0.1686833 0.2002316 1 1 1
v 0.2254003 0.2240333 0.2961006 1 1 1
v 0.2746003 0.2240333 0.2961006 1 1 1
v 0.2069503 0.2332583 0.3120787 1 1 1
v 0.2930503 0.2332583 0.3120787 1 1 1
v 0.2069503 0.2578583 0.3546872 1 1 1
v 0.2930503 0.2578583 0.3546872 1 1 1
v 0.2254003 0.2670833 0.3706654 1 1 1
v 0.2746003 0.2670833 0.3706654 1 1 1
v 0.3238003 0.2732333 0.3813175 1 1 1
v 0.3730003 0.2732333 0.3813175 1 1 1
v 0.3053503 0.2824583 0.3972957 1 1 1
v 0.3914503 0.2824583 0.3972957 1 1 1
v 0.3053503 0.3070583 0.4399042 1 1 1
v 0.3914503 0.3070583 0.4399042 1 1 1
v 0.3238003 0.3162833 0.4558824 1 1 1
v 0.3730003 0.3162833 0.4558824 1 1 1
v 0.2254003 0.3224333 0.4665344 1 1 1
v 0.2746003 0.3224333 0.4665344 1 1 1
v 0.2069503 0.3316583 0.4825126 1 1 1
v 0.2930503 0.3316583 0.4825126 1 1 1
v 0.2069503 0.3562583 0.525121 1 1 1
v 0.2930503 0.3562583 0.525121 1 1 1
v 0.2254003 0.3654833 0.5410993 1 1 1
v 0.2746003 0.3654833 0.5410993 1 1 1
v 0.3238003 0.1748333 0.2108836 1 1 1
v 0.3730003 0.1748333 0.2108836 1 1 1
v 0.3053503 0.1840583 0.2268618 1 1 1
v 0.3914503 0.1840583 0.2268618 1 1 1
v 0.3053503 0.2086583 0.2694703 1 1 1
v 0.3914503 0.2086583 0.2694703 1 1 1
v 0.3238003 0.2178833 0.2854485 1 1 1
v 0.3730003 0.2178833 0.2854485 1 1 1
v 0.1270003 0.3224333 0.4665344 1 1 1
v 0.1762003 0.3224333 0.4665344 1 1 1
v 0.1085503 0.3316583 0.4825126 1 1 1
v 0.1946503 0.3316583 0.4825126 1 1 1
v 0.1085503 0.3562583 0.525121 1 1 1
v 0.1946503 0.3562583 0.525121 1 1 1
v 0.1270003 0.3654833 0.5410993 1 1 1
v 0.1762003 0.3654833 0.5410993 1 1 1
v 0.1270003 0.07643329 0.0404498 1 1 1
v 0.1762003 0.07643329 0.0404498 1 1 1
v 0.1085503 0.0856583 0.05642799 1 1 1
v 0.1946503 0.0856583 0.05642799 1 1 1
v 0.1085503 0.1102583 0.09903646 1 1 1
v 0.1946503 0.1102583 0.09903646 1 1 1
v 0.1270003 0.1194833 0.1150146 1 1 1
v 0.1762003 0.1194833 0.1150146 1 1 1
v 0.2254003 0.07643329 0.0404498 1 1 1
v 0.2746003 0.07643329 0.0404498 1 1 1
v 0.2069503 0.0856583 0.05642799 1 1 1
v 0.2930503 0.0856583 0.05642799 1 1 1
v 0.2069503 0.1102583 0.09903646 1 1 1
v 0.2930503 0.1102583 0.09903646 1 1 1
v 0.2254003 0.1194833 0.1150146 1 1 1
v 0.2746003 0.1194833 0.1150146 1 1 1
v 0.3238003 0.07643329 0.0404498 1 1 1
v 0.3730003 0.07643329 0.0404498 1 1 1
v 0.3053503 0.0856583 0.05642799 1 1 1
v 0.3914503 0.0856583 0.05642799 1 1 1
v 0.3053503 0.1102583 0.09903646 1 1 1
v 0.3914503 0.1102583 0.09903646 1 1 1
v 0.3238003 0.1194833 0.1150146 1 1 1
v 0.3730003 0.1194833 0.1150146 1 1 1
v 0.3238003 0.1256333 0.1256667 1 1 1
v 0.3730003 0.1256333 0.1256667 1 1 1
v 0.3053503 0.1348583 0.1416449 1 1 1
v 0.3914503 0.1348583 0.1416449 1 1 1
v 0.3053503 0.1594583 0.1842534 1 1 1
v 0.3914503 0.1594583 0.1842534 1 1 1
v 0.3238003 0.1686833 0.2002316 1 1 1
v 0.3730003 0.1686833 0.2002316 1 1 1
v 0.2254003 0.1748333 0.2108836 1 1 1
v 0.2746003 0.1748333 0.2108836 1 1 1
v 0.2069503 0.1840583 0.2268618 1 1 1
v 0.2930503 0.1840583 0.2268618 1 1 1
v 0.2069503 0.2086583 0.2694703 1 1 1
v 0.2930503 0.2086583 0.2694703 1 1 1
v 0.2254003 0.2178833 0.2854485 1 1 1
v 0.2746003 0.2178833 0.2854485 1 1 1
v 0.1270003 0.1748333 0.2108836 1 1 1
v 0.1762003 0.1748333 0.2108836 1 1 1
v 0.1085503 0.1840583 0.2268618 1 1 1
v 0.1946503 0.1840583 0.2268618 1 1 1
v 0.1085503 0.2086583 0.2694703 1 1 1
v 0.1946503 0.2086583 0.2694703 1 1 1
v 0.1270003 0.2178833 0.2854485 1 1 1
v 0.1762003 0.2178833 0.2854485 1 1 1
v 0.1270003 0.1256333 0.1256667 1 1 1
v 0.1762003 0.1256333 0.1256667 1 1 1
v 0.1085503 0.1348583 0.1416449 1 1 1
v 0.1946503 0.1348583 0.1416449 1 1 1
v 0.1085503 0.1594583 0.1842534 1 1 1
v 0.1946503 0.1594583 0.1842534 1 1 1
v 0.1270003 0.1686833 0.2002316 1 1 1
v 0.1762003 0.1686833 0.2002316 1 1 1
v 0.3238003 0.2240333 0.2961006 1 1 1
v 0.3730003 0.2240333 0.2961006 1 1 1
v 0.3053503 0.2332583 0.3120787 1 1 1
v 0.3914503 0.2332583 0.3120787 1 1 1
v 0.3053503 0.2578583 0.3546872 1 1 1
v 0.3914503 0.2578583 0.3546872 1 1 1
v 0.3238003 0.2670833 0.3706654 1 1 1
v 0.3730003 0.2670833 0.3706654 1 1 1
v 0.1270003 0.2732333 0.3813175 1 1 1
v 0.1762003 0.2732333 0.3813175 1 1 1
v 0.1085503 0.2824583 0.3972957 1 1 1
v 0.1946503 0.2824583 0.3972957 1 1 1
v 0.1085503 0.3070583 0.4399042 1 1 1
v 0.1946503 0.3070583 0.4399042 1 1 1
v 0.1270003 0.3162833 0.4558824 1 1 1
v 0.1762003 0.3162833 0.4558824 1 1 1
v 0.3238003 0.3224333 0.4665344 1 1 1
v 0.3730003 0.3224333 0.4665344 1 1 1
v 0.3053503 0.3316583 0.4825126 1 1 1
v 0.3914503 0.3316583 0.4825126 1 1 1
v 0.3053503 0.3562583 0.525121 1 1 1
v 0.3914503 0.3562583 0.525121 1 1 1
v 0.3238003 0.3654833 0.5410993 1 1 1
v 0.3730003 0.3654833 0.5410993 1 1 1
v 0.1270003 0.2240333 0.2961006 1 1 1
v 0.1762003 0.2240333 0.2961006 1 1 1
v 0.1085503 0.2332583 0.3120787 1 1 1
v 0.1946503 0.2332583 0.3120787 1 1 1
v 0.1085503 0.2578583 0.3546872 1 1 1
v 0.1946503 0.2578583 0.3546872 1 1 1
v 0.1270003 0.2670833 0.3706654 1 1 1
v 0.1762003 0.2670833 0.3706654 1 1 1

vn 0 -1 0
vn 0 1 0
vn 1 0 0
vn 0 0 1
vn -1 0 0
vn 0 0 -1
vn 0.3826834 0.4619398 0.8001032
vn 0.9238794 0.1913417 0.3314136
vn 0.3826834 -0.4619398 -0.8001032
vn 0.9238794 -0.1913417 -0.3314136
vn -0.3826834 0.4619398 0.8001032
vn -0.9238794 0.1913417 0.3314136
vn -0.3826834 -0.4619398 -0.8001032
vn -0.9238794 -0.1913417 -0.3314136
vn 0 0.8660254 -0.5000001
vn 0 -0.8660254 0.5000001
vn 0 -1 9.775888E-17
vn -0.9238795 0.3826835 -3.741071E-17
vn 0.3826835 0.9238795 -9.031743E-17
vn -0.3826835 0.9238795 -9.031743E-17
vn 0.9238795 0.3826835 -3.741071E-17
vn 0 -9.775888E-17 -1
vn 0 9.775888E-17 1
vn -0.5773502 0.7886752 0.2113248
vn 0.5773502 0.7886752 0.2113248
vn 0.5773502 0.2113248 -0.7886752
vn -0.5773502 0.2113248 -0.7886752
vn 0 0.8660256 -0.5
vn 0 -0.8660256 0.5

vt 0.59375 0.275
vt 0.59375 0.475
vt 0.59375 0.301603
vt 0.71875 0.275
vt 0.71875 0.4375468
vt 0.71875 0.475
vt 0.71875 0.395
vt 0.71875 0.145
vt 0.84375 0.1611702
vt 0.84375 0.1675532
vt 0.84375 0.1845745
vt 0.84375 0.1909575
vt 0.84375 0.05904255
vt 0.84375 0.06542553
vt 0.84375 0.0824468
vt 0.84375 0.08882979
vt 0.84375 0.1271277
vt 0.84375 0.1335106
vt 0.84375 0.1505319
vt 0.84375 0.1569149
vt 0.84375 0.1952128
vt 0.84375 0.2015957
vt 0.84375 0.218617
vt 0.84375 0.225
vt 0.84375 0.0930851
vt 0.84375 0.09946809
vt 0.84375 0.1164894
vt 0.84375 0.1228723
vt 0.84375 0.025
vt 0.84375 0.03138298
vt 0.84375 0.04840425
vt 0.84375 0.05478723
vt 0.59375 0.03138298
vt 0.59375 0.025
vt 0.59375 0.04840425
vt 0.59375 0.05478723
vt 0.59375 0.09946809
vt 0.59375 0.0930851
vt 0.59375 0.1164894
vt 0.59375 0.1228723

usemtl colormap

f 3/1/1 2/1/1 1/1/1
f 2/1/1 3/1/1 4/1/1
f 7/2/2 6/2/2 5/2/2
f 6/2/2 7/2/2 8/2/2
f 6/2/3 2/1/3 5/2/3
f 2/1/3 6/2/3 1/1/3
f 6/2/4 3/1/4 1/1/4
f 3/1/4 6/2/4 8/2/4
f 3/1/5 7/2/5 4/1/5
f 7/2/5 3/1/5 8/2/5
f 11/1/1 10/1/1 9/1/1
f 10/1/1 11/1/1 12/1/1
f 15/2/2 14/2/2 13/2/2
f 14/2/2 15/2/2 16/2/2
f 14/2/3 10/1/3 13/2/3
f 10/1/3 14/2/3 9/1/3
f 14/2/4 11/1/4 9/1/4
f 11/1/4 14/2/4 16/2/4
f 11/1/5 15/2/5 12/1/5
f 15/2/5 11/1/5 16/2/5
f 19/2/5 18/1/5 17/3/5
f 18/1/5 19/2/5 20/2/5
f 20/2/1 22/2/1 21/2/1
f 22/2/1 20/2/1 19/2/1
f 24/1/3 22/2/3 23/3/3
f 22/2/3 24/1/3 21/2/3
f 17/3/6 22/2/6 19/2/6
f 22/2/6 17/3/6 23/3/6
f 24/1/4 20/2/4 21/2/4
f 20/2/4 24/1/4 18/1/4
f 27/2/5 26/1/5 25/3/5
f 26/1/5 27/2/5 28/2/5
f 28/2/1 30/2/1 29/2/1
f 30/2/1 28/2/1 27/2/1
f 32/1/3 30/2/3 31/3/3
f 30/2/3 32/1/3 29/2/3
f 25/3/6 30/2/6 27/2/6
f 30/2/6 25/3/6 31/3/6
f 32/1/4 28/2/4 29/2/4
f 28/2/4 32/1/4 26/1/4
f 35/1/8 34/2/7 33/1/7
f 34/2/7 35/1/8 36/2/8
f 39/2/9 38/1/10 37/1/9
f 38/1/10 39/2/9 40/2/10
f 43/2/11 42/1/12 41/1/11
f 42/1/12 43/2/11 44/2/12
f 47/1/14 46/2/13 45/1/13
f 46/2/13 47/1/14 48/2/14
f 46/2/13 37/1/9 45/1/13
f 37/1/9 46/2/13 39/2/9
f 34/2/7 41/1/11 33/1/7
f 41/1/11 34/2/7 43/2/11
f 42/1/12 48/2/14 47/1/14
f 48/2/14 42/1/12 44/2/12
f 39/2/15 36/2/15 40/2/15
f 36/2/15 39/2/15 34/2/15
f 34/2/15 39/2/15 49/2/15
f 49/2/15 39/2/15 46/2/15
f 50/2/15 34/2/15 49/2/15
f 49/2/15 46/2/15 51/2/15
f 34/2/15 50/2/15 43/2/15
f 51/2/15 46/2/15 52/2/15
f 43/2/15 50/2/15 52/2/15
f 43/2/15 52/2/15 46/2/15
f 43/2/15 46/2/15 48/2/15
f 43/2/15 48/2/15 44/2/15
f 36/2/8 38/1/10 40/2/10
f 38/1/10 36/2/8 35/1/8
f 33/1/16 38/1/16 35/1/16
f 38/1/16 33/1/16 37/1/16
f 37/1/16 33/1/16 41/1/16
f 37/1/16 41/1/16 45/1/16
f 45/1/16 41/1/16 42/1/16
f 45/1/16 42/1/16 47/1/16
f 55/1/1 54/1/1 53/1/1
f 54/1/1 55/1/1 56/1/1
f 59/2/2 58/2/2 57/2/2
f 58/2/2 59/2/2 60/2/2
f 58/2/3 54/1/3 57/2/3
f 54/1/3 58/2/3 53/1/3
f 58/2/4 55/1/4 53/1/4
f 55/1/4 58/2/4 60/2/4
f 55/1/5 59/2/5 56/1/5
f 59/2/5 55/1/5 60/2/5
f 63/1/1 62/1/1 61/1/1
f 62/1/1 63/1/1 64/1/1
f 67/2/2 66/2/2 65/2/2
f 66/2/2 67/2/2 68/2/2
f 66/2/3 62/1/3 65/2/3
f 62/1/3 66/2/3 61/1/3
f 66/2/4 63/1/4 61/1/4
f 63/1/4 66/2/4 68/2/4
f 63/1/5 67/2/5 64/1/5
f 67/2/5 63/1/5 68/2/5
f 71/2/5 70/1/5 69/3/5
f 70/1/5 71/2/5 72/2/5
f 72/2/1 74/2/1 73/2/1
f 74/2/1 72/2/1 71/2/1
f 76/1/3 74/2/3 75/3/3
f 74/2/3 76/1/3 73/2/3
f 69/3/6 74/2/6 71/2/6
f 74/2/6 69/3/6 75/3/6
f 76/1/4 72/2/4 73/2/4
f 72/2/4 76/1/4 70/1/4
f 79/2/5 78/1/5 77/3/5
f 78/1/5 79/2/5 80/2/5
f 80/2/1 82/2/1 81/2/1
f 82/2/1 80/2/1 79/2/1
f 84/1/3 82/2/3 83/3/3
f 82/2/3 84/1/3 81/2/3
f 77/3/6 82/2/6 79/2/6
f 82/2/6 77/3/6 83/3/6
f 84/1/4 80/2/4 81/2/4
f 80/2/4 84/1/4 78/1/4
f 87/1/8 86/2/7 85/1/7
f 86/2/7 87/1/8 88/2/8
f 91/2/9 90/1/10 89/1/9
f 90/1/10 91/2/9 92/2/10
f 95/2/11 94/1/12 93/1/11
f 94/1/12 95/2/11 96/2/12
f 99/1/14 98/2/13 97/1/13
f 98/2/13 99/1/14 100/2/14
f 98/2/13 89/1/9 97/1/13
f 89/1/9 98/2/13 91/2/9
f 86/2/7 93/1/11 85/1/7
f 93/1/11 86/2/7 95/2/11
f 94/1/12 100/2/14 99/1/14
f 100/2/14 94/1/12 96/2/12
f 91/2/15 88/2/15 92/2/15
f 88/2/15 91/2/15 86/2/15
f 86/2/15 91/2/15 101/2/15
f 101/2/15 91/2/15 98/2/15
f 102/2/15 86/2/15 101/2/15
f 101/2/15 98/2/15 103/2/15
f 86/2/15 102/2/15 95/2/15
f 103/2/15 98/2/15 104/2/15
f 95/2/15 102/2/15 104/2/15
f 95/2/15 104/2/15 98/2/15
f 95/2/15 98/2/15 100/2/15
f 95/2/15 100/2/15 96/2/15
f 88/2/8 90/1/10 92/2/10
f 90/1/10 88/2/8 87/1/8
f 85/1/16 90/1/16 87/1/16
f 90/1/16 85/1/16 89/1/16
f 89/1/16 85/1/16 93/1/16
f 89/1/16 93/1/16 97/1/16
f 97/1/16 93/1/16 94/1/16
f 97/1/16 94/1/16 99/1/16
f 107/1/1 106/1/1 105/1/1
f 106/1/1 107/1/1 108/1/1
f 111/2/2 110/2/2 109/2/2
f 110/2/2 111/2/2 112/2/2
f 110/2/3 106/1/3 109/2/3
f 106/1/3 110/2/3 105/1/3
f 110/2/4 107/1/4 105/1/4
f 107/1/4 110/2/4 112/2/4
f 107/1/5 111/2/5 108/1/5
f 111/2/5 107/1/5 112/2/5
f 115/1/1 114/1/1 113/1/1
f 114/1/1 115/1/1 116/1/1
f 119/2/2 118/2/2 117/2/2
f 118/2/2 119/2/2 120/2/2
f 118/2/3 114/1/3 117/2/3
f 114/1/3 118/2/3 113/1/3
f 118/2/4 115/1/4 113/1/4
f 115/1/4 118/2/4 120/2/4
f 115/1/5 119/2/5 116/1/5
f 119/2/5 115/1/5 120/2/5
f 123/2/5 122/1/5 121/3/5
f 122/1/5 123/2/5 124/2/5
f 124/2/1 126/2/1 125/2/1
f 126/2/1 124/2/1 123/2/1
f 128/1/3 126/2/3 127/3/3
f 126/2/3 128/1/3 125/2/3
f 121/3/6 126/2/6 123/2/6
f 126/2/6 121/3/6 127/3/6
f 128/1/4 124/2/4 125/2/4
f 124/2/4 128/1/4 122/1/4
f 131/2/5 130/1/5 129/3/5
f 130/1/5 131/2/5 132/2/5
f 132/2/1 134/2/1 133/2/1
f 134/2/1 132/2/1 131/2/1
f 136/1/3 134/2/3 135/3/3
f 134/2/3 136/1/3 133/2/3
f 129/3/6 134/2/6 131/2/6
f 134/2/6 129/3/6 135/3/6
f 136/1/4 132/2/4 133/2/4
f 132/2/4 136/1/4 130/1/4
f 139/1/8 138/2/7 137/1/7
f 138/2/7 139/1/8 140/2/8
f 143/2/9 142/1/10 141/1/9
f 142/1/10 143/2/9 144/2/10
f 147/2/11 146/1/12 145/1/11
f 146/1/12 147/2/11 148/2/12
f 151/1/14 150/2/13 149/1/13
f 150/2/13 151/1/14 152/2/14
f 150/2/13 141/1/9 149/1/13
f 141/1/9 150/2/13 143/2/9
f 138/2/7 145/1/11 137/1/7
f 145/1/11 138/2/7 147/2/11
f 146/1/12 152/2/14 151/1/14
f 152/2/14 146/1/12 148/2/12
f 143/2/15 140/2/15 144/2/15
f 140/2/15 143/2/15 138/2/15
f 138/2/15 143/2/15 153/2/15
f 153/2/15 143/2/15 150/2/15
f 154/2/15 138/2/15 153/2/15
f 153/2/15 150/2/15 155/2/15
f 138/2/15 154/2/15 147/2/15
f 155/2/15 150/2/15 156/2/15
f 147/2/15 154/2/15 156/2/15
f 147/2/15 156/2/15 150/2/15
f 147/2/15 150/2/15 152/2/15
f 147/2/15 152/2/15 148/2/15
f 140/2/8 142/1/10 144/2/10
f 142/1/10 140/2/8 139/1/8
f 137/1/16 142/1/16 139/1/16
f 142/1/16 137/1/16 141/1/16
f 141/1/16 137/1/16 145/1/16
f 141/1/16 145/1/16 149/1/16
f 149/1/16 145/1/16 146/1/16
f 149/1/16 146/1/16 151/1/16
f 159/1/1 158/1/1 157/1/1
f 158/1/1 159/1/1 160/1/1
f 163/2/2 162/2/2 161/2/2
f 162/2/2 163/2/2 164/2/2
f 162/2/3 158/1/3 161/2/3
f 158/1/3 162/2/3 157/1/3
f 162/2/4 159/1/4 157/1/4
f 159/1/4 162/2/4 164/2/4
f 159/1/5 163/2/5 160/1/5
f 163/2/5 159/1/5 164/2/5
f 167/1/1 166/1/1 165/1/1
f 166/1/1 167/1/1 168/1/1
f 171/2/2 170/2/2 169/2/2
f 170/2/2 171/2/2 172/2/2
f 170/2/3 166/1/3 169/2/3
f 166/1/3 170/2/3 165/1/3
f 170/2/4 167/1/4 165/1/4
f 167/1/4 170/2/4 172/2/4
f 167/1/5 171/2/5 168/1/5
f 171/2/5 167/1/5 172/2/5
f 175/2/5 174/1/5 173/3/5
f 174/1/5 175/2/5 176/2/5
f 176/2/1 178/2/1 177/2/1
f 178/2/1 176/2/1 175/2/1
f 180/1/3 178/2/3 179/3/3
f 178/2/3 180/1/3 177/2/3
f 173/3/6 178/2/6 175/2/6
f 178/2/6 173/3/6 179/3/6
f 180/1/4 176/2/4 177/2/4
f 176/2/4 180/1/4 174/1/4
f 183/2/5 182/1/5 181/3/5
f 182/1/5 183/2/5 184/2/5
f 184/2/1 186/2/1 185/2/1
f 186/2/1 184/2/1 183/2/1
f 188/1/3 186/2/3 187/3/3
f 186/2/3 188/1/3 185/2/3
f 181/3/6 186/2/6 183/2/6
f 186/2/6 181/3/6 187/3/6
f 188/1/4 184/2/4 185/2/4
f 184/2/4 188/1/4 182/1/4
f 191/1/8 190/2/7 189/1/7
f 190/2/7 191/1/8 192/2/8
f 195/2/9 194/1/10 193/1/9
f 194/1/10 195/2/9 196/2/10
f 199/2/11 198/1/12 197/1/11
f 198/1/12 199/2/11 200/2/12
f 203/1/14 202/2/13 201/1/13
f 202/2/13 203/1/14 204/2/14
f 202/2/13 193/1/9 201/1/13
f 193/1/9 202/2/13 195/2/9
f 190/2/7 197/1/11 189/1/7
f 197/1/11 190/2/7 199/2/11
f 198/1/12 204/2/14 203/1/14
f 204/2/14 198/1/12 200/2/12
f 195/2/15 192/2/15 196/2/15
f 192/2/15 195/2/15 190/2/15
f 190/2/15 195/2/15 205/2/15
f 205/2/15 195/2/15 202/2/15
f 206/2/15 190/2/15 205/2/15
f 205/2/15 202/2/15 207/2/15
f 190/2/15 206/2/15 199/2/15
f 207/2/15 202/2/15 208/2/15
f 199/2/15 206/2/15 208/2/15
f 199/2/15 208/2/15 202/2/15
f 199/2/15 202/2/15 204/2/15
f 199/2/15 204/2/15 200/2/15
f 192/2/8 194/1/10 196/2/10
f 194/1/10 192/2/8 191/1/8
f 189/1/16 194/1/16 191/1/16
f 194/1/16 189/1/16 193/1/16
f 193/1/16 189/1/16 197/1/16
f 193/1/16 197/1/16 201/1/16
f 201/1/16 197/1/16 198/1/16
f 201/1/16 198/1/16 203/1/16
f 211/4/17 210/4/17 209/4/17
f 210/4/17 211/4/17 212/4/17
f 211/4/5 213/5/18 212/4/5
f 213/5/18 211/4/5 214/5/18
f 217/6/20 216/6/19 215/6/19
f 216/6/19 217/6/20 218/6/20
f 220/5/21 210/4/3 219/5/21
f 210/4/3 220/5/21 209/4/3
f 213/5/18 218/6/20 217/6/20
f 218/6/20 213/5/18 214/5/18
f 215/6/19 220/5/21 219/5/21
f 220/5/21 215/6/19 216/6/19
f 213/5/22 210/4/22 212/4/22
f 210/4/22 213/5/22 219/5/22
f 219/5/22 213/5/22 217/6/22
f 219/5/22 217/6/22 215/6/22
f 220/5/23 211/4/23 209/4/23
f 211/4/23 220/5/23 214/5/23
f 214/5/23 220/5/23 216/6/23
f 214/5/23 216/6/23 218/6/23
f 223/4/17 222/4/17 221/4/17
f 222/4/17 223/4/17 224/4/17
f 223/4/5 225/5/18 224/4/5
f 225/5/18 223/4/5 226/5/18
f 229/6/20 228/6/19 227/6/19
f 228/6/19 229/6/20 230/6/20
f 232/5/21 222/4/3 231/5/21
f 222/4/3 232/5/21 221/4/3
f 225/5/18 230/6/20 229/6/20
f 230/6/20 225/5/18 226/5/18
f 227/6/19 232/5/21 231/5/21
f 232/5/21 227/6/19 228/6/19
f 225/5/22 222/4/22 224/4/22
f 222/4/22 225/5/22 231/5/22
f 231/5/22 225/5/22 229/6/22
f 231/5/22 229/6/22 227/6/22
f 232/5/23 223/4/23 221/4/23
f 223/4/23 232/5/23 226/5/23
f 226/5/23 232/5/23 228/6/23
f 226/5/23 228/6/23 230/6/23
f 49/6/24 234/7/25 233/7/24
f 234/7/25 49/6/24 51/6/25
f 52/6/26 236/7/27 235/7/26
f 236/7/27 52/6/26 50/6/27
f 52/6/26 234/7/25 51/6/25
f 234/7/25 52/6/26 235/7/26
f 233/7/24 50/6/27 49/6/24
f 50/6/27 233/7/24 236/7/27
f 239/4/17 238/4/17 237/4/17
f 238/4/17 239/4/17 240/4/17
f 239/4/5 241/5/18 240/4/5
f 241/5/18 239/4/5 242/5/18
f 245/6/20 244/6/19 243/6/19
f 244/6/19 245/6/20 246/6/20
f 248/5/21 238/4/3 247/5/21
f 238/4/3 248/5/21 237/4/3
f 241/5/18 246/6/20 245/6/20
f 246/6/20 241/5/18 242/5/18
f 243/6/19 248/5/21 247/5/21
f 248/5/21 243/6/19 244/6/19
f 241/5/22 238/4/22 240/4/22
f 238/4/22 241/5/22 247/5/22
f 247/5/22 241/5/22 245/6/22
f 247/5/22 245/6/22 243/6/22
f 248/5/23 239/4/23 237/4/23
f 239/4/23 248/5/23 242/5/23
f 242/5/23 248/5/23 244/6/23
f 242/5/23 244/6/23 246/6/23
f 251/4/17 250/4/17 249/4/17
f 250/4/17 251/4/17 252/4/17
f 251/4/5 253/5/18 252/4/5
f 253/5/18 251/4/5 254/5/18
f 257/6/20 256/6/19 255/6/19
f 256/6/19 257/6/20 258/6/20
f 260/5/21 250/4/3 259/5/21
f 250/4/3 260/5/21 249/4/3
f 253/5/18 258/6/20 257/6/20
f 258/6/20 253/5/18 254/5/18
f 255/6/19 260/5/21 259/5/21
f 260/5/21 255/6/19 256/6/19
f 253/5/22 250/4/22 252/4/22
f 250/4/22 253/5/22 259/5/22
f 259/5/22 253/5/22 257/6/22
f 259/5/22 257/6/22 255/6/22
f 260/5/23 251/4/23 249/4/23
f 251/4/23 260/5/23 254/5/23
f 254/5/23 260/5/23 256/6/23
f 254/5/23 256/6/23 258/6/23
f 101/6/24 262/7/25 261/7/24
f 262/7/25 101/6/24 103/6/25
f 104/6/26 264/7/27 263/7/26
f 264/7/27 104/6/26 102/6/27
f 104/6/26 262/7/25 103/6/25
f 262/7/25 104/6/26 263/7/26
f 261/7/24 102/6/27 101/6/24
f 102/6/27 261/7/24 264/7/27
f 267/4/17 266/4/17 265/4/17
f 266/4/17 267/4/17 268/4/17
f 267/4/5 269/5/18 268/4/5
f 269/5/18 267/4/5 270/5/18
f 273/6/20 272/6/19 271/6/19
f 272/6/19 273/6/20 274/6/20
f 276/5/21 266/4/3 275/5/21
f 266/4/3 276/5/21 265/4/3
f 269/5/18 274/6/20 273/6/20
f 274/6/20 269/5/18 270/5/18
f 271/6/19 276/5/21 275/5/21
f 276/5/21 271/6/19 272/6/19
f 269/5/22 266/4/22 268/4/22
f 266/4/22 269/5/22 275/5/22
f 275/5/22 269/5/22 273/6/22
f 275/5/22 273/6/22 271/6/22
f 276/5/23 267/4/23 265/4/23
f 267/4/23 276/5/23 270/5/23
f 270/5/23 276/5/23 272/6/23
f 270/5/23 272/6/23 274/6/23
f 279/4/17 278/4/17 277/4/17
f 278/4/17 279/4/17 280/4/17
f 279/4/5 281/5/18 280/4/5
f 281/5/18 279/4/5 282/5/18
f 285/6/20 284/6/19 283/6/19
f 284/6/19 285/6/20 286/6/20
f 288/5/21 278/4/3 287/5/21
f 278/4/3 288/5/21 277/4/3
f 281/5/18 286/6/20 285/6/20
f 286/6/20 281/5/18 282/5/18
f 283/6/19 288/5/21 287/5/21
f 288/5/21 283/6/19 284/6/19
f 281/5/22 278/4/22 280/4/22
f 278/4/22 281/5/22 287/5/22
f 287/5/22 281/5/22 285/6/22
f 287/5/22 285/6/22 283/6/22
f 288/5/23 279/4/23 277/4/23
f 279/4/23 288/5/23 282/5/23
f 282/5/23 288/5/23 284/6/23
f 282/5/23 284/6/23 286/6/23
f 153/6/24 290/7/25 289/7/24
f 290/7/25 153/6/24 155/6/25
f 156/6/26 292/7/27 291/7/26
f 292/7/27 156/6/26 154/6/27
f 156/6/26 290/7/25 155/6/25
f 290/7/25 156/6/26 291/7/26
f 289/7/24 154/6/27 153/6/24
f 154/6/27 289/7/24 292/7/27
f 295/4/17 294/4/17 293/4/17
f 294/4/17 295/4/17 296/4/17
f 295/4/5 297/5/18 296/4/5
f 297/5/18 295/4/5 298/5/18
f 301/6/20 300/6/19 299/6/19
f 300/6/19 301/6/20 302/6/20
f 304/5/21 294/4/3 303/5/21
f 294/4/3 304/5/21 293/4/3
f 297/5/18 302/6/20 301/6/20
f 302/6/20 297/5/18 298/5/18
f 299/6/19 304/5/21 303/5/21
f 304/5/21 299/6/19 300/6/19
f 297/5/22 294/4/22 296/4/22
f 294/4/22 297/5/22 303/5/22
f 303/5/22 297/5/22 301/6/22
f 303/5/22 301/6/22 299/6/22
f 304/5/23 295/4/23 293/4/23
f 295/4/23 304/5/23 298/5/23
f 298/5/23 304/5/23 300/6/23
f 298/5/23 300/6/23 302/6/23
f 307/4/17 306/4/17 305/4/17
f 306/4/17 307/4/17 308/4/17
f 307/4/5 309/5/18 308/4/5
f 309/5/18 307/4/5 310/5/18
f 313/6/20 312/6/19 311/6/19
f 312/6/19 313/6/20 314/6/20
f 316/5/21 306/4/3 315/5/21
f 306/4/3 316/5/21 305/4/3
f 309/5/18 314/6/20 313/6/20
f 314/6/20 309/5/18 310/5/18
f 311/6/19 316/5/21 315/5/21
f 316/5/21 311/6/19 312/6/19
f 309/5/22 306/4/22 308/4/22
f 306/4/22 309/5/22 315/5/22
f 315/5/22 309/5/22 313/6/22
f 315/5/22 313/6/22 311/6/22
f 316/5/23 307/4/23 305/4/23
f 307/4/23 316/5/23 310/5/23
f 310/5/23 316/5/23 312/6/23
f 310/5/23 312/6/23 314/6/23
f 205/6/24 318/7/25 317/7/24
f 318/7/25 205/6/24 207/6/25
f 208/6/26 320/7/27 319/7/26
f 320/7/27 208/6/26 206/6/27
f 208/6/26 318/7/25 207/6/25
f 318/7/25 208/6/26 319/7/26
f 317/7/24 206/6/27 205/6/24
f 206/6/27 317/7/24 320/7/27

usemtl colormap-specular

f 234/8/15 236/8/15 233/8/15
f 236/8/15 234/8/15 235/8/15
f 262/8/15 264/8/15 261/8/15
f 264/8/15 262/8/15 263/8/15
f 290/8/15 292/8/15 289/8/15
f 292/8/15 290/8/15 291/8/15
f 318/8/15 320/8/15 317/8/15
f 320/8/15 318/8/15 319/8/15
f 323/10/28 322/9/28 321/9/28
f 322/9/28 323/10/28 324/10/28
f 324/10/28 323/10/28 325/11/28
f 324/10/28 325/11/28 326/11/28
f 326/11/28 325/11/28 327/12/28
f 326/11/28 327/12/28 328/12/28
f 331/14/28 330/13/28 329/13/28
f 330/13/28 331/14/28 332/14/28
f 332/14/28 331/14/28 333/15/28
f 332/14/28 333/15/28 334/15/28
f 334/15/28 333/15/28 335/16/28
f 334/15/28 335/16/28 336/16/28
f 339/18/28 338/17/28 337/17/28
f 338/17/28 339/18/28 340/18/28
f 340/18/28 339/18/28 341/19/28
f 340/18/28 341/19/28 342/19/28
f 342/19/28 341/19/28 343/20/28
f 342/19/28 343/20/28 344/20/28
f 347/10/28 346/9/28 345/9/28
f 346/9/28 347/10/28 348/10/28
f 348/10/28 347/10/28 349/11/28
f 348/10/28 349/11/28 350/11/28
f 350/11/28 349/11/28 351/12/28
f 350/11/28 351/12/28 352/12/28
f 355/22/28 354/21/28 353/21/28
f 354/21/28 355/22/28 356/22/28
f 356/22/28 355/22/28 357/23/28
f 356/22/28 357/23/28 358/23/28
f 358/23/28 357/23/28 359/24/28
f 358/23/28 359/24/28 360/24/28
f 363/26/28 362/25/28 361/25/28
f 362/25/28 363/26/28 364/26/28
f 364/26/28 363/26/28 365/27/28
f 364/26/28 365/27/28 366/27/28
f 366/27/28 365/27/28 367/28/28
f 366/27/28 367/28/28 368/28/28
f 371/22/28 370/21/28 369/21/28
f 370/21/28 371/22/28 372/22/28
f 372/22/28 371/22/28 373/23/28
f 372/22/28 373/23/28 374/23/28
f 374/23/28 373/23/28 375/24/28
f 374/23/28 375/24/28 376/24/28
f 379/30/28 378/29/28 377/29/28
f 378/29/28 379/30/28 380/30/28
f 380/30/28 379/30/28 381/31/28
f 380/30/28 381/31/28 382/31/28
f 382/31/28 381/31/28 383/32/28
f 382/31/28 383/32/28 384/32/28
f 387/30/28 386/29/28 385/29/28
f 386/29/28 387/30/28 388/30/28
f 388/30/28 387/30/28 389/31/28
f 388/30/28 389/31/28 390/31/28
f 390/31/28 389/31/28 391/32/28
f 390/31/28 391/32/28 392/32/28
f 395/30/28 394/29/28 393/29/28
f 394/29/28 395/30/28 396/30/28
f 396/30/28 395/30/28 397/31/28
f 396/30/28 397/31/28 398/31/28
f 398/31/28 397/31/28 399/32/28
f 398/31/28 399/32/28 400/32/28
f 403/14/28 402/13/28 401/13/28
f 402/13/28 403/14/28 404/14/28
f 404/14/28 403/14/28 405/15/28
f 404/14/28 405/15/28 406/15/28
f 406/15/28 405/15/28 407/16/28
f 406/15/28 407/16/28 408/16/28
f 411/26/28 410/25/28 409/25/28
f 410/25/28 411/26/28 412/26/28
f 412/26/28 411/26/28 413/27/28
f 412/26/28 413/27/28 414/27/28
f 414/27/28 413/27/28 415/28/28
f 414/27/28 415/28/28 416/28/28
f 419/26/28 418/25/28 417/25/28
f 418/25/28 419/26/28 420/26/28
f 420/26/28 419/26/28 421/27/28
f 420/26/28 421/27/28 422/27/28
f 422/27/28 421/27/28 423/28/28
f 422/27/28 423/28/28 424/28/28
f 427/14/28 426/13/28 425/13/28
f 426/13/28 427/14/28 428/14/28
f 428/14/28 427/14/28 429/15/28
f 428/14/28 429/15/28 430/15/28
f 430/15/28 429/15/28 431/16/28
f 430/15/28 431/16/28 432/16/28
f 435/18/28 434/17/28 433/17/28
f 434/17/28 435/18/28 436/18/28
f 436/18/28 435/18/28 437/19/28
f 436/18/28 437/19/28 438/19/28
f 438/19/28 437/19/28 439/20/28
f 438/19/28 439/20/28 440/20/28
f 443/10/28 442/9/28 441/9/28
f 442/9/28 443/10/28 444/10/28
f 444/10/28 443/10/28 445/11/28
f 444/10/28 445/11/28 446/11/28
f 446/11/28 445/11/28 447/12/28
f 446/11/28 447/12/28 448/12/28
f 451/22/28 450/21/28 449/21/28
f 450/21/28 451/22/28 452/22/28
f 452/22/28 451/22/28 453/23/28
f 452/22/28 453/23/28 454/23/28
f 454/23/28 453/23/28 455/24/28
f 454/23/28 455/24/28 456/24/28
f 459/18/28 458/17/28 457/17/28
f 458/17/28 459/18/28 460/18/28
f 460/18/28 459/18/28 461/19/28
f 460/18/28 461/19/28 462/19/28
f 462/19/28 461/19/28 463/20/28
f 462/19/28 463/20/28 464/20/28
f 467/10/28 466/9/28 465/9/28
f 466/9/28 467/10/28 468/10/28
f 468/10/28 467/10/28 469/11/28
f 468/10/28 469/11/28 470/11/28
f 470/11/28 469/11/28 471/12/28
f 470/11/28 471/12/28 472/12/28
f 475/14/28 474/13/28 473/13/28
f 474/13/28 475/14/28 476/14/28
f 476/14/28 475/14/28 477/15/28
f 476/14/28 477/15/28 478/15/28
f 478/15/28 477/15/28 479/16/28
f 478/15/28 479/16/28 480/16/28
f 483/18/28 482/17/28 481/17/28
f 482/17/28 483/18/28 484/18/28
f 484/18/28 483/18/28 485/19/28
f 484/18/28 485/19/28 486/19/28
f 486/19/28 485/19/28 487/20/28
f 486/19/28 487/20/28 488/20/28
f 491/10/28 490/9/28 489/9/28
f 490/9/28 491/10/28 492/10/28
f 492/10/28 491/10/28 493/11/28
f 492/10/28 493/11/28 494/11/28
f 494/11/28 493/11/28 495/12/28
f 494/11/28 495/12/28 496/12/28
f 499/22/28 498/21/28 497/21/28
f 498/21/28 499/22/28 500/22/28
f 500/22/28 499/22/28 501/23/28
f 500/22/28 501/23/28 502/23/28
f 502/23/28 501/23/28 503/24/28
f 502/23/28 503/24/28 504/24/28
f 507/26/28 506/25/28 505/25/28
f 506/25/28 507/26/28 508/26/28
f 508/26/28 507/26/28 509/27/28
f 508/26/28 509/27/28 510/27/28
f 510/27/28 509/27/28 511/28/28
f 510/27/28 511/28/28 512/28/28
f 515/22/28 514/21/28 513/21/28
f 514/21/28 515/22/28 516/22/28
f 516/22/28 515/22/28 517/23/28
f 516/22/28 517/23/28 518/23/28
f 518/23/28 517/23/28 519/24/28
f 518/23/28 519/24/28 520/24/28
f 523/30/28 522/29/28 521/29/28
f 522/29/28 523/30/28 524/30/28
f 524/30/28 523/30/28 525/31/28
f 524/30/28 525/31/28 526/31/28
f 526/31/28 525/31/28 527/32/28
f 526/31/28 527/32/28 528/32/28
f 531/30/28 530/29/28 529/29/28
f 530/29/28 531/30/28 532/30/28
f 532/30/28 531/30/28 533/31/28
f 532/30/28 533/31/28 534/31/28
f 534/31/28 533/31/28 535/32/28
f 534/31/28 535/32/28 536/32/28
f 539/30/28 538/29/28 537/29/28
f 538/29/28 539/30/28 540/30/28
f 540/30/28 539/30/28 541/31/28
f 540/30/28 541/31/28 542/31/28
f 542/31/28 541/31/28 543/32/28
f 542/31/28 543/32/28 544/32/28
f 547/14/28 546/13/28 545/13/28
f 546/13/28 547/14/28 548/14/28
f 548/14/28 547/14/28 549/15/28
f 548/14/28 549/15/28 550/15/28
f 550/15/28 549/15/28 551/16/28
f 550/15/28 551/16/28 552/16/28
f 555/26/28 554/25/28 553/25/28
f 554/25/28 555/26/28 556/26/28
f 556/26/28 555/26/28 557/27/28
f 556/26/28 557/27/28 558/27/28
f 558/27/28 557/27/28 559/28/28
f 558/27/28 559/28/28 560/28/28
f 563/26/28 562/25/28 561/25/28
f 562/25/28 563/26/28 564/26/28
f 564/26/28 563/26/28 565/27/28
f 564/26/28 565/27/28 566/27/28
f 566/27/28 565/27/28 567/28/28
f 566/27/28 567/28/28 568/28/28
f 571/14/28 570/13/28 569/13/28
f 570/13/28 571/14/28 572/14/28
f 572/14/28 571/14/28 573/15/28
f 572/14/28 573/15/28 574/15/28
f 574/15/28 573/15/28 575/16/28
f 574/15/28 575/16/28 576/16/28
f 579/18/28 578/17/28 577/17/28
f 578/17/28 579/18/28 580/18/28
f 580/18/28 579/18/28 581/19/28
f 580/18/28 581/19/28 582/19/28
f 582/19/28 581/19/28 583/20/28
f 582/19/28 583/20/28 584/20/28
f 587/10/28 586/9/28 585/9/28
f 586/9/28 587/10/28 588/10/28
f 588/10/28 587/10/28 589/11/28
f 588/10/28 589/11/28 590/11/28
f 590/11/28 589/11/28 591/12/28
f 590/11/28 591/12/28 592/12/28
f 595/22/28 594/21/28 593/21/28
f 594/21/28 595/22/28 596/22/28
f 596/22/28 595/22/28 597/23/28
f 596/22/28 597/23/28 598/23/28
f 598/23/28 597/23/28 599/24/28
f 598/23/28 599/24/28 600/24/28
f 603/18/28 602/17/28 601/17/28
f 602/17/28 603/18/28 604/18/28
f 604/18/28 603/18/28 605/19/28
f 604/18/28 605/19/28 606/19/28
f 606/19/28 605/19/28 607/20/28
f 606/19/28 607/20/28 608/20/28
f 611/10/28 610/9/28 609/9/28
f 610/9/28 611/10/28 612/10/28
f 612/10/28 611/10/28 613/11/28
f 612/10/28 613/11/28 614/11/28
f 614/11/28 613/11/28 615/12/28
f 614/11/28 615/12/28 616/12/28
f 619/14/28 618/13/28 617/13/28
f 618/13/28 619/14/28 620/14/28
f 620/14/28 619/14/28 621/15/28
f 620/14/28 621/15/28 622/15/28
f 622/15/28 621/15/28 623/16/28
f 622/15/28 623/16/28 624/16/28
f 627/18/28 626/17/28 625/17/28
f 626/17/28 627/18/28 628/18/28
f 628/18/28 627/18/28 629/19/28
f 628/18/28 629/19/28 630/19/28
f 630/19/28 629/19/28 631/20/28
f 630/19/28 631/20/28 632/20/28
f 635/10/28 634/9/28 633/9/28
f 634/9/28 635/10/28 636/10/28
f 636/10/28 635/10/28 637/11/28
f 636/10/28 637/11/28 638/11/28
f 638/11/28 637/11/28 639/12/28
f 638/11/28 639/12/28 640/12/28
f 643/22/28 642/21/28 641/21/28
f 642/21/28 643/22/28 644/22/28
f 644/22/28 643/22/28 645/23/28
f 644/22/28 645/23/28 646/23/28
f 646/23/28 645/23/28 647/24/28
f 646/23/28 647/24/28 648/24/28
f 651/26/28 650/25/28 649/25/28
f 650/25/28 651/26/28 652/26/28
f 652/26/28 651/26/28 653/27/28
f 652/26/28 653/27/28 654/27/28
f 654/27/28 653/27/28 655/28/28
f 654/27/28 655/28/28 656/28/28
f 659/22/28 658/21/28 657/21/28
f 658/21/28 659/22/28 660/22/28
f 660/22/28 659/22/28 661/23/28
f 660/22/28 661/23/28 662/23/28
f 662/23/28 661/23/28 663/24/28
f 662/23/28 663/24/28 664/24/28
f 667/30/28 666/29/28 665/29/28
f 666/29/28 667/30/28 668/30/28
f 668/30/28 667/30/28 669/31/28
f 668/30/28 669/31/28 670/31/28
f 670/31/28 669/31/28 671/32/28
f 670/31/28 671/32/28 672/32/28
f 675/30/28 674/29/28 673/29/28
f 674/29/28 675/30/28 676/30/28
f 676/30/28 675/30/28 677/31/28
f 676/30/28 677/31/28 678/31/28
f 678/31/28 677/31/28 679/32/28
f 678/31/28 679/32/28 680/32/28
f 683/30/28 682/29/28 681/29/28
f 682/29/28 683/30/28 684/30/28
f 684/30/28 683/30/28 685/31/28
f 684/30/28 685/31/28 686/31/28
f 686/31/28 685/31/28 687/32/28
f 686/31/28 687/32/28 688/32/28
f 691/14/28 690/13/28 689/13/28
f 690/13/28 691/14/28 692/14/28
f 692/14/28 691/14/28 693/15/28
f 692/14/28 693/15/28 694/15/28
f 694/15/28 693/15/28 695/16/28
f 694/15/28 695/16/28 696/16/28
f 699/26/28 698/25/28 697/25/28
f 698/25/28 699/26/28 700/26/28
f 700/26/28 699/26/28 701/27/28
f 700/26/28 701/27/28 702/27/28
f 702/27/28 701/27/28 703/28/28
f 702/27/28 703/28/28 704/28/28
f 707/26/28 706/25/28 705/25/28
f 706/25/28 707/26/28 708/26/28
f 708/26/28 707/26/28 709/27/28
f 708/26/28 709/27/28 710/27/28
f 710/27/28 709/27/28 711/28/28
f 710/27/28 711/28/28 712/28/28
f 715/14/28 714/13/28 713/13/28
f 714/13/28 715/14/28 716/14/28
f 716/14/28 715/14/28 717/15/28
f 716/14/28 717/15/28 718/15/28
f 718/15/28 717/15/28 719/16/28
f 718/15/28 719/16/28 720/16/28
f 723/18/28 722/17/28 721/17/28
f 722/17/28 723/18/28 724/18/28
f 724/18/28 723/18/28 725/19/28
f 724/18/28 725/19/28 726/19/28
f 726/19/28 725/19/28 727/20/28
f 726/19/28 727/20/28 728/20/28
f 731/10/28 730/9/28 729/9/28
f 730/9/28 731/10/28 732/10/28
f 732/10/28 731/10/28 733/11/28
f 732/10/28 733/11/28 734/11/28
f 734/11/28 733/11/28 735/12/28
f 734/11/28 735/12/28 736/12/28
f 739/22/28 738/21/28 737/21/28
f 738/21/28 739/22/28 740/22/28
f 740/22/28 739/22/28 741/23/28
f 740/22/28 741/23/28 742/23/28
f 742/23/28 741/23/28 743/24/28
f 742/23/28 743/24/28 744/24/28
f 747/18/28 746/17/28 745/17/28
f 746/17/28 747/18/28 748/18/28
f 748/18/28 747/18/28 749/19/28
f 748/18/28 749/19/28 750/19/28
f 750/19/28 749/19/28 751/20/28
f 750/19/28 751/20/28 752/20/28
f 755/10/28 754/9/28 753/9/28
f 754/9/28 755/10/28 756/10/28
f 756/10/28 755/10/28 757/11/28
f 756/10/28 757/11/28 758/11/28
f 758/11/28 757/11/28 759/12/28
f 758/11/28 759/12/28 760/12/28
f 763/14/28 762/13/28 761/13/28
f 762/13/28 763/14/28 764/14/28
f 764/14/28 763/14/28 765/15/28
f 764/14/28 765/15/28 766/15/28
f 766/15/28 765/15/28 767/16/28
f 766/15/28 767/16/28 768/16/28
f 771/18/28 770/17/28 769/17/28
f 770/17/28 771/18/28 772/18/28
f 772/18/28 771/18/28 773/19/28
f 772/18/28 773/19/28 774/19/28
f 774/19/28 773/19/28 775/20/28
f 774/19/28 775/20/28 776/20/28
f 779/10/28 778/9/28 777/9/28
f 778/9/28 779/10/28 780/10/28
f 780/10/28 779/10/28 781/11/28
f 780/10/28 781/11/28 782/11/28
f 782/11/28 781/11/28 783/12/28
f 782/11/28 783/12/28 784/12/28
f 787/22/28 786/21/28 785/21/28
f 786/21/28 787/22/28 788/22/28
f 788/22/28 787/22/28 789/23/28
f 788/22/28 789/23/28 790/23/28
f 790/23/28 789/23/28 791/24/28
f 790/23/28 791/24/28 792/24/28
f 795/26/28 794/25/28 793/25/28
f 794/25/28 795/26/28 796/26/28
f 796/26/28 795/26/28 797/27/28
f 796/26/28 797/27/28 798/27/28
f 798/27/28 797/27/28 799/28/28
f 798/27/28 799/28/28 800/28/28
f 803/22/28 802/21/28 801/21/28
f 802/21/28 803/22/28 804/22/28
f 804/22/28 803/22/28 805/23/28
f 804/22/28 805/23/28 806/23/28
f 806/23/28 805/23/28 807/24/28
f 806/23/28 807/24/28 808/24/28
f 811/30/28 810/29/28 809/29/28
f 810/29/28 811/30/28 812/30/28
f 812/30/28 811/30/28 813/31/28
f 812/30/28 813/31/28 814/31/28
f 814/31/28 813/31/28 815/32/28
f 814/31/28 815/32/28 816/32/28
f 819/30/28 818/29/28 817/29/28
f 818/29/28 819/30/28 820/30/28
f 820/30/28 819/30/28 821/31/28
f 820/30/28 821/31/28 822/31/28
f 822/31/28 821/31/28 823/32/28
f 822/31/28 823/32/28 824/32/28
f 827/30/28 826/29/28 825/29/28
f 826/29/28 827/30/28 828/30/28
f 828/30/28 827/30/28 829/31/28
f 828/30/28 829/31/28 830/31/28
f 830/31/28 829/31/28 831/32/28
f 830/31/28 831/32/28 832/32/28
f 835/14/28 834/13/28 833/13/28
f 834/13/28 835/14/28 836/14/28
f 836/14/28 835/14/28 837/15/28
f 836/14/28 837/15/28 838/15/28
f 838/15/28 837/15/28 839/16/28
f 838/15/28 839/16/28 840/16/28
f 843/26/28 842/25/28 841/25/28
f 842/25/28 843/26/28 844/26/28
f 844/26/28 843/26/28 845/27/28
f 844/26/28 845/27/28 846/27/28
f 846/27/28 845/27/28 847/28/28
f 846/27/28 847/28/28 848/28/28
f 851/26/28 850/25/28 849/25/28
f 850/25/28 851/26/28 852/26/28
f 852/26/28 851/26/28 853/27/28
f 852/26/28 853/27/28 854/27/28
f 854/27/28 853/27/28 855/28/28
f 854/27/28 855/28/28 856/28/28
f 859/14/28 858/13/28 857/13/28
f 858/13/28 859/14/28 860/14/28
f 860/14/28 859/14/28 861/15/28
f 860/14/28 861/15/28 862/15/28
f 862/15/28 861/15/28 863/16/28
f 862/15/28 863/16/28 864/16/28
f 867/18/28 866/17/28 865/17/28
f 866/17/28 867/18/28 868/18/28
f 868/18/28 867/18/28 869/19/28
f 868/18/28 869/19/28 870/19/28
f 870/19/28 869/19/28 871/20/28
f 870/19/28 871/20/28 872/20/28
f 875/10/28 874/9/28 873/9/28
f 874/9/28 875/10/28 876/10/28
f 876/10/28 875/10/28 877/11/28
f 876/10/28 877/11/28 878/11/28
f 878/11/28 877/11/28 879/12/28
f 878/11/28 879/12/28 880/12/28
f 883/22/28 882/21/28 881/21/28
f 882/21/28 883/22/28 884/22/28
f 884/22/28 883/22/28 885/23/28
f 884/22/28 885/23/28 886/23/28
f 886/23/28 885/23/28 887/24/28
f 886/23/28 887/24/28 888/24/28
f 891/18/28 890/17/28 889/17/28
f 890/17/28 891/18/28 892/18/28
f 892/18/28 891/18/28 893/19/28
f 892/18/28 893/19/28 894/19/28
f 894/19/28 893/19/28 895/20/28
f 894/19/28 895/20/28 896/20/28
f 377/34/29 378/34/29 379/33/29
f 380/33/29 379/33/29 378/34/29
f 381/35/29 379/33/29 380/33/29
f 382/35/29 381/35/29 380/33/29
f 383/36/29 381/35/29 382/35/29
f 384/36/29 383/36/29 382/35/29
f 417/38/29 418/38/29 419/37/29
f 420/37/29 419/37/29 418/38/29
f 421/39/29 419/37/29 420/37/29
f 422/39/29 421/39/29 420/37/29
f 423/40/29 421/39/29 422/39/29
f 424/40/29 423/40/29 422/39/29
f 521/34/29 522/34/29 523/33/29
f 524/33/29 523/33/29 522/34/29
f 525/35/29 523/33/29 524/33/29
f 526/35/29 525/35/29 524/33/29
f 527/36/29 525/35/29 526/35/29
f 528/36/29 527/36/29 526/35/29
f 561/38/29 562/38/29 563/37/29
f 564/37/29 563/37/29 562/38/29
f 565/39/29 563/37/29 564/37/29
f 566/39/29 565/39/29 564/37/29
f 567/40/29 565/39/29 566/39/29
f 568/40/29 567/40/29 566/39/29
f 665/34/29 666/34/29 667/33/29
f 668/33/29 667/33/29 666/34/29
f 669/35/29 667/33/29 668/33/29
f 670/35/29 669/35/29 668/33/29
f 671/36/29 669/35/29 670/35/29
f 672/36/29 671/36/29 670/35/29
f 705/38/29 706/38/29 707/37/29
f 708/37/29 707/37/29 706/38/29
f 709/39/29 707/37/29 708/37/29
f 710/39/29 709/39/29 708/37/29
f 711/40/29 709/39/29 710/39/29
f 712/40/29 711/40/29 710/39/29
f 809/34/29 810/34/29 811/33/29
f 812/33/29 811/33/29 810/34/29
f 813/35/29 811/33/29 812/33/29
f 814/35/29 813/35/29 812/33/29
f 815/36/29 813/35/29 814/35/29
f 816/36/29 815/36/29 814/35/29
f 849/38/29 850/38/29 851/37/29
f 852/37/29 851/37/29 850/38/29
f 853/39/29 851/37/29 852/37/29
f 854/39/29 853/39/29 852/37/29
f 855/40/29 853/39/29 854/39/29
f 856/40/29 855/40/29 854/39/29

g solar-panel-portrait-group




usemtl colormap

f 3/1/1 2/1/1 1/1/1
f 2/1/1 3/1/1 4/1/1
f 7/2/2 6/2/2 5/2/2
f 6/2/2 7/2/2 8/2/2
f 6/2/3 2/1/3 5/2/3
f 2/1/3 6/2/3 1/1/3
f 6/2/4 3/1/4 1/1/4
f 3/1/4 6/2/4 8/2/4
f 3/1/5 7/2/5 4/1/5
f 7/2/5 3/1/5 8/2/5
f 11/1/1 10/1/1 9/1/1
f 10/1/1 11/1/1 12/1/1
f 15/2/2 14/2/2 13/2/2
f 14/2/2 15/2/2 16/2/2
f 14/2/3 10/1/3 13/2/3
f 10/1/3 14/2/3 9/1/3
f 14/2/4 11/1/4 9/1/4
f 11/1/4 14/2/4 16/2/4
f 11/1/5 15/2/5 12/1/5
f 15/2/5 11/1/5 16/2/5
f 19/2/5 18/1/5 17/3/5
f 18/1/5 19/2/5 20/2/5
f 20/2/1 22/2/1 21/2/1
f 22/2/1 20/2/1 19/2/1
f 24/1/3 22/2/3 23/3/3
f 22/2/3 24/1/3 21/2/3
f 17/3/6 22/2/6 19/2/6
f 22/2/6 17/3/6 23/3/6
f 24/1/4 20/2/4 21/2/4
f 20/2/4 24/1/4 18/1/4
f 27/2/5 26/1/5 25/3/5
f 26/1/5 27/2/5 28/2/5
f 28/2/1 30/2/1 29/2/1
f 30/2/1 28/2/1 27/2/1
f 32/1/3 30/2/3 31/3/3
f 30/2/3 32/1/3 29/2/3
f 25/3/6 30/2/6 27/2/6
f 30/2/6 25/3/6 31/3/6
f 32/1/4 28/2/4 29/2/4
f 28/2/4 32/1/4 26/1/4
f 35/1/8 34/2/7 33/1/7
f 34/2/7 35/1/8 36/2/8
f 39/2/9 38/1/10 37/1/9
f 38/1/10 39/2/9 40/2/10
f 43/2/11 42/1/12 41/1/11
f 42/1/12 43/2/11 44/2/12
f 47/1/14 46/2/13 45/1/13
f 46/2/13 47/1/14 48/2/14
f 46/2/13 37/1/9 45/1/13
f 37/1/9 46/2/13 39/2/9
f 34/2/7 41/1/11 33/1/7
f 41/1/11 34/2/7 43/2/11
f 42/1/12 48/2/14 47/1/14
f 48/2/14 42/1/12 44/2/12
f 39/2/15 36/2/15 40/2/15
f 36/2/15 39/2/15 34/2/15
f 34/2/15 39/2/15 49/2/15
f 49/2/15 39/2/15 46/2/15
f 50/2/15 34/2/15 49/2/15
f 49/2/15 46/2/15 51/2/15
f 34/2/15 50/2/15 43/2/15
f 51/2/15 46/2/15 52/2/15
f 43/2/15 50/2/15 52/2/15
f 43/2/15 52/2/15 46/2/15
f 43/2/15 46/2/15 48/2/15
f 43/2/15 48/2/15 44/2/15
f 36/2/8 38/1/10 40/2/10
f 38/1/10 36/2/8 35/1/8
f 33/1/16 38/1/16 35/1/16
f 38/1/16 33/1/16 37/1/16
f 37/1/16 33/1/16 41/1/16
f 37/1/16 41/1/16 45/1/16
f 45/1/16 41/1/16 42/1/16
f 45/1/16 42/1/16 47/1/16
f 55/1/1 54/1/1 53/1/1
f 54/1/1 55/1/1 56/1/1
f 59/2/2 58/2/2 57/2/2
f 58/2/2 59/2/2 60/2/2
f 58/2/3 54/1/3 57/2/3
f 54/1/3 58/2/3 53/1/3
f 58/2/4 55/1/4 53/1/4
f 55/1/4 58/2/4 60/2/4
f 55/1/5 59/2/5 56/1/5
f 59/2/5 55/1/5 60/2/5
f 63/1/1 62/1/1 61/1/1
f 62/1/1 63/1/1 64/1/1
f 67/2/2 66/2/2 65/2/2
f 66/2/2 67/2/2 68/2/2
f 66/2/3 62/1/3 65/2/3
f 62/1/3 66/2/3 61/1/3
f 66/2/4 63/1/4 61/1/4
f 63/1/4 66/2/4 68/2/4
f 63/1/5 67/2/5 64/1/5
f 67/2/5 63/1/5 68/2/5
f 71/2/5 70/1/5 69/3/5
f 70/1/5 71/2/5 72/2/5
f 72/2/1 74/2/1 73/2/1
f 74/2/1 72/2/1 71/2/1
f 76/1/3 74/2/3 75/3/3
f 74/2/3 76/1/3 73/2/3
f 69/3/6 74/2/6 71/2/6
f 74/2/6 69/3/6 75/3/6
f 76/1/4 72/2/4 73/2/4
f 72/2/4 76/1/4 70/1/4
f 79/2/5 78/1/5 77/3/5
f 78/1/5 79/2/5 80/2/5
f 80/2/1 82/2/1 81/2/1
f 82/2/1 80/2/1 79/2/1
f 84/1/3 82/2/3 83/3/3
f 82/2/3 84/1/3 81/2/3
f 77/3/6 82/2/6 79/2/6
f 82/2/6 77/3/6 83/3/6
f 84/1/4 80/2/4 81/2/4
f 80/2/4 84/1/4 78/1/4
f 87/1/8 86/2/7 85/1/7
f 86/2/7 87/1/8 88/2/8
f 91/2/9 90/1/10 89/1/9
f 90/1/10 91/2/9 92/2/10
f 95/2/11 94/1/12 93/1/11
f 94/1/12 95/2/11 96/2/12
f 99/1/14 98/2/13 97/1/13
f 98/2/13 99/1/14 100/2/14
f 98/2/13 89/1/9 97/1/13
f 89/1/9 98/2/13 91/2/9
f 86/2/7 93/1/11 85/1/7
f 93/1/11 86/2/7 95/2/11
f 94/1/12 100/2/14 99/1/14
f 100/2/14 94/1/12 96/2/12
f 91/2/15 88/2/15 92/2/15
f 88/2/15 91/2/15 86/2/15
f 86/2/15 91/2/15 101/2/15
f 101/2/15 91/2/15 98/2/15
f 102/2/15 86/2/15 101/2/15
f 101/2/15 98/2/15 103/2/15
f 86/2/15 102/2/15 95/2/15
f 103/2/15 98/2/15 104/2/15
f 95/2/15 102/2/15 104/2/15
f 95/2/15 104/2/15 98/2/15
f 95/2/15 98/2/15 100/2/15
f 95/2/15 100/2/15 96/2/15
f 88/2/8 90/1/10 92/2/10
f 90/1/10 88/2/8 87/1/8
f 85/1/16 90/1/16 87/1/16
f 90/1/16 85/1/16 89/1/16
f 89/1/16 85/1/16 93/1/16
f 89/1/16 93/1/16 97/1/16
f 97/1/16 93/1/16 94/1/16
f 97/1/16 94/1/16 99/1/16
f 107/1/1 106/1/1 105/1/1
f 106/1/1 107/1/1 108/1/1
f 111/2/2 110/2/2 109/2/2
f 110/2/2 111/2/2 112/2/2
f 110/2/3 106/1/3 109/2/3
f 106/1/3 110/2/3 105/1/3
f 110/2/4 107/1/4 105/1/4
f 107/1/4 110/2/4 112/2/4
f 107/1/5 111/2/5 108/1/5
f 111/2/5 107/1/5 112/2/5
f 115/1/1 114/1/1 113/1/1
f 114/1/1 115/1/1 116/1/1
f 119/2/2 118/2/2 117/2/2
f 118/2/2 119/2/2 120/2/2
f 118/2/3 114/1/3 117/2/3
f 114/1/3 118/2/3 113/1/3
f 118/2/4 115/1/4 113/1/4
f 115/1/4 118/2/4 120/2/4
f 115/1/5 119/2/5 116/1/5
f 119/2/5 115/1/5 120/2/5
f 123/2/5 122/1/5 121/3/5
f 122/1/5 123/2/5 124/2/5
f 124/2/1 126/2/1 125/2/1
f 126/2/1 124/2/1 123/2/1
f 128/1/3 126/2/3 127/3/3
f 126/2/3 128/1/3 125/2/3
f 121/3/6 126/2/6 123/2/6
f 126/2/6 121/3/6 127/3/6
f 128/1/4 124/2/4 125/2/4
f 124/2/4 128/1/4 122/1/4
f 131/2/5 130/1/5 129/3/5
f 130/1/5 131/2/5 132/2/5
f 132/2/1 134/2/1 133/2/1
f 134/2/1 132/2/1 131/2/1
f 136/1/3 134/2/3 135/3/3
f 134/2/3 136/1/3 133/2/3
f 129/3/6 134/2/6 131/2/6
f 134/2/6 129/3/6 135/3/6
f 136/1/4 132/2/4 133/2/4
f 132/2/4 136/1/4 130/1/4
f 139/1/8 138/2/7 137/1/7
f 138/2/7 139/1/8 140/2/8
f 143/2/9 142/1/10 141/1/9
f 142/1/10 143/2/9 144/2/10
f 147/2/11 146/1/12 145/1/11
f 146/1/12 147/2/11 148/2/12
f 151/1/14 150/2/13 149/1/13
f 150/2/13 151/1/14 152/2/14
f 150/2/13 141/1/9 149/1/13
f 141/1/9 150/2/13 143/2/9
f 138/2/7 145/1/11 137/1/7
f 145/1/11 138/2/7 147/2/11
f 146/1/12 152/2/14 151/1/14
f 152/2/14 146/1/12 148/2/12
f 143/2/15 140/2/15 144/2/15
f 140/2/15 143/2/15 138/2/15
f 138/2/15 143/2/15 153/2/15
f 153/2/15 143/2/15 150/2/15
f 154/2/15 138/2/15 153/2/15
f 153/2/15 150/2/15 155/2/15
f 138/2/15 154/2/15 147/2/15
f 155/2/15 150/2/15 156/2/15
f 147/2/15 154/2/15 156/2/15
f 147/2/15 156/2/15 150/2/15
f 147/2/15 150/2/15 152/2/15
f 147/2/15 152/2/15 148/2/15
f 140/2/8 142/1/10 144/2/10
f 142/1/10 140/2/8 139/1/8
f 137/1/16 142/1/16 139/1/16
f 142/1/16 137/1/16 141/1/16
f 141/1/16 137/1/16 145/1/16
f 141/1/16 145/1/16 149/1/16
f 149/1/16 145/1/16 146/1/16
f 149/1/16 146/1/16 151/1/16
f 159/1/1 158/1/1 157/1/1
f 158/1/1 159/1/1 160/1/1
f 163/2/2 162/2/2 161/2/2
f 162/2/2 163/2/2 164/2/2
f 162/2/3 158/1/3 161/2/3
f 158/1/3 162/2/3 157/1/3
f 162/2/4 159/1/4 157/1/4
f 159/1/4 162/2/4 164/2/4
f 159/1/5 163/2/5 160/1/5
f 163/2/5 159/1/5 164/2/5
f 167/1/1 166/1/1 165/1/1
f 166/1/1 167/1/1 168/1/1
f 171/2/2 170/2/2 169/2/2
f 170/2/2 171/2/2 172/2/2
f 170/2/3 166/1/3 169/2/3
f 166/1/3 170/2/3 165/1/3
f 170/2/4 167/1/4 165/1/4
f 167/1/4 170/2/4 172/2/4
f 167/1/5 171/2/5 168/1/5
f 171/2/5 167/1/5 172/2/5
f 175/2/5 174/1/5 173/3/5
f 174/1/5 175/2/5 176/2/5
f 176/2/1 178/2/1 177/2/1
f 178/2/1 176/2/1 175/2/1
f 180/1/3 178/2/3 179/3/3
f 178/2/3 180/1/3 177/2/3
f 173/3/6 178/2/6 175/2/6
f 178/2/6 173/3/6 179/3/6
f 180/1/4 176/2/4 177/2/4
f 176/2/4 180/1/4 174/1/4
f 183/2/5 182/1/5 181/3/5
f 182/1/5 183/2/5 184/2/5
f 184/2/1 186/2/1 185/2/1
f 186/2/1 184/2/1 183/2/1
f 188/1/3 186/2/3 187/3/3
f 186/2/3 188/1/3 185/2/3
f 181/3/6 186/2/6 183/2/6
f 186/2/6 181/3/6 187/3/6
f 188/1/4 184/2/4 185/2/4
f 184/2/4 188/1/4 182/1/4
f 191/1/8 190/2/7 189/1/7
f 190/2/7 191/1/8 192/2/8
f 195/2/9 194/1/10 193/1/9
f 194/1/10 195/2/9 196/2/10
f 199/2/11 198/1/12 197/1/11
f 198/1/12 199/2/11 200/2/12
f 203/1/14 202/2/13 201/1/13
f 202/2/13 203/1/14 204/2/14
f 202/2/13 193/1/9 201/1/13
f 193/1/9 202/2/13 195/2/9
f 190/2/7 197/1/11 189/1/7
f 197/1/11 190/2/7 199/2/11
f 198/1/12 204/2/14 203/1/14
f 204/2/14 198/1/12 200/2/12
f 195/2/15 192/2/15 196/2/15
f 192/2/15 195/2/15 190/2/15
f 190/2/15 195/2/15 205/2/15
f 205/2/15 195/2/15 202/2/15
f 206/2/15 190/2/15 205/2/15
f 205/2/15 202/2/15 207/2/15
f 190/2/15 206/2/15 199/2/15
f 207/2/15 202/2/15 208/2/15
f 199/2/15 206/2/15 208/2/15
f 199/2/15 208/2/15 202/2/15
f 199/2/15 202/2/15 204/2/15
f 199/2/15 204/2/15 200/2/15
f 192/2/8 194/1/10 196/2/10
f 194/1/10 192/2/8 191/1/8
f 189/1/16 194/1/16 191/1/16
f 194/1/16 189/1/16 193/1/16
f 193/1/16 189/1/16 197/1/16
f 193/1/16 197/1/16 201/1/16
f 201/1/16 197/1/16 198/1/16
f 201/1/16 198/1/16 203/1/16
f 211/4/17 210/4/17 209/4/17
f 210/4/17 211/4/17 212/4/17
f 211/4/5 213/5/18 212/4/5
f 213/5/18 211/4/5 214/5/18
f 217/6/20 216/6/19 215/6/19
f 216/6/19 217/6/20 218/6/20
f 220/5/21 210/4/3 219/5/21
f 210/4/3 220/5/21 209/4/3
f 213/5/18 218/6/20 217/6/20
f 218/6/20 213/5/18 214/5/18
f 215/6/19 220/5/21 219/5/21
f 220/5/21 215/6/19 216/6/19
f 213/5/22 210/4/22 212/4/22
f 210/4/22 213/5/22 219/5/22
f 219/5/22 213/5/22 217/6/22
f 219/5/22 217/6/22 215/6/22
f 220/5/23 211/4/23 209/4/23
f 211/4/23 220/5/23 214/5/23
f 214/5/23 220/5/23 216/6/23
f 214/5/23 216/6/23 218/6/23
f 223/4/17 222/4/17 221/4/17
f 222/4/17 223/4/17 224/4/17
f 223/4/5 225/5/18 224/4/5
f 225/5/18 223/4/5 226/5/18
f 229/6/20 228/6/19 227/6/19
f 228/6/19 229/6/20 230/6/20
f 232/5/21 222/4/3 231/5/21
f 222/4/3 232/5/21 221/4/3
f 225/5/18 230/6/20 229/6/20
f 230/6/20 225/5/18 226/5/18
f 227/6/19 232/5/21 231/5/21
f 232/5/21 227/6/19 228/6/19
f 225/5/22 222/4/22 224/4/22
f 222/4/22 225/5/22 231/5/22
f 231/5/22 225/5/22 229/6/22
f 231/5/22 229/6/22 227/6/22
f 232/5/23 223/4/23 221/4/23
f 223/4/23 232/5/23 226/5/23
f 226/5/23 232/5/23 228/6/23
f 226/5/23 228/6/23 230/6/23
f 49/6/24 234/7/25 233/7/24
f 234/7/25 49/6/24 51/6/25
f 52/6/26 236/7/27 235/7/26
f 236/7/27 52/6/26 50/6/27
f 52/6/26 234/7/25 51/6/25
f 234/7/25 52/6/26 235/7/26
f 233/7/24 50/6/27 49/6/24
f 50/6/27 233/7/24 236/7/27
f 239/4/17 238/4/17 237/4/17
f 238/4/17 239/4/17 240/4/17
f 239/4/5 241/5/18 240/4/5
f 241/5/18 239/4/5 242/5/18
f 245/6/20 244/6/19 243/6/19
f 244/6/19 245/6/20 246/6/20
f 248/5/21 238/4/3 247/5/21
f 238/4/3 248/5/21 237/4/3
f 241/5/18 246/6/20 245/6/20
f 246/6/20 241/5/18 242/5/18
f 243/6/19 248/5/21 247/5/21
f 248/5/21 243/6/19 244/6/19
f 241/5/22 238/4/22 240/4/22
f 238/4/22 241/5/22 247/5/22
f 247/5/22 241/5/22 245/6/22
f 247/5/22 245/6/22 243/6/22
f 248/5/23 239/4/23 237/4/23
f 239/4/23 248/5/23 242/5/23
f 242/5/23 248/5/23 244/6/23
f 242/5/23 244/6/23 246/6/23
f 251/4/17 250/4/17 249/4/17
f 250/4/17 251/4/17 252/4/17
f 251/4/5 253/5/18 252/4/5
f 253/5/18 251/4/5 254/5/18
f 257/6/20 256/6/19 255/6/19
f 256/6/19 257/6/20 258/6/20
f 260/5/21 250/4/3 259/5/21
f 250/4/3 260/5/21 249/4/3
f 253/5/18 258/6/20 257/6/20
f 258/6/20 253/5/18 254/5/18
f 255/6/19 260/5/21 259/5/21
f 260/5/21 255/6/19 256/6/19
f 253/5/22 250/4/22 252/4/22
f 250/4/22 253/5/22 259/5/22
f 259/5/22 253/5/22 257/6/22
f 259/5/22 257/6/22 255/6/22
f 260/5/23 251/4/23 249/4/23
f 251/4/23 260/5/23 254/5/23
f 254/5/23 260/5/23 256/6/23
f 254/5/23 256/6/23 258/6/23
f 101/6/24 262/7/25 261/7/24
f 262/7/25 101/6/24 103/6/25
f 104/6/26 264/7/27 263/7/26
f 264/7/27 104/6/26 102/6/27
f 104/6/26 262/7/25 103/6/25
f 262/7/25 104/6/26 263/7/26
f 261/7/24 102/6/27 101/6/24
f 102/6/27 261/7/24 264/7/27
f 267/4/17 266/4/17 265/4/17
f 266/4/17 267/4/17 268/4/17
f 267/4/5 269/5/18 268/4/5
f 269/5/18 267/4/5 270/5/18
f 273/6/20 272/6/19 271/6/19
f 272/6/19 273/6/20 274/6/20
f 276/5/21 266/4/3 275/5/21
f 266/4/3 276/5/21 265/4/3
f 269/5/18 274/6/20 273/6/20
f 274/6/20 269/5/18 270/5/18
f 271/6/19 276/5/21 275/5/21
f 276/5/21 271/6/19 272/6/19
f 269/5/22 266/4/22 268/4/22
f 266/4/22 269/5/22 275/5/22
f 275/5/22 269/5/22 273/6/22
f 275/5/22 273/6/22 271/6/22
f 276/5/23 267/4/23 265/4/23
f 267/4/23 276/5/23 270/5/23
f 270/5/23 276/5/23 272/6/23
f 270/5/23 272/6/23 274/6/23
f 279/4/17 278/4/17 277/4/17
f 278/4/17 279/4/17 280/4/17
f 279/4/5 281/5/18 280/4/5
f 281/5/18 279/4/5 282/5/18
f 285/6/20 284/6/19 283/6/19
f 284/6/19 285/6/20 286/6/20
f 288/5/21 278/4/3 287/5/21
f 278/4/3 288/5/21 277/4/3
f 281/5/18 286/6/20 285/6/20
f 286/6/20 281/5/18 282/5/18
f 283/6/19 288/5/21 287/5/21
f 288/5/21 283/6/19 284/6/19
f 281/5/22 278/4/22 280/4/22
f 278/4/22 281/5/22 287/5/22
f 287/5/22 281/5/22 285/6/22
f 287/5/22 285/6/22 283/6/22
f 288/5/23 279/4/23 277/4/23
f 279/4/23 288/5/23 282/5/23
f 282/5/23 288/5/23 284/6/23
f 282/5/23 284/6/23 286/6/23
f 153/6/24 290/7/25 289/7/24
f 290/7/25 153/6/24 155/6/25
f 156/6/26 292/7/27 291/7/26
f 292/7/27 156/6/26 154/6/27
f 156/6/26 290/7/25 155/6/25
f 290/7/25 156/6/26 291/7/26
f 289/7/24 154/6/27 153/6/24
f 154/6/27 289/7/24 292/7/27
f 295/4/17 294/4/17 293/4/17
f 294/4/17 295/4/17 296/4/17
f 295/4/5 297/5/18 296/4/5
f 297/5/18 295/4/5 298/5/18
f 301/6/20 300/6/19 299/6/19
f 300/6/19 301/6/20 302/6/20
f 304/5/21 294/4/3 303/5/21
f 294/4/3 304/5/21 293/4/3
f 297/5/18 302/6/20 301/6/20
f 302/6/20 297/5/18 298/5/18
f 299/6/19 304/5/21 303/5/21
f 304/5/21 299/6/19 300/6/19
f 297/5/22 294/4/22 296/4/22
f 294/4/22 297/5/22 303/5/22
f 303/5/22 297/5/22 301/6/22
f 303/5/22 301/6/22 299/6/22
f 304/5/23 295/4/23 293/4/23
f 295/4/23 304/5/23 298/5/23
f 298/5/23 304/5/23 300/6/23
f 298/5/23 300/6/23 302/6/23
f 307/4/17 306/4/17 305/4/17
f 306/4/17 307/4/17 308/4/17
f 307/4/5 309/5/18 308/4/5
f 309/5/18 307/4/5 310/5/18
f 313/6/20 312/6/19 311/6/19
f 312/6/19 313/6/20 314/6/20
f 316/5/21 306/4/3 315/5/21
f 306/4/3 316/5/21 305/4/3
f 309/5/18 314/6/20 313/6/20
f 314/6/20 309/5/18 310/5/18
f 311/6/19 316/5/21 315/5/21
f 316/5/21 311/6/19 312/6/19
f 309/5/22 306/4/22 308/4/22
f 306/4/22 309/5/22 315/5/22
f 315/5/22 309/5/22 313/6/22
f 315/5/22 313/6/22 311/6/22
f 316/5/23 307/4/23 305/4/23
f 307/4/23 316/5/23 310/5/23
f 310/5/23 316/5/23 312/6/23
f 310/5/23 312/6/23 314/6/23
f 205/6/24 318/7/25 317/7/24
f 318/7/25 205/6/24 207/6/25
f 208/6/26 320/7/27 319/7/26
f 320/7/27 208/6/26 206/6/27
f 208/6/26 318/7/25 207/6/25
f 318/7/25 208/6/26 319/7/26
f 317/7/24 206/6/27 205/6/24
f 206/6/27 317/7/24 320/7/27

usemtl colormap-specular

f 234/8/15 236/8/15 233/8/15
f 236/8/15 234/8/15 235/8/15
f 262/8/15 264/8/15 261/8/15
f 264/8/15 262/8/15 263/8/15
f 290/8/15 292/8/15 289/8/15
f 292/8/15 290/8/15 291/8/15
f 318/8/15 320/8/15 317/8/15
f 320/8/15 318/8/15 319/8/15
f 323/10/28 322/9/28 321/9/28
f 322/9/28 323/10/28 324/10/28
f 324/10/28 323/10/28 325/11/28
f 324/10/28 325/11/28 326/11/28
f 326/11/28 325/11/28 327/12/28
f 326/11/28 327/12/28 328/12/28
f 331/14/28 330/13/28 329/13/28
f 330/13/28 331/14/28 332/14/28
f 332/14/28 331/14/28 333/15/28
f 332/14/28 333/15/28 334/15/28
f 334/15/28 333/15/28 335/16/28
f 334/15/28 335/16/28 336/16/28
f 339/18/28 338/17/28 337/17/28
f 338/17/28 339/18/28 340/18/28
f 340/18/28 339/18/28 341/19/28
f 340/18/28 341/19/28 342/19/28
f 342/19/28 341/19/28 343/20/28
f 342/19/28 343/20/28 344/20/28
f 347/10/28 346/9/28 345/9/28
f 346/9/28 347/10/28 348/10/28
f 348/10/28 347/10/28 349/11/28
f 348/10/28 349/11/28 350/11/28
f 350/11/28 349/11/28 351/12/28
f 350/11/28 351/12/28 352/12/28
f 355/22/28 354/21/28 353/21/28
f 354/21/28 355/22/28 356/22/28
f 356/22/28 355/22/28 357/23/28
f 356/22/28 357/23/28 358/23/28
f 358/23/28 357/23/28 359/24/28
f 358/23/28 359/24/28 360/24/28
f 363/26/28 362/25/28 361/25/28
f 362/25/28 363/26/28 364/26/28
f 364/26/28 363/26/28 365/27/28
f 364/26/28 365/27/28 366/27/28
f 366/27/28 365/27/28 367/28/28
f 366/27/28 367/28/28 368/28/28
f 371/22/28 370/21/28 369/21/28
f 370/21/28 371/22/28 372/22/28
f 372/22/28 371/22/28 373/23/28
f 372/22/28 373/23/28 374/23/28
f 374/23/28 373/23/28 375/24/28
f 374/23/28 375/24/28 376/24/28
f 379/30/28 378/29/28 377/29/28
f 378/29/28 379/30/28 380/30/28
f 380/30/28 379/30/28 381/31/28
f 380/30/28 381/31/28 382/31/28
f 382/31/28 381/31/28 383/32/28
f 382/31/28 383/32/28 384/32/28
f 387/30/28 386/29/28 385/29/28
f 386/29/28 387/30/28 388/30/28
f 388/30/28 387/30/28 389/31/28
f 388/30/28 389/31/28 390/31/28
f 390/31/28 389/31/28 391/32/28
f 390/31/28 391/32/28 392/32/28
f 395/30/28 394/29/28 393/29/28
f 394/29/28 395/30/28 396/30/28
f 396/30/28 395/30/28 397/31/28
f 396/30/28 397/31/28 398/31/28
f 398/31/28 397/31/28 399/32/28
f 398/31/28 399/32/28 400/32/28
f 403/14/28 402/13/28 401/13/28
f 402/13/28 403/14/28 404/14/28
f 404/14/28 403/14/28 405/15/28
f 404/14/28 405/15/28 406/15/28
f 406/15/28 405/15/28 407/16/28
f 406/15/28 407/16/28 408/16/28
f 411/26/28 410/25/28 409/25/28
f 410/25/28 411/26/28 412/26/28
f 412/26/28 411/26/28 413/27/28
f 412/26/28 413/27/28 414/27/28
f 414/27/28 413/27/28 415/28/28
f 414/27/28 415/28/28 416/28/28
f 419/26/28 418/25/28 417/25/28
f 418/25/28 419/26/28 420/26/28
f 420/26/28 419/26/28 421/27/28
f 420/26/28 421/27/28 422/27/28
f 422/27/28 421/27/28 423/28/28
f 422/27/28 423/28/28 424/28/28
f 427/14/28 426/13/28 425/13/28
f 426/13/28 427/14/28 428/14/28
f 428/14/28 427/14/28 429/15/28
f 428/14/28 429/15/28 430/15/28
f 430/15/28 429/15/28 431/16/28
f 430/15/28 431/16/28 432/16/28
f 435/18/28 434/17/28 433/17/28
f 434/17/28 435/18/28 436/18/28
f 436/18/28 435/18/28 437/19/28
f 436/18/28 437/19/28 438/19/28
f 438/19/28 437/19/28 439/20/28
f 438/19/28 439/20/28 440/20/28
f 443/10/28 442/9/28 441/9/28
f 442/9/28 443/10/28 444/10/28
f 444/10/28 443/10/28 445/11/28
f 444/10/28 445/11/28 446/11/28
f 446/11/28 445/11/28 447/12/28
f 446/11/28 447/12/28 448/12/28
f 451/22/28 450/21/28 449/21/28
f 450/21/28 451/22/28 452/22/28
f 452/22/28 451/22/28 453/23/28
f 452/22/28 453/23/28 454/23/28
f 454/23/28 453/23/28 455/24/28
f 454/23/28 455/24/28 456/24/28
f 459/18/28 458/17/28 457/17/28
f 458/17/28 459/18/28 460/18/28
f 460/18/28 459/18/28 461/19/28
f 460/18/28 461/19/28 462/19/28
f 462/19/28 461/19/28 463/20/28
f 462/19/28 463/20/28 464/20/28
f 467/10/28 466/9/28 465/9/28
f 466/9/28 467/10/28 468/10/28
f 468/10/28 467/10/28 469/11/28
f 468/10/28 469/11/28 470/11/28
f 470/11/28 469/11/28 471/12/28
f 470/11/28 471/12/28 472/12/28
f 475/14/28 474/13/28 473/13/28
f 474/13/28 475/14/28 476/14/28
f 476/14/28 475/14/28 477/15/28
f 476/14/28 477/15/28 478/15/28
f 478/15/28 477/15/28 479/16/28
f 478/15/28 479/16/28 480/16/28
f 483/18/28 482/17/28 481/17/28
f 482/17/28 483/18/28 484/18/28
f 484/18/28 483/18/28 485/19/28
f 484/18/28 485/19/28 486/19/28
f 486/19/28 485/19/28 487/20/28
f 486/19/28 487/20/28 488/20/28
f 491/10/28 490/9/28 489/9/28
f 490/9/28 491/10/28 492/10/28
f 492/10/28 491/10/28 493/11/28
f 492/10/28 493/11/28 494/11/28
f 494/11/28 493/11/28 495/12/28
f 494/11/28 495/12/28 496/12/28
f 499/22/28 498/21/28 497/21/28
f 498/21/28 499/22/28 500/22/28
f 500/22/28 499/22/28 501/23/28
f 500/22/28 501/23/28 502/23/28
f 502/23/28 501/23/28 503/24/28
f 502/23/28 503/24/28 504/24/28
f 507/26/28 506/25/28 505/25/28
f 506/25/28 507/26/28 508/26/28
f 508/26/28 507/26/28 509/27/28
f 508/26/28 509/27/28 510/27/28
f 510/27/28 509/27/28 511/28/28
f 510/27/28 511/28/28 512/28/28
f 515/22/28 514/21/28 513/21/28
f 514/21/28 515/22/28 516/22/28
f 516/22/28 515/22/28 517/23/28
f 516/22/28 517/23/28 518/23/28
f 518/23/28 517/23/28 519/24/28
f 518/23/28 519/24/28 520/24/28
f 523/30/28 522/29/28 521/29/28
f 522/29/28 523/30/28 524/30/28
f 524/30/28 523/30/28 525/31/28
f 524/30/28 525/31/28 526/31/28
f 526/31/28 525/31/28 527/32/28
f 526/31/28 527/32/28 528/32/28
f 531/30/28 530/29/28 529/29/28
f 530/29/28 531/30/28 532/30/28
f 532/30/28 531/30/28 533/31/28
f 532/30/28 533/31/28 534/31/28
f 534/31/28 533/31/28 535/32/28
f 534/31/28 535/32/28 536/32/28
f 539/30/28 538/29/28 537/29/28
f 538/29/28 539/30/28 540/30/28
f 540/30/28 539/30/28 541/31/28
f 540/30/28 541/31/28 542/31/28
f 542/31/28 541/31/28 543/32/28
f 542/31/28 543/32/28 544/32/28
f 547/14/28 546/13/28 545/13/28
f 546/13/28 547/14/28 548/14/28
f 548/14/28 547/14/28 549/15/28
f 548/14/28 549/15/28 550/15/28
f 550/15/28 549/15/28 551/16/28
f 550/15/28 551/16/28 552/16/28
f 555/26/28 554/25/28 553/25/28
f 554/25/28 555/26/28 556/26/28
f 556/26/28 555/26/28 557/27/28
f 556/26/28 557/27/28 558/27/28
f 558/27/28 557/27/28 559/28/28
f 558/27/28 559/28/28 560/28/28
f 563/26/28 562/25/28 561/25/28
f 562/25/28 563/26/28 564/26/28
f 564/26/28 563/26/28 565/27/28
f 564/26/28 565/27/28 566/27/28
f 566/27/28 565/27/28 567/28/28
f 566/27/28 567/28/28 568/28/28
f 571/14/28 570/13/28 569/13/28
f 570/13/28 571/14/28 572/14/28
f 572/14/28 571/14/28 573/15/28
f 572/14/28 573/15/28 574/15/28
f 574/15/28 573/15/28 575/16/28
f 574/15/28 575/16/28 576/16/28
f 579/18/28 578/17/28 577/17/28
f 578/17/28 579/18/28 580/18/28
f 580/18/28 579/18/28 581/19/28
f 580/18/28 581/19/28 582/19/28
f 582/19/28 581/19/28 583/20/28
f 582/19/28 583/20/28 584/20/28
f 587/10/28 586/9/28 585/9/28
f 586/9/28 587/10/28 588/10/28
f 588/10/28 587/10/28 589/11/28
f 588/10/28 589/11/28 590/11/28
f 590/11/28 589/11/28 591/12/28
f 590/11/28 591/12/28 592/12/28
f 595/22/28 594/21/28 593/21/28
f 594/21/28 595/22/28 596/22/28
f 596/22/28 595/22/28 597/23/28
f 596/22/28 597/23/28 598/23/28
f 598/23/28 597/23/28 599/24/28
f 598/23/28 599/24/28 600/24/28
f 603/18/28 602/17/28 601/17/28
f 602/17/28 603/18/28 604/18/28
f 604/18/28 603/18/28 605/19/28
f 604/18/28 605/19/28 606/19/28
f 606/19/28 605/19/28 607/20/28
f 606/19/28 607/20/28 608/20/28
f 611/10/28 610/9/28 609/9/28
f 610/9/28 611/10/28 612/10/28
f 612/10/28 611/10/28 613/11/28
f 612/10/28 613/11/28 614/11/28
f 614/11/28 613/11/28 615/12/28
f 614/11/28 615/12/28 616/12/28
f 619/14/28 618/13/28 617/13/28
f 618/13/28 619/14/28 620/14/28
f 620/14/28 619/14/28 621/15/28
f 620/14/28 621/15/28 622/15/28
f 622/15/28 621/15/28 623/16/28
f 622/15/28 623/16/28 624/16/28
f 627/18/28 626/17/28 625/17/28
f 626/17/28 627/18/28 628/18/28
f 628/18/28 627/18/28 629/19/28
f 628/18/28 629/19/28 630/19/28
f 630/19/28 629/19/28 631/20/28
f 630/19/28 631/20/28 632/20/28
f 635/10/28 634/9/28 633/9/28
f 634/9/28 635/10/28 636/10/28
f 636/10/28 635/10/28 637/11/28
f 636/10/28 637/11/28 638/11/28
f 638/11/28 637/11/28 639/12/28
f 638/11/28 639/12/28 640/12/28
f 643/22/28 642/21/28 641/21/28
f 642/21/28 643/22/28 644/22/28
f 644/22/28 643/22/28 645/23/28
f 644/22/28 645/23/28 646/23/28
f 646/23/28 645/23/28 647/24/28
f 646/23/28 647/24/28 648/24/28
f 651/26/28 650/25/28 649/25/28
f 650/25/28 651/26/28 652/26/28
f 652/26/28 651/26/28 653/27/28
f 652/26/28 653/27/28 654/27/28
f 654/27/28 653/27/28 655/28/28
f 654/27/28 655/28/28 656/28/28
f 659/22/28 658/21/28 657/21/28
f 658/21/28 659/22/28 660/22/28
f 660/22/28 659/22/28 661/23/28
f 660/22/28 661/23/28 662/23/28
f 662/23/28 661/23/28 663/24/28
f 662/23/28 663/24/28 664/24/28
f 667/30/28 666/29/28 665/29/28
f 666/29/28 667/30/28 668/30/28
f 668/30/28 667/30/28 669/31/28
f 668/30/28 669/31/28 670/31/28
f 670/31/28 669/31/28 671/32/28
f 670/31/28 671/32/28 672/32/28
f 675/30/28 674/29/28 673/29/28
f 674/29/28 675/30/28 676/30/28
f 676/30/28 675/30/28 677/31/28
f 676/30/28 677/31/28 678/31/28
f 678/31/28 677/31/28 679/32/28
f 678/31/28 679/32/28 680/32/28
f 683/30/28 682/29/28 681/29/28
f 682/29/28 683/30/28 684/30/28
f 684/30/28 683/30/28 685/31/28
f 684/30/28 685/31/28 686/31/28
f 686/31/28 685/31/28 687/32/28
f 686/31/28 687/32/28 688/32/28
f 691/14/28 690/13/28 689/13/28
f 690/13/28 691/14/28 692/14/28
f 692/14/28 691/14/28 693/15/28
f 692/14/28 693/15/28 694/15/28
f 694/15/28 693/15/28 695/16/28
f 694/15/28 695/16/28 696/16/28
f 699/26/28 698/25/28 697/25/28
f 698/25/28 699/26/28 700/26/28
f 700/26/28 699/26/28 701/27/28
f 700/26/28 701/27/28 702/27/28
f 702/27/28 701/27/28 703/28/28
f 702/27/28 703/28/28 704/28/28
f 707/26/28 706/25/28 705/25/28
f 706/25/28 707/26/28 708/26/28
f 708/26/28 707/26/28 709/27/28
f 708/26/28 709/27/28 710/27/28
f 710/27/28 709/27/28 711/28/28
f 710/27/28 711/28/28 712/28/28
f 715/14/28 714/13/28 713/13/28
f 714/13/28 715/14/28 716/14/28
f 716/14/28 715/14/28 717/15/28
f 716/14/28 717/15/28 718/15/28
f 718/15/28 717/15/28 719/16/28
f 718/15/28 719/16/28 720/16/28
f 723/18/28 722/17/28 721/17/28
f 722/17/28 723/18/28 724/18/28
f 724/18/28 723/18/28 725/19/28
f 724/18/28 725/19/28 726/19/28
f 726/19/28 725/19/28 727/20/28
f 726/19/28 727/20/28 728/20/28
f 731/10/28 730/9/28 729/9/28
f 730/9/28 731/10/28 732/10/28
f 732/10/28 731/10/28 733/11/28
f 732/10/28 733/11/28 734/11/28
f 734/11/28 733/11/28 735/12/28
f 734/11/28 735/12/28 736/12/28
f 739/22/28 738/21/28 737/21/28
f 738/21/28 739/22/28 740/22/28
f 740/22/28 739/22/28 741/23/28
f 740/22/28 741/23/28 742/23/28
f 742/23/28 741/23/28 743/24/28
f 742/23/28 743/24/28 744/24/28
f 747/18/28 746/17/28 745/17/28
f 746/17/28 747/18/28 748/18/28
f 748/18/28 747/18/28 749/19/28
f 748/18/28 749/19/28 750/19/28
f 750/19/28 749/19/28 751/20/28
f 750/19/28 751/20/28 752/20/28
f 755/10/28 754/9/28 753/9/28
f 754/9/28 755/10/28 756/10/28
f 756/10/28 755/10/28 757/11/28
f 756/10/28 757/11/28 758/11/28
f 758/11/28 757/11/28 759/12/28
f 758/11/28 759/12/28 760/12/28
f 763/14/28 762/13/28 761/13/28
f 762/13/28 763/14/28 764/14/28
f 764/14/28 763/14/28 765/15/28
f 764/14/28 765/15/28 766/15/28
f 766/15/28 765/15/28 767/16/28
f 766/15/28 767/16/28 768/16/28
f 771/18/28 770/17/28 769/17/28
f 770/17/28 771/18/28 772/18/28
f 772/18/28 771/18/28 773/19/28
f 772/18/28 773/19/28 774/19/28
f 774/19/28 773/19/28 775/20/28
f 774/19/28 775/20/28 776/20/28
f 779/10/28 778/9/28 777/9/28
f 778/9/28 779/10/28 780/10/28
f 780/10/28 779/10/28 781/11/28
f 780/10/28 781/11/28 782/11/28
f 782/11/28 781/11/28 783/12/28
f 782/11/28 783/12/28 784/12/28
f 787/22/28 786/21/28 785/21/28
f 786/21/28 787/22/28 788/22/28
f 788/22/28 787/22/28 789/23/28
f 788/22/28 789/23/28 790/23/28
f 790/23/28 789/23/28 791/24/28
f 790/23/28 791/24/28 792/24/28
f 795/26/28 794/25/28 793/25/28
f 794/25/28 795/26/28 796/26/28
f 796/26/28 795/26/28 797/27/28
f 796/26/28 797/27/28 798/27/28
f 798/27/28 797/27/28 799/28/28
f 798/27/28 799/28/28 800/28/28
f 803/22/28 802/21/28 801/21/28
f 802/21/28 803/22/28 804/22/28
f 804/22/28 803/22/28 805/23/28
f 804/22/28 805/23/28 806/23/28
f 806/23/28 805/23/28 807/24/28
f 806/23/28 807/24/28 808/24/28
f 811/30/28 810/29/28 809/29/28
f 810/29/28 811/30/28 812/30/28
f 812/30/28 811/30/28 813/31/28
f 812/30/28 813/31/28 814/31/28
f 814/31/28 813/31/28 815/32/28
f 814/31/28 815/32/28 816/32/28
f 819/30/28 818/29/28 817/29/28
f 818/29/28 819/30/28 820/30/28
f 820/30/28 819/30/28 821/31/28
f 820/30/28 821/31/28 822/31/28
f 822/31/28 821/31/28 823/32/28
f 822/31/28 823/32/28 824/32/28
f 827/30/28 826/29/28 825/29/28
f 826/29/28 827/30/28 828/30/28
f 828/30/28 827/30/28 829/31/28
f 828/30/28 829/31/28 830/31/28
f 830/31/28 829/31/28 831/32/28
f 830/31/28 831/32/28 832/32/28
f 835/14/28 834/13/28 833/13/28
f 834/13/28 835/14/28 836/14/28
f 836/14/28 835/14/28 837/15/28
f 836/14/28 837/15/28 838/15/28
f 838/15/28 837/15/28 839/16/28
f 838/15/28 839/16/28 840/16/28
f 843/26/28 842/25/28 841/25/28
f 842/25/28 843/26/28 844/26/28
f 844/26/28 843/26/28 845/27/28
f 844/26/28 845/27/28 846/27/28
f 846/27/28 845/27/28 847/28/28
f 846/27/28 847/28/28 848/28/28
f 851/26/28 850/25/28 849/25/28
f 850/25/28 851/26/28 852/26/28
f 852/26/28 851/26/28 853/27/28
f 852/26/28 853/27/28 854/27/28
f 854/27/28 853/27/28 855/28/28
f 854/27/28 855/28/28 856/28/28
f 859/14/28 858/13/28 857/13/28
f 858/13/28 859/14/28 860/14/28
f 860/14/28 859/14/28 861/15/28
f 860/14/28 861/15/28 862/15/28
f 862/15/28 861/15/28 863/16/28
f 862/15/28 863/16/28 864/16/28
f 867/18/28 866/17/28 865/17/28
f 866/17/28 867/18/28 868/18/28
f 868/18/28 867/18/28 869/19/28
f 868/18/28 869/19/28 870/19/28
f 870/19/28 869/19/28 871/20/28
f 870/19/28 871/20/28 872/20/28
f 875/10/28 874/9/28 873/9/28
f 874/9/28 875/10/28 876/10/28
f 876/10/28 875/10/28 877/11/28
f 876/10/28 877/11/28 878/11/28
f 878/11/28 877/11/28 879/12/28
f 878/11/28 879/12/28 880/12/28
f 883/22/28 882/21/28 881/21/28
f 882/21/28 883/22/28 884/22/28
f 884/22/28 883/22/28 885/23/28
f 884/22/28 885/23/28 886/23/28
f 886/23/28 885/23/28 887/24/28
f 886/23/28 887/24/28 888/24/28
f 891/18/28 890/17/28 889/17/28
f 890/17/28 891/18/28 892/18/28
f 892/18/28 891/18/28 893/19/28
f 892/18/28 893/19/28 894/19/28
f 894/19/28 893/19/28 895/20/28
f 894/19/28 895/20/28 896/20/28
f 377/34/29 378/34/29 379/33/29
f 380/33/29 379/33/29 378/34/29
f 381/35/29 379/33/29 380/33/29
f 382/35/29 381/35/29 380/33/29
f 383/36/29 381/35/29 382/35/29
f 384/36/29 383/36/29 382/35/29
f 417/38/29 418/38/29 419/37/29
f 420/37/29 419/37/29 418/38/29
f 421/39/29 419/37/29 420/37/29
f 422/39/29 421/39/29 420/37/29
f 423/40/29 421/39/29 422/39/29
f 424/40/29 423/40/29 422/39/29
f 521/34/29 522/34/29 523/33/29
f 524/33/29 523/33/29 522/34/29
f 525/35/29 523/33/29 524/33/29
f 526/35/29 525/35/29 524/33/29
f 527/36/29 525/35/29 526/35/29
f 528/36/29 527/36/29 526/35/29
f 561/38/29 562/38/29 563/37/29
f 564/37/29 563/37/29 562/38/29
f 565/39/29 563/37/29 564/37/29
f 566/39/29 565/39/29 564/37/29
f 567/40/29 565/39/29 566/39/29
f 568/40/29 567/40/29 566/39/29
f 665/34/29 666/34/29 667/33/29
f 668/33/29 667/33/29 666/34/29
f 669/35/29 667/33/29 668/33/29
f 670/35/29 669/35/29 668/33/29
f 671/36/29 669/35/29 670/35/29
f 672/36/29 671/36/29 670/35/29
f 705/38/29 706/38/29 707/37/29
f 708/37/29 707/37/29 706/38/29
f 709/39/29 707/37/29 708/37/29
f 710/39/29 709/39/29 708/37/29
f 711/40/29 709/39/29 710/39/29
f 712/40/29 711/40/29 710/39/29
f 809/34/29 810/34/29 811/33/29
f 812/33/29 811/33/29 810/34/29
f 813/35/29 811/33/29 812/33/29
f 814/35/29 813/35/29 812/33/29
f 815/36/29 813/35/29 814/35/29
f 816/36/29 815/36/29 814/35/29
f 849/38/29 850/38/29 851/37/29
f 852/37/29 851/37/29 850/38/29
f 853/39/29 851/37/29 852/37/29
f 854/39/29 853/39/29 852/37/29
f 855/40/29 853/39/29 854/39/29
f 856/40/29 855/40/29 854/39/29

