# Created by Kenney (www.kenney.nl)

mtllib solar-panel-flat.mtl

g solar-panel-flat

v -0.2091 2.219878E-16 -0.3321 1 1 1
v -0.2091 0.0615 -0.3321 1 1 1
v -0.2091 4.439755E-16 0.3321 1 1 1
v -0.2091 0.0615 0.3321 1 1 1
v -0.1845 0 0.3567 1 1 1
v -0.1845 0.0615 0.3567 1 1 1
v -0.1845 2.219878E-16 -0.3567 1 1 1
v -0.1845 0.0615 -0.3567 1 1 1
v 0.2091 0.0615 -0.3321 1 1 1
v 0.2091 0.0615 0.3321 1 1 1
v 0.1845 0.0615 -0.3567 1 1 1
v 0.1845 0.0615 0.3567 1 1 1
v 0.17835 0.0615 -0.32595 1 1 1
v 0.17835 0.0615 0.32595 1 1 1
v -0.17835 0.0615 -0.32595 1 1 1
v -0.17835 0.0615 0.32595 1 1 1
v 0.1845 2.219878E-16 -0.3567 1 1 1
v 0.2091 2.219878E-16 -0.3321 1 1 1
v 0.1845 0 0.3567 1 1 1
v 0.2091 4.439755E-16 0.3321 1 1 1
v -0.16605 0.0369 0.31365 1 1 1
v 0.16605 0.0369 0.31365 1 1 1
v 0.16605 0.0369 -0.31365 1 1 1
v -0.16605 0.0369 -0.31365 1 1 1
v -0.0246 0.04919995 0.1045502 1 1 1
v 0.0246 0.04919995 0.1045502 1 1 1
v -0.04305 0.04919995 0.1230002 1 1 1
v 0.04305 0.04919995 0.1230002 1 1 1
v -0.04305 0.04919995 0.1722002 1 1 1
v 0.04305 0.04919995 0.1722002 1 1 1
v -0.0246 0.04919994 0.1906502 1 1 1
v 0.0246 0.04919994 0.1906502 1 1 1
v -0.0246 0.04919999 -0.1906499 1 1 1
v 0.0246 0.04919999 -0.1906499 1 1 1
v -0.04305 0.04919998 -0.1721998 1 1 1
v 0.04305 0.04919998 -0.1721998 1 1 1
v -0.04305 0.04919998 -0.1229999 1 1 1
v 0.04305 0.04919998 -0.1229999 1 1 1
v -0.0246 0.04919998 -0.1045498 1 1 1
v 0.0246 0.04919998 -0.1045498 1 1 1
v -0.0246 0.04919996 0.006150186 1 1 1
v 0.0246 0.04919996 0.006150186 1 1 1
v -0.04305 0.04919996 0.02460018 1 1 1
v 0.04305 0.04919996 0.02460018 1 1 1
v -0.04305 0.04919996 0.07380015 1 1 1
v 0.04305 0.04919996 0.07380015 1 1 1
v -0.0246 0.04919995 0.09225017 1 1 1
v 0.0246 0.04919995 0.09225017 1 1 1
v 0.07380001 0.04919995 0.1045502 1 1 1
v 0.123 0.04919995 0.1045502 1 1 1
v 0.05535 0.04919995 0.1230002 1 1 1
v 0.14145 0.04919995 0.1230002 1 1 1
v 0.05535 0.04919995 0.1722002 1 1 1
v 0.14145 0.04919995 0.1722002 1 1 1
v 0.07380001 0.04919994 0.1906502 1 1 1
v 0.123 0.04919994 0.1906502 1 1 1
v -0.0246 0.04919994 0.2029502 1 1 1
v 0.0246 0.04919994 0.2029502 1 1 1
v -0.04305 0.04919994 0.2214002 1 1 1
v 0.04305 0.04919994 0.2214002 1 1 1
v -0.04305 0.04919993 0.2706002 1 1 1
v 0.04305 0.04919993 0.2706002 1 1 1
v -0.0246 0.04919993 0.2890502 1 1 1
v 0.0246 0.04919993 0.2890502 1 1 1
v 0.07380001 0.04919998 -0.09224984 1 1 1
v 0.123 0.04919998 -0.09224984 1 1 1
v 0.05535 0.04919997 -0.07379985 1 1 1
v 0.14145 0.04919997 -0.07379985 1 1 1
v 0.05535 0.04919997 -0.02459982 1 1 1
v 0.14145 0.04919997 -0.02459982 1 1 1
v 0.07380001 0.04919996 -0.006149828 1 1 1
v 0.123 0.04919996 -0.006149828 1 1 1
v -0.123 0.04919994 0.2029502 1 1 1
v -0.07380001 0.04919994 0.2029502 1 1 1
v -0.14145 0.04919994 0.2214002 1 1 1
v -0.05535 0.04919994 0.2214002 1 1 1
v -0.14145 0.04919993 0.2706002 1 1 1
v -0.05535 0.04919993 0.2706002 1 1 1
v -0.123 0.04919993 0.2890502 1 1 1
v -0.07380001 0.04919993 0.2890502 1 1 1
v -0.123 0.0492 -0.2890499 1 1 1
v -0.07380001 0.0492 -0.2890499 1 1 1
v -0.14145 0.0492 -0.2705999 1 1 1
v -0.05535 0.0492 -0.2705999 1 1 1
v -0.14145 0.04919999 -0.2213999 1 1 1
v -0.05535 0.04919999 -0.2213999 1 1 1
v -0.123 0.04919999 -0.2029499 1 1 1
v -0.07380001 0.04919999 -0.2029499 1 1 1
v -0.0246 0.0492 -0.2890499 1 1 1
v 0.0246 0.0492 -0.2890499 1 1 1
v -0.04305 0.0492 -0.2705999 1 1 1
v 0.04305 0.0492 -0.2705999 1 1 1
v -0.04305 0.04919999 -0.2213999 1 1 1
v 0.04305 0.04919999 -0.2213999 1 1 1
v -0.0246 0.04919999 -0.2029499 1 1 1
v 0.0246 0.04919999 -0.2029499 1 1 1
v 0.07380001 0.0492 -0.2890499 1 1 1
v 0.123 0.0492 -0.2890499 1 1 1
v 0.05535 0.0492 -0.2705999 1 1 1
v 0.14145 0.0492 -0.2705999 1 1 1
v 0.05535 0.04919999 -0.2213999 1 1 1
v 0.14145 0.04919999 -0.2213999 1 1 1
v 0.07380001 0.04919999 -0.2029499 1 1 1
v 0.123 0.04919999 -0.2029499 1 1 1
v 0.07380001 0.04919999 -0.1906499 1 1 1
v 0.123 0.04919999 -0.1906499 1 1 1
v 0.05535 0.04919998 -0.1721998 1 1 1
v 0.14145 0.04919998 -0.1721998 1 1 1
v 0.05535 0.04919998 -0.1229999 1 1 1
v 0.14145 0.04919998 -0.1229999 1 1 1
v 0.07380001 0.04919998 -0.1045498 1 1 1
v 0.123 0.04919998 -0.1045498 1 1 1
v -0.0246 0.04919998 -0.09224984 1 1 1
v 0.0246 0.04919998 -0.09224984 1 1 1
v -0.04305 0.04919997 -0.07379985 1 1 1
v 0.04305 0.04919997 -0.07379985 1 1 1
v -0.04305 0.04919997 -0.02459982 1 1 1
v 0.04305 0.04919997 -0.02459982 1 1 1
v -0.0246 0.04919996 -0.006149828 1 1 1
v 0.0246 0.04919996 -0.006149828 1 1 1
v -0.123 0.04919998 -0.09224984 1 1 1
v -0.07380001 0.04919998 -0.09224984 1 1 1
v -0.14145 0.04919997 -0.07379985 1 1 1
v -0.05535 0.04919997 -0.07379985 1 1 1
v -0.14145 0.04919997 -0.02459982 1 1 1
v -0.05535 0.04919997 -0.02459982 1 1 1
v -0.123 0.04919996 -0.006149828 1 1 1
v -0.07380001 0.04919996 -0.006149828 1 1 1
v -0.123 0.04919999 -0.1906499 1 1 1
v -0.07380001 0.04919999 -0.1906499 1 1 1
v -0.14145 0.04919998 -0.1721998 1 1 1
v -0.05535 0.04919998 -0.1721998 1 1 1
v -0.14145 0.04919998 -0.1229999 1 1 1
v -0.05535 0.04919998 -0.1229999 1 1 1
v -0.123 0.04919998 -0.1045498 1 1 1
v -0.07380001 0.04919998 -0.1045498 1 1 1
v 0.07380001 0.04919996 0.006150186 1 1 1
v 0.123 0.04919996 0.006150186 1 1 1
v 0.05535 0.04919996 0.02460018 1 1 1
v 0.14145 0.04919996 0.02460018 1 1 1
v 0.05535 0.04919996 0.07380015 1 1 1
v 0.14145 0.04919996 0.07380015 1 1 1
v 0.07380001 0.04919995 0.09225017 1 1 1
v 0.123 0.04919995 0.09225017 1 1 1
v -0.123 0.04919995 0.1045502 1 1 1
v -0.07380001 0.04919995 0.1045502 1 1 1
v -0.14145 0.04919995 0.1230002 1 1 1
v -0.05535 0.04919995 0.1230002 1 1 1
v -0.14145 0.04919995 0.1722002 1 1 1
v -0.05535 0.04919995 0.1722002 1 1 1
v -0.123 0.04919994 0.1906502 1 1 1
v -0.07380001 0.04919994 0.1906502 1 1 1
v 0.07380001 0.04919994 0.2029502 1 1 1
v 0.123 0.04919994 0.2029502 1 1 1
v 0.05535 0.04919994 0.2214002 1 1 1
v 0.14145 0.04919994 0.2214002 1 1 1
v 0.05535 0.04919993 0.2706002 1 1 1
v 0.14145 0.04919993 0.2706002 1 1 1
v 0.07380001 0.04919993 0.2890502 1 1 1
v 0.123 0.04919993 0.2890502 1 1 1
v -0.123 0.04919996 0.006150186 1 1 1
v -0.07380001 0.04919996 0.006150186 1 1 1
v -0.14145 0.04919996 0.02460018 1 1 1
v -0.05535 0.04919996 0.02460018 1 1 1
v -0.14145 0.04919996 0.07380015 1 1 1
v -0.05535 0.04919996 0.07380015 1 1 1
v -0.123 0.04919995 0.09225017 1 1 1
v -0.07380001 0.04919995 0.09225017 1 1 1

vn -0.9238795 0 -0.3826834
vn -0.9238795 0 0.3826834
vn -0.3826834 0 0.9238795
vn -0.3826834 0 -0.9238795
vn 0 1 0
vn 0.3826834 0 -0.9238795
vn 0.9238795 0 -0.3826834
vn 0.3826834 0 0.9238795
vn 0.9238795 0 0.3826834
vn 0 -1 0
vn 0.5773503 0.5773503 -0.5773503
vn -0.5773503 0.5773503 -0.5773503
vn -0.5773503 0.5773503 0.5773503
vn 0.5773503 0.5773503 0.5773503
vn 0 1 1.192093E-07
vn 0 -1 -1.192093E-07

vt 0.59375 0.275
vt 0.59375 0.475
vt 0.71875 0.395
vt 0.71875 0.475
vt 0.84375 0.1611702
vt 0.84375 0.1675532
vt 0.84375 0.1845745
vt 0.84375 0.1909575
vt 0.84375 0.05904255
vt 0.84375 0.06542553
vt 0.84375 0.0824468
vt 0.84375 0.08882979
vt 0.84375 0.1271277
vt 0.84375 0.1335106
vt 0.84375 0.1505319
vt 0.84375 0.1569149
vt 0.84375 0.1952128
vt 0.84375 0.2015957
vt 0.84375 0.218617
vt 0.84375 0.225
vt 0.84375 0.0930851
vt 0.84375 0.09946809
vt 0.84375 0.1164894
vt 0.84375 0.1228723
vt 0.84375 0.025
vt 0.84375 0.03138298
vt 0.84375 0.04840425
vt 0.84375 0.05478723
vt 0.59375 0.03138298
vt 0.59375 0.025
vt 0.59375 0.04840425
vt 0.59375 0.05478723
vt 0.59375 0.09946809
vt 0.59375 0.0930851
vt 0.59375 0.1164894
vt 0.59375 0.1228723
vt 0.71875 0.145

usemtl colormap

f 3/1/2 2/2/1 1/1/1
f 2/2/1 3/1/2 4/2/2
f 6/2/3 3/1/2 5/1/3
f 3/1/2 6/2/3 4/2/2
f 2/2/1 7/1/4 1/1/1
f 7/1/4 2/2/1 8/2/4
f 11/2/5 10/2/5 9/2/5
f 10/2/5 11/2/5 12/2/5
f 12/2/5 11/2/5 13/2/5
f 13/2/5 11/2/5 8/2/5
f 14/2/5 12/2/5 13/2/5
f 13/2/5 8/2/5 15/2/5
f 12/2/5 14/2/5 6/2/5
f 15/2/5 8/2/5 16/2/5
f 6/2/5 14/2/5 16/2/5
f 6/2/5 16/2/5 8/2/5
f 6/2/5 8/2/5 2/2/5
f 6/2/5 2/2/5 4/2/5
f 11/2/6 18/1/7 17/1/6
f 18/1/7 11/2/6 9/2/7
f 20/1/9 12/2/8 19/1/8
f 12/2/8 20/1/9 10/2/9
f 8/2/4 17/1/6 7/1/4
f 17/1/6 8/2/4 11/2/6
f 10/2/9 18/1/7 9/2/7
f 18/1/7 10/2/9 20/1/9
f 12/2/8 5/1/3 19/1/8
f 5/1/3 12/2/8 6/2/3
f 19/1/10 18/1/10 20/1/10
f 18/1/10 19/1/10 17/1/10
f 17/1/10 19/1/10 5/1/10
f 17/1/10 5/1/10 7/1/10
f 7/1/10 5/1/10 3/1/10
f 7/1/10 3/1/10 1/1/10
f 16/4/11 22/3/12 21/3/11
f 22/3/12 16/4/11 14/4/12
f 13/4/13 24/3/14 23/3/13
f 24/3/14 13/4/13 15/4/14
f 16/4/11 24/3/14 15/4/14
f 24/3/14 16/4/11 21/3/11
f 23/3/13 14/4/12 13/4/13
f 14/4/12 23/3/13 22/3/12

usemtl colormap-specular

f 27/6/15 26/5/15 25/5/15
f 26/5/15 27/6/15 28/6/15
f 28/6/15 27/6/15 29/7/15
f 28/6/15 29/7/15 30/7/15
f 30/7/15 29/7/15 31/8/15
f 30/7/15 31/8/15 32/8/15
f 35/10/15 34/9/15 33/9/15
f 34/9/15 35/10/15 36/10/15
f 36/10/15 35/10/15 37/11/15
f 36/10/15 37/11/15 38/11/15
f 38/11/15 37/11/15 39/12/15
f 38/11/15 39/12/15 40/12/15
f 43/14/15 42/13/15 41/13/15
f 42/13/15 43/14/15 44/14/15
f 44/14/15 43/14/15 45/15/15
f 44/14/15 45/15/15 46/15/15
f 46/15/15 45/15/15 47/16/15
f 46/15/15 47/16/15 48/16/15
f 51/6/15 50/5/15 49/5/15
f 50/5/15 51/6/15 52/6/15
f 52/6/15 51/6/15 53/7/15
f 52/6/15 53/7/15 54/7/15
f 54/7/15 53/7/15 55/8/15
f 54/7/15 55/8/15 56/8/15
f 59/18/15 58/17/15 57/17/15
f 58/17/15 59/18/15 60/18/15
f 60/18/15 59/18/15 61/19/15
f 60/18/15 61/19/15 62/19/15
f 62/19/15 61/19/15 63/20/15
f 62/19/15 63/20/15 64/20/15
f 67/22/15 66/21/15 65/21/15
f 66/21/15 67/22/15 68/22/15
f 68/22/15 67/22/15 69/23/15
f 68/22/15 69/23/15 70/23/15
f 70/23/15 69/23/15 71/24/15
f 70/23/15 71/24/15 72/24/15
f 75/18/15 74/17/15 73/17/15
f 74/17/15 75/18/15 76/18/15
f 76/18/15 75/18/15 77/19/15
f 76/18/15 77/19/15 78/19/15
f 78/19/15 77/19/15 79/20/15
f 78/19/15 79/20/15 80/20/15
f 83/26/15 82/25/15 81/25/15
f 82/25/15 83/26/15 84/26/15
f 84/26/15 83/26/15 85/27/15
f 84/26/15 85/27/15 86/27/15
f 86/27/15 85/27/15 87/28/15
f 86/27/15 87/28/15 88/28/15
f 91/26/15 90/25/15 89/25/15
f 90/25/15 91/26/15 92/26/15
f 92/26/15 91/26/15 93/27/15
f 92/26/15 93/27/15 94/27/15
f 94/27/15 93/27/15 95/28/15
f 94/27/15 95/28/15 96/28/15
f 99/26/15 98/25/15 97/25/15
f 98/25/15 99/26/15 100/26/15
f 100/26/15 99/26/15 101/27/15
f 100/26/15 101/27/15 102/27/15
f 102/27/15 101/27/15 103/28/15
f 102/27/15 103/28/15 104/28/15
f 107/10/15 106/9/15 105/9/15
f 106/9/15 107/10/15 108/10/15
f 108/10/15 107/10/15 109/11/15
f 108/10/15 109/11/15 110/11/15
f 110/11/15 109/11/15 111/12/15
f 110/11/15 111/12/15 112/12/15
f 115/22/15 114/21/15 113/21/15
f 114/21/15 115/22/15 116/22/15
f 116/22/15 115/22/15 117/23/15
f 116/22/15 117/23/15 118/23/15
f 118/23/15 117/23/15 119/24/15
f 118/23/15 119/24/15 120/24/15
f 123/22/15 122/21/15 121/21/15
f 122/21/15 123/22/15 124/22/15
f 124/22/15 123/22/15 125/23/15
f 124/22/15 125/23/15 126/23/15
f 126/23/15 125/23/15 127/24/15
f 126/23/15 127/24/15 128/24/15
f 131/10/15 130/9/15 129/9/15
f 130/9/15 131/10/15 132/10/15
f 132/10/15 131/10/15 133/11/15
f 132/10/15 133/11/15 134/11/15
f 134/11/15 133/11/15 135/12/15
f 134/11/15 135/12/15 136/12/15
f 139/14/15 138/13/15 137/13/15
f 138/13/15 139/14/15 140/14/15
f 140/14/15 139/14/15 141/15/15
f 140/14/15 141/15/15 142/15/15
f 142/15/15 141/15/15 143/16/15
f 142/15/15 143/16/15 144/16/15
f 147/6/15 146/5/15 145/5/15
f 146/5/15 147/6/15 148/6/15
f 148/6/15 147/6/15 149/7/15
f 148/6/15 149/7/15 150/7/15
f 150/7/15 149/7/15 151/8/15
f 150/7/15 151/8/15 152/8/15
f 155/18/15 154/17/15 153/17/15
f 154/17/15 155/18/15 156/18/15
f 156/18/15 155/18/15 157/19/15
f 156/18/15 157/19/15 158/19/15
f 158/19/15 157/19/15 159/20/15
f 158/19/15 159/20/15 160/20/15
f 163/14/15 162/13/15 161/13/15
f 162/13/15 163/14/15 164/14/15
f 164/14/15 163/14/15 165/15/15
f 164/14/15 165/15/15 166/15/15
f 166/15/15 165/15/15 167/16/15
f 166/15/15 167/16/15 168/16/15
f 81/30/16 82/30/16 83/29/16
f 84/29/16 83/29/16 82/30/16
f 85/31/16 83/29/16 84/29/16
f 86/31/16 85/31/16 84/29/16
f 87/32/16 85/31/16 86/31/16
f 88/32/16 87/32/16 86/31/16
f 121/34/16 122/34/16 123/33/16
f 124/33/16 123/33/16 122/34/16
f 125/35/16 123/33/16 124/33/16
f 126/35/16 125/35/16 124/33/16
f 127/36/16 125/35/16 126/35/16
f 128/36/16 127/36/16 126/35/16
f 24/37/5 22/37/5 23/37/5
f 22/37/5 24/37/5 21/37/5

g solar-panel-flat




usemtl colormap

f 3/1/2 2/2/1 1/1/1
f 2/2/1 3/1/2 4/2/2
f 6/2/3 3/1/2 5/1/3
f 3/1/2 6/2/3 4/2/2
f 2/2/1 7/1/4 1/1/1
f 7/1/4 2/2/1 8/2/4
f 11/2/5 10/2/5 9/2/5
f 10/2/5 11/2/5 12/2/5
f 12/2/5 11/2/5 13/2/5
f 13/2/5 11/2/5 8/2/5
f 14/2/5 12/2/5 13/2/5
f 13/2/5 8/2/5 15/2/5
f 12/2/5 14/2/5 6/2/5
f 15/2/5 8/2/5 16/2/5
f 6/2/5 14/2/5 16/2/5
f 6/2/5 16/2/5 8/2/5
f 6/2/5 8/2/5 2/2/5
f 6/2/5 2/2/5 4/2/5
f 11/2/6 18/1/7 17/1/6
f 18/1/7 11/2/6 9/2/7
f 20/1/9 12/2/8 19/1/8
f 12/2/8 20/1/9 10/2/9
f 8/2/4 17/1/6 7/1/4
f 17/1/6 8/2/4 11/2/6
f 10/2/9 18/1/7 9/2/7
f 18/1/7 10/2/9 20/1/9
f 12/2/8 5/1/3 19/1/8
f 5/1/3 12/2/8 6/2/3
f 19/1/10 18/1/10 20/1/10
f 18/1/10 19/1/10 17/1/10
f 17/1/10 19/1/10 5/1/10
f 17/1/10 5/1/10 7/1/10
f 7/1/10 5/1/10 3/1/10
f 7/1/10 3/1/10 1/1/10
f 16/4/11 22/3/12 21/3/11
f 22/3/12 16/4/11 14/4/12
f 13/4/13 24/3/14 23/3/13
f 24/3/14 13/4/13 15/4/14
f 16/4/11 24/3/14 15/4/14
f 24/3/14 16/4/11 21/3/11
f 23/3/13 14/4/12 13/4/13
f 14/4/12 23/3/13 22/3/12

usemtl colormap-specular

f 27/6/15 26/5/15 25/5/15
f 26/5/15 27/6/15 28/6/15
f 28/6/15 27/6/15 29/7/15
f 28/6/15 29/7/15 30/7/15
f 30/7/15 29/7/15 31/8/15
f 30/7/15 31/8/15 32/8/15
f 35/10/15 34/9/15 33/9/15
f 34/9/15 35/10/15 36/10/15
f 36/10/15 35/10/15 37/11/15
f 36/10/15 37/11/15 38/11/15
f 38/11/15 37/11/15 39/12/15
f 38/11/15 39/12/15 40/12/15
f 43/14/15 42/13/15 41/13/15
f 42/13/15 43/14/15 44/14/15
f 44/14/15 43/14/15 45/15/15
f 44/14/15 45/15/15 46/15/15
f 46/15/15 45/15/15 47/16/15
f 46/15/15 47/16/15 48/16/15
f 51/6/15 50/5/15 49/5/15
f 50/5/15 51/6/15 52/6/15
f 52/6/15 51/6/15 53/7/15
f 52/6/15 53/7/15 54/7/15
f 54/7/15 53/7/15 55/8/15
f 54/7/15 55/8/15 56/8/15
f 59/18/15 58/17/15 57/17/15
f 58/17/15 59/18/15 60/18/15
f 60/18/15 59/18/15 61/19/15
f 60/18/15 61/19/15 62/19/15
f 62/19/15 61/19/15 63/20/15
f 62/19/15 63/20/15 64/20/15
f 67/22/15 66/21/15 65/21/15
f 66/21/15 67/22/15 68/22/15
f 68/22/15 67/22/15 69/23/15
f 68/22/15 69/23/15 70/23/15
f 70/23/15 69/23/15 71/24/15
f 70/23/15 71/24/15 72/24/15
f 75/18/15 74/17/15 73/17/15
f 74/17/15 75/18/15 76/18/15
f 76/18/15 75/18/15 77/19/15
f 76/18/15 77/19/15 78/19/15
f 78/19/15 77/19/15 79/20/15
f 78/19/15 79/20/15 80/20/15
f 83/26/15 82/25/15 81/25/15
f 82/25/15 83/26/15 84/26/15
f 84/26/15 83/26/15 85/27/15
f 84/26/15 85/27/15 86/27/15
f 86/27/15 85/27/15 87/28/15
f 86/27/15 87/28/15 88/28/15
f 91/26/15 90/25/15 89/25/15
f 90/25/15 91/26/15 92/26/15
f 92/26/15 91/26/15 93/27/15
f 92/26/15 93/27/15 94/27/15
f 94/27/15 93/27/15 95/28/15
f 94/27/15 95/28/15 96/28/15
f 99/26/15 98/25/15 97/25/15
f 98/25/15 99/26/15 100/26/15
f 100/26/15 99/26/15 101/27/15
f 100/26/15 101/27/15 102/27/15
f 102/27/15 101/27/15 103/28/15
f 102/27/15 103/28/15 104/28/15
f 107/10/15 106/9/15 105/9/15
f 106/9/15 107/10/15 108/10/15
f 108/10/15 107/10/15 109/11/15
f 108/10/15 109/11/15 110/11/15
f 110/11/15 109/11/15 111/12/15
f 110/11/15 111/12/15 112/12/15
f 115/22/15 114/21/15 113/21/15
f 114/21/15 115/22/15 116/22/15
f 116/22/15 115/22/15 117/23/15
f 116/22/15 117/23/15 118/23/15
f 118/23/15 117/23/15 119/24/15
f 118/23/15 119/24/15 120/24/15
f 123/22/15 122/21/15 121/21/15
f 122/21/15 123/22/15 124/22/15
f 124/22/15 123/22/15 125/23/15
f 124/22/15 125/23/15 126/23/15
f 126/23/15 125/23/15 127/24/15
f 126/23/15 127/24/15 128/24/15
f 131/10/15 130/9/15 129/9/15
f 130/9/15 131/10/15 132/10/15
f 132/10/15 131/10/15 133/11/15
f 132/10/15 133/11/15 134/11/15
f 134/11/15 133/11/15 135/12/15
f 134/11/15 135/12/15 136/12/15
f 139/14/15 138/13/15 137/13/15
f 138/13/15 139/14/15 140/14/15
f 140/14/15 139/14/15 141/15/15
f 140/14/15 141/15/15 142/15/15
f 142/15/15 141/15/15 143/16/15
f 142/15/15 143/16/15 144/16/15
f 147/6/15 146/5/15 145/5/15
f 146/5/15 147/6/15 148/6/15
f 148/6/15 147/6/15 149/7/15
f 148/6/15 149/7/15 150/7/15
f 150/7/15 149/7/15 151/8/15
f 150/7/15 151/8/15 152/8/15
f 155/18/15 154/17/15 153/17/15
f 154/17/15 155/18/15 156/18/15
f 156/18/15 155/18/15 157/19/15
f 156/18/15 157/19/15 158/19/15
f 158/19/15 157/19/15 159/20/15
f 158/19/15 159/20/15 160/20/15
f 163/14/15 162/13/15 161/13/15
f 162/13/15 163/14/15 164/14/15
f 164/14/15 163/14/15 165/15/15
f 164/14/15 165/15/15 166/15/15
f 166/15/15 165/15/15 167/16/15
f 166/15/15 167/16/15 168/16/15
f 81/30/16 82/30/16 83/29/16
f 84/29/16 83/29/16 82/30/16
f 85/31/16 83/29/16 84/29/16
f 86/31/16 85/31/16 84/29/16
f 87/32/16 85/31/16 86/31/16
f 88/32/16 87/32/16 86/31/16
f 121/34/16 122/34/16 123/33/16
f 124/33/16 123/33/16 122/34/16
f 125/35/16 123/33/16 124/33/16
f 126/35/16 125/35/16 124/33/16
f 127/36/16 125/35/16 126/35/16
f 128/36/16 127/36/16 126/35/16
f 24/37/5 22/37/5 23/37/5
f 22/37/5 24/37/5 21/37/5

