# Created by Kenney (www.kenney.nl)

mtllib water-tower.mtl

g water-tower

v 0.2681679 0.9827 -0.1333713 1 1 1
v 0.2612414 0.9827 -0.1681956 1 1 1
v 0.2408682 1.01 -0.1306826 1 1 1
v 0.2355249 1.01 -0.1575437 1 1 1
v 0.2612414 1.0373 0.1681958 1 1 1
v 0.2415154 1.0373 0.1977181 1 1 1
v 0.2355249 1.01 0.1575437 1 1 1
v 0.2218329 1.01 0.1780362 1 1 1
v 0.2611975 1.01 -0.2174006 1 1 1
v 0.2415154 1.0373 -0.1977181 1 1 1
v 0.2226451 1.01 -0.2431604 1 1 1
v 0.2119925 1.0373 -0.2174445 1 1 1
v 0.1798569 1.01 -0.2516716 1 1 1
v 0.2119925 0.9827 -0.2174445 1 1 1
v 0.177168 0.9827 -0.2243712 1 1 1
v 0.2611975 1.01 0.2174004 1 1 1
v 0.2226451 1.01 0.2431607 1 1 1
v 0.2119925 1.0373 0.2174447 1 1 1
v 0.2681679 0.9827 0.1333715 1 1 1
v 0.2408682 1.01 0.1306828 1 1 1
v 0.2612414 0.9827 0.1681958 1 1 1
v 0.2954685 1.01 0.1360602 1 1 1
v 0.2869571 1.01 0.1788475 1 1 1
v 0.2681679 1.0373 0.1333715 1 1 1
v 0.2681679 1.0373 -0.1333713 1 1 1
v 0.2954685 1.01 -0.1360602 1 1 1
v 0.2869571 1.01 -0.1788475 1 1 1
v 0.2415154 0.9827 0.1977181 1 1 1
v 0.2612414 1.0373 -0.1681956 1 1 1
v 0.2218329 1.01 -0.178036 1 1 1
v 0.2013408 1.01 0.1917284 1 1 1
v 0.2415154 0.9827 -0.1977181 1 1 1
v 0.2013408 1.01 -0.1917284 1 1 1
v 0.2119925 0.9827 0.2174447 1 1 1
v 0.1798569 1.01 0.2516716 1 1 1
v 0.177168 0.9827 0.2243714 1 1 1
v 0.1744795 1.01 0.1970717 1 1 1
v 0.177168 1.0373 0.2243714 1 1 1
v 0.1744795 1.01 -0.1970715 1 1 1
v 0.177168 1.0373 -0.2243712 1 1 1
v -0.1798564 1.01 -0.2516716 1 1 1
v -0.177168 1.0373 -0.2243712 1 1 1
v -0.1744786 1.01 -0.1970715 1 1 1
v -0.177168 0.9827 -0.2243712 1 1 1
v -0.2013399 1.01 -0.1917284 1 1 1
v -0.2119921 0.9827 -0.2174445 1 1 1
v -0.2119921 1.0373 -0.2174445 1 1 1
v -0.2415145 1.0373 -0.1977181 1 1 1
v -0.2226437 1.01 -0.2431604 1 1 1
v -0.2611971 1.01 -0.2174006 1 1 1
v -0.2218324 1.01 -0.178036 1 1 1
v -0.2415145 0.9827 -0.1977181 1 1 1
v -0.2355253 1.01 -0.1575437 1 1 1
v -0.2612405 0.9827 -0.1681956 1 1 1
v -0.2681683 0.9827 0.1333715 1 1 1
v -0.2681683 0.9827 -0.1333713 1 1 1
v -0.2954681 1.01 0.1360602 1 1 1
v -0.2954681 1.01 -0.1360602 1 1 1
v -0.2612405 1.0373 -0.1681956 1 1 1
v -0.2681683 1.0373 -0.1333713 1 1 1
v -0.2869562 1.01 -0.1788475 1 1 1
v -0.2408677 1.01 0.1306828 1 1 1
v -0.2408677 1.01 -0.1306826 1 1 1
v -0.2612405 1.0373 0.1681958 1 1 1
v -0.2869562 1.01 0.1788475 1 1 1
v -0.2681683 1.0373 0.1333715 1 1 1
v -0.2415145 0.9827 0.1977181 1 1 1
v -0.2612405 0.9827 0.1681958 1 1 1
v -0.2611971 1.01 0.2174004 1 1 1
v -0.2355253 1.01 0.1575437 1 1 1
v -0.1744786 1.01 0.1970717 1 1 1
v -0.177168 1.0373 0.2243714 1 1 1
v -0.2013399 1.01 0.1917284 1 1 1
v -0.2119921 1.0373 0.2174447 1 1 1
v -0.2119921 0.9827 0.2174447 1 1 1
v -0.2226437 1.01 0.2431607 1 1 1
v -0.177168 0.9827 0.2243714 1 1 1
v -0.2415145 1.0373 0.1977181 1 1 1
v -0.1798564 1.01 0.2516716 1 1 1
v -0.2218324 1.01 0.1780362 1 1 1
v 0.2871243 0.2 0.3414201 1 1 1
v 0.2844358 0.1727 0.3141204 1 1 1
v -0.2871239 0.2 0.3414201 1 1 1
v -0.2844354 0.1727 0.3141204 1 1 1
v -0.2817456 0.2 -0.28682 1 1 1
v -0.3086074 0.2 -0.2814771 1 1 1
v -0.2844354 0.2273 -0.3141199 1 1 1
v -0.3192595 0.2273 -0.307193 1 1 1
v 0.2817469 0.2 0.2868202 1 1 1
v -0.2817456 0.2 0.2868202 1 1 1
v 0.2844358 0.2273 0.3141204 1 1 1
v -0.2844354 0.2273 0.3141204 1 1 1
v -0.3086074 0.2 0.2814771 1 1 1
v -0.3192595 0.2273 0.3071932 1 1 1
v -0.3290999 0.2 0.2677847 1 1 1
v -0.3487815 0.2273 0.2874665 1 1 1
v 0.3299116 0.2 0.3329091 1 1 1
v 0.3192599 0.1727 0.3071932 1 1 1
v 0.3685089 0.2273 -0.2579443 1 1 1
v 0.3427927 0.2 -0.2472924 1 1 1
v 0.3487819 0.2273 -0.2874668 1 1 1
v 0.3290999 0.2 -0.2677844 1 1 1
v 0.3299116 0.2 -0.3329089 1 1 1
v 0.3192599 0.2273 -0.307193 1 1 1
v 0.2871243 0.2 -0.3414201 1 1 1
v 0.2844358 0.2273 -0.3141199 1 1 1
v -0.3427914 0.2 0.2472924 1 1 1
v -0.3685089 0.2273 0.2579443 1 1 1
v -0.3487815 0.2273 -0.2874668 1 1 1
v -0.3685089 0.2273 -0.2579443 1 1 1
v -0.3684632 0.2 -0.3071491 1 1 1
v -0.3942246 0.2 -0.2685962 1 1 1
v 0.3754358 0.1727 -0.22312 1 1 1
v 0.3685089 0.1727 -0.2579443 1 1 1
v 0.3481352 0.2 -0.2204311 1 1 1
v -0.3290999 0.2 -0.2677844 1 1 1
v -0.3192595 0.1727 -0.307193 1 1 1
v -0.3299111 0.2 -0.3329089 1 1 1
v -0.3487815 0.1727 -0.2874668 1 1 1
v -0.3487815 0.1727 0.2874665 1 1 1
v -0.3685089 0.1727 0.2579443 1 1 1
v -0.3684632 0.2 0.3071491 1 1 1
v -0.3942246 0.2 0.2685962 1 1 1
v -0.3299111 0.2 0.3329091 1 1 1
v -0.3192595 0.1727 0.3071932 1 1 1
v -0.3427914 0.2 -0.2472924 1 1 1
v -0.3685089 0.1727 -0.2579443 1 1 1
v -0.3481352 0.2 -0.2204311 1 1 1
v -0.3754349 0.1727 -0.22312 1 1 1
v -0.3754349 0.2273 -0.22312 1 1 1
v -0.4027346 0.2 -0.2258089 1 1 1
v 0.3192599 0.1727 -0.307193 1 1 1
v 0.2844358 0.1727 -0.3141199 1 1 1
v 0.3684645 0.2 -0.3071491 1 1 1
v -0.2844354 0.1727 -0.3141199 1 1 1
v 0.3487819 0.1727 -0.2874668 1 1 1
v -0.3481352 0.2 0.2204313 1 1 1
v -0.3754349 0.2273 0.2231202 1 1 1
v -0.4027346 0.2 0.2258087 1 1 1
v 0.4027355 0.2 -0.2258089 1 1 1
v 0.3942241 0.2 -0.2685962 1 1 1
v 0.3754358 0.2273 -0.22312 1 1 1
v 0.3086078 0.2 -0.2814771 1 1 1
v 0.2817469 0.2 -0.28682 1 1 1
v -0.2871239 0.2 -0.3414201 1 1 1
v -0.3754349 0.1727 0.2231202 1 1 1
v 0.3754358 0.1727 0.2231202 1 1 1
v 0.3481352 0.2 0.2204313 1 1 1
v 0.3685089 0.1727 0.2579443 1 1 1
v 0.3427927 0.2 0.2472924 1 1 1
v 0.3942241 0.2 0.2685962 1 1 1
v 0.3684645 0.2 0.3071491 1 1 1
v 0.3685089 0.2273 0.2579443 1 1 1
v 0.3487819 0.2273 0.2874665 1 1 1
v 0.3290999 0.2 0.2677847 1 1 1
v 0.3754358 0.2273 0.2231202 1 1 1
v 0.4027355 0.2 0.2258087 1 1 1
v 0.3487819 0.1727 0.2874665 1 1 1
v 0.3086078 0.2 0.2814771 1 1 1
v 0.3192599 0.2273 0.3071932 1 1 1
v 0.3314911 0.6 0.1698643 1 1 1
v 0.3232608 0.6 0.2112408 1 1 1
v 0.3050915 0.6264 0.1672639 1 1 1
v 0.2983927 0.6264 0.2009401 1 1 1
v 0.3050915 0.5736 -0.1672644 1 1 1
v 0.2786909 0.6 -0.1646644 1 1 1
v 0.3050915 0.5736 0.1672639 1 1 1
v 0.2786909 0.6 0.164664 1 1 1
v 0.2610684 0.6 0.2734337 1 1 1
v 0.2196917 0.6 0.281664 1 1 1
v 0.2507673 0.6264 0.2485654 1 1 1
v 0.2170915 0.6264 0.2552641 1 1 1
v 0.3050915 0.6264 -0.1672644 1 1 1
v 0.3314911 0.6 -0.1698646 1 1 1
v 0.3232608 0.6 -0.2112413 1 1 1
v 0.2983927 0.5736 -0.2009408 1 1 1
v 0.2735246 0.6 -0.1906399 1 1 1
v 0.2983927 0.6264 -0.2009408 1 1 1
v 0.2404666 0.6 0.2236971 1 1 1
v 0.2144909 0.6 0.228864 1 1 1
v 0.2793166 0.6264 0.2294893 1 1 1
v 0.2735246 0.6 0.1906392 1 1 1
v 0.2602827 0.6 0.210456 1 1 1
v 0.2507673 0.5736 0.2485654 1 1 1
v 0.2170915 0.5736 0.2552641 1 1 1
v 0.2983927 0.5736 0.2009401 1 1 1
v 0.2983502 0.6 0.2485226 1 1 1
v 0.2793166 0.5736 0.2294893 1 1 1
v 0.2983502 0.6 -0.2485232 1 1 1
v 0.2793166 0.5736 -0.2294897 1 1 1
v -0.3050901 0.5736 0.1672639 1 1 1
v -0.3050901 0.5736 -0.1672644 1 1 1
v -0.3314898 0.6 0.1698643 1 1 1
v -0.3314898 0.6 -0.1698646 1 1 1
v -0.2404657 0.6 -0.2236977 1 1 1
v -0.2507664 0.5736 -0.248566 1 1 1
v -0.2602827 0.6 -0.2104567 1 1 1
v -0.2793166 0.5736 -0.2294897 1 1 1
v -0.2786905 0.6 -0.1646644 1 1 1
v -0.2786905 0.6 0.164664 1 1 1
v -0.21449 0.6 0.228864 1 1 1
v -0.2170907 0.6264 0.2552641 1 1 1
v -0.2404657 0.6 0.2236971 1 1 1
v -0.2507664 0.6264 0.2485654 1 1 1
v -0.2196908 0.6 0.281664 1 1 1
v 0.2196917 0.6 -0.2816645 1 1 1
v -0.2196908 0.6 -0.2816645 1 1 1
v 0.2170915 0.5736 -0.2552643 1 1 1
v -0.2170907 0.5736 -0.2552643 1 1 1
v -0.2602827 0.6 0.210456 1 1 1
v -0.2793166 0.6264 0.2294893 1 1 1
v 0.2793166 0.6264 -0.2294897 1 1 1
v 0.2602827 0.6 -0.2104567 1 1 1
v 0.2170915 0.6264 -0.2552643 1 1 1
v -0.2170907 0.6264 -0.2552643 1 1 1
v -0.2793166 0.5736 0.2294893 1 1 1
v -0.2983923 0.5736 0.2009401 1 1 1
v -0.2983493 0.6 0.2485226 1 1 1
v -0.3232604 0.6 0.2112408 1 1 1
v -0.2610675 0.6 0.2734337 1 1 1
v -0.2735242 0.6 0.1906392 1 1 1
v -0.2983923 0.6264 0.2009401 1 1 1
v -0.2507664 0.6264 -0.248566 1 1 1
v -0.2610675 0.6 -0.2734341 1 1 1
v 0.2610684 0.6 -0.2734341 1 1 1
v 0.2507673 0.6264 -0.248566 1 1 1
v -0.2793166 0.6264 -0.2294897 1 1 1
v -0.2983923 0.6264 -0.2009408 1 1 1
v -0.2983493 0.6 -0.2485232 1 1 1
v -0.3232604 0.6 -0.2112413 1 1 1
v 0.2404666 0.6 -0.2236977 1 1 1
v -0.2735242 0.6 -0.1906399 1 1 1
v -0.2507664 0.5736 0.2485654 1 1 1
v 0.2507673 0.5736 -0.248566 1 1 1
v -0.2983923 0.5736 -0.2009408 1 1 1
v -0.3050901 0.6264 -0.1672644 1 1 1
v 0.2144909 0.6 -0.2288644 1 1 1
v -0.21449 0.6 -0.2288644 1 1 1
v -0.3050901 0.6264 0.1672639 1 1 1
v -0.2170907 0.5736 0.2552641 1 1 1
v 0.3791184 -6.48319E-24 -0.2294499 1 1 1
v 0.2791184 -6.48319E-24 -0.2294499 1 1 1
v 0.2791184 0.6 -0.1294499 1 1 1
v 0.1791184 0.6 -0.1294499 1 1 1
v 0.2291184 1.2 -0.07944988 1 1 1
v 0.1291184 1.2 -0.07944988 1 1 1
v 0.3791184 -6.48319E-24 -0.3294499 1 1 1
v 0.2791184 -6.48319E-24 -0.3294499 1 1 1
v 0.1791184 0.6 -0.2294499 1 1 1
v 0.2791184 0.6 -0.2294499 1 1 1
v 0.2291184 1.2 -0.1794499 1 1 1
v 0.1291184 1.2 -0.1794499 1 1 1
v -0.3791171 -6.48319E-24 0.2294499 1 1 1
v -0.279117 -6.48319E-24 0.2294499 1 1 1
v -0.279117 0.6 0.1294499 1 1 1
v -0.179117 0.6 0.1294499 1 1 1
v -0.2291171 1.2 0.07944991 1 1 1
v -0.129117 1.2 0.07944991 1 1 1
v -0.3791171 -6.48319E-24 0.3294499 1 1 1
v -0.279117 -6.48319E-24 0.3294499 1 1 1
v -0.179117 0.6 0.2294499 1 1 1
v -0.279117 0.6 0.2294499 1 1 1
v -0.2291171 1.2 0.1794499 1 1 1
v -0.129117 1.2 0.1794499 1 1 1
v -0.2791171 -6.48319E-24 -0.3294499 1 1 1
v -0.279117 -6.48319E-24 -0.2294499 1 1 1
v -0.179117 0.6 -0.2294499 1 1 1
v -0.179117 0.6 -0.1294499 1 1 1
v -0.129117 1.2 -0.1794499 1 1 1
v -0.129117 1.2 -0.07944988 1 1 1
v -0.3791171 -6.48319E-24 -0.3294499 1 1 1
v -0.3791171 -6.48319E-24 -0.2294499 1 1 1
v -0.279117 0.6 -0.1294499 1 1 1
v -0.279117 0.6 -0.2294499 1 1 1
v -0.229117 1.2 -0.1794499 1 1 1
v -0.229117 1.2 -0.07944986 1 1 1
v 0.2791184 -6.48319E-24 0.3294499 1 1 1
v 0.2791184 -6.48319E-24 0.2294499 1 1 1
v 0.1791184 0.6 0.2294499 1 1 1
v 0.1791184 0.6 0.1294499 1 1 1
v 0.1291184 1.2 0.1794499 1 1 1
v 0.1291184 1.2 0.07944988 1 1 1
v 0.3791184 -6.48319E-24 0.3294499 1 1 1
v 0.3791184 -6.48319E-24 0.2294499 1 1 1
v 0.2791184 0.6 0.1294499 1 1 1
v 0.2791184 0.6 0.2294499 1 1 1
v 0.2291184 1.2 0.1794499 1 1 1
v 0.2291184 1.2 0.07944989 1 1 1
v 0.2726004 1.2658 1.623684E-08 1 1 1
v 0.236079 1.2658 -0.1363 1 1 1
v 0.236079 1.2658 0.1363 1 1 1
v 0.1363004 1.2658 0.2360785 1 1 1
v 0.1363004 1.2658 -0.2360785 1 1 1
v 4.37501E-07 1.2658 -0.2726 1 1 1
v 4.37501E-07 1.2658 0.2726 1 1 1
v -0.1362996 1.2658 0.2360785 1 1 1
v -0.1362996 1.2658 -0.2360785 1 1 1
v -0.2360781 1.2658 -0.1363 1 1 1
v -0.2360781 1.2658 0.1363 1 1 1
v -0.2725995 1.2658 1.623684E-08 1 1 1
v 0.2726004 1.710984 1.623684E-08 1 1 1
v 0.236079 1.710984 0.1363 1 1 1
v 0.236079 1.710984 -0.1363 1 1 1
v 0.1363004 1.710984 -0.2360785 1 1 1
v 0.1363004 1.710984 0.2360785 1 1 1
v 4.37501E-07 1.710984 -0.2726 1 1 1
v 4.37501E-07 1.710984 0.2726 1 1 1
v -0.1362996 1.710984 -0.2360785 1 1 1
v -0.1362996 1.710984 0.2360785 1 1 1
v -0.2360781 1.710984 -0.1363 1 1 1
v -0.2360781 1.710984 0.1363 1 1 1
v -0.2725995 1.710984 1.623684E-08 1 1 1
v 0.3189424 1.710984 1.623684E-08 1 1 1
v 0.2762123 1.710984 -0.159471 1 1 1
v 0.2762123 1.710984 0.159471 1 1 1
v 0.1594714 1.710984 0.2762119 1 1 1
v 0.1594714 1.710984 -0.2762118 1 1 1
v 4.37501E-07 1.710984 0.318942 1 1 1
v 4.37501E-07 1.710984 -0.318942 1 1 1
v -0.1594706 1.710984 0.2762119 1 1 1
v -0.1594706 1.710984 -0.2762118 1 1 1
v -0.2762114 1.710984 -0.159471 1 1 1
v -0.2762114 1.710984 0.159471 1 1 1
v -0.3189415 1.710984 1.623684E-08 1 1 1
v 0.03508406 2.141665 1.623684E-08 1 1 1
v 0.03038374 2.141665 0.01754182 1 1 1
v 0.03038374 2.141665 -0.01754179 1 1 1
v 0.01754225 2.141665 -0.03038329 1 1 1
v 0.01754225 2.141665 0.03038332 1 1 1
v 4.37501E-07 2.141665 -0.0350836 1 1 1
v 4.37501E-07 2.141665 0.03508364 1 1 1
v -0.01754137 2.141665 -0.03038329 1 1 1
v -0.01754137 2.141665 0.03038332 1 1 1
v -0.03038287 2.141665 -0.01754179 1 1 1
v -0.03038287 2.141665 0.01754182 1 1 1
v -0.03508318 2.141665 1.623684E-08 1 1 1
v 0.1594714 1.752814 -0.2762118 1 1 1
v 0.2762123 1.752814 -0.159471 1 1 1
v -0.2762114 1.752814 -0.159471 1 1 1
v -0.3189415 1.752814 1.623684E-08 1 1 1
v 0.3189424 1.752814 1.623684E-08 1 1 1
v -0.2762114 1.752814 0.159471 1 1 1
v -0.1594706 1.752814 0.2762119 1 1 1
v -0.1594706 1.752814 -0.2762118 1 1 1
v 0.2762123 1.752814 0.159471 1 1 1
v 0.1594714 1.752814 0.2762119 1 1 1
v 4.37501E-07 1.752814 -0.318942 1 1 1
v 4.37501E-07 1.752814 0.318942 1 1 1
v 0.4089004 1.2658 1.623684E-08 1 1 1
v 0.3541182 1.2658 0.20445 1 1 1
v 0.3541182 1.2658 -0.20445 1 1 1
v 0.2044504 1.2658 -0.3541178 1 1 1
v 0.2044504 1.2658 0.3541178 1 1 1
v 4.37501E-07 1.2658 -0.4089 1 1 1
v 4.37501E-07 1.2658 0.4089 1 1 1
v -0.2044496 1.2658 -0.3541178 1 1 1
v -0.2044496 1.2658 0.3541178 1 1 1
v -0.3541173 1.2658 -0.20445 1 1 1
v -0.3541173 1.2658 0.20445 1 1 1
v -0.4088995 1.2658 1.623684E-08 1 1 1
v 0.4089004 1.2 1.623684E-08 1 1 1
v 0.3541182 1.2 -0.20445 1 1 1
v 0.3541182 1.2 0.20445 1 1 1
v 0.2044504 1.2 0.3541178 1 1 1
v 0.2044504 1.2 -0.3541178 1 1 1
v 4.37501E-07 1.2 0.4089 1 1 1
v 4.37501E-07 1.2 -0.4089 1 1 1
v -0.2044496 1.2 0.3541178 1 1 1
v -0.2044496 1.2 -0.3541178 1 1 1
v -0.3541173 1.2 -0.20445 1 1 1
v -0.3541173 1.2 0.20445 1 1 1
v -0.4088995 1.2 1.623684E-08 1 1 1
v -0.1845936 1.3692 -0.3197263 1 1 1
v -0.1962716 1.34664 -0.339953 1 1 1
v -0.3197259 1.3692 -0.1845941 1 1 1
v -0.3399526 1.34664 -0.196272 1 1 1
v 4.37501E-07 1.3692 -0.4158998 1 1 1
v 4.37501E-07 1.39176 -0.3925439 1 1 1
v -0.2079495 1.3692 -0.3601798 1 1 1
v -0.1962716 1.39176 -0.339953 1 1 1
v 0.2079503 1.3692 -0.3601798 1 1 1
v 0.1962724 1.39176 -0.339953 1 1 1
v 4.37501E-07 1.34664 -0.3925439 1 1 1
v 0.1962724 1.34664 0.3399531 1 1 1
v 0.1845945 1.3692 0.3197263 1 1 1
v 4.37501E-07 1.34664 0.392544 1 1 1
v 4.37501E-07 1.3692 0.3691882 1 1 1
v -0.3399526 1.39176 -0.196272 1 1 1
v -0.3601793 1.3692 -0.2079499 1 1 1
v 4.37501E-07 1.39176 0.392544 1 1 1
v -0.1845936 1.3692 0.3197263 1 1 1
v -0.1962716 1.39176 0.3399531 1 1 1
v 0.3399535 1.39176 -0.196272 1 1 1
v 0.3197268 1.3692 -0.1845941 1 1 1
v 0.1845945 1.3692 -0.3197263 1 1 1
v 0.3601802 1.3692 -0.2079499 1 1 1
v 0.3399535 1.34664 -0.196272 1 1 1
v 0.1962724 1.34664 -0.339953 1 1 1
v -0.3197259 1.3692 0.1845941 1 1 1
v -0.3691877 1.3692 1.623684E-08 1 1 1
v -0.3399526 1.34664 0.196272 1 1 1
v -0.3925435 1.34664 1.623684E-08 1 1 1
v 0.1962724 1.39176 0.3399531 1 1 1
v -0.3601793 1.3692 0.2079499 1 1 1
v -0.4158993 1.3692 1.623684E-08 1 1 1
v 4.37501E-07 1.3692 -0.3691881 1 1 1
v 4.37501E-07 1.3692 0.4158998 1 1 1
v -0.2079495 1.3692 0.3601798 1 1 1
v 0.3925444 1.34664 1.623684E-08 1 1 1
v 0.3691886 1.3692 1.623684E-08 1 1 1
v -0.3925435 1.39176 1.623684E-08 1 1 1
v -0.1962716 1.34664 0.3399531 1 1 1
v 0.3399535 1.34664 0.196272 1 1 1
v 0.3197268 1.3692 0.1845941 1 1 1
v 0.3601802 1.3692 0.2079499 1 1 1
v 0.2079503 1.3692 0.3601798 1 1 1
v 0.3399535 1.39176 0.196272 1 1 1
v -0.3399526 1.39176 0.196272 1 1 1
v 0.4159002 1.3692 1.623684E-08 1 1 1
v 0.3925444 1.39176 1.623684E-08 1 1 1
v 0.294681 1.39364 0 1 1 1
v 0.2552013 1.39364 -0.1473403 1 1 1
v 0.2552013 1.39364 0.1473403 1 1 1
v 0.1473407 1.39364 0.2552009 1 1 1
v 0.1473407 1.39364 -0.2552009 1 1 1
v 4.482269E-07 1.39364 -0.2946806 1 1 1
v 4.482269E-07 1.39364 0.2946806 1 1 1
v -0.1473399 1.39364 0.2552009 1 1 1
v -0.1473399 1.39364 -0.2552009 1 1 1
v -0.2552004 1.39364 -0.1473403 1 1 1
v -0.2552004 1.39364 0.1473403 1 1 1
v -0.2946801 1.39364 0 1 1 1
v 0.294681 1.57036 0 1 1 1
v 0.2552013 1.57036 0.1473403 1 1 1
v 0.2552013 1.57036 -0.1473403 1 1 1
v 0.1473407 1.57036 -0.2552009 1 1 1
v 0.1473407 1.57036 0.2552009 1 1 1
v 4.482269E-07 1.57036 -0.2946806 1 1 1
v 4.482269E-07 1.57036 0.2946806 1 1 1
v -0.1473399 1.57036 -0.2552009 1 1 1
v -0.1473399 1.57036 0.2552009 1 1 1
v -0.2552004 1.57036 -0.1473403 1 1 1
v -0.2552004 1.57036 0.1473403 1 1 1
v -0.2946801 1.57036 0 1 1 1
v 0.4078083 2.46747E-17 -0.1824601 1 1 1
v 0.2504283 2.46747E-17 -0.1824601 1 1 1
v 0.4078083 0.0555 -0.1824601 1 1 1
v 0.2504283 0.0555 -0.1824601 1 1 1
v 0.2321284 2.46747E-17 -0.3581401 1 1 1
v 0.2321284 0.0555 -0.3581401 1 1 1
v 0.2321284 2.46747E-17 -0.20076 1 1 1
v 0.2321284 0.0555 -0.20076 1 1 1
v 0.4261083 0.0555 -0.3581401 1 1 1
v 0.4261083 2.46747E-17 -0.3581401 1 1 1
v 0.4261083 0.0555 -0.20076 1 1 1
v 0.4261083 2.46747E-17 -0.20076 1 1 1
v 0.2504283 2.46747E-17 -0.37644 1 1 1
v 0.4078083 2.46747E-17 -0.37644 1 1 1
v 0.2504283 0.0555 -0.37644 1 1 1
v 0.4078083 0.0555 -0.37644 1 1 1
v -0.4078074 2.46747E-17 0.1824601 1 1 1
v -0.2504274 2.46747E-17 0.1824601 1 1 1
v -0.4078074 0.0555 0.1824601 1 1 1
v -0.2504274 0.0555 0.1824601 1 1 1
v -0.2321275 2.46747E-17 0.3581401 1 1 1
v -0.2321275 0.0555 0.3581401 1 1 1
v -0.2321275 2.46747E-17 0.2007601 1 1 1
v -0.2321275 0.0555 0.2007601 1 1 1
v -0.4261074 0.0555 0.3581401 1 1 1
v -0.4261074 2.46747E-17 0.3581401 1 1 1
v -0.4261074 0.0555 0.2007601 1 1 1
v -0.4261074 2.46747E-17 0.2007601 1 1 1
v -0.2504274 2.46747E-17 0.37644 1 1 1
v -0.4078074 2.46747E-17 0.37644 1 1 1
v -0.2504274 0.0555 0.37644 1 1 1
v -0.4078074 0.0555 0.37644 1 1 1
v -0.2321274 2.46747E-17 -0.3581401 1 1 1
v -0.2321274 2.46747E-17 -0.20076 1 1 1
v -0.2321274 0.0555 -0.3581401 1 1 1
v -0.2321274 0.0555 -0.20076 1 1 1
v -0.4078074 2.46747E-17 -0.18246 1 1 1
v -0.4078074 0.0555 -0.18246 1 1 1
v -0.2504274 2.46747E-17 -0.18246 1 1 1
v -0.2504274 0.0555 -0.18246 1 1 1
v -0.4078074 0.0555 -0.37644 1 1 1
v -0.4078074 2.46747E-17 -0.37644 1 1 1
v -0.2504274 0.0555 -0.37644 1 1 1
v -0.2504274 2.46747E-17 -0.37644 1 1 1
v -0.4261074 2.46747E-17 -0.20076 1 1 1
v -0.4261074 2.46747E-17 -0.35814 1 1 1
v -0.4261074 0.0555 -0.20076 1 1 1
v -0.4261074 0.0555 -0.35814 1 1 1
v 0.2321283 2.46747E-17 0.3581401 1 1 1
v 0.2321284 2.46747E-17 0.20076 1 1 1
v 0.2321283 0.0555 0.3581401 1 1 1
v 0.2321284 0.0555 0.20076 1 1 1
v 0.4078083 2.46747E-17 0.1824601 1 1 1
v 0.4078083 0.0555 0.1824601 1 1 1
v 0.2504283 2.46747E-17 0.18246 1 1 1
v 0.2504283 0.0555 0.18246 1 1 1
v 0.4078083 0.0555 0.37644 1 1 1
v 0.4078083 2.46747E-17 0.37644 1 1 1
v 0.2504283 0.0555 0.37644 1 1 1
v 0.2504283 2.46747E-17 0.37644 1 1 1
v 0.4261084 2.46747E-17 0.20076 1 1 1
v 0.4261083 2.46747E-17 0.3581401 1 1 1
v 0.4261084 0.0555 0.20076 1 1 1
v 0.4261083 0.0555 0.3581401 1 1 1

vn 0.04116963 -0.9390891 -0.004054855
vn 0.07548447 -0.9364424 -0.03126669
vn -0.9354736 0 0.09213611
vn -0.8684466 0 0.3597224
vn 0.07548447 0.9364424 0.03126669
vn 0.05777331 0.9364424 0.05777331
vn -0.8684466 0 -0.3597224
vn -0.6646803 0 -0.6646803
vn 0.6646803 0 -0.6646803
vn 0.05777331 0.9364424 -0.05777331
vn 0.3597224 0 -0.8684466
vn 0.03126669 0.9364424 -0.07548447
vn 0.09213611 0 -0.9354736
vn 0.03126669 -0.9364424 -0.07548447
vn 0.004054855 -0.9390891 -0.04116963
vn 0.6646803 0 0.6646803
vn 0.3597224 0 0.8684466
vn 0.03126669 0.9364424 0.07548447
vn 0.04116963 -0.9390891 0.004054855
vn -0.9354736 0 -0.09213611
vn 0.07548447 -0.9364424 0.03126669
vn 0.9354736 0 0.09213611
vn 0.8684466 0 0.3597224
vn 0.04116963 0.9390891 0.004054855
vn 0.04116963 0.9390891 -0.004054855
vn 0.9354736 0 -0.09213611
vn 0.8684466 0 -0.3597224
vn 0.05777331 -0.9364424 0.05777331
vn 0.07548447 0.9364424 -0.03126669
vn -0.6646803 0 0.6646803
vn -0.3597224 0 -0.8684466
vn 0.05777331 -0.9364424 -0.05777331
vn -0.3597224 0 0.8684466
vn 0.03126669 -0.9364424 0.07548447
vn 0.09213611 0 0.9354736
vn 0.004054855 -0.9390891 0.04116963
vn -0.09213611 0 -0.9354736
vn 0.004054855 0.9390891 0.04116963
vn -0.09213611 0 0.9354736
vn 0.004054855 0.9390891 -0.04116963
vn -0.004054855 0.9390891 -0.04116963
vn -0.004054855 -0.9390891 -0.04116963
vn -0.03126669 -0.9364424 -0.07548447
vn -0.03126669 0.9364424 -0.07548447
vn -0.05777331 0.9364424 -0.05777331
vn -0.05777331 -0.9364424 -0.05777331
vn -0.07548447 -0.9364424 -0.03126669
vn -0.04116963 -0.9390891 0.004054855
vn -0.04116963 -0.9390891 -0.004054855
vn -0.07548447 0.9364424 -0.03126669
vn -0.04116963 0.9390891 -0.004054855
vn -0.07548447 0.9364424 0.03126669
vn -0.04116963 0.9390891 0.004054855
vn -0.05777331 -0.9364424 0.05777331
vn -0.07548447 -0.9364424 0.03126669
vn -0.004054855 0.9390891 0.04116963
vn -0.03126669 0.9364424 0.07548447
vn -0.03126669 -0.9364424 0.07548447
vn -0.004054855 -0.9390891 0.04116963
vn -0.05777331 0.9364424 0.05777331
vn 0 -0.154535 0.9272103
vn 0 -0.1193158 0.9323968
vn 0 -0.1133237 0.933144
vn 0 -0.07806276 0.936753
vn 0 -0.94 0
vn 0 0.154535 -0.9272103
vn 0.6469524 0.2156508 -0.6469524
vn 0 0.1133237 -0.933144
vn 0.6540561 0.1673949 -0.6540561
vn 0.9272103 0.154535 0
vn 0.933144 0.1133237 0
vn 0.6601121 0.1100187 -0.6601121
vn 0.936753 0.07806276 0
vn 0 0.07806276 -0.936753
vn 0 0.94 0
vn -0.9272103 -0.154535 0
vn -0.9323968 -0.1193158 0
vn -0.933144 -0.1133237 0
vn -0.936753 -0.07806276 0
vn 1.023234E-13 -0.154535 -0.9272103
vn 1.028957E-13 -0.1193158 -0.9323968
vn 1.029782E-13 -0.1133237 -0.933144
vn 1.033765E-13 -0.07806276 -0.936753
vn -1.023234E-13 0.154535 0.9272103
vn -0.6469524 0.2156508 0.6469524
vn -1.029782E-13 0.1133237 0.933144
vn -0.6540561 0.1673949 0.6540561
vn -0.9272103 0.154535 -1.023234E-13
vn -0.933144 0.1133237 -1.029782E-13
vn -0.6601121 0.1100187 0.6601121
vn -0.936753 0.07806276 -1.033765E-13
vn -1.033765E-13 0.07806276 0.936753
vn 0.9272103 -0.154535 1.023234E-13
vn 0.9323968 -0.1193158 1.028957E-13
vn 0.933144 -0.1133237 1.029782E-13
vn 0.936753 -0.07806276 1.033765E-13
vn 0.9272103 -0.154535 -1.105321E-07
vn 0.9323968 -0.1193158 -1.111503E-07
vn 0.933144 -0.1133237 -1.112394E-07
vn 0.936753 -0.07806275 -1.116696E-07
vn 0 -0.9399999 0
vn -0.9272103 0.154535 1.105321E-07
vn -0.6469525 0.2156507 -0.6469523
vn -0.933144 0.1133237 1.112394E-07
vn -0.6540562 0.1673949 -0.6540561
vn -1.105321E-07 0.154535 -0.9272103
vn -1.112394E-07 0.1133237 -0.933144
vn -0.6601121 0.1100187 -0.660112
vn -1.116696E-07 0.07806275 -0.936753
vn -0.936753 0.07806275 1.116696E-07
vn 0 0.9399999 0
vn 1.105321E-07 -0.154535 0.9272103
vn 1.111503E-07 -0.1193158 0.9323968
vn 1.112394E-07 -0.1133237 0.933144
vn 1.116696E-07 -0.07806275 0.936753
vn -0.9272103 -0.154535 -1.105321E-07
vn -0.9323968 -0.1193158 -1.111503E-07
vn -0.933144 -0.1133237 -1.112394E-07
vn -0.936753 -0.07806275 -1.116696E-07
vn 0.9272103 0.154535 1.105321E-07
vn 0.6469523 0.2156507 0.6469525
vn 0.933144 0.1133237 1.112394E-07
vn 0.6540561 0.1673949 0.6540562
vn -1.105321E-07 0.154535 0.9272103
vn -1.112394E-07 0.1133237 0.933144
vn 0.660112 0.1100187 0.6601121
vn -1.116696E-07 0.07806275 0.936753
vn 0.936753 0.07806275 1.116696E-07
vn 1.105321E-07 -0.154535 -0.9272103
vn 1.111503E-07 -0.1193158 -0.9323968
vn 1.112394E-07 -0.1133237 -0.933144
vn 1.116696E-07 -0.07806275 -0.936753
vn 0.47 0 -0.8140639
vn 0 0 -0.94
vn 0.8140639 0 -0.47
vn -0.47 0 -0.8140639
vn 0.94 0 0
vn -0.8140639 0 -0.47
vn -0.94 0 0
vn -0.8140639 0 0.47
vn 0.8140639 0 0.47
vn 0.47 0 0.8140639
vn 0 0 0.94
vn -0.47 0 0.8140639
vn 0.4339638 0.8338317 0
vn 0.3758237 0.8338317 0.2169819
vn 0.3758237 0.8338317 -0.2169819
vn 0.2169819 0.8338317 -0.3758237
vn 0.2169819 0.8338317 0.3758237
vn 0 0.8338317 -0.4339638
vn 0 0.8338317 0.4339638
vn -0.2169819 0.8338317 -0.3758237
vn -0.2169819 0.8338317 0.3758237
vn -0.3758237 0.8338317 -0.2169819
vn -0.3758237 0.8338317 0.2169819
vn -0.4339638 0.8338317 0
vn 0.4467482 0.2920003 -0.7737905
vn 0.7737905 0.2920003 -0.4467482
vn -0.7737905 0.2920003 -0.4467482
vn -0.8934964 0.2920003 0
vn 0.8934964 0.2920003 0
vn -0.7737905 0.2920003 0.4467482
vn -0.4467482 0.2920003 0.7737905
vn -0.4467482 0.2920003 -0.7737905
vn 0.7737905 0.2920003 0.4467482
vn 0.4467482 0.2920003 0.7737905
vn 0 0.2920003 -0.8934964
vn 0 0.2920003 0.8934964
vn 0.8140638 0 0.47
vn 0.47 0 -0.8140638
vn 0.8140638 0 -0.47
vn 0.47 0 0.8140638
vn -0.8140638 0 0.47
vn -0.47 0 0.8140638
vn -0.47 0 -0.8140638
vn -0.8140638 0 -0.47
vn -0.05376275 -0.9338299 -0.0931198
vn -0.0931198 -0.9338299 -0.05376275
vn 0 0.9338299 -0.1075255
vn -0.05376275 0.9338299 -0.0931198
vn 0.05376275 0.9338299 -0.0931198
vn 0 -0.9338299 -0.1075255
vn 0.05376275 -0.9338299 0.0931198
vn 0 -0.9338299 0.1075255
vn -0.0931198 0.9338299 -0.05376275
vn 0 0.9338299 0.1075255
vn -0.05376275 0.9338299 0.0931198
vn 0.0931198 0.9338299 -0.05376275
vn 0.0931198 -0.9338299 -0.05376275
vn 0.05376275 -0.9338299 -0.0931198
vn -0.0931198 -0.9338299 0.05376275
vn -0.1075255 -0.9338299 0
vn 0.05376275 0.9338299 0.0931198
vn 0.1075255 -0.9338299 0
vn -0.1075255 0.9338299 0
vn -0.05376275 -0.9338299 0.0931198
vn 0.0931198 -0.9338299 0.05376275
vn 0.0931198 0.9338299 0.05376275
vn -0.0931198 0.9338299 0.05376275
vn 0.1075255 0.9338299 0
vn 0.6672978 0.6620526 0
vn 0.5778968 0.6620526 0.3336489
vn 0.5778968 0.6620526 -0.3336489
vn 0.3336489 0.6620526 -0.5778968
vn 0.3336489 0.6620526 0.5778968
vn 0 0.6620526 -0.6672978
vn 0 0.6620526 0.6672978
vn -0.3336489 0.6620526 -0.5778968
vn -0.3336489 0.6620526 0.5778968
vn -0.5778968 0.6620526 -0.3336489
vn -0.5778968 0.6620526 0.3336489
vn -0.6672978 0.6620526 0
vn 0.3597224 0 0.8684468
vn -0.3597224 0 0.8684468
vn -0.8684468 0 -0.3597224
vn -0.8684468 0 0.3597224
vn 0.8684468 0 -0.3597224
vn 0.8684468 0 0.3597224
vn -0.3597224 0 -0.8684468
vn 0.3597224 0 -0.8684468
vn 0.8684466 0 -0.3597225
vn 0.8684468 0 0.3597223
vn -0.3597223 0 0.8684468
vn 0.3597225 0 0.8684466
vn -0.3597225 0 -0.8684466
vn 0.3597223 0 -0.8684468
vn -0.8684466 0 0.3597225
vn -0.8684468 0 -0.3597223
vn -0.8684468 0 0.3597223
vn -0.8684466 0 -0.3597225
vn 0.3597225 0 -0.8684466
vn -0.3597223 0 -0.8684468
vn 0.3597223 0 0.8684468
vn -0.3597225 0 0.8684466
vn 0.8684468 0 -0.3597223
vn 0.8684466 0 0.3597225

vt 0.71875 0.4634615
vt 0.71875 0.4692308
vt 0.71875 0.475
vt 0.71875 0.448913
vt 0.71875 0.4228261
vt 0.71875 0.4654762
vt 0.71875 0.4559524
vt 0.71875 0.375
vt 0.71875 0.275
vt 0.96875 0.475
vt 0.96875 0.275
vt 0.84375 0.325
vt 0.84375 0.425
vt 0.84375 0.3347125
vt 0.84375 0.375
vt 0.71875 0.575
vt 0.71875 0.675
vt 0.59375 0.325
vt 0.59375 0.425

usemtl colormap

f 3/2/3 2/1/2 1/1/1
f 2/1/2 3/2/3 4/2/4
f 7/2/7 6/3/6 5/3/5
f 6/3/6 7/2/7 8/2/8
f 11/2/11 10/3/10 9/2/9
f 10/3/10 11/2/11 12/3/12
f 14/1/14 13/2/13 11/2/11
f 13/2/13 14/1/14 15/1/15
f 6/3/6 17/2/17 16/2/16
f 17/2/17 6/3/6 18/3/18
f 21/1/21 20/2/20 19/1/19
f 20/2/20 21/1/21 7/2/7
f 24/3/24 23/2/23 22/2/22
f 23/2/23 24/3/24 5/3/5
f 3/2/3 24/3/24 25/3/25
f 24/3/24 3/2/3 20/2/20
f 1/1/1 27/2/27 26/2/26
f 27/2/27 1/1/1 2/1/2
f 16/2/16 21/1/21 23/2/23
f 21/1/21 16/2/16 28/1/28
f 20/2/20 5/3/5 24/3/24
f 5/3/5 20/2/20 7/2/7
f 19/1/19 3/2/3 1/1/1
f 3/2/3 19/1/19 20/2/20
f 10/3/10 4/2/4 29/3/29
f 4/2/4 10/3/10 30/2/30
f 8/2/8 18/3/18 6/3/6
f 18/3/18 8/2/8 31/2/31
f 30/2/30 14/1/14 32/1/32
f 14/1/14 30/2/30 33/2/33
f 34/1/34 8/2/8 28/1/28
f 8/2/8 34/1/34 31/2/31
f 23/2/23 19/1/19 22/2/22
f 19/1/19 23/2/23 21/1/21
f 9/2/9 29/3/29 27/2/27
f 29/3/29 9/2/9 10/3/10
f 17/2/17 28/1/28 16/2/16
f 28/1/28 17/2/17 34/1/34
f 5/3/5 16/2/16 23/2/23
f 16/2/16 5/3/5 6/3/6
f 2/1/2 9/2/9 27/2/27
f 9/2/9 2/1/2 32/1/32
f 35/2/35 34/1/34 17/2/17
f 34/1/34 35/2/35 36/1/36
f 36/1/36 31/2/31 34/1/34
f 31/2/31 36/1/36 37/2/37
f 28/1/28 7/2/7 21/1/21
f 7/2/7 28/1/28 8/2/8
f 31/2/31 38/3/38 18/3/18
f 38/3/38 31/2/31 37/2/37
f 22/2/22 1/1/1 26/2/26
f 1/1/1 22/2/22 19/1/19
f 29/3/29 3/2/3 25/3/25
f 3/2/3 29/3/29 4/2/4
f 27/2/27 25/3/25 26/2/26
f 25/3/25 27/2/27 29/3/29
f 4/2/4 32/1/32 2/1/2
f 32/1/32 4/2/4 30/2/30
f 18/3/18 35/2/35 17/2/17
f 35/2/35 18/3/18 38/3/38
f 25/3/25 22/2/22 26/2/26
f 22/2/22 25/3/25 24/3/24
f 32/1/32 11/2/11 9/2/9
f 11/2/11 32/1/32 14/1/14
f 12/3/12 30/2/30 10/3/10
f 30/2/30 12/3/12 33/2/33
f 33/2/33 15/1/15 14/1/14
f 15/1/15 33/2/33 39/2/39
f 41/2/37 40/3/40 13/2/13
f 40/3/40 41/2/37 42/3/41
f 45/2/17 44/1/42 43/2/35
f 44/1/42 45/2/17 46/1/43
f 49/2/31 48/3/45 47/3/44
f 48/3/45 49/2/31 50/2/8
f 53/2/23 52/1/46 51/2/16
f 52/1/46 53/2/23 54/1/47
f 57/2/3 56/1/49 55/1/48
f 56/1/49 57/2/3 58/2/20
f 40/3/40 43/2/35 39/2/39
f 43/2/35 40/3/40 42/3/41
f 61/2/7 60/3/51 59/3/50
f 60/3/51 61/2/7 58/2/20
f 50/2/8 59/3/50 48/3/45
f 59/3/50 50/2/8 61/2/7
f 55/1/48 63/2/22 62/2/26
f 63/2/22 55/1/48 56/1/49
f 66/3/53 65/2/4 64/3/52
f 65/2/4 66/3/53 57/2/3
f 69/2/30 68/1/55 67/1/54
f 68/1/55 69/2/30 65/2/4
f 46/1/43 41/2/37 44/1/42
f 41/2/37 46/1/43 49/2/31
f 58/2/20 66/3/53 60/3/51
f 66/3/53 58/2/20 57/2/3
f 62/2/26 64/3/52 70/2/27
f 64/3/52 62/2/26 66/3/53
f 51/2/16 46/1/43 45/2/17
f 46/1/43 51/2/16 52/1/46
f 52/1/46 49/2/31 46/1/43
f 49/2/31 52/1/46 50/2/8
f 73/2/11 72/3/56 71/2/13
f 72/3/56 73/2/11 74/3/57
f 41/2/37 47/3/44 42/3/41
f 47/3/44 41/2/37 49/2/31
f 68/1/55 62/2/26 70/2/27
f 62/2/26 68/1/55 55/1/48
f 15/1/15 41/2/37 13/2/13
f 41/2/37 15/1/15 44/1/42
f 76/2/33 67/1/54 75/1/58
f 67/1/54 76/2/33 69/2/30
f 77/1/59 37/2/37 36/1/36
f 37/2/37 77/1/59 71/2/13
f 78/3/60 76/2/33 74/3/57
f 76/2/33 78/3/60 69/2/30
f 13/2/13 12/3/12 11/2/11
f 12/3/12 13/2/13 40/3/40
f 54/1/47 50/2/8 52/1/46
f 50/2/8 54/1/47 61/2/7
f 74/3/57 79/2/39 72/3/56
f 79/2/39 74/3/57 76/2/33
f 67/1/54 70/2/27 80/2/9
f 70/2/27 67/1/54 68/1/55
f 79/2/39 75/1/58 77/1/59
f 75/1/58 79/2/39 76/2/33
f 48/3/45 53/2/23 51/2/16
f 53/2/23 48/3/45 59/3/50
f 79/2/39 36/1/36 35/2/35
f 36/1/36 79/2/39 77/1/59
f 42/3/41 45/2/17 43/2/35
f 45/2/17 42/3/41 47/3/44
f 37/2/37 72/3/56 38/3/38
f 72/3/56 37/2/37 71/2/13
f 60/3/51 62/2/26 63/2/22
f 62/2/26 60/3/51 66/3/53
f 40/3/40 33/2/33 12/3/12
f 33/2/33 40/3/40 39/2/39
f 47/3/44 51/2/16 45/2/17
f 51/2/16 47/3/44 48/3/45
f 65/2/4 55/1/48 68/1/55
f 55/1/48 65/2/4 57/2/3
f 70/2/27 78/3/60 80/2/9
f 78/3/60 70/2/27 64/3/52
f 56/1/49 61/2/7 54/1/47
f 61/2/7 56/1/49 58/2/20
f 64/3/52 69/2/30 78/3/60
f 69/2/30 64/3/52 65/2/4
f 39/2/39 44/1/42 15/1/15
f 44/1/42 39/2/39 43/2/35
f 63/2/22 54/1/47 53/2/23
f 54/1/47 63/2/22 56/1/49
f 80/2/9 74/3/57 73/2/11
f 74/3/57 80/2/9 78/3/60
f 77/1/59 73/2/11 71/2/13
f 73/2/11 77/1/59 75/1/58
f 59/3/50 63/2/22 53/2/23
f 63/2/22 59/3/50 60/3/51
f 75/1/58 80/2/9 73/2/11
f 80/2/9 75/1/58 67/1/54
f 38/3/38 79/2/39 35/2/35
f 79/2/39 38/3/38 72/3/56
f 83/4/39 82/5/36 81/4/35
f 82/5/36 83/4/39 84/5/59
f 87/3/41 86/4/17 85/4/35
f 86/4/17 87/3/41 88/3/44
f 84/5/59 89/4/37 82/5/36
f 89/4/37 84/5/59 90/4/13
f 89/4/37 92/3/56 91/3/38
f 92/3/56 89/4/37 90/4/13
f 95/4/9 94/3/57 93/4/11
f 94/3/57 95/4/9 96/3/60
f 91/3/38 83/4/39 81/4/35
f 83/4/39 91/3/38 92/3/56
f 81/4/35 98/5/34 97/4/17
f 98/5/34 81/4/35 82/5/36
f 101/3/10 100/4/4 99/3/29
f 100/4/4 101/3/10 102/4/30
f 105/4/13 104/3/12 103/4/11
f 104/3/12 105/4/13 106/3/40
f 107/4/27 96/3/60 95/4/9
f 96/3/60 107/4/27 108/3/52
f 111/4/8 110/3/50 109/3/45
f 110/3/50 111/4/8 112/4/7
f 115/4/3 114/5/2 113/5/1
f 114/5/2 115/4/3 100/4/4
f 88/3/44 116/4/16 86/4/17
f 116/4/16 88/3/44 109/3/45
f 119/5/46 118/4/31 117/5/43
f 118/4/31 119/5/46 111/4/8
f 122/4/30 121/5/55 120/5/54
f 121/5/55 122/4/30 123/4/4
f 96/3/60 124/4/33 94/3/57
f 124/4/33 96/3/60 122/4/30
f 83/4/39 125/5/58 84/5/59
f 125/5/58 83/4/39 124/4/33
f 128/4/22 127/5/47 126/4/23
f 127/5/47 128/4/22 129/5/49
f 112/4/7 130/3/51 110/3/50
f 130/3/51 112/4/7 131/4/20
f 132/5/14 105/4/13 103/4/11
f 105/4/13 132/5/14 133/5/15
f 103/4/11 101/3/10 134/4/9
f 101/3/10 103/4/11 104/3/12
f 86/4/17 135/5/42 85/4/35
f 135/5/42 86/4/17 117/5/43
f 116/4/16 117/5/43 86/4/17
f 117/5/43 116/4/16 119/5/46
f 110/3/50 128/4/22 126/4/23
f 128/4/22 110/3/50 130/3/51
f 109/3/45 126/4/23 116/4/16
f 126/4/23 109/3/45 110/3/50
f 100/4/4 136/5/32 114/5/2
f 136/5/32 100/4/4 102/4/30
f 136/5/32 103/4/11 134/4/9
f 103/4/11 136/5/32 132/5/14
f 130/3/51 137/4/26 128/4/22
f 137/4/26 130/3/51 138/3/53
f 127/5/47 111/4/8 119/5/46
f 111/4/8 127/5/47 112/4/7
f 139/4/3 130/3/51 131/4/20
f 130/3/51 139/4/3 138/3/53
f 138/3/53 123/4/4 108/3/52
f 123/4/4 138/3/53 139/4/3
f 113/5/1 141/4/27 140/4/26
f 141/4/27 113/5/1 114/5/2
f 99/3/29 115/4/3 142/3/25
f 115/4/3 99/3/29 100/4/4
f 143/4/33 133/5/15 132/5/14
f 133/5/15 143/4/33 144/4/39
f 117/5/43 145/4/37 135/5/42
f 145/4/37 117/5/43 118/4/31
f 144/4/39 135/5/42 133/5/15
f 135/5/42 144/4/39 85/4/35
f 145/4/37 88/3/44 87/3/41
f 88/3/44 145/4/37 118/4/31
f 106/3/40 143/4/33 104/3/12
f 143/4/33 106/3/40 144/4/39
f 118/4/31 109/3/45 88/3/44
f 109/3/45 118/4/31 111/4/8
f 126/4/23 119/5/46 116/4/16
f 119/5/46 126/4/23 127/5/47
f 145/4/37 133/5/15 135/5/42
f 133/5/15 145/4/37 105/4/13
f 102/4/30 132/5/14 136/5/32
f 132/5/14 102/4/30 143/4/33
f 108/3/52 122/4/30 96/3/60
f 122/4/30 108/3/52 123/4/4
f 114/5/2 134/4/9 141/4/27
f 134/4/9 114/5/2 136/5/32
f 125/5/58 95/4/9 93/4/11
f 95/4/9 125/5/58 120/5/54
f 84/5/59 93/4/11 90/4/13
f 93/4/11 84/5/59 125/5/58
f 87/3/41 144/4/39 106/3/40
f 144/4/39 87/3/41 85/4/35
f 123/4/4 146/5/48 121/5/55
f 146/5/48 123/4/4 139/4/3
f 104/3/12 102/4/30 101/3/10
f 102/4/30 104/3/12 143/4/33
f 121/5/55 137/4/26 107/4/27
f 137/4/26 121/5/55 146/5/48
f 134/4/9 99/3/29 141/4/27
f 99/3/29 134/4/9 101/3/10
f 146/5/48 128/4/22 137/4/26
f 128/4/22 146/5/48 129/5/49
f 137/4/26 108/3/52 107/4/27
f 108/3/52 137/4/26 138/3/53
f 124/4/33 120/5/54 125/5/58
f 120/5/54 124/4/33 122/4/30
f 93/4/11 92/3/56 90/4/13
f 92/3/56 93/4/11 94/3/57
f 141/4/27 142/3/25 140/4/26
f 142/3/25 141/4/27 99/3/29
f 120/5/54 107/4/27 95/4/9
f 107/4/27 120/5/54 121/5/55
f 129/5/49 139/4/3 131/4/20
f 139/4/3 129/5/49 146/5/48
f 87/3/41 105/4/13 145/4/37
f 105/4/13 87/3/41 106/3/40
f 129/5/49 112/4/7 127/5/47
f 112/4/7 129/5/49 131/4/20
f 94/3/57 83/4/39 92/3/56
f 83/4/39 94/3/57 124/4/33
f 149/5/21 148/4/20 147/5/19
f 148/4/20 149/5/21 150/4/7
f 153/3/5 152/4/16 151/4/23
f 152/4/16 153/3/5 154/3/6
f 150/4/7 154/3/6 153/3/5
f 154/3/6 150/4/7 155/4/8
f 115/4/3 156/3/24 142/3/25
f 156/3/24 115/4/3 148/4/20
f 156/3/24 151/4/23 157/4/22
f 151/4/23 156/3/24 153/3/5
f 142/3/25 157/4/22 140/4/26
f 157/4/22 142/3/25 156/3/24
f 98/5/34 155/4/8 158/5/28
f 155/4/8 98/5/34 159/4/31
f 158/5/28 150/4/7 149/5/21
f 150/4/7 158/5/28 155/4/8
f 151/4/23 147/5/19 157/4/22
f 147/5/19 151/4/23 149/5/21
f 82/5/36 159/4/31 98/5/34
f 159/4/31 82/5/36 89/4/37
f 159/4/31 91/3/38 160/3/18
f 91/3/38 159/4/31 89/4/37
f 97/4/17 158/5/28 152/4/16
f 158/5/28 97/4/17 98/5/34
f 148/4/20 153/3/5 156/3/24
f 153/3/5 148/4/20 150/4/7
f 157/4/22 113/5/1 140/4/26
f 113/5/1 157/4/22 147/5/19
f 154/3/6 97/4/17 152/4/16
f 97/4/17 154/3/6 160/3/18
f 155/4/8 160/3/18 154/3/6
f 160/3/18 155/4/8 159/4/31
f 160/3/18 81/4/35 97/4/17
f 81/4/35 160/3/18 91/3/38
f 152/4/16 149/5/21 151/4/23
f 149/5/21 152/4/16 158/5/28
f 147/5/19 115/4/3 113/5/1
f 115/4/3 147/5/19 148/4/20
f 163/3/24 162/6/23 161/6/22
f 162/6/23 163/3/24 164/3/5
f 167/7/19 166/6/3 165/7/1
f 166/6/3 167/7/19 168/6/20
f 171/3/18 170/6/35 169/6/17
f 170/6/35 171/3/18 172/3/38
f 166/6/3 163/3/24 173/3/25
f 163/3/24 166/6/3 168/6/20
f 173/3/25 161/6/22 174/6/26
f 161/6/22 173/3/25 163/3/24
f 165/7/1 175/6/27 174/6/26
f 175/6/27 165/7/1 176/7/2
f 166/6/3 176/7/2 165/7/1
f 176/7/2 166/6/3 177/6/4
f 178/3/29 166/6/3 173/3/25
f 166/6/3 178/3/29 177/6/4
f 179/6/31 172/3/38 171/3/18
f 172/3/38 179/6/31 180/6/37
f 182/6/7 181/3/6 164/3/5
f 181/3/6 182/6/7 183/6/8
f 185/7/36 179/6/31 184/7/34
f 179/6/31 185/7/36 180/6/37
f 175/6/27 173/3/25 174/6/26
f 173/3/25 175/6/27 178/3/29
f 187/6/16 186/7/21 162/6/23
f 186/7/21 187/6/16 188/7/28
f 176/7/2 189/6/9 175/6/27
f 189/6/9 176/7/2 190/7/32
f 184/7/34 183/6/8 188/7/28
f 183/6/8 184/7/34 179/6/31
f 169/6/17 188/7/28 187/6/16
f 188/7/28 169/6/17 184/7/34
f 188/7/28 182/6/7 186/7/21
f 182/6/7 188/7/28 183/6/8
f 164/3/5 187/6/16 162/6/23
f 187/6/16 164/3/5 181/3/6
f 170/6/35 184/7/34 169/6/17
f 184/7/34 170/6/35 185/7/36
f 167/7/19 174/6/26 161/6/22
f 174/6/26 167/7/19 165/7/1
f 183/6/8 171/3/18 181/3/6
f 171/3/18 183/6/8 179/6/31
f 181/3/6 169/6/17 187/6/16
f 169/6/17 181/3/6 171/3/18
f 162/6/23 167/7/19 161/6/22
f 167/7/19 162/6/23 186/7/21
f 186/7/21 168/6/20 167/7/19
f 168/6/20 186/7/21 182/6/7
f 168/6/20 164/3/5 163/3/24
f 164/3/5 168/6/20 182/6/7
f 193/6/3 192/7/49 191/7/48
f 192/7/49 193/6/3 194/6/20
f 197/6/16 196/7/43 195/6/17
f 196/7/43 197/6/16 198/7/46
f 199/6/22 191/7/48 192/7/49
f 191/7/48 199/6/22 200/6/26
f 203/6/11 202/3/56 201/6/13
f 202/3/56 203/6/11 204/3/57
f 172/3/38 205/6/39 170/6/35
f 205/6/39 172/3/38 202/3/56
f 208/7/15 207/6/37 206/6/13
f 207/6/37 208/7/15 209/7/42
f 210/6/9 204/3/57 203/6/11
f 204/3/57 210/6/9 211/3/60
f 212/3/10 177/6/4 178/3/29
f 177/6/4 212/3/10 213/6/30
f 207/6/37 214/3/40 206/6/13
f 214/3/40 207/6/37 215/3/41
f 218/6/30 217/7/55 216/7/54
f 217/7/55 218/6/30 219/6/4
f 204/3/57 205/6/39 202/3/56
f 205/6/39 204/3/57 220/6/33
f 221/6/27 211/3/60 210/6/9
f 211/3/60 221/6/27 222/3/52
f 219/6/4 191/7/48 217/7/55
f 191/7/48 219/6/4 193/6/3
f 207/6/37 223/3/44 215/3/41
f 223/3/44 207/6/37 224/6/31
f 211/3/60 220/6/33 204/3/57
f 220/6/33 211/3/60 218/6/30
f 206/6/13 226/3/12 225/6/11
f 226/3/12 206/6/13 214/3/40
f 196/7/43 207/6/37 209/7/42
f 207/6/37 196/7/43 224/6/31
f 229/6/8 228/3/50 227/3/45
f 228/3/50 229/6/8 230/6/7
f 189/6/9 178/3/29 175/6/27
f 178/3/29 189/6/9 212/3/10
f 226/3/12 213/6/30 212/3/10
f 213/6/30 226/3/12 231/6/33
f 227/3/45 232/6/23 197/6/16
f 232/6/23 227/3/45 228/3/50
f 233/7/58 210/6/9 203/6/11
f 210/6/9 233/7/58 216/7/54
f 224/6/31 227/3/45 223/3/44
f 227/3/45 224/6/31 229/6/8
f 190/7/32 225/6/11 189/6/9
f 225/6/11 190/7/32 234/7/14
f 232/6/23 198/7/46 197/6/16
f 198/7/46 232/6/23 235/7/47
f 228/3/50 199/6/22 232/6/23
f 199/6/22 228/3/50 236/3/51
f 213/6/30 234/7/14 190/7/32
f 234/7/14 213/6/30 231/6/33
f 237/6/39 209/7/42 208/7/15
f 209/7/42 237/6/39 238/6/35
f 235/7/47 229/6/8 198/7/46
f 229/6/8 235/7/47 230/6/7
f 194/6/20 239/3/53 236/3/51
f 239/3/53 194/6/20 193/6/3
f 214/3/40 231/6/33 226/3/12
f 231/6/33 214/3/40 237/6/39
f 239/3/53 199/6/22 236/3/51
f 199/6/22 239/3/53 200/6/26
f 200/6/26 222/3/52 221/6/27
f 222/3/52 200/6/26 239/3/53
f 239/3/53 219/6/4 222/3/52
f 219/6/4 239/3/53 193/6/3
f 216/7/54 221/6/27 210/6/9
f 221/6/27 216/7/54 217/7/55
f 220/6/33 216/7/54 233/7/58
f 216/7/54 220/6/33 218/6/30
f 240/7/59 203/6/11 201/6/13
f 203/6/11 240/7/59 233/7/58
f 231/6/33 208/7/15 234/7/14
f 208/7/15 231/6/33 237/6/39
f 223/3/44 197/6/16 195/6/17
f 197/6/16 223/3/44 227/3/45
f 195/6/17 209/7/42 238/6/35
f 209/7/42 195/6/17 196/7/43
f 192/7/49 230/6/7 235/7/47
f 230/6/7 192/7/49 194/6/20
f 177/6/4 190/7/32 176/7/2
f 190/7/32 177/6/4 213/6/30
f 199/6/22 235/7/47 232/6/23
f 235/7/47 199/6/22 192/7/49
f 217/7/55 200/6/26 221/6/27
f 200/6/26 217/7/55 191/7/48
f 214/3/40 238/6/35 237/6/39
f 238/6/35 214/3/40 215/3/41
f 215/3/41 195/6/17 238/6/35
f 195/6/17 215/3/41 223/3/44
f 222/3/52 218/6/30 211/3/60
f 218/6/30 222/3/52 219/6/4
f 205/6/39 233/7/58 240/7/59
f 233/7/58 205/6/39 220/6/33
f 205/6/39 185/7/36 170/6/35
f 185/7/36 205/6/39 240/7/59
f 201/6/13 185/7/36 240/7/59
f 185/7/36 201/6/13 180/6/37
f 202/3/56 180/6/37 201/6/13
f 180/6/37 202/3/56 172/3/38
f 225/6/11 212/3/10 189/6/9
f 212/3/10 225/6/11 226/3/12
f 234/7/14 206/6/13 225/6/11
f 206/6/13 234/7/14 208/7/15
f 230/6/7 236/3/51 228/3/50
f 236/3/51 230/6/7 194/6/20
f 198/7/46 224/6/31 196/7/43
f 224/6/31 198/7/46 229/6/8
f 243/8/62 242/3/61 241/3/61
f 242/3/61 243/8/62 244/8/63
f 245/9/64 244/8/63 243/8/62
f 244/8/63 245/9/64 246/9/64
f 242/3/65 247/3/65 241/3/65
f 247/3/65 242/3/65 248/3/65
f 249/8/68 247/3/67 248/3/66
f 247/3/67 249/8/68 250/8/69
f 250/8/69 241/3/70 247/3/67
f 241/3/70 250/8/69 243/8/71
f 251/9/72 243/8/71 250/8/69
f 243/8/71 251/9/72 245/9/73
f 252/9/74 250/8/69 249/8/68
f 250/8/69 252/9/74 251/9/72
f 252/9/75 245/9/75 251/9/75
f 245/9/75 252/9/75 246/9/75
f 242/3/76 249/8/77 248/3/76
f 249/8/77 242/3/76 244/8/78
f 244/8/78 252/9/79 249/8/77
f 252/9/79 244/8/78 246/9/79
f 255/8/81 254/3/80 253/3/80
f 254/3/80 255/8/81 256/8/82
f 257/9/83 256/8/82 255/8/81
f 256/8/82 257/9/83 258/9/83
f 254/3/65 259/3/65 253/3/65
f 259/3/65 254/3/65 260/3/65
f 261/8/86 259/3/85 260/3/84
f 259/3/85 261/8/86 262/8/87
f 262/8/87 253/3/88 259/3/85
f 253/3/88 262/8/87 255/8/89
f 263/9/90 255/8/89 262/8/87
f 255/8/89 263/9/90 257/9/91
f 264/9/92 262/8/87 261/8/86
f 262/8/87 264/9/92 263/9/90
f 264/9/75 257/9/75 263/9/75
f 257/9/75 264/9/75 258/9/75
f 254/3/93 261/8/94 260/3/93
f 261/8/94 254/3/93 256/8/95
f 256/8/95 264/9/96 261/8/94
f 264/9/96 256/8/95 258/9/96
f 267/8/98 266/3/97 265/3/97
f 266/3/97 267/8/98 268/8/99
f 269/9/100 268/8/99 267/8/98
f 268/8/99 269/9/100 270/9/100
f 266/3/101 271/3/101 265/3/101
f 271/3/101 266/3/101 272/3/101
f 273/8/104 271/3/103 272/3/102
f 271/3/103 273/8/104 274/8/105
f 274/8/105 265/3/106 271/3/103
f 265/3/106 274/8/105 267/8/107
f 275/9/108 267/8/107 274/8/105
f 267/8/107 275/9/108 269/9/109
f 276/9/110 274/8/105 273/8/104
f 274/8/105 276/9/110 275/9/108
f 276/9/111 269/9/111 275/9/111
f 269/9/111 276/9/111 270/9/111
f 266/3/112 273/8/113 272/3/112
f 273/8/113 266/3/112 268/8/114
f 268/8/114 276/9/115 273/8/113
f 276/9/115 268/8/114 270/9/115
f 279/8/117 278/3/116 277/3/116
f 278/3/116 279/8/117 280/8/118
f 281/9/119 280/8/118 279/8/117
f 280/8/118 281/9/119 282/9/119
f 278/3/101 283/3/101 277/3/101
f 283/3/101 278/3/101 284/3/101
f 285/8/122 283/3/121 284/3/120
f 283/3/121 285/8/122 286/8/123
f 286/8/123 277/3/124 283/3/121
f 277/3/124 286/8/123 279/8/125
f 287/9/126 279/8/125 286/8/123
f 279/8/125 287/9/126 281/9/127
f 288/9/128 286/8/123 285/8/122
f 286/8/123 288/9/128 287/9/126
f 288/9/111 281/9/111 287/9/111
f 281/9/111 288/9/111 282/9/111
f 278/3/129 285/8/130 284/3/129
f 285/8/130 278/3/129 280/8/131
f 280/8/131 288/9/132 285/8/130
f 288/9/132 280/8/131 282/9/132
f 291/10/65 290/10/65 289/10/65
f 290/10/65 291/10/65 292/10/65
f 290/10/65 292/10/65 293/10/65
f 293/10/65 292/10/65 294/10/65
f 294/10/65 292/10/65 295/10/65
f 294/10/65 295/10/65 296/10/65
f 294/10/65 296/10/65 297/10/65
f 297/10/65 296/10/65 298/10/65
f 298/10/65 296/10/65 299/10/65
f 298/10/65 299/10/65 300/10/65
f 303/11/75 302/11/75 301/11/75
f 302/11/75 303/11/75 304/11/75
f 302/11/75 304/11/75 305/11/75
f 305/11/75 304/11/75 306/11/75
f 305/11/75 306/11/75 307/11/75
f 307/11/75 306/11/75 308/11/75
f 307/11/75 308/11/75 309/11/75
f 309/11/75 308/11/75 310/11/75
f 309/11/75 310/11/75 311/11/75
f 311/11/75 310/11/75 312/11/75
f 293/10/133 306/11/134 304/11/133
f 303/11/135 293/10/133 304/11/133
f 306/11/134 293/10/133 294/10/134
f 293/10/133 303/11/135 290/10/135
f 294/10/134 308/11/136 306/11/134
f 301/11/137 290/10/135 303/11/135
f 308/11/136 294/10/134 297/10/136
f 290/10/135 301/11/137 289/10/137
f 297/10/136 310/11/138 308/11/136
f 310/11/138 297/10/136 298/10/138
f 300/10/139 310/11/138 298/10/138
f 310/11/138 300/10/139 312/11/139
f 299/10/140 312/11/139 300/10/139
f 312/11/139 299/10/140 311/11/140
f 302/11/141 289/10/137 301/11/137
f 289/10/137 302/11/141 291/10/141
f 302/11/141 292/10/142 291/10/141
f 292/10/142 302/11/141 305/11/142
f 305/11/142 295/10/143 292/10/142
f 295/10/143 305/11/142 307/11/143
f 296/10/144 311/11/140 299/10/140
f 307/11/143 296/10/144 295/10/143
f 311/11/140 296/10/144 309/11/144
f 296/10/144 307/11/143 309/11/144
f 315/12/65 314/12/65 313/12/65
f 314/12/65 315/12/65 316/12/65
f 314/12/65 316/12/65 317/12/65
f 317/12/65 316/12/65 318/12/65
f 317/12/65 318/12/65 319/12/65
f 319/12/65 318/12/65 320/12/65
f 319/12/65 320/12/65 321/12/65
f 321/12/65 320/12/65 322/12/65
f 322/12/65 320/12/65 323/12/65
f 322/12/65 323/12/65 324/12/65
f 327/13/147 326/13/146 325/13/145
f 326/13/146 327/13/147 328/13/148
f 326/13/146 328/13/148 329/13/149
f 329/13/149 328/13/148 330/13/150
f 329/13/149 330/13/150 331/13/151
f 331/13/151 330/13/150 332/13/152
f 331/13/151 332/13/152 333/13/153
f 333/13/153 332/13/152 334/13/154
f 333/13/153 334/13/154 335/13/155
f 335/13/155 334/13/154 336/13/156
f 328/13/148 338/14/158 337/14/157
f 338/14/158 328/13/148 327/13/147
f 340/14/160 334/13/154 339/14/159
f 334/13/154 340/14/160 336/13/156
f 327/13/147 341/14/161 338/14/158
f 341/14/161 327/13/147 325/13/145
f 342/14/162 333/13/153 335/13/155
f 333/13/153 342/14/162 343/14/163
f 334/13/154 344/14/164 339/14/159
f 344/14/164 334/13/154 332/13/152
f 326/13/146 346/14/166 345/14/165
f 346/14/166 326/13/146 329/13/149
f 325/13/145 345/14/165 341/14/161
f 345/14/165 325/13/145 326/13/146
f 330/13/150 337/14/157 347/14/167
f 337/14/157 330/13/150 328/13/148
f 332/13/152 347/14/167 344/14/164
f 347/14/167 332/13/152 330/13/150
f 342/14/162 336/13/156 340/14/160
f 336/13/156 342/14/162 335/13/155
f 331/13/151 343/14/163 348/14/168
f 343/14/163 331/13/151 333/13/153
f 329/13/149 348/14/168 346/14/166
f 348/14/168 329/13/149 331/13/151
f 345/14/165 313/12/137 341/14/161
f 313/12/137 345/14/165 315/12/169
f 338/14/158 317/12/170 337/14/157
f 317/12/170 338/14/158 314/12/171
f 345/14/165 316/12/172 315/12/169
f 316/12/172 345/14/165 346/14/166
f 341/14/161 314/12/171 338/14/158
f 314/12/171 341/14/161 313/12/137
f 320/12/174 342/14/162 323/12/173
f 342/14/162 320/12/174 343/14/163
f 348/14/168 320/12/174 318/12/143
f 320/12/174 348/14/168 343/14/163
f 344/14/164 319/12/134 321/12/175
f 319/12/134 344/14/164 347/14/167
f 324/12/139 339/14/159 322/12/176
f 339/14/159 324/12/139 340/14/160
f 347/14/167 317/12/170 319/12/134
f 317/12/170 347/14/167 337/14/157
f 339/14/159 321/12/175 322/12/176
f 321/12/175 339/14/159 344/14/164
f 323/12/173 340/14/160 324/12/139
f 340/14/160 323/12/173 342/14/162
f 346/14/166 318/12/143 316/12/172
f 318/12/143 346/14/166 348/14/168
f 351/13/75 350/13/75 349/13/75
f 350/13/75 351/13/75 352/13/75
f 350/13/75 352/13/75 353/13/75
f 353/13/75 352/13/75 354/13/75
f 353/13/75 354/13/75 355/13/75
f 355/13/75 354/13/75 356/13/75
f 355/13/75 356/13/75 357/13/75
f 357/13/75 356/13/75 358/13/75
f 357/13/75 358/13/75 359/13/75
f 359/13/75 358/13/75 360/13/75
f 363/12/65 362/12/65 361/12/65
f 362/12/65 363/12/65 364/12/65
f 362/12/65 364/12/65 365/12/65
f 365/12/65 364/12/65 366/12/65
f 365/12/65 366/12/65 367/12/65
f 367/12/65 366/12/65 368/12/65
f 367/12/65 368/12/65 369/12/65
f 369/12/65 368/12/65 370/12/65
f 370/12/65 368/12/65 371/12/65
f 370/12/65 371/12/65 372/12/65
f 355/13/143 368/12/144 366/12/143
f 368/12/144 355/13/143 357/13/144
f 371/12/140 360/13/139 372/12/139
f 360/13/139 371/12/140 359/13/140
f 349/13/137 362/12/135 351/13/135
f 362/12/135 349/13/137 361/12/137
f 350/13/141 361/12/137 349/13/137
f 361/12/137 350/13/141 363/12/141
f 357/13/144 371/12/140 368/12/144
f 371/12/140 357/13/144 359/13/140
f 350/13/141 364/12/142 363/12/141
f 364/12/142 350/13/141 353/13/142
f 354/13/134 365/12/133 367/12/134
f 365/12/133 354/13/134 352/13/133
f 358/13/138 369/12/136 370/12/138
f 369/12/136 358/13/138 356/13/136
f 356/13/136 367/12/134 369/12/136
f 367/12/134 356/13/136 354/13/134
f 353/13/142 366/12/143 364/12/142
f 366/12/143 353/13/142 355/13/143
f 352/13/133 362/12/135 365/12/133
f 362/12/135 352/13/133 351/13/135
f 372/12/139 358/13/138 370/12/138
f 358/13/138 372/12/139 360/13/139
f 375/15/141 374/12/177 373/15/142
f 374/12/177 375/15/141 376/12/178
f 379/15/136 378/13/179 377/15/134
f 378/13/179 379/15/136 380/13/180
f 377/15/134 382/13/181 381/15/133
f 382/13/181 377/15/134 378/13/179
f 374/12/177 377/15/134 383/12/182
f 377/15/134 374/12/177 379/15/136
f 386/12/184 385/15/136 384/12/183
f 385/15/136 386/12/184 387/15/134
f 380/13/180 375/15/141 373/15/142
f 375/15/141 380/13/180 388/13/185
f 376/12/178 379/15/136 374/12/177
f 379/15/136 376/12/178 389/15/138
f 391/15/133 390/13/186 387/15/134
f 390/13/186 391/15/133 392/13/187
f 382/13/181 394/15/140 393/13/188
f 394/15/140 382/13/181 395/15/144
f 397/12/189 381/15/133 396/15/135
f 381/15/133 397/12/189 398/12/190
f 401/12/191 400/15/137 399/15/135
f 400/15/137 401/12/191 402/12/192
f 385/15/136 390/13/186 403/13/193
f 390/13/186 385/15/136 387/15/134
f 404/15/140 402/12/192 401/12/191
f 402/12/192 404/15/140 405/15/139
f 373/15/142 383/12/182 406/15/143
f 383/12/182 373/15/142 374/12/177
f 392/13/187 407/15/143 390/13/186
f 407/15/143 392/13/187 408/15/144
f 410/15/139 397/12/189 409/12/194
f 397/12/189 410/15/139 394/15/140
f 380/13/180 406/15/143 378/13/179
f 406/15/143 380/13/180 373/15/142
f 389/15/138 411/13/195 388/13/185
f 411/13/195 389/15/138 405/15/139
f 412/12/196 399/15/135 391/15/133
f 399/15/135 412/12/196 401/12/191
f 413/12/197 410/15/139 409/12/194
f 410/15/139 413/12/197 414/15/138
f 408/15/144 386/12/184 407/15/143
f 386/12/184 408/15/144 412/12/196
f 381/15/133 393/13/188 396/15/135
f 393/13/188 381/15/133 382/13/181
f 417/13/198 416/15/142 415/15/141
f 416/15/142 417/13/198 403/13/193
f 418/13/199 408/15/144 392/13/187
f 408/15/144 418/13/199 404/15/140
f 400/15/137 418/13/199 399/15/135
f 418/13/199 400/15/137 411/13/195
f 416/15/142 413/12/197 415/15/141
f 413/12/197 416/15/142 384/12/183
f 409/12/194 396/15/135 419/15/137
f 396/15/135 409/12/194 397/12/189
f 395/15/144 383/12/182 398/12/190
f 383/12/182 395/15/144 406/15/143
f 384/12/183 414/15/138 413/12/197
f 414/15/138 384/12/183 385/15/136
f 396/15/135 420/13/200 419/15/137
f 420/13/200 396/15/135 393/13/188
f 399/15/135 392/13/187 391/15/133
f 392/13/187 399/15/135 418/13/199
f 400/15/137 376/12/178 375/15/141
f 376/12/178 400/15/137 402/12/192
f 408/15/144 401/12/191 412/12/196
f 401/12/191 408/15/144 404/15/140
f 420/13/200 415/15/141 419/15/137
f 415/15/141 420/13/200 417/13/198
f 398/12/190 377/15/134 381/15/133
f 377/15/134 398/12/190 383/12/182
f 414/15/138 403/13/193 417/13/198
f 403/13/193 414/15/138 385/15/136
f 379/15/136 388/13/185 380/13/180
f 388/13/185 379/15/136 389/15/138
f 410/15/139 417/13/198 420/13/200
f 417/13/198 410/15/139 414/15/138
f 402/12/192 389/15/138 376/12/178
f 389/15/138 402/12/192 405/15/139
f 411/13/195 404/15/140 418/13/199
f 404/15/140 411/13/195 405/15/139
f 378/13/179 395/15/144 382/13/181
f 395/15/144 378/13/179 406/15/143
f 394/15/140 398/12/190 397/12/189
f 398/12/190 394/15/140 395/15/144
f 403/13/193 407/15/143 416/15/142
f 407/15/143 403/13/193 390/13/186
f 388/13/185 400/15/137 375/15/141
f 400/15/137 388/13/185 411/13/195
f 393/13/188 410/15/139 420/13/200
f 410/15/139 393/13/188 394/15/140
f 407/15/143 384/12/183 416/15/142
f 384/12/183 407/15/143 386/12/184
f 412/12/196 387/15/134 386/12/184
f 387/15/134 412/12/196 391/15/133
f 415/15/141 409/12/194 419/15/137
f 409/12/194 415/15/141 413/12/197
f 423/16/65 422/16/65 421/16/65
f 422/16/65 423/16/65 424/16/65
f 422/16/65 424/16/65 425/16/65
f 425/16/65 424/16/65 426/16/65
f 426/16/65 424/16/65 427/16/65
f 426/16/65 427/16/65 428/16/65
f 426/16/65 428/16/65 429/16/65
f 429/16/65 428/16/65 430/16/65
f 430/16/65 428/16/65 431/16/65
f 430/16/65 431/16/65 432/16/65
f 435/17/203 434/17/202 433/17/201
f 434/17/202 435/17/203 436/17/204
f 434/17/202 436/17/204 437/17/205
f 437/17/205 436/17/204 438/17/206
f 437/17/205 438/17/206 439/17/207
f 439/17/207 438/17/206 440/17/208
f 439/17/207 440/17/208 441/17/209
f 441/17/209 440/17/208 442/17/210
f 441/17/209 442/17/210 443/17/211
f 443/17/211 442/17/210 444/17/212
f 434/17/202 424/16/172 423/16/169
f 424/16/172 434/17/202 437/17/205
f 437/17/205 427/16/143 424/16/172
f 427/16/143 437/17/205 439/17/207
f 439/17/207 428/16/174 427/16/143
f 428/16/174 439/17/207 441/17/209
f 441/17/209 431/16/173 428/16/174
f 431/16/173 441/17/209 443/17/211
f 431/16/173 444/17/212 432/16/139
f 444/17/212 431/16/173 443/17/211
f 432/16/139 442/17/210 430/16/176
f 442/17/210 432/16/139 444/17/212
f 442/17/210 429/16/175 430/16/176
f 429/16/175 442/17/210 440/17/208
f 440/17/208 426/16/134 429/16/175
f 426/16/134 440/17/208 438/17/206
f 438/17/206 425/16/170 426/16/134
f 425/16/170 438/17/206 436/17/204
f 436/17/204 422/16/171 425/16/170
f 422/16/171 436/17/204 435/17/203
f 433/17/201 422/16/171 435/17/203
f 422/16/171 433/17/201 421/16/137
f 434/17/202 421/16/137 433/17/201
f 421/16/137 434/17/202 423/16/169
f 447/19/213 446/18/214 445/18/213
f 446/18/214 447/19/213 448/19/214
f 451/18/216 450/19/215 449/18/215
f 450/19/215 451/18/216 452/19/216
f 455/19/218 454/18/217 453/19/217
f 454/18/217 455/19/218 456/18/218
f 459/19/219 458/18/220 457/18/219
f 458/18/220 459/19/219 460/19/220
f 447/19/213 456/18/218 455/19/218
f 456/18/218 447/19/213 445/18/213
f 446/18/214 452/19/216 451/18/216
f 452/19/216 446/18/214 448/19/214
f 449/18/215 459/19/219 457/18/219
f 459/19/219 449/18/215 450/19/215
f 453/19/217 458/18/220 460/19/220
f 458/18/220 453/19/217 454/18/217
f 460/19/75 455/19/75 453/19/75
f 455/19/75 460/19/75 447/19/75
f 447/19/75 460/19/75 459/19/75
f 447/19/75 459/19/75 448/19/75
f 448/19/75 459/19/75 450/19/75
f 448/19/75 450/19/75 452/19/75
f 445/18/65 454/18/65 456/18/65
f 454/18/65 445/18/65 458/18/65
f 458/18/65 445/18/65 446/18/65
f 458/18/65 446/18/65 457/18/65
f 457/18/65 446/18/65 451/18/65
f 457/18/65 451/18/65 449/18/65
f 463/19/219 462/18/220 461/18/219
f 462/18/220 463/19/219 464/19/220
f 467/18/217 466/19/218 465/18/218
f 466/19/218 467/18/217 468/19/217
f 471/19/215 470/18/216 469/19/216
f 470/18/216 471/19/215 472/18/215
f 475/19/213 474/18/214 473/18/213
f 474/18/214 475/19/213 476/19/214
f 463/19/219 472/18/215 471/19/215
f 472/18/215 463/19/219 461/18/219
f 462/18/220 468/19/217 467/18/217
f 468/19/217 462/18/220 464/19/220
f 465/18/218 475/19/213 473/18/213
f 475/19/213 465/18/218 466/19/218
f 469/19/216 474/18/214 476/19/214
f 474/18/214 469/19/216 470/18/216
f 476/19/75 471/19/75 469/19/75
f 471/19/75 476/19/75 463/19/75
f 463/19/75 476/19/75 475/19/75
f 463/19/75 475/19/75 464/19/75
f 464/19/75 475/19/75 466/19/75
f 464/19/75 466/19/75 468/19/75
f 461/18/65 470/18/65 472/18/65
f 470/18/65 461/18/65 474/18/65
f 474/18/65 461/18/65 462/18/65
f 474/18/65 462/18/65 473/18/65
f 473/18/65 462/18/65 467/18/65
f 473/18/65 467/18/65 465/18/65
f 479/19/221 478/18/222 477/18/221
f 478/18/222 479/19/221 480/19/222
f 483/18/224 482/19/223 481/18/223
f 482/19/223 483/18/224 484/19/224
f 487/19/226 486/18/225 485/19/225
f 486/18/225 487/19/226 488/18/226
f 491/19/227 490/18/228 489/18/227
f 490/18/228 491/19/227 492/19/228
f 479/19/221 488/18/226 487/19/226
f 488/18/226 479/19/221 477/18/221
f 478/18/222 484/19/224 483/18/224
f 484/19/224 478/18/222 480/19/222
f 481/18/223 491/19/227 489/18/227
f 491/19/227 481/18/223 482/19/223
f 485/19/225 490/18/228 492/19/228
f 490/18/228 485/19/225 486/18/225
f 492/19/75 487/19/75 485/19/75
f 487/19/75 492/19/75 479/19/75
f 479/19/75 492/19/75 491/19/75
f 479/19/75 491/19/75 480/19/75
f 480/19/75 491/19/75 482/19/75
f 480/19/75 482/19/75 484/19/75
f 477/18/65 486/18/65 488/18/65
f 486/18/65 477/18/65 490/18/65
f 490/18/65 477/18/65 478/18/65
f 490/18/65 478/18/65 489/18/65
f 489/18/65 478/18/65 483/18/65
f 489/18/65 483/18/65 481/18/65
f 495/19/229 494/18/230 493/18/229
f 494/18/230 495/19/229 496/19/230
f 499/18/232 498/19/231 497/18/231
f 498/19/231 499/18/232 500/19/232
f 503/19/234 502/18/233 501/19/233
f 502/18/233 503/19/234 504/18/234
f 507/19/235 506/18/236 505/18/235
f 506/18/236 507/19/235 508/19/236
f 495/19/229 504/18/234 503/19/234
f 504/18/234 495/19/229 493/18/229
f 494/18/230 500/19/232 499/18/232
f 500/19/232 494/18/230 496/19/230
f 497/18/231 507/19/235 505/18/235
f 507/19/235 497/18/231 498/19/231
f 501/19/233 506/18/236 508/19/236
f 506/18/236 501/19/233 502/18/233
f 508/19/75 503/19/75 501/19/75
f 503/19/75 508/19/75 495/19/75
f 495/19/75 508/19/75 507/19/75
f 495/19/75 507/19/75 496/19/75
f 496/19/75 507/19/75 498/19/75
f 496/19/75 498/19/75 500/19/75
f 493/18/65 502/18/65 504/18/65
f 502/18/65 493/18/65 506/18/65
f 506/18/65 493/18/65 494/18/65
f 506/18/65 494/18/65 505/18/65
f 505/18/65 494/18/65 499/18/65
f 505/18/65 499/18/65 497/18/65

g water-tower




usemtl colormap

f 3/2/3 2/1/2 1/1/1
f 2/1/2 3/2/3 4/2/4
f 7/2/7 6/3/6 5/3/5
f 6/3/6 7/2/7 8/2/8
f 11/2/11 10/3/10 9/2/9
f 10/3/10 11/2/11 12/3/12
f 14/1/14 13/2/13 11/2/11
f 13/2/13 14/1/14 15/1/15
f 6/3/6 17/2/17 16/2/16
f 17/2/17 6/3/6 18/3/18
f 21/1/21 20/2/20 19/1/19
f 20/2/20 21/1/21 7/2/7
f 24/3/24 23/2/23 22/2/22
f 23/2/23 24/3/24 5/3/5
f 3/2/3 24/3/24 25/3/25
f 24/3/24 3/2/3 20/2/20
f 1/1/1 27/2/27 26/2/26
f 27/2/27 1/1/1 2/1/2
f 16/2/16 21/1/21 23/2/23
f 21/1/21 16/2/16 28/1/28
f 20/2/20 5/3/5 24/3/24
f 5/3/5 20/2/20 7/2/7
f 19/1/19 3/2/3 1/1/1
f 3/2/3 19/1/19 20/2/20
f 10/3/10 4/2/4 29/3/29
f 4/2/4 10/3/10 30/2/30
f 8/2/8 18/3/18 6/3/6
f 18/3/18 8/2/8 31/2/31
f 30/2/30 14/1/14 32/1/32
f 14/1/14 30/2/30 33/2/33
f 34/1/34 8/2/8 28/1/28
f 8/2/8 34/1/34 31/2/31
f 23/2/23 19/1/19 22/2/22
f 19/1/19 23/2/23 21/1/21
f 9/2/9 29/3/29 27/2/27
f 29/3/29 9/2/9 10/3/10
f 17/2/17 28/1/28 16/2/16
f 28/1/28 17/2/17 34/1/34
f 5/3/5 16/2/16 23/2/23
f 16/2/16 5/3/5 6/3/6
f 2/1/2 9/2/9 27/2/27
f 9/2/9 2/1/2 32/1/32
f 35/2/35 34/1/34 17/2/17
f 34/1/34 35/2/35 36/1/36
f 36/1/36 31/2/31 34/1/34
f 31/2/31 36/1/36 37/2/37
f 28/1/28 7/2/7 21/1/21
f 7/2/7 28/1/28 8/2/8
f 31/2/31 38/3/38 18/3/18
f 38/3/38 31/2/31 37/2/37
f 22/2/22 1/1/1 26/2/26
f 1/1/1 22/2/22 19/1/19
f 29/3/29 3/2/3 25/3/25
f 3/2/3 29/3/29 4/2/4
f 27/2/27 25/3/25 26/2/26
f 25/3/25 27/2/27 29/3/29
f 4/2/4 32/1/32 2/1/2
f 32/1/32 4/2/4 30/2/30
f 18/3/18 35/2/35 17/2/17
f 35/2/35 18/3/18 38/3/38
f 25/3/25 22/2/22 26/2/26
f 22/2/22 25/3/25 24/3/24
f 32/1/32 11/2/11 9/2/9
f 11/2/11 32/1/32 14/1/14
f 12/3/12 30/2/30 10/3/10
f 30/2/30 12/3/12 33/2/33
f 33/2/33 15/1/15 14/1/14
f 15/1/15 33/2/33 39/2/39
f 41/2/37 40/3/40 13/2/13
f 40/3/40 41/2/37 42/3/41
f 45/2/17 44/1/42 43/2/35
f 44/1/42 45/2/17 46/1/43
f 49/2/31 48/3/45 47/3/44
f 48/3/45 49/2/31 50/2/8
f 53/2/23 52/1/46 51/2/16
f 52/1/46 53/2/23 54/1/47
f 57/2/3 56/1/49 55/1/48
f 56/1/49 57/2/3 58/2/20
f 40/3/40 43/2/35 39/2/39
f 43/2/35 40/3/40 42/3/41
f 61/2/7 60/3/51 59/3/50
f 60/3/51 61/2/7 58/2/20
f 50/2/8 59/3/50 48/3/45
f 59/3/50 50/2/8 61/2/7
f 55/1/48 63/2/22 62/2/26
f 63/2/22 55/1/48 56/1/49
f 66/3/53 65/2/4 64/3/52
f 65/2/4 66/3/53 57/2/3
f 69/2/30 68/1/55 67/1/54
f 68/1/55 69/2/30 65/2/4
f 46/1/43 41/2/37 44/1/42
f 41/2/37 46/1/43 49/2/31
f 58/2/20 66/3/53 60/3/51
f 66/3/53 58/2/20 57/2/3
f 62/2/26 64/3/52 70/2/27
f 64/3/52 62/2/26 66/3/53
f 51/2/16 46/1/43 45/2/17
f 46/1/43 51/2/16 52/1/46
f 52/1/46 49/2/31 46/1/43
f 49/2/31 52/1/46 50/2/8
f 73/2/11 72/3/56 71/2/13
f 72/3/56 73/2/11 74/3/57
f 41/2/37 47/3/44 42/3/41
f 47/3/44 41/2/37 49/2/31
f 68/1/55 62/2/26 70/2/27
f 62/2/26 68/1/55 55/1/48
f 15/1/15 41/2/37 13/2/13
f 41/2/37 15/1/15 44/1/42
f 76/2/33 67/1/54 75/1/58
f 67/1/54 76/2/33 69/2/30
f 77/1/59 37/2/37 36/1/36
f 37/2/37 77/1/59 71/2/13
f 78/3/60 76/2/33 74/3/57
f 76/2/33 78/3/60 69/2/30
f 13/2/13 12/3/12 11/2/11
f 12/3/12 13/2/13 40/3/40
f 54/1/47 50/2/8 52/1/46
f 50/2/8 54/1/47 61/2/7
f 74/3/57 79/2/39 72/3/56
f 79/2/39 74/3/57 76/2/33
f 67/1/54 70/2/27 80/2/9
f 70/2/27 67/1/54 68/1/55
f 79/2/39 75/1/58 77/1/59
f 75/1/58 79/2/39 76/2/33
f 48/3/45 53/2/23 51/2/16
f 53/2/23 48/3/45 59/3/50
f 79/2/39 36/1/36 35/2/35
f 36/1/36 79/2/39 77/1/59
f 42/3/41 45/2/17 43/2/35
f 45/2/17 42/3/41 47/3/44
f 37/2/37 72/3/56 38/3/38
f 72/3/56 37/2/37 71/2/13
f 60/3/51 62/2/26 63/2/22
f 62/2/26 60/3/51 66/3/53
f 40/3/40 33/2/33 12/3/12
f 33/2/33 40/3/40 39/2/39
f 47/3/44 51/2/16 45/2/17
f 51/2/16 47/3/44 48/3/45
f 65/2/4 55/1/48 68/1/55
f 55/1/48 65/2/4 57/2/3
f 70/2/27 78/3/60 80/2/9
f 78/3/60 70/2/27 64/3/52
f 56/1/49 61/2/7 54/1/47
f 61/2/7 56/1/49 58/2/20
f 64/3/52 69/2/30 78/3/60
f 69/2/30 64/3/52 65/2/4
f 39/2/39 44/1/42 15/1/15
f 44/1/42 39/2/39 43/2/35
f 63/2/22 54/1/47 53/2/23
f 54/1/47 63/2/22 56/1/49
f 80/2/9 74/3/57 73/2/11
f 74/3/57 80/2/9 78/3/60
f 77/1/59 73/2/11 71/2/13
f 73/2/11 77/1/59 75/1/58
f 59/3/50 63/2/22 53/2/23
f 63/2/22 59/3/50 60/3/51
f 75/1/58 80/2/9 73/2/11
f 80/2/9 75/1/58 67/1/54
f 38/3/38 79/2/39 35/2/35
f 79/2/39 38/3/38 72/3/56
f 83/4/39 82/5/36 81/4/35
f 82/5/36 83/4/39 84/5/59
f 87/3/41 86/4/17 85/4/35
f 86/4/17 87/3/41 88/3/44
f 84/5/59 89/4/37 82/5/36
f 89/4/37 84/5/59 90/4/13
f 89/4/37 92/3/56 91/3/38
f 92/3/56 89/4/37 90/4/13
f 95/4/9 94/3/57 93/4/11
f 94/3/57 95/4/9 96/3/60
f 91/3/38 83/4/39 81/4/35
f 83/4/39 91/3/38 92/3/56
f 81/4/35 98/5/34 97/4/17
f 98/5/34 81/4/35 82/5/36
f 101/3/10 100/4/4 99/3/29
f 100/4/4 101/3/10 102/4/30
f 105/4/13 104/3/12 103/4/11
f 104/3/12 105/4/13 106/3/40
f 107/4/27 96/3/60 95/4/9
f 96/3/60 107/4/27 108/3/52
f 111/4/8 110/3/50 109/3/45
f 110/3/50 111/4/8 112/4/7
f 115/4/3 114/5/2 113/5/1
f 114/5/2 115/4/3 100/4/4
f 88/3/44 116/4/16 86/4/17
f 116/4/16 88/3/44 109/3/45
f 119/5/46 118/4/31 117/5/43
f 118/4/31 119/5/46 111/4/8
f 122/4/30 121/5/55 120/5/54
f 121/5/55 122/4/30 123/4/4
f 96/3/60 124/4/33 94/3/57
f 124/4/33 96/3/60 122/4/30
f 83/4/39 125/5/58 84/5/59
f 125/5/58 83/4/39 124/4/33
f 128/4/22 127/5/47 126/4/23
f 127/5/47 128/4/22 129/5/49
f 112/4/7 130/3/51 110/3/50
f 130/3/51 112/4/7 131/4/20
f 132/5/14 105/4/13 103/4/11
f 105/4/13 132/5/14 133/5/15
f 103/4/11 101/3/10 134/4/9
f 101/3/10 103/4/11 104/3/12
f 86/4/17 135/5/42 85/4/35
f 135/5/42 86/4/17 117/5/43
f 116/4/16 117/5/43 86/4/17
f 117/5/43 116/4/16 119/5/46
f 110/3/50 128/4/22 126/4/23
f 128/4/22 110/3/50 130/3/51
f 109/3/45 126/4/23 116/4/16
f 126/4/23 109/3/45 110/3/50
f 100/4/4 136/5/32 114/5/2
f 136/5/32 100/4/4 102/4/30
f 136/5/32 103/4/11 134/4/9
f 103/4/11 136/5/32 132/5/14
f 130/3/51 137/4/26 128/4/22
f 137/4/26 130/3/51 138/3/53
f 127/5/47 111/4/8 119/5/46
f 111/4/8 127/5/47 112/4/7
f 139/4/3 130/3/51 131/4/20
f 130/3/51 139/4/3 138/3/53
f 138/3/53 123/4/4 108/3/52
f 123/4/4 138/3/53 139/4/3
f 113/5/1 141/4/27 140/4/26
f 141/4/27 113/5/1 114/5/2
f 99/3/29 115/4/3 142/3/25
f 115/4/3 99/3/29 100/4/4
f 143/4/33 133/5/15 132/5/14
f 133/5/15 143/4/33 144/4/39
f 117/5/43 145/4/37 135/5/42
f 145/4/37 117/5/43 118/4/31
f 144/4/39 135/5/42 133/5/15
f 135/5/42 144/4/39 85/4/35
f 145/4/37 88/3/44 87/3/41
f 88/3/44 145/4/37 118/4/31
f 106/3/40 143/4/33 104/3/12
f 143/4/33 106/3/40 144/4/39
f 118/4/31 109/3/45 88/3/44
f 109/3/45 118/4/31 111/4/8
f 126/4/23 119/5/46 116/4/16
f 119/5/46 126/4/23 127/5/47
f 145/4/37 133/5/15 135/5/42
f 133/5/15 145/4/37 105/4/13
f 102/4/30 132/5/14 136/5/32
f 132/5/14 102/4/30 143/4/33
f 108/3/52 122/4/30 96/3/60
f 122/4/30 108/3/52 123/4/4
f 114/5/2 134/4/9 141/4/27
f 134/4/9 114/5/2 136/5/32
f 125/5/58 95/4/9 93/4/11
f 95/4/9 125/5/58 120/5/54
f 84/5/59 93/4/11 90/4/13
f 93/4/11 84/5/59 125/5/58
f 87/3/41 144/4/39 106/3/40
f 144/4/39 87/3/41 85/4/35
f 123/4/4 146/5/48 121/5/55
f 146/5/48 123/4/4 139/4/3
f 104/3/12 102/4/30 101/3/10
f 102/4/30 104/3/12 143/4/33
f 121/5/55 137/4/26 107/4/27
f 137/4/26 121/5/55 146/5/48
f 134/4/9 99/3/29 141/4/27
f 99/3/29 134/4/9 101/3/10
f 146/5/48 128/4/22 137/4/26
f 128/4/22 146/5/48 129/5/49
f 137/4/26 108/3/52 107/4/27
f 108/3/52 137/4/26 138/3/53
f 124/4/33 120/5/54 125/5/58
f 120/5/54 124/4/33 122/4/30
f 93/4/11 92/3/56 90/4/13
f 92/3/56 93/4/11 94/3/57
f 141/4/27 142/3/25 140/4/26
f 142/3/25 141/4/27 99/3/29
f 120/5/54 107/4/27 95/4/9
f 107/4/27 120/5/54 121/5/55
f 129/5/49 139/4/3 131/4/20
f 139/4/3 129/5/49 146/5/48
f 87/3/41 105/4/13 145/4/37
f 105/4/13 87/3/41 106/3/40
f 129/5/49 112/4/7 127/5/47
f 112/4/7 129/5/49 131/4/20
f 94/3/57 83/4/39 92/3/56
f 83/4/39 94/3/57 124/4/33
f 149/5/21 148/4/20 147/5/19
f 148/4/20 149/5/21 150/4/7
f 153/3/5 152/4/16 151/4/23
f 152/4/16 153/3/5 154/3/6
f 150/4/7 154/3/6 153/3/5
f 154/3/6 150/4/7 155/4/8
f 115/4/3 156/3/24 142/3/25
f 156/3/24 115/4/3 148/4/20
f 156/3/24 151/4/23 157/4/22
f 151/4/23 156/3/24 153/3/5
f 142/3/25 157/4/22 140/4/26
f 157/4/22 142/3/25 156/3/24
f 98/5/34 155/4/8 158/5/28
f 155/4/8 98/5/34 159/4/31
f 158/5/28 150/4/7 149/5/21
f 150/4/7 158/5/28 155/4/8
f 151/4/23 147/5/19 157/4/22
f 147/5/19 151/4/23 149/5/21
f 82/5/36 159/4/31 98/5/34
f 159/4/31 82/5/36 89/4/37
f 159/4/31 91/3/38 160/3/18
f 91/3/38 159/4/31 89/4/37
f 97/4/17 158/5/28 152/4/16
f 158/5/28 97/4/17 98/5/34
f 148/4/20 153/3/5 156/3/24
f 153/3/5 148/4/20 150/4/7
f 157/4/22 113/5/1 140/4/26
f 113/5/1 157/4/22 147/5/19
f 154/3/6 97/4/17 152/4/16
f 97/4/17 154/3/6 160/3/18
f 155/4/8 160/3/18 154/3/6
f 160/3/18 155/4/8 159/4/31
f 160/3/18 81/4/35 97/4/17
f 81/4/35 160/3/18 91/3/38
f 152/4/16 149/5/21 151/4/23
f 149/5/21 152/4/16 158/5/28
f 147/5/19 115/4/3 113/5/1
f 115/4/3 147/5/19 148/4/20
f 163/3/24 162/6/23 161/6/22
f 162/6/23 163/3/24 164/3/5
f 167/7/19 166/6/3 165/7/1
f 166/6/3 167/7/19 168/6/20
f 171/3/18 170/6/35 169/6/17
f 170/6/35 171/3/18 172/3/38
f 166/6/3 163/3/24 173/3/25
f 163/3/24 166/6/3 168/6/20
f 173/3/25 161/6/22 174/6/26
f 161/6/22 173/3/25 163/3/24
f 165/7/1 175/6/27 174/6/26
f 175/6/27 165/7/1 176/7/2
f 166/6/3 176/7/2 165/7/1
f 176/7/2 166/6/3 177/6/4
f 178/3/29 166/6/3 173/3/25
f 166/6/3 178/3/29 177/6/4
f 179/6/31 172/3/38 171/3/18
f 172/3/38 179/6/31 180/6/37
f 182/6/7 181/3/6 164/3/5
f 181/3/6 182/6/7 183/6/8
f 185/7/36 179/6/31 184/7/34
f 179/6/31 185/7/36 180/6/37
f 175/6/27 173/3/25 174/6/26
f 173/3/25 175/6/27 178/3/29
f 187/6/16 186/7/21 162/6/23
f 186/7/21 187/6/16 188/7/28
f 176/7/2 189/6/9 175/6/27
f 189/6/9 176/7/2 190/7/32
f 184/7/34 183/6/8 188/7/28
f 183/6/8 184/7/34 179/6/31
f 169/6/17 188/7/28 187/6/16
f 188/7/28 169/6/17 184/7/34
f 188/7/28 182/6/7 186/7/21
f 182/6/7 188/7/28 183/6/8
f 164/3/5 187/6/16 162/6/23
f 187/6/16 164/3/5 181/3/6
f 170/6/35 184/7/34 169/6/17
f 184/7/34 170/6/35 185/7/36
f 167/7/19 174/6/26 161/6/22
f 174/6/26 167/7/19 165/7/1
f 183/6/8 171/3/18 181/3/6
f 171/3/18 183/6/8 179/6/31
f 181/3/6 169/6/17 187/6/16
f 169/6/17 181/3/6 171/3/18
f 162/6/23 167/7/19 161/6/22
f 167/7/19 162/6/23 186/7/21
f 186/7/21 168/6/20 167/7/19
f 168/6/20 186/7/21 182/6/7
f 168/6/20 164/3/5 163/3/24
f 164/3/5 168/6/20 182/6/7
f 193/6/3 192/7/49 191/7/48
f 192/7/49 193/6/3 194/6/20
f 197/6/16 196/7/43 195/6/17
f 196/7/43 197/6/16 198/7/46
f 199/6/22 191/7/48 192/7/49
f 191/7/48 199/6/22 200/6/26
f 203/6/11 202/3/56 201/6/13
f 202/3/56 203/6/11 204/3/57
f 172/3/38 205/6/39 170/6/35
f 205/6/39 172/3/38 202/3/56
f 208/7/15 207/6/37 206/6/13
f 207/6/37 208/7/15 209/7/42
f 210/6/9 204/3/57 203/6/11
f 204/3/57 210/6/9 211/3/60
f 212/3/10 177/6/4 178/3/29
f 177/6/4 212/3/10 213/6/30
f 207/6/37 214/3/40 206/6/13
f 214/3/40 207/6/37 215/3/41
f 218/6/30 217/7/55 216/7/54
f 217/7/55 218/6/30 219/6/4
f 204/3/57 205/6/39 202/3/56
f 205/6/39 204/3/57 220/6/33
f 221/6/27 211/3/60 210/6/9
f 211/3/60 221/6/27 222/3/52
f 219/6/4 191/7/48 217/7/55
f 191/7/48 219/6/4 193/6/3
f 207/6/37 223/3/44 215/3/41
f 223/3/44 207/6/37 224/6/31
f 211/3/60 220/6/33 204/3/57
f 220/6/33 211/3/60 218/6/30
f 206/6/13 226/3/12 225/6/11
f 226/3/12 206/6/13 214/3/40
f 196/7/43 207/6/37 209/7/42
f 207/6/37 196/7/43 224/6/31
f 229/6/8 228/3/50 227/3/45
f 228/3/50 229/6/8 230/6/7
f 189/6/9 178/3/29 175/6/27
f 178/3/29 189/6/9 212/3/10
f 226/3/12 213/6/30 212/3/10
f 213/6/30 226/3/12 231/6/33
f 227/3/45 232/6/23 197/6/16
f 232/6/23 227/3/45 228/3/50
f 233/7/58 210/6/9 203/6/11
f 210/6/9 233/7/58 216/7/54
f 224/6/31 227/3/45 223/3/44
f 227/3/45 224/6/31 229/6/8
f 190/7/32 225/6/11 189/6/9
f 225/6/11 190/7/32 234/7/14
f 232/6/23 198/7/46 197/6/16
f 198/7/46 232/6/23 235/7/47
f 228/3/50 199/6/22 232/6/23
f 199/6/22 228/3/50 236/3/51
f 213/6/30 234/7/14 190/7/32
f 234/7/14 213/6/30 231/6/33
f 237/6/39 209/7/42 208/7/15
f 209/7/42 237/6/39 238/6/35
f 235/7/47 229/6/8 198/7/46
f 229/6/8 235/7/47 230/6/7
f 194/6/20 239/3/53 236/3/51
f 239/3/53 194/6/20 193/6/3
f 214/3/40 231/6/33 226/3/12
f 231/6/33 214/3/40 237/6/39
f 239/3/53 199/6/22 236/3/51
f 199/6/22 239/3/53 200/6/26
f 200/6/26 222/3/52 221/6/27
f 222/3/52 200/6/26 239/3/53
f 239/3/53 219/6/4 222/3/52
f 219/6/4 239/3/53 193/6/3
f 216/7/54 221/6/27 210/6/9
f 221/6/27 216/7/54 217/7/55
f 220/6/33 216/7/54 233/7/58
f 216/7/54 220/6/33 218/6/30
f 240/7/59 203/6/11 201/6/13
f 203/6/11 240/7/59 233/7/58
f 231/6/33 208/7/15 234/7/14
f 208/7/15 231/6/33 237/6/39
f 223/3/44 197/6/16 195/6/17
f 197/6/16 223/3/44 227/3/45
f 195/6/17 209/7/42 238/6/35
f 209/7/42 195/6/17 196/7/43
f 192/7/49 230/6/7 235/7/47
f 230/6/7 192/7/49 194/6/20
f 177/6/4 190/7/32 176/7/2
f 190/7/32 177/6/4 213/6/30
f 199/6/22 235/7/47 232/6/23
f 235/7/47 199/6/22 192/7/49
f 217/7/55 200/6/26 221/6/27
f 200/6/26 217/7/55 191/7/48
f 214/3/40 238/6/35 237/6/39
f 238/6/35 214/3/40 215/3/41
f 215/3/41 195/6/17 238/6/35
f 195/6/17 215/3/41 223/3/44
f 222/3/52 218/6/30 211/3/60
f 218/6/30 222/3/52 219/6/4
f 205/6/39 233/7/58 240/7/59
f 233/7/58 205/6/39 220/6/33
f 205/6/39 185/7/36 170/6/35
f 185/7/36 205/6/39 240/7/59
f 201/6/13 185/7/36 240/7/59
f 185/7/36 201/6/13 180/6/37
f 202/3/56 180/6/37 201/6/13
f 180/6/37 202/3/56 172/3/38
f 225/6/11 212/3/10 189/6/9
f 212/3/10 225/6/11 226/3/12
f 234/7/14 206/6/13 225/6/11
f 206/6/13 234/7/14 208/7/15
f 230/6/7 236/3/51 228/3/50
f 236/3/51 230/6/7 194/6/20
f 198/7/46 224/6/31 196/7/43
f 224/6/31 198/7/46 229/6/8
f 243/8/62 242/3/61 241/3/61
f 242/3/61 243/8/62 244/8/63
f 245/9/64 244/8/63 243/8/62
f 244/8/63 245/9/64 246/9/64
f 242/3/65 247/3/65 241/3/65
f 247/3/65 242/3/65 248/3/65
f 249/8/68 247/3/67 248/3/66
f 247/3/67 249/8/68 250/8/69
f 250/8/69 241/3/70 247/3/67
f 241/3/70 250/8/69 243/8/71
f 251/9/72 243/8/71 250/8/69
f 243/8/71 251/9/72 245/9/73
f 252/9/74 250/8/69 249/8/68
f 250/8/69 252/9/74 251/9/72
f 252/9/75 245/9/75 251/9/75
f 245/9/75 252/9/75 246/9/75
f 242/3/76 249/8/77 248/3/76
f 249/8/77 242/3/76 244/8/78
f 244/8/78 252/9/79 249/8/77
f 252/9/79 244/8/78 246/9/79
f 255/8/81 254/3/80 253/3/80
f 254/3/80 255/8/81 256/8/82
f 257/9/83 256/8/82 255/8/81
f 256/8/82 257/9/83 258/9/83
f 254/3/65 259/3/65 253/3/65
f 259/3/65 254/3/65 260/3/65
f 261/8/86 259/3/85 260/3/84
f 259/3/85 261/8/86 262/8/87
f 262/8/87 253/3/88 259/3/85
f 253/3/88 262/8/87 255/8/89
f 263/9/90 255/8/89 262/8/87
f 255/8/89 263/9/90 257/9/91
f 264/9/92 262/8/87 261/8/86
f 262/8/87 264/9/92 263/9/90
f 264/9/75 257/9/75 263/9/75
f 257/9/75 264/9/75 258/9/75
f 254/3/93 261/8/94 260/3/93
f 261/8/94 254/3/93 256/8/95
f 256/8/95 264/9/96 261/8/94
f 264/9/96 256/8/95 258/9/96
f 267/8/98 266/3/97 265/3/97
f 266/3/97 267/8/98 268/8/99
f 269/9/100 268/8/99 267/8/98
f 268/8/99 269/9/100 270/9/100
f 266/3/101 271/3/101 265/3/101
f 271/3/101 266/3/101 272/3/101
f 273/8/104 271/3/103 272/3/102
f 271/3/103 273/8/104 274/8/105
f 274/8/105 265/3/106 271/3/103
f 265/3/106 274/8/105 267/8/107
f 275/9/108 267/8/107 274/8/105
f 267/8/107 275/9/108 269/9/109
f 276/9/110 274/8/105 273/8/104
f 274/8/105 276/9/110 275/9/108
f 276/9/111 269/9/111 275/9/111
f 269/9/111 276/9/111 270/9/111
f 266/3/112 273/8/113 272/3/112
f 273/8/113 266/3/112 268/8/114
f 268/8/114 276/9/115 273/8/113
f 276/9/115 268/8/114 270/9/115
f 279/8/117 278/3/116 277/3/116
f 278/3/116 279/8/117 280/8/118
f 281/9/119 280/8/118 279/8/117
f 280/8/118 281/9/119 282/9/119
f 278/3/101 283/3/101 277/3/101
f 283/3/101 278/3/101 284/3/101
f 285/8/122 283/3/121 284/3/120
f 283/3/121 285/8/122 286/8/123
f 286/8/123 277/3/124 283/3/121
f 277/3/124 286/8/123 279/8/125
f 287/9/126 279/8/125 286/8/123
f 279/8/125 287/9/126 281/9/127
f 288/9/128 286/8/123 285/8/122
f 286/8/123 288/9/128 287/9/126
f 288/9/111 281/9/111 287/9/111
f 281/9/111 288/9/111 282/9/111
f 278/3/129 285/8/130 284/3/129
f 285/8/130 278/3/129 280/8/131
f 280/8/131 288/9/132 285/8/130
f 288/9/132 280/8/131 282/9/132
f 291/10/65 290/10/65 289/10/65
f 290/10/65 291/10/65 292/10/65
f 290/10/65 292/10/65 293/10/65
f 293/10/65 292/10/65 294/10/65
f 294/10/65 292/10/65 295/10/65
f 294/10/65 295/10/65 296/10/65
f 294/10/65 296/10/65 297/10/65
f 297/10/65 296/10/65 298/10/65
f 298/10/65 296/10/65 299/10/65
f 298/10/65 299/10/65 300/10/65
f 303/11/75 302/11/75 301/11/75
f 302/11/75 303/11/75 304/11/75
f 302/11/75 304/11/75 305/11/75
f 305/11/75 304/11/75 306/11/75
f 305/11/75 306/11/75 307/11/75
f 307/11/75 306/11/75 308/11/75
f 307/11/75 308/11/75 309/11/75
f 309/11/75 308/11/75 310/11/75
f 309/11/75 310/11/75 311/11/75
f 311/11/75 310/11/75 312/11/75
f 293/10/133 306/11/134 304/11/133
f 303/11/135 293/10/133 304/11/133
f 306/11/134 293/10/133 294/10/134
f 293/10/133 303/11/135 290/10/135
f 294/10/134 308/11/136 306/11/134
f 301/11/137 290/10/135 303/11/135
f 308/11/136 294/10/134 297/10/136
f 290/10/135 301/11/137 289/10/137
f 297/10/136 310/11/138 308/11/136
f 310/11/138 297/10/136 298/10/138
f 300/10/139 310/11/138 298/10/138
f 310/11/138 300/10/139 312/11/139
f 299/10/140 312/11/139 300/10/139
f 312/11/139 299/10/140 311/11/140
f 302/11/141 289/10/137 301/11/137
f 289/10/137 302/11/141 291/10/141
f 302/11/141 292/10/142 291/10/141
f 292/10/142 302/11/141 305/11/142
f 305/11/142 295/10/143 292/10/142
f 295/10/143 305/11/142 307/11/143
f 296/10/144 311/11/140 299/10/140
f 307/11/143 296/10/144 295/10/143
f 311/11/140 296/10/144 309/11/144
f 296/10/144 307/11/143 309/11/144
f 315/12/65 314/12/65 313/12/65
f 314/12/65 315/12/65 316/12/65
f 314/12/65 316/12/65 317/12/65
f 317/12/65 316/12/65 318/12/65
f 317/12/65 318/12/65 319/12/65
f 319/12/65 318/12/65 320/12/65
f 319/12/65 320/12/65 321/12/65
f 321/12/65 320/12/65 322/12/65
f 322/12/65 320/12/65 323/12/65
f 322/12/65 323/12/65 324/12/65
f 327/13/147 326/13/146 325/13/145
f 326/13/146 327/13/147 328/13/148
f 326/13/146 328/13/148 329/13/149
f 329/13/149 328/13/148 330/13/150
f 329/13/149 330/13/150 331/13/151
f 331/13/151 330/13/150 332/13/152
f 331/13/151 332/13/152 333/13/153
f 333/13/153 332/13/152 334/13/154
f 333/13/153 334/13/154 335/13/155
f 335/13/155 334/13/154 336/13/156
f 328/13/148 338/14/158 337/14/157
f 338/14/158 328/13/148 327/13/147
f 340/14/160 334/13/154 339/14/159
f 334/13/154 340/14/160 336/13/156
f 327/13/147 341/14/161 338/14/158
f 341/14/161 327/13/147 325/13/145
f 342/14/162 333/13/153 335/13/155
f 333/13/153 342/14/162 343/14/163
f 334/13/154 344/14/164 339/14/159
f 344/14/164 334/13/154 332/13/152
f 326/13/146 346/14/166 345/14/165
f 346/14/166 326/13/146 329/13/149
f 325/13/145 345/14/165 341/14/161
f 345/14/165 325/13/145 326/13/146
f 330/13/150 337/14/157 347/14/167
f 337/14/157 330/13/150 328/13/148
f 332/13/152 347/14/167 344/14/164
f 347/14/167 332/13/152 330/13/150
f 342/14/162 336/13/156 340/14/160
f 336/13/156 342/14/162 335/13/155
f 331/13/151 343/14/163 348/14/168
f 343/14/163 331/13/151 333/13/153
f 329/13/149 348/14/168 346/14/166
f 348/14/168 329/13/149 331/13/151
f 345/14/165 313/12/137 341/14/161
f 313/12/137 345/14/165 315/12/169
f 338/14/158 317/12/170 337/14/157
f 317/12/170 338/14/158 314/12/171
f 345/14/165 316/12/172 315/12/169
f 316/12/172 345/14/165 346/14/166
f 341/14/161 314/12/171 338/14/158
f 314/12/171 341/14/161 313/12/137
f 320/12/174 342/14/162 323/12/173
f 342/14/162 320/12/174 343/14/163
f 348/14/168 320/12/174 318/12/143
f 320/12/174 348/14/168 343/14/163
f 344/14/164 319/12/134 321/12/175
f 319/12/134 344/14/164 347/14/167
f 324/12/139 339/14/159 322/12/176
f 339/14/159 324/12/139 340/14/160
f 347/14/167 317/12/170 319/12/134
f 317/12/170 347/14/167 337/14/157
f 339/14/159 321/12/175 322/12/176
f 321/12/175 339/14/159 344/14/164
f 323/12/173 340/14/160 324/12/139
f 340/14/160 323/12/173 342/14/162
f 346/14/166 318/12/143 316/12/172
f 318/12/143 346/14/166 348/14/168
f 351/13/75 350/13/75 349/13/75
f 350/13/75 351/13/75 352/13/75
f 350/13/75 352/13/75 353/13/75
f 353/13/75 352/13/75 354/13/75
f 353/13/75 354/13/75 355/13/75
f 355/13/75 354/13/75 356/13/75
f 355/13/75 356/13/75 357/13/75
f 357/13/75 356/13/75 358/13/75
f 357/13/75 358/13/75 359/13/75
f 359/13/75 358/13/75 360/13/75
f 363/12/65 362/12/65 361/12/65
f 362/12/65 363/12/65 364/12/65
f 362/12/65 364/12/65 365/12/65
f 365/12/65 364/12/65 366/12/65
f 365/12/65 366/12/65 367/12/65
f 367/12/65 366/12/65 368/12/65
f 367/12/65 368/12/65 369/12/65
f 369/12/65 368/12/65 370/12/65
f 370/12/65 368/12/65 371/12/65
f 370/12/65 371/12/65 372/12/65
f 355/13/143 368/12/144 366/12/143
f 368/12/144 355/13/143 357/13/144
f 371/12/140 360/13/139 372/12/139
f 360/13/139 371/12/140 359/13/140
f 349/13/137 362/12/135 351/13/135
f 362/12/135 349/13/137 361/12/137
f 350/13/141 361/12/137 349/13/137
f 361/12/137 350/13/141 363/12/141
f 357/13/144 371/12/140 368/12/144
f 371/12/140 357/13/144 359/13/140
f 350/13/141 364/12/142 363/12/141
f 364/12/142 350/13/141 353/13/142
f 354/13/134 365/12/133 367/12/134
f 365/12/133 354/13/134 352/13/133
f 358/13/138 369/12/136 370/12/138
f 369/12/136 358/13/138 356/13/136
f 356/13/136 367/12/134 369/12/136
f 367/12/134 356/13/136 354/13/134
f 353/13/142 366/12/143 364/12/142
f 366/12/143 353/13/142 355/13/143
f 352/13/133 362/12/135 365/12/133
f 362/12/135 352/13/133 351/13/135
f 372/12/139 358/13/138 370/12/138
f 358/13/138 372/12/139 360/13/139
f 375/15/141 374/12/177 373/15/142
f 374/12/177 375/15/141 376/12/178
f 379/15/136 378/13/179 377/15/134
f 378/13/179 379/15/136 380/13/180
f 377/15/134 382/13/181 381/15/133
f 382/13/181 377/15/134 378/13/179
f 374/12/177 377/15/134 383/12/182
f 377/15/134 374/12/177 379/15/136
f 386/12/184 385/15/136 384/12/183
f 385/15/136 386/12/184 387/15/134
f 380/13/180 375/15/141 373/15/142
f 375/15/141 380/13/180 388/13/185
f 376/12/178 379/15/136 374/12/177
f 379/15/136 376/12/178 389/15/138
f 391/15/133 390/13/186 387/15/134
f 390/13/186 391/15/133 392/13/187
f 382/13/181 394/15/140 393/13/188
f 394/15/140 382/13/181 395/15/144
f 397/12/189 381/15/133 396/15/135
f 381/15/133 397/12/189 398/12/190
f 401/12/191 400/15/137 399/15/135
f 400/15/137 401/12/191 402/12/192
f 385/15/136 390/13/186 403/13/193
f 390/13/186 385/15/136 387/15/134
f 404/15/140 402/12/192 401/12/191
f 402/12/192 404/15/140 405/15/139
f 373/15/142 383/12/182 406/15/143
f 383/12/182 373/15/142 374/12/177
f 392/13/187 407/15/143 390/13/186
f 407/15/143 392/13/187 408/15/144
f 410/15/139 397/12/189 409/12/194
f 397/12/189 410/15/139 394/15/140
f 380/13/180 406/15/143 378/13/179
f 406/15/143 380/13/180 373/15/142
f 389/15/138 411/13/195 388/13/185
f 411/13/195 389/15/138 405/15/139
f 412/12/196 399/15/135 391/15/133
f 399/15/135 412/12/196 401/12/191
f 413/12/197 410/15/139 409/12/194
f 410/15/139 413/12/197 414/15/138
f 408/15/144 386/12/184 407/15/143
f 386/12/184 408/15/144 412/12/196
f 381/15/133 393/13/188 396/15/135
f 393/13/188 381/15/133 382/13/181
f 417/13/198 416/15/142 415/15/141
f 416/15/142 417/13/198 403/13/193
f 418/13/199 408/15/144 392/13/187
f 408/15/144 418/13/199 404/15/140
f 400/15/137 418/13/199 399/15/135
f 418/13/199 400/15/137 411/13/195
f 416/15/142 413/12/197 415/15/141
f 413/12/197 416/15/142 384/12/183
f 409/12/194 396/15/135 419/15/137
f 396/15/135 409/12/194 397/12/189
f 395/15/144 383/12/182 398/12/190
f 383/12/182 395/15/144 406/15/143
f 384/12/183 414/15/138 413/12/197
f 414/15/138 384/12/183 385/15/136
f 396/15/135 420/13/200 419/15/137
f 420/13/200 396/15/135 393/13/188
f 399/15/135 392/13/187 391/15/133
f 392/13/187 399/15/135 418/13/199
f 400/15/137 376/12/178 375/15/141
f 376/12/178 400/15/137 402/12/192
f 408/15/144 401/12/191 412/12/196
f 401/12/191 408/15/144 404/15/140
f 420/13/200 415/15/141 419/15/137
f 415/15/141 420/13/200 417/13/198
f 398/12/190 377/15/134 381/15/133
f 377/15/134 398/12/190 383/12/182
f 414/15/138 403/13/193 417/13/198
f 403/13/193 414/15/138 385/15/136
f 379/15/136 388/13/185 380/13/180
f 388/13/185 379/15/136 389/15/138
f 410/15/139 417/13/198 420/13/200
f 417/13/198 410/15/139 414/15/138
f 402/12/192 389/15/138 376/12/178
f 389/15/138 402/12/192 405/15/139
f 411/13/195 404/15/140 418/13/199
f 404/15/140 411/13/195 405/15/139
f 378/13/179 395/15/144 382/13/181
f 395/15/144 378/13/179 406/15/143
f 394/15/140 398/12/190 397/12/189
f 398/12/190 394/15/140 395/15/144
f 403/13/193 407/15/143 416/15/142
f 407/15/143 403/13/193 390/13/186
f 388/13/185 400/15/137 375/15/141
f 400/15/137 388/13/185 411/13/195
f 393/13/188 410/15/139 420/13/200
f 410/15/139 393/13/188 394/15/140
f 407/15/143 384/12/183 416/15/142
f 384/12/183 407/15/143 386/12/184
f 412/12/196 387/15/134 386/12/184
f 387/15/134 412/12/196 391/15/133
f 415/15/141 409/12/194 419/15/137
f 409/12/194 415/15/141 413/12/197
f 423/16/65 422/16/65 421/16/65
f 422/16/65 423/16/65 424/16/65
f 422/16/65 424/16/65 425/16/65
f 425/16/65 424/16/65 426/16/65
f 426/16/65 424/16/65 427/16/65
f 426/16/65 427/16/65 428/16/65
f 426/16/65 428/16/65 429/16/65
f 429/16/65 428/16/65 430/16/65
f 430/16/65 428/16/65 431/16/65
f 430/16/65 431/16/65 432/16/65
f 435/17/203 434/17/202 433/17/201
f 434/17/202 435/17/203 436/17/204
f 434/17/202 436/17/204 437/17/205
f 437/17/205 436/17/204 438/17/206
f 437/17/205 438/17/206 439/17/207
f 439/17/207 438/17/206 440/17/208
f 439/17/207 440/17/208 441/17/209
f 441/17/209 440/17/208 442/17/210
f 441/17/209 442/17/210 443/17/211
f 443/17/211 442/17/210 444/17/212
f 434/17/202 424/16/172 423/16/169
f 424/16/172 434/17/202 437/17/205
f 437/17/205 427/16/143 424/16/172
f 427/16/143 437/17/205 439/17/207
f 439/17/207 428/16/174 427/16/143
f 428/16/174 439/17/207 441/17/209
f 441/17/209 431/16/173 428/16/174
f 431/16/173 441/17/209 443/17/211
f 431/16/173 444/17/212 432/16/139
f 444/17/212 431/16/173 443/17/211
f 432/16/139 442/17/210 430/16/176
f 442/17/210 432/16/139 444/17/212
f 442/17/210 429/16/175 430/16/176
f 429/16/175 442/17/210 440/17/208
f 440/17/208 426/16/134 429/16/175
f 426/16/134 440/17/208 438/17/206
f 438/17/206 425/16/170 426/16/134
f 425/16/170 438/17/206 436/17/204
f 436/17/204 422/16/171 425/16/170
f 422/16/171 436/17/204 435/17/203
f 433/17/201 422/16/171 435/17/203
f 422/16/171 433/17/201 421/16/137
f 434/17/202 421/16/137 433/17/201
f 421/16/137 434/17/202 423/16/169
f 447/19/213 446/18/214 445/18/213
f 446/18/214 447/19/213 448/19/214
f 451/18/216 450/19/215 449/18/215
f 450/19/215 451/18/216 452/19/216
f 455/19/218 454/18/217 453/19/217
f 454/18/217 455/19/218 456/18/218
f 459/19/219 458/18/220 457/18/219
f 458/18/220 459/19/219 460/19/220
f 447/19/213 456/18/218 455/19/218
f 456/18/218 447/19/213 445/18/213
f 446/18/214 452/19/216 451/18/216
f 452/19/216 446/18/214 448/19/214
f 449/18/215 459/19/219 457/18/219
f 459/19/219 449/18/215 450/19/215
f 453/19/217 458/18/220 460/19/220
f 458/18/220 453/19/217 454/18/217
f 460/19/75 455/19/75 453/19/75
f 455/19/75 460/19/75 447/19/75
f 447/19/75 460/19/75 459/19/75
f 447/19/75 459/19/75 448/19/75
f 448/19/75 459/19/75 450/19/75
f 448/19/75 450/19/75 452/19/75
f 445/18/65 454/18/65 456/18/65
f 454/18/65 445/18/65 458/18/65
f 458/18/65 445/18/65 446/18/65
f 458/18/65 446/18/65 457/18/65
f 457/18/65 446/18/65 451/18/65
f 457/18/65 451/18/65 449/18/65
f 463/19/219 462/18/220 461/18/219
f 462/18/220 463/19/219 464/19/220
f 467/18/217 466/19/218 465/18/218
f 466/19/218 467/18/217 468/19/217
f 471/19/215 470/18/216 469/19/216
f 470/18/216 471/19/215 472/18/215
f 475/19/213 474/18/214 473/18/213
f 474/18/214 475/19/213 476/19/214
f 463/19/219 472/18/215 471/19/215
f 472/18/215 463/19/219 461/18/219
f 462/18/220 468/19/217 467/18/217
f 468/19/217 462/18/220 464/19/220
f 465/18/218 475/19/213 473/18/213
f 475/19/213 465/18/218 466/19/218
f 469/19/216 474/18/214 476/19/214
f 474/18/214 469/19/216 470/18/216
f 476/19/75 471/19/75 469/19/75
f 471/19/75 476/19/75 463/19/75
f 463/19/75 476/19/75 475/19/75
f 463/19/75 475/19/75 464/19/75
f 464/19/75 475/19/75 466/19/75
f 464/19/75 466/19/75 468/19/75
f 461/18/65 470/18/65 472/18/65
f 470/18/65 461/18/65 474/18/65
f 474/18/65 461/18/65 462/18/65
f 474/18/65 462/18/65 473/18/65
f 473/18/65 462/18/65 467/18/65
f 473/18/65 467/18/65 465/18/65
f 479/19/221 478/18/222 477/18/221
f 478/18/222 479/19/221 480/19/222
f 483/18/224 482/19/223 481/18/223
f 482/19/223 483/18/224 484/19/224
f 487/19/226 486/18/225 485/19/225
f 486/18/225 487/19/226 488/18/226
f 491/19/227 490/18/228 489/18/227
f 490/18/228 491/19/227 492/19/228
f 479/19/221 488/18/226 487/19/226
f 488/18/226 479/19/221 477/18/221
f 478/18/222 484/19/224 483/18/224
f 484/19/224 478/18/222 480/19/222
f 481/18/223 491/19/227 489/18/227
f 491/19/227 481/18/223 482/19/223
f 485/19/225 490/18/228 492/19/228
f 490/18/228 485/19/225 486/18/225
f 492/19/75 487/19/75 485/19/75
f 487/19/75 492/19/75 479/19/75
f 479/19/75 492/19/75 491/19/75
f 479/19/75 491/19/75 480/19/75
f 480/19/75 491/19/75 482/19/75
f 480/19/75 482/19/75 484/19/75
f 477/18/65 486/18/65 488/18/65
f 486/18/65 477/18/65 490/18/65
f 490/18/65 477/18/65 478/18/65
f 490/18/65 478/18/65 489/18/65
f 489/18/65 478/18/65 483/18/65
f 489/18/65 483/18/65 481/18/65
f 495/19/229 494/18/230 493/18/229
f 494/18/230 495/19/229 496/19/230
f 499/18/232 498/19/231 497/18/231
f 498/19/231 499/18/232 500/19/232
f 503/19/234 502/18/233 501/19/233
f 502/18/233 503/19/234 504/18/234
f 507/19/235 506/18/236 505/18/235
f 506/18/236 507/19/235 508/19/236
f 495/19/229 504/18/234 503/19/234
f 504/18/234 495/19/229 493/18/229
f 494/18/230 500/19/232 499/18/232
f 500/19/232 494/18/230 496/19/230
f 497/18/231 507/19/235 505/18/235
f 507/19/235 497/18/231 498/19/231
f 501/19/233 506/18/236 508/19/236
f 506/18/236 501/19/233 502/18/233
f 508/19/75 503/19/75 501/19/75
f 503/19/75 508/19/75 495/19/75
f 495/19/75 508/19/75 507/19/75
f 495/19/75 507/19/75 496/19/75
f 496/19/75 507/19/75 498/19/75
f 496/19/75 498/19/75 500/19/75
f 493/18/65 502/18/65 504/18/65
f 502/18/65 493/18/65 506/18/65
f 506/18/65 493/18/65 494/18/65
f 506/18/65 494/18/65 505/18/65
f 505/18/65 494/18/65 499/18/65
f 505/18/65 499/18/65 497/18/65

