# Created by Kenney (www.kenney.nl)

mtllib windmill.mtl

g windmill

v 0.1132223 0.585 -1.922616E-07 1 1 1
v 0.09330775 1.475 -1.922616E-07 1 1 1
v 0.08006029 0.585 -0.08006048 1 1 1
v 0.06597854 1.475 -0.06597874 1 1 1
v -0.09330775 1.475 -1.922615E-07 1 1 1
v -0.1132223 0.585 -1.922615E-07 1 1 1
v -0.06597854 1.475 -0.06597874 1 1 1
v -0.08006029 0.585 -0.08006048 1 1 1
v -0.06597854 1.475 0.06597835 1 1 1
v 3.1024E-09 1.475 0.09330755 1 1 1
v 3.102329E-09 1.475 -0.09330794 1 1 1
v 0.06597854 1.475 0.06597835 1 1 1
v 3.102408E-09 0.585 0.1132222 1 1 1
v -0.08006029 0.585 0.08006009 1 1 1
v 3.102321E-09 0.585 -0.1132225 1 1 1
v 0.08006029 0.585 0.08006009 1 1 1
v 0.1018309 1.779478 -0.0008089203 1 1 1
v -0.1653567 1.779478 -0.0008089203 1 1 1
v 0.1018309 1.770103 -0.08752771 1 1 1
v -0.1653567 1.770103 -0.08752771 1 1 1
v 0.1018309 1.676353 -0.09690272 1 1 1
v -0.1653567 1.676353 -0.09690272 1 1 1
v 0.1018309 1.582603 -0.08752771 1 1 1
v -0.1653567 1.582603 -0.08752771 1 1 1
v 0.1018309 1.582603 0.08590987 1 1 1
v -0.1653567 1.582603 0.08590987 1 1 1
v 0.1018309 1.676353 0.09528489 1 1 1
v -0.1653567 1.676353 0.09528489 1 1 1
v 0.1018309 1.770103 0.08590987 1 1 1
v -0.1653567 1.770103 0.08590987 1 1 1
v -0.1653567 1.573228 -0.0008089203 1 1 1
v 0.1018309 1.573228 -0.0008089203 1 1 1
v 0.1018309 1.676353 0.1193083 1 1 1
v 0.1018309 1.559166 0.1075895 1 1 1
v 0.1018309 1.793541 0.1075895 1 1 1
v 0.1018309 1.805259 -0.0008089315 1 1 1
v 0.1018309 1.547447 -0.0008089315 1 1 1
v 0.1018309 1.793541 -0.1092074 1 1 1
v 0.1018309 1.559166 -0.1092074 1 1 1
v 0.1018309 1.676353 -0.1209261 1 1 1
v 0.289331 1.676353 0.0712614 1 1 1
v 0.289331 1.746666 0.06423014 1 1 1
v 0.289331 1.606041 0.06423014 1 1 1
v 0.289331 1.59901 -0.0008089315 1 1 1
v 0.289331 1.753697 -0.0008089315 1 1 1
v 0.289331 1.606041 -0.06584801 1 1 1
v 0.289331 1.746666 -0.06584801 1 1 1
v 0.289331 1.676353 -0.07287926 1 1 1
v -0.1653567 1.601353 -0.0008088885 1 1 1
v -0.1653567 1.62332 0.05222415 1 1 1
v -0.1653567 1.62332 -0.05384193 1 1 1
v -0.1653567 1.676353 -0.07580893 1 1 1
v -0.1653567 1.676353 0.07419115 1 1 1
v -0.1653567 1.729386 -0.05384193 1 1 1
v -0.1653567 1.729386 0.05222415 1 1 1
v -0.1653566 1.751353 -0.0008088885 1 1 1
v -0.3153567 1.638853 -0.0008088885 1 1 1
v -0.3153567 1.649837 -0.02732541 1 1 1
v -0.3153567 1.649837 0.02570763 1 1 1
v -0.3153567 1.676353 0.03669113 1 1 1
v -0.3153567 1.676353 -0.03830891 1 1 1
v -0.3153567 1.70287 0.02570763 1 1 1
v -0.3153567 1.70287 -0.02732541 1 1 1
v -0.3153567 1.713853 -0.0008088885 1 1 1
v -0.2403567 1.630745 0.04479953 1 1 1
v -0.2403567 1.611853 -0.0008088885 1 1 1
v -0.2403567 1.721962 0.04479953 1 1 1
v -0.2403567 1.740853 -0.0008088885 1 1 1
v -0.2403567 1.721962 -0.0464173 1 1 1
v -0.2403567 1.676353 -0.06530893 1 1 1
v -0.2403567 1.630745 -0.0464173 1 1 1
v -0.2403567 1.676353 0.06369115 1 1 1
v -0.1302072 0.585 -1.922615E-07 1 1 1
v -0.09207042 0.585 -0.09207062 1 1 1
v -0.09207042 0.585 0.09207023 1 1 1
v 3.102415E-09 0.585 0.130207 1 1 1
v 3.102315E-09 0.585 -0.1302074 1 1 1
v 0.09207042 0.585 0.09207023 1 1 1
v 0.09207042 0.585 -0.09207062 1 1 1
v 0.1302072 0.585 -1.922616E-07 1 1 1
v 3.102421E-09 0.51 0.1495757 1 1 1
v -0.1057661 0.51 0.1057659 1 1 1
v 0.1495759 0.51 -1.922616E-07 1 1 1
v 0.1057661 0.51 -0.1057663 1 1 1
v -0.1495759 0.51 -1.922615E-07 1 1 1
v 0.1057661 0.51 0.1057659 1 1 1
v -0.1057661 0.51 -0.1057663 1 1 1
v 3.102307E-09 0.51 -0.1495761 1 1 1
v -0.0879714 0.085 -0.08797159 1 1 1
v 3.102317E-09 0.085 -0.1244105 1 1 1
v 0.0879714 0.085 0.0879712 1 1 1
v 0.1244103 0.085 -1.922616E-07 1 1 1
v 0.0879714 0.085 -0.08797159 1 1 1
v 3.102412E-09 0.085 0.1244101 1 1 1
v -0.0879714 0.085 0.0879712 1 1 1
v -0.1244103 0.085 -1.922615E-07 1 1 1
v -0.165 0 -1.922615E-07 1 1 1
v -0.1166726 0 0.1166725 1 1 1
v -0.1166726 0 -0.1166728 1 1 1
v 3.102428E-09 0 0.1649998 1 1 1
v 3.102301E-09 0 -0.1650002 1 1 1
v 0.1166726 0 -0.1166728 1 1 1
v 0.1166726 0 0.1166725 1 1 1
v 0.165 0 -1.922616E-07 1 1 1
v -0.15015 0.085 -1.922615E-07 1 1 1
v -0.1061721 0.085 -0.1061723 1 1 1
v -0.1061721 0.085 0.1061719 1 1 1
v 3.102422E-09 0.085 0.1501499 1 1 1
v 3.102307E-09 0.085 -0.1501502 1 1 1
v 0.1061721 0.085 -0.1061723 1 1 1
v 0.1061721 0.085 0.1061719 1 1 1
v 0.15015 0.085 -1.922616E-07 1 1 1
v -0.1166347 1.475 -1.922615E-07 1 1 1
v -0.08247318 1.475 0.08247299 1 1 1
v -0.08247318 1.475 -0.08247337 1 1 1
v 3.10232E-09 1.475 -0.1166349 1 1 1
v 3.102409E-09 1.475 0.1166345 1 1 1
v 0.08247318 1.475 0.08247299 1 1 1
v 0.08247318 1.475 -0.08247337 1 1 1
v 0.1166347 1.475 -1.922616E-07 1 1 1
v -0.1166347 1.575 -1.922615E-07 1 1 1
v -0.08247318 1.575 -0.08247337 1 1 1
v -0.08247318 1.575 0.08247299 1 1 1
v 3.102409E-09 1.575 0.1166345 1 1 1
v 3.10232E-09 1.575 -0.1166349 1 1 1
v 0.08247318 1.575 0.08247299 1 1 1
v 0.08247318 1.575 -0.08247337 1 1 1
v 0.1166347 1.575 -1.922616E-07 1 1 1

vn 0.9997498 0.02237036 -3.83597E-13
vn 0.7069298 0.02237036 -0.7069298
vn -0.9997498 0.02237036 3.83597E-13
vn -0.7069298 0.02237036 -0.7069298
vn 0 1 0
vn 3.83597E-13 0.02237036 0.9997498
vn -0.7069298 0.02237036 0.7069298
vn -3.83597E-13 0.02237036 -0.9997498
vn 0.7069298 0.02237036 0.7069298
vn 1.192093E-07 0.9999999 -1.129377E-22
vn 8.395468E-08 0.7042651 -0.7099373
vn -3.874826E-13 0 -1
vn -8.395524E-08 -0.7042651 -0.7099373
vn -8.395468E-08 -0.7042651 0.7099373
vn 3.874826E-13 0 1
vn 8.395524E-08 0.7042651 0.7099373
vn -1 -1.192093E-07 3.874826E-13
vn -1.192093E-07 -0.9999999 1.129377E-22
vn 1 1.192093E-07 -3.874826E-13
vn -1 -1.818416E-17 3.859668E-13
vn 1 1.818416E-17 -3.859668E-13
vn 0.2482297 4.513847E-18 -0.9687012
vn 0.322035 0.6631342 -0.6756824
vn 0.3221521 0.6693518 -0.6694671
vn 0.2482297 4.513847E-18 0.9687012
vn 0.322035 0.6631342 0.6756824
vn 0.3221521 0.6693518 0.6694671
vn 0.3221521 -0.6693518 -0.6694671
vn 0.2651564 -0.9642054 -1.023416E-13
vn 0.322035 -0.6631342 -0.6756824
vn 0.2651564 0.9642054 -1.023416E-13
vn 0.3221521 -0.6693518 0.6694671
vn 0.322035 -0.6631342 0.6756824
vn 1 1.192093E-07 -3.836931E-13
vn -0.754643 -0.6561361 2.895512E-13
vn -0.754643 -0.4639583 -0.4639584
vn -0.754643 -0.4639583 0.4639584
vn -0.754643 -8.99604E-08 0.6561362
vn -0.754643 -8.99604E-08 -0.6561362
vn -0.7546429 0.4639581 0.4639584
vn -0.7546429 0.4639581 -0.4639584
vn -0.7546429 0.6561359 2.895512E-13
vn -0.2343035 -0.6874235 0.6874237
vn -0.2343036 -0.9721634 8.990057E-14
vn -0.2343034 0.6874235 0.6874237
vn -0.2343033 0.9721634 8.990057E-14
vn -0.2343034 0.6874235 -0.6874237
vn -0.2343035 -2.793113E-08 -0.9721638
vn -0.2343035 -0.6874235 -0.6874237
vn -0.1386479 -1.652811E-08 0.990342
vn -0.138648 -0.7002774 0.7002776
vn -0.2343035 -2.793113E-08 0.9721638
vn -0.1386479 -1.652811E-08 -0.990342
vn -0.138648 -0.7002774 -0.7002776
vn -0.138648 -0.9903417 5.319822E-14
vn -0.1386478 0.7002774 0.7002776
vn -0.1386478 0.9903417 5.319822E-14
vn -0.1386478 0.7002774 -0.7002776
vn -0.7619039 0.6476902 2.923372E-13
vn -0.5387474 0.6476902 -0.5387474
vn -0.5387474 0.6476902 0.5387474
vn 2.923372E-13 0.6476902 0.7619039
vn -2.923372E-13 0.6476902 -0.7619039
vn 0.5387474 0.6476902 0.5387474
vn 0.5387474 0.6476902 -0.5387474
vn 0.7619039 0.6476902 -2.923372E-13
vn 3.715047E-13 0.2500452 0.9682341
vn -0.6846449 0.2500452 0.6846449
vn 0.9682341 0.2500452 -3.715047E-13
vn 0.6846449 0.2500452 -0.6846449
vn -0.9682341 0.2500452 3.715047E-13
vn 0.6846449 0.2500452 0.6846449
vn -0.6846449 0.2500452 -0.6846449
vn -3.715047E-13 0.2500452 -0.9682341
vn -0.7058704 -0.05910956 -0.7058704
vn -3.830221E-13 -0.05910956 -0.9982515
vn 0.7058704 -0.05910956 0.7058704
vn 0.9982515 -0.05910956 -3.830221E-13
vn 0.7058704 -0.05910956 -0.7058704
vn 3.830221E-13 -0.05910956 0.9982515
vn -0.7058704 -0.05910956 0.7058704
vn -0.9982515 -0.05910956 3.830221E-13
vn 0 -1 0
vn 0.6965564 0.1720993 0.6965564
vn 3.779681E-13 0.1720993 0.9850796
vn 0.9850796 0.1720993 -3.779681E-13
vn 0.6965564 0.1720993 -0.6965564
vn -0.6965564 0.1720993 0.6965564
vn -0.9850796 0.1720993 3.779681E-13
vn -0.6965564 0.1720993 -0.6965564
vn -3.779681E-13 0.1720993 -0.9850796
vn 0.7071068 0 0.7071068
vn 1 0 -3.83693E-13
vn 0.7071068 0 -0.7071068
vn -3.83693E-13 0 -1
vn -0.7071068 0 -0.7071068
vn -1 0 3.83693E-13
vn -0.7071068 0 0.7071068
vn 3.83693E-13 0 1

vt 0.96875 0.025
vt 0.96875 0.225
vt 0.96875 0.185
vt 0.96875 0.1486364
vt 0.96875 0.2213636
vt 0.96875 0.145
vt 0.96875 0.2068182
vt 0.96875 0.1631818
vt 0.96875 0.161
vt 0.96875 0.209
vt 0.59375 0.275
vt 0.59375 0.475
vt 0.59375 0.375
vt 0.71875 0.725
vt 0.71875 0.695
vt 0.71875 0.525
vt 0.71875 0.575
vt 0.71875 0.675

usemtl colormap

f 3/1/2 2/2/1 1/1/1
f 2/2/1 3/1/2 4/2/2
f 7/2/4 6/1/3 5/2/3
f 6/1/3 7/2/4 8/1/4
f 9/2/5 7/2/5 5/2/5
f 7/2/5 9/2/5 10/2/5
f 7/2/5 10/2/5 11/2/5
f 11/2/5 10/2/5 12/2/5
f 11/2/5 12/2/5 4/2/5
f 4/2/5 12/2/5 2/2/5
f 10/2/6 14/1/7 13/1/6
f 14/1/7 10/2/6 9/2/7
f 11/2/8 3/1/2 15/1/8
f 3/1/2 11/2/8 4/2/2
f 1/1/1 12/2/9 16/1/9
f 12/2/9 1/1/1 2/2/1
f 7/2/4 15/1/8 8/1/4
f 15/1/8 7/2/4 11/2/8
f 9/2/7 6/1/3 14/1/7
f 6/1/3 9/2/7 5/2/3
f 12/2/9 13/1/6 16/1/9
f 13/1/6 12/2/9 10/2/6
f 19/1/11 18/2/10 17/1/10
f 18/2/10 19/1/11 20/2/11
f 22/2/12 19/1/11 21/1/12
f 19/1/11 22/2/12 20/2/11
f 24/2/13 21/1/12 23/1/13
f 21/1/12 24/2/13 22/2/12
f 27/1/15 26/2/14 25/1/14
f 26/2/14 27/1/15 28/2/15
f 17/1/10 30/2/16 29/1/16
f 30/2/16 17/1/10 18/2/10
f 26/2/17 24/2/17 31/2/17
f 24/2/17 26/2/17 28/2/17
f 24/2/17 28/2/17 22/2/17
f 22/2/17 28/2/17 30/2/17
f 22/2/17 30/2/17 20/2/17
f 20/2/17 30/2/17 18/2/17
f 24/2/13 32/1/18 31/2/18
f 32/1/18 24/2/13 23/1/13
f 31/2/18 25/1/14 26/2/14
f 25/1/14 31/2/18 32/1/18
f 23/1/19 25/1/19 32/1/19
f 25/1/19 23/1/19 21/1/19
f 25/1/19 21/1/19 27/1/19
f 27/1/19 21/1/19 19/1/19
f 27/1/19 19/1/19 29/1/19
f 29/1/19 19/1/19 17/1/19
f 29/1/16 28/2/15 27/1/15
f 28/2/15 29/1/16 30/2/16
f 35/5/20 34/4/20 33/3/20
f 34/4/20 35/5/20 36/2/20
f 34/4/20 36/2/20 37/6/20
f 37/6/20 36/2/20 38/5/20
f 37/6/20 38/5/20 39/4/20
f 39/4/20 38/5/20 40/3/20
f 43/8/21 42/7/21 41/3/21
f 42/7/21 43/8/21 44/9/21
f 42/7/21 44/9/21 45/10/21
f 45/10/21 44/9/21 46/8/21
f 45/10/21 46/8/21 47/7/21
f 47/7/21 46/8/21 48/3/21
f 40/3/22 47/7/23 48/3/22
f 47/7/23 40/3/22 38/5/24
f 42/7/26 33/3/25 41/3/25
f 33/3/25 42/7/26 35/5/27
f 46/8/30 37/6/29 39/4/28
f 37/6/29 46/8/30 44/9/29
f 45/10/31 38/5/24 36/2/31
f 38/5/24 45/10/31 47/7/23
f 43/8/33 33/3/25 34/4/32
f 33/3/25 43/8/33 41/3/25
f 40/3/22 46/8/30 39/4/28
f 46/8/30 40/3/22 48/3/22
f 44/9/29 34/4/32 37/6/29
f 34/4/32 44/9/29 43/8/33
f 42/7/26 36/2/31 35/5/27
f 36/2/31 42/7/26 45/10/31
f 51/11/34 50/11/34 49/11/34
f 50/11/34 51/11/34 52/11/34
f 50/11/34 52/11/34 53/11/34
f 53/11/34 52/11/34 54/11/34
f 53/11/34 54/11/34 55/11/34
f 55/11/34 54/11/34 56/11/34
f 59/12/37 58/12/36 57/12/35
f 58/12/36 59/12/37 60/12/38
f 58/12/36 60/12/38 61/12/39
f 61/12/39 60/12/38 62/12/40
f 61/12/39 62/12/40 63/12/41
f 63/12/41 62/12/40 64/12/42
f 59/12/37 66/13/44 65/13/43
f 66/13/44 59/12/37 57/12/35
f 68/13/46 62/12/40 67/13/45
f 62/12/40 68/13/46 64/12/42
f 70/13/48 63/12/41 69/13/47
f 63/12/41 70/13/48 61/12/39
f 71/13/49 61/12/39 70/13/48
f 61/12/39 71/13/49 58/12/36
f 72/13/52 50/11/51 53/11/50
f 50/11/51 72/13/52 65/13/43
f 51/11/54 70/13/48 52/11/53
f 70/13/48 51/11/54 71/13/49
f 58/12/36 66/13/44 57/12/35
f 66/13/44 58/12/36 71/13/49
f 60/12/38 65/13/43 72/13/52
f 65/13/43 60/12/38 59/12/37
f 71/13/49 49/11/55 66/13/44
f 49/11/55 71/13/49 51/11/54
f 56/11/57 67/13/45 55/11/56
f 67/13/45 56/11/57 68/13/46
f 54/11/58 68/13/46 56/11/57
f 68/13/46 54/11/58 69/13/47
f 52/11/53 69/13/47 54/11/58
f 69/13/47 52/11/53 70/13/48
f 69/13/47 64/12/42 68/13/46
f 64/12/42 69/13/47 63/12/41
f 65/13/43 49/11/55 50/11/51
f 49/11/55 65/13/43 66/13/44
f 67/13/45 53/11/50 55/11/56
f 53/11/50 67/13/45 72/13/52
f 62/12/40 72/13/52 67/13/45
f 72/13/52 62/12/40 60/12/38
f 75/14/61 74/14/60 73/14/59
f 74/14/60 75/14/61 76/14/62
f 74/14/60 76/14/62 77/14/63
f 77/14/63 76/14/62 78/14/64
f 77/14/63 78/14/64 79/14/65
f 79/14/65 78/14/64 80/14/66
f 76/14/62 82/15/68 81/15/67
f 82/15/68 76/14/62 75/14/61
f 83/15/69 79/14/65 80/14/66
f 79/14/65 83/15/69 84/15/70
f 75/14/61 85/15/71 82/15/68
f 85/15/71 75/14/61 73/14/59
f 83/15/69 78/14/64 86/15/72
f 78/14/64 83/15/69 80/14/66
f 74/14/60 88/15/74 87/15/73
f 88/15/74 74/14/60 77/14/63
f 73/14/59 87/15/73 85/15/71
f 87/15/73 73/14/59 74/14/60
f 78/14/64 81/15/67 86/15/72
f 81/15/67 78/14/64 76/14/62
f 77/14/63 84/15/70 88/15/74
f 84/15/70 77/14/63 79/14/65
f 87/15/75 90/16/76 89/16/75
f 90/16/76 87/15/75 88/15/76
f 91/16/77 83/15/78 86/15/77
f 83/15/78 91/16/77 92/16/78
f 93/16/79 83/15/78 92/16/78
f 83/15/78 93/16/79 84/15/79
f 86/15/77 94/16/80 91/16/77
f 94/16/80 86/15/77 81/15/80
f 81/15/80 95/16/81 94/16/80
f 95/16/81 81/15/80 82/15/81
f 85/15/82 95/16/81 82/15/81
f 95/16/81 85/15/82 96/16/82
f 88/15/76 93/16/79 90/16/76
f 93/16/79 88/15/76 84/15/79
f 85/15/82 89/16/75 96/16/82
f 89/16/75 85/15/82 87/15/75
f 99/17/83 98/17/83 97/17/83
f 98/17/83 99/17/83 100/17/83
f 100/17/83 99/17/83 101/17/83
f 100/17/83 101/17/83 102/17/83
f 100/17/83 102/17/83 103/17/83
f 103/17/83 102/17/83 104/17/83
f 107/18/5 106/18/5 105/18/5
f 106/18/5 107/18/5 108/18/5
f 106/18/5 108/18/5 109/18/5
f 109/18/5 108/18/5 110/18/5
f 110/18/5 108/18/5 111/18/5
f 110/18/5 111/18/5 112/18/5
f 111/18/84 100/17/85 103/17/84
f 100/17/85 111/18/84 108/18/85
f 102/17/87 112/18/86 104/17/86
f 112/18/86 102/17/87 110/18/87
f 107/18/88 97/17/89 98/17/88
f 97/17/89 107/18/88 105/18/89
f 105/18/89 99/17/90 97/17/89
f 99/17/90 105/18/89 106/18/90
f 109/18/91 102/17/87 101/17/91
f 102/17/87 109/18/91 110/18/87
f 108/18/85 98/17/88 100/17/85
f 98/17/88 108/18/85 107/18/88
f 104/17/86 111/18/84 103/17/84
f 111/18/84 104/17/86 112/18/86
f 106/18/90 101/17/91 99/17/90
f 101/17/91 106/18/90 109/18/91
f 115/17/83 114/17/83 113/17/83
f 114/17/83 115/17/83 116/17/83
f 114/17/83 116/17/83 117/17/83
f 117/17/83 116/17/83 118/17/83
f 118/17/83 116/17/83 119/17/83
f 118/17/83 119/17/83 120/17/83
f 123/18/5 122/18/5 121/18/5
f 122/18/5 123/18/5 124/18/5
f 122/18/5 124/18/5 125/18/5
f 125/18/5 124/18/5 126/18/5
f 125/18/5 126/18/5 127/18/5
f 127/18/5 126/18/5 128/18/5
f 120/17/93 126/18/92 118/17/92
f 126/18/92 120/17/93 128/18/93
f 119/17/94 128/18/93 120/17/93
f 128/18/93 119/17/94 127/18/94
f 125/18/95 119/17/94 116/17/95
f 119/17/94 125/18/95 127/18/94
f 122/18/96 116/17/95 115/17/96
f 116/17/95 122/18/96 125/18/95
f 122/18/96 113/17/97 121/18/97
f 113/17/97 122/18/96 115/17/96
f 121/18/97 114/17/98 123/18/98
f 114/17/98 121/18/97 113/17/97
f 126/18/92 117/17/99 118/17/92
f 117/17/99 126/18/92 124/18/99
f 124/18/99 114/17/98 117/17/99
f 114/17/98 124/18/99 123/18/98

g windmill




usemtl colormap

f 3/1/2 2/2/1 1/1/1
f 2/2/1 3/1/2 4/2/2
f 7/2/4 6/1/3 5/2/3
f 6/1/3 7/2/4 8/1/4
f 9/2/5 7/2/5 5/2/5
f 7/2/5 9/2/5 10/2/5
f 7/2/5 10/2/5 11/2/5
f 11/2/5 10/2/5 12/2/5
f 11/2/5 12/2/5 4/2/5
f 4/2/5 12/2/5 2/2/5
f 10/2/6 14/1/7 13/1/6
f 14/1/7 10/2/6 9/2/7
f 11/2/8 3/1/2 15/1/8
f 3/1/2 11/2/8 4/2/2
f 1/1/1 12/2/9 16/1/9
f 12/2/9 1/1/1 2/2/1
f 7/2/4 15/1/8 8/1/4
f 15/1/8 7/2/4 11/2/8
f 9/2/7 6/1/3 14/1/7
f 6/1/3 9/2/7 5/2/3
f 12/2/9 13/1/6 16/1/9
f 13/1/6 12/2/9 10/2/6
f 19/1/11 18/2/10 17/1/10
f 18/2/10 19/1/11 20/2/11
f 22/2/12 19/1/11 21/1/12
f 19/1/11 22/2/12 20/2/11
f 24/2/13 21/1/12 23/1/13
f 21/1/12 24/2/13 22/2/12
f 27/1/15 26/2/14 25/1/14
f 26/2/14 27/1/15 28/2/15
f 17/1/10 30/2/16 29/1/16
f 30/2/16 17/1/10 18/2/10
f 26/2/17 24/2/17 31/2/17
f 24/2/17 26/2/17 28/2/17
f 24/2/17 28/2/17 22/2/17
f 22/2/17 28/2/17 30/2/17
f 22/2/17 30/2/17 20/2/17
f 20/2/17 30/2/17 18/2/17
f 24/2/13 32/1/18 31/2/18
f 32/1/18 24/2/13 23/1/13
f 31/2/18 25/1/14 26/2/14
f 25/1/14 31/2/18 32/1/18
f 23/1/19 25/1/19 32/1/19
f 25/1/19 23/1/19 21/1/19
f 25/1/19 21/1/19 27/1/19
f 27/1/19 21/1/19 19/1/19
f 27/1/19 19/1/19 29/1/19
f 29/1/19 19/1/19 17/1/19
f 29/1/16 28/2/15 27/1/15
f 28/2/15 29/1/16 30/2/16
f 35/5/20 34/4/20 33/3/20
f 34/4/20 35/5/20 36/2/20
f 34/4/20 36/2/20 37/6/20
f 37/6/20 36/2/20 38/5/20
f 37/6/20 38/5/20 39/4/20
f 39/4/20 38/5/20 40/3/20
f 43/8/21 42/7/21 41/3/21
f 42/7/21 43/8/21 44/9/21
f 42/7/21 44/9/21 45/10/21
f 45/10/21 44/9/21 46/8/21
f 45/10/21 46/8/21 47/7/21
f 47/7/21 46/8/21 48/3/21
f 40/3/22 47/7/23 48/3/22
f 47/7/23 40/3/22 38/5/24
f 42/7/26 33/3/25 41/3/25
f 33/3/25 42/7/26 35/5/27
f 46/8/30 37/6/29 39/4/28
f 37/6/29 46/8/30 44/9/29
f 45/10/31 38/5/24 36/2/31
f 38/5/24 45/10/31 47/7/23
f 43/8/33 33/3/25 34/4/32
f 33/3/25 43/8/33 41/3/25
f 40/3/22 46/8/30 39/4/28
f 46/8/30 40/3/22 48/3/22
f 44/9/29 34/4/32 37/6/29
f 34/4/32 44/9/29 43/8/33
f 42/7/26 36/2/31 35/5/27
f 36/2/31 42/7/26 45/10/31
f 51/11/34 50/11/34 49/11/34
f 50/11/34 51/11/34 52/11/34
f 50/11/34 52/11/34 53/11/34
f 53/11/34 52/11/34 54/11/34
f 53/11/34 54/11/34 55/11/34
f 55/11/34 54/11/34 56/11/34
f 59/12/37 58/12/36 57/12/35
f 58/12/36 59/12/37 60/12/38
f 58/12/36 60/12/38 61/12/39
f 61/12/39 60/12/38 62/12/40
f 61/12/39 62/12/40 63/12/41
f 63/12/41 62/12/40 64/12/42
f 59/12/37 66/13/44 65/13/43
f 66/13/44 59/12/37 57/12/35
f 68/13/46 62/12/40 67/13/45
f 62/12/40 68/13/46 64/12/42
f 70/13/48 63/12/41 69/13/47
f 63/12/41 70/13/48 61/12/39
f 71/13/49 61/12/39 70/13/48
f 61/12/39 71/13/49 58/12/36
f 72/13/52 50/11/51 53/11/50
f 50/11/51 72/13/52 65/13/43
f 51/11/54 70/13/48 52/11/53
f 70/13/48 51/11/54 71/13/49
f 58/12/36 66/13/44 57/12/35
f 66/13/44 58/12/36 71/13/49
f 60/12/38 65/13/43 72/13/52
f 65/13/43 60/12/38 59/12/37
f 71/13/49 49/11/55 66/13/44
f 49/11/55 71/13/49 51/11/54
f 56/11/57 67/13/45 55/11/56
f 67/13/45 56/11/57 68/13/46
f 54/11/58 68/13/46 56/11/57
f 68/13/46 54/11/58 69/13/47
f 52/11/53 69/13/47 54/11/58
f 69/13/47 52/11/53 70/13/48
f 69/13/47 64/12/42 68/13/46
f 64/12/42 69/13/47 63/12/41
f 65/13/43 49/11/55 50/11/51
f 49/11/55 65/13/43 66/13/44
f 67/13/45 53/11/50 55/11/56
f 53/11/50 67/13/45 72/13/52
f 62/12/40 72/13/52 67/13/45
f 72/13/52 62/12/40 60/12/38
f 75/14/61 74/14/60 73/14/59
f 74/14/60 75/14/61 76/14/62
f 74/14/60 76/14/62 77/14/63
f 77/14/63 76/14/62 78/14/64
f 77/14/63 78/14/64 79/14/65
f 79/14/65 78/14/64 80/14/66
f 76/14/62 82/15/68 81/15/67
f 82/15/68 76/14/62 75/14/61
f 83/15/69 79/14/65 80/14/66
f 79/14/65 83/15/69 84/15/70
f 75/14/61 85/15/71 82/15/68
f 85/15/71 75/14/61 73/14/59
f 83/15/69 78/14/64 86/15/72
f 78/14/64 83/15/69 80/14/66
f 74/14/60 88/15/74 87/15/73
f 88/15/74 74/14/60 77/14/63
f 73/14/59 87/15/73 85/15/71
f 87/15/73 73/14/59 74/14/60
f 78/14/64 81/15/67 86/15/72
f 81/15/67 78/14/64 76/14/62
f 77/14/63 84/15/70 88/15/74
f 84/15/70 77/14/63 79/14/65
f 87/15/75 90/16/76 89/16/75
f 90/16/76 87/15/75 88/15/76
f 91/16/77 83/15/78 86/15/77
f 83/15/78 91/16/77 92/16/78
f 93/16/79 83/15/78 92/16/78
f 83/15/78 93/16/79 84/15/79
f 86/15/77 94/16/80 91/16/77
f 94/16/80 86/15/77 81/15/80
f 81/15/80 95/16/81 94/16/80
f 95/16/81 81/15/80 82/15/81
f 85/15/82 95/16/81 82/15/81
f 95/16/81 85/15/82 96/16/82
f 88/15/76 93/16/79 90/16/76
f 93/16/79 88/15/76 84/15/79
f 85/15/82 89/16/75 96/16/82
f 89/16/75 85/15/82 87/15/75
f 99/17/83 98/17/83 97/17/83
f 98/17/83 99/17/83 100/17/83
f 100/17/83 99/17/83 101/17/83
f 100/17/83 101/17/83 102/17/83
f 100/17/83 102/17/83 103/17/83
f 103/17/83 102/17/83 104/17/83
f 107/18/5 106/18/5 105/18/5
f 106/18/5 107/18/5 108/18/5
f 106/18/5 108/18/5 109/18/5
f 109/18/5 108/18/5 110/18/5
f 110/18/5 108/18/5 111/18/5
f 110/18/5 111/18/5 112/18/5
f 111/18/84 100/17/85 103/17/84
f 100/17/85 111/18/84 108/18/85
f 102/17/87 112/18/86 104/17/86
f 112/18/86 102/17/87 110/18/87
f 107/18/88 97/17/89 98/17/88
f 97/17/89 107/18/88 105/18/89
f 105/18/89 99/17/90 97/17/89
f 99/17/90 105/18/89 106/18/90
f 109/18/91 102/17/87 101/17/91
f 102/17/87 109/18/91 110/18/87
f 108/18/85 98/17/88 100/17/85
f 98/17/88 108/18/85 107/18/88
f 104/17/86 111/18/84 103/17/84
f 111/18/84 104/17/86 112/18/86
f 106/18/90 101/17/91 99/17/90
f 101/17/91 106/18/90 109/18/91
f 115/17/83 114/17/83 113/17/83
f 114/17/83 115/17/83 116/17/83
f 114/17/83 116/17/83 117/17/83
f 117/17/83 116/17/83 118/17/83
f 118/17/83 116/17/83 119/17/83
f 118/17/83 119/17/83 120/17/83
f 123/18/5 122/18/5 121/18/5
f 122/18/5 123/18/5 124/18/5
f 122/18/5 124/18/5 125/18/5
f 125/18/5 124/18/5 126/18/5
f 125/18/5 126/18/5 127/18/5
f 127/18/5 126/18/5 128/18/5
f 120/17/93 126/18/92 118/17/92
f 126/18/92 120/17/93 128/18/93
f 119/17/94 128/18/93 120/17/93
f 128/18/93 119/17/94 127/18/94
f 125/18/95 119/17/94 116/17/95
f 119/17/94 125/18/95 127/18/94
f 122/18/96 116/17/95 115/17/96
f 116/17/95 122/18/96 125/18/95
f 122/18/96 113/17/97 121/18/97
f 113/17/97 122/18/96 115/17/96
f 121/18/97 114/17/98 123/18/98
f 114/17/98 121/18/97 113/17/97
f 126/18/92 117/17/99 118/17/92
f 117/17/99 126/18/92 124/18/99
f 124/18/99 114/17/98 117/17/99
f 114/17/98 124/18/99 123/18/98

g blades

v -0.2624093 1.797175 0.08149246 1 1 1
v -0.2621379 1.78827 0.08047961 1 1 1
v -0.2888588 1.797175 0.03531427 1 1 1
v -0.2642991 1.797175 -0.05634374 1 1 1
v -0.2185755 1.78827 -0.08209763 1 1 1
v -0.2183041 1.797175 -0.08311049 1 1 1
v -0.2306602 1.943953 0.1078921 1 1 1
v -0.2199063 2.276353 0.06775784 1 1 1
v -0.1776087 1.943953 -0.09009866 1 1 1
v -0.2089118 2.313853 0.02672593 1 1 1
v -0.1993572 2.313853 -0.008932522 1 1 1
v -0.1883627 2.276353 -0.04996442 1 1 1
v -0.2933234 1.943953 0.05197651 1 1 1
v -0.2598345 1.943953 -0.07300597 1 1 1
v -0.2831753 2.257627 0.01410325 1 1 1
v -0.2776852 2.276353 -0.006386294 1 1 1
v -0.2754728 2.276353 -0.01464318 1 1 1
v -0.2699826 2.257627 -0.03513272 1 1 1
v -0.2245849 2.276353 -0.05967014 1 1 1
v -0.213831 1.943953 -0.09980439 1 1 1
v -0.2668824 1.943953 0.09818635 1 1 1
v -0.2561285 2.276353 0.05805212 1 1 1
v -0.2361639 1.713853 -0.016457 1 1 1
v -0.2445496 1.713853 0.01483897 1 1 1
v -0.1999416 1.713853 -0.006751281 1 1 1
v -0.2083274 1.713853 0.02454469 1 1 1
v -0.2221585 1.751353 -0.06872571 1 1 1
v -0.1859363 1.751353 -0.05901998 1 1 1
v -0.1823533 1.78827 -0.0723919 1 1 1
v -0.1820819 1.797175 -0.07340477 1 1 1
v -0.2777375 1.751353 -0.006191027 1 1 1
v -0.2754204 1.751353 -0.01483844 1 1 1
v -0.2355794 2.313853 -0.01863824 1 1 1
v -0.2585549 1.751353 0.06710768 1 1 1
v -0.2223327 1.751353 0.07681341 1 1 1
v -0.2259157 1.78827 0.09018533 1 1 1
v -0.2261871 1.797175 0.09119818 1 1 1
v -0.266403 1.775498 -0.04849171 1 1 1
v -0.2867548 1.775498 0.02746224 1 1 1
v -0.2451341 2.313853 0.01702022 1 1 1
v -0.2624093 1.687217 -0.1465949 1 1 1
v -0.2621379 1.690793 -0.1383761 1 1 1
v -0.2888588 1.647226 -0.1235058 1 1 1
v -0.2642991 1.567848 -0.07767676 1 1 1
v -0.2185755 1.549997 -0.05708743 1 1 1
v -0.2183041 1.544667 -0.06429337 1 1 1
v -0.2306602 1.636691 -0.2869084 1 1 1
v -0.2199063 1.435734 -0.5547081 1 1 1
v -0.1776088 1.465226 -0.187913 1 1 1
v -0.2089118 1.381449 -0.566668 1 1 1
v -0.1993572 1.350568 -0.5488389 1 1 1
v -0.1883627 1.333783 -0.4958469 1 1 1
v -0.2933234 1.588267 -0.2589506 1 1 1
v -0.2598345 1.480029 -0.1964593 1 1 1
v -0.2831753 1.39863 -0.5116638 1 1 1
v -0.2776852 1.371523 -0.5176361 1 1 1
v -0.2754727 1.364372 -0.5135076 1 1 1
v -0.2699826 1.355991 -0.4870457 1 1 1
v -0.2245849 1.325378 -0.490994 1 1 1
v -0.213831 1.456821 -0.1830601 1 1 1
v -0.2668824 1.628286 -0.2820555 1 1 1
v -0.2561285 1.427328 -0.5498552 1 1 1
v -0.2361639 1.644052 -0.02546133 1 1 1
v -0.2445496 1.671155 -0.04110932 1 1 1
v -0.1999416 1.652457 -0.03031419 1 1 1
v -0.2083274 1.67956 -0.04596218 1 1 1
v -0.2221585 1.580036 -0.03180293 1 1 1
v -0.1859363 1.588441 -0.03665579 1 1 1
v -0.1823533 1.558402 -0.06194029 1 1 1
v -0.1820819 1.553072 -0.06914623 1 1 1
v -0.2777375 1.634192 -0.06307027 1 1 1
v -0.2754204 1.626703 -0.05874657 1 1 1
v -0.2355794 1.342163 -0.543986 1 1 1
v -0.2585549 1.697671 -0.09971964 1 1 1
v -0.2223327 1.706076 -0.1045725 1 1 1
v -0.2259157 1.699198 -0.143229 1 1 1
v -0.2261871 1.695623 -0.1514478 1 1 1
v -0.266403 1.585487 -0.06282961 1 1 1
v -0.2867548 1.651265 -0.1008066 1 1 1
v -0.245134 1.373044 -0.5618153 1 1 1
v -0.2624093 1.544667 0.06267491 1 1 1
v -0.2621379 1.549997 0.05546897 1 1 1
v -0.2888588 1.584659 0.08576401 1 1 1
v -0.2642991 1.664037 0.131593 1 1 1
v -0.2185755 1.690793 0.1367576 1 1 1
v -0.2183041 1.687217 0.1449764 1 1 1
v -0.2306602 1.448416 0.1765888 1 1 1
v -0.2199063 1.316973 0.4845228 1 1 1
v -0.1776088 1.61988 0.2755842 1 1 1
v -0.2089118 1.333757 0.5375147 1 1 1
v -0.1993572 1.364638 0.5553439 1 1 1
v -0.1883627 1.418923 0.543384 1 1 1
v -0.2933234 1.49684 0.2045466 1 1 1
v -0.2598345 1.605078 0.2670378 1 1 1
v -0.2831753 1.372802 0.495133 1 1 1
v -0.2776852 1.381183 0.5215949 1 1 1
v -0.2754727 1.388334 0.5257233 1 1 1
v -0.2699826 1.415442 0.5197511 1 1 1
v -0.2245849 1.427329 0.5482367 1 1 1
v -0.213831 1.628286 0.280437 1 1 1
v -0.2668824 1.456821 0.1814416 1 1 1
v -0.2561285 1.325378 0.4893757 1 1 1
v -0.2361639 1.671155 0.03949085 1 1 1
v -0.2445496 1.644052 0.02384286 1 1 1
v -0.1999416 1.662749 0.03463799 1 1 1
v -0.2083274 1.635646 0.01899 1 1 1
v -0.2221585 1.697671 0.09810117 1 1 1
v -0.1859363 1.689265 0.09324831 1 1 1
v -0.1823533 1.682388 0.1319048 1 1 1
v -0.1820819 1.678812 0.1401236 1 1 1
v -0.2777375 1.643514 0.06683382 1 1 1
v -0.2754204 1.651003 0.07115753 1 1 1
v -0.2355794 1.373044 0.5601968 1 1 1
v -0.2585549 1.580036 0.03018445 1 1 1
v -0.2223327 1.57163 0.02533159 1 1 1
v -0.2259157 1.541592 0.05061611 1 1 1
v -0.2261871 1.536262 0.05782205 1 1 1
v -0.266403 1.668075 0.1088939 1 1 1
v -0.2867548 1.602298 0.07091688 1 1 1
v -0.245134 1.342163 0.5423676 1 1 1
v -0.2933278 1.943818 0.05199281 1 1 1
v -0.2598301 1.943818 -0.07302228 1 1 1
v -0.2668824 1.628286 -0.2820555 1 1 1
v -0.2933278 1.588348 -0.2588418 1 1 1
v -0.2933235 1.588267 -0.2589506 1 1 1
v -0.2598345 1.480029 -0.1964594 1 1 1
v -0.2598301 1.480082 -0.1963343 1 1 1
v -0.213831 1.456821 -0.1830602 1 1 1
v -0.2642991 1.567848 -0.07767677 1 1 1
v -0.2183041 1.544667 -0.0642934 1 1 1
v -0.1820819 1.553072 -0.06914626 1 1 1
v -0.1776088 1.465226 -0.187913 1 1 1
v -0.2261871 1.695623 -0.1514478 1 1 1
v -0.2306602 1.636691 -0.2869084 1 1 1
v -0.2888588 1.647226 -0.1235058 1 1 1
v -0.2668825 1.456821 0.1814417 1 1 1
v -0.2933279 1.496893 0.2044216 1 1 1
v -0.2933235 1.49684 0.2045466 1 1 1
v -0.2598345 1.605078 0.2670378 1 1 1
v -0.2598301 1.605159 0.2669291 1 1 1
v -0.213831 1.628286 0.2804371 1 1 1
v -0.2642992 1.664037 0.1315931 1 1 1
v -0.2183042 1.687217 0.1449764 1 1 1
v -0.1820819 1.678812 0.1401236 1 1 1
v -0.1776088 1.61988 0.2755842 1 1 1
v -0.2261872 1.536262 0.05782207 1 1 1
v -0.2624094 1.544667 0.06267495 1 1 1
v -0.2306603 1.448416 0.1765888 1 1 1
v -0.2888589 1.584659 0.08576404 1 1 1

vn -0.5981504 -0.1085347 0.7940004
vn -0.5947741 -0.2186132 0.7735971
vn -0.8563774 -0.2332612 0.4606596
vn -0.5113147 -0.2332612 -0.8271316
vn -0.1282908 -0.2186132 -0.9673418
vn -0.1210131 -0.1085347 -0.9866998
vn 0.965926 -4.789113E-18 0.2588191
vn -0.965926 4.789113E-18 -0.2588191
vn -0.5491134 0.3190484 -0.7724525
vn -0.5014133 0.08770577 -0.8607513
vn -0.1432822 0.4341784 -0.8893591
vn -0.1205163 0.1151525 -0.9860102
vn -0.5973753 0.1151525 0.7936517
vn -0.8646123 0.08770577 0.4947257
vn -0.5687656 0.4341784 0.6985664
vn -0.8617724 0.3190484 0.3944067
vn -0.2843369 -0.8872058 -0.3633428
vn -0.4279144 -0.8872058 0.1724956
vn 0.07722931 -0.9544434 -0.2882236
vn -0.07722931 -0.9544434 0.2882236
vn -0.166327 -0.5712286 -0.803762
vn 0.2041828 -0.6145195 -0.7620203
vn 0.2515241 -0.235749 -0.9387004
vn -0.2568205 0.1240347 0.9584669
vn -0.2288542 0.467062 0.8540955
vn 0.2570434 -0.1169396 -0.9592987
vn -0.7520654 -0.6589832 0.01177256
vn -0.6454214 -0.6589832 -0.3862281
vn -0.2709053 0.8694761 -0.4130632
vn 0.09156527 0.9353279 -0.3417262
vn 0.2288542 0.467062 -0.8540955
vn -0.5459244 -0.5712286 0.6129148
vn -0.2041828 -0.6145195 0.7620203
vn 0.2568205 0.1240347 -0.9584669
vn -0.2515241 -0.235749 0.9387004
vn -0.2570434 -0.1169396 0.9592987
vn -0.557768 -0.4242871 -0.713355
vn -0.8397188 -0.4242871 0.3388994
vn -0.642895 0.6389193 -0.4224549
vn -0.4411425 0.8694761 0.2222705
vn -0.09156527 0.9353279 0.3417262
vn -0.7679909 0.6389193 0.04440907
vn -0.5981503 0.7418914 -0.3030065
vn -0.594774 0.7792608 -0.1974741
vn -0.8563774 0.5155732 -0.02831975
vn -0.5113147 -0.5996859 0.6155761
vn -0.1282908 -0.7284353 0.6729956
vn -0.1210131 -0.8002391 0.5873438
vn 0.9659259 0.2241437 -0.1294096
vn -0.9659259 -0.2241437 0.1294096
vn -0.5491133 -0.8284872 0.1099223
vn -0.5014133 -0.7892848 0.3544203
vn -0.1432822 -0.987296 0.06867003
vn -0.1205163 -0.9114854 0.3932801
vn -0.5973753 0.6297457 -0.496551
vn -0.8646123 0.3845918 -0.3233184
vn -0.5687655 0.3878866 -0.7252928
vn -0.8617724 0.1820419 -0.4735075
vn -0.2843369 0.128939 0.9500142
vn -0.4279144 0.5929883 0.682095
vn 0.07722929 0.2276128 0.9706842
vn -0.07722929 0.7268304 0.6824605
vn -0.166327 -0.4104635 0.8965795
vn 0.2041827 -0.3526688 0.9131998
vn 0.251524 -0.6950632 0.6735149
vn -0.2568205 0.7680387 -0.5866508
vn -0.2288542 0.5061368 -0.8315355
vn 0.2570433 -0.7723066 0.5809222
vn -0.7520653 0.3396869 0.56481
vn -0.6454214 -0.004991502 0.7638103
vn -0.2709053 -0.7924609 -0.5464568
vn 0.09156525 -0.7636072 -0.6391548
vn 0.2288542 -0.9731987 0.02256021
vn -0.5459244 0.8164135 0.188241
vn -0.2041827 0.9671881 0.1511793
vn 0.2568205 -0.8920735 0.3718164
vn -0.251524 0.9308122 -0.2651857
vn -0.2570433 0.8892462 -0.3783768
vn -0.557768 -0.4056395 0.724121
vn -0.8397188 0.5056388 0.1979937
vn -0.642895 -0.6853159 -0.3420929
vn -0.4411425 -0.2422462 -0.8641238
vn -0.09156525 -0.1717206 -0.980881
vn -0.7679908 -0.2810002 -0.575525
vn -0.5981503 -0.6333568 -0.4909942
vn -0.594774 -0.5606477 -0.5761232
vn -0.8563774 -0.2823121 -0.43234
vn -0.5113147 0.832947 0.2115558
vn -0.1282908 0.9470484 0.2943465
vn -0.1210131 0.9087737 0.3993562
vn 0.9659259 -0.2241437 -0.1294096
vn -0.9659259 0.2241437 0.1294096
vn -0.5491133 0.5094388 0.6625304
vn -0.5014133 0.701579 0.5063311
vn -0.1432822 0.5531177 0.8206892
vn -0.1205163 0.796333 0.5927302
vn -0.5973753 -0.7448982 -0.2971009
vn -0.8646123 -0.4722976 -0.1714075
vn -0.5687655 -0.8220649 0.02672637
vn -0.8617724 -0.5010902 0.07910061
vn -0.2843369 0.7582666 -0.5866714
vn -0.4279144 0.2942174 -0.8545907
vn 0.07722929 0.7268304 -0.6824605
vn -0.07722929 0.2276128 -0.9706842
vn -0.166327 0.981692 -0.09281743
vn 0.2041827 0.9671881 -0.1511793
vn 0.251524 0.9308122 0.2651857
vn -0.2568205 -0.8920735 -0.3718164
vn -0.2288542 -0.9731987 -0.02256021
vn 0.2570433 0.8892462 0.3783768
vn -0.7520653 0.3192962 -0.5765826
vn -0.6454214 0.6639745 -0.3775821
vn -0.2709053 -0.07701501 0.9595201
vn 0.09156525 -0.1717206 0.980881
vn 0.2288542 0.5061368 0.8315355
vn -0.5459244 -0.2451851 -0.8011559
vn -0.2041827 -0.3526688 -0.9131998
vn 0.2568205 0.7680387 0.5866508
vn -0.251524 -0.6950632 -0.6735149
vn -0.2570433 -0.7723066 -0.5809222
vn -0.557768 0.8299266 -0.01076591
vn -0.8397188 -0.08135177 -0.5368932
vn -0.642895 0.0463967 0.7645479
vn -0.4411425 -0.6272298 0.6418531
vn -0.09156525 -0.7636072 0.6391548
vn -0.7679908 -0.357919 0.5311159
vn -0.5981606 -0.108383 0.7940135
vn -0.8678466 0.00251764 0.4968263
vn -0.5031639 0.00251764 -0.8641875
vn -0.1210155 -0.108383 -0.9867162
vn -0.5012557 -0.0826888 -0.8613394
vn -0.1427304 -0.1075545 -0.9839006
vn -0.6155585 -0.1075545 0.7807177
vn -0.8647699 -0.0826888 0.4953139
vn -0.5981605 0.7418268 -0.3031444
vn -0.8678465 0.4290051 -0.2505936
vn -0.503164 -0.7496666 0.4299135
vn -0.1210155 -0.8003291 0.5872207
vn -0.5012557 -0.7045969 0.5022804
vn -0.1427304 -0.798305 0.5850954
vn -0.6155584 0.729898 -0.297214
vn -0.8647699 0.4702985 -0.1760464
vn -0.5981605 -0.6334438 -0.4908693
vn -0.8678465 -0.4315227 -0.2462329
vn -0.503164 0.7471489 0.4342742
vn -0.1210155 0.9087121 0.3994957
vn -0.5012557 0.7872857 0.3590592
vn -0.1427304 0.9058595 0.3988055
vn -0.6155584 -0.6223436 -0.4835039
vn -0.8647699 -0.3876097 -0.3192676

vt 0.84375 0.3027739
vt 0.84375 0.2998054
vt 0.84375 0.3517
vt 0.84375 0.4625
vt 0.84375 0.475
vt 0.84375 0.4562581
vt 0.84375 0.275
vt 0.84375 0.2875
vt 0.84375 0.2955481
vt 0.96875 0.2248161

usemtl colormap

f 131/19/102 130/20/101 129/19/100
f 134/19/105 133/20/104 132/19/103
f 137/21/106 136/22/106 135/21/106
f 136/22/106 137/21/106 138/23/106
f 138/23/106 137/21/106 139/23/106
f 139/23/106 137/21/106 140/22/106
f 143/24/107 142/21/107 141/21/107
f 142/21/107 143/24/107 144/22/107
f 142/21/107 144/22/107 145/22/107
f 142/21/107 145/22/107 146/24/107
f 147/22/110 142/21/109 146/24/108
f 142/21/109 147/22/110 148/21/111
f 150/22/114 141/21/113 149/21/112
f 141/21/113 150/22/114 143/24/115
f 153/25/118 152/25/117 151/25/116
f 152/25/117 153/25/118 154/25/119
f 133/20/104 156/26/121 155/26/120
f 156/26/121 133/20/104 157/20/122
f 135/21/123 150/22/114 149/21/112
f 150/22/114 135/21/123 136/22/124
f 133/20/104 158/19/125 157/20/122
f 158/19/125 133/20/104 134/19/105
f 159/26/126 151/25/116 152/25/117
f 151/25/116 159/26/126 160/26/127
f 139/23/129 147/22/110 161/23/128
f 147/22/110 139/23/129 140/22/130
f 154/25/119 162/26/131 152/25/117
f 162/26/131 154/25/119 163/26/132
f 147/22/110 137/21/133 148/21/111
f 137/21/133 147/22/110 140/22/130
f 164/20/134 129/19/100 130/20/101
f 129/19/100 164/20/134 165/19/135
f 132/19/103 155/26/120 166/27/136
f 155/26/120 132/19/103 133/20/104
f 131/19/102 162/26/131 130/20/101
f 162/26/131 131/19/102 167/27/137
f 161/23/128 146/24/108 145/22/138
f 146/24/108 161/23/128 147/22/110
f 132/19/107 167/27/107 131/19/107
f 167/27/107 132/19/107 159/26/107
f 159/26/107 132/19/107 160/26/107
f 160/26/107 132/19/107 166/27/107
f 167/27/137 152/25/117 162/26/131
f 152/25/117 167/27/137 159/26/126
f 164/20/134 162/26/131 163/26/132
f 162/26/131 164/20/134 130/20/101
f 164/20/106 158/19/106 165/19/106
f 158/19/106 164/20/106 163/26/106
f 158/19/106 163/26/106 154/25/106
f 158/19/106 154/25/106 153/25/106
f 158/19/106 153/25/106 156/26/106
f 158/19/106 156/26/106 157/20/106
f 136/22/124 168/23/139 150/22/114
f 168/23/139 136/22/124 138/23/140
f 156/26/121 151/25/116 155/26/120
f 151/25/116 156/26/121 153/25/118
f 168/23/139 143/24/115 150/22/114
f 143/24/115 168/23/139 144/22/141
f 138/23/140 161/23/128 168/23/139
f 161/23/128 138/23/140 139/23/129
f 161/23/128 144/22/141 168/23/139
f 144/22/141 161/23/128 145/22/138
f 166/27/136 151/25/116 160/26/127
f 151/25/116 166/27/136 155/26/120
f 171/19/144 170/20/143 169/19/142
f 174/19/147 173/20/146 172/19/145
f 177/21/148 176/22/148 175/21/148
f 176/22/148 177/21/148 178/23/148
f 178/23/148 177/21/148 179/23/148
f 179/23/148 177/21/148 180/22/148
f 183/24/149 182/21/149 181/21/149
f 182/21/149 183/24/149 184/22/149
f 182/21/149 184/22/149 185/22/149
f 182/21/149 185/22/149 186/24/149
f 187/22/152 182/21/151 186/24/150
f 182/21/151 187/22/152 188/21/153
f 190/22/156 181/21/155 189/21/154
f 181/21/155 190/22/156 183/24/157
f 193/25/160 192/25/159 191/25/158
f 192/25/159 193/25/160 194/25/161
f 173/20/146 196/26/163 195/26/162
f 196/26/163 173/20/146 197/20/164
f 175/21/165 190/22/156 189/21/154
f 190/22/156 175/21/165 176/22/166
f 173/20/146 198/19/167 197/20/164
f 198/19/167 173/20/146 174/19/147
f 199/26/168 191/25/158 192/25/159
f 191/25/158 199/26/168 200/26/169
f 179/23/171 187/22/152 201/23/170
f 187/22/152 179/23/171 180/22/172
f 194/25/161 202/26/173 192/25/159
f 202/26/173 194/25/161 203/26/174
f 187/22/152 177/21/175 188/21/153
f 177/21/175 187/22/152 180/22/172
f 204/20/176 169/19/142 170/20/143
f 169/19/142 204/20/176 205/19/177
f 172/19/145 195/26/162 206/27/178
f 195/26/162 172/19/145 173/20/146
f 171/19/144 202/26/173 170/20/143
f 202/26/173 171/19/144 207/27/179
f 201/23/170 186/24/150 185/22/180
f 186/24/150 201/23/170 187/22/152
f 172/19/149 207/27/149 171/19/149
f 207/27/149 172/19/149 199/26/149
f 199/26/149 172/19/149 200/26/149
f 200/26/149 172/19/149 206/27/149
f 207/27/179 192/25/159 202/26/173
f 192/25/159 207/27/179 199/26/168
f 204/20/176 202/26/173 203/26/174
f 202/26/173 204/20/176 170/20/143
f 204/20/148 198/19/148 205/19/148
f 198/19/148 204/20/148 203/26/148
f 198/19/148 203/26/148 194/25/148
f 198/19/148 194/25/148 193/25/148
f 198/19/148 193/25/148 196/26/148
f 198/19/148 196/26/148 197/20/148
f 176/22/166 208/23/181 190/22/156
f 208/23/181 176/22/166 178/23/182
f 196/26/163 191/25/158 195/26/162
f 191/25/158 196/26/163 193/25/160
f 208/23/181 183/24/157 190/22/156
f 183/24/157 208/23/181 184/22/183
f 178/23/182 201/23/170 208/23/181
f 201/23/170 178/23/182 179/23/171
f 201/23/170 184/22/183 208/23/181
f 184/22/183 201/23/170 185/22/180
f 206/27/178 191/25/158 200/26/169
f 191/25/158 206/27/178 195/26/162
f 211/19/186 210/20/185 209/19/184
f 214/19/189 213/20/188 212/19/187
f 217/21/190 216/22/190 215/21/190
f 216/22/190 217/21/190 218/23/190
f 218/23/190 217/21/190 219/23/190
f 219/23/190 217/21/190 220/22/190
f 223/24/191 222/21/191 221/21/191
f 222/21/191 223/24/191 224/22/191
f 222/21/191 224/22/191 225/22/191
f 222/21/191 225/22/191 226/24/191
f 227/22/194 222/21/193 226/24/192
f 222/21/193 227/22/194 228/21/195
f 230/22/198 221/21/197 229/21/196
f 221/21/197 230/22/198 223/24/199
f 233/25/202 232/25/201 231/25/200
f 232/25/201 233/25/202 234/25/203
f 213/20/188 236/26/205 235/26/204
f 236/26/205 213/20/188 237/20/206
f 215/21/207 230/22/198 229/21/196
f 230/22/198 215/21/207 216/22/208
f 213/20/188 238/19/209 237/20/206
f 238/19/209 213/20/188 214/19/189
f 239/26/210 231/25/200 232/25/201
f 231/25/200 239/26/210 240/26/211
f 219/23/213 227/22/194 241/23/212
f 227/22/194 219/23/213 220/22/214
f 234/25/203 242/26/215 232/25/201
f 242/26/215 234/25/203 243/26/216
f 227/22/194 217/21/217 228/21/195
f 217/21/217 227/22/194 220/22/214
f 244/20/218 209/19/184 210/20/185
f 209/19/184 244/20/218 245/19/219
f 212/19/187 235/26/204 246/27/220
f 235/26/204 212/19/187 213/20/188
f 211/19/186 242/26/215 210/20/185
f 242/26/215 211/19/186 247/27/221
f 241/23/212 226/24/192 225/22/222
f 226/24/192 241/23/212 227/22/194
f 212/19/191 247/27/191 211/19/191
f 247/27/191 212/19/191 239/26/191
f 239/26/191 212/19/191 240/26/191
f 240/26/191 212/19/191 246/27/191
f 247/27/221 232/25/201 242/26/215
f 232/25/201 247/27/221 239/26/210
f 244/20/218 242/26/215 243/26/216
f 242/26/215 244/20/218 210/20/185
f 244/20/190 238/19/190 245/19/190
f 238/19/190 244/20/190 243/26/190
f 238/19/190 243/26/190 234/25/190
f 238/19/190 234/25/190 233/25/190
f 238/19/190 233/25/190 236/26/190
f 238/19/190 236/26/190 237/20/190
f 216/22/208 248/23/223 230/22/198
f 248/23/223 216/22/208 218/23/224
f 236/26/205 231/25/200 235/26/204
f 231/25/200 236/26/205 233/25/202
f 248/23/223 223/24/199 230/22/198
f 223/24/199 248/23/223 224/22/225
f 218/23/224 241/23/212 248/23/223
f 241/23/212 218/23/224 219/23/213
f 241/23/212 224/22/225 248/23/223
f 224/22/225 241/23/212 225/22/222
f 246/27/220 231/25/200 240/26/211
f 231/25/200 246/27/220 235/26/204
f 141/2/113 249/28/227 149/2/226
f 148/2/229 250/28/228 142/2/109
f 250/28/228 134/1/231 132/1/230
f 134/1/231 250/28/228 148/2/229
f 148/2/229 158/1/125 134/1/231
f 158/1/125 148/2/229 137/2/125
f 135/2/135 129/1/232 165/1/135
f 129/1/232 135/2/135 149/2/226
f 141/2/107 131/1/107 249/28/107
f 131/1/107 141/2/107 142/2/107
f 131/1/107 142/2/107 132/1/107
f 132/1/107 142/2/107 250/28/107
f 165/1/106 137/2/106 135/2/106
f 137/2/106 165/1/106 158/1/106
f 249/28/227 129/1/232 149/2/226
f 129/1/232 249/28/227 131/1/233
f 253/2/155 252/28/235 251/2/234
f 256/2/237 255/28/236 254/2/151
f 255/28/236 258/1/239 257/1/238
f 258/1/239 255/28/236 256/2/237
f 256/2/237 259/1/167 258/1/239
f 259/1/167 256/2/237 260/2/167
f 262/2/177 169/1/240 261/1/177
f 169/1/240 262/2/177 251/2/234
f 253/2/149 263/1/149 252/28/149
f 263/1/149 253/2/149 254/2/149
f 263/1/149 254/2/149 257/1/149
f 257/1/149 254/2/149 255/28/149
f 261/1/148 260/2/148 262/2/148
f 260/2/148 261/1/148 259/1/148
f 252/28/235 169/1/240 251/2/234
f 169/1/240 252/28/235 263/1/241
f 266/2/197 265/28/243 264/2/242
f 269/2/245 268/28/244 267/2/193
f 268/28/244 271/1/247 270/1/246
f 271/1/247 268/28/244 269/2/245
f 269/2/245 272/1/209 271/1/247
f 272/1/209 269/2/245 273/2/209
f 276/2/219 275/1/248 274/1/219
f 275/1/248 276/2/219 264/2/242
f 266/2/191 277/1/191 265/28/191
f 277/1/191 266/2/191 267/2/191
f 277/1/191 267/2/191 270/1/191
f 270/1/191 267/2/191 268/28/191
f 274/1/190 273/2/190 276/2/190
f 273/2/190 274/1/190 272/1/190
f 265/28/243 275/1/248 264/2/242
f 275/1/248 265/28/243 277/1/249

